<svg width="1920" height="800" viewBox="0 0 1920 800" fill="none" xmlns="http://www.w3.org/2000/svg">
<g clip-path="url(#clip0_921_4702)">
<rect width="1920" height="800" fill="url(#paint0_linear_921_4702)"/>
<rect width="1920" height="800" fill="#202020"/>
<g opacity="0.2" filter="url(#filter0_f_921_4702)">
<circle cx="2086" cy="528" r="436" fill="url(#paint1_radial_921_4702)"/>
</g>
<g opacity="0.15">
<path d="M1038.33 297.89L1072.56 359.989L1188.84 355.556L1273.23 316.291L1303.84 313.552L1317.66 251.039L1489.21 113.146L1493.02 109.025C1493.23 108.786 1493.5 108.628 1493.81 108.58C1494.11 108.531 1494.42 108.594 1494.68 108.759L1495.65 107.938L1549.19 76.0849L1550.12 74.2097L1550.39 74.7008L1596.32 17.976L1596.8 18.0504L1755.87 -24.6091L1755.94 -25.0471L1757.73 -24.7707L1759.85 -25.3383L1834.47 -83.3055L1938.42 -27.5367L2028.75 166.267L2031.39 171.981L2158.81 354.405L2321.23 408.756L2419.77 471.312L2581.16 483.273L2626.67 618.87C2626.68 619.019 2626.66 619.169 2626.6 619.308V619.308L2644.15 794.676L2644.09 795.114L2612.51 859.141L2577.81 774.173L2603.14 733.246L2593.02 575.77L2534.07 514.33L2472.38 531.471L2505.2 646.792L2492.9 800.876L2572.5 893.985L2572.98 893.162L2572.77 894.549L2573.9 895.846L2581.84 986.016L2574.42 1028.52L2640.97 1123.2L2630.11 1173.84L2630.03 1174.35L2649.8 1265.3L2589.97 1253.21L2539.41 1254.8L2546.19 1195.08L2571.01 1125.6L2512.15 1000.27L2512.09 1000.71L2511.28 998.196L2420.62 905.17L2401.96 951.238L2424.13 1065.36L2441.78 1102.25L2412 1171.49L2433.83 1222.77L2393.67 1229.94L2392.02 1229.68L2330.57 1217.56L2342.68 1182.06L2381.96 1129.17L2354.98 1026.56L2343.41 960.344L2244.84 903.464L2204.17 859.802L2203.62 859.717L2203.21 859.653L2183.24 803.197L2119.83 823.285L2065.83 793.032L2051.19 810.35L1968.11 797.497L1962.72 798.233L1909.82 828.168L1879.83 807.832L1880.5 776.693L1880.15 776.64L1880.22 776.202L1869.02 768.116L1868.36 769.658L1867.86 768.311L1847.44 785.706L1850.16 845.919L1841.93 926.862L1872.34 984.933L1835.53 1026.4L1839.19 1072.78L1767.03 1074.4L1766.62 1074.34L1766.28 1074.28L1744.36 1059.98L1764.86 1028.4L1769.26 896.263L1740.04 772.679L1637.38 657.167L1582.5 583.053L1562.63 581.849L1562.57 582.287L1561.67 582.148L1556.26 594.391L1557.22 594.54L1556.03 595.402L1566.97 651.581L1534.86 699.531L1442.19 704.104L1417.13 669.584L1420.9 653.425L1362.25 532.239L1361.93 531.591L1301.33 528.047L1300.72 527.952L1278.57 494.629L1286.32 426.319L1217.26 399.715L1100.33 402.404L1052.15 384.561L1050.1 384.618C1049.77 384.618 1049.45 384.491 1049.2 384.26C1048.95 384.03 1048.79 383.711 1048.75 383.362L1048.33 383.298L1038.33 297.89ZM1153.57 378.427L1182.62 358.929L1059.8 379.691L1153.57 378.427ZM1360.62 526.382L1325.36 450.52L1303.4 522.91L1360.62 526.382ZM1833.2 1031.05L1832.8 1026.35L1833.2 1031.05ZM1829.96 1028.3L1771.45 1069.03L1835.84 1067.63L1829.96 1028.3ZM1832.72 1022.3L1838.92 925.351L1805.53 847.387L1831.86 1022.39L1832.72 1022.3ZM1803.52 852.232L1769.13 1021.29L1829.07 1022.26L1803.52 852.232ZM1804.54 837.891L1843.33 784.098L1748.94 772.037L1804.54 837.891ZM1844.11 781.304L1839.42 692.906L1745.2 768.02L1745.92 768.805L1844.11 781.304ZM1936.07 599.856L1842.2 691.318L1842.11 691.902L1868.46 760.332L1936.07 599.856ZM1882.11 803.551L1956.23 794.24L1883.7 775.544L1882.81 775.406L1882.11 803.551ZM2383.22 1131.46L2335.95 1212.34L2408.29 1170.46L2383.22 1131.46ZM2391.68 1226.42L2408.43 1173.63L2336.1 1215.5L2391.68 1226.42ZM2421.06 1066.53L2349.3 968.206L2409.99 1164.45L2421.06 1066.53ZM2628.56 1177.48L2582.26 1224.36L2646.87 1261.49L2628.56 1177.48ZM2581.07 1221.56L2626.94 1175.21L2574.66 1129.76L2581.07 1221.56ZM2626.46 1171.03L2575.1 1036.4L2574.5 1125.32L2626.46 1171.03ZM2471.14 528.588L2529.93 512.42L2423.05 475.557L2471.14 528.588ZM2595.7 574.39L2620.99 610.591L2579.22 486.71L2536.56 512.773L2595.7 574.39ZM2322.55 412.547L2322.13 412.483L2084.03 447.55L2413.8 470.314L2322.55 412.547ZM1597.78 20.8178L1553.87 74.4918L1698.71 45.1761L1597.78 20.8178ZM1289.01 422.174L1420.8 442.563L1281.23 371.94L1289.01 422.174ZM1938.71 594.136L1709.71 661.778L1840.37 689.466L1938.71 594.136ZM2389.18 882.816L2439.64 829.558L2216.57 858.356L2389.18 882.816ZM2478.44 888.029L2567.93 895.819L2446.14 830.714L2478.44 888.029ZM2025.13 169.219L1932.06 174.105L2024.58 239.616L2026.23 170.286L2025.13 169.219ZM1763.84 26.6999L1706.63 46.2526L1789.41 66.5318L1763.84 26.6999ZM1579.72 125.278L1698.31 48.1796L1552.43 77.9303L1579.72 125.278ZM1430.45 482.099L1516.64 448.869L1430.97 446.452L1430.45 482.099ZM1387.08 383.084L1520.18 444.633L1434.5 307.606L1387.08 383.084ZM1432.07 306.483L1310.35 316.054L1384.81 381.388L1432.07 306.483ZM1389.62 387.139L1430.49 443.613L1431.18 443.72L1517.13 446.179L1389.62 387.139ZM1384.55 384.934L1287.71 371.896L1425.32 441.095L1384.55 384.934ZM1380.73 381.428L1307.61 317.799L1281.49 368.394L1380.73 381.428ZM1433.95 303.484L1463.04 242.736L1314.04 312.663L1433.95 303.484ZM1437.08 303.222L1437.43 303.275L1436.39 304.983L1520.21 439.031L1465.98 243.787L1437.08 303.222ZM1523.73 441.743L1552.81 299.225L1468.69 243.086L1523.73 441.743ZM1665.29 382.623L1559.15 303.719L1607.67 373.934L1665.29 382.623ZM1944.2 589.155L1948.85 587.707L1948.03 588.477L2043.53 573.354L1919.45 543.545L1718.01 655.887L1939.18 590.621L1939.27 590.038L1944.2 589.155ZM2110.93 655.234L1979.93 689.305L2053.85 744.466L2110.93 655.234ZM2225.33 580.7L2224.74 579.937L2225.5 580.053L2208.72 520.655L2119.41 648.175L2225.33 580.7ZM2115.5 653.922L2069.63 782.11L2221.31 586.656L2115.5 653.922ZM2442.66 823.672L2453.01 721.756L2337.99 758.449L2442.29 824.662L2442.66 823.672ZM2335.43 756.335L2449.19 720.044L2304.05 685.856L2335.43 756.335ZM2303.1 679.73L2342.73 635.934L2312.96 577.29L2303.1 679.73ZM2310.49 574.143L2229.93 582.309L2300.31 679.972L2310.49 574.143ZM2311.46 571.079L2409.73 481.642L2234.24 579.015L2311.46 571.079ZM2057.25 364.556L2056.77 364.481L1920.51 387.499L2068.71 446.525L2057.25 364.556ZM1920.85 540.847L2047.63 571.373L1916.81 393.654L1920.85 540.847ZM1914.36 384.978L1944.15 296.534L1773.76 340.955L1914.36 384.978ZM1937.63 295.002L1769.72 282.031L1769.97 338.649L1937.63 295.002ZM1733.1 96.6865L1721.53 152.822L1789.77 72.3437L1733.1 96.6865ZM1730.47 95.9069L1708.12 55.7505L1719.42 149.133L1730.47 95.9069ZM1719.93 159.077L1655.61 268.714L1840.67 159.967L1721.28 158.538L1719.93 159.077ZM1767.13 339.705L1766.88 285.403L1676.86 380.601L1764.45 341.085L1763.22 340.893L1767.13 339.705ZM1838.49 164.488L1657.37 271.004L1768.14 278.125L1838.49 164.488ZM1764.96 283.238L1765.81 281.801L1755.45 281.02L1759.34 280.426L1653.68 273.497L1671.36 382.067L1764.96 283.238ZM1845.94 160.034L1843.61 161.394L1772.88 275.718L1924.81 173.656L1845.94 160.034ZM1923.89 170.524L1866.96 119.637L1847.82 157.859L1923.89 170.524ZM1671.93 385.667L1647.89 464.165L1762.42 345.106L1671.93 385.667ZM1651.06 274.512C1651.06 274.512 1650.71 274.459 1650.51 274.427C1650.2 274.482 1649.89 274.434 1649.61 274.289L1558.35 298.887L1668.39 381.234L1651.06 274.512ZM1651.22 270.725L1713.72 164.171L1560.07 295.49L1651.22 270.725ZM1704.56 49.6685L1582.02 256.432L1717.62 157.15L1704.56 49.6685ZM1732.35 93.8049L1788.29 70.0964L1707.92 50.1894L1732.35 93.8049ZM1793.3 72.2913L1722.85 155.194L1862.95 116.475L1793.93 72.3139L1793.3 72.2913ZM1731.55 155.792L1843.09 157.052L1844.88 157.329L1864.01 119.18L1731.55 155.792ZM1869.37 117.693L1928.52 171.09L1939.11 83.0392L1869.39 117.099L1870.01 117.194L1869.37 117.693ZM1774.16 278.309L2022.28 240.83L1928.56 174.46L1774.16 278.309ZM1780.91 280.175L1945.83 292.981L2019.59 244.599L1780.91 280.175ZM1917.17 384.965L2054.43 361.877L1947.25 296.49L1917.17 384.965ZM1916.56 388.907L2050.29 570.139L2068.9 449.843L1916.56 388.907ZM2052.2 573.201L2111.72 649.227L2070.34 455.971L2052.2 573.201ZM2114.56 649.517L2207.44 517.615L2072.41 451.21L2114.56 649.517ZM2233.37 575.59L2232.66 576.527L2415.18 475.085L2211 518.241L2228.11 579.112L2233.37 575.59ZM2110.82 652.302L2052.1 577.071L2051.35 575.984L1980.19 686.207L2110.82 652.302ZM1918.13 541.173L1913.91 391.038L1711.7 656.182L1918.13 541.173ZM1770.16 342.864L1789.72 489.319L1912.09 387.319L1770.16 342.864ZM1767.54 343.879L1648.71 467.506L1787.03 490.324L1767.54 343.879ZM1644.25 466.815L1668.82 386.681C1668.54 386.51 1668.31 386.269 1668.15 385.98L1609.4 376.891L1644.07 467.013L1644.25 466.815ZM1555.78 303.198L1556.89 475.275L1605.59 375.107L1555.78 303.198ZM1689.97 180.825L1578.5 262.316L1577.58 263.743L1560.32 291.642L1689.97 180.825ZM1577.08 259.255L1700.96 49.7103L1580.69 127.67L1577.08 259.255ZM1793.67 68.5366L1928.92 -21.6071L1766.78 25.8842L1793.67 68.5366ZM1796.76 69.9122L1939.46 79.4306L1936.13 -22.7339L1796.76 69.9122ZM1800.08 73.0411L1866.65 115.703L1935.2 81.9847L1800.08 73.0411ZM1941.92 83.9966L1931.51 170.88L2022.51 166.124L1941.92 83.9966ZM2025.78 243.688L1949.62 293.941L2151.67 352.329L2025.78 243.688ZM1956.25 298.853L2058.63 361.106L2149.34 354.659L1956.25 298.853ZM2071.72 447.066L2316.54 410.871L2059.77 365.095L2071.72 447.066ZM2209.8 515.515L2408.96 473.45L2077.85 450.631L2209.8 515.515ZM2313.51 572.816L2343.95 632.609L2415.37 479.749L2313.51 572.816ZM2303.53 682.861L2447.59 716.732L2344.71 638.109L2303.53 682.861ZM2442.49 830.672L2421.93 901.261L2474.78 887.987L2442.49 830.672ZM2438.6 826.258L2334.44 759.994L2211.1 855.941L2438.6 826.258ZM2300.52 686.806L2188.73 797.246L2332.46 757.369L2300.52 686.806ZM2227.29 583.47L2069.82 786.325L2299.19 683.161L2227.29 583.47ZM2108.57 663.688L2055.54 746.745L2065.36 785.634L2108.57 663.688ZM2049.78 745.33L1976.65 690.443L1884.92 772.669L2049.78 745.33ZM1890.47 774.5L1961.02 792.887L2045.16 749.25L1890.47 774.5ZM2047.9 575.526L1944.32 592.013L1943.5 592.71L1943.32 593.878L1977.12 685.583L2047.9 575.526ZM1906.3 395.69L1790.26 492.618L1790.13 493.494L1789.37 493.377L1710.63 653.101L1906.3 395.69ZM1644.52 469.622L1570.49 480.593L1764.03 489.381L1644.52 469.622ZM1640.87 467.264L1607.05 378.397L1557.96 479.253L1640.87 467.264ZM1552.79 311.629L1525.49 445.379L1526.32 444.985L1525.25 447.36L1553.86 477.572L1552.79 311.629ZM1524.27 450.498L1524.16 451.228L1523.64 450.475L1477.74 548.012L1552.73 481.658C1552.69 481.487 1552.68 481.307 1552.71 481.131C1552.74 480.955 1552.8 480.786 1552.89 480.636L1524.27 450.498ZM1429.73 484.903L1413.52 551.53L1474.29 548.899L1520.73 450.174L1429.73 484.903ZM1415.33 554.352L1486.52 636.744L1474.41 552.206L1415.33 554.352ZM1410.79 550.959L1426.39 486.928L1365.73 527.92L1410.79 550.959ZM1427.21 483.018L1427.71 448.863L1369.18 522.025L1427.21 483.018ZM1425.85 446.333L1326.53 447.936L1363.04 525.335L1425.85 446.333ZM1303.42 317.599L1164.35 377.926L1278.48 367.853L1303.42 317.599ZM1465.2 238.809L1490.96 115.06L1313.62 309.908L1465.2 238.809ZM1554 296.568L1574.16 264.035L1473.45 242.776L1554 296.568ZM1574.24 261.208L1577.84 130.594L1469.26 238.914L1574.24 261.208ZM1577.53 127.181L1550.27 80.0628L1471.65 232.558L1577.53 127.181ZM1762.25 24.661L1762.87 24.7567L1756.83 -17.1367L1709.16 43.1302L1762.25 24.661ZM1759.27 -20.6454L1765.6 23.4605L1931.76 -25.4276L1760.82 -22.4979L1759.27 -20.6454ZM1942 80.2725L2025.67 165.715L1938.95 -20.9523L1942 80.2725ZM2029.62 173.426L2028.89 172.641L2027.3 241.157L2029.65 242.792L2029.24 242.728L2150.49 347.214L2029.62 173.426ZM2067.06 363.457L2301.52 405.184L2157.69 357.073L2067.06 363.457ZM2575.84 485.813L2430.53 474.994L2534.59 510.973L2575.84 485.813ZM2420.27 476.696L2347.9 631.65L2469.13 530.22L2420.27 476.696ZM2454.05 717.732L2501.98 648.535L2348.84 637.85L2454.05 717.732ZM2501.9 653.605L2456.53 719.46L2457.65 720.382L2456.54 720.733L2490.73 796.279L2501.9 653.605ZM2490.02 802.224L2455.21 725.236L2444.94 826.641L2567.32 891.988L2490.02 802.224ZM2479.7 890.317L2513.34 994.405L2570.03 898.162L2479.7 890.317ZM2514.95 997.195L2572.39 1026.63L2570.48 902.492L2514.95 997.195ZM2572.53 1030.24L2515.95 1001.24L2571.84 1120.2L2572.53 1030.24ZM2476.89 890.778L2423.52 904.197L2509.86 992.82L2476.89 890.778ZM2439.75 833.387L2392.07 883.711L2419.97 901.183L2439.75 833.387ZM2344.68 956.728L2387.26 885.21L2209.01 859.951L2343.84 957.121C2343.84 957.121 2344.25 956.737 2344.68 956.728ZM2347.63 957.633L2399.57 950.72L2389.15 888.043L2347.63 957.633ZM2205.38 856.55L2327.68 761.414L2185.84 800.91L2205.38 856.55ZM2296.77 687.421L2071.05 788.832L2183.5 798.754L2296.77 687.421ZM2053.27 748.261L1968.17 792.574L2063.52 788.414L2053.27 748.261ZM1975.38 688.228L1942.11 598.1L1884.68 769.194L1975.38 688.228ZM1740.87 764.586C1741.16 764.398 1741.49 764.323 1741.82 764.374C1742.15 764.424 1742.45 764.598 1742.66 764.862L1743.66 766.138L1837.74 691.003L1706.88 663.658L1740.87 764.586ZM1704.56 659.562L1785.85 494.775L1586.11 579.725L1704.56 659.562ZM1782.37 493.19L1557.41 482.829L1583.9 577.664L1782.37 493.19ZM1553.16 485.238L1481.04 549.419L1559.24 576.018L1553.16 485.238ZM1489.59 638.788L1551.91 592.97L1477.44 552.674L1489.59 638.788ZM1563.11 650.162L1492 642.748L1534.02 693.571L1563.11 650.162ZM1488.39 642.863L1487.59 643.487L1487.73 642.611L1431.39 651.087L1530.12 692.444L1488.39 642.863ZM1485.82 639.924L1414.34 556.217L1423.8 647.893L1426.31 648.954L1485.82 639.924ZM1411.08 553.62L1366.14 530.748L1420.25 643.084L1411.08 553.62ZM1323.6 446.884L1289.61 426.453L1302.47 516.637L1323.6 446.884ZM1325.62 444.73L1412.33 443.196L1294.83 425.018L1325.62 444.73ZM1278.68 370.65L1221.17 396.284L1285.98 421.258L1278.68 370.65ZM1270.75 370.992L1165.38 380.328L1217.58 394.458L1270.75 370.992ZM1072.24 362.93L1054.4 378.183L1167.19 359.083L1072.24 362.93ZM1050.37 377.859L1069.97 361.233L1042.46 311.683L1050.37 377.859ZM1189.85 357.729L1164.18 374.91L1299.85 316.597L1274.24 318.84L1189.85 357.729ZM1320.13 252.392L1306.71 313.174L1477.08 126.068L1320.13 252.392ZM1496.96 109.934L1494.08 112.179L1469.5 230.131L1546.58 80.2399L1496.96 109.934ZM1603.19 19.039L1704.94 43.5249L1756.64 -21.8735L1603.19 19.039ZM1764.11 -25.5764L1932.14 -28.3581L1834.71 -80.801L1764.11 -25.5764ZM2625.53 637.155L2613.87 848.963L2640.83 794.312L2625.53 637.155ZM2580.82 774.265L2611.41 849.405L2622.57 640.808L2605.82 733.212L2580.82 774.265ZM2605.17 721.902L2623.67 619.602L2595.79 579.711L2605.17 721.902ZM2469.69 532.475L2348.01 635.031L2501.86 645.677L2469.69 532.475ZM2573.24 914.206L2574.96 1014.55L2579.82 986.303L2573.24 914.206ZM2638.58 1124.1L2578.82 1039.14L2628.99 1169.7L2638.58 1124.1ZM2590.76 1251.24L2640.09 1261.18L2579.87 1226.6L2578.46 1227.96L2578.53 1227.52L2545.98 1252.38L2590.73 1251.01L2590.76 1251.24ZM2549.42 1196.48L2543.3 1251.07L2578.55 1223.78L2572.1 1133.1L2549.42 1196.48ZM2418.74 904.132L2391.42 886.975L2401.35 946.959L2418.74 904.132ZM2399.71 953.506L2347.22 960.334L2420.1 1060.48L2399.71 953.506ZM2438.93 1102.48L2423.44 1071.16L2413.1 1162.54L2438.93 1102.48ZM2411.43 1177L2411.22 1178.32L2410.57 1176.2L2394.48 1227L2430.49 1220.69L2411.43 1177ZM2337.87 1204.04L2369.44 1150.03L2345.01 1182.87L2337.87 1204.04ZM2357.68 1025.93L2384.61 1128.38L2406.32 1162.24L2349 976.53L2357.68 1025.93ZM2246.34 901.079L2320.75 944.056L2215.3 867.95L2246.34 901.079ZM2176.4 800.57L2071.64 791.839L2119.77 818.716L2176.4 800.57ZM2061.96 791.237L1980.4 794.914L2049.88 805.662L2061.96 791.237ZM1955.01 797.115L1884.83 805.99L1909.66 822.837L1955.01 797.115ZM1880.93 770.706L1935.48 609.108L1870.03 763.414L1880.93 770.706ZM1842.63 699.905L1846.85 779.486L1866.45 762.861L1842.63 699.905ZM1844.45 786.365L1805.66 840.158L1839.36 918.915L1847.04 843.344L1844.45 786.365ZM1868.7 981.678L1841.2 929.291L1835.36 1019.8L1868.7 981.678ZM1747.91 1056.12L1766.63 1068.36L1829.71 1024.45L1767.74 1023.46L1767.35 1025.94L1767.29 1026.38L1747.91 1056.12ZM1771.64 892.744L1767.69 1013.29L1802.18 843.58L1801.86 841.586C1801.81 841.232 1801.89 840.87 1802.08 840.57C1802.27 840.269 1802.55 840.049 1802.88 839.951V839.951L1744.57 771.138L1742.72 770.851L1771.64 892.744ZM1639.19 652.29L1737.41 762.855L1703.63 662.856C1703.42 662.839 1703.22 662.761 1703.06 662.63C1702.89 662.498 1702.76 662.319 1702.69 662.113C1702.63 661.943 1702.62 661.761 1702.65 661.583C1702.68 661.405 1702.74 661.236 1702.85 661.091L1589.24 584.544L1639.19 652.29ZM1581.03 577.071L1555.89 487.155L1562.14 575.942L1581.03 577.071ZM1558.9 578.207L1485.27 553.886L1554 590.827L1558.9 578.207ZM1492.15 639.483L1563.62 646.877L1553.44 594.404L1492.15 639.483ZM1443.29 698.37L1527.61 694.972L1425.52 652.197L1423.43 652.545L1420.07 666.974L1443.29 698.37ZM1300.02 519.249L1287.79 433.646L1281.27 491.309L1300.02 519.249ZM1100.39 397.031L1207.27 395.18L1155.94 381.334L1154.5 381.111C1154.24 381.248 1153.95 381.298 1153.66 381.254C1153.38 381.21 1153.12 381.075 1152.91 380.866L1060.19 382.143L1100.39 397.031Z" fill="url(#paint2_radial_921_4702)"/>
</g>
<g style="mix-blend-mode:overlay">
<path d="M1021.14 241.105L1072.22 351.628L1150.23 354.503L1206.61 343.867L1300.27 306.559L1317.09 250.116L1427.09 88.9479L1427.63 88.1358L1450.9 95.0986L1457.96 76.7578L1494.77 105.772L1547.98 49.7256L1547 48.8256L1548.99 48.6853L1555.17 43.2886L1722.07 -21.7782L1832.76 -83.2824L1834.15 -84.04C1834.52 -84.1319 1834.92 -84.0712 1835.25 -83.8699L1953.33 -91.2396L2026.68 154.573L2176.52 237.546L2180 238.683L2050.39 299.204L2059.25 348.857C2059.25 348.857 2059.25 348.857 2059.19 349.222L2050.21 478.705L2098.39 522.931L2285.95 524.441L2284.9 523.458L2286.48 523.702L2229.75 435.624C2229.74 435.451 2229.76 435.276 2229.83 435.113C2230.11 435.055 2230.4 435.1 2230.65 435.241V435.241L2265.1 439.972L2236.33 328.94L2103.21 339.813L2093.07 308.946C2092.96 308.587 2092.98 308.196 2093.13 307.846C2093.27 307.496 2093.53 307.213 2093.86 307.049C2094.2 306.927 2094.57 306.941 2094.9 307.088C2095.22 307.235 2095.49 307.505 2095.63 307.847L2105.56 334.646L2237.82 323.864L2238.51 323.97L2267.89 437.414L2298 441.548L2392.03 454.974L2262.82 342.829L2284.25 312.511C2284.48 312.201 2284.81 311.991 2285.17 311.923C2285.53 311.854 2285.91 311.932 2286.21 312.141C2286.5 312.376 2286.69 312.723 2286.73 313.108C2286.78 313.493 2286.68 313.885 2286.46 314.197L2266.56 342.287L2396.91 455.729L2397.53 455.825C2397.74 455.585 2398.02 455.428 2398.32 455.379C2398.62 455.331 2398.93 455.394 2399.19 455.558L2401.25 456.775L2446.88 468.841L2447.5 468.936L2453.47 469.861L2565.01 449.296L2566.05 448.934L2618.87 555.091L2678.55 548.628C2678.91 548.591 2679.26 548.704 2679.54 548.942C2679.82 549.18 2680 549.525 2680.04 549.905C2680.05 550.098 2680.02 550.292 2679.97 550.477C2679.91 550.662 2679.81 550.833 2679.69 550.981C2679.57 551.129 2679.43 551.25 2679.26 551.339C2679.1 551.428 2678.92 551.481 2678.74 551.497L2619.27 557.919L2602.4 740.669C2602.41 740.842 2602.38 741.017 2602.32 741.179L2667.28 781.573C2667.59 781.771 2667.82 782.094 2667.9 782.472C2667.99 782.849 2667.93 783.251 2667.74 783.588C2667.61 783.824 2667.41 784.016 2667.18 784.14C2666.95 784.263 2666.69 784.313 2666.44 784.283L2665.89 784.198L2600.04 744.115L2599.62 744.051L2599.01 743.955L2596.24 741.809L2595.56 741.702L2596.02 690.501L2588.78 591.768L2539.16 522.729L2477.6 529.5L2478.56 530.995C2478.71 531.287 2478.76 531.622 2478.71 531.951C2478.66 532.28 2478.51 532.584 2478.28 532.82L2492.92 579.182C2493.22 579.391 2493.43 579.718 2493.5 580.092C2493.58 580.466 2493.51 580.859 2493.32 581.186C2493.19 581.429 2493 581.627 2492.76 581.751C2492.53 581.876 2492.27 581.921 2492.01 581.881L2491.26 581.764L2464.06 621.131L2463.9 622.153L2482.9 630.324L2486.83 663.146C2486.86 663.344 2486.83 663.551 2486.74 663.73L2498.79 779.127L2627.19 911.102L2664.27 911.981C2664.45 911.989 2664.63 912.035 2664.8 912.117C2664.97 912.2 2665.11 912.316 2665.23 912.46C2665.36 912.604 2665.45 912.772 2665.51 912.956C2665.57 913.139 2665.59 913.334 2665.58 913.529C2665.54 913.905 2665.38 914.258 2665.12 914.52C2664.86 914.783 2664.52 914.937 2664.16 914.954L2627.94 913.984L2583.36 1016.58L2649.28 1136.2L2633.33 1164.31L2673.17 1169.65L2639.09 1192.1L2658.17 1270.69L2571.39 1269.98L2553.89 1259.8L2527.32 1253.74L2566.54 1230.36L2592.66 1160.18L2599.03 1137.7L2590.16 1072.65L2571.58 1024.93L2526.23 975.159L2544.66 926.962L2519.98 875.01C2519.93 874.828 2519.92 874.634 2519.95 874.444C2519.98 874.254 2520.05 874.073 2520.15 873.915L2414.06 843.825L2349.93 899.527L2418.23 989.694L2418.81 990.457L2375.24 1077.44L2447.86 1098.32L2418.31 1044.64C2418.21 1044.49 2418.14 1044.33 2418.1 1044.15C2418.06 1043.97 2418.05 1043.78 2418.08 1043.6C2418.11 1043.41 2418.17 1043.24 2418.26 1043.08C2418.35 1042.92 2418.47 1042.78 2418.62 1042.67C2418.92 1042.44 2419.28 1042.35 2419.64 1042.4C2420 1042.46 2420.33 1042.66 2420.54 1042.97L2452.29 1100.65L2429.51 1129.64L2422.99 1164.5L2423.31 1165.15L2437.16 1232.09L2342.42 1230.52L2322.11 1210.34L2370.53 1139.27L2372.41 1081.64L2372.53 1080.91L2372.28 1079.3L2371.76 1075.86L2335.34 968.799L2265.97 937.813C2265.63 937.661 2265.37 937.371 2265.23 937.007C2265.1 936.642 2265.1 936.234 2265.25 935.87C2265.4 935.507 2265.68 935.219 2266.03 935.069C2266.37 934.919 2266.76 934.921 2267.1 935.072L2335.33 965.658L2345.36 900.839C2345.35 900.69 2345.37 900.54 2345.43 900.401L2282.3 896.839C2282.19 896.994 2282.03 897.116 2281.86 897.193C2281.69 897.271 2281.5 897.303 2281.32 897.285L2280.77 897.2C2280.61 897.209 2280.44 897.184 2280.29 897.126V897.126C2280 897.005 2279.75 896.782 2279.6 896.494C2279.44 896.205 2279.39 895.868 2279.44 895.537C2279.49 895.206 2279.65 894.901 2279.88 894.673C2280.11 894.444 2280.41 894.305 2280.73 894.279L2213.8 781.154L2212.4 778.323L2165.95 739.746L2185.88 809.273L2185.67 810.587L2186.21 812.539L2190.31 858.84L2224.91 853.504L2258.4 886.265C2258.66 886.519 2258.82 886.873 2258.84 887.252C2258.86 887.631 2258.74 888.006 2258.51 888.3C2258.36 888.481 2258.17 888.621 2257.96 888.706C2257.75 888.791 2257.52 888.819 2257.3 888.786C2257.02 888.81 2256.74 888.767 2256.48 888.659L2223.91 856.788L2187.87 862.349L2183.44 812.709L2106.37 823.806L2068.29 800.276C2068.13 800.462 2067.94 800.611 2067.73 800.712L1961.08 841.092L1950.82 861.927C1950.69 862.19 1950.48 862.404 1950.24 862.54C1949.99 862.676 1949.71 862.727 1949.43 862.685L1948.95 862.61C1948.78 862.534 1948.63 862.421 1948.51 862.278C1948.38 862.135 1948.29 861.965 1948.23 861.78C1948.17 861.595 1948.15 861.399 1948.17 861.204C1948.19 861.009 1948.25 860.819 1948.34 860.647L1958.6 839.812L1958.69 839.228L1959.17 839.302L2062.32 799.278L1926.45 767.944L1925.97 767.869L1883.47 757.408L1873.17 776.22L1844.45 825.441L1845.18 827.498L1844.22 827.35L1848.96 924.051L1873.39 983.587L1873.8 984.548C1873.85 984.896 1873.8 985.255 1873.64 985.57L1873.61 1002.61L1840.6 1029.04L1840 1080.67L1751.14 1072.9L1750.39 1072.79L1741.12 1053.56L1741.59 1052.81L1760.79 1019.61L1766.71 981.36L1760.1 867.179L1719.97 756.333C1719.76 756.144 1719.6 755.899 1719.51 755.623C1719.42 755.346 1719.39 755.047 1719.44 754.756L1718.65 752.615L1573.46 582.763L1572.76 583.627L1572.87 582.897L1564.15 589.695L1561.69 611.064L1562.24 617.054L1566.65 645.39L1557.08 681.804L1516.84 705.849L1516.5 705.796L1428.08 701.984L1427.71 701.18L1413.4 662.716L1415.89 640.679L1351.63 536.263L1289.5 523.962L1289.16 523.46C1282.65 512.667 1278.51 500.438 1277.03 487.652C1276.41 472.607 1279.03 429.288 1279.31 421.559L1267.43 418.301C1267.43 418.301 1267.43 418.301 1266.95 418.226L1266.54 418.163L1229.47 408.093L1082.22 400.262L1048.98 382.264L1012.36 225.546L1021.14 241.105ZM1070.44 354.492L1036.17 280.354L1076.66 375.26L1141.25 357.074L1070.44 354.492ZM1207.75 346.51L1151 357.238L1081.04 376.911L1112.49 387.381L1151.74 377.458L1251.69 329.016L1207.75 346.51ZM1156.84 378.172L1217.57 388.539L1232.58 385.255L1276.89 319.835L1156.84 378.172ZM1237.18 383.724L1282.26 365.211L1315.37 355.385L1282.09 318.097L1237.18 383.724ZM1318.32 354.945L1334.65 358.518L1311.34 320.904L1284.91 317.563L1318.32 354.945ZM1302.58 308.861L1287.55 315.056L1310.73 317.595L1309.89 298.481L1303.04 308.184L1302.58 308.861ZM1417.96 306.679L1406.06 292.655L1362.74 327.061L1417.96 306.679ZM1375.11 325.762L1406.42 318.048L1459.43 318.775L1437.98 309.178L1420.54 308.648L1375.11 325.762ZM1764.86 1016.5L1796.22 973.892L1795.74 973.818L1797.15 972.466L1777.37 902.886L1770.39 981.705L1764.86 1016.5ZM1799.06 968.726L1840.62 828.81L1778.22 895.618L1799.06 968.726ZM1799.81 975.718L1796.29 1022.56L1867.86 985.647L1800.14 974.498L1799.81 975.718ZM1891.21 -24.4627L1890.52 -24.569L1825.72 21.3872L1871.69 28.4989L1891.21 -24.4627ZM1875.68 25.4537L1913.84 -6.9858L1894.11 -24.5378L1875.68 25.4537ZM1604.35 200.23L1600.81 254.469L1669.08 237.076L1604.35 200.23ZM1666.52 232.27L1643.21 205.12L1609.26 199.869L1666.52 232.27ZM1644.62 202.349L1673.39 236.025L1692.39 230.592L1689.48 193.893L1689.4 192.161L1689.51 191.431L1689.66 190.482L1708.26 111.144L1593.88 92.3284L1573.15 167.675L1603.97 195.837L1644.62 202.349ZM1863.97 398.172L1876.78 402.695L1889.19 342.88L1895.27 279.019L1859.03 360.935L1862.36 397.177L1865.27 397.029L1863.97 398.172ZM1871.55 655.261L1917.45 657.803L1831.34 595.451L1811.81 614.329L1871.55 655.261ZM1815.52 620.36L1836.35 649.443C1836.56 649.481 1836.76 649.568 1836.94 649.699C1837.11 649.829 1837.26 649.999 1837.36 650.197L1838.15 651.889L1838.43 652.38L1865.51 654.701L1815.52 620.36ZM1829.15 593.692L1758.07 588.302L1809.31 612.747L1829.15 593.692ZM1834.6 591.172L2020.05 537.645L1945.09 471.861L1918.69 471.065L1817.01 547.044L1816.67 546.991L1746.62 541.313L1753.48 584.304L1752.17 584.623L1834.6 591.172ZM1713.1 187.232L1694.03 191.757L1732.23 221.808L1782.08 232.958L1716.93 187.451L1712.48 187.584L1713.1 187.232ZM1715.18 183.743L1709.95 115.218L1692.64 189.374L1715.18 183.743ZM1692.42 194.423L1695.25 230.287L1789.7 241.012L1787.92 237.523L1731.28 224.799L1692.42 194.423ZM1789.48 234.7L1794.63 242.372L1794.36 244.124L1765.6 345.883L1834.3 271.531L1872.13 241.208L1890.18 180.021L1721.49 186.661L1789.48 234.7ZM1841.18 339.862L1841.08 340.519L1857.17 357.957L1895.69 270.862L1873.24 244.967L1837.33 273.793L1840.86 336.523C1841.1 336.685 1841.29 336.925 1841.4 337.21C1841.5 337.495 1841.52 337.81 1841.45 338.11L1841.18 339.862ZM1834.81 276.467L1765.84 351.152L1766.53 351.259L1828.44 382.213L1838.5 339.448L1834.81 276.467ZM1875.22 242.657L1897.87 268.584L1914.25 256.842L1892.53 183.972L1875.22 242.657ZM1920.23 468.389L1944.31 469.199L1946.91 406.893C1935.03 432.71 1922.6 460.759 1920.33 468.18L1920.23 468.389ZM1948.63 398.041L2012.06 324.591L1904.36 336.257L1948.63 398.041ZM1926.94 372.262L1926.81 387.191L1925.61 413.613L1946.76 399.694L1926.94 372.262ZM2012.22 321.253L1970.03 271.076L1916.61 259.374L1903.3 333.104L2012.22 321.253ZM1924.07 368.529L1901.27 336.676L1892.37 343.296L1923.88 383.823L1924.01 368.894L1924.07 368.529ZM1900.54 334.097L1913.62 261.379L1898.66 272.144L1892.14 340.645L1900.54 334.097ZM1916.75 256.631L1966.98 267.614L1895.28 185.294L1916.75 256.631ZM1971.67 268.64L2014.16 318.713L2015.36 249.612L1898.87 184.355L1971.67 268.64ZM2016.59 322.152L2029.16 343.679L2017.53 265.569L2016.59 322.152ZM2017.08 328.507L2022.87 401.603L2030.68 355.201L2030.03 350.766L2017.08 328.507ZM2014.12 326.256L1950.45 399.892C1950.46 400.091 1950.43 400.289 1950.36 400.476L2001.96 481.779L2020.77 412.489L2014.12 326.256ZM2001.35 485.721L1949.67 404.481L1947 469.989L2021.35 535.155L2001.35 485.721ZM1944.62 404.372L1924.57 417.564L1906.26 433.118C1908.19 437.526 1915.66 454.229 1918.67 463.439C1923.92 450.424 1938.09 419.355 1944.62 404.372ZM1922.44 415.888L1923.71 388.58L1891.01 346.151L1879.02 404.089L1904.7 430.484L1922.44 415.888ZM1856.06 361.521L1840.02 343.719L1830.55 383.586L1859.15 396.531L1856.06 361.521ZM1827.32 385.329L1765.12 354.405L1763.82 354.203L1670.63 405.336L1854.76 397.645L1827.32 385.329ZM1791 247.192L1693.79 304.281L1762.53 348.921L1791 247.192ZM1790.33 244.248L1694.98 233.385L1693.58 301.108L1790.33 244.248ZM1692.26 233.711L1676.43 238.214L1674.24 238.771L1690.88 295.384L1692.26 233.711ZM1601.26 201.098L1517.2 244.151L1597.73 254.815L1601.26 201.098ZM1587.92 259.575L1446.55 281.055L1485.89 302.837L1587.92 259.575ZM1488.62 304.754L1522.4 327.917L1592.86 260.414L1488.62 304.754ZM1588.91 256.365L1513.06 246.35L1447.28 258.596L1397.51 280.121L1442.32 278.832L1588.91 256.365ZM1391.2 279.519L1446.1 255.797L1501.89 245.369L1392.87 235.979L1391.2 279.519ZM1390.06 236.889L1333.92 266.846L1388.19 279.876L1390.06 236.889ZM1333.37 294.939L1405.44 289.346L1389.57 283.228L1333.37 294.939ZM1508.03 242.956L1458.68 204.902L1458.06 204.806L1397.35 233.383L1508.03 242.956ZM1513 243.126L1599.43 198.797L1463.15 204.696L1513 243.126ZM1599.67 195.919L1571.34 169.787L1468.42 201.55L1599.67 195.919ZM1590.73 92.6636L1499.67 109.594L1571.03 165.478L1590.73 92.6636ZM1594.71 89.2427L1709.89 107.435C1710.12 107.198 1710.41 107.058 1710.73 107.041C1711.02 107.019 1711.31 107.101 1711.55 107.274C1711.79 107.446 1711.97 107.699 1712.06 107.994V107.994L1717.72 182.79L1865.91 57.2029L1826.27 45.0915C1826.09 45.1374 1825.89 45.1071 1825.72 45.0064C1825.55 44.8174 1825.42 44.5936 1825.33 44.348V44.348L1864.91 32.7567L1821 25.9639L1691.38 40.1441L1689.95 40.2965C1689.69 40.3606 1689.42 40.3188 1689.2 40.1795V40.1795L1554.13 51.3499L1594.71 89.2427ZM1867.44 54.5992L1870.91 32.1898L1831.56 43.667L1867.44 54.5992ZM1881.78 -21.2871L1704.63 35.9154L1821.72 21.2923L1881.78 -21.2871ZM1887.68 -26.2047L1798.64 -37.8116L1697.12 35.3512L1887.68 -26.2047ZM1867.53 59.92L1720.48 185.01L1890.39 178.259L1889.11 173.801L1889.88 174.742L1867.53 59.92ZM1892.37 172.287L1899.37 134.281L1872.33 69.8551L1892.37 172.287ZM1901.9 132.504L1962.99 170.581L1873.2 64.2345L1901.9 132.504ZM1901.8 135.852L1894.07 177.633L1965.14 175.323L1901.8 135.852ZM1897.65 180.429L2012.21 244.491L1969.22 178.048L1897.65 180.429ZM2016.03 245.232L2024.51 215.451L1974.99 181.705L2016.03 245.232ZM2025.33 212.438L2029.4 195.205L1978.27 180.494L2025.33 212.438ZM2025.99 220.463L2017.9 248.659L2032.07 343.531L2039.04 282.052L2025.99 220.463ZM2023.72 412.946L2004.43 483.508L2047.07 478.07L2031.85 364.5L2023.72 412.946ZM2004.54 486.44L2023.74 534.255L2046 481.343L2004.54 486.44ZM2022.54 541.544C2022.54 541.544 2022.54 541.544 2022.13 541.48C2021.84 541.299 2021.61 541.029 2021.48 540.706L1836.94 593.328L2048.65 644.765L2023.38 541.15C2023.13 541.264 2022.85 541.299 2022.59 541.252L2022.54 541.544ZM1838.05 597.087L1922.47 658.131L2047.24 647.536L1838.05 597.087ZM1921.79 661.613L1889.26 677.21L1959.29 718.912L1921.79 661.613ZM1916.63 660.816L1874.14 658.503L1886.59 675.376L1916.63 660.816ZM1870.17 658.262L1839.75 655.649L1867.51 717.271L1884.41 677.206L1870.17 658.262ZM1867.56 724.229L1866.99 722.944L1844.61 739.363L1880.31 752.361L1867.52 724.521L1867.56 724.229ZM1865.78 720.291L1835.88 653.854L1810.99 619.209L1813.87 734.757L1840.29 738.172L1841.52 738.363L1865.78 720.291ZM1840.18 741.145L1813.84 737.668L1841.47 815.563L1840.18 741.145ZM1811.73 739.957L1786.93 805.183L1840.65 821.789L1811.73 739.957ZM1808.01 615.685L1752.71 589.267L1810.85 730.179L1808.01 615.685ZM1749.63 589.165L1720.6 604.479L1720.16 635.056L1807.01 728.165L1749.63 589.165ZM1750.46 583.836L1743.34 538.862L1815.83 544.694L1917.18 468.964C1917.18 468.964 1917.27 468.38 1917.33 468.015C1913.38 456.301 1908.81 444.839 1903.64 433.684L1876.99 405.867L1861.25 400.293L1696.98 536.548L1750.46 583.836ZM1856.88 400.291L1666.18 408.161L1695.6 534.092L1856.88 400.291ZM1761.91 351.965L1693.81 307.348L1693.69 313.158L1692.03 307.52L1666.42 404.385L1761.91 351.965ZM1690.56 302.435L1672.42 240.508L1574.03 359.823L1690.39 303.082L1690.56 302.435ZM1669.19 240.008L1600.44 257.775L1571.85 357.991L1669.19 240.008ZM1596.67 260.779L1524.71 329.771L1568.1 361.297L1596.67 260.779ZM1524.34 333.077L1539.76 440.847L1567.23 364.226L1524.34 333.077ZM1522.76 343.296L1516.09 447.351L1523.23 454.435L1519.77 467.277L1527.36 463.669L1537.59 446.193L1522.76 343.296ZM1526.84 467.026L1519.75 470.115L1525.12 534.102L1526.84 467.026ZM1527.28 559.251L1521.99 605.744L1541.94 601.357L1553.83 611.417L1560.68 589.382L1529.52 472.449L1527.28 559.251ZM1541.33 604.85L1518.98 609.689L1524.75 559.233L1517.44 473.645L1467.04 617.499L1493.95 629.136L1549.06 640.426L1553.07 614.513L1541.33 604.85ZM1492.11 631.916L1467.2 620.588L1477.51 677.641L1492.24 673.417L1492.11 631.916ZM1494.87 673.675L1497.76 675.019L1505.68 658.381L1494.95 636.765L1494.87 673.675ZM1463.77 618.638L1445.43 563.48L1446.45 657.814L1474.16 677.048L1463.77 618.638ZM1465.14 613.916L1511.35 482.119L1495.3 508.561L1483.75 512.232L1483.75 520.901L1474.74 530.942L1465.86 519.18L1448.06 521.883L1445.59 554.238L1465.14 613.916ZM1466.85 515.97L1474.71 526.529L1480.93 520.017L1481.02 510.315L1493.53 506.345L1515.53 470.061L1519.99 455.802L1514.62 450.487L1485.47 481.555L1464.15 479.302L1460.07 505.654L1433.78 499.569L1460.57 517.465L1466.85 515.97ZM1463.83 475.89L1484.59 478.13L1512.48 448.436L1444.5 413.031L1441.42 443.871L1463.83 475.89ZM1444.87 409.725L1513.47 445.674L1520.73 332.294L1448.8 368.403L1444.69 409.547L1444.87 409.725ZM1485.57 346.736L1518.52 330.233L1486.32 319.645L1485.57 346.736ZM1513.55 325.503L1485.16 305.714L1441.87 281.751L1397.21 282.99L1484.6 316.615C1484.77 316.467 1484.98 316.366 1485.19 316.321C1485.41 316.276 1485.63 316.289 1485.84 316.357L1513.55 325.503ZM1402.06 292.56L1314.1 299.432L1354.26 330.459L1402.06 292.56ZM1383.27 281.656L1330.62 269.1L1311.01 296.71L1383.27 281.656ZM1319.87 251.219L1305.29 300.012L1329.14 266.331L1390.49 233.666L1390.62 232.79L1424.77 97.1099L1319.87 251.219ZM1393.78 231.934L1455.1 203.076L1421.19 172.12L1437.38 129.779L1428.05 95.0016L1393.78 231.934ZM1456.57 200.389L1438.63 134.383L1424.48 171.284L1456.57 200.389ZM1430.25 91.6799L1439.13 125.267L1449.75 97.5365L1430.25 91.6799ZM1459.24 81.2161L1453.62 95.7428L1492.29 107.257L1459.24 81.2161ZM1494.19 110.465L1494.13 110.83L1452.91 98.4741L1441.01 129.967L1460.16 201.244L1569.23 167.517L1496.48 110.221L1494.19 110.465ZM1497.55 106.949L1591.07 89.5765L1550.09 51.5469L1497.55 106.949ZM1556.85 45.6407L1553.76 48.3025L1689.18 37.1123L1719.51 -17.9881L1556.85 45.6407ZM1723.53 -19.385L1694.19 33.851L1797.18 -40.6534L1829.26 -77.9198L1723.53 -19.385ZM1834.76 -80.2825L1800.91 -40.6739L1889.76 -29.172L1834.99 -80.8452L1834.76 -80.2825ZM1838.18 -81.4724L1894.63 -27.8956C1894.8 -27.6961 1894.91 -27.4445 1894.94 -27.1749L1915.42 -9.05727L1950.46 -88.1702L1838.18 -81.4724ZM1951.48 -83.3788L1917.72 -7.05807L1918.27 -6.97304L1873.9 31.0091L1870.04 55.9733L1968.3 172.672L1951.48 -83.3788ZM2024.22 155.912L1954.8 -77.5583L1971.5 175.634L2029.67 192.107L2024.22 155.912ZM2027.32 158.185L2032.26 193.106L2163.13 233.157L2027.32 158.185ZM2172.01 238.942L2033.69 196.615L2051.12 233.544L2050.28 295.824L2172.01 238.942ZM2047.35 297.015L2048.34 234.235L2031.43 198.434L2027.73 214.229L2027.62 214.886L2041.78 281.653L2050.65 315.313L2047.35 297.015ZM2056.57 348.891L2040.89 289.214L2033.51 354.667L2033.41 355.324L2048.38 466.838L2056.57 348.891ZM2049.63 481.53L2049.08 481.445L2026.15 535.973L2094.47 521.877L2049.63 481.53ZM2025.64 539.257L2050.89 642.121L2096.19 524.834L2025.64 539.257ZM2099.97 525.419L2126.88 597.522L2283.08 527.062L2099.97 525.419ZM2266.22 440.894L2233.98 436.43L2285.97 517.493L2266.22 440.894ZM2296.73 445.165L2269.18 441.351L2289.07 517.899L2296.73 445.165ZM2407.96 593.094L2398.66 629.55L2416.6 731.881L2407.96 593.094ZM2420.77 754.949L2461.58 620.749L2461.7 620.019L2410.43 583.91L2410.36 584.348L2420.77 754.949ZM2407.67 584.455L2407.44 580.981L2405.64 565.754L2400.92 611.289L2407.67 584.455ZM2410.21 580.363L2461.59 616.638L2457.78 559.843L2425.68 539.929L2407.53 550.351L2407.18 552.614L2410.21 580.363ZM2422.94 538.085L2342.55 487.83L2405.52 548.321L2422.94 538.085ZM2404.24 552.981L2404.4 551.959L2294.47 528.451L2396.12 626.392L2396.6 626.018L2404.24 552.981ZM2401.51 548.372L2331.6 481.278L2292.32 525.055L2401.51 548.372ZM2329.66 479.259L2299.42 447.374L2291.45 521.63L2329.66 479.259ZM2395.61 458.667L2302.06 446.213L2332.32 478.025L2425.9 536.226C2426.17 536.201 2426.44 536.256 2426.68 536.386C2426.92 536.515 2427.13 536.714 2427.26 536.96L2458.95 556.811C2459.24 556.793 2459.52 556.868 2459.76 557.025C2460 557.183 2460.18 557.415 2460.29 557.691L2485.38 573.381L2395.61 458.667ZM2453.57 473.315L2453.09 473.24L2450 472.762L2409.92 462.151L2452.32 488.219L2546.34 455.826L2453.57 473.315ZM2591.42 589.71L2598.73 689.351L2598.08 739.029L2599.17 739.72L2616.6 556.983L2567.23 457.711L2591.42 589.71ZM2540.48 518.748L2587.59 584.41L2563.8 456.21L2538.98 518.89L2540.48 518.748ZM2535.9 519.235L2561.98 453.461L2454.95 490.344C2455.03 490.716 2454.97 491.109 2454.78 491.439C2454.66 491.633 2454.5 491.794 2454.31 491.908C2454.12 492.022 2453.91 492.086 2453.69 492.093L2475.7 525.843L2535.9 519.235ZM2474.62 529.189L2448.56 489.356L2400 459.421L2488.48 572.889L2474.62 529.189ZM2489.24 579.359L2460.43 561.374L2464.13 616.134L2489.24 579.359ZM2481.16 631.55L2463.74 624.072L2423.63 755.99L2451.67 726.245L2485.29 666.271L2481.16 631.55ZM2423.3 760.423L2493.44 777.327L2452.69 729.169L2423.3 760.423ZM2485.85 671.291L2454.54 727.213L2495.58 775.79L2485.85 671.291ZM2598.01 1214.75L2597.84 1215.84L2614.52 1204.9L2598.01 1214.75ZM2617.34 1199.88L2603.39 1174.1L2598.51 1211.09L2617.34 1199.88ZM2604.02 1169.11L2619.78 1198.23L2635.3 1188.83L2629.88 1166.61L2597.69 1162.23L2604.02 1169.11ZM2664.78 1171.56L2632.95 1167.24L2637.89 1187.58L2664.78 1171.56ZM2636.51 1193.8L2622.25 1203.18L2652.38 1259.04L2636.51 1193.8ZM2619.91 1204.68L2597.46 1219.22L2597 1222.22L2652.08 1264.15L2619.91 1204.68ZM2651.73 1267.76L2595.95 1225.34L2574.06 1266.8L2651.73 1267.76ZM2594.36 1221.51L2584.57 1227.99L2594.29 1222.02L2594.36 1221.51ZM2534.93 1252.3L2553.69 1256.55L2561.63 1243.43L2563.08 1239.54L2563.16 1239.03L2564.69 1235.01L2534.93 1252.3ZM2556.25 1257.77L2571.14 1266.57L2592.05 1226.91L2565.44 1242.45L2556.25 1257.77ZM2567.3 1235.93L2594.87 1217.78L2595.07 1216.46L2568.79 1232.2L2567.3 1235.93ZM2570.12 1227.7L2595.32 1212.61L2600.94 1169.91L2594.3 1162.83L2570.12 1227.7ZM2595.51 1159.05L2626.67 1163.2L2600.93 1139.94L2595.51 1159.05ZM2592.04 1070.1L2592.56 1071.22L2601.52 1136.59L2630.52 1162.9L2645.79 1136.04L2584.38 1024.52L2592.26 1069.09C2592.36 1069.42 2592.35 1069.79 2592.24 1070.13L2592.04 1070.1ZM2573.94 1023.35L2587.57 1058.49L2580.27 1017L2579.98 1016.58L2624.73 913.787L2550.58 911.883L2573.31 992.383C2573.37 992.681 2573.32 992.992 2573.17 993.259L2573.94 1023.35ZM2549.01 916.573L2547.5 926.355L2563.36 966.179L2549.01 916.573ZM2529.22 974.051L2571.34 1020.11L2570.93 993.211L2546.11 930.325L2529.22 974.051ZM2545.29 921.977L2547.03 910.736L2525.52 879.23L2545.29 921.977ZM2523.34 871.942L2549.42 908.938L2622.87 910.808L2499.98 784.618L2523.34 871.942ZM2520.1 870.618L2496.43 782.125L2417.04 840.474C2416.92 840.784 2416.71 841.042 2416.43 841.203L2520.1 870.618ZM2415.63 838.238L2493.87 780.459L2421.7 763.016L2415.63 838.238ZM2419.03 761.632C2418.73 761.369 2418.54 760.991 2418.49 760.576L2418.31 756.737L2400.94 657.557L2413.98 827.07L2419.03 761.632ZM2412.09 839.26L2396.38 631.964L2282.51 771.306L2412.09 839.26ZM2392.29 632.526L2217.19 775.103L2279.19 770.493C2279.44 770.124 2279.81 769.862 2280.22 769.755L2392.29 632.526ZM2433.64 1229.38L2420.75 1167.6L2346.78 1228.2L2433.64 1229.38ZM2325.66 1210.14L2342.12 1226.51L2367.32 1148.19L2325.66 1210.14ZM2372.94 1140.09L2345.65 1225.56L2420.1 1164.51L2374.63 1085.49L2372.94 1140.09ZM2421.02 1160.84L2427.11 1128.29L2448.26 1101.67L2374.84 1080.52L2421.02 1160.84ZM2373.53 1074.41L2415.23 990.426L2349.81 904.368L2373.53 1074.41ZM2336.95 967.03L2368.83 1060.68L2347.13 903.953L2336.95 967.03ZM2346.99 897.13L2409.01 843.268L2286.1 893.689L2346.99 897.13ZM2282.92 891.927L2408.1 840.511L2281.43 774.203L2282.92 891.927ZM2280.11 888.727L2278.68 773.778L2215.2 778.456L2280.11 888.727ZM2393.71 627.887L2292.27 529.978L2293.18 533.632L2290.13 528.752L2215.5 772.897L2393.71 627.887ZM2212.55 773.264L2287.36 528.473L2128.01 600.238L2212.55 773.264ZM2208.65 771.688L2131.26 613.371L2164.43 735.475L2165.12 735.581L2208.65 771.688ZM2106.49 820.312L2172.7 810.748L2073.16 799.685L2106.49 820.312ZM2182.28 808.866L2162.55 739.893L2071.4 796.498L2182.28 808.866ZM2066.86 795.869L2161.52 737.041C2161.46 736.744 2161.51 736.432 2161.65 736.166L2124.71 600.176L2097.8 528.073L2051.91 646.913L2052.38 648.855L2050.8 648.61L2048.77 650.837L1926.18 660.948L1927.01 661.524L1924.95 661.205L1964.66 722.881L1964.17 744.256L2066.86 795.869ZM2055.43 793.353L1963.14 746.788L1930.75 764.201L2055.43 793.353ZM1926.36 763.52L1961.57 744.228L1962.02 725.388L1887.79 754.041L1926.36 763.52ZM1960.2 723.014L1886.62 678.819L1868.99 720.488L1883.64 752.652L1960.2 723.014ZM1880.93 755.148L1847.59 743.263L1873.13 770.086L1880.93 755.148ZM1871.19 772.625L1842.75 742.738L1844.43 818.712L1871.19 772.625ZM1841.59 832.996L1801.68 967.262L1846.28 923.637L1841.59 832.996ZM1846.69 926.914L1801.13 971.736L1869.74 983.024L1846.69 926.914ZM1870.36 1001.36L1870.46 989.337L1846.83 1020.14L1870.36 1001.36ZM1867.64 988.453L1798.85 1023.78L1837.84 1026.89L1867.64 988.453ZM1837.39 1029.81L1797.15 1026.58L1836.96 1076.69L1837.39 1029.81ZM1793.66 1026.86L1767.08 1047.19L1767.06 1056.9L1832.72 1075.88L1793.66 1026.86ZM1751.8 1070.01L1823.52 1076.25L1765.35 1059.78L1744.83 1055.93L1751.8 1070.01ZM1761.7 1024.23C1761.6 1024.38 1761.47 1024.49 1761.32 1024.57C1761.18 1024.65 1761.02 1024.7 1760.85 1024.7L1744.57 1052.6L1764.33 1056.33L1764.35 1045.72L1792.37 1024.72L1793.28 1024.26L1796.83 977.723L1761.7 1024.23ZM1777.57 891.182L1839.89 824.437L1785.82 807.777L1777.57 891.182ZM1768.47 962.722L1774.45 895.408L1763.29 873.426L1768.47 962.722ZM1762.83 866.331L1775.53 890.268L1783.77 806.937L1783.43 806.883L1783.51 806.372L1724.7 759.904L1762.83 866.331ZM1784.36 803.589L1809.34 737.645L1724.15 755.26L1784.36 803.589ZM1722.03 751.717L1722.53 752.991L1809.78 734.798L1720.58 639.157L1722.03 751.717ZM1576.57 575.845L1576.6 579.288L1576.35 580.894L1719.05 747.744L1717.57 635.403L1717.98 601.832L1748.66 585.427L1694.4 537.792L1693.6 538.416L1662.98 407.515L1662.7 407.473C1662.52 407.435 1662.35 407.361 1662.2 407.253C1662.05 407.146 1661.92 407.008 1661.82 406.847C1661.72 406.685 1661.66 406.505 1661.62 406.314C1661.59 406.124 1661.59 405.928 1661.63 405.738C1661.67 405.495 1661.77 405.267 1661.93 405.08C1662.08 404.892 1662.28 404.753 1662.5 404.676L1662.6 404.019L1663.5 404.157L1689.44 306.073L1570.31 363.881L1576.57 575.845ZM1567.87 370.978L1540.76 446.609L1573.72 573.312L1567.87 370.978ZM1572.67 580.1L1538.69 450.024L1530.09 464.689C1530.35 464.882 1530.53 465.178 1530.59 465.514L1562.91 586.812L1572.67 580.1ZM1563.79 645.247L1559.44 617.442L1558.85 611.223L1559.78 602.921L1556.15 614.616L1551.89 642.135L1560.97 655.723L1563.79 645.247ZM1552.38 681.227L1522.85 672.024L1518.23 701.879L1552.38 681.227ZM1522.39 669.112L1554.86 679.293L1560.01 659.685L1549.47 644.152L1496.27 633.232L1508.69 657.576L1522.39 669.112ZM1514.9 703.382L1519.9 671.045L1507.76 660.87L1499.87 677.289L1507.29 703.026L1514.9 703.382ZM1504.77 702.935L1497.61 678.284L1493.72 676.561L1476.99 681.448L1435.27 700.106L1504.77 702.935ZM1416.14 662.765L1429.72 699.099L1473.49 679.111L1444.62 659.697L1418.37 642.856L1416.14 662.765ZM1279.77 487.702C1281.19 499.761 1285.07 511.302 1291.14 521.525L1349.51 533.096L1281.73 425.446C1281.11 437.682 1279.49 474.055 1279.77 487.702ZM1282.15 419.532L1282.05 420.189L1353.34 533.837L1353.27 534.275L1417.93 639.35L1441.68 654.535L1347.18 449.024C1347.08 448.877 1347 448.708 1346.96 448.529C1346.92 448.349 1346.92 448.162 1346.95 447.979C1346.97 447.796 1347.04 447.62 1347.13 447.461C1347.22 447.302 1347.34 447.164 1347.48 447.054C1347.78 446.826 1348.15 446.729 1348.51 446.785C1348.87 446.841 1349.19 447.044 1349.41 447.351L1443.82 652.1L1442.9 554.793C1442.9 554.57 1442.93 554.348 1443 554.136L1445.42 521.25L1445.68 519.571L1456.56 517.891L1419.13 492.892L1458.11 501.986L1461.83 477.898L1439.19 445.544L1438.61 444.708L1441.92 411.959L1350.68 406.814L1348.9 405.641C1348.89 405.492 1348.91 405.342 1348.96 405.203V405.203L1411.97 358.594L1449.51 367.017L1483.13 349.796L1483.93 320.994L1408.22 291.868L1420.94 307.439L1438.58 308.001L1473.53 323.573L1406.79 322.514L1354.06 335.435L1312.63 303.465L1313.37 320.545L1337.62 359.799C1337.79 360.059 1337.85 360.375 1337.8 360.686C1337.75 360.997 1337.6 361.28 1337.36 361.478C1337.39 361.6 1337.4 361.729 1337.38 361.855C1337.36 361.981 1337.32 362.101 1337.25 362.208C1337.2 362.557 1337.01 362.871 1336.74 363.081C1336.47 363.292 1336.14 363.381 1335.81 363.331V363.331L1317.36 359.355L1283.83 369.117L1269.28 417.691L1282.15 419.532ZM1355.36 403.875L1442.12 408.851L1446.2 368.374L1355.36 403.875ZM1442.99 366.383L1412.38 359.555L1357.85 399.626L1442.99 366.383ZM1280.8 368.722L1234.19 388.045L1221.73 390.753L1266.4 415.377L1280.8 368.722ZM1083.28 397.959L1229.84 405.684L1255.09 412.579L1217.01 391.741L1152.17 380.589L1112.26 390.709L1078.14 379.302L1083.28 397.959ZM1050.76 380.746L1079.78 396.447L1074.53 377.622L1020.31 249.647L1050.76 380.746Z" fill="url(#paint3_radial_921_4702)"/>
</g>
<path d="M1021.14 241.105L1072.22 351.628L1150.23 354.503L1206.61 343.867L1300.27 306.559L1317.09 250.116L1427.09 88.9479L1427.63 88.1358L1450.9 95.0986L1457.96 76.7578L1494.77 105.772L1547.98 49.7256L1547 48.8256L1548.99 48.6853L1555.17 43.2886L1722.07 -21.7782L1832.76 -83.2824L1834.15 -84.04C1834.52 -84.1319 1834.92 -84.0712 1835.25 -83.8699L1953.33 -91.2396L2026.68 154.573L2176.52 237.546L2180 238.683L2050.39 299.204L2059.25 348.857C2059.25 348.857 2059.25 348.857 2059.19 349.222L2050.21 478.705L2098.39 522.931L2285.95 524.441L2284.9 523.458L2286.48 523.702L2229.75 435.624C2229.74 435.451 2229.76 435.276 2229.83 435.113C2230.11 435.055 2230.4 435.1 2230.65 435.241V435.241L2265.1 439.972L2236.33 328.94L2103.21 339.813L2093.07 308.946C2092.96 308.587 2092.98 308.196 2093.13 307.846C2093.27 307.496 2093.53 307.213 2093.86 307.049C2094.2 306.927 2094.57 306.941 2094.9 307.088C2095.22 307.235 2095.49 307.505 2095.63 307.847L2105.56 334.646L2237.82 323.864L2238.51 323.97L2267.89 437.414L2298 441.548L2392.03 454.974L2262.82 342.829L2284.25 312.511C2284.48 312.201 2284.81 311.991 2285.17 311.923C2285.53 311.854 2285.91 311.932 2286.21 312.141C2286.5 312.376 2286.69 312.723 2286.73 313.108C2286.78 313.493 2286.68 313.885 2286.46 314.197L2266.56 342.287L2396.91 455.729L2397.53 455.825C2397.74 455.585 2398.02 455.428 2398.32 455.379C2398.62 455.331 2398.93 455.394 2399.19 455.558L2401.25 456.775L2446.88 468.841L2447.5 468.936L2453.47 469.861L2565.01 449.296L2566.05 448.934L2618.87 555.091L2678.55 548.628C2678.91 548.591 2679.26 548.704 2679.54 548.942C2679.82 549.18 2680 549.525 2680.04 549.905C2680.05 550.098 2680.02 550.292 2679.97 550.477C2679.91 550.662 2679.81 550.833 2679.69 550.981C2679.57 551.129 2679.43 551.25 2679.26 551.339C2679.1 551.428 2678.92 551.481 2678.74 551.497L2619.27 557.919L2602.4 740.669C2602.41 740.842 2602.38 741.017 2602.32 741.179L2667.28 781.573C2667.59 781.771 2667.82 782.094 2667.9 782.472C2667.99 782.849 2667.93 783.251 2667.74 783.588C2667.61 783.824 2667.41 784.016 2667.18 784.14C2666.95 784.263 2666.69 784.313 2666.44 784.283L2665.89 784.198L2600.04 744.115L2599.62 744.051L2599.01 743.955L2596.24 741.809L2595.56 741.702L2596.02 690.501L2588.78 591.768L2539.16 522.729L2477.6 529.5L2478.56 530.995C2478.71 531.287 2478.76 531.622 2478.71 531.951C2478.66 532.28 2478.51 532.584 2478.28 532.82L2492.92 579.182C2493.22 579.391 2493.43 579.718 2493.5 580.092C2493.58 580.466 2493.51 580.859 2493.32 581.186C2493.19 581.429 2493 581.627 2492.76 581.751C2492.53 581.876 2492.27 581.921 2492.01 581.881L2491.26 581.764L2464.06 621.131L2463.9 622.153L2482.9 630.324L2486.83 663.146C2486.86 663.344 2486.83 663.551 2486.74 663.73L2498.79 779.127L2627.19 911.102L2664.27 911.981C2664.45 911.989 2664.63 912.035 2664.8 912.117C2664.97 912.2 2665.11 912.316 2665.23 912.46C2665.36 912.604 2665.45 912.772 2665.51 912.956C2665.57 913.139 2665.59 913.334 2665.58 913.529C2665.54 913.905 2665.38 914.258 2665.12 914.52C2664.86 914.783 2664.52 914.937 2664.16 914.954L2627.94 913.984L2583.36 1016.58L2649.28 1136.2L2633.33 1164.31L2673.17 1169.65L2639.09 1192.1L2658.17 1270.69L2571.39 1269.98L2553.89 1259.8L2527.32 1253.74L2566.54 1230.36L2592.66 1160.18L2599.03 1137.7L2590.16 1072.65L2571.58 1024.93L2526.23 975.159L2544.66 926.962L2519.98 875.01C2519.93 874.828 2519.92 874.634 2519.95 874.444C2519.98 874.254 2520.05 874.073 2520.15 873.915L2414.06 843.825L2349.93 899.527L2418.23 989.694L2418.81 990.457L2375.24 1077.44L2447.86 1098.32L2418.31 1044.64C2418.21 1044.49 2418.14 1044.33 2418.1 1044.15C2418.06 1043.97 2418.05 1043.78 2418.08 1043.6C2418.11 1043.41 2418.17 1043.24 2418.26 1043.08C2418.35 1042.92 2418.47 1042.78 2418.62 1042.67C2418.92 1042.44 2419.28 1042.35 2419.64 1042.4C2420 1042.46 2420.33 1042.66 2420.54 1042.97L2452.29 1100.65L2429.51 1129.64L2422.99 1164.5L2423.31 1165.15L2437.16 1232.09L2342.42 1230.52L2322.11 1210.34L2370.53 1139.27L2372.41 1081.64L2372.53 1080.91L2372.28 1079.3L2371.76 1075.86L2335.34 968.799L2265.97 937.813C2265.63 937.661 2265.37 937.371 2265.23 937.007C2265.1 936.642 2265.1 936.234 2265.25 935.87C2265.4 935.507 2265.68 935.219 2266.03 935.069C2266.37 934.919 2266.76 934.921 2267.1 935.072L2335.33 965.658L2345.36 900.839C2345.35 900.69 2345.37 900.54 2345.43 900.401L2282.3 896.839C2282.19 896.994 2282.03 897.116 2281.86 897.193C2281.69 897.271 2281.5 897.303 2281.32 897.285L2280.77 897.2C2280.61 897.209 2280.44 897.184 2280.29 897.126V897.126C2280 897.005 2279.75 896.782 2279.6 896.494C2279.44 896.205 2279.39 895.868 2279.44 895.537C2279.49 895.206 2279.65 894.901 2279.88 894.673C2280.11 894.444 2280.41 894.305 2280.73 894.279L2213.8 781.154L2212.4 778.323L2165.95 739.746L2185.88 809.273L2185.67 810.587L2186.21 812.539L2190.31 858.84L2224.91 853.504L2258.4 886.265C2258.66 886.519 2258.82 886.873 2258.84 887.252C2258.86 887.631 2258.74 888.006 2258.51 888.3C2258.36 888.481 2258.17 888.621 2257.96 888.706C2257.75 888.791 2257.52 888.819 2257.3 888.786C2257.02 888.81 2256.74 888.767 2256.48 888.659L2223.91 856.788L2187.87 862.349L2183.44 812.709L2106.37 823.806L2068.29 800.276C2068.13 800.462 2067.94 800.611 2067.73 800.712L1961.08 841.092L1950.82 861.927C1950.69 862.19 1950.48 862.404 1950.24 862.54C1949.99 862.676 1949.71 862.727 1949.43 862.685L1948.95 862.61C1948.78 862.534 1948.63 862.421 1948.51 862.278C1948.38 862.135 1948.29 861.965 1948.23 861.78C1948.17 861.595 1948.15 861.399 1948.17 861.204C1948.19 861.009 1948.25 860.819 1948.34 860.647L1958.6 839.812L1958.69 839.228L1959.17 839.302L2062.32 799.278L1926.45 767.944L1925.97 767.869L1883.47 757.408L1873.17 776.22L1844.45 825.441L1845.18 827.498L1844.22 827.35L1848.96 924.051L1873.39 983.587L1873.8 984.548C1873.85 984.896 1873.8 985.255 1873.64 985.57L1873.61 1002.61L1840.6 1029.04L1840 1080.67L1751.14 1072.9L1750.39 1072.79L1741.12 1053.56L1741.59 1052.81L1760.79 1019.61L1766.71 981.36L1760.1 867.179L1719.97 756.333C1719.76 756.144 1719.6 755.899 1719.51 755.623C1719.42 755.346 1719.39 755.047 1719.44 754.756L1718.65 752.615L1573.46 582.763L1572.76 583.627L1572.87 582.897L1564.15 589.695L1561.69 611.064L1562.24 617.054L1566.65 645.39L1557.08 681.804L1516.84 705.849L1516.5 705.796L1428.08 701.984L1427.71 701.18L1413.4 662.716L1415.89 640.679L1351.63 536.263L1289.5 523.962L1289.16 523.46C1282.65 512.667 1278.51 500.438 1277.03 487.652C1276.41 472.607 1279.03 429.288 1279.31 421.559L1267.43 418.301C1267.43 418.301 1267.43 418.301 1266.95 418.226L1266.54 418.163L1229.47 408.093L1082.22 400.262L1048.98 382.264L1012.36 225.546L1021.14 241.105ZM1070.44 354.492L1036.17 280.354L1076.66 375.26L1141.25 357.074L1070.44 354.492ZM1207.75 346.51L1151 357.238L1081.04 376.911L1112.49 387.381L1151.74 377.458L1251.69 329.016L1207.75 346.51ZM1156.84 378.172L1217.57 388.539L1232.58 385.255L1276.89 319.835L1156.84 378.172ZM1237.18 383.724L1282.26 365.211L1315.37 355.385L1282.09 318.097L1237.18 383.724ZM1318.32 354.945L1334.65 358.518L1311.34 320.904L1284.91 317.563L1318.32 354.945ZM1302.58 308.861L1287.55 315.056L1310.73 317.595L1309.89 298.481L1303.04 308.184L1302.58 308.861ZM1417.96 306.679L1406.06 292.655L1362.74 327.061L1417.96 306.679ZM1375.11 325.762L1406.42 318.048L1459.43 318.775L1437.98 309.178L1420.54 308.648L1375.11 325.762ZM1764.86 1016.5L1796.22 973.892L1795.74 973.818L1797.15 972.466L1777.37 902.886L1770.39 981.705L1764.86 1016.5ZM1799.06 968.726L1840.62 828.81L1778.22 895.618L1799.06 968.726ZM1799.81 975.718L1796.29 1022.56L1867.86 985.647L1800.14 974.498L1799.81 975.718ZM1891.21 -24.4627L1890.52 -24.569L1825.72 21.3872L1871.69 28.4989L1891.21 -24.4627ZM1875.68 25.4537L1913.84 -6.9858L1894.11 -24.5378L1875.68 25.4537ZM1604.35 200.23L1600.81 254.469L1669.08 237.076L1604.35 200.23ZM1666.52 232.27L1643.21 205.12L1609.26 199.869L1666.52 232.27ZM1644.62 202.349L1673.39 236.025L1692.39 230.592L1689.48 193.893L1689.4 192.161L1689.51 191.431L1689.66 190.482L1708.26 111.144L1593.88 92.3284L1573.15 167.675L1603.97 195.837L1644.62 202.349ZM1863.97 398.172L1876.78 402.695L1889.19 342.88L1895.27 279.019L1859.03 360.935L1862.36 397.177L1865.27 397.029L1863.97 398.172ZM1871.55 655.261L1917.45 657.803L1831.34 595.451L1811.81 614.329L1871.55 655.261ZM1815.52 620.36L1836.35 649.443C1836.56 649.481 1836.76 649.568 1836.94 649.699C1837.11 649.829 1837.26 649.999 1837.36 650.197L1838.15 651.889L1838.43 652.38L1865.51 654.701L1815.52 620.36ZM1829.15 593.692L1758.07 588.302L1809.31 612.747L1829.15 593.692ZM1834.6 591.172L2020.05 537.645L1945.09 471.861L1918.69 471.065L1817.01 547.044L1816.67 546.991L1746.62 541.313L1753.48 584.304L1752.17 584.623L1834.6 591.172ZM1713.1 187.232L1694.03 191.757L1732.23 221.808L1782.08 232.958L1716.93 187.451L1712.48 187.584L1713.1 187.232ZM1715.18 183.743L1709.95 115.218L1692.64 189.374L1715.18 183.743ZM1692.42 194.423L1695.25 230.287L1789.7 241.012L1787.92 237.523L1731.28 224.799L1692.42 194.423ZM1789.48 234.7L1794.63 242.372L1794.36 244.124L1765.6 345.883L1834.3 271.531L1872.13 241.208L1890.18 180.021L1721.49 186.661L1789.48 234.7ZM1841.18 339.862L1841.08 340.519L1857.17 357.957L1895.69 270.862L1873.24 244.967L1837.33 273.793L1840.86 336.523C1841.1 336.685 1841.29 336.925 1841.4 337.21C1841.5 337.495 1841.52 337.81 1841.45 338.11L1841.18 339.862ZM1834.81 276.467L1765.84 351.152L1766.53 351.259L1828.44 382.213L1838.5 339.448L1834.81 276.467ZM1875.22 242.657L1897.87 268.584L1914.25 256.842L1892.53 183.972L1875.22 242.657ZM1920.23 468.389L1944.31 469.199L1946.91 406.893C1935.03 432.71 1922.6 460.759 1920.33 468.18L1920.23 468.389ZM1948.63 398.041L2012.06 324.591L1904.36 336.257L1948.63 398.041ZM1926.94 372.262L1926.81 387.191L1925.61 413.613L1946.76 399.694L1926.94 372.262ZM2012.22 321.253L1970.03 271.076L1916.61 259.374L1903.3 333.104L2012.22 321.253ZM1924.07 368.529L1901.27 336.676L1892.37 343.296L1923.88 383.823L1924.01 368.894L1924.07 368.529ZM1900.54 334.097L1913.62 261.379L1898.66 272.144L1892.14 340.645L1900.54 334.097ZM1916.75 256.631L1966.98 267.614L1895.28 185.294L1916.75 256.631ZM1971.67 268.64L2014.16 318.713L2015.36 249.612L1898.87 184.355L1971.67 268.64ZM2016.59 322.152L2029.16 343.679L2017.53 265.569L2016.59 322.152ZM2017.08 328.507L2022.87 401.603L2030.68 355.201L2030.03 350.766L2017.08 328.507ZM2014.12 326.256L1950.45 399.892C1950.46 400.091 1950.43 400.289 1950.36 400.476L2001.96 481.779L2020.77 412.489L2014.12 326.256ZM2001.35 485.721L1949.67 404.481L1947 469.989L2021.35 535.155L2001.35 485.721ZM1944.62 404.372L1924.57 417.564L1906.26 433.118C1908.19 437.526 1915.66 454.229 1918.67 463.439C1923.92 450.424 1938.09 419.355 1944.62 404.372ZM1922.44 415.888L1923.71 388.58L1891.01 346.151L1879.02 404.089L1904.7 430.484L1922.44 415.888ZM1856.06 361.521L1840.02 343.719L1830.55 383.586L1859.15 396.531L1856.06 361.521ZM1827.32 385.329L1765.12 354.405L1763.82 354.203L1670.63 405.336L1854.76 397.645L1827.32 385.329ZM1791 247.192L1693.79 304.281L1762.53 348.921L1791 247.192ZM1790.33 244.248L1694.98 233.385L1693.58 301.108L1790.33 244.248ZM1692.26 233.711L1676.43 238.214L1674.24 238.771L1690.88 295.384L1692.26 233.711ZM1601.26 201.098L1517.2 244.151L1597.73 254.815L1601.26 201.098ZM1587.92 259.575L1446.55 281.055L1485.89 302.837L1587.92 259.575ZM1488.62 304.754L1522.4 327.917L1592.86 260.414L1488.62 304.754ZM1588.91 256.365L1513.06 246.35L1447.28 258.596L1397.51 280.121L1442.32 278.832L1588.91 256.365ZM1391.2 279.519L1446.1 255.797L1501.89 245.369L1392.87 235.979L1391.2 279.519ZM1390.06 236.889L1333.92 266.846L1388.19 279.876L1390.06 236.889ZM1333.37 294.939L1405.44 289.346L1389.57 283.228L1333.37 294.939ZM1508.03 242.956L1458.68 204.902L1458.06 204.806L1397.35 233.383L1508.03 242.956ZM1513 243.126L1599.43 198.797L1463.15 204.696L1513 243.126ZM1599.67 195.919L1571.34 169.787L1468.42 201.55L1599.67 195.919ZM1590.73 92.6636L1499.67 109.594L1571.03 165.478L1590.73 92.6636ZM1594.71 89.2427L1709.89 107.435C1710.12 107.198 1710.41 107.058 1710.73 107.041C1711.02 107.019 1711.31 107.101 1711.55 107.274C1711.79 107.446 1711.97 107.699 1712.06 107.994V107.994L1717.72 182.79L1865.91 57.2029L1826.27 45.0915C1826.09 45.1374 1825.89 45.1071 1825.72 45.0064C1825.55 44.8174 1825.42 44.5936 1825.33 44.348V44.348L1864.91 32.7567L1821 25.9639L1691.38 40.1441L1689.95 40.2965C1689.69 40.3606 1689.42 40.3188 1689.2 40.1795V40.1795L1554.13 51.3499L1594.71 89.2427ZM1867.44 54.5992L1870.91 32.1898L1831.56 43.667L1867.44 54.5992ZM1881.78 -21.2871L1704.63 35.9154L1821.72 21.2923L1881.78 -21.2871ZM1887.68 -26.2047L1798.64 -37.8116L1697.12 35.3512L1887.68 -26.2047ZM1867.53 59.92L1720.48 185.01L1890.39 178.259L1889.11 173.801L1889.88 174.742L1867.53 59.92ZM1892.37 172.287L1899.37 134.281L1872.33 69.8551L1892.37 172.287ZM1901.9 132.504L1962.99 170.581L1873.2 64.2345L1901.9 132.504ZM1901.8 135.852L1894.07 177.633L1965.14 175.323L1901.8 135.852ZM1897.65 180.429L2012.21 244.491L1969.22 178.048L1897.65 180.429ZM2016.03 245.232L2024.51 215.451L1974.99 181.705L2016.03 245.232ZM2025.33 212.438L2029.4 195.205L1978.27 180.494L2025.33 212.438ZM2025.99 220.463L2017.9 248.659L2032.07 343.531L2039.04 282.052L2025.99 220.463ZM2023.72 412.946L2004.43 483.508L2047.07 478.07L2031.85 364.5L2023.72 412.946ZM2004.54 486.44L2023.74 534.255L2046 481.343L2004.54 486.44ZM2022.54 541.544C2022.54 541.544 2022.54 541.544 2022.13 541.48C2021.84 541.299 2021.61 541.029 2021.48 540.706L1836.94 593.328L2048.65 644.765L2023.38 541.15C2023.13 541.264 2022.85 541.299 2022.59 541.252L2022.54 541.544ZM1838.05 597.087L1922.47 658.131L2047.24 647.536L1838.05 597.087ZM1921.79 661.613L1889.26 677.21L1959.29 718.912L1921.79 661.613ZM1916.63 660.816L1874.14 658.503L1886.59 675.376L1916.63 660.816ZM1870.17 658.262L1839.75 655.649L1867.51 717.271L1884.41 677.206L1870.17 658.262ZM1867.56 724.229L1866.99 722.944L1844.61 739.363L1880.31 752.361L1867.52 724.521L1867.56 724.229ZM1865.78 720.291L1835.88 653.854L1810.99 619.209L1813.87 734.757L1840.29 738.172L1841.52 738.363L1865.78 720.291ZM1840.18 741.145L1813.84 737.668L1841.47 815.563L1840.18 741.145ZM1811.73 739.957L1786.93 805.183L1840.65 821.789L1811.73 739.957ZM1808.01 615.685L1752.71 589.267L1810.85 730.179L1808.01 615.685ZM1749.63 589.165L1720.6 604.479L1720.16 635.056L1807.01 728.165L1749.63 589.165ZM1750.46 583.836L1743.34 538.862L1815.83 544.694L1917.18 468.964C1917.18 468.964 1917.27 468.38 1917.33 468.015C1913.38 456.301 1908.81 444.839 1903.64 433.684L1876.99 405.867L1861.25 400.293L1696.98 536.548L1750.46 583.836ZM1856.88 400.291L1666.18 408.161L1695.6 534.092L1856.88 400.291ZM1761.91 351.965L1693.81 307.348L1693.69 313.158L1692.03 307.52L1666.42 404.385L1761.91 351.965ZM1690.56 302.435L1672.42 240.508L1574.03 359.823L1690.39 303.082L1690.56 302.435ZM1669.19 240.008L1600.44 257.775L1571.85 357.991L1669.19 240.008ZM1596.67 260.779L1524.71 329.771L1568.1 361.297L1596.67 260.779ZM1524.34 333.077L1539.76 440.847L1567.23 364.226L1524.34 333.077ZM1522.76 343.296L1516.09 447.351L1523.23 454.435L1519.77 467.277L1527.36 463.669L1537.59 446.193L1522.76 343.296ZM1526.84 467.026L1519.75 470.115L1525.12 534.102L1526.84 467.026ZM1527.28 559.251L1521.99 605.744L1541.94 601.357L1553.83 611.417L1560.68 589.382L1529.52 472.449L1527.28 559.251ZM1541.33 604.85L1518.98 609.689L1524.75 559.233L1517.44 473.645L1467.04 617.499L1493.95 629.136L1549.06 640.426L1553.07 614.513L1541.33 604.85ZM1492.11 631.916L1467.2 620.588L1477.51 677.641L1492.24 673.417L1492.11 631.916ZM1494.87 673.675L1497.76 675.019L1505.68 658.381L1494.95 636.765L1494.87 673.675ZM1463.77 618.638L1445.43 563.48L1446.45 657.814L1474.16 677.048L1463.77 618.638ZM1465.14 613.916L1511.35 482.119L1495.3 508.561L1483.75 512.232L1483.75 520.901L1474.74 530.942L1465.86 519.18L1448.06 521.883L1445.59 554.238L1465.14 613.916ZM1466.85 515.97L1474.71 526.529L1480.93 520.017L1481.02 510.315L1493.53 506.345L1515.53 470.061L1519.99 455.802L1514.62 450.487L1485.47 481.555L1464.15 479.302L1460.07 505.654L1433.78 499.569L1460.57 517.465L1466.85 515.97ZM1463.83 475.89L1484.59 478.13L1512.48 448.436L1444.5 413.031L1441.42 443.871L1463.83 475.89ZM1444.87 409.725L1513.47 445.674L1520.73 332.294L1448.8 368.403L1444.69 409.547L1444.87 409.725ZM1485.57 346.736L1518.52 330.233L1486.32 319.645L1485.57 346.736ZM1513.55 325.503L1485.16 305.714L1441.87 281.751L1397.21 282.99L1484.6 316.615C1484.77 316.467 1484.98 316.366 1485.19 316.321C1485.41 316.276 1485.63 316.289 1485.84 316.357L1513.55 325.503ZM1402.06 292.56L1314.1 299.432L1354.26 330.459L1402.06 292.56ZM1383.27 281.656L1330.62 269.1L1311.01 296.71L1383.27 281.656ZM1319.87 251.219L1305.29 300.012L1329.14 266.331L1390.49 233.666L1390.62 232.79L1424.77 97.1099L1319.87 251.219ZM1393.78 231.934L1455.1 203.076L1421.19 172.12L1437.38 129.779L1428.05 95.0016L1393.78 231.934ZM1456.57 200.389L1438.63 134.383L1424.48 171.284L1456.57 200.389ZM1430.25 91.6799L1439.13 125.267L1449.75 97.5365L1430.25 91.6799ZM1459.24 81.2161L1453.62 95.7428L1492.29 107.257L1459.24 81.2161ZM1494.19 110.465L1494.13 110.83L1452.91 98.4741L1441.01 129.967L1460.16 201.244L1569.23 167.517L1496.48 110.221L1494.19 110.465ZM1497.55 106.949L1591.07 89.5765L1550.09 51.5469L1497.55 106.949ZM1556.85 45.6407L1553.76 48.3025L1689.18 37.1123L1719.51 -17.9881L1556.85 45.6407ZM1723.53 -19.385L1694.19 33.851L1797.18 -40.6534L1829.26 -77.9198L1723.53 -19.385ZM1834.76 -80.2825L1800.91 -40.6739L1889.76 -29.172L1834.99 -80.8452L1834.76 -80.2825ZM1838.18 -81.4724L1894.63 -27.8956C1894.8 -27.6961 1894.91 -27.4445 1894.94 -27.1749L1915.42 -9.05727L1950.46 -88.1702L1838.18 -81.4724ZM1951.48 -83.3788L1917.72 -7.05807L1918.27 -6.97304L1873.9 31.0091L1870.04 55.9733L1968.3 172.672L1951.48 -83.3788ZM2024.22 155.912L1954.8 -77.5583L1971.5 175.634L2029.67 192.107L2024.22 155.912ZM2027.32 158.185L2032.26 193.106L2163.13 233.157L2027.32 158.185ZM2172.01 238.942L2033.69 196.615L2051.12 233.544L2050.28 295.824L2172.01 238.942ZM2047.35 297.015L2048.34 234.235L2031.43 198.434L2027.73 214.229L2027.62 214.886L2041.78 281.653L2050.65 315.313L2047.35 297.015ZM2056.57 348.891L2040.89 289.214L2033.51 354.667L2033.41 355.324L2048.38 466.838L2056.57 348.891ZM2049.63 481.53L2049.08 481.445L2026.15 535.973L2094.47 521.877L2049.63 481.53ZM2025.64 539.257L2050.89 642.121L2096.19 524.834L2025.64 539.257ZM2099.97 525.419L2126.88 597.522L2283.08 527.062L2099.97 525.419ZM2266.22 440.894L2233.98 436.43L2285.97 517.493L2266.22 440.894ZM2296.73 445.165L2269.18 441.351L2289.07 517.899L2296.73 445.165ZM2407.96 593.094L2398.66 629.55L2416.6 731.881L2407.96 593.094ZM2420.77 754.949L2461.58 620.749L2461.7 620.019L2410.43 583.91L2410.36 584.348L2420.77 754.949ZM2407.67 584.455L2407.44 580.981L2405.64 565.754L2400.92 611.289L2407.67 584.455ZM2410.21 580.363L2461.59 616.638L2457.78 559.843L2425.68 539.929L2407.53 550.351L2407.18 552.614L2410.21 580.363ZM2422.94 538.085L2342.55 487.83L2405.52 548.321L2422.94 538.085ZM2404.24 552.981L2404.4 551.959L2294.47 528.451L2396.12 626.392L2396.6 626.018L2404.24 552.981ZM2401.51 548.372L2331.6 481.278L2292.32 525.055L2401.51 548.372ZM2329.66 479.259L2299.42 447.374L2291.45 521.63L2329.66 479.259ZM2395.61 458.667L2302.06 446.213L2332.32 478.025L2425.9 536.226C2426.17 536.201 2426.44 536.256 2426.68 536.386C2426.92 536.515 2427.13 536.714 2427.26 536.96L2458.95 556.811C2459.24 556.793 2459.52 556.868 2459.76 557.025C2460 557.183 2460.18 557.415 2460.29 557.691L2485.38 573.381L2395.61 458.667ZM2453.57 473.315L2453.09 473.24L2450 472.762L2409.92 462.151L2452.32 488.219L2546.34 455.826L2453.57 473.315ZM2591.42 589.71L2598.73 689.351L2598.08 739.029L2599.17 739.72L2616.6 556.983L2567.23 457.711L2591.42 589.71ZM2540.48 518.748L2587.59 584.41L2563.8 456.21L2538.98 518.89L2540.48 518.748ZM2535.9 519.235L2561.98 453.461L2454.95 490.344C2455.03 490.716 2454.97 491.109 2454.78 491.439C2454.66 491.633 2454.5 491.794 2454.31 491.908C2454.12 492.022 2453.91 492.086 2453.69 492.093L2475.7 525.843L2535.9 519.235ZM2474.62 529.189L2448.56 489.356L2400 459.421L2488.48 572.889L2474.62 529.189ZM2489.24 579.359L2460.43 561.374L2464.13 616.134L2489.24 579.359ZM2481.16 631.55L2463.74 624.072L2423.63 755.99L2451.67 726.245L2485.29 666.271L2481.16 631.55ZM2423.3 760.423L2493.44 777.327L2452.69 729.169L2423.3 760.423ZM2485.85 671.291L2454.54 727.213L2495.58 775.79L2485.85 671.291ZM2598.01 1214.75L2597.84 1215.84L2614.52 1204.9L2598.01 1214.75ZM2617.34 1199.88L2603.39 1174.1L2598.51 1211.09L2617.34 1199.88ZM2604.02 1169.11L2619.78 1198.23L2635.3 1188.83L2629.88 1166.61L2597.69 1162.23L2604.02 1169.11ZM2664.78 1171.56L2632.95 1167.24L2637.89 1187.58L2664.78 1171.56ZM2636.51 1193.8L2622.25 1203.18L2652.38 1259.04L2636.51 1193.8ZM2619.91 1204.68L2597.46 1219.22L2597 1222.22L2652.08 1264.15L2619.91 1204.68ZM2651.73 1267.76L2595.95 1225.34L2574.06 1266.8L2651.73 1267.76ZM2594.36 1221.51L2584.57 1227.99L2594.29 1222.02L2594.36 1221.51ZM2534.93 1252.3L2553.69 1256.55L2561.63 1243.43L2563.08 1239.54L2563.16 1239.03L2564.69 1235.01L2534.93 1252.3ZM2556.25 1257.77L2571.14 1266.57L2592.05 1226.91L2565.44 1242.45L2556.25 1257.77ZM2567.3 1235.93L2594.87 1217.78L2595.07 1216.46L2568.79 1232.2L2567.3 1235.93ZM2570.12 1227.7L2595.32 1212.61L2600.94 1169.91L2594.3 1162.83L2570.12 1227.7ZM2595.51 1159.05L2626.67 1163.2L2600.93 1139.94L2595.51 1159.05ZM2592.04 1070.1L2592.56 1071.22L2601.52 1136.59L2630.52 1162.9L2645.79 1136.04L2584.38 1024.52L2592.26 1069.09C2592.36 1069.42 2592.35 1069.79 2592.24 1070.13L2592.04 1070.1ZM2573.94 1023.35L2587.57 1058.49L2580.27 1017L2579.98 1016.58L2624.73 913.787L2550.58 911.883L2573.31 992.383C2573.37 992.681 2573.32 992.992 2573.17 993.259L2573.94 1023.35ZM2549.01 916.573L2547.5 926.355L2563.36 966.179L2549.01 916.573ZM2529.22 974.051L2571.34 1020.11L2570.93 993.211L2546.11 930.325L2529.22 974.051ZM2545.29 921.977L2547.03 910.736L2525.52 879.23L2545.29 921.977ZM2523.34 871.942L2549.42 908.938L2622.87 910.808L2499.98 784.618L2523.34 871.942ZM2520.1 870.618L2496.43 782.125L2417.04 840.474C2416.92 840.784 2416.71 841.042 2416.43 841.203L2520.1 870.618ZM2415.63 838.238L2493.87 780.459L2421.7 763.016L2415.63 838.238ZM2419.03 761.632C2418.73 761.369 2418.54 760.991 2418.49 760.576L2418.31 756.737L2400.94 657.557L2413.98 827.07L2419.03 761.632ZM2412.09 839.26L2396.38 631.964L2282.51 771.306L2412.09 839.26ZM2392.29 632.526L2217.19 775.103L2279.19 770.493C2279.44 770.124 2279.81 769.862 2280.22 769.755L2392.29 632.526ZM2433.64 1229.38L2420.75 1167.6L2346.78 1228.2L2433.64 1229.38ZM2325.66 1210.14L2342.12 1226.51L2367.32 1148.19L2325.66 1210.14ZM2372.94 1140.09L2345.65 1225.56L2420.1 1164.51L2374.63 1085.49L2372.94 1140.09ZM2421.02 1160.84L2427.11 1128.29L2448.26 1101.67L2374.84 1080.52L2421.02 1160.84ZM2373.53 1074.41L2415.23 990.426L2349.81 904.368L2373.53 1074.41ZM2336.95 967.03L2368.83 1060.68L2347.13 903.953L2336.95 967.03ZM2346.99 897.13L2409.01 843.268L2286.1 893.689L2346.99 897.13ZM2282.92 891.927L2408.1 840.511L2281.43 774.203L2282.92 891.927ZM2280.11 888.727L2278.68 773.778L2215.2 778.456L2280.11 888.727ZM2393.71 627.887L2292.27 529.978L2293.18 533.632L2290.13 528.752L2215.5 772.897L2393.71 627.887ZM2212.55 773.264L2287.36 528.473L2128.01 600.238L2212.55 773.264ZM2208.65 771.688L2131.26 613.371L2164.43 735.475L2165.12 735.581L2208.65 771.688ZM2106.49 820.312L2172.7 810.748L2073.16 799.685L2106.49 820.312ZM2182.28 808.866L2162.55 739.893L2071.4 796.498L2182.28 808.866ZM2066.86 795.869L2161.52 737.041C2161.46 736.744 2161.51 736.432 2161.65 736.166L2124.71 600.176L2097.8 528.073L2051.91 646.913L2052.38 648.855L2050.8 648.61L2048.77 650.837L1926.18 660.948L1927.01 661.524L1924.95 661.205L1964.66 722.881L1964.17 744.256L2066.86 795.869ZM2055.43 793.353L1963.14 746.788L1930.75 764.201L2055.43 793.353ZM1926.36 763.52L1961.57 744.228L1962.02 725.388L1887.79 754.041L1926.36 763.52ZM1960.2 723.014L1886.62 678.819L1868.99 720.488L1883.64 752.652L1960.2 723.014ZM1880.93 755.148L1847.59 743.263L1873.13 770.086L1880.93 755.148ZM1871.19 772.625L1842.75 742.738L1844.43 818.712L1871.19 772.625ZM1841.59 832.996L1801.68 967.262L1846.28 923.637L1841.59 832.996ZM1846.69 926.914L1801.13 971.736L1869.74 983.024L1846.69 926.914ZM1870.36 1001.36L1870.46 989.337L1846.83 1020.14L1870.36 1001.36ZM1867.64 988.453L1798.85 1023.78L1837.84 1026.89L1867.64 988.453ZM1837.39 1029.81L1797.15 1026.58L1836.96 1076.69L1837.39 1029.81ZM1793.66 1026.86L1767.08 1047.19L1767.06 1056.9L1832.72 1075.88L1793.66 1026.86ZM1751.8 1070.01L1823.52 1076.25L1765.35 1059.78L1744.83 1055.93L1751.8 1070.01ZM1761.7 1024.23C1761.6 1024.38 1761.47 1024.49 1761.32 1024.57C1761.18 1024.65 1761.02 1024.7 1760.85 1024.7L1744.57 1052.6L1764.33 1056.33L1764.35 1045.72L1792.37 1024.72L1793.28 1024.26L1796.83 977.723L1761.7 1024.23ZM1777.57 891.182L1839.89 824.437L1785.82 807.777L1777.57 891.182ZM1768.47 962.722L1774.45 895.408L1763.29 873.426L1768.47 962.722ZM1762.83 866.331L1775.53 890.268L1783.77 806.937L1783.43 806.883L1783.51 806.372L1724.7 759.904L1762.83 866.331ZM1784.36 803.589L1809.34 737.645L1724.15 755.26L1784.36 803.589ZM1722.03 751.717L1722.53 752.991L1809.78 734.798L1720.58 639.157L1722.03 751.717ZM1576.57 575.845L1576.6 579.288L1576.35 580.894L1719.05 747.744L1717.57 635.403L1717.98 601.832L1748.66 585.427L1694.4 537.792L1693.6 538.416L1662.98 407.515L1662.7 407.473C1662.52 407.435 1662.35 407.361 1662.2 407.253C1662.05 407.146 1661.92 407.008 1661.82 406.847C1661.72 406.685 1661.66 406.505 1661.62 406.314C1661.59 406.124 1661.59 405.928 1661.63 405.738C1661.67 405.495 1661.77 405.267 1661.93 405.08C1662.08 404.892 1662.28 404.753 1662.5 404.676L1662.6 404.019L1663.5 404.157L1689.44 306.073L1570.31 363.881L1576.57 575.845ZM1567.87 370.978L1540.76 446.609L1573.72 573.312L1567.87 370.978ZM1572.67 580.1L1538.69 450.024L1530.09 464.689C1530.35 464.882 1530.53 465.178 1530.59 465.514L1562.91 586.812L1572.67 580.1ZM1563.79 645.247L1559.44 617.442L1558.85 611.223L1559.78 602.921L1556.15 614.616L1551.89 642.135L1560.97 655.723L1563.79 645.247ZM1552.38 681.227L1522.85 672.024L1518.23 701.879L1552.38 681.227ZM1522.39 669.112L1554.86 679.293L1560.01 659.685L1549.47 644.152L1496.27 633.232L1508.69 657.576L1522.39 669.112ZM1514.9 703.382L1519.9 671.045L1507.76 660.87L1499.87 677.289L1507.29 703.026L1514.9 703.382ZM1504.77 702.935L1497.61 678.284L1493.72 676.561L1476.99 681.448L1435.27 700.106L1504.77 702.935ZM1416.14 662.765L1429.72 699.099L1473.49 679.111L1444.62 659.697L1418.37 642.856L1416.14 662.765ZM1279.77 487.702C1281.19 499.761 1285.07 511.302 1291.14 521.525L1349.51 533.096L1281.73 425.446C1281.11 437.682 1279.49 474.055 1279.77 487.702ZM1282.15 419.532L1282.05 420.189L1353.34 533.837L1353.27 534.275L1417.93 639.35L1441.68 654.535L1347.18 449.024C1347.08 448.877 1347 448.708 1346.96 448.529C1346.92 448.349 1346.92 448.162 1346.95 447.979C1346.97 447.796 1347.04 447.62 1347.13 447.461C1347.22 447.302 1347.34 447.164 1347.48 447.054C1347.78 446.826 1348.15 446.729 1348.51 446.785C1348.87 446.841 1349.19 447.044 1349.41 447.351L1443.82 652.1L1442.9 554.793C1442.9 554.57 1442.93 554.348 1443 554.136L1445.42 521.25L1445.68 519.571L1456.56 517.891L1419.13 492.892L1458.11 501.986L1461.83 477.898L1439.19 445.544L1438.61 444.708L1441.92 411.959L1350.68 406.814L1348.9 405.641C1348.89 405.492 1348.91 405.342 1348.96 405.203V405.203L1411.97 358.594L1449.51 367.017L1483.13 349.796L1483.93 320.994L1408.22 291.868L1420.94 307.439L1438.58 308.001L1473.53 323.573L1406.79 322.514L1354.06 335.435L1312.63 303.465L1313.37 320.545L1337.62 359.799C1337.79 360.059 1337.85 360.375 1337.8 360.686C1337.75 360.997 1337.6 361.28 1337.36 361.478C1337.39 361.6 1337.4 361.729 1337.38 361.855C1337.36 361.981 1337.32 362.101 1337.25 362.208C1337.2 362.557 1337.01 362.871 1336.74 363.081C1336.47 363.292 1336.14 363.381 1335.81 363.331V363.331L1317.36 359.355L1283.83 369.117L1269.28 417.691L1282.15 419.532ZM1355.36 403.875L1442.12 408.851L1446.2 368.374L1355.36 403.875ZM1442.99 366.383L1412.38 359.555L1357.85 399.626L1442.99 366.383ZM1280.8 368.722L1234.19 388.045L1221.73 390.753L1266.4 415.377L1280.8 368.722ZM1083.28 397.959L1229.84 405.684L1255.09 412.579L1217.01 391.741L1152.17 380.589L1112.26 390.709L1078.14 379.302L1083.28 397.959ZM1050.76 380.746L1079.78 396.447L1074.53 377.622L1020.31 249.647L1050.76 380.746Z" fill="url(#paint4_radial_921_4702)" stroke="url(#paint5_radial_921_4702)"/>
</g>
<defs>
<filter id="filter0_f_921_4702" x="1400" y="-158" width="1372" height="1372" filterUnits="userSpaceOnUse" color-interpolation-filters="sRGB">
<feFlood flood-opacity="0" result="BackgroundImageFix"/>
<feBlend mode="normal" in="SourceGraphic" in2="BackgroundImageFix" result="shape"/>
<feGaussianBlur stdDeviation="125" result="effect1_foregroundBlur_921_4702"/>
</filter>
<linearGradient id="paint0_linear_921_4702" x1="1920" y1="0" x2="1750.19" y2="1076.16" gradientUnits="userSpaceOnUse">
<stop stop-color="#D6D3C2" stop-opacity="0.2"/>
<stop offset="1" stop-color="#5C5C5C" stop-opacity="0.14"/>
</linearGradient>
<radialGradient id="paint1_radial_921_4702" cx="0" cy="0" r="1" gradientUnits="userSpaceOnUse" gradientTransform="translate(2779.04 811.88) rotate(-155.477) scale(949.592 679.464)">
<stop stop-color="#C6B38A"/>
<stop offset="0.463601" stop-color="#F3C691"/>
<stop offset="1" stop-color="#B4703E"/>
</radialGradient>
<radialGradient id="paint2_radial_921_4702" cx="0" cy="0" r="1" gradientUnits="userSpaceOnUse" gradientTransform="translate(454.23 717.82) rotate(-8.86668) scale(1809.61 991.235)">
<stop stop-color="#C6B38A"/>
<stop offset="0.463601" stop-color="#F3C691"/>
<stop offset="1" stop-color="#B4703E"/>
</radialGradient>
<radialGradient id="paint3_radial_921_4702" cx="0" cy="0" r="1" gradientUnits="userSpaceOnUse" gradientTransform="translate(404.006 713.902) rotate(-8.92167) scale(1857.82 1020.4)">
<stop stop-color="#C6B38A"/>
<stop offset="0.463601" stop-color="#F3C691"/>
<stop offset="1" stop-color="#B4703E"/>
</radialGradient>
<radialGradient id="paint4_radial_921_4702" cx="0" cy="0" r="1" gradientUnits="userSpaceOnUse" gradientTransform="translate(404.006 713.902) rotate(-8.92167) scale(1857.82 1020.4)">
<stop stop-color="#C6B38A"/>
<stop offset="0.463601" stop-color="#F3C691"/>
<stop offset="1" stop-color="#B4703E"/>
</radialGradient>
<radialGradient id="paint5_radial_921_4702" cx="0" cy="0" r="1" gradientUnits="userSpaceOnUse" gradientTransform="translate(404.006 713.902) rotate(-8.92167) scale(1857.82 1020.4)">
<stop stop-color="#C6B38A"/>
<stop offset="0.463601" stop-color="#F3C691"/>
<stop offset="1" stop-color="#B4703E"/>
</radialGradient>
<clipPath id="clip0_921_4702">
<rect width="1920" height="800" fill="white"/>
</clipPath>
</defs>
</svg>
