<svg width="908" height="800" viewBox="0 0 908 800" fill="none" xmlns="http://www.w3.org/2000/svg">
<g clip-path="url(#clip0_1345_4753)">
<g opacity="0.2" filter="url(#filter0_f_1345_4753)">
<circle cx="924" cy="528" r="436" fill="url(#paint0_radial_1345_4753)"/>
</g>
<g opacity="0.15">
<path d="M26.3279 297.89L60.5559 359.989L176.845 355.556L261.23 316.291L291.839 313.552L305.661 251.039L477.213 113.146L481.017 109.025C481.225 108.786 481.504 108.628 481.807 108.58C482.109 108.531 482.416 108.594 482.676 108.759L483.648 107.938L537.194 76.0849L538.118 74.2097L538.394 74.7008L584.319 17.976L584.8 18.0504L743.871 -24.6091L743.939 -25.0471L745.726 -24.7707L747.854 -25.3383L822.468 -83.3055L926.418 -27.5367L1016.75 166.267L1019.39 171.981L1146.81 354.405L1309.23 408.756L1407.77 471.312L1569.16 483.273L1614.67 618.87C1614.68 619.019 1614.66 619.169 1614.6 619.308V619.308L1632.15 794.676L1632.09 795.114L1600.51 859.141L1565.81 774.173L1591.14 733.246L1581.02 575.77L1522.07 514.33L1460.38 531.471L1493.2 646.792L1480.9 800.876L1560.5 893.985L1560.98 893.162L1560.77 894.549L1561.9 895.846L1569.84 986.016L1562.42 1028.52L1628.97 1123.2L1618.11 1173.84L1618.03 1174.35L1637.8 1265.3L1577.97 1253.21L1527.41 1254.8L1534.19 1195.08L1559.01 1125.6L1500.15 1000.27L1500.09 1000.71L1499.28 998.196L1408.62 905.17L1389.96 951.238L1412.13 1065.36L1429.78 1102.25L1400 1171.49L1421.83 1222.77L1381.67 1229.94L1380.02 1229.68L1318.57 1217.56L1330.68 1182.06L1369.96 1129.17L1342.98 1026.56L1331.41 960.344L1232.84 903.464L1192.17 859.802L1191.62 859.717L1191.21 859.653L1171.24 803.197L1107.83 823.285L1053.83 793.032L1039.19 810.35L956.113 797.497L950.722 798.233L897.824 828.168L867.83 807.832L868.496 776.693L868.152 776.64L868.22 776.202L857.017 768.116L856.356 769.658L855.861 768.311L835.439 785.706L838.156 845.919L829.926 926.862L860.345 984.933L823.534 1026.4L827.194 1072.78L755.035 1074.4L754.623 1074.34L754.279 1074.28L732.358 1059.98L752.864 1028.4L757.263 896.263L728.043 772.679L625.385 657.167L570.5 583.053L550.633 581.849L550.566 582.287L549.673 582.148L544.261 594.391L545.222 594.54L544.034 595.402L554.974 651.581L522.859 699.531L430.19 704.104L405.134 669.584L408.901 653.425L350.251 532.239L349.929 531.591L289.334 528.047L288.716 527.952L266.571 494.629L274.324 426.319L205.264 399.715L88.3305 402.404L40.1496 384.561L38.1003 384.618C37.7672 384.618 37.4474 384.491 37.1991 384.26C36.9507 384.03 36.7902 383.711 36.7466 383.362L36.3343 383.298L26.3279 297.89ZM141.574 378.427L170.624 358.929L47.7985 379.691L141.574 378.427ZM348.624 526.382L313.359 450.52L291.395 522.91L348.624 526.382ZM821.197 1031.05L820.797 1026.35L821.197 1031.05ZM817.962 1028.3L759.454 1069.03L823.84 1067.63L817.962 1028.3ZM820.72 1022.3L826.923 925.351L793.531 847.387L819.862 1022.39L820.72 1022.3ZM791.515 852.232L757.131 1021.29L817.068 1022.26L791.515 852.232ZM792.538 837.891L831.326 784.098L736.938 772.037L792.538 837.891ZM832.11 781.304L827.42 692.906L733.197 768.02L733.92 768.805L832.11 781.304ZM924.067 599.856L830.199 691.318L830.109 691.902L856.462 760.332L924.067 599.856ZM870.111 803.551L944.234 794.24L871.699 775.544L870.806 775.406L870.111 803.551ZM1371.22 1131.46L1323.95 1212.34L1396.29 1170.46L1371.22 1131.46ZM1379.68 1226.42L1396.43 1173.63L1324.1 1215.5L1379.68 1226.42ZM1409.06 1066.53L1337.3 968.206L1397.99 1164.45L1409.06 1066.53ZM1616.56 1177.48L1570.26 1224.36L1634.87 1261.49L1616.56 1177.48ZM1569.07 1221.56L1614.94 1175.21L1562.66 1129.76L1569.07 1221.56ZM1614.46 1171.03L1563.1 1036.4L1562.5 1125.32L1614.46 1171.03ZM1459.14 528.588L1517.93 512.42L1411.05 475.557L1459.14 528.588ZM1583.7 574.39L1608.99 610.591L1567.22 486.71L1524.56 512.773L1583.7 574.39ZM1310.55 412.547L1310.13 412.483L1072.03 447.55L1401.8 470.314L1310.55 412.547ZM585.779 20.8178L541.873 74.4918L686.708 45.1761L585.779 20.8178ZM277.005 422.174L408.803 442.563L269.227 371.94L277.005 422.174ZM926.711 594.136L697.706 661.778L828.375 689.466L926.711 594.136ZM1377.18 882.816L1427.64 829.558L1204.57 858.356L1377.18 882.816ZM1466.44 888.029L1555.93 895.819L1434.14 830.714L1466.44 888.029ZM1013.13 169.219L920.062 174.105L1012.58 239.616L1014.23 170.286L1013.13 169.219ZM751.836 26.6999L694.633 46.2526L777.406 66.5318L751.836 26.6999ZM567.72 125.278L686.314 48.1796L540.427 77.9303L567.72 125.278ZM418.448 482.099L504.644 448.869L418.967 446.452L418.448 482.099ZM375.084 383.084L508.184 444.633L422.504 307.606L375.084 383.084ZM420.074 306.483L298.347 316.054L372.814 381.388L420.074 306.483ZM377.623 387.139L418.491 443.613L419.178 443.72L505.131 446.179L377.623 387.139ZM372.547 384.934L275.707 371.896L413.322 441.095L372.547 384.934ZM368.727 381.428L295.615 317.799L269.494 368.394L368.727 381.428ZM421.946 303.484L451.044 242.736L302.038 312.663L421.946 303.484ZM425.082 303.222L425.426 303.275L424.387 304.983L508.206 439.031L453.977 243.787L425.082 303.222ZM511.727 441.743L540.81 299.225L456.689 243.086L511.727 441.743ZM653.292 382.623L547.151 303.719L595.674 373.934L653.292 382.623ZM932.196 589.155L936.852 587.707L936.029 588.477L1031.53 573.354L907.448 543.545L706.005 655.887L927.184 590.621L927.274 590.038L932.196 589.155ZM1098.93 655.234L967.925 689.305L1041.85 744.466L1098.93 655.234ZM1213.33 580.7L1212.74 579.937L1213.5 580.053L1196.72 520.655L1107.41 648.175L1213.33 580.7ZM1103.5 653.922L1057.63 782.11L1209.31 586.656L1103.5 653.922ZM1430.66 823.672L1441.01 721.756L1325.99 758.449L1430.29 824.662L1430.66 823.672ZM1323.43 756.335L1437.19 720.044L1292.05 685.856L1323.43 756.335ZM1291.1 679.73L1330.73 635.934L1300.96 577.29L1291.1 679.73ZM1298.49 574.143L1217.93 582.309L1288.31 679.972L1298.49 574.143ZM1299.46 571.079L1397.73 481.642L1222.24 579.015L1299.46 571.079ZM1045.25 364.556L1044.77 364.481L908.51 387.499L1056.71 446.525L1045.25 364.556ZM908.851 540.847L1035.63 571.373L904.814 393.654L908.851 540.847ZM902.356 384.978L932.151 296.534L761.761 340.955L902.356 384.978ZM925.634 295.002L757.719 282.031L757.966 338.649L925.634 295.002ZM721.097 96.6865L709.528 152.822L777.774 72.3437L721.097 96.6865ZM718.473 95.9069L696.119 55.7505L707.425 149.133L718.473 95.9069ZM707.927 159.077L643.613 268.714L828.669 159.967L709.277 158.538L707.927 159.077ZM755.129 339.705L754.875 285.403L664.862 380.601L752.453 341.085L751.216 340.893L755.129 339.705ZM826.492 164.488L645.37 271.004L756.142 278.125L826.492 164.488ZM752.959 283.238L753.814 281.801L743.451 281.02L747.343 280.426L641.677 273.497L659.359 382.067L752.959 283.238ZM833.936 160.034L831.614 161.394L760.877 275.718L912.813 173.656L833.936 160.034ZM911.891 170.524L854.961 119.637L835.82 157.859L911.891 170.524ZM659.927 385.667L635.893 464.165L750.424 345.106L659.927 385.667ZM639.058 274.512C639.058 274.512 638.714 274.459 638.508 274.427C638.202 274.482 637.889 274.434 637.615 274.289L546.351 298.887L656.392 381.234L639.058 274.512ZM639.221 270.725L701.721 164.171L548.073 295.49L639.221 270.725ZM692.557 49.6685L570.016 256.432L705.621 157.15L692.557 49.6685ZM720.346 93.8049L776.292 70.0964L695.924 50.1894L720.346 93.8049ZM781.3 72.2913L710.85 155.194L850.947 116.475L781.93 72.3139L781.3 72.2913ZM719.552 155.792L831.09 157.052L832.877 157.329L852.006 119.18L719.552 155.792ZM857.372 117.693L916.517 171.09L927.113 83.0392L857.394 117.099L858.012 117.194L857.372 117.693ZM762.165 278.309L1010.28 240.83L916.559 174.46L762.165 278.309ZM768.912 280.175L933.827 292.981L1007.59 244.599L768.912 280.175ZM905.173 384.965L1042.43 361.877L935.254 296.49L905.173 384.965ZM904.563 388.907L1038.29 570.139L1056.9 449.843L904.563 388.907ZM1040.2 573.201L1099.72 649.227L1058.34 455.971L1040.2 573.201ZM1102.56 649.517L1195.44 517.615L1060.41 451.21L1102.56 649.517ZM1221.37 575.59L1220.66 576.527L1403.18 475.085L1199 518.241L1216.11 579.112L1221.37 575.59ZM1098.82 652.302L1040.1 577.071L1039.35 575.984L968.193 686.207L1098.82 652.302ZM906.126 541.173L901.911 391.038L699.698 656.182L906.126 541.173ZM758.159 342.864L777.719 489.319L900.095 387.319L758.159 342.864ZM755.539 343.879L636.713 467.506L775.03 490.324L755.539 343.879ZM632.246 466.815L656.815 386.681C656.541 386.51 656.313 386.269 656.15 385.98L597.397 376.891L632.075 467.013L632.246 466.815ZM543.784 303.198L544.886 475.275L593.593 375.107L543.784 303.198ZM677.966 180.825L566.503 262.316L565.578 263.743L548.316 291.642L677.966 180.825ZM565.076 259.255L688.962 49.7103L568.687 127.67L565.076 259.255ZM781.67 68.5366L916.917 -21.6071L754.776 25.8842L781.67 68.5366ZM784.764 69.9122L927.46 79.4306L924.127 -22.7339L784.764 69.9122ZM788.079 73.0411L854.655 115.703L923.196 81.9847L788.079 73.0411ZM929.92 83.9966L919.505 170.88L1010.51 166.124L929.92 83.9966ZM1013.78 243.688L937.618 293.941L1139.67 352.329L1013.78 243.688ZM944.246 298.853L1046.63 361.106L1137.34 354.659L944.246 298.853ZM1059.72 447.066L1304.54 410.871L1047.77 365.095L1059.72 447.066ZM1197.8 515.515L1396.96 473.45L1065.85 450.631L1197.8 515.515ZM1301.51 572.816L1331.95 632.609L1403.37 479.749L1301.51 572.816ZM1291.53 682.861L1435.59 716.732L1332.71 638.109L1291.53 682.861ZM1430.49 830.672L1409.93 901.261L1462.78 887.987L1430.49 830.672ZM1426.6 826.258L1322.44 759.994L1199.1 855.941L1426.6 826.258ZM1288.52 686.806L1176.73 797.246L1320.46 757.369L1288.52 686.806ZM1215.29 583.47L1057.82 786.325L1287.19 683.161L1215.29 583.47ZM1096.57 663.688L1043.54 746.745L1053.36 785.634L1096.57 663.688ZM1037.78 745.33L964.653 690.443L872.918 772.669L1037.78 745.33ZM878.474 774.5L949.016 792.887L1033.16 749.25L878.474 774.5ZM1035.9 575.526L932.316 592.013L931.505 592.71L931.324 593.878L965.124 685.583L1035.9 575.526ZM894.296 395.69L778.264 492.618L778.128 493.494L777.373 493.377L698.626 653.101L894.296 395.69ZM632.516 469.622L558.488 480.593L752.027 489.381L632.516 469.622ZM628.87 467.264L595.054 378.397L545.96 479.253L628.87 467.264ZM540.791 311.629L513.486 445.379L514.321 444.985L513.25 447.36L541.857 477.572L540.791 311.629ZM512.272 450.498L512.159 451.228L511.643 450.475L465.736 548.012L540.733 481.658C540.689 481.487 540.681 481.307 540.708 481.131C540.735 480.955 540.798 480.786 540.891 480.636L512.272 450.498ZM417.732 484.903L401.515 551.53L462.292 548.899L508.734 450.174L417.732 484.903ZM403.33 554.352L474.525 636.744L462.413 552.206L403.33 554.352ZM398.789 550.959L414.394 486.928L353.734 527.92L398.789 550.959ZM415.21 483.018L415.709 448.863L357.179 522.025L415.21 483.018ZM413.849 446.333L314.533 447.936L351.038 525.335L413.849 446.333ZM291.424 317.599L152.346 377.926L266.481 367.853L291.424 317.599ZM453.2 238.809L478.957 115.06L301.62 309.908L453.2 238.809ZM541.995 296.568L562.156 264.035L461.451 242.776L541.995 296.568ZM562.241 261.208L565.842 130.594L457.264 238.914L562.241 261.208ZM565.526 127.181L538.268 80.0628L459.655 232.558L565.526 127.181ZM750.251 24.661L750.87 24.7567L744.826 -17.1367L697.156 43.1302L750.251 24.661ZM747.269 -20.6454L753.603 23.4605L919.759 -25.4276L748.822 -22.4979L747.269 -20.6454ZM930.004 80.2725L1013.67 165.715L926.947 -20.9523L930.004 80.2725ZM1017.62 173.426L1016.89 172.641L1015.3 241.157L1017.65 242.792L1017.24 242.728L1138.49 347.214L1017.62 173.426ZM1055.06 363.457L1289.52 405.184L1145.69 357.073L1055.06 363.457ZM1563.84 485.813L1418.53 474.994L1522.59 510.973L1563.84 485.813ZM1408.27 476.696L1335.9 631.65L1457.13 530.22L1408.27 476.696ZM1442.05 717.732L1489.98 648.535L1336.84 637.85L1442.05 717.732ZM1489.9 653.605L1444.53 719.46L1445.65 720.382L1444.54 720.733L1478.73 796.279L1489.9 653.605ZM1478.02 802.224L1443.21 725.236L1432.94 826.641L1555.32 891.988L1478.02 802.224ZM1467.7 890.317L1501.34 994.405L1558.03 898.162L1467.7 890.317ZM1502.95 997.195L1560.39 1026.63L1558.48 902.492L1502.95 997.195ZM1560.53 1030.24L1503.95 1001.24L1559.84 1120.2L1560.53 1030.24ZM1464.89 890.778L1411.52 904.197L1497.86 992.82L1464.89 890.778ZM1427.75 833.387L1380.07 883.711L1407.97 901.183L1427.75 833.387ZM1332.68 956.728L1375.26 885.21L1197.01 859.951L1331.84 957.121C1331.84 957.121 1332.25 956.737 1332.68 956.728ZM1335.63 957.633L1387.57 950.72L1377.15 888.043L1335.63 957.633ZM1193.38 856.55L1315.68 761.414L1173.84 800.91L1193.38 856.55ZM1284.77 687.421L1059.05 788.832L1171.5 798.754L1284.77 687.421ZM1041.27 748.261L956.171 792.574L1051.52 788.414L1041.27 748.261ZM963.378 688.228L930.108 598.1L872.681 769.194L963.378 688.228ZM728.873 764.586C729.157 764.398 729.493 764.323 729.821 764.374C730.148 764.424 730.446 764.598 730.66 764.862L731.659 766.138L825.745 691.003L694.882 663.658L728.873 764.586ZM692.561 659.562L773.849 494.775L574.111 579.725L692.561 659.562ZM770.365 493.19L545.406 482.829L571.897 577.664L770.365 493.19ZM541.164 485.238L469.036 549.419L547.244 576.018L541.164 485.238ZM477.586 638.788L539.907 592.97L465.437 552.674L477.586 638.788ZM551.112 650.162L479.999 642.748L522.022 693.571L551.112 650.162ZM476.392 642.863L475.592 643.487L475.728 642.611L419.395 651.087L518.116 692.444L476.392 642.863ZM473.822 639.924L402.338 556.217L411.797 647.893L414.306 648.954L473.822 639.924ZM399.081 553.62L354.141 530.748L408.249 643.084L399.081 553.62ZM311.6 446.884L277.61 426.453L290.466 516.637L311.6 446.884ZM313.622 444.73L400.332 443.196L282.827 425.018L313.622 444.73ZM266.682 370.65L209.172 396.284L273.981 421.258L266.682 370.65ZM258.749 370.992L153.382 380.328L205.585 394.458L258.749 370.992ZM60.2418 362.93L42.4027 378.183L155.191 359.083L60.2418 362.93ZM38.3721 377.859L57.9712 361.233L30.4561 311.683L38.3721 377.859ZM177.845 357.729L152.179 374.91L287.85 316.597L262.243 318.84L177.845 357.729ZM308.125 252.392L294.712 313.174L465.082 126.068L308.125 252.392ZM484.957 109.934L482.077 112.179L457.497 230.131L534.581 80.2399L484.957 109.934ZM591.191 19.039L692.944 43.5249L744.644 -21.8735L591.191 19.039ZM752.113 -25.5764L920.142 -28.3581L822.714 -80.801L752.113 -25.5764ZM1613.53 637.155L1601.87 848.963L1628.83 794.312L1613.53 637.155ZM1568.82 774.265L1599.41 849.405L1610.57 640.808L1593.82 733.212L1568.82 774.265ZM1593.17 721.902L1611.67 619.602L1583.79 579.711L1593.17 721.902ZM1457.69 532.475L1336.01 635.031L1489.86 645.677L1457.69 532.475ZM1561.24 914.206L1562.96 1014.55L1567.82 986.303L1561.24 914.206ZM1626.58 1124.1L1566.82 1039.14L1616.99 1169.7L1626.58 1124.1ZM1578.76 1251.24L1628.09 1261.18L1567.87 1226.6L1566.46 1227.96L1566.53 1227.52L1533.98 1252.38L1578.73 1251.01L1578.76 1251.24ZM1537.42 1196.48L1531.3 1251.07L1566.55 1223.78L1560.1 1133.1L1537.42 1196.48ZM1406.74 904.132L1379.42 886.975L1389.35 946.959L1406.74 904.132ZM1387.71 953.506L1335.22 960.334L1408.1 1060.48L1387.71 953.506ZM1426.93 1102.48L1411.44 1071.16L1401.1 1162.54L1426.93 1102.48ZM1399.43 1177L1399.22 1178.32L1398.57 1176.2L1382.48 1227L1418.49 1220.69L1399.43 1177ZM1325.87 1204.04L1357.44 1150.03L1333.01 1182.87L1325.87 1204.04ZM1345.68 1025.93L1372.61 1128.38L1394.32 1162.24L1337 976.53L1345.68 1025.93ZM1234.34 901.079L1308.75 944.056L1203.3 867.95L1234.34 901.079ZM1164.4 800.57L1059.64 791.839L1107.77 818.716L1164.4 800.57ZM1049.96 791.237L968.404 794.914L1037.88 805.662L1049.96 791.237ZM943.015 797.115L872.829 805.99L897.664 822.837L943.015 797.115ZM868.929 770.706L923.48 609.108L858.026 763.414L868.929 770.706ZM830.63 699.905L834.853 779.486L854.452 762.861L830.63 699.905ZM832.452 786.365L793.664 840.158L827.356 918.915L835.036 843.344L832.452 786.365ZM856.697 981.678L829.199 929.291L823.359 1019.8L856.697 981.678ZM735.91 1056.12L754.633 1068.36L817.714 1024.45L755.739 1023.46L755.355 1025.94L755.287 1026.38L735.91 1056.12ZM759.637 892.744L755.694 1013.29L790.18 843.58L789.855 841.586C789.812 841.232 789.892 840.87 790.081 840.57C790.27 840.269 790.555 840.049 790.882 839.951V839.951L732.574 771.138L730.718 770.851L759.637 892.744ZM627.195 652.29L725.412 762.855L691.629 662.856C691.42 662.839 691.222 662.761 691.055 662.63C690.889 662.498 690.762 662.319 690.689 662.113C690.635 661.943 690.621 661.761 690.649 661.583C690.676 661.405 690.744 661.236 690.847 661.091L577.235 584.544L627.195 652.29ZM569.033 577.071L543.893 487.155L550.14 575.942L569.033 577.071ZM546.905 578.207L473.27 553.886L541.997 590.827L546.905 578.207ZM480.152 639.483L551.62 646.877L541.444 594.404L480.152 639.483ZM431.288 698.37L515.614 694.972L413.524 652.197L411.429 652.545L408.071 666.974L431.288 698.37ZM288.021 519.249L275.793 433.646L269.265 491.309L288.021 519.249ZM88.3878 397.031L195.271 395.18L143.938 381.334L142.495 381.111C142.237 381.248 141.947 381.298 141.664 381.254C141.381 381.21 141.12 381.075 140.915 380.866L48.193 382.143L88.3878 397.031Z" fill="url(#paint1_radial_1345_4753)"/>
</g>
<g style="mix-blend-mode:overlay">
<path d="M9.13768 241.105L60.2196 351.628L138.227 354.503L194.613 343.867L288.265 306.559L305.088 250.116L415.087 88.9479L415.635 88.1358L438.902 95.0986L445.961 76.7578L482.775 105.772L535.983 49.7256L534.997 48.8256L536.989 48.6853L543.171 43.2886L710.071 -21.7782L820.764 -83.2824L822.148 -84.04C822.524 -84.1319 822.916 -84.0712 823.247 -83.8699L941.327 -91.2396L1014.68 154.573L1164.52 237.546L1168 238.683L1038.39 299.204L1047.25 348.857C1047.25 348.857 1047.25 348.857 1047.19 349.222L1038.21 478.705L1086.39 522.931L1273.95 524.441L1272.9 523.458L1274.48 523.702L1217.75 435.624C1217.74 435.451 1217.76 435.276 1217.83 435.113C1218.11 435.055 1218.4 435.1 1218.65 435.241V435.241L1253.1 439.972L1224.33 328.94L1091.21 339.813L1081.07 308.946C1080.96 308.587 1080.98 308.196 1081.13 307.846C1081.27 307.496 1081.53 307.213 1081.86 307.049C1082.2 306.927 1082.57 306.941 1082.9 307.088C1083.22 307.235 1083.49 307.505 1083.63 307.847L1093.56 334.646L1225.82 323.864L1226.51 323.97L1255.89 437.414L1286 441.548L1380.03 454.974L1250.82 342.829L1272.25 312.511C1272.48 312.201 1272.81 311.991 1273.17 311.923C1273.53 311.854 1273.91 311.932 1274.21 312.141C1274.5 312.376 1274.69 312.723 1274.73 313.108C1274.78 313.493 1274.68 313.885 1274.46 314.197L1254.56 342.287L1384.91 455.729L1385.53 455.825C1385.74 455.585 1386.02 455.428 1386.32 455.379C1386.62 455.331 1386.93 455.394 1387.19 455.558L1389.25 456.775L1434.88 468.841L1435.5 468.936L1441.47 469.861L1553.01 449.296L1554.05 448.934L1606.87 555.091L1666.55 548.628C1666.91 548.591 1667.26 548.704 1667.54 548.942C1667.82 549.18 1668 549.525 1668.04 549.905C1668.05 550.098 1668.02 550.292 1667.97 550.477C1667.91 550.662 1667.81 550.833 1667.69 550.981C1667.57 551.129 1667.43 551.25 1667.26 551.339C1667.1 551.428 1666.92 551.481 1666.74 551.497L1607.27 557.919L1590.4 740.669C1590.41 740.842 1590.38 741.017 1590.32 741.179L1655.28 781.573C1655.59 781.771 1655.82 782.094 1655.9 782.472C1655.99 782.849 1655.93 783.251 1655.74 783.588C1655.61 783.824 1655.41 784.016 1655.18 784.14C1654.95 784.263 1654.69 784.313 1654.44 784.283L1653.89 784.198L1588.04 744.115L1587.62 744.051L1587.01 743.955L1584.24 741.809L1583.56 741.702L1584.02 690.501L1576.78 591.768L1527.16 522.729L1465.6 529.5L1466.56 530.995C1466.71 531.287 1466.76 531.622 1466.71 531.951C1466.66 532.28 1466.51 532.584 1466.28 532.82L1480.92 579.182C1481.22 579.391 1481.43 579.718 1481.5 580.092C1481.58 580.466 1481.51 580.859 1481.32 581.186C1481.19 581.429 1481 581.627 1480.76 581.751C1480.53 581.876 1480.27 581.921 1480.01 581.881L1479.26 581.764L1452.06 621.131L1451.9 622.153L1470.9 630.324L1474.83 663.146C1474.86 663.344 1474.83 663.551 1474.74 663.73L1486.79 779.127L1615.19 911.102L1652.27 911.981C1652.45 911.989 1652.63 912.035 1652.8 912.117C1652.97 912.2 1653.11 912.316 1653.23 912.46C1653.36 912.604 1653.45 912.772 1653.51 912.956C1653.57 913.139 1653.59 913.334 1653.58 913.529C1653.54 913.905 1653.38 914.258 1653.12 914.52C1652.86 914.783 1652.52 914.937 1652.16 914.954L1615.94 913.984L1571.36 1016.58L1637.28 1136.2L1621.33 1164.31L1661.17 1169.65L1627.09 1192.1L1646.17 1270.69L1559.39 1269.98L1541.89 1259.8L1515.32 1253.74L1554.54 1230.36L1580.66 1160.18L1587.03 1137.7L1578.16 1072.65L1559.58 1024.93L1514.23 975.159L1532.66 926.962L1507.98 875.01C1507.93 874.828 1507.92 874.634 1507.95 874.444C1507.98 874.254 1508.05 874.073 1508.15 873.915L1402.06 843.825L1337.93 899.527L1406.23 989.694L1406.81 990.457L1363.24 1077.44L1435.86 1098.32L1406.31 1044.64C1406.21 1044.49 1406.14 1044.33 1406.1 1044.15C1406.06 1043.97 1406.05 1043.78 1406.08 1043.6C1406.11 1043.41 1406.17 1043.24 1406.26 1043.08C1406.35 1042.92 1406.47 1042.78 1406.62 1042.67C1406.92 1042.44 1407.28 1042.35 1407.64 1042.4C1408 1042.46 1408.33 1042.66 1408.54 1042.97L1440.29 1100.65L1417.51 1129.64L1410.99 1164.5L1411.31 1165.15L1425.16 1232.09L1330.42 1230.52L1310.11 1210.34L1358.53 1139.27L1360.41 1081.64L1360.53 1080.91L1360.28 1079.3L1359.76 1075.86L1323.34 968.799L1253.97 937.813C1253.63 937.661 1253.37 937.371 1253.23 937.007C1253.1 936.642 1253.1 936.234 1253.25 935.87C1253.4 935.507 1253.68 935.219 1254.03 935.069C1254.37 934.919 1254.76 934.921 1255.1 935.072L1323.33 965.658L1333.36 900.839C1333.35 900.69 1333.37 900.54 1333.43 900.401L1270.3 896.839C1270.19 896.994 1270.03 897.116 1269.86 897.193C1269.69 897.271 1269.5 897.303 1269.32 897.285L1268.77 897.2C1268.61 897.209 1268.44 897.184 1268.29 897.126V897.126C1268 897.005 1267.75 896.782 1267.6 896.494C1267.44 896.205 1267.39 895.868 1267.44 895.537C1267.49 895.206 1267.65 894.901 1267.88 894.673C1268.11 894.444 1268.41 894.305 1268.73 894.279L1201.8 781.154L1200.4 778.323L1153.95 739.746L1173.88 809.273L1173.67 810.587L1174.21 812.539L1178.31 858.84L1212.91 853.504L1246.4 886.265C1246.66 886.519 1246.82 886.873 1246.84 887.252C1246.86 887.631 1246.74 888.006 1246.51 888.3C1246.36 888.481 1246.17 888.621 1245.96 888.706C1245.75 888.791 1245.52 888.819 1245.3 888.786C1245.02 888.81 1244.74 888.767 1244.48 888.659L1211.91 856.788L1175.87 862.349L1171.44 812.709L1094.37 823.806L1056.29 800.276C1056.13 800.462 1055.94 800.611 1055.73 800.712L949.076 841.092L938.816 861.927C938.687 862.19 938.484 862.404 938.236 862.54C937.988 862.676 937.707 862.727 937.433 862.685L936.952 862.61C936.783 862.534 936.632 862.421 936.508 862.278C936.384 862.135 936.29 861.965 936.233 861.78C936.175 861.595 936.155 861.399 936.173 861.204C936.192 861.009 936.249 860.819 936.341 860.647L946.6 839.812L946.69 839.228L947.171 839.302L1050.32 799.278L914.446 767.944L913.965 767.869L871.467 757.408L861.169 776.22L832.446 825.441L833.184 827.498L832.222 827.35L836.963 924.051L861.385 983.587L861.8 984.548C861.853 984.896 861.798 985.255 861.642 985.57L861.609 1002.61L828.602 1029.04L828.003 1080.67L739.143 1072.9L738.387 1072.79L729.118 1053.56L729.585 1052.81L748.794 1019.61L754.711 981.36L748.1 867.179L707.974 756.333C707.763 756.144 707.603 755.899 707.511 755.623C707.418 755.346 707.395 755.047 707.444 754.756L706.65 752.615L561.457 582.763L560.76 583.627L560.873 582.897L552.152 589.695L549.691 611.064L550.241 617.054L554.653 645.39L545.08 681.804L504.843 705.849L504.499 705.796L416.082 701.984L415.714 701.18L401.401 662.716L403.895 640.679L339.626 536.263L277.5 523.962L277.156 523.46C270.652 512.667 266.512 500.438 265.035 487.652C264.407 472.607 267.028 429.288 267.309 421.559L255.429 418.301C255.429 418.301 255.429 418.301 254.948 418.226L254.536 418.163L217.466 408.093L70.2157 400.262L36.9753 382.264L0.357229 225.546L9.13768 241.105ZM58.4397 354.492L24.1742 280.354L64.6552 375.26L129.245 357.074L58.4397 354.492ZM195.752 346.51L139 357.238L69.0437 376.911L100.493 387.381L139.742 377.458L239.69 329.016L195.752 346.51ZM144.838 378.172L205.574 388.539L220.576 385.255L264.892 319.835L144.838 378.172ZM225.176 383.724L270.256 365.211L303.368 355.385L270.086 318.097L225.176 383.724ZM306.321 354.945L322.655 358.518L299.344 320.904L272.913 317.563L306.321 354.945ZM290.583 308.861L275.552 315.056L298.73 317.595L297.888 298.481L291.039 308.184L290.583 308.861ZM405.96 306.679L394.058 292.655L350.74 327.061L405.96 306.679ZM363.113 325.762L394.421 318.048L447.431 318.775L425.978 309.178L408.54 308.648L363.113 325.762ZM752.863 1016.5L784.222 973.892L783.741 973.818L785.146 972.466L765.373 902.886L758.387 981.705L752.863 1016.5ZM787.062 968.726L828.618 828.81L766.216 895.618L787.062 968.726ZM787.809 975.718L784.292 1022.56L855.86 985.647L788.139 974.498L787.809 975.718ZM879.211 -24.4627L878.524 -24.569L813.719 21.3872L859.69 28.4989L879.211 -24.4627ZM863.679 25.4537L901.837 -6.9858L882.108 -24.5378L863.679 25.4537ZM592.349 200.23L588.813 254.469L657.08 237.076L592.349 200.23ZM654.516 232.27L631.205 205.12L597.26 199.869L654.516 232.27ZM632.619 202.349L661.394 236.025L680.387 230.592L677.481 193.893L677.397 192.161L677.51 191.431L677.657 190.482L696.262 111.144L581.882 92.3284L561.149 167.675L591.973 195.837L632.619 202.349ZM851.965 398.172L864.775 402.695L877.195 342.88L883.274 279.019L847.031 360.935L850.36 397.177L853.268 397.029L851.965 398.172ZM859.547 655.261L905.451 657.803L819.336 595.451L799.81 614.329L859.547 655.261ZM803.521 620.36L824.352 649.443C824.564 649.481 824.764 649.568 824.938 649.699C825.113 649.829 825.257 649.999 825.361 650.197L826.155 651.889L826.431 652.38L853.512 654.701L803.521 620.36ZM817.146 593.692L746.071 588.302L797.311 612.747L817.146 593.692ZM822.601 591.172L1008.05 537.645L933.09 471.861L906.687 471.065L805.013 547.044L804.669 546.991L734.624 541.313L741.483 584.304L740.166 584.623L822.601 591.172ZM701.097 187.232L682.033 191.757L720.234 221.808L770.083 232.958L704.933 187.451L700.479 187.584L701.097 187.232ZM703.185 183.743L697.954 115.218L680.642 189.374L703.185 183.743ZM680.424 194.423L683.249 230.287L777.703 241.012L775.92 237.523L719.278 224.799L680.424 194.423ZM777.483 234.7L782.628 242.372L782.357 244.124L753.599 345.883L822.304 271.531L860.135 241.208L878.185 180.021L709.488 186.661L777.483 234.7ZM829.183 339.862L829.081 340.519L845.17 357.957L883.692 270.862L861.242 244.967L825.332 273.793L828.855 336.523C829.1 336.685 829.29 336.925 829.397 337.21C829.505 337.495 829.525 337.81 829.454 338.11L829.183 339.862ZM822.807 276.467L753.839 351.152L754.526 351.259L816.44 382.213L826.503 339.448L822.807 276.467ZM863.218 242.657L885.874 268.584L902.255 256.842L880.529 183.972L863.218 242.657ZM908.227 468.389L932.306 469.199L934.909 406.893C923.034 432.71 910.604 460.759 908.33 468.18L908.227 468.389ZM936.63 398.041L1000.06 324.591L892.362 336.257L936.63 398.041ZM914.936 372.262L914.808 387.191L913.605 413.613L934.756 399.694L914.936 372.262ZM1000.22 321.253L958.03 271.076L904.607 259.374L891.302 333.104L1000.22 321.253ZM912.066 368.529L889.271 336.676L880.367 343.296L911.881 383.823L912.009 368.894L912.066 368.529ZM888.545 334.097L901.624 261.379L886.66 272.144L880.144 340.645L888.545 334.097ZM904.75 256.631L954.977 267.614L883.279 185.294L904.75 256.631ZM959.673 268.64L1002.16 318.713L1003.36 249.612L886.872 184.355L959.673 268.64ZM1004.59 322.152L1017.16 343.679L1005.53 265.569L1004.59 322.152ZM1005.08 328.507L1010.87 401.603L1018.68 355.201L1018.03 350.766L1005.08 328.507ZM1002.12 326.256L938.454 399.892C938.458 400.091 938.427 400.289 938.364 400.476L989.956 481.779L1008.77 412.489L1002.12 326.256ZM989.346 485.721L937.674 404.481L934.998 469.989L1009.35 535.155L989.346 485.721ZM932.625 404.372L912.572 417.564L894.264 433.118C896.185 437.526 903.663 454.229 906.671 463.439C911.921 450.424 926.085 419.355 932.625 404.372ZM910.439 415.888L911.708 388.58L879.011 346.151L867.022 404.089L892.701 430.484L910.439 415.888ZM844.056 361.521L828.023 343.719L818.549 383.586L847.153 396.531L844.056 361.521ZM815.324 385.329L753.125 354.405L751.819 354.203L658.632 405.336L842.759 397.645L815.324 385.329ZM778.998 247.192L681.793 304.281L750.525 348.921L778.998 247.192ZM778.328 244.248L682.981 233.385L681.581 301.108L778.328 244.248ZM680.257 233.711L664.433 238.214L662.235 238.771L678.878 295.384L680.257 233.711ZM589.26 201.098L505.202 244.151L585.734 254.815L589.26 201.098ZM575.921 259.575L434.55 281.055L473.89 302.837L575.921 259.575ZM476.619 304.754L510.397 327.917L580.857 260.414L476.619 304.754ZM576.91 256.365L501.063 246.35L435.281 258.596L385.513 280.121L430.321 278.832L576.91 256.365ZM379.203 279.519L434.095 255.797L489.886 245.369L380.873 235.979L379.203 279.519ZM378.058 236.889L321.92 266.846L376.193 279.876L378.058 236.889ZM321.373 294.939L393.444 289.346L377.574 283.228L321.373 294.939ZM496.029 242.956L446.683 204.902L446.064 204.806L385.355 233.383L496.029 242.956ZM500.998 243.126L587.434 198.797L451.148 204.696L500.998 243.126ZM587.668 195.919L559.345 169.787L456.419 201.55L587.668 195.919ZM578.734 92.6636L487.671 109.594L559.027 165.478L578.734 92.6636ZM582.711 89.2427L697.892 107.435C698.116 107.198 698.413 107.058 698.727 107.041C699.019 107.019 699.309 107.101 699.55 107.274C699.79 107.446 699.969 107.699 700.057 107.994V107.994L705.724 182.79L853.913 57.2029L814.273 45.0915C814.085 45.1374 813.889 45.1071 813.724 45.0064C813.553 44.8174 813.42 44.5936 813.333 44.348V44.348L852.91 32.7567L809 25.9639L679.383 40.1441L677.952 40.2965C677.694 40.3606 677.424 40.3188 677.197 40.1795V40.1795L542.135 51.3499L582.711 89.2427ZM855.441 54.5992L858.908 32.1898L819.56 43.667L855.441 54.5992ZM869.784 -21.2871L692.632 35.9154L809.723 21.2923L869.784 -21.2871ZM875.681 -26.2047L786.641 -37.8116L685.12 35.3512L875.681 -26.2047ZM855.533 59.92L708.477 185.01L878.387 178.259L877.107 173.801L877.876 174.742L855.533 59.92ZM880.366 172.287L887.371 134.281L860.328 69.8551L880.366 172.287ZM889.898 132.504L950.991 170.581L861.198 64.2345L889.898 132.504ZM889.802 135.852L882.072 177.633L953.142 175.323L889.802 135.852ZM885.65 180.429L1000.21 244.491L957.224 178.048L885.65 180.429ZM1004.03 245.232L1012.51 215.451L962.99 181.705L1004.03 245.232ZM1013.33 212.438L1017.4 195.205L966.273 180.494L1013.33 212.438ZM1013.99 220.463L1005.9 248.659L1020.07 343.531L1027.04 282.052L1013.99 220.463ZM1011.72 412.946L992.432 483.508L1035.07 478.07L1019.85 364.5L1011.72 412.946ZM992.542 486.44L1011.74 534.255L1034 481.343L992.542 486.44ZM1010.54 541.544C1010.54 541.544 1010.54 541.544 1010.13 541.48C1009.84 541.299 1009.61 541.029 1009.48 540.706L824.941 593.328L1036.65 644.765L1011.38 541.15C1011.13 541.264 1010.85 541.299 1010.59 541.252L1010.54 541.544ZM826.049 597.087L910.466 658.131L1035.24 647.536L826.049 597.087ZM909.787 661.613L877.26 677.21L947.291 718.912L909.787 661.613ZM904.633 660.816L862.142 658.503L874.588 675.376L904.633 660.816ZM858.168 658.262L827.754 655.649L855.513 717.271L872.406 677.206L858.168 658.262ZM855.562 724.229L854.987 722.944L832.605 739.363L868.308 752.361L855.517 724.521L855.562 724.229ZM853.779 720.291L823.881 653.854L798.985 619.209L801.866 734.757L828.286 738.172L829.523 738.363L853.779 720.291ZM828.178 741.145L801.838 737.668L829.471 815.563L828.178 741.145ZM799.725 739.957L774.929 805.183L828.649 821.789L799.725 739.957ZM796.012 615.685L740.715 589.267L798.845 730.179L796.012 615.685ZM737.635 589.165L708.599 604.479L708.161 635.056L795.006 728.165L737.635 589.165ZM738.459 583.836L731.344 538.862L803.828 544.694L905.183 468.964C905.183 468.964 905.273 468.38 905.33 468.015C901.375 456.301 896.806 444.839 891.644 433.684L864.988 405.867L849.245 400.293L684.983 536.548L738.459 583.836ZM844.883 400.291L654.184 408.161L683.603 534.092L844.883 400.291ZM749.914 351.965L681.812 307.348L681.687 313.158L680.026 307.52L654.416 404.385L749.914 351.965ZM678.561 302.435L660.419 240.508L562.031 359.823L678.391 303.082L678.561 302.435ZM657.189 240.008L588.442 257.775L559.852 357.991L657.189 240.008ZM584.671 260.779L512.713 329.771L556.104 361.297L584.671 260.779ZM512.343 333.077L527.755 440.847L555.229 364.226L512.343 333.077ZM510.762 343.296L504.093 447.351L511.229 454.435L507.765 467.277L515.359 463.669L525.592 446.193L510.762 343.296ZM514.84 467.026L507.748 470.115L513.118 534.102L514.84 467.026ZM515.278 559.251L509.986 605.744L529.943 601.357L541.826 611.417L548.682 589.382L517.519 472.449L515.278 559.251ZM529.332 604.85L506.983 609.689L512.748 559.233L505.443 473.645L455.045 617.499L481.952 629.136L537.057 640.426L541.066 614.513L529.332 604.85ZM480.115 631.916L455.2 620.588L465.512 677.641L480.238 673.417L480.115 631.916ZM482.872 673.675L485.76 675.019L493.681 658.381L482.953 636.765L482.872 673.675ZM451.773 618.638L433.428 563.48L434.455 657.814L462.157 677.048L451.773 618.638ZM453.137 613.916L499.348 482.119L483.296 508.561L471.752 512.232L471.747 520.901L462.736 530.942L453.861 519.18L436.063 521.883L433.591 554.238L453.137 613.916ZM454.85 515.97L462.715 526.529L468.929 520.017L469.023 510.315L481.528 506.345L503.535 470.061L507.992 455.802L502.623 450.487L473.472 481.555L452.149 479.302L448.073 505.654L421.784 499.569L448.568 517.465L454.85 515.97ZM451.833 475.89L472.594 478.13L500.477 448.436L432.498 413.031L429.416 443.871L451.833 475.89ZM432.869 409.725L501.468 445.674L508.735 332.294L436.799 368.403L432.685 409.547L432.869 409.725ZM473.572 346.736L506.521 330.233L474.315 319.645L473.572 346.736ZM501.553 325.503L473.163 305.714L429.869 281.751L385.21 282.99L472.603 316.615C472.774 316.467 472.977 316.366 473.193 316.321C473.409 316.276 473.63 316.289 473.838 316.357L501.553 325.503ZM390.062 292.56L302.103 299.432L342.264 330.459L390.062 292.56ZM371.273 281.656L318.616 269.1L299.006 296.71L371.273 281.656ZM307.873 251.219L293.289 300.012L317.144 266.331L378.486 233.666L378.622 232.79L412.769 97.1099L307.873 251.219ZM381.78 231.934L443.096 203.076L409.186 172.12L425.375 129.779L416.05 95.0016L381.78 231.934ZM444.567 200.389L426.633 134.383L412.482 171.284L444.567 200.389ZM418.253 91.6799L427.129 125.267L437.751 97.5365L418.253 91.6799ZM447.242 81.2161L441.617 95.7428L480.293 107.257L447.242 81.2161ZM482.189 110.465L482.133 110.83L440.913 98.4741L429.005 129.967L448.163 201.244L557.233 167.517L484.479 110.221L482.189 110.465ZM485.548 106.949L579.071 89.5765L538.094 51.5469L485.548 106.949ZM544.847 45.6407L541.762 48.3025L677.178 37.1123L707.514 -17.9881L544.847 45.6407ZM711.53 -19.385L682.186 33.851L785.181 -40.6534L817.261 -77.9198L711.53 -19.385ZM822.763 -80.2825L788.913 -40.6739L877.758 -29.172L822.99 -80.8452L822.763 -80.2825ZM826.183 -81.4724L882.627 -27.8956C882.798 -27.6961 882.907 -27.4445 882.938 -27.1749L903.424 -9.05727L938.46 -88.1702L826.183 -81.4724ZM939.478 -83.3788L905.718 -7.05807L906.268 -6.97304L861.905 31.0091L858.043 55.9733L956.296 172.672L939.478 -83.3788ZM1012.22 155.912L942.799 -77.5583L959.497 175.634L1017.67 192.107L1012.22 155.912ZM1015.32 158.185L1020.26 193.106L1151.13 233.157L1015.32 158.185ZM1160.01 238.942L1021.69 196.615L1039.12 233.544L1038.28 295.824L1160.01 238.942ZM1035.35 297.015L1036.34 234.235L1019.43 198.434L1015.73 214.229L1015.62 214.886L1029.78 281.653L1038.65 315.313L1035.35 297.015ZM1044.57 348.891L1028.89 289.214L1021.51 354.667L1021.41 355.324L1036.38 466.838L1044.57 348.891ZM1037.63 481.53L1037.08 481.445L1014.15 535.973L1082.47 521.877L1037.63 481.53ZM1013.64 539.257L1038.89 642.121L1084.19 524.834L1013.64 539.257ZM1087.97 525.419L1114.88 597.522L1271.08 527.062L1087.97 525.419ZM1254.22 440.894L1221.98 436.43L1273.97 517.493L1254.22 440.894ZM1284.73 445.165L1257.18 441.351L1277.07 517.899L1284.73 445.165ZM1395.96 593.094L1386.66 629.55L1404.6 731.881L1395.96 593.094ZM1408.77 754.949L1449.58 620.749L1449.7 620.019L1398.43 583.91L1398.36 584.348L1408.77 754.949ZM1395.67 584.455L1395.44 580.981L1393.64 565.754L1388.92 611.289L1395.67 584.455ZM1398.21 580.363L1449.59 616.638L1445.78 559.843L1413.68 539.929L1395.53 550.351L1395.18 552.614L1398.21 580.363ZM1410.94 538.085L1330.55 487.83L1393.52 548.321L1410.94 538.085ZM1392.24 552.981L1392.4 551.959L1282.47 528.451L1384.12 626.392L1384.6 626.018L1392.24 552.981ZM1389.51 548.372L1319.6 481.278L1280.32 525.055L1389.51 548.372ZM1317.66 479.259L1287.42 447.374L1279.45 521.63L1317.66 479.259ZM1383.61 458.667L1290.06 446.213L1320.32 478.025L1413.9 536.226C1414.17 536.201 1414.44 536.256 1414.68 536.386C1414.92 536.515 1415.13 536.714 1415.26 536.96L1446.95 556.811C1447.24 556.793 1447.52 556.868 1447.76 557.025C1448 557.183 1448.18 557.415 1448.29 557.691L1473.38 573.381L1383.61 458.667ZM1441.57 473.315L1441.09 473.24L1438 472.762L1397.92 462.151L1440.32 488.219L1534.34 455.826L1441.57 473.315ZM1579.42 589.71L1586.73 689.351L1586.08 739.029L1587.17 739.72L1604.6 556.983L1555.23 457.711L1579.42 589.71ZM1528.48 518.748L1575.59 584.41L1551.8 456.21L1526.98 518.89L1528.48 518.748ZM1523.9 519.235L1549.98 453.461L1442.95 490.344C1443.03 490.716 1442.97 491.109 1442.78 491.439C1442.66 491.633 1442.5 491.794 1442.31 491.908C1442.12 492.022 1441.91 492.086 1441.69 492.093L1463.7 525.843L1523.9 519.235ZM1462.62 529.189L1436.56 489.356L1388 459.421L1476.48 572.889L1462.62 529.189ZM1477.24 579.359L1448.43 561.374L1452.13 616.134L1477.24 579.359ZM1469.16 631.55L1451.74 624.072L1411.63 755.99L1439.67 726.245L1473.29 666.271L1469.16 631.55ZM1411.3 760.423L1481.44 777.327L1440.69 729.169L1411.3 760.423ZM1473.85 671.291L1442.54 727.213L1483.58 775.79L1473.85 671.291ZM1586.01 1214.75L1585.84 1215.84L1602.52 1204.9L1586.01 1214.75ZM1605.34 1199.88L1591.39 1174.1L1586.51 1211.09L1605.34 1199.88ZM1592.02 1169.11L1607.78 1198.23L1623.3 1188.83L1617.88 1166.61L1585.69 1162.23L1592.02 1169.11ZM1652.78 1171.56L1620.95 1167.24L1625.89 1187.58L1652.78 1171.56ZM1624.51 1193.8L1610.25 1203.18L1640.38 1259.04L1624.51 1193.8ZM1607.91 1204.68L1585.46 1219.22L1585 1222.22L1640.08 1264.15L1607.91 1204.68ZM1639.73 1267.76L1583.95 1225.34L1562.06 1266.8L1639.73 1267.76ZM1582.36 1221.51L1572.57 1227.99L1582.29 1222.02L1582.36 1221.51ZM1522.93 1252.3L1541.69 1256.55L1549.63 1243.43L1551.08 1239.54L1551.16 1239.03L1552.69 1235.01L1522.93 1252.3ZM1544.25 1257.77L1559.14 1266.57L1580.05 1226.91L1553.44 1242.45L1544.25 1257.77ZM1555.3 1235.93L1582.87 1217.78L1583.07 1216.46L1556.79 1232.2L1555.3 1235.93ZM1558.12 1227.7L1583.32 1212.61L1588.94 1169.91L1582.3 1162.83L1558.12 1227.7ZM1583.51 1159.05L1614.67 1163.2L1588.93 1139.94L1583.51 1159.05ZM1580.04 1070.1L1580.56 1071.22L1589.52 1136.59L1618.52 1162.9L1633.79 1136.04L1572.38 1024.52L1580.26 1069.09C1580.36 1069.42 1580.35 1069.79 1580.24 1070.13L1580.04 1070.1ZM1561.94 1023.35L1575.57 1058.49L1568.27 1017L1567.98 1016.58L1612.73 913.787L1538.58 911.883L1561.31 992.383C1561.37 992.681 1561.32 992.992 1561.17 993.259L1561.94 1023.35ZM1537.01 916.573L1535.5 926.355L1551.36 966.179L1537.01 916.573ZM1517.22 974.051L1559.34 1020.11L1558.93 993.211L1534.11 930.325L1517.22 974.051ZM1533.29 921.977L1535.03 910.736L1513.52 879.23L1533.29 921.977ZM1511.34 871.942L1537.42 908.938L1610.87 910.808L1487.98 784.618L1511.34 871.942ZM1508.1 870.618L1484.43 782.125L1405.04 840.474C1404.92 840.784 1404.71 841.042 1404.43 841.203L1508.1 870.618ZM1403.63 838.238L1481.87 780.459L1409.7 763.016L1403.63 838.238ZM1407.03 761.632C1406.73 761.369 1406.54 760.991 1406.49 760.576L1406.31 756.737L1388.94 657.557L1401.98 827.07L1407.03 761.632ZM1400.09 839.26L1384.38 631.964L1270.51 771.306L1400.09 839.26ZM1380.29 632.526L1205.19 775.103L1267.19 770.493C1267.44 770.124 1267.81 769.862 1268.22 769.755L1380.29 632.526ZM1421.64 1229.38L1408.75 1167.6L1334.78 1228.2L1421.64 1229.38ZM1313.66 1210.14L1330.12 1226.51L1355.32 1148.19L1313.66 1210.14ZM1360.94 1140.09L1333.65 1225.56L1408.1 1164.51L1362.63 1085.49L1360.94 1140.09ZM1409.02 1160.84L1415.11 1128.29L1436.26 1101.67L1362.84 1080.52L1409.02 1160.84ZM1361.53 1074.41L1403.23 990.426L1337.81 904.368L1361.53 1074.41ZM1324.95 967.03L1356.83 1060.68L1335.13 903.953L1324.95 967.03ZM1334.99 897.13L1397.01 843.268L1274.1 893.689L1334.99 897.13ZM1270.92 891.927L1396.1 840.511L1269.43 774.203L1270.92 891.927ZM1268.11 888.727L1266.68 773.778L1203.2 778.456L1268.11 888.727ZM1381.71 627.887L1280.27 529.978L1281.18 533.632L1278.13 528.752L1203.5 772.897L1381.71 627.887ZM1200.55 773.264L1275.36 528.473L1116.01 600.238L1200.55 773.264ZM1196.65 771.688L1119.26 613.371L1152.43 735.475L1153.12 735.581L1196.65 771.688ZM1094.49 820.312L1160.7 810.748L1061.16 799.685L1094.49 820.312ZM1170.28 808.866L1150.55 739.893L1059.4 796.498L1170.28 808.866ZM1054.86 795.869L1149.52 737.041C1149.46 736.744 1149.51 736.432 1149.65 736.166L1112.71 600.176L1085.8 528.073L1039.91 646.913L1040.38 648.855L1038.8 648.61L1036.77 650.837L914.182 660.948L915.008 661.524L912.946 661.205L952.657 722.881L952.165 744.256L1054.86 795.869ZM1043.43 793.353L951.14 746.788L918.754 764.201L1043.43 793.353ZM914.356 763.52L949.566 744.228L950.018 725.388L875.787 754.041L914.356 763.52ZM948.204 723.014L874.619 678.819L856.985 720.488L871.64 752.652L948.204 723.014ZM868.932 755.148L835.59 743.263L861.133 770.086L868.932 755.148ZM859.192 772.625L830.746 742.738L832.432 818.712L859.192 772.625ZM829.589 832.996L789.68 967.262L834.283 923.637L829.589 832.996ZM834.691 926.914L789.129 971.736L857.743 983.024L834.691 926.914ZM858.355 1001.36L858.455 989.337L834.834 1020.14L858.355 1001.36ZM855.637 988.453L786.848 1023.78L825.838 1026.89L855.637 988.453ZM825.386 1029.81L785.148 1026.58L824.96 1076.69L825.386 1029.81ZM781.657 1026.86L755.081 1047.19L755.056 1056.9L820.722 1075.88L781.657 1026.86ZM739.8 1070.01L811.518 1076.25L753.345 1059.78L732.832 1055.93L739.8 1070.01ZM749.697 1024.23C749.599 1024.38 749.472 1024.49 749.325 1024.57C749.178 1024.65 749.015 1024.7 748.851 1024.7L732.573 1052.6L752.33 1056.33L752.354 1045.72L780.37 1024.72L781.285 1024.26L784.825 977.723L749.697 1024.23ZM765.566 891.182L827.888 824.437L773.824 807.777L765.566 891.182ZM756.469 962.722L762.449 895.408L751.285 873.426L756.469 962.722ZM750.835 866.331L763.526 890.268L771.773 806.937L771.43 806.883L771.509 806.372L712.699 759.904L750.835 866.331ZM772.362 803.589L797.339 737.645L712.151 755.26L772.362 803.589ZM710.025 751.717L710.532 752.991L797.779 734.798L708.582 639.157L710.025 751.717ZM564.567 575.845L564.598 579.288L564.349 580.894L707.051 747.744L705.574 635.403L705.983 601.832L736.665 585.427L682.398 537.792L681.598 538.416L650.977 407.515L650.702 407.473C650.523 407.435 650.353 407.361 650.203 407.253C650.052 407.146 649.923 407.008 649.824 406.847C649.725 406.685 649.657 406.505 649.624 406.314C649.592 406.124 649.595 405.928 649.634 405.738C649.673 405.495 649.775 405.267 649.928 405.08C650.081 404.892 650.28 404.753 650.502 404.676L650.603 404.019L651.497 404.157L677.435 306.073L558.308 363.881L564.567 575.845ZM555.873 370.978L528.764 446.609L561.722 573.312L555.873 370.978ZM560.672 580.1L526.687 450.024L518.086 464.689C518.351 464.882 518.532 465.178 518.592 465.514L550.909 586.812L560.672 580.1ZM551.791 645.247L547.437 617.442L546.852 611.223L547.784 602.921L544.145 614.616L539.888 642.135L548.974 655.723L551.791 645.247ZM540.384 681.227L510.849 672.024L506.231 701.879L540.384 681.227ZM510.385 669.112L542.865 679.293L548.009 659.685L537.465 644.152L484.273 633.232L496.69 657.576L510.385 669.112ZM502.902 703.382L507.905 671.045L495.759 660.87L487.871 677.289L495.288 703.026L502.902 703.382ZM492.769 702.935L485.606 678.284L481.722 676.561L464.994 681.448L423.268 700.106L492.769 702.935ZM404.137 662.765L417.725 699.099L461.485 679.111L432.615 659.697L406.373 642.856L404.137 662.765ZM267.771 487.702C269.187 499.761 273.068 511.302 279.144 521.525L337.512 533.096L269.733 425.446C269.106 437.682 267.49 474.055 267.771 487.702ZM270.155 419.532L270.053 420.189L341.338 533.837L341.27 534.275L405.93 639.35L429.685 654.535L335.18 449.024C335.077 448.877 335.003 448.708 334.963 448.529C334.923 448.349 334.917 448.162 334.945 447.979C334.973 447.796 335.036 447.62 335.128 447.461C335.221 447.302 335.342 447.164 335.484 447.054C335.783 446.826 336.151 446.729 336.511 446.785C336.871 446.841 337.193 447.044 337.408 447.351L431.821 652.1L430.902 554.793C430.9 554.57 430.934 554.348 431.003 554.136L433.417 521.25L433.677 519.571L444.561 517.891L407.127 492.892L446.107 501.986L449.834 477.898L427.187 445.544L426.613 444.708L429.92 411.959L338.684 406.814L336.895 405.641C336.885 405.492 336.908 405.342 336.963 405.203V405.203L399.969 358.594L437.505 367.017L471.128 349.796L471.925 320.994L396.22 291.868L408.938 307.439L426.582 308.001L461.535 323.573L394.786 322.514L342.057 335.435L300.635 303.465L301.37 320.545L325.623 359.799C325.785 360.059 325.849 360.375 325.801 360.686C325.753 360.997 325.596 361.28 325.363 361.478C325.395 361.6 325.401 361.729 325.382 361.855C325.362 361.981 325.317 362.101 325.25 362.208C325.196 362.557 325.014 362.871 324.744 363.081C324.474 363.292 324.138 363.381 323.81 363.331V363.331L305.357 359.355L271.833 369.117L257.283 417.691L270.155 419.532ZM343.36 403.875L430.119 408.851L434.2 368.374L343.36 403.875ZM430.99 366.383L400.384 359.555L345.847 399.626L430.99 366.383ZM268.798 368.722L222.185 388.045L209.735 390.753L254.404 415.377L268.798 368.722ZM71.2756 397.959L217.838 405.684L243.086 412.579L205.008 391.741L140.172 380.589L100.26 390.709L66.1407 379.302L71.2756 397.959ZM38.7581 380.746L67.7804 396.447L62.5308 377.622L8.30885 249.647L38.7581 380.746Z" fill="url(#paint2_radial_1345_4753)"/>
</g>
<path d="M9.13768 241.105L60.2196 351.628L138.227 354.503L194.613 343.867L288.265 306.559L305.088 250.116L415.087 88.9479L415.635 88.1358L438.902 95.0986L445.961 76.7578L482.775 105.772L535.983 49.7256L534.997 48.8256L536.989 48.6853L543.171 43.2886L710.071 -21.7782L820.764 -83.2824L822.148 -84.04C822.524 -84.1319 822.916 -84.0712 823.247 -83.8699L941.327 -91.2396L1014.68 154.573L1164.52 237.546L1168 238.683L1038.39 299.204L1047.25 348.857C1047.25 348.857 1047.25 348.857 1047.19 349.222L1038.21 478.705L1086.39 522.931L1273.95 524.441L1272.9 523.458L1274.48 523.702L1217.75 435.624C1217.74 435.451 1217.76 435.276 1217.83 435.113C1218.11 435.055 1218.4 435.1 1218.65 435.241V435.241L1253.1 439.972L1224.33 328.94L1091.21 339.813L1081.07 308.946C1080.96 308.587 1080.98 308.196 1081.13 307.846C1081.27 307.496 1081.53 307.213 1081.86 307.049C1082.2 306.927 1082.57 306.941 1082.9 307.088C1083.22 307.235 1083.49 307.505 1083.63 307.847L1093.56 334.646L1225.82 323.864L1226.51 323.97L1255.89 437.414L1286 441.548L1380.03 454.974L1250.82 342.829L1272.25 312.511C1272.48 312.201 1272.81 311.991 1273.17 311.923C1273.53 311.854 1273.91 311.932 1274.21 312.141C1274.5 312.376 1274.69 312.723 1274.73 313.108C1274.78 313.493 1274.68 313.885 1274.46 314.197L1254.56 342.287L1384.91 455.729L1385.53 455.825C1385.74 455.585 1386.02 455.428 1386.32 455.379C1386.62 455.331 1386.93 455.394 1387.19 455.558L1389.25 456.775L1434.88 468.841L1435.5 468.936L1441.47 469.861L1553.01 449.296L1554.05 448.934L1606.87 555.091L1666.55 548.628C1666.91 548.591 1667.26 548.704 1667.54 548.942C1667.82 549.18 1668 549.525 1668.04 549.905C1668.05 550.098 1668.02 550.292 1667.97 550.477C1667.91 550.662 1667.81 550.833 1667.69 550.981C1667.57 551.129 1667.43 551.25 1667.26 551.339C1667.1 551.428 1666.92 551.481 1666.74 551.497L1607.27 557.919L1590.4 740.669C1590.41 740.842 1590.38 741.017 1590.32 741.179L1655.28 781.573C1655.59 781.771 1655.82 782.094 1655.9 782.472C1655.99 782.849 1655.93 783.251 1655.74 783.588C1655.61 783.824 1655.41 784.016 1655.18 784.14C1654.95 784.263 1654.69 784.313 1654.44 784.283L1653.89 784.198L1588.04 744.115L1587.62 744.051L1587.01 743.955L1584.24 741.809L1583.56 741.702L1584.02 690.501L1576.78 591.768L1527.16 522.729L1465.6 529.5L1466.56 530.995C1466.71 531.287 1466.76 531.622 1466.71 531.951C1466.66 532.28 1466.51 532.584 1466.28 532.82L1480.92 579.182C1481.22 579.391 1481.43 579.718 1481.5 580.092C1481.58 580.466 1481.51 580.859 1481.32 581.186C1481.19 581.429 1481 581.627 1480.76 581.751C1480.53 581.876 1480.27 581.921 1480.01 581.881L1479.26 581.764L1452.06 621.131L1451.9 622.153L1470.9 630.324L1474.83 663.146C1474.86 663.344 1474.83 663.551 1474.74 663.73L1486.79 779.127L1615.19 911.102L1652.27 911.981C1652.45 911.989 1652.63 912.035 1652.8 912.117C1652.97 912.2 1653.11 912.316 1653.23 912.46C1653.36 912.604 1653.45 912.772 1653.51 912.956C1653.57 913.139 1653.59 913.334 1653.58 913.529C1653.54 913.905 1653.38 914.258 1653.12 914.52C1652.86 914.783 1652.52 914.937 1652.16 914.954L1615.94 913.984L1571.36 1016.58L1637.28 1136.2L1621.33 1164.31L1661.17 1169.65L1627.09 1192.1L1646.17 1270.69L1559.39 1269.98L1541.89 1259.8L1515.32 1253.74L1554.54 1230.36L1580.66 1160.18L1587.03 1137.7L1578.16 1072.65L1559.58 1024.93L1514.23 975.159L1532.66 926.962L1507.98 875.01C1507.93 874.828 1507.92 874.634 1507.95 874.444C1507.98 874.254 1508.05 874.073 1508.15 873.915L1402.06 843.825L1337.93 899.527L1406.23 989.694L1406.81 990.457L1363.24 1077.44L1435.86 1098.32L1406.31 1044.64C1406.21 1044.49 1406.14 1044.33 1406.1 1044.15C1406.06 1043.97 1406.05 1043.78 1406.08 1043.6C1406.11 1043.41 1406.17 1043.24 1406.26 1043.08C1406.35 1042.92 1406.47 1042.78 1406.62 1042.67C1406.92 1042.44 1407.28 1042.35 1407.64 1042.4C1408 1042.46 1408.33 1042.66 1408.54 1042.97L1440.29 1100.65L1417.51 1129.64L1410.99 1164.5L1411.31 1165.15L1425.16 1232.09L1330.42 1230.52L1310.11 1210.34L1358.53 1139.27L1360.41 1081.64L1360.53 1080.91L1360.28 1079.3L1359.76 1075.86L1323.34 968.799L1253.97 937.813C1253.63 937.661 1253.37 937.371 1253.23 937.007C1253.1 936.642 1253.1 936.234 1253.25 935.87C1253.4 935.507 1253.68 935.219 1254.03 935.069C1254.37 934.919 1254.76 934.921 1255.1 935.072L1323.33 965.658L1333.36 900.839C1333.35 900.69 1333.37 900.54 1333.43 900.401L1270.3 896.839C1270.19 896.994 1270.03 897.116 1269.86 897.193C1269.69 897.271 1269.5 897.303 1269.32 897.285L1268.77 897.2C1268.61 897.209 1268.44 897.184 1268.29 897.126V897.126C1268 897.005 1267.75 896.782 1267.6 896.494C1267.44 896.205 1267.39 895.868 1267.44 895.537C1267.49 895.206 1267.65 894.901 1267.88 894.673C1268.11 894.444 1268.41 894.305 1268.73 894.279L1201.8 781.154L1200.4 778.323L1153.95 739.746L1173.88 809.273L1173.67 810.587L1174.21 812.539L1178.31 858.84L1212.91 853.504L1246.4 886.265C1246.66 886.519 1246.82 886.873 1246.84 887.252C1246.86 887.631 1246.74 888.006 1246.51 888.3C1246.36 888.481 1246.17 888.621 1245.96 888.706C1245.75 888.791 1245.52 888.819 1245.3 888.786C1245.02 888.81 1244.74 888.767 1244.48 888.659L1211.91 856.788L1175.87 862.349L1171.44 812.709L1094.37 823.806L1056.29 800.276C1056.13 800.462 1055.94 800.611 1055.73 800.712L949.076 841.092L938.816 861.927C938.687 862.19 938.484 862.404 938.236 862.54C937.988 862.676 937.707 862.727 937.433 862.685L936.952 862.61C936.783 862.534 936.632 862.421 936.508 862.278C936.384 862.135 936.29 861.965 936.233 861.78C936.175 861.595 936.155 861.399 936.173 861.204C936.192 861.009 936.249 860.819 936.341 860.647L946.6 839.812L946.69 839.228L947.171 839.302L1050.32 799.278L914.446 767.944L913.965 767.869L871.467 757.408L861.169 776.22L832.446 825.441L833.184 827.498L832.222 827.35L836.963 924.051L861.385 983.587L861.8 984.548C861.853 984.896 861.798 985.255 861.642 985.57L861.609 1002.61L828.602 1029.04L828.003 1080.67L739.143 1072.9L738.387 1072.79L729.118 1053.56L729.585 1052.81L748.794 1019.61L754.711 981.36L748.1 867.179L707.974 756.333C707.763 756.144 707.603 755.899 707.511 755.623C707.418 755.346 707.395 755.047 707.444 754.756L706.65 752.615L561.457 582.763L560.76 583.627L560.873 582.897L552.152 589.695L549.691 611.064L550.241 617.054L554.653 645.39L545.08 681.804L504.843 705.849L504.499 705.796L416.082 701.984L415.714 701.18L401.401 662.716L403.895 640.679L339.626 536.263L277.5 523.962L277.156 523.46C270.652 512.667 266.512 500.438 265.035 487.652C264.407 472.607 267.028 429.288 267.309 421.559L255.429 418.301C255.429 418.301 255.429 418.301 254.948 418.226L254.536 418.163L217.466 408.093L70.2157 400.262L36.9753 382.264L0.357229 225.546L9.13768 241.105ZM58.4397 354.492L24.1742 280.354L64.6552 375.26L129.245 357.074L58.4397 354.492ZM195.752 346.51L139 357.238L69.0437 376.911L100.493 387.381L139.742 377.458L239.69 329.016L195.752 346.51ZM144.838 378.172L205.574 388.539L220.576 385.255L264.892 319.835L144.838 378.172ZM225.176 383.724L270.256 365.211L303.368 355.385L270.086 318.097L225.176 383.724ZM306.321 354.945L322.655 358.518L299.344 320.904L272.913 317.563L306.321 354.945ZM290.583 308.861L275.552 315.056L298.73 317.595L297.888 298.481L291.039 308.184L290.583 308.861ZM405.96 306.679L394.058 292.655L350.74 327.061L405.96 306.679ZM363.113 325.762L394.421 318.048L447.431 318.775L425.978 309.178L408.54 308.648L363.113 325.762ZM752.863 1016.5L784.222 973.892L783.741 973.818L785.146 972.466L765.373 902.886L758.387 981.705L752.863 1016.5ZM787.062 968.726L828.618 828.81L766.216 895.618L787.062 968.726ZM787.809 975.718L784.292 1022.56L855.86 985.647L788.139 974.498L787.809 975.718ZM879.211 -24.4627L878.524 -24.569L813.719 21.3872L859.69 28.4989L879.211 -24.4627ZM863.679 25.4537L901.837 -6.9858L882.108 -24.5378L863.679 25.4537ZM592.349 200.23L588.813 254.469L657.08 237.076L592.349 200.23ZM654.516 232.27L631.205 205.12L597.26 199.869L654.516 232.27ZM632.619 202.349L661.394 236.025L680.387 230.592L677.481 193.893L677.397 192.161L677.51 191.431L677.657 190.482L696.262 111.144L581.882 92.3284L561.149 167.675L591.973 195.837L632.619 202.349ZM851.965 398.172L864.775 402.695L877.195 342.88L883.274 279.019L847.031 360.935L850.36 397.177L853.268 397.029L851.965 398.172ZM859.547 655.261L905.451 657.803L819.336 595.451L799.81 614.329L859.547 655.261ZM803.521 620.36L824.352 649.443C824.564 649.481 824.764 649.568 824.938 649.699C825.113 649.829 825.257 649.999 825.361 650.197L826.155 651.889L826.431 652.38L853.512 654.701L803.521 620.36ZM817.146 593.692L746.071 588.302L797.311 612.747L817.146 593.692ZM822.601 591.172L1008.05 537.645L933.09 471.861L906.687 471.065L805.013 547.044L804.669 546.991L734.624 541.313L741.483 584.304L740.166 584.623L822.601 591.172ZM701.097 187.232L682.033 191.757L720.234 221.808L770.083 232.958L704.933 187.451L700.479 187.584L701.097 187.232ZM703.185 183.743L697.954 115.218L680.642 189.374L703.185 183.743ZM680.424 194.423L683.249 230.287L777.703 241.012L775.92 237.523L719.278 224.799L680.424 194.423ZM777.483 234.7L782.628 242.372L782.357 244.124L753.599 345.883L822.304 271.531L860.135 241.208L878.185 180.021L709.488 186.661L777.483 234.7ZM829.183 339.862L829.081 340.519L845.17 357.957L883.692 270.862L861.242 244.967L825.332 273.793L828.855 336.523C829.1 336.685 829.29 336.925 829.397 337.21C829.505 337.495 829.525 337.81 829.454 338.11L829.183 339.862ZM822.807 276.467L753.839 351.152L754.526 351.259L816.44 382.213L826.503 339.448L822.807 276.467ZM863.218 242.657L885.874 268.584L902.255 256.842L880.529 183.972L863.218 242.657ZM908.227 468.389L932.306 469.199L934.909 406.893C923.034 432.71 910.604 460.759 908.33 468.18L908.227 468.389ZM936.63 398.041L1000.06 324.591L892.362 336.257L936.63 398.041ZM914.936 372.262L914.808 387.191L913.605 413.613L934.756 399.694L914.936 372.262ZM1000.22 321.253L958.03 271.076L904.607 259.374L891.302 333.104L1000.22 321.253ZM912.066 368.529L889.271 336.676L880.367 343.296L911.881 383.823L912.009 368.894L912.066 368.529ZM888.545 334.097L901.624 261.379L886.66 272.144L880.144 340.645L888.545 334.097ZM904.75 256.631L954.977 267.614L883.279 185.294L904.75 256.631ZM959.673 268.64L1002.16 318.713L1003.36 249.612L886.872 184.355L959.673 268.64ZM1004.59 322.152L1017.16 343.679L1005.53 265.569L1004.59 322.152ZM1005.08 328.507L1010.87 401.603L1018.68 355.201L1018.03 350.766L1005.08 328.507ZM1002.12 326.256L938.454 399.892C938.458 400.091 938.427 400.289 938.364 400.476L989.956 481.779L1008.77 412.489L1002.12 326.256ZM989.346 485.721L937.674 404.481L934.998 469.989L1009.35 535.155L989.346 485.721ZM932.625 404.372L912.572 417.564L894.264 433.118C896.185 437.526 903.663 454.229 906.671 463.439C911.921 450.424 926.085 419.355 932.625 404.372ZM910.439 415.888L911.708 388.58L879.011 346.151L867.022 404.089L892.701 430.484L910.439 415.888ZM844.056 361.521L828.023 343.719L818.549 383.586L847.153 396.531L844.056 361.521ZM815.324 385.329L753.125 354.405L751.819 354.203L658.632 405.336L842.759 397.645L815.324 385.329ZM778.998 247.192L681.793 304.281L750.525 348.921L778.998 247.192ZM778.328 244.248L682.981 233.385L681.581 301.108L778.328 244.248ZM680.257 233.711L664.433 238.214L662.235 238.771L678.878 295.384L680.257 233.711ZM589.26 201.098L505.202 244.151L585.734 254.815L589.26 201.098ZM575.921 259.575L434.55 281.055L473.89 302.837L575.921 259.575ZM476.619 304.754L510.397 327.917L580.857 260.414L476.619 304.754ZM576.91 256.365L501.063 246.35L435.281 258.596L385.513 280.121L430.321 278.832L576.91 256.365ZM379.203 279.519L434.095 255.797L489.886 245.369L380.873 235.979L379.203 279.519ZM378.058 236.889L321.92 266.846L376.193 279.876L378.058 236.889ZM321.373 294.939L393.444 289.346L377.574 283.228L321.373 294.939ZM496.029 242.956L446.683 204.902L446.064 204.806L385.355 233.383L496.029 242.956ZM500.998 243.126L587.434 198.797L451.148 204.696L500.998 243.126ZM587.668 195.919L559.345 169.787L456.419 201.55L587.668 195.919ZM578.734 92.6636L487.671 109.594L559.027 165.478L578.734 92.6636ZM582.711 89.2427L697.892 107.435C698.116 107.198 698.413 107.058 698.727 107.041C699.019 107.019 699.309 107.101 699.55 107.274C699.79 107.446 699.969 107.699 700.057 107.994V107.994L705.724 182.79L853.913 57.2029L814.273 45.0915C814.085 45.1374 813.889 45.1071 813.724 45.0064C813.553 44.8174 813.42 44.5936 813.333 44.348V44.348L852.91 32.7567L809 25.9639L679.383 40.1441L677.952 40.2965C677.694 40.3606 677.424 40.3188 677.197 40.1795V40.1795L542.135 51.3499L582.711 89.2427ZM855.441 54.5992L858.908 32.1898L819.56 43.667L855.441 54.5992ZM869.784 -21.2871L692.632 35.9154L809.723 21.2923L869.784 -21.2871ZM875.681 -26.2047L786.641 -37.8116L685.12 35.3512L875.681 -26.2047ZM855.533 59.92L708.477 185.01L878.387 178.259L877.107 173.801L877.876 174.742L855.533 59.92ZM880.366 172.287L887.371 134.281L860.328 69.8551L880.366 172.287ZM889.898 132.504L950.991 170.581L861.198 64.2345L889.898 132.504ZM889.802 135.852L882.072 177.633L953.142 175.323L889.802 135.852ZM885.65 180.429L1000.21 244.491L957.224 178.048L885.65 180.429ZM1004.03 245.232L1012.51 215.451L962.99 181.705L1004.03 245.232ZM1013.33 212.438L1017.4 195.205L966.273 180.494L1013.33 212.438ZM1013.99 220.463L1005.9 248.659L1020.07 343.531L1027.04 282.052L1013.99 220.463ZM1011.72 412.946L992.432 483.508L1035.07 478.07L1019.85 364.5L1011.72 412.946ZM992.542 486.44L1011.74 534.255L1034 481.343L992.542 486.44ZM1010.54 541.544C1010.54 541.544 1010.54 541.544 1010.13 541.48C1009.84 541.299 1009.61 541.029 1009.48 540.706L824.941 593.328L1036.65 644.765L1011.38 541.15C1011.13 541.264 1010.85 541.299 1010.59 541.252L1010.54 541.544ZM826.049 597.087L910.466 658.131L1035.24 647.536L826.049 597.087ZM909.787 661.613L877.26 677.21L947.291 718.912L909.787 661.613ZM904.633 660.816L862.142 658.503L874.588 675.376L904.633 660.816ZM858.168 658.262L827.754 655.649L855.513 717.271L872.406 677.206L858.168 658.262ZM855.562 724.229L854.987 722.944L832.605 739.363L868.308 752.361L855.517 724.521L855.562 724.229ZM853.779 720.291L823.881 653.854L798.985 619.209L801.866 734.757L828.286 738.172L829.523 738.363L853.779 720.291ZM828.178 741.145L801.838 737.668L829.471 815.563L828.178 741.145ZM799.725 739.957L774.929 805.183L828.649 821.789L799.725 739.957ZM796.012 615.685L740.715 589.267L798.845 730.179L796.012 615.685ZM737.635 589.165L708.599 604.479L708.161 635.056L795.006 728.165L737.635 589.165ZM738.459 583.836L731.344 538.862L803.828 544.694L905.183 468.964C905.183 468.964 905.273 468.38 905.33 468.015C901.375 456.301 896.806 444.839 891.644 433.684L864.988 405.867L849.245 400.293L684.983 536.548L738.459 583.836ZM844.883 400.291L654.184 408.161L683.603 534.092L844.883 400.291ZM749.914 351.965L681.812 307.348L681.687 313.158L680.026 307.52L654.416 404.385L749.914 351.965ZM678.561 302.435L660.419 240.508L562.031 359.823L678.391 303.082L678.561 302.435ZM657.189 240.008L588.442 257.775L559.852 357.991L657.189 240.008ZM584.671 260.779L512.713 329.771L556.104 361.297L584.671 260.779ZM512.343 333.077L527.755 440.847L555.229 364.226L512.343 333.077ZM510.762 343.296L504.093 447.351L511.229 454.435L507.765 467.277L515.359 463.669L525.592 446.193L510.762 343.296ZM514.84 467.026L507.748 470.115L513.118 534.102L514.84 467.026ZM515.278 559.251L509.986 605.744L529.943 601.357L541.826 611.417L548.682 589.382L517.519 472.449L515.278 559.251ZM529.332 604.85L506.983 609.689L512.748 559.233L505.443 473.645L455.045 617.499L481.952 629.136L537.057 640.426L541.066 614.513L529.332 604.85ZM480.115 631.916L455.2 620.588L465.512 677.641L480.238 673.417L480.115 631.916ZM482.872 673.675L485.76 675.019L493.681 658.381L482.953 636.765L482.872 673.675ZM451.773 618.638L433.428 563.48L434.455 657.814L462.157 677.048L451.773 618.638ZM453.137 613.916L499.348 482.119L483.296 508.561L471.752 512.232L471.747 520.901L462.736 530.942L453.861 519.18L436.063 521.883L433.591 554.238L453.137 613.916ZM454.85 515.97L462.715 526.529L468.929 520.017L469.023 510.315L481.528 506.345L503.535 470.061L507.992 455.802L502.623 450.487L473.472 481.555L452.149 479.302L448.073 505.654L421.784 499.569L448.568 517.465L454.85 515.97ZM451.833 475.89L472.594 478.13L500.477 448.436L432.498 413.031L429.416 443.871L451.833 475.89ZM432.869 409.725L501.468 445.674L508.735 332.294L436.799 368.403L432.685 409.547L432.869 409.725ZM473.572 346.736L506.521 330.233L474.315 319.645L473.572 346.736ZM501.553 325.503L473.163 305.714L429.869 281.751L385.21 282.99L472.603 316.615C472.774 316.467 472.977 316.366 473.193 316.321C473.409 316.276 473.63 316.289 473.838 316.357L501.553 325.503ZM390.062 292.56L302.103 299.432L342.264 330.459L390.062 292.56ZM371.273 281.656L318.616 269.1L299.006 296.71L371.273 281.656ZM307.873 251.219L293.289 300.012L317.144 266.331L378.486 233.666L378.622 232.79L412.769 97.1099L307.873 251.219ZM381.78 231.934L443.096 203.076L409.186 172.12L425.375 129.779L416.05 95.0016L381.78 231.934ZM444.567 200.389L426.633 134.383L412.482 171.284L444.567 200.389ZM418.253 91.6799L427.129 125.267L437.751 97.5365L418.253 91.6799ZM447.242 81.2161L441.617 95.7428L480.293 107.257L447.242 81.2161ZM482.189 110.465L482.133 110.83L440.913 98.4741L429.005 129.967L448.163 201.244L557.233 167.517L484.479 110.221L482.189 110.465ZM485.548 106.949L579.071 89.5765L538.094 51.5469L485.548 106.949ZM544.847 45.6407L541.762 48.3025L677.178 37.1123L707.514 -17.9881L544.847 45.6407ZM711.53 -19.385L682.186 33.851L785.181 -40.6534L817.261 -77.9198L711.53 -19.385ZM822.763 -80.2825L788.913 -40.6739L877.758 -29.172L822.99 -80.8452L822.763 -80.2825ZM826.183 -81.4724L882.627 -27.8956C882.798 -27.6961 882.907 -27.4445 882.938 -27.1749L903.424 -9.05727L938.46 -88.1702L826.183 -81.4724ZM939.478 -83.3788L905.718 -7.05807L906.268 -6.97304L861.905 31.0091L858.043 55.9733L956.296 172.672L939.478 -83.3788ZM1012.22 155.912L942.799 -77.5583L959.497 175.634L1017.67 192.107L1012.22 155.912ZM1015.32 158.185L1020.26 193.106L1151.13 233.157L1015.32 158.185ZM1160.01 238.942L1021.69 196.615L1039.12 233.544L1038.28 295.824L1160.01 238.942ZM1035.35 297.015L1036.34 234.235L1019.43 198.434L1015.73 214.229L1015.62 214.886L1029.78 281.653L1038.65 315.313L1035.35 297.015ZM1044.57 348.891L1028.89 289.214L1021.51 354.667L1021.41 355.324L1036.38 466.838L1044.57 348.891ZM1037.63 481.53L1037.08 481.445L1014.15 535.973L1082.47 521.877L1037.63 481.53ZM1013.64 539.257L1038.89 642.121L1084.19 524.834L1013.64 539.257ZM1087.97 525.419L1114.88 597.522L1271.08 527.062L1087.97 525.419ZM1254.22 440.894L1221.98 436.43L1273.97 517.493L1254.22 440.894ZM1284.73 445.165L1257.18 441.351L1277.07 517.899L1284.73 445.165ZM1395.96 593.094L1386.66 629.55L1404.6 731.881L1395.96 593.094ZM1408.77 754.949L1449.58 620.749L1449.7 620.019L1398.43 583.91L1398.36 584.348L1408.77 754.949ZM1395.67 584.455L1395.44 580.981L1393.64 565.754L1388.92 611.289L1395.67 584.455ZM1398.21 580.363L1449.59 616.638L1445.78 559.843L1413.68 539.929L1395.53 550.351L1395.18 552.614L1398.21 580.363ZM1410.94 538.085L1330.55 487.83L1393.52 548.321L1410.94 538.085ZM1392.24 552.981L1392.4 551.959L1282.47 528.451L1384.12 626.392L1384.6 626.018L1392.24 552.981ZM1389.51 548.372L1319.6 481.278L1280.32 525.055L1389.51 548.372ZM1317.66 479.259L1287.42 447.374L1279.45 521.63L1317.66 479.259ZM1383.61 458.667L1290.06 446.213L1320.32 478.025L1413.9 536.226C1414.17 536.201 1414.44 536.256 1414.68 536.386C1414.92 536.515 1415.13 536.714 1415.26 536.96L1446.95 556.811C1447.24 556.793 1447.52 556.868 1447.76 557.025C1448 557.183 1448.18 557.415 1448.29 557.691L1473.38 573.381L1383.61 458.667ZM1441.57 473.315L1441.09 473.24L1438 472.762L1397.92 462.151L1440.32 488.219L1534.34 455.826L1441.57 473.315ZM1579.42 589.71L1586.73 689.351L1586.08 739.029L1587.17 739.72L1604.6 556.983L1555.23 457.711L1579.42 589.71ZM1528.48 518.748L1575.59 584.41L1551.8 456.21L1526.98 518.89L1528.48 518.748ZM1523.9 519.235L1549.98 453.461L1442.95 490.344C1443.03 490.716 1442.97 491.109 1442.78 491.439C1442.66 491.633 1442.5 491.794 1442.31 491.908C1442.12 492.022 1441.91 492.086 1441.69 492.093L1463.7 525.843L1523.9 519.235ZM1462.62 529.189L1436.56 489.356L1388 459.421L1476.48 572.889L1462.62 529.189ZM1477.24 579.359L1448.43 561.374L1452.13 616.134L1477.24 579.359ZM1469.16 631.55L1451.74 624.072L1411.63 755.99L1439.67 726.245L1473.29 666.271L1469.16 631.55ZM1411.3 760.423L1481.44 777.327L1440.69 729.169L1411.3 760.423ZM1473.85 671.291L1442.54 727.213L1483.58 775.79L1473.85 671.291ZM1586.01 1214.75L1585.84 1215.84L1602.52 1204.9L1586.01 1214.75ZM1605.34 1199.88L1591.39 1174.1L1586.51 1211.09L1605.34 1199.88ZM1592.02 1169.11L1607.78 1198.23L1623.3 1188.83L1617.88 1166.61L1585.69 1162.23L1592.02 1169.11ZM1652.78 1171.56L1620.95 1167.24L1625.89 1187.58L1652.78 1171.56ZM1624.51 1193.8L1610.25 1203.18L1640.38 1259.04L1624.51 1193.8ZM1607.91 1204.68L1585.46 1219.22L1585 1222.22L1640.08 1264.15L1607.91 1204.68ZM1639.73 1267.76L1583.95 1225.34L1562.06 1266.8L1639.73 1267.76ZM1582.36 1221.51L1572.57 1227.99L1582.29 1222.02L1582.36 1221.51ZM1522.93 1252.3L1541.69 1256.55L1549.63 1243.43L1551.08 1239.54L1551.16 1239.03L1552.69 1235.01L1522.93 1252.3ZM1544.25 1257.77L1559.14 1266.57L1580.05 1226.91L1553.44 1242.45L1544.25 1257.77ZM1555.3 1235.93L1582.87 1217.78L1583.07 1216.46L1556.79 1232.2L1555.3 1235.93ZM1558.12 1227.7L1583.32 1212.61L1588.94 1169.91L1582.3 1162.83L1558.12 1227.7ZM1583.51 1159.05L1614.67 1163.2L1588.93 1139.94L1583.51 1159.05ZM1580.04 1070.1L1580.56 1071.22L1589.52 1136.59L1618.52 1162.9L1633.79 1136.04L1572.38 1024.52L1580.26 1069.09C1580.36 1069.42 1580.35 1069.79 1580.24 1070.13L1580.04 1070.1ZM1561.94 1023.35L1575.57 1058.49L1568.27 1017L1567.98 1016.58L1612.73 913.787L1538.58 911.883L1561.31 992.383C1561.37 992.681 1561.32 992.992 1561.17 993.259L1561.94 1023.35ZM1537.01 916.573L1535.5 926.355L1551.36 966.179L1537.01 916.573ZM1517.22 974.051L1559.34 1020.11L1558.93 993.211L1534.11 930.325L1517.22 974.051ZM1533.29 921.977L1535.03 910.736L1513.52 879.23L1533.29 921.977ZM1511.34 871.942L1537.42 908.938L1610.87 910.808L1487.98 784.618L1511.34 871.942ZM1508.1 870.618L1484.43 782.125L1405.04 840.474C1404.92 840.784 1404.71 841.042 1404.43 841.203L1508.1 870.618ZM1403.63 838.238L1481.87 780.459L1409.7 763.016L1403.63 838.238ZM1407.03 761.632C1406.73 761.369 1406.54 760.991 1406.49 760.576L1406.31 756.737L1388.94 657.557L1401.98 827.07L1407.03 761.632ZM1400.09 839.26L1384.38 631.964L1270.51 771.306L1400.09 839.26ZM1380.29 632.526L1205.19 775.103L1267.19 770.493C1267.44 770.124 1267.81 769.862 1268.22 769.755L1380.29 632.526ZM1421.64 1229.38L1408.75 1167.6L1334.78 1228.2L1421.64 1229.38ZM1313.66 1210.14L1330.12 1226.51L1355.32 1148.19L1313.66 1210.14ZM1360.94 1140.09L1333.65 1225.56L1408.1 1164.51L1362.63 1085.49L1360.94 1140.09ZM1409.02 1160.84L1415.11 1128.29L1436.26 1101.67L1362.84 1080.52L1409.02 1160.84ZM1361.53 1074.41L1403.23 990.426L1337.81 904.368L1361.53 1074.41ZM1324.95 967.03L1356.83 1060.68L1335.13 903.953L1324.95 967.03ZM1334.99 897.13L1397.01 843.268L1274.1 893.689L1334.99 897.13ZM1270.92 891.927L1396.1 840.511L1269.43 774.203L1270.92 891.927ZM1268.11 888.727L1266.68 773.778L1203.2 778.456L1268.11 888.727ZM1381.71 627.887L1280.27 529.978L1281.18 533.632L1278.13 528.752L1203.5 772.897L1381.71 627.887ZM1200.55 773.264L1275.36 528.473L1116.01 600.238L1200.55 773.264ZM1196.65 771.688L1119.26 613.371L1152.43 735.475L1153.12 735.581L1196.65 771.688ZM1094.49 820.312L1160.7 810.748L1061.16 799.685L1094.49 820.312ZM1170.28 808.866L1150.55 739.893L1059.4 796.498L1170.28 808.866ZM1054.86 795.869L1149.52 737.041C1149.46 736.744 1149.51 736.432 1149.65 736.166L1112.71 600.176L1085.8 528.073L1039.91 646.913L1040.38 648.855L1038.8 648.61L1036.77 650.837L914.182 660.948L915.008 661.524L912.946 661.205L952.657 722.881L952.165 744.256L1054.86 795.869ZM1043.43 793.353L951.14 746.788L918.754 764.201L1043.43 793.353ZM914.356 763.52L949.566 744.228L950.018 725.388L875.787 754.041L914.356 763.52ZM948.204 723.014L874.619 678.819L856.985 720.488L871.64 752.652L948.204 723.014ZM868.932 755.148L835.59 743.263L861.133 770.086L868.932 755.148ZM859.192 772.625L830.746 742.738L832.432 818.712L859.192 772.625ZM829.589 832.996L789.68 967.262L834.283 923.637L829.589 832.996ZM834.691 926.914L789.129 971.736L857.743 983.024L834.691 926.914ZM858.355 1001.36L858.455 989.337L834.834 1020.14L858.355 1001.36ZM855.637 988.453L786.848 1023.78L825.838 1026.89L855.637 988.453ZM825.386 1029.81L785.148 1026.58L824.96 1076.69L825.386 1029.81ZM781.657 1026.86L755.081 1047.19L755.056 1056.9L820.722 1075.88L781.657 1026.86ZM739.8 1070.01L811.518 1076.25L753.345 1059.78L732.832 1055.93L739.8 1070.01ZM749.697 1024.23C749.599 1024.38 749.472 1024.49 749.325 1024.57C749.178 1024.65 749.015 1024.7 748.851 1024.7L732.573 1052.6L752.33 1056.33L752.354 1045.72L780.37 1024.72L781.285 1024.26L784.825 977.723L749.697 1024.23ZM765.566 891.182L827.888 824.437L773.824 807.777L765.566 891.182ZM756.469 962.722L762.449 895.408L751.285 873.426L756.469 962.722ZM750.835 866.331L763.526 890.268L771.773 806.937L771.43 806.883L771.509 806.372L712.699 759.904L750.835 866.331ZM772.362 803.589L797.339 737.645L712.151 755.26L772.362 803.589ZM710.025 751.717L710.532 752.991L797.779 734.798L708.582 639.157L710.025 751.717ZM564.567 575.845L564.598 579.288L564.349 580.894L707.051 747.744L705.574 635.403L705.983 601.832L736.665 585.427L682.398 537.792L681.598 538.416L650.977 407.515L650.702 407.473C650.523 407.435 650.353 407.361 650.203 407.253C650.052 407.146 649.923 407.008 649.824 406.847C649.725 406.685 649.657 406.505 649.624 406.314C649.592 406.124 649.595 405.928 649.634 405.738C649.673 405.495 649.775 405.267 649.928 405.08C650.081 404.892 650.28 404.753 650.502 404.676L650.603 404.019L651.497 404.157L677.435 306.073L558.308 363.881L564.567 575.845ZM555.873 370.978L528.764 446.609L561.722 573.312L555.873 370.978ZM560.672 580.1L526.687 450.024L518.086 464.689C518.351 464.882 518.532 465.178 518.592 465.514L550.909 586.812L560.672 580.1ZM551.791 645.247L547.437 617.442L546.852 611.223L547.784 602.921L544.145 614.616L539.888 642.135L548.974 655.723L551.791 645.247ZM540.384 681.227L510.849 672.024L506.231 701.879L540.384 681.227ZM510.385 669.112L542.865 679.293L548.009 659.685L537.465 644.152L484.273 633.232L496.69 657.576L510.385 669.112ZM502.902 703.382L507.905 671.045L495.759 660.87L487.871 677.289L495.288 703.026L502.902 703.382ZM492.769 702.935L485.606 678.284L481.722 676.561L464.994 681.448L423.268 700.106L492.769 702.935ZM404.137 662.765L417.725 699.099L461.485 679.111L432.615 659.697L406.373 642.856L404.137 662.765ZM267.771 487.702C269.187 499.761 273.068 511.302 279.144 521.525L337.512 533.096L269.733 425.446C269.106 437.682 267.49 474.055 267.771 487.702ZM270.155 419.532L270.053 420.189L341.338 533.837L341.27 534.275L405.93 639.35L429.685 654.535L335.18 449.024C335.077 448.877 335.003 448.708 334.963 448.529C334.923 448.349 334.917 448.162 334.945 447.979C334.973 447.796 335.036 447.62 335.128 447.461C335.221 447.302 335.342 447.164 335.484 447.054C335.783 446.826 336.151 446.729 336.511 446.785C336.871 446.841 337.193 447.044 337.408 447.351L431.821 652.1L430.902 554.793C430.9 554.57 430.934 554.348 431.003 554.136L433.417 521.25L433.677 519.571L444.561 517.891L407.127 492.892L446.107 501.986L449.834 477.898L427.187 445.544L426.613 444.708L429.92 411.959L338.684 406.814L336.895 405.641C336.885 405.492 336.908 405.342 336.963 405.203V405.203L399.969 358.594L437.505 367.017L471.128 349.796L471.925 320.994L396.22 291.868L408.938 307.439L426.582 308.001L461.535 323.573L394.786 322.514L342.057 335.435L300.635 303.465L301.37 320.545L325.623 359.799C325.785 360.059 325.849 360.375 325.801 360.686C325.753 360.997 325.596 361.28 325.363 361.478C325.395 361.6 325.401 361.729 325.382 361.855C325.362 361.981 325.317 362.101 325.25 362.208C325.196 362.557 325.014 362.871 324.744 363.081C324.474 363.292 324.138 363.381 323.81 363.331V363.331L305.357 359.355L271.833 369.117L257.283 417.691L270.155 419.532ZM343.36 403.875L430.119 408.851L434.2 368.374L343.36 403.875ZM430.99 366.383L400.384 359.555L345.847 399.626L430.99 366.383ZM268.798 368.722L222.185 388.045L209.735 390.753L254.404 415.377L268.798 368.722ZM71.2756 397.959L217.838 405.684L243.086 412.579L205.008 391.741L140.172 380.589L100.26 390.709L66.1407 379.302L71.2756 397.959ZM38.7581 380.746L67.7804 396.447L62.5308 377.622L8.30885 249.647L38.7581 380.746Z" fill="url(#paint3_radial_1345_4753)" stroke="url(#paint4_radial_1345_4753)"/>
</g>
<defs>
<filter id="filter0_f_1345_4753" x="238" y="-158" width="1372" height="1372" filterUnits="userSpaceOnUse" color-interpolation-filters="sRGB">
<feFlood flood-opacity="0" result="BackgroundImageFix"/>
<feBlend mode="normal" in="SourceGraphic" in2="BackgroundImageFix" result="shape"/>
<feGaussianBlur stdDeviation="125" result="effect1_foregroundBlur_1345_4753"/>
</filter>
<radialGradient id="paint0_radial_1345_4753" cx="0" cy="0" r="1" gradientUnits="userSpaceOnUse" gradientTransform="translate(1617.04 811.88) rotate(-155.477) scale(949.592 679.464)">
<stop stop-color="#C6B38A"/>
<stop offset="0.463601" stop-color="#F3C691"/>
<stop offset="1" stop-color="#B4703E"/>
</radialGradient>
<radialGradient id="paint1_radial_1345_4753" cx="0" cy="0" r="1" gradientUnits="userSpaceOnUse" gradientTransform="translate(-557.77 717.82) rotate(-8.86668) scale(1809.61 991.235)">
<stop stop-color="#C6B38A"/>
<stop offset="0.463601" stop-color="#F3C691"/>
<stop offset="1" stop-color="#B4703E"/>
</radialGradient>
<radialGradient id="paint2_radial_1345_4753" cx="0" cy="0" r="1" gradientUnits="userSpaceOnUse" gradientTransform="translate(-607.994 713.902) rotate(-8.92167) scale(1857.82 1020.4)">
<stop stop-color="#C6B38A"/>
<stop offset="0.463601" stop-color="#F3C691"/>
<stop offset="1" stop-color="#B4703E"/>
</radialGradient>
<radialGradient id="paint3_radial_1345_4753" cx="0" cy="0" r="1" gradientUnits="userSpaceOnUse" gradientTransform="translate(-607.994 713.902) rotate(-8.92167) scale(1857.82 1020.4)">
<stop stop-color="#C6B38A"/>
<stop offset="0.463601" stop-color="#F3C691"/>
<stop offset="1" stop-color="#B4703E"/>
</radialGradient>
<radialGradient id="paint4_radial_1345_4753" cx="0" cy="0" r="1" gradientUnits="userSpaceOnUse" gradientTransform="translate(-607.994 713.902) rotate(-8.92167) scale(1857.82 1020.4)">
<stop stop-color="#C6B38A"/>
<stop offset="0.463601" stop-color="#F3C691"/>
<stop offset="1" stop-color="#B4703E"/>
</radialGradient>
<clipPath id="clip0_1345_4753">
<rect width="908" height="800" fill="white"/>
</clipPath>
</defs>
</svg>
