<svg width="335" height="80" viewBox="0 0 335 80" fill="none" xmlns="http://www.w3.org/2000/svg">
<g opacity="0.4" filter="url(#filter0_f_202_3415)">
<circle cx="341.596" cy="-10.4194" r="91.5806" fill="url(#paint0_radial_202_3415)"/>
</g>
<g opacity="0.15">
<path d="M175.11 17.1825L181.14 24.9956L197.04 21.9115L207.811 14.7153L211.963 13.6872L212.534 4.79477L233.196 -17.8219L233.632 -18.4696C233.655 -18.507 233.69 -18.5346 233.731 -18.5477C233.771 -18.5608 233.815 -18.5586 233.854 -18.5415L233.97 -18.6752L240.658 -24.1957L240.745 -24.4733L240.793 -24.4116L245.903 -33.191H245.971L266.942 -42.4432V-42.5049H267.194L267.475 -42.6283L276.504 -52.189L291.988 -46.7301L308.537 -21.9957L309.021 -21.2658L330.428 1.11441L353.926 5.13401L368.81 11.6414L391.262 9.85268L400.408 27.5348C400.412 27.5551 400.412 27.5762 400.408 27.5965L406.553 51.344V51.4057L403.572 60.8841L396.991 49.9356L399.604 43.7674L394.862 22.3227L385.446 15.1265L377.326 18.7965L384.294 33.96L385.881 55.415L398.811 66.528L398.859 66.4046V66.6L399.043 66.7542L402.053 78.9877L401.937 84.9914L413.105 96.5979L412.689 103.794V103.866L417.344 115.956L408.856 115.565L401.937 116.86L401.598 108.502L403.534 98.4175L392.772 82.4316V82.4933L392.607 82.1644L378.159 71.2981L376.572 78.0317L382.049 93.2568L385.262 97.9549L382.639 108.112L386.733 114.702L381.362 116.542H381.13L372.42 116.182L373.329 111.042L377.607 102.931L371.713 89.3914L368.713 80.5298L353.945 74.8036L347.422 69.6635H347.345H347.287L343.338 62.3234L335.044 66.4355L326.973 63.4234L325.328 66.1168H313.628L312.902 66.3327L306.263 71.5756L301.705 69.4168L301.134 65.1196H301.085V65.0579L299.372 64.1841L299.314 64.4103L299.217 64.2355L296.779 67.0626L298.434 75.2868L299.024 86.5952L304.443 93.9353L300.263 100.422L301.753 106.724L291.862 108.482H291.804H291.756L288.436 106.981L290.585 102.201L288.378 83.9325L281.73 67.556L265.152 53.8524L256.026 44.8263L253.268 45.0833V45.145H253.142L252.658 46.944H252.793L252.648 47.0879L255.348 54.5823L251.951 61.8607L239.303 64.4617L235.122 60.2467L235.296 57.9439L224.651 42.5235L224.593 42.4412L216.183 43.2431H216.095L212.341 39.131L211.953 29.5703L201.889 27.3806L185.862 30.2385L178.856 28.8096L178.575 28.861C178.529 28.868 178.482 28.8573 178.443 28.8309C178.404 28.8045 178.375 28.7641 178.362 28.717H178.304L175.11 17.1825ZM192.675 25.8077L196.256 22.5077L179.804 27.9769L192.675 25.8077ZM224.302 41.7525L217.837 32.0684L216.357 42.4927L224.302 41.7525ZM300.04 101.111L299.885 100.474L300.04 101.111ZM299.537 100.803L292.356 107.649L301.182 106.087L299.537 100.803ZM299.788 99.9184L298.579 86.4512L292.327 76.4382L299.672 99.9493L299.788 99.9184ZM292.153 77.1476L291.02 101.132L299.285 99.9904L292.153 77.1476ZM291.988 75.1532L296.179 66.9289L282.94 67.2785L291.988 75.1532ZM296.227 66.528L293.701 54.4692L282.339 66.8056L282.456 66.8981L296.227 66.528ZM305.014 39.6142L294.05 54.1916V54.2739L299.13 63.1252L305.014 39.6142ZM301.927 68.7794L311.924 65.9215L301.55 64.8934H301.424L301.927 68.7794ZM377.83 103.218L373.049 115.349L382.107 108.05L377.83 103.218ZM381.014 116.1L382.194 108.482L373.136 115.781L381.014 116.1ZM381.652 93.483L369.691 81.4858L382.214 107.187L381.652 93.483ZM412.553 104.329L407.182 111.761L416.86 115.493L412.553 104.329ZM406.96 111.402L412.282 104.051L404.124 98.9109L406.96 111.402ZM412.127 103.486L402.198 86.0606L404.008 98.3044L412.127 103.486ZM377.094 18.4265L384.836 14.9517L369.352 12.1555L377.094 18.4265ZM395.201 22.076L399.45 26.5171L391.069 10.3667L385.756 14.8592L395.201 22.076ZM354.187 5.62747H354.129L322.125 15.5171L367.968 11.6312L354.187 5.62747ZM246.164 -32.8312L241.267 -24.5144L260.565 -31.6284L246.164 -32.8312ZM212.234 28.9432H230.796L210.095 22.1993L212.234 28.9432ZM305.256 38.7712L275.197 52.9477L293.759 53.9758L305.256 38.7712ZM373.358 68.8925L379.165 60.4935L349.096 69.2009L373.358 68.8925ZM385.746 67.7102L398.221 66.8775L380.085 60.514L385.746 67.7102ZM308.102 -21.5125L295.404 -18.8602L309.524 -11.8182L308.276 -21.3892L308.102 -21.5125ZM269.129 -35.5554L261.678 -31.6489L273.494 -30.6209L269.129 -35.5554ZM245.903 -18.0789L260.574 -31.2069L241.141 -24.0106L245.903 -18.0789ZM232.964 34.1759L244.112 27.7713L232.277 29.2619L232.964 34.1759ZM224.893 21.4797L244.509 27.1133L229.809 10.0891L224.893 21.4797ZM229.451 9.98632L212.912 13.8928L224.544 21.2947L229.451 9.98632ZM225.328 21.9834L232.151 28.8815H232.248L244.122 27.3909L225.328 21.9834ZM224.583 21.7881L210.986 22.0554L231.386 28.6451L224.583 21.7881ZM223.983 21.3872L212.573 14.191L210.057 21.7059L223.983 21.3872ZM229.644 9.53399L232.354 0.55928L213.347 13.348L229.644 9.53399ZM230.07 9.43118H230.118L230.012 9.68819L244.393 26.3423L232.78 0.641521L230.07 9.43118ZM244.935 26.6404L245.903 6.41905L233.138 0.487316L244.935 26.6404ZM263.149 15.4966L246.871 6.90223L255.039 15.5274L263.149 15.4966ZM305.905 37.9693L306.514 37.6712L306.418 37.7946L319.231 33.6824L301.53 32.2226L276.214 51.9608L305.247 38.2777V38.1955L305.905 37.9693ZM330.244 43.5104L312.95 50.9842L324.292 56.9982L330.244 43.5104ZM344.393 30.8245L344.296 30.732H344.403L340.832 22.919L331.26 42.359L344.393 30.8245ZM330.844 43.2328L327.264 61.8402L343.967 31.7292L330.844 43.2328ZM379.455 59.6196L378.71 45.3814L363.671 52.8758L379.426 59.7636L379.455 59.6196ZM363.274 52.6393L378.149 45.2272L357.458 43.6132L363.274 52.6393ZM357.197 42.7908L361.716 35.9235L356.374 28.4909L357.197 42.7908ZM355.968 28.1105L345.061 30.9479L356.819 42.8833L355.968 28.1105ZM356.035 27.6684L367.649 13.276L345.583 30.403L356.035 27.6684ZM316.676 4.67141H316.608L298.356 10.7368L319.996 15.7022L316.676 4.67141ZM301.666 31.8217L319.754 33.3226L297.979 11.662L301.666 31.8217ZM297.456 10.5209L299.672 -2.27808L277.181 7.45737L297.456 10.5209ZM298.743 -2.35004L275.372 -0.561272L276.61 7.22092L298.743 -2.35004ZM266.391 -25.2751L265.994 -17.3079L273.668 -29.8293L266.391 -25.2751ZM266.013 -25.3265L262.084 -30.3742L265.626 -17.7705L266.013 -25.3265ZM265.907 -16.4135L259.394 0.0349846L282.533 -18.8602L266.081 -16.5163L265.907 -16.4135ZM276.243 7.42652L275.052 -0.0369759L264.697 14.9723L275.904 7.67325H275.73L276.243 7.42652ZM282.33 -18.192L259.684 0.312553L275.072 -1.06501L282.33 -18.192ZM274.742 -0.293983L274.83 -0.509869L273.388 -0.396786L273.91 -0.561272L259.229 0.734047L263.971 15.291L274.742 -0.293983ZM283.259 -18.963L282.969 -18.7266L275.672 -1.49678L294.398 -18.7677L283.259 -18.963ZM294.204 -19.1789L285.291 -24.9667L283.472 -19.3023L294.204 -19.1789ZM264.126 15.7741L262.491 27.0825L275.71 8.26951L264.126 15.7741ZM258.89 0.929371C258.89 0.929371 258.842 0.929371 258.813 0.929371C258.772 0.943504 258.728 0.943504 258.687 0.929371L246.658 6.25457L263.545 15.2396L258.89 0.929371ZM258.832 0.405075L265.162 -15.5808L246.822 5.75084L258.832 0.405075ZM261.465 -31.1349L249.009 -0.0883789L265.549 -16.6294L261.465 -31.1349ZM266.226 -25.6555L273.417 -30.1069L261.939 -31.1349L266.226 -25.6555ZM274.152 -29.9115L266.226 -17.0098L284.672 -25.3162L274.239 -29.9218L274.152 -29.9115ZM267.436 -17.1126L282.804 -19.3125H283.056L284.875 -24.9667L267.436 -17.1126ZM285.582 -25.2854L294.853 -19.1995L294.437 -31.5358L285.572 -25.3676H285.659L285.582 -25.2854ZM275.904 -1.16781L309.234 -11.6023L294.93 -18.7369L275.904 -1.16781ZM276.872 -1.05473L299.827 -2.80238L308.944 -11.0266L276.872 -1.05473ZM297.843 10.4592L316.231 4.36299L300.098 -2.35004L297.843 10.4592ZM297.843 11.0144L320.092 33.0965V16.1545L297.843 11.0144ZM320.421 33.4768L330.225 42.6674L320.421 16.9667V33.4768ZM330.622 42.6469L340.59 22.5283L320.605 16.2676L330.622 42.6469ZM345.39 29.9507L345.312 30.0946L368.258 12.2583L341.093 22.5386L344.741 30.5469L345.39 29.9507ZM330.167 43.1095L320.489 34.0114L320.363 33.8778L312.921 50.5524L330.167 43.1095ZM301.298 31.9245L297.524 11.3639L275.352 52.1356L301.298 31.9245ZM276.726 7.79662L282.533 27.5245L297.195 10.891L276.726 7.79662ZM276.388 7.99194L262.674 27.5245L282.185 27.7198L276.388 7.99194ZM262.045 27.5245L263.72 15.9797C263.678 15.962 263.642 15.9338 263.613 15.8975H255.339L262.026 27.5554L262.045 27.5245ZM246.396 6.90223L250.209 30.5469L254.777 15.733L246.396 6.90223ZM262.249 -12.7846L248.651 0.795731L248.555 1.01162L246.774 5.21626L262.249 -12.7846ZM248.39 0.405075L260.971 -31.0527L246.087 -17.7705L248.39 0.405075ZM274.123 -30.4358L290.808 -45.7124L269.517 -35.7302L274.123 -30.4358ZM274.578 -30.3125L294.408 -32.0396L291.775 -46.0208L274.578 -30.3125ZM275.101 -29.9527L285.165 -25.5013L293.875 -31.5975L275.101 -29.9527ZM294.843 -31.4639L295.259 -19.292L307.676 -21.8826L294.843 -31.4639ZM309.776 -11.2836L300.369 -2.75098L329.402 0.980774L309.776 -11.2836ZM301.385 -2.2164L316.792 4.16767L329.131 1.35086L301.385 -2.2164ZM320.421 15.7125L353.326 5.52467L317.034 4.69196L320.421 15.7125ZM340.87 22.189L367.368 12.1657L321.341 16.0723L340.87 22.189ZM356.355 27.8638L361.813 35.4404L368.384 12.8956L356.355 27.8638ZM357.323 43.2123L377.859 44.8057L362.036 36.1805L357.323 43.2123ZM379.581 60.586L378.255 70.7326L385.243 67.7822L379.581 60.586ZM378.952 60.0617L363.216 53.1636L348.293 68.985L378.952 60.0617ZM356.993 43.8188L343.967 61.3878L362.887 52.8449L356.993 43.8188ZM344.722 31.1637L327.38 62.4159L356.732 43.3459L344.722 31.1637ZM330.099 44.7235L324.573 57.2757L326.751 62.4159L330.099 44.7235ZM323.75 57.2038L312.524 51.2103L301.656 64.4719L323.75 57.2038ZM302.459 64.6056L312.553 65.6336L323.199 57.8411L302.459 64.6056ZM319.879 33.888L305.982 38.36L305.885 38.473V38.6375L312.486 50.5319L319.879 33.888ZM296.575 12.1657L282.678 27.9666V28.0899H282.572L275.139 51.7346L296.575 12.1657ZM262.142 27.9049L252.193 30.989L279.001 28.0797L262.142 27.9049ZM261.59 27.6582L255.048 16.1545L250.442 31.0712L261.59 27.6582ZM246.164 8.12558L245.254 27.103L245.361 27.0311L245.264 27.3806L249.842 30.9273L246.164 8.12558ZM245.196 27.8329V27.9357L245.109 27.8432L240.87 42.2356L249.774 31.5133C249.764 31.4907 249.759 31.4661 249.759 31.4413C249.759 31.4165 249.764 31.392 249.774 31.3694L245.196 27.8329ZM232.925 34.5768L232.112 44.0861L240.416 42.431L244.703 27.8638L232.925 34.5768ZM232.422 44.4356L243.967 54.2533L240.503 42.8833L232.422 44.4356ZM231.725 44.0655L232.509 34.9263L225.038 41.8553L231.725 44.0655ZM232.538 34.3712L231.88 29.6628L225.386 40.9712L232.538 34.3712ZM231.57 29.3544L217.944 31.688L224.612 41.5571L231.57 29.3544ZM211.992 14.2527L194.146 25.5096L209.631 21.6956L211.992 14.2527ZM232.567 -0.0266991L233.477 -17.5957L213.231 12.9779L232.567 -0.0266991ZM246.009 6.0284L248.09 1.1247L233.786 0.343391L246.009 6.0284ZM248.042 0.734047L245.758 -17.3079L233.128 -0.0986595L248.042 0.734047ZM245.642 -17.7705L240.89 -23.6714L233.322 -1.02388L245.642 -17.7705ZM268.868 -35.8022H268.955L267.233 -41.4358L261.958 -32.1321L268.868 -35.8022ZM267.494 -41.9703L269.304 -36.0386L291.117 -46.2983L267.668 -42.2582L267.494 -41.9703ZM294.775 -31.9779L308.102 -22.006L292.201 -45.8357L294.775 -31.9779ZM308.808 -21.0294L308.692 -21.1219L309.931 -11.664L310.289 -11.4892H310.231L329.131 0.302273L308.808 -21.0294ZM318.002 4.31159L351.138 5.06205L330.331 1.50507L318.002 4.31159ZM390.585 10.3153L370.368 11.919L385.446 14.6536L390.585 10.3153ZM368.994 12.3714L362.336 35.2245L376.852 18.6937L368.994 12.3714ZM378.768 44.8057L383.888 34.2684L362.597 36.0572L378.768 44.8057ZM383.985 34.9675L379.146 44.9908L379.32 45.0936L379.175 45.1655L385.485 54.829L383.985 34.9675ZM385.514 55.6617L379.088 45.8132L379.833 59.9794L398.056 66.3635L385.514 55.6617ZM385.969 67.9981L392.811 81.5989L398.559 67.1551L385.969 67.9981ZM393.091 81.9485L401.617 84.7755L398.714 67.7411L393.091 81.9485ZM401.714 85.269L393.314 82.483L403.534 97.6568L401.714 85.269ZM385.591 68.1215L378.536 71.1027L392.298 81.455L385.591 68.1215ZM379.262 61.0178L373.775 68.9542L377.984 70.7635L379.262 61.0178ZM368.81 80.0055L373.146 69.2626L348.09 69.5813L368.704 80.0774C368.704 80.0774 368.752 80.0158 368.81 80.0055ZM369.236 80.0672L376.233 78.0111L373.465 69.6121L369.236 80.0672ZM347.519 69.1906L362.316 53.5029L343.648 61.9533L347.519 69.1906ZM356.49 43.9833L327.602 62.7346L343.28 61.7065L356.49 43.9833ZM324.292 57.5327L313.531 65.4383L326.557 62.8374L324.292 57.5327ZM312.302 50.9328L305.808 39.2441L301.55 63.999L312.302 50.9328ZM281.672 66.4252C281.707 66.3933 281.751 66.3758 281.798 66.3758C281.844 66.3758 281.888 66.3933 281.923 66.4252L282.088 66.5794L293.43 54.243L274.849 53.2664L281.672 66.4252ZM274.442 52.7524L282.117 28.3572L256.452 44.2917L274.442 52.7524ZM281.604 28.2133L250.442 31.575L256.103 44.0553L281.604 28.2133ZM249.909 31.9965L241.354 42.359L252.677 44.3534L249.909 31.9965ZM244.432 54.4692L252.029 46.8412L240.929 42.8833L244.432 54.4692ZM254.787 54.4692L244.848 54.9627L251.71 61.0589L254.787 54.4692ZM244.354 55.0552L244.258 55.158V55.0346L236.69 57.3991L251.148 60.9869L244.354 55.0552ZM243.938 54.7057L232.325 44.7132L235.577 57.1215L235.944 57.2141L243.938 54.7057ZM231.822 44.4253L225.154 42.2356L234.986 56.5355L231.822 44.4253ZM217.518 31.6058L212.408 29.5189L216.095 41.6497L217.518 31.6058ZM217.75 31.2666L229.644 29.2105H213.095L217.75 31.2666ZM209.718 22.076L202.353 26.8255L211.799 28.8815L209.718 22.076ZM208.634 22.2918L194.34 25.818L201.821 26.6507L208.634 22.2918ZM181.159 25.4068L179.03 27.8843L194.137 22.8573L181.159 25.4068ZM178.468 27.9255L180.81 25.2217L175.972 18.9919L178.468 27.9255ZM197.224 22.189L194.059 25.0984L211.479 14.191L208.005 15.0442L197.224 22.189ZM212.902 4.92841L212.35 13.5741L231.802 -15.7864L212.902 4.92841ZM234.193 -18.4284L233.844 -18.0583L232.973 -1.31174L240.387 -23.5686L234.193 -18.4284ZM246.871 -33.191L261.387 -31.9882L267.107 -42.0834L246.871 -33.191ZM268.055 -42.7516L291.108 -46.7096L276.591 -51.8497L268.055 -42.7516ZM400.64 30.074L403.543 59.4552L406.089 51.3646L400.64 30.074ZM397.408 49.8842L403.214 59.5682L400.311 30.6395L399.972 43.7057L397.408 49.8842ZM399.643 42.1637L400.011 27.6993L395.327 22.8059L399.643 42.1637ZM376.978 18.9919L362.423 35.6871L383.81 33.8778L376.978 18.9919ZM399.343 69.2934L401.714 83.0587L401.782 79.07L399.343 69.2934ZM412.795 96.7726L402.769 86.3587L412.447 103.249L412.795 96.7726ZM408.924 115.277L415.921 115.596L406.901 112.121L406.737 112.337V112.275L402.788 116.387L408.914 115.246L408.924 115.277ZM402.072 108.626L402.392 116.264L406.66 111.761L403.843 99.425L402.072 108.626ZM377.878 71.1953L373.755 69.4168L376.397 77.456L377.878 71.1953ZM376.31 78.3915L369.236 80.4475L381.391 92.6708L376.31 78.3915ZM384.875 98.0474L382.078 94.0689L382.601 106.858L384.875 98.0474ZM382.678 108.883V109.068L382.543 108.79L381.41 116.12L386.23 114.486L382.678 108.883ZM373.136 114.167L376.33 106.066L373.668 111.103L373.136 114.167ZM372.071 89.2475L377.955 102.766L381.662 106.96L369.826 82.6372L372.071 89.2475ZM354.1 74.4438L365.249 78.7719L349.125 70.5476L354.1 74.4438ZM342.341 62.1075L327.747 63.1355L334.938 65.8084L342.341 62.1075ZM326.402 63.2589L315.263 65.5H325.047L326.402 63.2589ZM311.818 66.343L302.353 69.057L306.127 70.8457L311.818 66.343ZM301.066 64.2869L305.131 40.8992L299.411 63.5159L301.066 64.2869ZM294.291 55.3636L296.566 66.2196L298.908 63.5159L294.291 55.3636ZM296.382 67.2168L292.191 75.441L298.501 85.5568L297.95 74.999L296.382 67.2168ZM303.872 93.5652L298.976 86.9447L300.098 99.5175L303.872 93.5652ZM288.843 106.374L291.678 107.659L299.421 100.278L290.875 101.46V101.81V101.872L288.843 106.374ZM288.63 83.398L290.653 100.062L291.785 75.9859L291.698 75.7186C291.684 75.6708 291.688 75.6193 291.707 75.5739C291.727 75.5285 291.761 75.4922 291.804 75.4719L282.32 67.2476H282.059L288.63 83.398ZM265.297 53.1431L281.159 66.2607L274.384 53.2253C274.355 53.2274 274.326 53.2209 274.301 53.2063C274.275 53.1918 274.254 53.1699 274.239 53.1431C274.228 53.1209 274.222 53.0962 274.222 53.0711C274.222 53.046 274.228 53.0213 274.239 52.9991L256.984 44.888L265.297 53.1431ZM255.697 44.0347L250.326 32.2021L253.074 44.2814L255.697 44.0347ZM252.677 44.6618L242.032 42.8833L252.271 46.502L252.677 44.6618ZM244.8 54.5103L254.787 54.0066L252.271 47.0057L244.8 54.5103ZM239.332 63.6495L250.858 61.3878L235.906 57.6767L235.625 57.7692L235.47 59.8252L239.332 63.6495ZM215.815 42.0609L212.311 30.5469L212.641 38.617L215.815 42.0609ZM185.756 29.4983L200.418 26.9694L193.062 26.1572H192.859C192.827 26.1816 192.788 26.1946 192.748 26.1946C192.708 26.1946 192.669 26.1816 192.637 26.1572L179.91 28.3058L185.756 29.4983Z" fill="url(#paint1_radial_202_3415)"/>
</g>
<g style="mix-blend-mode:overlay">
<path d="M171.533 9.73812L180.911 23.853L191.702 22.5885L199.231 19.9259L211.318 12.8017L212.431 4.68021L224.132 -19.828L224.19 -19.9514L227.538 -19.4888L228.119 -22.1617L233.8 -18.9542L239.926 -27.7953L239.771 -27.8981L240.042 -27.9597L240.777 -28.8336L262.349 -41.3344L276.266 -52.1493L276.44 -52.2829C276.49 -52.3036 276.545 -52.3036 276.595 -52.2829L292.679 -55.8091L307.999 -23.5598L330.374 -15.3355L330.877 -15.2533L314.338 -4.17113L316.612 2.46995C316.612 2.46995 316.612 2.46995 316.612 2.52135L318.131 20.5222L325.699 25.5801L351.529 21.7969L351.365 21.6838H351.587L341.91 10.7764C341.905 10.7527 341.905 10.7282 341.91 10.7045C341.947 10.6904 341.988 10.6904 342.026 10.7045L346.865 10.6222L340.545 -4.03748L322.467 0.290524L320.415 -3.73935C320.393 -3.78641 320.387 -3.84065 320.4 -3.89181C320.412 -3.94297 320.442 -3.98748 320.483 -4.01692C320.527 -4.04098 320.578 -4.04694 320.627 -4.03368C320.675 -4.02042 320.717 -3.98885 320.744 -3.94496L322.68 -0.470219L340.642 -4.76738H340.739L347.194 10.211L351.423 10.1391L364.642 9.98485L344.484 -2.69077L346.787 -7.3169C346.812 -7.36435 346.852 -7.40021 346.901 -7.41735C346.949 -7.43449 347.002 -7.43166 347.048 -7.40942C347.093 -7.38335 347.126 -7.33955 347.141 -7.28757C347.155 -7.23558 347.15 -7.17962 347.126 -7.13186L344.987 -2.84497L365.33 9.98485H365.417C365.44 9.94743 365.475 9.91983 365.516 9.90672C365.556 9.8936 365.6 9.89578 365.639 9.91289L365.949 10.0363L372.481 10.725H372.569H373.41L388.314 5.5232L388.45 5.45124L397.973 18.9287L406.044 16.7698C406.093 16.7572 406.144 16.7651 406.187 16.792C406.231 16.8188 406.262 16.8625 406.276 16.9138C406.282 16.9401 406.283 16.9674 406.278 16.994C406.274 17.0207 406.265 17.0462 406.252 17.0691C406.238 17.092 406.221 17.1119 406.2 17.1276C406.179 17.1432 406.156 17.1544 406.131 17.1605L398.089 19.3091L399.656 44.8042C399.662 44.8279 399.662 44.8525 399.656 44.8762L409.45 49.05C409.498 49.0705 409.536 49.1102 409.556 49.1603C409.575 49.2104 409.576 49.2668 409.557 49.3173C409.544 49.3526 409.521 49.3831 409.492 49.405C409.463 49.4269 409.428 49.4393 409.392 49.4406H409.315L399.405 45.3285H399.347H399.26L398.834 45.0921H398.737L397.711 38.0398L394.614 24.6137L386.321 16.1736L377.998 18.4147L378.162 18.5997C378.188 18.6369 378.202 18.682 378.202 18.7282C378.202 18.7745 378.188 18.8196 378.162 18.8567L381.162 24.9221C381.208 24.9446 381.244 24.985 381.262 25.0349C381.28 25.0848 381.279 25.1402 381.259 25.1894C381.247 25.2255 381.225 25.2568 381.195 25.2789C381.166 25.301 381.131 25.3128 381.095 25.3128H380.988L378.085 31.3062V31.4501L380.872 32.1697L382.111 36.6005C382.12 36.6272 382.12 36.6562 382.111 36.6828L386.224 52.2986L406.692 67.719L411.812 67.0508C411.837 67.048 411.863 67.0505 411.887 67.0583C411.912 67.0661 411.935 67.0789 411.954 67.0962C411.974 67.1134 411.991 67.1346 412.003 67.1585C412.015 67.1825 412.022 67.2088 412.025 67.2358C412.028 67.2884 412.013 67.3403 411.983 67.382C411.952 67.4236 411.909 67.4521 411.86 67.462L406.857 68.0994L402.908 83.16L414.521 98.2104L412.925 102.415L418.518 102.302L414.309 106.116L418.605 116.52L406.653 118.267L404.031 117.239L400.247 116.972L405.144 112.922L407.244 102.713L407.641 99.4852L405.037 90.7263L401.466 84.5582L394.169 78.6778L395.679 71.6564L391.179 65.0359C391.168 65.0119 391.162 64.9855 391.162 64.9588C391.162 64.932 391.168 64.9057 391.179 64.8817L375.946 63.0004L368.31 72.0265L379.624 82.975L379.72 83.0675L375.578 95.959L386.011 97.2852L380.804 90.531C380.787 90.5128 380.773 90.4912 380.764 90.4674C380.755 90.4436 380.75 90.418 380.75 90.3922C380.75 90.3664 380.755 90.3409 380.764 90.317C380.773 90.2932 380.787 90.2716 380.804 90.2534C380.84 90.2158 380.889 90.1947 380.94 90.1947C380.99 90.1947 381.039 90.2158 381.075 90.2534L386.669 97.5113L384.153 101.983L383.998 106.918L384.056 107L387.385 115.913L374.32 117.712L371.098 115.368L376.246 104.564L375.278 96.5964V96.4936L375.211 96.2777L375.065 95.8151L367.778 81.8647L357.578 79.0788C357.528 79.0651 357.485 79.0309 357.458 78.9837C357.432 78.9364 357.425 78.8801 357.437 78.8269C357.45 78.7737 357.482 78.7281 357.527 78.7002C357.571 78.6722 357.624 78.6642 357.675 78.6778L367.71 81.4329V72.304C367.706 72.2838 367.706 72.2626 367.71 72.2424L358.952 73.0956C358.939 73.1194 358.921 73.1393 358.899 73.1537C358.877 73.1681 358.852 73.1764 358.826 73.1779H358.749C358.726 73.1826 358.703 73.1826 358.681 73.1779C358.638 73.1675 358.6 73.142 358.573 73.1056C358.545 73.0692 358.53 73.024 358.53 72.9774C358.53 72.9308 358.545 72.8856 358.573 72.8492C358.6 72.8128 358.638 72.7873 358.681 72.7769L347.068 58.6415L346.816 58.2817L339.606 53.964L343.826 63.1032V63.2882L343.942 63.5452L345.49 69.8265L350.136 68.3564L355.439 72.1498C355.48 72.1792 355.51 72.2245 355.52 72.2762C355.531 72.3279 355.523 72.3821 355.497 72.4274C355.481 72.4555 355.458 72.4787 355.431 72.4948C355.404 72.511 355.373 72.5197 355.342 72.5199C355.304 72.5292 355.264 72.5292 355.226 72.5199L350.068 68.8293L345.229 70.3611L343.564 63.6275L333.2 66.7938L327.461 64.3676C327.443 64.3966 327.42 64.4211 327.393 64.4396L313.583 72.2629L312.615 75.347C312.603 75.3859 312.58 75.4197 312.548 75.4437C312.517 75.4677 312.479 75.4806 312.441 75.4807H312.373C312.348 75.4737 312.325 75.4614 312.305 75.4444C312.285 75.4273 312.268 75.406 312.257 75.3818C312.245 75.3576 312.238 75.331 312.236 75.3038C312.235 75.2765 312.238 75.2492 312.247 75.2236L313.215 72.1395V72.0573H313.283L326.619 64.3574L307.263 62.9387H307.196L301.128 62.4041L300.111 65.2106L297.208 72.5919L297.353 72.8592H297.218L299.928 86.0591L304.553 93.7282L304.631 93.8515C304.646 93.8982 304.646 93.9488 304.631 93.9955L304.989 96.3394L301.011 100.678L302.028 107.792L289.64 108.614H289.534L287.85 106.167L287.898 106.054L289.834 101.079V95.6917L286.495 80.1273L278.617 65.7349C278.584 65.7135 278.557 65.6832 278.538 65.6471C278.52 65.6111 278.51 65.5705 278.511 65.5293L278.356 65.2518L254.771 44.979L254.694 45.1126V45.0098L253.639 46.1304L253.755 49.122L253.958 49.9341L255.168 53.7378L254.626 58.9499L249.603 63.1134H249.555L237.313 64.4704L237.245 64.3676L234.458 59.3817L234.332 56.2976L223.27 43.3033L214.464 42.9332L214.406 42.8715C213.281 41.5255 212.452 39.9315 211.976 38.2043C211.57 36.1482 211.009 30.1342 210.883 29.0651L209.18 28.8698C209.18 28.8698 209.18 28.8698 209.112 28.8698H209.054L203.741 28.2735L183.321 30.3296L178.366 28.5614L169.994 7.78486L171.533 9.73812ZM180.727 24.2848L174.437 14.8166L182.024 27.009L190.521 23.1334L180.727 24.2848ZM199.444 20.2652L191.866 22.9483L182.663 27.1427L187.211 27.9137L192.398 25.7137L205.115 16.924L199.444 20.2652ZM193.115 25.7034L201.689 25.8371L203.683 25.066L208.386 15.125L193.115 25.7034ZM204.283 24.7576L210.089 21.2521L214.435 19.196L209.063 14.7755L204.283 24.7576ZM214.831 19.0726L217.154 19.2166L213.147 14.539L209.441 14.6418L214.831 19.0726ZM211.686 13.0689L209.751 14.2409L212.993 14.097L212.47 11.4858L211.734 12.9661L211.686 13.0689ZM227.509 10.3138L225.574 8.63813L220.348 14.2923L227.509 10.3138ZM222.022 13.8502L226.164 12.1232L233.471 11.0951L230.316 10.2316L227.906 10.5297L222.022 13.8502ZM290.327 100.565L293.734 94.0366H293.666L293.831 93.8207L289.63 84.6712L290.347 95.6609L290.327 100.565ZM294.014 93.2656L296.753 73.1367L289.592 83.6535L294.014 93.2656ZM294.266 94.2113L294.779 100.729L303.837 94.1291L294.285 94.0366L294.266 94.2113ZM285.556 -45.3026H285.459L277.524 -37.6027H283.998L285.556 -45.3026ZM284.482 -38.1064L289.04 -43.3802L285.953 -45.3746L284.482 -38.1064ZM250.881 -8.29353L251.549 -0.758068L260.568 -4.6029L250.881 -8.29353ZM260.113 -5.20944L256.329 -8.44773H251.549L260.113 -5.20944ZM256.465 -8.85895L261.139 -4.83934L263.636 -5.99074L262.455 -10.9767L262.407 -11.2131V-11.3159V-11.4496L263.278 -22.7579L247.145 -22.9121L245.897 -12.1075L250.736 -8.88979L256.465 -8.85895ZM290.801 13.4082L292.66 13.7577L293.095 5.26619L292.573 -3.64683L289.33 8.3914L290.56 13.3054L290.956 13.2231L290.801 13.4082ZM297.315 48.6079L303.683 47.9808L290.511 41.237L288.227 44.2491L297.315 48.6079ZM288.866 44.9995L292.35 48.5565C292.38 48.5573 292.409 48.5651 292.436 48.5793C292.463 48.5935 292.486 48.6138 292.505 48.6388L292.65 48.8547L292.698 48.9164L296.473 48.6593L288.866 44.9995ZM290.172 41.0416L280.282 41.8127L287.85 44.0846L290.172 41.0416ZM290.869 40.579L315.238 29.2707L303.528 21.8175L299.879 22.2698L287.511 34.8837H287.463L277.708 35.5931L279.566 41.3603L279.391 41.4323L290.869 40.579ZM265.562 -12.3954L263.036 -11.3673L268.93 -8.0468L276.024 -7.57391L266.094 -12.4468L265.485 -12.3337L265.562 -12.3954ZM265.775 -12.9197L263.597 -22.2336L262.794 -11.6655L265.775 -12.9197ZM262.872 -10.9664L264.023 -6.09354L277.243 -6.62812L276.924 -7.07017L268.862 -7.61503L262.872 -10.9664ZM277.078 -7.49166L277.949 -6.54588V-6.29915L276.159 8.30916L284.027 -3.37954L288.585 -8.35521L289.766 -17.1552L266.704 -12.6524L277.078 -7.49166ZM286.427 5.87273V5.96525L289.011 8.02131L292.456 -4.77766L288.818 -7.86176L284.492 -3.13282L286.311 5.42039C286.348 5.43745 286.379 5.46647 286.4 5.50335C286.421 5.54024 286.43 5.58313 286.427 5.626V5.87273ZM284.201 -2.71132L276.304 9.02878H276.401L285.576 11.9689L286.05 5.87273L284.201 -2.71132ZM289.04 -8.22157L292.708 -5.13747L294.711 -7.10101L290.172 -16.6617L289.04 -8.22157ZM300.034 21.8689L303.363 21.4679L302.395 12.8428C301.311 16.6465 300.199 20.7689 300.044 21.838L300.034 21.8689ZM302.444 11.5886L309.605 0.136318L295.04 4.03255L302.444 11.5886ZM298.911 8.50449L299.211 10.5605L299.608 14.2203L302.221 11.8559L298.911 8.50449ZM309.557 -0.326294L302.686 -6.32999L295.089 -6.80289L294.827 3.62134L309.557 -0.326294ZM298.437 8.05215L294.624 4.15592L293.54 5.25591L298.737 10.1596L298.437 8.10355V8.05215ZM294.469 3.81667L294.721 -6.46363L292.892 -4.66458L293.453 4.8961L294.469 3.81667ZM295.05 -7.18326L302.192 -6.7412L290.579 -16.5383L295.05 -7.18326ZM302.86 -6.70008L309.77 -0.716946L308.463 -10.2468L291.053 -16.7439L302.86 -6.70008ZM310.176 -0.295452L312.363 2.39798L309.102 -8.0982L310.176 -0.295452ZM310.38 0.568092L312.731 10.4989L312.818 3.95031L312.634 3.35405L310.38 0.568092ZM309.925 0.321362L302.734 11.8045C302.739 11.8316 302.739 11.8595 302.734 11.8867L311.56 21.9717L312.673 12.0409L309.925 0.321362ZM311.56 22.5268L302.724 12.4521L303.75 21.5193L315.364 28.9006L311.56 22.5268ZM302.028 12.5446L299.55 14.7857L297.363 17.3147C297.721 17.8801 299.105 20.0184 299.715 21.2212C300.16 19.3194 301.447 14.7446 302.028 12.5446ZM299.221 14.6007L298.815 10.8176L293.414 5.6774L292.998 13.9016L297.092 16.9857L299.221 14.6007ZM288.934 8.53532L286.35 6.42786L285.895 12.1129L290.105 13.2848L288.934 8.53532ZM285.488 12.4213L276.275 9.49139H276.091L264.362 18.5072L289.524 13.5315L285.488 12.4213ZM277.553 -5.80569L265.397 4.1148L275.801 8.79234L277.553 -5.80569ZM277.398 -6.19635L264.052 -5.66177L265.301 3.68302L277.398 -6.19635ZM263.684 -5.55897L261.604 -4.6029L261.313 -4.47953L264.807 2.95312L263.684 -5.55897ZM250.474 -8.10848L239.829 -0.398254L251.132 -0.644985L250.474 -8.10848ZM249.884 0.218563L230.896 6.18114L236.771 8.34L249.884 0.218563ZM237.187 8.5456L242.326 11.0129L250.581 0.22884L237.187 8.5456ZM249.952 -0.244053L239.306 -0.00760651L230.519 3.07648L224.132 7.09608L230.267 5.96525L249.952 -0.244053ZM223.251 7.14749L230.296 2.71667L237.748 0.0951996L222.554 1.12323L223.251 7.14749ZM222.186 1.30827L215.102 6.62319L222.844 7.26057L222.186 1.30827ZM215.625 10.4989L225.419 8.19608L223.106 7.69234L215.625 10.4989ZM238.542 -0.367416L230.945 -4.5515H230.858L223.115 0.670895L238.542 -0.367416ZM239.229 -0.449661L250.174 -8.38605L231.554 -4.67486L239.229 -0.449661ZM250.145 -8.78698L245.694 -11.7785L232.213 -5.21972L250.145 -8.78698ZM246.719 -22.799L234.555 -18.5327L245.558 -12.3645L246.719 -22.799ZM247.194 -23.3542L263.423 -23.3028C263.449 -23.34 263.487 -23.3657 263.53 -23.3747C263.569 -23.3839 263.611 -23.3788 263.648 -23.3602C263.685 -23.3416 263.715 -23.3106 263.733 -23.2719L266.104 -13.1047L283.814 -33.5317L278.104 -34.3541C278.079 -34.3438 278.052 -34.3438 278.027 -34.3541C277.999 -34.3765 277.976 -34.4044 277.959 -34.4363L283.156 -36.8728H276.972L259.446 -32.1644L259.252 -32.113C259.218 -32.0987 259.18 -32.0987 259.146 -32.113L240.806 -27.7027L247.194 -23.3542ZM283.969 -33.9223V-37.0784L278.801 -34.6625L283.969 -33.9223ZM284.327 -44.6652L261.178 -33.0279L276.972 -37.5307L284.327 -44.6652ZM285.034 -45.4671L272.54 -45.169L260.133 -32.9457L285.034 -45.4671ZM284.095 -33.1924L266.53 -12.858L289.756 -17.4019L289.485 -17.9879L289.611 -17.8748L284.095 -33.1924ZM289.901 -18.2654L290.056 -23.642L284.966 -31.9279L289.901 -18.2654ZM290.366 -23.9401L299.579 -20.0028L284.966 -32.7195L290.366 -23.9401ZM290.424 -23.4775L290.25 -17.5664L299.976 -19.3963L290.424 -23.4775ZM290.801 -17.2579L307.921 -10.8842L300.595 -19.1084L290.801 -17.2579ZM308.463 -10.8636L308.996 -15.1402L301.466 -18.728L308.463 -10.8636ZM309.044 -15.572L309.238 -18.029L301.892 -18.9645L309.044 -15.572ZM309.305 -14.4823L308.792 -10.4318L312.76 2.31574L312.412 -6.28887L309.305 -14.4823ZM313.089 12.0409L311.938 22.1567L317.686 20.5016L313.176 5.20451L313.089 12.0409ZM312.015 22.5577L315.673 28.7258L317.609 20.9745L312.015 22.5577ZM315.664 29.7539C315.664 29.7539 315.664 29.7539 315.605 29.7539C315.562 29.7352 315.525 29.7029 315.499 29.6613L291.237 40.8258L321.451 43.3958L315.77 29.6819C315.738 29.7029 315.701 29.7137 315.664 29.7127V29.7539ZM291.469 41.3192L304.379 47.9192L321.315 43.807L291.469 41.3192ZM304.36 48.4126L300.218 51.25L310.738 55.4957L304.36 48.4126ZM303.634 48.4126L297.74 48.9986L299.811 51.0546L303.634 48.4126ZM297.189 49.05L292.95 49.3378L298.079 57.2228L299.55 51.3528L297.189 49.05ZM298.234 58.1789L298.128 58.0144L295.398 60.749L300.586 61.777L298.234 58.22V58.1789ZM297.905 57.6752L292.379 49.1734L288.218 44.9379L291.072 60.7695L294.779 60.677H294.953L297.905 57.6752ZM294.827 61.0882L291.131 61.1705L296.589 71.2966L294.827 61.0882ZM290.889 61.5303L288.866 71.0293L296.608 72.1704L290.889 61.5303ZM287.734 44.5164L279.566 42.0594L290.56 60.2041L287.734 44.5164ZM279.14 42.1108L275.472 44.8351L276.062 49.05L289.989 60.0088L279.14 42.1108ZM279.14 41.3603L277.204 35.3258L287.298 34.5856L299.628 22.0128C299.628 22.0128 299.628 21.9306 299.628 21.8792C298.834 20.352 297.962 18.8728 297.015 17.4483L292.756 14.1895L290.472 13.7577L270.778 35.994L279.14 41.3603ZM289.872 13.8502L263.81 18.9904L270.536 35.6856L289.872 13.8502ZM275.782 9.22411L265.465 4.53629L265.572 5.33815L265.223 4.59797L263.762 18.4661L275.782 9.22411ZM264.914 3.92975L261.101 -4.20197L250.107 14.3026L264.904 4.02227L264.914 3.92975ZM260.646 -4.20197L251.568 -0.295452L249.768 14.097L260.646 -4.20197ZM251.113 0.198002L242.684 11.2185L249.323 14.6315L251.113 0.198002ZM242.703 11.6811L247.116 26.1763L249.265 15.053L242.703 11.6811ZM242.703 13.1203L244 27.5744L245.132 28.3969L244.929 30.237L245.897 29.5791L246.932 26.9576L242.703 13.1203ZM245.897 30.052L244.987 30.6277L247.087 39.3145L245.897 30.052ZM247.919 42.7276L248.181 49.235L250.832 48.207L252.681 49.3378L253.155 46.1612L246.381 30.7408L247.919 42.7276ZM250.823 48.7005L247.852 49.8416L247.571 42.779L244.745 31.1623L240.874 52.021L244.823 53.049L252.642 53.4294V49.7799L250.823 48.7005ZM244.629 53.4705L240.961 52.4425L243.594 60.0705L245.529 59.1761L244.629 53.4705ZM245.897 59.1555L246.323 59.2789L247.058 56.8219L245.123 54.0771L245.897 59.1555ZM240.448 52.2472L236.751 45.051L238.9 58.0041L243.119 60.0602L240.448 52.2472ZM240.535 51.5687L244.087 32.4576L242.442 36.4361L240.932 37.1865L241.116 38.379L240.09 39.9519L238.619 38.523L236.229 39.2734L236.577 43.7762L240.535 51.5687ZM238.687 38.0603L239.993 39.3454L240.71 38.3174L240.516 36.9809L242.152 36.1688L244.406 30.7099L244.716 28.6539L243.865 28.0371L240.516 32.9305L237.535 33.0744V36.7856L233.79 36.508L237.855 38.3996L238.687 38.0603ZM237.419 32.6118L240.322 32.4781L243.526 27.8006L233.422 24.3773L233.655 28.6847L237.419 32.6118ZM233.403 23.9147L243.603 27.3997L242.19 11.6503L233.064 18.1474L233.374 23.8941L233.403 23.9147ZM237.661 14.3848L241.842 11.4138L237.187 10.6428L237.661 14.3848ZM241.058 10.869L236.732 8.75121L230.267 6.37646L224.151 7.49702L236.887 10.2624C236.907 10.2385 236.933 10.2203 236.962 10.2095C236.991 10.1988 237.021 10.1957 237.051 10.2007L241.058 10.869ZM225.022 8.71009L213.07 11.5269L219.254 14.94L225.022 8.71009ZM222.206 7.6101L214.696 7.00356L212.586 11.2185L222.206 7.6101ZM212.838 4.77274L211.87 11.7942L214.435 6.65403L222.177 0.855938V0.732578L223.986 -18.6561L212.838 4.77274ZM222.593 0.547531L230.412 -4.72626L225.09 -8.26269L226.416 -14.4309L224.393 -19.0159L222.593 0.547531ZM230.558 -5.1272L226.687 -13.8243L225.525 -8.44773L230.558 -5.1272ZM224.625 -19.5196L226.561 -15.0888L227.432 -19.129L224.625 -19.5196ZM228.39 -21.5757L227.925 -19.4579L233.49 -18.6972L228.39 -21.5757ZM233.819 -18.2963V-18.2449L227.887 -19.0673L226.919 -14.4823L231.071 -5.08607L245.355 -12.0458L234.129 -18.3785L233.819 -18.2963ZM234.206 -18.8514L246.7 -23.2308L240.255 -27.5897L234.206 -18.8514ZM241.058 -28.5457L240.69 -28.1139L259.078 -32.5345L262.078 -40.7587L241.058 -28.5457ZM262.601 -41.0363L259.697 -33.0896L272.278 -45.5288L275.898 -51.3372L262.601 -41.0363ZM276.604 -51.7792L272.791 -45.611L285.256 -45.9194L276.624 -51.8614L276.604 -51.7792ZM277.049 -52.0157L285.953 -45.8475C285.981 -45.8237 286.001 -45.7914 286.011 -45.7549L289.214 -43.6989L292.35 -55.3259L277.049 -52.0157ZM292.592 -54.6885L289.572 -43.4727H289.65L284.356 -37.3045V-33.7887L300.353 -19.828L292.592 -54.6885ZM307.689 -23.3233L293.173 -53.9586L300.857 -19.4888L309.209 -18.4607L307.689 -23.3233ZM308.163 -23.0766L309.586 -18.3785L328.438 -15.6542L308.163 -23.0766ZM329.783 -15.0477L309.857 -17.9262L313.041 -13.2178L314.251 -4.63374L329.783 -15.0477ZM313.873 -4.40757L312.673 -13.0636L309.586 -17.628L309.412 -15.3767V-15.2841L312.78 -6.40195L314.715 -1.96086L313.873 -4.40757ZM316.244 2.53163L312.818 -5.34308L313.196 3.81667V3.90919L317.628 18.9287L316.244 2.53163ZM318.112 20.9231H318.035L316.041 28.9109L325.138 25.5184L318.112 20.9231ZM316.041 29.3735L321.702 42.9846L325.438 25.8885L316.041 29.3735ZM325.97 25.8885L331.206 35.2333L351.19 22.2184L325.97 25.8885ZM347.039 10.725L342.51 10.797L351.384 20.8408L347.039 10.725ZM351.326 10.6634L347.455 10.725L351.82 20.8306L351.326 10.6634ZM369.772 28.6436L369.268 33.8557L373.914 47.5491L369.772 28.6436ZM374.978 50.6332L377.736 31.3062V31.2034L369.917 27.3277V27.3894L374.978 50.6332ZM369.549 27.4614L369.443 26.9885L368.872 24.9324L369.191 31.2959L369.549 27.4614ZM369.81 26.8445L377.649 30.7408L375.917 23.01L371.078 20.9539L368.804 22.7735V23.0922L369.81 26.8445ZM370.662 20.7586L358.536 15.5568L368.485 22.5371L370.662 20.7586ZM368.407 23.2053V23.0614L352.787 22.167L368.852 33.4753L368.91 33.4137L368.407 23.2053ZM367.933 22.6296L356.891 14.8885L352.42 21.7455L367.933 22.6296ZM356.581 14.6521L351.742 10.9101L352.226 21.2932L356.581 14.6521ZM365.213 10.4166L352.081 10.6942L356.92 14.4259L371.03 20.4399C371.067 20.4306 371.105 20.4324 371.141 20.4451C371.177 20.4579 371.209 20.481 371.233 20.5119L376.014 22.5679C376.053 22.5595 376.093 22.5638 376.129 22.5803C376.165 22.5969 376.196 22.6248 376.217 22.6605L380.001 24.2848L365.213 10.4166ZM373.498 11.1979H373.43H372.994L367.255 10.5914L373.643 13.2745L385.885 6.81851L373.498 11.1979ZM394.934 24.2745L398.06 37.8239L399.027 44.6706L399.192 44.7425L397.702 19.2371L388.798 6.63347L394.934 24.2745ZM386.417 15.5979L394.295 23.6268L388.295 6.49982L386.214 15.6493L386.417 15.5979ZM385.798 15.7624L387.985 6.16058L374.049 13.511C374.068 13.5604 374.068 13.6157 374.049 13.6652C374.037 13.6944 374.018 13.7199 373.995 13.7396C373.971 13.7594 373.943 13.7726 373.914 13.7783L377.659 17.9521L385.798 15.7624ZM377.582 18.4353L373.149 13.511L365.833 10.4269L380.417 24.1511L377.582 18.4353ZM380.659 25.0249L376.314 23.1642L377.988 30.6174L380.659 25.0249ZM380.659 32.3753L378.104 31.7174L375.394 50.7154L378.617 46.0276L381.966 37.0632L380.659 32.3753ZM375.443 51.3322L385.45 52.1649L378.82 46.408L375.443 51.3322ZM382.149 37.7417L379.033 46.0995L385.711 51.9079L382.149 37.7417ZM409.141 110.105V110.259L411.202 108.398L409.141 110.105ZM411.483 107.648L409.015 104.399L409.131 109.591L411.483 107.648ZM408.995 103.7L411.783 107.37L413.718 105.746L412.499 102.806L407.979 102.888L408.995 103.7ZM417.405 102.744L412.934 102.826L414.047 105.52L417.405 102.744ZM413.989 106.404L412.228 107.997L417.56 115.039L413.989 106.404ZM411.938 108.254L409.16 110.732V111.153L417.628 115.749L411.938 108.254ZM417.657 116.252L409.083 111.606L406.953 117.774L417.657 116.252ZM408.783 111.112L407.573 112.212L408.783 111.184V111.112ZM401.263 116.612L403.934 116.797L404.747 114.823L404.863 114.258V114.186L404.989 113.6L401.263 116.612ZM404.311 116.91L406.547 117.805L408.579 111.904L405.25 114.607L404.311 116.91ZM405.366 113.672L408.773 110.588V110.403L405.492 113.127L405.366 113.672ZM405.579 112.479L408.725 109.868L408.589 103.875L407.524 103.042L405.579 112.479ZM407.612 102.497L411.986 102.405L407.95 99.7524L407.612 102.497ZM405.241 90.3357L405.337 90.4796L407.96 99.2795L412.509 102.281L414.038 98.2618L403.218 84.2292L405.25 90.1918C405.271 90.2364 405.277 90.2867 405.27 90.3357H405.241ZM401.757 84.2909L404.379 88.8348L402.492 83.2834L402.444 83.232L406.412 68.1405L396.173 69.4564L401.011 80.0451C401.025 80.0849 401.025 80.1287 401.011 80.1685L401.757 84.2909ZM396.056 70.1349V71.5125L399.085 76.6526L396.056 70.1349ZM394.556 78.4619L401.331 83.9002L400.702 80.2096L395.95 72.0882L394.556 78.4619ZM395.66 70.9573V69.3741L392.03 65.4985L395.66 70.9573ZM391.576 64.5424L395.95 69.076L406.092 67.7704L386.504 53.0285L391.576 64.5424ZM391.101 64.4293L385.963 52.7612L376.285 62.4761C376.275 62.5211 376.251 62.5611 376.217 62.5891L391.101 64.4293ZM376.043 62.1985L385.575 52.5864L375.278 51.7229L376.043 62.1985ZM374.882 51.5892C374.834 51.5596 374.8 51.5117 374.785 51.4556L374.678 50.9313L370.178 37.6594L375.578 60.6976L374.882 51.5892ZM375.578 62.4144L369.007 34.2361L356.31 55.8247L375.578 62.4144ZM368.456 34.4006L347.406 57.7368L355.836 55.7836C355.862 55.7276 355.907 55.6837 355.962 55.6602L368.456 34.4006ZM386.843 115.615L383.756 107.391L374.872 117.301L386.843 115.615ZM371.581 115.265L374.194 117.167L375.994 105.859L371.581 115.265ZM376.594 104.625L374.659 116.962L383.601 106.979L375.665 97.0796L376.594 104.625ZM383.65 106.455L383.795 101.85L386.137 97.7375L375.588 96.3908L383.65 106.455ZM375.278 95.5786L379.227 83.1395L368.397 72.6947L375.278 95.5786ZM367.962 81.5871L374.34 93.7899L368.02 72.6947L367.962 81.5871ZM367.855 71.7592L375.24 63.0312L359.407 72.5816L367.855 71.7592ZM358.933 72.4068L375.056 62.6714L356.223 56.2462L358.933 72.4068ZM358.478 72.0265L355.836 56.2462L347.203 58.2406L358.478 72.0265ZM368.552 33.7323L352.516 22.424L352.72 22.9072L352.197 22.3007L347.126 57.4696L368.552 33.7323ZM346.729 57.5826L351.81 22.3212L331.419 35.5828L346.729 57.5826ZM346.158 57.449L332.145 37.3202L339.306 53.4088H339.403L346.158 57.449ZM333.141 66.3106L342.045 63.5863L328.119 64.1826L333.141 66.3106ZM343.322 63.1237L339.142 54.0565L327.809 63.7817L343.322 63.1237ZM327.17 63.7919L338.938 53.6864C338.924 53.6467 338.924 53.6028 338.938 53.563L330.964 35.6445L325.728 26.2997L321.944 43.622L322.051 43.879H321.828L321.596 44.2285L304.95 48.2276L305.076 48.2893H304.786L311.56 55.9275L311.947 58.878L327.17 63.7919ZM325.544 63.6891L311.86 59.2481L307.776 62.3321L325.544 63.6891ZM307.157 62.3321L311.589 58.9294L311.25 56.3285L301.65 61.849L307.157 62.3321ZM310.95 56.0406L299.889 51.5275L298.35 57.634L301.05 61.7462L310.95 56.0406ZM300.731 62.1471L295.892 61.2219L299.976 64.3676L300.731 62.1471ZM299.763 64.7583L295.215 61.2527L297.063 71.6667L299.763 64.7583ZM296.976 73.6919L294.344 93.0086L299.55 86.0591L296.976 73.6919ZM299.676 86.5011L294.363 93.6357L304.041 93.7282L299.676 86.5011ZM304.515 96.2366L304.273 94.5814L301.679 99.3207L304.515 96.2366ZM303.866 94.5198L295.156 100.842L300.586 100.441L303.866 94.5198ZM300.586 100.852L294.982 101.264L301.524 107.308L300.586 100.852ZM294.508 101.377L291.285 104.738L291.489 106.075L300.924 107.288L294.508 101.377ZM289.669 108.203L299.666 107.535L291.314 106.507L288.411 106.414L289.669 108.203ZM290.056 101.695C290.046 101.717 290.031 101.736 290.012 101.75C289.994 101.764 289.972 101.774 289.95 101.778L288.305 105.962L291.101 106.054L290.879 104.594L294.285 101.109L294.402 101.027L293.898 94.5506L290.056 101.695ZM289.408 83.0572L296.56 72.5508L288.769 71.4097L289.408 83.0572ZM289.679 93.0908L289.069 83.7049L287.066 80.9189L289.679 93.0908ZM286.853 79.9526L289.108 82.975L288.469 71.3377H288.421V71.2657L279.343 66.1256L286.853 79.9526ZM288.479 70.8648L290.511 61.263L279.169 65.4985L288.479 70.8648ZM278.801 65.0564L278.898 65.2209L290.511 60.8621L276.207 49.6051L278.801 65.0564ZM255.052 43.9613L255.129 44.4341V44.6603L278.308 64.5732L275.714 49.1528L275.056 44.5267L278.927 41.6173L270.449 36.2202L270.352 36.323L263.355 18.9698H263.317C263.291 18.9685 263.266 18.9619 263.243 18.9503C263.22 18.9387 263.2 18.9225 263.183 18.9024C263.166 18.8824 263.152 18.8589 263.144 18.8334C263.135 18.808 263.132 18.781 263.133 18.7539C263.133 18.7197 263.142 18.6862 263.159 18.6572C263.176 18.6281 263.201 18.6047 263.23 18.5895V18.4969H263.355L264.836 4.45404L249.681 14.94L255.052 43.9613ZM249.497 15.968L247.378 26.9473L254.607 43.6734L249.497 15.968ZM254.607 44.6295L247.165 27.4614L246.294 29.6613C246.334 29.6824 246.365 29.7192 246.381 29.7641L253.407 45.7603L254.607 44.6295ZM254.771 53.7789L253.581 50.0472L253.368 49.2042L253.32 48.0425L253.068 49.7285V53.6042L254.607 55.2799L254.771 53.7789ZM253.968 58.9705L249.71 58.3331V62.5378L253.968 58.9705ZM249.584 57.9425L254.268 58.6518L254.558 55.8453L252.778 53.9331L245.229 53.563L247.455 56.6471L249.584 57.9425ZM249.284 62.8153V58.2611L247.397 57.12L246.661 59.5462L248.229 62.9284L249.284 62.8153ZM247.881 62.9695L246.371 59.7312L245.8 59.577L243.603 60.605L238.261 64.0592L247.881 62.9695ZM234.835 59.3303L237.477 64.0387L243.071 60.3583L238.687 58.3023L234.719 56.5443L234.835 59.3303ZM212.354 38.1529C212.805 39.7815 213.585 41.2863 214.638 42.5631L222.912 42.9127L211.299 29.5483C211.473 31.2445 212.025 36.2819 212.354 38.1529ZM211.231 28.7258V28.8184L223.454 42.9332V42.9949L234.584 56.0714L238.174 57.6546L220.803 31.3987C220.785 31.3806 220.772 31.3589 220.762 31.3351C220.753 31.3113 220.748 31.2857 220.748 31.2599C220.748 31.2341 220.753 31.2086 220.762 31.1847C220.772 31.1609 220.785 31.1393 220.803 31.1211C220.839 31.0835 220.887 31.0624 220.938 31.0624C220.989 31.0624 221.037 31.0835 221.073 31.1211L238.416 57.2742L236.219 43.9098C236.214 43.8792 236.214 43.8479 236.219 43.8173L235.851 39.2426V39.0061L237.313 38.5435L231.632 35.9015L237.187 36.323V32.9305L233.384 28.9623L233.287 28.8595L233.045 24.2848L220.386 25.5184L220.115 25.395C220.111 25.3747 220.111 25.3536 220.115 25.3333L227.79 17.582L233.132 17.9418L237.39 14.8577L236.887 10.8792L225.854 8.48392L227.935 10.3549L230.374 10.0568L235.513 11.4549L226.309 12.7297L219.331 15.6287L212.954 12.1129L213.418 14.4465L217.59 19.3296C217.617 19.3619 217.633 19.4041 217.633 19.4479C217.633 19.4917 217.617 19.5338 217.59 19.5661C217.596 19.5822 217.6 19.5998 217.6 19.6175C217.6 19.6352 217.596 19.6528 217.59 19.6689C217.59 19.718 217.571 19.765 217.538 19.7997C217.506 19.8344 217.462 19.8539 217.415 19.8539L214.793 19.6997L210.389 21.7558L209.422 28.7464L211.231 28.7258ZM220.967 25.0146L233.006 23.853L232.706 18.1988L220.967 25.0146ZM232.222 17.9932L227.867 17.7054L221.219 24.3773L232.222 17.9932ZM209.963 21.7661L203.963 25.4156L202.308 26.053L208.976 28.4894L209.963 21.7661ZM183.417 29.9903L203.741 27.9342L207.36 28.3455L201.679 26.2894L192.524 26.1352L187.25 28.3763L182.314 27.5333L183.417 29.9903ZM178.579 28.3146L182.905 29.8567L181.782 27.3791L171.601 10.9306L178.579 28.3146Z" fill="url(#paint2_radial_202_3415)"/>
</g>
<path d="M171.533 9.73812L180.911 23.853L191.702 22.5885L199.231 19.9259L211.318 12.8017L212.431 4.68021L224.132 -19.828L224.19 -19.9514L227.538 -19.4888L228.119 -22.1617L233.8 -18.9542L239.926 -27.7953L239.771 -27.8981L240.042 -27.9597L240.777 -28.8336L262.349 -41.3344L276.266 -52.1493L276.44 -52.2829C276.49 -52.3036 276.545 -52.3036 276.595 -52.2829L292.679 -55.8091L307.999 -23.5598L330.374 -15.3355L330.877 -15.2533L314.338 -4.17113L316.612 2.46995C316.612 2.46995 316.612 2.46995 316.612 2.52135L318.131 20.5222L325.699 25.5801L351.529 21.7969L351.365 21.6838H351.587L341.91 10.7764C341.905 10.7527 341.905 10.7282 341.91 10.7045C341.947 10.6904 341.988 10.6904 342.026 10.7045L346.865 10.6222L340.545 -4.03748L322.467 0.290524L320.415 -3.73935C320.393 -3.78641 320.387 -3.84065 320.4 -3.89181C320.412 -3.94297 320.442 -3.98748 320.483 -4.01692C320.527 -4.04098 320.578 -4.04694 320.627 -4.03368C320.675 -4.02042 320.717 -3.98885 320.744 -3.94496L322.68 -0.470219L340.642 -4.76738H340.739L347.194 10.211L351.423 10.1391L364.642 9.98485L344.484 -2.69077L346.787 -7.3169C346.812 -7.36435 346.852 -7.40021 346.901 -7.41735C346.949 -7.43449 347.002 -7.43166 347.048 -7.40942C347.093 -7.38335 347.126 -7.33955 347.141 -7.28757C347.155 -7.23558 347.15 -7.17962 347.126 -7.13186L344.987 -2.84497L365.33 9.98485H365.417C365.44 9.94743 365.475 9.91983 365.516 9.90672C365.556 9.8936 365.6 9.89578 365.639 9.91289L365.949 10.0363L372.481 10.725H372.569H373.41L388.314 5.5232L388.45 5.45124L397.973 18.9287L406.044 16.7698C406.093 16.7572 406.144 16.7651 406.187 16.792C406.231 16.8188 406.262 16.8625 406.276 16.9138C406.282 16.9401 406.283 16.9674 406.278 16.994C406.274 17.0207 406.265 17.0462 406.252 17.0691C406.238 17.092 406.221 17.1119 406.2 17.1276C406.179 17.1432 406.156 17.1544 406.131 17.1605L398.089 19.3091L399.656 44.8042C399.662 44.8279 399.662 44.8525 399.656 44.8762L409.45 49.05C409.498 49.0705 409.536 49.1102 409.556 49.1603C409.575 49.2104 409.576 49.2668 409.557 49.3173C409.544 49.3526 409.521 49.3831 409.492 49.405C409.463 49.4269 409.428 49.4393 409.392 49.4406H409.315L399.405 45.3285H399.347H399.26L398.834 45.0921H398.737L397.711 38.0398L394.614 24.6137L386.321 16.1736L377.998 18.4147L378.162 18.5997C378.188 18.6369 378.202 18.682 378.202 18.7282C378.202 18.7745 378.188 18.8196 378.162 18.8567L381.162 24.9221C381.208 24.9446 381.244 24.985 381.262 25.0349C381.28 25.0848 381.279 25.1402 381.259 25.1894C381.247 25.2255 381.225 25.2568 381.195 25.2789C381.166 25.301 381.131 25.3128 381.095 25.3128H380.988L378.085 31.3062V31.4501L380.872 32.1697L382.111 36.6005C382.12 36.6272 382.12 36.6562 382.111 36.6828L386.224 52.2986L406.692 67.719L411.812 67.0508C411.837 67.048 411.863 67.0505 411.887 67.0583C411.912 67.0661 411.935 67.0789 411.954 67.0962C411.974 67.1134 411.991 67.1346 412.003 67.1585C412.015 67.1825 412.022 67.2088 412.025 67.2358C412.028 67.2884 412.013 67.3403 411.983 67.382C411.952 67.4236 411.909 67.4521 411.86 67.462L406.857 68.0994L402.908 83.16L414.521 98.2104L412.925 102.415L418.518 102.302L414.309 106.116L418.605 116.52L406.653 118.267L404.031 117.239L400.247 116.972L405.144 112.922L407.244 102.713L407.641 99.4852L405.037 90.7263L401.466 84.5582L394.169 78.6778L395.679 71.6564L391.179 65.0359C391.168 65.0119 391.162 64.9855 391.162 64.9588C391.162 64.932 391.168 64.9057 391.179 64.8817L375.946 63.0004L368.31 72.0265L379.624 82.975L379.72 83.0675L375.578 95.959L386.011 97.2852L380.804 90.531C380.787 90.5128 380.773 90.4912 380.764 90.4674C380.755 90.4436 380.75 90.418 380.75 90.3922C380.75 90.3664 380.755 90.3409 380.764 90.317C380.773 90.2932 380.787 90.2716 380.804 90.2534C380.84 90.2158 380.889 90.1947 380.94 90.1947C380.99 90.1947 381.039 90.2158 381.075 90.2534L386.669 97.5113L384.153 101.983L383.998 106.918L384.056 107L387.385 115.913L374.32 117.712L371.098 115.368L376.246 104.564L375.278 96.5964V96.4936L375.211 96.2777L375.065 95.8151L367.778 81.8647L357.578 79.0788C357.528 79.0651 357.485 79.0309 357.458 78.9837C357.432 78.9364 357.425 78.8801 357.437 78.8269C357.45 78.7737 357.482 78.7281 357.527 78.7002C357.571 78.6722 357.624 78.6642 357.675 78.6778L367.71 81.4329V72.304C367.706 72.2838 367.706 72.2626 367.71 72.2424L358.952 73.0956C358.939 73.1194 358.921 73.1393 358.899 73.1537C358.877 73.1681 358.852 73.1764 358.826 73.1779H358.749C358.726 73.1826 358.703 73.1826 358.681 73.1779C358.638 73.1675 358.6 73.142 358.573 73.1056C358.545 73.0692 358.53 73.024 358.53 72.9774C358.53 72.9308 358.545 72.8856 358.573 72.8492C358.6 72.8128 358.638 72.7873 358.681 72.7769L347.068 58.6415L346.816 58.2817L339.606 53.964L343.826 63.1032V63.2882L343.942 63.5452L345.49 69.8265L350.136 68.3564L355.439 72.1498C355.48 72.1792 355.51 72.2245 355.52 72.2762C355.531 72.3279 355.523 72.3821 355.497 72.4274C355.481 72.4555 355.458 72.4787 355.431 72.4948C355.404 72.511 355.373 72.5197 355.342 72.5199C355.304 72.5292 355.264 72.5292 355.226 72.5199L350.068 68.8293L345.229 70.3611L343.564 63.6275L333.2 66.7938L327.461 64.3676C327.443 64.3966 327.42 64.4211 327.393 64.4396L313.583 72.2629L312.615 75.347C312.603 75.3859 312.58 75.4197 312.548 75.4437C312.517 75.4677 312.479 75.4806 312.441 75.4807H312.373C312.348 75.4737 312.325 75.4614 312.305 75.4444C312.285 75.4273 312.268 75.406 312.257 75.3818C312.245 75.3576 312.238 75.331 312.236 75.3038C312.235 75.2765 312.238 75.2492 312.247 75.2236L313.215 72.1395V72.0573H313.283L326.619 64.3574L307.263 62.9387H307.196L301.128 62.4041L300.111 65.2106L297.208 72.5919L297.353 72.8592H297.218L299.928 86.0591L304.553 93.7282L304.631 93.8515C304.646 93.8982 304.646 93.9488 304.631 93.9955L304.989 96.3394L301.011 100.678L302.028 107.792L289.64 108.614H289.534L287.85 106.167L287.898 106.054L289.834 101.079V95.6917L286.495 80.1273L278.617 65.7349C278.584 65.7135 278.557 65.6832 278.538 65.6471C278.52 65.6111 278.51 65.5705 278.511 65.5293L278.356 65.2518L254.771 44.979L254.694 45.1126V45.0098L253.639 46.1304L253.755 49.122L253.958 49.9341L255.168 53.7378L254.626 58.9499L249.603 63.1134H249.555L237.313 64.4704L237.245 64.3676L234.458 59.3817L234.332 56.2976L223.27 43.3033L214.464 42.9332L214.406 42.8715C213.281 41.5255 212.452 39.9315 211.976 38.2043C211.57 36.1482 211.009 30.1342 210.883 29.0651L209.18 28.8698C209.18 28.8698 209.18 28.8698 209.112 28.8698H209.054L203.741 28.2735L183.321 30.3296L178.366 28.5614L169.994 7.78486L171.533 9.73812ZM180.727 24.2848L174.437 14.8166L182.024 27.009L190.521 23.1334L180.727 24.2848ZM199.444 20.2652L191.866 22.9483L182.663 27.1427L187.211 27.9137L192.398 25.7137L205.115 16.924L199.444 20.2652ZM193.115 25.7034L201.689 25.8371L203.683 25.066L208.386 15.125L193.115 25.7034ZM204.283 24.7576L210.089 21.2521L214.435 19.196L209.063 14.7755L204.283 24.7576ZM214.831 19.0726L217.154 19.2166L213.147 14.539L209.441 14.6418L214.831 19.0726ZM211.686 13.0689L209.751 14.2409L212.993 14.097L212.47 11.4858L211.734 12.9661L211.686 13.0689ZM227.509 10.3138L225.574 8.63813L220.348 14.2923L227.509 10.3138ZM222.022 13.8502L226.164 12.1232L233.471 11.0951L230.316 10.2316L227.906 10.5297L222.022 13.8502ZM290.327 100.565L293.734 94.0366H293.666L293.831 93.8207L289.63 84.6712L290.347 95.6609L290.327 100.565ZM294.014 93.2656L296.753 73.1367L289.592 83.6535L294.014 93.2656ZM294.266 94.2113L294.779 100.729L303.837 94.1291L294.285 94.0366L294.266 94.2113ZM285.556 -45.3026H285.459L277.524 -37.6027H283.998L285.556 -45.3026ZM284.482 -38.1064L289.04 -43.3802L285.953 -45.3746L284.482 -38.1064ZM250.881 -8.29353L251.549 -0.758068L260.568 -4.6029L250.881 -8.29353ZM260.113 -5.20944L256.329 -8.44773H251.549L260.113 -5.20944ZM256.465 -8.85895L261.139 -4.83934L263.636 -5.99074L262.455 -10.9767L262.407 -11.2131V-11.3159V-11.4496L263.278 -22.7579L247.145 -22.9121L245.897 -12.1075L250.736 -8.88979L256.465 -8.85895ZM290.801 13.4082L292.66 13.7577L293.095 5.26619L292.573 -3.64683L289.33 8.3914L290.56 13.3054L290.956 13.2231L290.801 13.4082ZM297.315 48.6079L303.683 47.9808L290.511 41.237L288.227 44.2491L297.315 48.6079ZM288.866 44.9995L292.35 48.5565C292.38 48.5573 292.409 48.5651 292.436 48.5793C292.463 48.5935 292.486 48.6138 292.505 48.6388L292.65 48.8547L292.698 48.9164L296.473 48.6593L288.866 44.9995ZM290.172 41.0416L280.282 41.8127L287.85 44.0846L290.172 41.0416ZM290.869 40.579L315.238 29.2707L303.528 21.8175L299.879 22.2698L287.511 34.8837H287.463L277.708 35.5931L279.566 41.3603L279.391 41.4323L290.869 40.579ZM265.562 -12.3954L263.036 -11.3673L268.93 -8.0468L276.024 -7.57391L266.094 -12.4468L265.485 -12.3337L265.562 -12.3954ZM265.775 -12.9197L263.597 -22.2336L262.794 -11.6655L265.775 -12.9197ZM262.872 -10.9664L264.023 -6.09354L277.243 -6.62812L276.924 -7.07017L268.862 -7.61503L262.872 -10.9664ZM277.078 -7.49166L277.949 -6.54588V-6.29915L276.159 8.30916L284.027 -3.37954L288.585 -8.35521L289.766 -17.1552L266.704 -12.6524L277.078 -7.49166ZM286.427 5.87273V5.96525L289.011 8.02131L292.456 -4.77766L288.818 -7.86176L284.492 -3.13282L286.311 5.42039C286.348 5.43745 286.379 5.46647 286.4 5.50335C286.421 5.54024 286.43 5.58313 286.427 5.626V5.87273ZM284.201 -2.71132L276.304 9.02878H276.401L285.576 11.9689L286.05 5.87273L284.201 -2.71132ZM289.04 -8.22157L292.708 -5.13747L294.711 -7.10101L290.172 -16.6617L289.04 -8.22157ZM300.034 21.8689L303.363 21.4679L302.395 12.8428C301.311 16.6465 300.199 20.7689 300.044 21.838L300.034 21.8689ZM302.444 11.5886L309.605 0.136318L295.04 4.03255L302.444 11.5886ZM298.911 8.50449L299.211 10.5605L299.608 14.2203L302.221 11.8559L298.911 8.50449ZM309.557 -0.326294L302.686 -6.32999L295.089 -6.80289L294.827 3.62134L309.557 -0.326294ZM298.437 8.05215L294.624 4.15592L293.54 5.25591L298.737 10.1596L298.437 8.10355V8.05215ZM294.469 3.81667L294.721 -6.46363L292.892 -4.66458L293.453 4.8961L294.469 3.81667ZM295.05 -7.18326L302.192 -6.7412L290.579 -16.5383L295.05 -7.18326ZM302.86 -6.70008L309.77 -0.716946L308.463 -10.2468L291.053 -16.7439L302.86 -6.70008ZM310.176 -0.295452L312.363 2.39798L309.102 -8.0982L310.176 -0.295452ZM310.38 0.568092L312.731 10.4989L312.818 3.95031L312.634 3.35405L310.38 0.568092ZM309.925 0.321362L302.734 11.8045C302.739 11.8316 302.739 11.8595 302.734 11.8867L311.56 21.9717L312.673 12.0409L309.925 0.321362ZM311.56 22.5268L302.724 12.4521L303.75 21.5193L315.364 28.9006L311.56 22.5268ZM302.028 12.5446L299.55 14.7857L297.363 17.3147C297.721 17.8801 299.105 20.0184 299.715 21.2212C300.16 19.3194 301.447 14.7446 302.028 12.5446ZM299.221 14.6007L298.815 10.8176L293.414 5.6774L292.998 13.9016L297.092 16.9857L299.221 14.6007ZM288.934 8.53532L286.35 6.42786L285.895 12.1129L290.105 13.2848L288.934 8.53532ZM285.488 12.4213L276.275 9.49139H276.091L264.362 18.5072L289.524 13.5315L285.488 12.4213ZM277.553 -5.80569L265.397 4.1148L275.801 8.79234L277.553 -5.80569ZM277.398 -6.19635L264.052 -5.66177L265.301 3.68302L277.398 -6.19635ZM263.684 -5.55897L261.604 -4.6029L261.313 -4.47953L264.807 2.95312L263.684 -5.55897ZM250.474 -8.10848L239.829 -0.398254L251.132 -0.644985L250.474 -8.10848ZM249.884 0.218563L230.896 6.18114L236.771 8.34L249.884 0.218563ZM237.187 8.5456L242.326 11.0129L250.581 0.22884L237.187 8.5456ZM249.952 -0.244053L239.306 -0.00760651L230.519 3.07648L224.132 7.09608L230.267 5.96525L249.952 -0.244053ZM223.251 7.14749L230.296 2.71667L237.748 0.0951996L222.554 1.12323L223.251 7.14749ZM222.186 1.30827L215.102 6.62319L222.844 7.26057L222.186 1.30827ZM215.625 10.4989L225.419 8.19608L223.106 7.69234L215.625 10.4989ZM238.542 -0.367416L230.945 -4.5515H230.858L223.115 0.670895L238.542 -0.367416ZM239.229 -0.449661L250.174 -8.38605L231.554 -4.67486L239.229 -0.449661ZM250.145 -8.78698L245.694 -11.7785L232.213 -5.21972L250.145 -8.78698ZM246.719 -22.799L234.555 -18.5327L245.558 -12.3645L246.719 -22.799ZM247.194 -23.3542L263.423 -23.3028C263.449 -23.34 263.487 -23.3657 263.53 -23.3747C263.569 -23.3839 263.611 -23.3788 263.648 -23.3602C263.685 -23.3416 263.715 -23.3106 263.733 -23.2719L266.104 -13.1047L283.814 -33.5317L278.104 -34.3541C278.079 -34.3438 278.052 -34.3438 278.027 -34.3541C277.999 -34.3765 277.976 -34.4044 277.959 -34.4363L283.156 -36.8728H276.972L259.446 -32.1644L259.252 -32.113C259.218 -32.0987 259.18 -32.0987 259.146 -32.113L240.806 -27.7027L247.194 -23.3542ZM283.969 -33.9223V-37.0784L278.801 -34.6625L283.969 -33.9223ZM284.327 -44.6652L261.178 -33.0279L276.972 -37.5307L284.327 -44.6652ZM285.034 -45.4671L272.54 -45.169L260.133 -32.9457L285.034 -45.4671ZM284.095 -33.1924L266.53 -12.858L289.756 -17.4019L289.485 -17.9879L289.611 -17.8748L284.095 -33.1924ZM289.901 -18.2654L290.056 -23.642L284.966 -31.9279L289.901 -18.2654ZM290.366 -23.9401L299.579 -20.0028L284.966 -32.7195L290.366 -23.9401ZM290.424 -23.4775L290.25 -17.5664L299.976 -19.3963L290.424 -23.4775ZM290.801 -17.2579L307.921 -10.8842L300.595 -19.1084L290.801 -17.2579ZM308.463 -10.8636L308.996 -15.1402L301.466 -18.728L308.463 -10.8636ZM309.044 -15.572L309.238 -18.029L301.892 -18.9645L309.044 -15.572ZM309.305 -14.4823L308.792 -10.4318L312.76 2.31574L312.412 -6.28887L309.305 -14.4823ZM313.089 12.0409L311.938 22.1567L317.686 20.5016L313.176 5.20451L313.089 12.0409ZM312.015 22.5577L315.673 28.7258L317.609 20.9745L312.015 22.5577ZM315.664 29.7539C315.664 29.7539 315.664 29.7539 315.605 29.7539C315.562 29.7352 315.525 29.7029 315.499 29.6613L291.237 40.8258L321.451 43.3958L315.77 29.6819C315.738 29.7029 315.701 29.7137 315.664 29.7127V29.7539ZM291.469 41.3192L304.379 47.9192L321.315 43.807L291.469 41.3192ZM304.36 48.4126L300.218 51.25L310.738 55.4957L304.36 48.4126ZM303.634 48.4126L297.74 48.9986L299.811 51.0546L303.634 48.4126ZM297.189 49.05L292.95 49.3378L298.079 57.2228L299.55 51.3528L297.189 49.05ZM298.234 58.1789L298.128 58.0144L295.398 60.749L300.586 61.777L298.234 58.22V58.1789ZM297.905 57.6752L292.379 49.1734L288.218 44.9379L291.072 60.7695L294.779 60.677H294.953L297.905 57.6752ZM294.827 61.0882L291.131 61.1705L296.589 71.2966L294.827 61.0882ZM290.889 61.5303L288.866 71.0293L296.608 72.1704L290.889 61.5303ZM287.734 44.5164L279.566 42.0594L290.56 60.2041L287.734 44.5164ZM279.14 42.1108L275.472 44.8351L276.062 49.05L289.989 60.0088L279.14 42.1108ZM279.14 41.3603L277.204 35.3258L287.298 34.5856L299.628 22.0128C299.628 22.0128 299.628 21.9306 299.628 21.8792C298.834 20.352 297.962 18.8728 297.015 17.4483L292.756 14.1895L290.472 13.7577L270.778 35.994L279.14 41.3603ZM289.872 13.8502L263.81 18.9904L270.536 35.6856L289.872 13.8502ZM275.782 9.22411L265.465 4.53629L265.572 5.33815L265.223 4.59797L263.762 18.4661L275.782 9.22411ZM264.914 3.92975L261.101 -4.20197L250.107 14.3026L264.904 4.02227L264.914 3.92975ZM260.646 -4.20197L251.568 -0.295452L249.768 14.097L260.646 -4.20197ZM251.113 0.198002L242.684 11.2185L249.323 14.6315L251.113 0.198002ZM242.703 11.6811L247.116 26.1763L249.265 15.053L242.703 11.6811ZM242.703 13.1203L244 27.5744L245.132 28.3969L244.929 30.237L245.897 29.5791L246.932 26.9576L242.703 13.1203ZM245.897 30.052L244.987 30.6277L247.087 39.3145L245.897 30.052ZM247.919 42.7276L248.181 49.235L250.832 48.207L252.681 49.3378L253.155 46.1612L246.381 30.7408L247.919 42.7276ZM250.823 48.7005L247.852 49.8416L247.571 42.779L244.745 31.1623L240.874 52.021L244.823 53.049L252.642 53.4294V49.7799L250.823 48.7005ZM244.629 53.4705L240.961 52.4425L243.594 60.0705L245.529 59.1761L244.629 53.4705ZM245.897 59.1555L246.323 59.2789L247.058 56.8219L245.123 54.0771L245.897 59.1555ZM240.448 52.2472L236.751 45.051L238.9 58.0041L243.119 60.0602L240.448 52.2472ZM240.535 51.5687L244.087 32.4576L242.442 36.4361L240.932 37.1865L241.116 38.379L240.09 39.9519L238.619 38.523L236.229 39.2734L236.577 43.7762L240.535 51.5687ZM238.687 38.0603L239.993 39.3454L240.71 38.3174L240.516 36.9809L242.152 36.1688L244.406 30.7099L244.716 28.6539L243.865 28.0371L240.516 32.9305L237.535 33.0744V36.7856L233.79 36.508L237.855 38.3996L238.687 38.0603ZM237.419 32.6118L240.322 32.4781L243.526 27.8006L233.422 24.3773L233.655 28.6847L237.419 32.6118ZM233.403 23.9147L243.603 27.3997L242.19 11.6503L233.064 18.1474L233.374 23.8941L233.403 23.9147ZM237.661 14.3848L241.842 11.4138L237.187 10.6428L237.661 14.3848ZM241.058 10.869L236.732 8.75121L230.267 6.37646L224.151 7.49702L236.887 10.2624C236.907 10.2385 236.933 10.2203 236.962 10.2095C236.991 10.1988 237.021 10.1957 237.051 10.2007L241.058 10.869ZM225.022 8.71009L213.07 11.5269L219.254 14.94L225.022 8.71009ZM222.206 7.6101L214.696 7.00356L212.586 11.2185L222.206 7.6101ZM212.838 4.77274L211.87 11.7942L214.435 6.65403L222.177 0.855938V0.732578L223.986 -18.6561L212.838 4.77274ZM222.593 0.547531L230.412 -4.72626L225.09 -8.26269L226.416 -14.4309L224.393 -19.0159L222.593 0.547531ZM230.558 -5.1272L226.687 -13.8243L225.525 -8.44773L230.558 -5.1272ZM224.625 -19.5196L226.561 -15.0888L227.432 -19.129L224.625 -19.5196ZM228.39 -21.5757L227.925 -19.4579L233.49 -18.6972L228.39 -21.5757ZM233.819 -18.2963V-18.2449L227.887 -19.0673L226.919 -14.4823L231.071 -5.08607L245.355 -12.0458L234.129 -18.3785L233.819 -18.2963ZM234.206 -18.8514L246.7 -23.2308L240.255 -27.5897L234.206 -18.8514ZM241.058 -28.5457L240.69 -28.1139L259.078 -32.5345L262.078 -40.7587L241.058 -28.5457ZM262.601 -41.0363L259.697 -33.0896L272.278 -45.5288L275.898 -51.3372L262.601 -41.0363ZM276.604 -51.7792L272.791 -45.611L285.256 -45.9194L276.624 -51.8614L276.604 -51.7792ZM277.049 -52.0157L285.953 -45.8475C285.981 -45.8237 286.001 -45.7914 286.011 -45.7549L289.214 -43.6989L292.35 -55.3259L277.049 -52.0157ZM292.592 -54.6885L289.572 -43.4727H289.65L284.356 -37.3045V-33.7887L300.353 -19.828L292.592 -54.6885ZM307.689 -23.3233L293.173 -53.9586L300.857 -19.4888L309.209 -18.4607L307.689 -23.3233ZM308.163 -23.0766L309.586 -18.3785L328.438 -15.6542L308.163 -23.0766ZM329.783 -15.0477L309.857 -17.9262L313.041 -13.2178L314.251 -4.63374L329.783 -15.0477ZM313.873 -4.40757L312.673 -13.0636L309.586 -17.628L309.412 -15.3767V-15.2841L312.78 -6.40195L314.715 -1.96086L313.873 -4.40757ZM316.244 2.53163L312.818 -5.34308L313.196 3.81667V3.90919L317.628 18.9287L316.244 2.53163ZM318.112 20.9231H318.035L316.041 28.9109L325.138 25.5184L318.112 20.9231ZM316.041 29.3735L321.702 42.9846L325.438 25.8885L316.041 29.3735ZM325.97 25.8885L331.206 35.2333L351.19 22.2184L325.97 25.8885ZM347.039 10.725L342.51 10.797L351.384 20.8408L347.039 10.725ZM351.326 10.6634L347.455 10.725L351.82 20.8306L351.326 10.6634ZM369.772 28.6436L369.268 33.8557L373.914 47.5491L369.772 28.6436ZM374.978 50.6332L377.736 31.3062V31.2034L369.917 27.3277V27.3894L374.978 50.6332ZM369.549 27.4614L369.443 26.9885L368.872 24.9324L369.191 31.2959L369.549 27.4614ZM369.81 26.8445L377.649 30.7408L375.917 23.01L371.078 20.9539L368.804 22.7735V23.0922L369.81 26.8445ZM370.662 20.7586L358.536 15.5568L368.485 22.5371L370.662 20.7586ZM368.407 23.2053V23.0614L352.787 22.167L368.852 33.4753L368.91 33.4137L368.407 23.2053ZM367.933 22.6296L356.891 14.8885L352.42 21.7455L367.933 22.6296ZM356.581 14.6521L351.742 10.9101L352.226 21.2932L356.581 14.6521ZM365.213 10.4166L352.081 10.6942L356.92 14.4259L371.03 20.4399C371.067 20.4306 371.105 20.4324 371.141 20.4451C371.177 20.4579 371.209 20.481 371.233 20.5119L376.014 22.5679C376.053 22.5595 376.093 22.5638 376.129 22.5803C376.165 22.5969 376.196 22.6248 376.217 22.6605L380.001 24.2848L365.213 10.4166ZM373.498 11.1979H373.43H372.994L367.255 10.5914L373.643 13.2745L385.885 6.81851L373.498 11.1979ZM394.934 24.2745L398.06 37.8239L399.027 44.6706L399.192 44.7425L397.702 19.2371L388.798 6.63347L394.934 24.2745ZM386.417 15.5979L394.295 23.6268L388.295 6.49982L386.214 15.6493L386.417 15.5979ZM385.798 15.7624L387.985 6.16058L374.049 13.511C374.068 13.5604 374.068 13.6157 374.049 13.6652C374.037 13.6944 374.018 13.7199 373.995 13.7396C373.971 13.7594 373.943 13.7726 373.914 13.7783L377.659 17.9521L385.798 15.7624ZM377.582 18.4353L373.149 13.511L365.833 10.4269L380.417 24.1511L377.582 18.4353ZM380.659 25.0249L376.314 23.1642L377.988 30.6174L380.659 25.0249ZM380.659 32.3753L378.104 31.7174L375.394 50.7154L378.617 46.0276L381.966 37.0632L380.659 32.3753ZM375.443 51.3322L385.45 52.1649L378.82 46.408L375.443 51.3322ZM382.149 37.7417L379.033 46.0995L385.711 51.9079L382.149 37.7417ZM409.141 110.105V110.259L411.202 108.398L409.141 110.105ZM411.483 107.648L409.015 104.399L409.131 109.591L411.483 107.648ZM408.995 103.7L411.783 107.37L413.718 105.746L412.499 102.806L407.979 102.888L408.995 103.7ZM417.405 102.744L412.934 102.826L414.047 105.52L417.405 102.744ZM413.989 106.404L412.228 107.997L417.56 115.039L413.989 106.404ZM411.938 108.254L409.16 110.732V111.153L417.628 115.749L411.938 108.254ZM417.657 116.252L409.083 111.606L406.953 117.774L417.657 116.252ZM408.783 111.112L407.573 112.212L408.783 111.184V111.112ZM401.263 116.612L403.934 116.797L404.747 114.823L404.863 114.258V114.186L404.989 113.6L401.263 116.612ZM404.311 116.91L406.547 117.805L408.579 111.904L405.25 114.607L404.311 116.91ZM405.366 113.672L408.773 110.588V110.403L405.492 113.127L405.366 113.672ZM405.579 112.479L408.725 109.868L408.589 103.875L407.524 103.042L405.579 112.479ZM407.612 102.497L411.986 102.405L407.95 99.7524L407.612 102.497ZM405.241 90.3357L405.337 90.4796L407.96 99.2795L412.509 102.281L414.038 98.2618L403.218 84.2292L405.25 90.1918C405.271 90.2364 405.277 90.2867 405.27 90.3357H405.241ZM401.757 84.2909L404.379 88.8348L402.492 83.2834L402.444 83.232L406.412 68.1405L396.173 69.4564L401.011 80.0451C401.025 80.0849 401.025 80.1287 401.011 80.1685L401.757 84.2909ZM396.056 70.1349V71.5125L399.085 76.6526L396.056 70.1349ZM394.556 78.4619L401.331 83.9002L400.702 80.2096L395.95 72.0882L394.556 78.4619ZM395.66 70.9573V69.3741L392.03 65.4985L395.66 70.9573ZM391.576 64.5424L395.95 69.076L406.092 67.7704L386.504 53.0285L391.576 64.5424ZM391.101 64.4293L385.963 52.7612L376.285 62.4761C376.275 62.5211 376.251 62.5611 376.217 62.5891L391.101 64.4293ZM376.043 62.1985L385.575 52.5864L375.278 51.7229L376.043 62.1985ZM374.882 51.5892C374.834 51.5596 374.8 51.5117 374.785 51.4556L374.678 50.9313L370.178 37.6594L375.578 60.6976L374.882 51.5892ZM375.578 62.4144L369.007 34.2361L356.31 55.8247L375.578 62.4144ZM368.456 34.4006L347.406 57.7368L355.836 55.7836C355.862 55.7276 355.907 55.6837 355.962 55.6602L368.456 34.4006ZM386.843 115.615L383.756 107.391L374.872 117.301L386.843 115.615ZM371.581 115.265L374.194 117.167L375.994 105.859L371.581 115.265ZM376.594 104.625L374.659 116.962L383.601 106.979L375.665 97.0796L376.594 104.625ZM383.65 106.455L383.795 101.85L386.137 97.7375L375.588 96.3908L383.65 106.455ZM375.278 95.5786L379.227 83.1395L368.397 72.6947L375.278 95.5786ZM367.962 81.5871L374.34 93.7899L368.02 72.6947L367.962 81.5871ZM367.855 71.7592L375.24 63.0312L359.407 72.5816L367.855 71.7592ZM358.933 72.4068L375.056 62.6714L356.223 56.2462L358.933 72.4068ZM358.478 72.0265L355.836 56.2462L347.203 58.2406L358.478 72.0265ZM368.552 33.7323L352.516 22.424L352.72 22.9072L352.197 22.3007L347.126 57.4696L368.552 33.7323ZM346.729 57.5826L351.81 22.3212L331.419 35.5828L346.729 57.5826ZM346.158 57.449L332.145 37.3202L339.306 53.4088H339.403L346.158 57.449ZM333.141 66.3106L342.045 63.5863L328.119 64.1826L333.141 66.3106ZM343.322 63.1237L339.142 54.0565L327.809 63.7817L343.322 63.1237ZM327.17 63.7919L338.938 53.6864C338.924 53.6467 338.924 53.6028 338.938 53.563L330.964 35.6445L325.728 26.2997L321.944 43.622L322.051 43.879H321.828L321.596 44.2285L304.95 48.2276L305.076 48.2893H304.786L311.56 55.9275L311.947 58.878L327.17 63.7919ZM325.544 63.6891L311.86 59.2481L307.776 62.3321L325.544 63.6891ZM307.157 62.3321L311.589 58.9294L311.25 56.3285L301.65 61.849L307.157 62.3321ZM310.95 56.0406L299.889 51.5275L298.35 57.634L301.05 61.7462L310.95 56.0406ZM300.731 62.1471L295.892 61.2219L299.976 64.3676L300.731 62.1471ZM299.763 64.7583L295.215 61.2527L297.063 71.6667L299.763 64.7583ZM296.976 73.6919L294.344 93.0086L299.55 86.0591L296.976 73.6919ZM299.676 86.5011L294.363 93.6357L304.041 93.7282L299.676 86.5011ZM304.515 96.2366L304.273 94.5814L301.679 99.3207L304.515 96.2366ZM303.866 94.5198L295.156 100.842L300.586 100.441L303.866 94.5198ZM300.586 100.852L294.982 101.264L301.524 107.308L300.586 100.852ZM294.508 101.377L291.285 104.738L291.489 106.075L300.924 107.288L294.508 101.377ZM289.669 108.203L299.666 107.535L291.314 106.507L288.411 106.414L289.669 108.203ZM290.056 101.695C290.046 101.717 290.031 101.736 290.012 101.75C289.994 101.764 289.972 101.774 289.95 101.778L288.305 105.962L291.101 106.054L290.879 104.594L294.285 101.109L294.402 101.027L293.898 94.5506L290.056 101.695ZM289.408 83.0572L296.56 72.5508L288.769 71.4097L289.408 83.0572ZM289.679 93.0908L289.069 83.7049L287.066 80.9189L289.679 93.0908ZM286.853 79.9526L289.108 82.975L288.469 71.3377H288.421V71.2657L279.343 66.1256L286.853 79.9526ZM288.479 70.8648L290.511 61.263L279.169 65.4985L288.479 70.8648ZM278.801 65.0564L278.898 65.2209L290.511 60.8621L276.207 49.6051L278.801 65.0564ZM255.052 43.9613L255.129 44.4341V44.6603L278.308 64.5732L275.714 49.1528L275.056 44.5267L278.927 41.6173L270.449 36.2202L270.352 36.323L263.355 18.9698H263.317C263.291 18.9685 263.266 18.9619 263.243 18.9503C263.22 18.9387 263.2 18.9225 263.183 18.9024C263.166 18.8824 263.152 18.8589 263.144 18.8334C263.135 18.808 263.132 18.781 263.133 18.7539C263.133 18.7197 263.142 18.6862 263.159 18.6572C263.176 18.6281 263.201 18.6047 263.23 18.5895V18.4969H263.355L264.836 4.45404L249.681 14.94L255.052 43.9613ZM249.497 15.968L247.378 26.9473L254.607 43.6734L249.497 15.968ZM254.607 44.6295L247.165 27.4614L246.294 29.6613C246.334 29.6824 246.365 29.7192 246.381 29.7641L253.407 45.7603L254.607 44.6295ZM254.771 53.7789L253.581 50.0472L253.368 49.2042L253.32 48.0425L253.068 49.7285V53.6042L254.607 55.2799L254.771 53.7789ZM253.968 58.9705L249.71 58.3331V62.5378L253.968 58.9705ZM249.584 57.9425L254.268 58.6518L254.558 55.8453L252.778 53.9331L245.229 53.563L247.455 56.6471L249.584 57.9425ZM249.284 62.8153V58.2611L247.397 57.12L246.661 59.5462L248.229 62.9284L249.284 62.8153ZM247.881 62.9695L246.371 59.7312L245.8 59.577L243.603 60.605L238.261 64.0592L247.881 62.9695ZM234.835 59.3303L237.477 64.0387L243.071 60.3583L238.687 58.3023L234.719 56.5443L234.835 59.3303ZM212.354 38.1529C212.805 39.7815 213.585 41.2863 214.638 42.5631L222.912 42.9127L211.299 29.5483C211.473 31.2445 212.025 36.2819 212.354 38.1529ZM211.231 28.7258V28.8184L223.454 42.9332V42.9949L234.584 56.0714L238.174 57.6546L220.803 31.3987C220.785 31.3806 220.772 31.3589 220.762 31.3351C220.753 31.3113 220.748 31.2857 220.748 31.2599C220.748 31.2341 220.753 31.2086 220.762 31.1847C220.772 31.1609 220.785 31.1393 220.803 31.1211C220.839 31.0835 220.887 31.0624 220.938 31.0624C220.989 31.0624 221.037 31.0835 221.073 31.1211L238.416 57.2742L236.219 43.9098C236.214 43.8792 236.214 43.8479 236.219 43.8173L235.851 39.2426V39.0061L237.313 38.5435L231.632 35.9015L237.187 36.323V32.9305L233.384 28.9623L233.287 28.8595L233.045 24.2848L220.386 25.5184L220.115 25.395C220.111 25.3747 220.111 25.3536 220.115 25.3333L227.79 17.582L233.132 17.9418L237.39 14.8577L236.887 10.8792L225.854 8.48392L227.935 10.3549L230.374 10.0568L235.513 11.4549L226.309 12.7297L219.331 15.6287L212.954 12.1129L213.418 14.4465L217.59 19.3296C217.617 19.3619 217.633 19.4041 217.633 19.4479C217.633 19.4917 217.617 19.5338 217.59 19.5661C217.596 19.5822 217.6 19.5998 217.6 19.6175C217.6 19.6352 217.596 19.6528 217.59 19.6689C217.59 19.718 217.571 19.765 217.538 19.7997C217.506 19.8344 217.462 19.8539 217.415 19.8539L214.793 19.6997L210.389 21.7558L209.422 28.7464L211.231 28.7258ZM220.967 25.0146L233.006 23.853L232.706 18.1988L220.967 25.0146ZM232.222 17.9932L227.867 17.7054L221.219 24.3773L232.222 17.9932ZM209.963 21.7661L203.963 25.4156L202.308 26.053L208.976 28.4894L209.963 21.7661ZM183.417 29.9903L203.741 27.9342L207.36 28.3455L201.679 26.2894L192.524 26.1352L187.25 28.3763L182.314 27.5333L183.417 29.9903ZM178.579 28.3146L182.905 29.8567L181.782 27.3791L171.601 10.9306L178.579 28.3146Z" fill="url(#paint3_radial_202_3415)" stroke="url(#paint4_radial_202_3415)"/>
<defs>
<filter id="filter0_f_202_3415" x="0.015625" y="-352" width="683.16" height="683.161" filterUnits="userSpaceOnUse" color-interpolation-filters="sRGB">
<feFlood flood-opacity="0" result="BackgroundImageFix"/>
<feBlend mode="normal" in="SourceGraphic" in2="BackgroundImageFix" result="shape"/>
<feGaussianBlur stdDeviation="125" result="effect1_foregroundBlur_202_3415"/>
</filter>
<radialGradient id="paint0_radial_202_3415" cx="0" cy="0" r="1" gradientUnits="userSpaceOnUse" gradientTransform="translate(487.168 49.2089) rotate(-155.477) scale(199.459 142.72)">
<stop stop-color="#C6B38A"/>
<stop offset="0.463601" stop-color="#F3C691"/>
<stop offset="1" stop-color="#B4703E"/>
</radialGradient>
<radialGradient id="paint1_radial_202_3415" cx="0" cy="0" r="1" gradientUnits="userSpaceOnUse" gradientTransform="translate(103.706 87.3699) rotate(-17.6605) scale(251.862 137.96)">
<stop stop-color="#C6B38A"/>
<stop offset="0.463601" stop-color="#F3C691"/>
<stop offset="1" stop-color="#B4703E"/>
</radialGradient>
<radialGradient id="paint2_radial_202_3415" cx="0" cy="0" r="1" gradientUnits="userSpaceOnUse" gradientTransform="translate(96.7104 87.8998) rotate(-17.7155) scale(258.573 142.019)">
<stop stop-color="#C6B38A"/>
<stop offset="0.463601" stop-color="#F3C691"/>
<stop offset="1" stop-color="#B4703E"/>
</radialGradient>
<radialGradient id="paint3_radial_202_3415" cx="0" cy="0" r="1" gradientUnits="userSpaceOnUse" gradientTransform="translate(96.7104 87.8998) rotate(-17.7155) scale(258.573 142.019)">
<stop stop-color="#C6B38A"/>
<stop offset="0.463601" stop-color="#F3C691"/>
<stop offset="1" stop-color="#B4703E"/>
</radialGradient>
<radialGradient id="paint4_radial_202_3415" cx="0" cy="0" r="1" gradientUnits="userSpaceOnUse" gradientTransform="translate(96.7104 87.8998) rotate(-17.7155) scale(258.573 142.019)">
<stop stop-color="#C6B38A"/>
<stop offset="0.463601" stop-color="#F3C691"/>
<stop offset="1" stop-color="#B4703E"/>
</radialGradient>
</defs>
</svg>
