<svg width="166" height="80" viewBox="0 0 166 80" fill="none" xmlns="http://www.w3.org/2000/svg">
<g opacity="0.15">
<path d="M6.11032 17.1825L12.1395 24.9956L28.0401 21.9115L38.8114 14.7153L42.9631 13.6872L43.5341 4.79477L64.196 -17.8219L64.6315 -18.4696C64.6551 -18.507 64.6902 -18.5346 64.7307 -18.5477C64.7713 -18.5608 64.8149 -18.5586 64.8541 -18.5415L64.9702 -18.6752L71.6575 -24.1957L71.7447 -24.4733L71.793 -24.4116L76.9029 -33.191H76.9706L97.9422 -42.4432V-42.5049H98.1939L98.4745 -42.6283L107.504 -52.189L122.988 -46.7301L139.537 -21.9957L140.021 -21.2658L161.428 1.11442L184.926 5.13401L199.81 11.6414L222.262 9.85268L231.408 27.5348C231.412 27.5551 231.412 27.5762 231.408 27.5965V27.5965L237.553 51.344V51.4057L234.572 60.8841L227.991 49.9356L230.604 43.7674L225.862 22.3227L216.446 15.1265L208.326 18.7965L215.294 33.96L216.881 55.415L229.811 66.528L229.859 66.4046V66.6L230.043 66.7542L233.053 78.9877L232.937 84.9914L244.105 96.5979L243.689 103.794V103.866L248.344 115.956L239.856 115.565L232.937 116.86L232.598 108.502L234.534 98.4175L223.772 82.4316V82.4933L223.607 82.1643L209.159 71.2981L207.572 78.0317L213.049 93.2568L216.262 97.9549L213.639 108.112L217.733 114.702L212.362 116.542H212.13L203.42 116.182L204.329 111.042L208.607 102.931L202.713 89.3914L199.713 80.5298L184.945 74.8037L178.422 69.6635H178.345H178.287L174.338 62.3234L166.044 66.4355L157.973 63.4234L156.328 66.1168H144.628L143.902 66.3327L137.263 71.5756L132.705 69.4168L132.134 65.1196H132.085V65.0579L130.372 64.1841L130.314 64.4103L130.217 64.2355L127.779 67.0626L129.434 75.2868L130.024 86.5952L135.443 93.9353L131.263 100.422L132.753 106.724L122.862 108.482H122.804H122.756L119.436 106.981L121.585 102.201L119.378 83.9325L112.73 67.556L96.1519 53.8524L87.0258 44.8263L84.2676 45.0833V45.145H84.1418L83.6579 46.944H83.7934L83.6482 47.0879L86.3483 54.5823L82.9514 61.8607L70.3027 64.4617L66.1219 60.2467L66.2961 57.9439L55.6506 42.5235L55.5925 42.4412L47.1826 43.2431H47.0955L43.3405 39.131L42.9534 29.5703L32.8886 27.3806L16.8623 30.2385L9.8556 28.8096L9.57494 28.861C9.52911 28.868 9.48243 28.8573 9.44336 28.8309C9.4043 28.8045 9.37544 28.7641 9.36203 28.717H9.30396L6.11032 17.1825ZM23.6754 25.8077L27.2562 22.5077L10.804 27.9769L23.6754 25.8077ZM55.3022 41.7525L48.8375 32.0684L47.3568 42.4927L55.3022 41.7525ZM131.04 101.111L130.885 100.474L131.04 101.111ZM130.537 100.803L123.356 107.649L132.182 106.087L130.537 100.803ZM130.788 99.9184L129.579 86.4512L123.327 76.4382L130.672 99.9493L130.788 99.9184ZM123.153 77.1476L122.02 101.132L130.285 99.9904L123.153 77.1476ZM122.988 75.1532L127.179 66.9289L113.94 67.2785L122.988 75.1532ZM127.227 66.528L124.701 54.4692L113.339 66.8056L113.456 66.8981L127.227 66.528ZM136.014 39.6142L125.05 54.1916V54.2739L130.13 63.1252L136.014 39.6142ZM132.927 68.7794L142.924 65.9215L132.55 64.8934H132.424L132.927 68.7794ZM208.83 103.218L204.049 115.349L213.107 108.05L208.83 103.218ZM212.014 116.1L213.194 108.482L204.136 115.781L212.014 116.1ZM212.652 93.483L200.691 81.4858L213.214 107.187L212.652 93.483ZM243.553 104.329L238.182 111.761L247.86 115.493L243.553 104.329ZM237.96 111.402L243.282 104.051L235.124 98.911L237.96 111.402ZM243.127 103.486L233.198 86.0606L235.008 98.3044L243.127 103.486ZM208.094 18.4265L215.836 14.9517L200.352 12.1555L208.094 18.4265ZM226.201 22.076L230.45 26.5171L222.069 10.3667L216.756 14.8592L226.201 22.076ZM185.187 5.62747H185.129L153.125 15.5171L198.968 11.6312L185.187 5.62747ZM77.1642 -32.8312L72.2672 -24.5144L91.5646 -31.6284L77.1642 -32.8312ZM43.2341 28.9432H61.796L41.0953 22.1993L43.2341 28.9432ZM136.256 38.7712L106.197 52.9477L124.759 53.9758L136.256 38.7712ZM204.358 68.8925L210.165 60.4935L180.096 69.2009L204.358 68.8925ZM216.746 67.7102L229.221 66.8775L211.085 60.514L216.746 67.7102ZM139.102 -21.5125L126.404 -18.8602L140.524 -11.8182L139.276 -21.3892L139.102 -21.5125ZM100.129 -35.5554L92.6775 -31.6489L104.494 -30.6209L100.129 -35.5554ZM76.9029 -18.0789L91.5743 -31.2069L72.1414 -24.0106L76.9029 -18.0789ZM63.9638 34.1759L75.1125 27.7713L63.2766 29.2619L63.9638 34.1759ZM55.8925 21.4797L75.5093 27.1133L60.8088 10.0891L55.8925 21.4797ZM60.4507 9.98632L43.9115 13.8928L55.5441 21.2947L60.4507 9.98632ZM56.328 21.9834L63.1508 28.8815H63.2476L75.1222 27.3909L56.328 21.9834ZM55.5828 21.7881L41.9857 22.0554L62.3863 28.6451L55.5828 21.7881ZM54.9828 21.3872L43.5728 14.191L41.0566 21.7059L54.9828 21.3872ZM60.6443 9.53399L63.3541 0.559282L44.347 13.348L60.6443 9.53399ZM61.0701 9.43118H61.1185L61.012 9.68819L75.3931 26.3423L63.7799 0.641523L61.0701 9.43118ZM75.9351 26.6404L76.9029 6.41905L64.138 0.487317L75.9351 26.6404ZM94.1486 15.4966L77.8706 6.90223L86.0386 15.5274L94.1486 15.4966ZM136.905 37.9693L137.514 37.6712L137.418 37.7946L150.231 33.6824L132.53 32.2226L107.214 51.9608L136.247 38.2777V38.1955L136.905 37.9693ZM161.244 43.5104L143.95 50.9842L155.292 56.9982L161.244 43.5104ZM175.393 30.8245L175.296 30.732H175.403L171.832 22.9189L162.26 42.359L175.393 30.8245ZM161.844 43.2328L158.264 61.8402L174.967 31.7292L161.844 43.2328ZM210.455 59.6196L209.71 45.3814L194.671 52.8758L210.426 59.7636L210.455 59.6196ZM194.274 52.6393L209.149 45.2272L188.458 43.6132L194.274 52.6393ZM188.197 42.7908L192.716 35.9235L187.374 28.4909L188.197 42.7908ZM186.968 28.1105L176.061 30.9479L187.819 42.8833L186.968 28.1105ZM187.035 27.6684L198.649 13.276L176.583 30.403L187.035 27.6684ZM147.676 4.6714H147.608L129.356 10.7368L150.996 15.7022L147.676 4.6714ZM132.666 31.8217L150.754 33.3226L128.979 11.662L132.666 31.8217ZM128.456 10.5209L130.672 -2.27808L108.181 7.45737L128.456 10.5209ZM129.743 -2.35005L106.372 -0.561271L107.61 7.22092L129.743 -2.35005ZM97.3906 -25.2751L96.9938 -17.3079L104.668 -29.8293L97.3906 -25.2751ZM97.0132 -25.3265L93.084 -30.3742L96.6261 -17.7705L97.0132 -25.3265ZM96.9067 -16.4135L90.3936 0.0349845L113.533 -18.8602L97.0809 -16.5163L96.9067 -16.4135ZM107.243 7.42652L106.052 -0.0369773L95.697 14.9723L106.904 7.67325H106.73L107.243 7.42652ZM113.33 -18.192L90.6839 0.312553L106.072 -1.06501L113.33 -18.192ZM105.742 -0.293985L105.83 -0.50987L104.388 -0.396786L104.91 -0.561271L90.2291 0.734046L94.9712 15.291L105.742 -0.293985ZM114.259 -18.963L113.969 -18.7266L106.672 -1.49678L125.398 -18.7677L114.259 -18.963ZM125.204 -19.1789L116.291 -24.9667L114.472 -19.3023L125.204 -19.1789ZM95.126 15.7741L93.4905 27.0825L106.71 8.26951L95.126 15.7741ZM89.8904 0.92937C89.8904 0.92937 89.842 0.92937 89.813 0.92937C89.7721 0.943506 89.728 0.943506 89.6871 0.92937L77.6577 6.25457L94.5454 15.2396L89.8904 0.92937ZM89.8323 0.405076L96.1615 -15.5808L77.8223 5.75084L89.8323 0.405076ZM92.4646 -31.1349L80.0094 -0.088378L96.5486 -16.6294L92.4646 -31.1349ZM97.2261 -25.6555L104.417 -30.1069L92.9389 -31.1349L97.2261 -25.6555ZM105.152 -29.9115L97.2261 -17.0098L115.672 -25.3162L105.239 -29.9218L105.152 -29.9115ZM98.4358 -17.1126L113.804 -19.3125H114.056L115.875 -24.9667L98.4358 -17.1126ZM116.582 -25.2854L125.853 -19.1995L125.437 -31.5358L116.572 -25.3676H116.659L116.582 -25.2854ZM106.904 -1.16781L140.234 -11.6023L125.93 -18.7369L106.904 -1.16781ZM107.872 -1.05473L130.827 -2.80238L139.944 -11.0266L107.872 -1.05473ZM128.843 10.4592L147.231 4.36299L131.098 -2.35005L128.843 10.4592ZM128.843 11.0144L151.092 33.0965V16.1545L128.843 11.0144ZM151.421 33.4768L161.225 42.6674L151.421 16.9667V33.4768ZM161.622 42.6469L171.59 22.5283L151.605 16.2676L161.622 42.6469ZM176.39 29.9507L176.312 30.0946L199.258 12.2583L172.093 22.5386L175.741 30.5469L176.39 29.9507ZM161.167 43.1095L151.489 34.0114L151.363 33.8778L143.921 50.5524L161.167 43.1095ZM132.298 31.9245L128.524 11.3639L106.352 52.1356L132.298 31.9245ZM107.726 7.79661L113.533 27.5245L128.195 10.891L107.726 7.79661ZM107.388 7.99194L93.6744 27.5245L113.185 27.7199L107.388 7.99194ZM93.0453 27.5245L94.7196 15.9797C94.6783 15.962 94.6417 15.9338 94.6131 15.8975H86.3387L93.026 27.5554L93.0453 27.5245ZM77.3964 6.90223L81.2095 30.5469L85.7774 15.733L77.3964 6.90223ZM93.2486 -12.7846L79.6513 0.795729L79.5546 1.01161L77.7739 5.21626L93.2486 -12.7846ZM79.3901 0.405076L91.9711 -31.0527L77.0868 -17.7705L79.3901 0.405076ZM105.123 -30.4358L121.808 -45.7124L100.517 -35.7302L105.123 -30.4358ZM105.578 -30.3125L125.408 -32.0396L122.775 -46.0208L105.578 -30.3125ZM106.101 -29.9527L116.165 -25.5013L124.875 -31.5975L106.101 -29.9527ZM125.843 -31.4639L126.259 -19.292L138.676 -21.8826L125.843 -31.4639ZM140.776 -11.2836L131.369 -2.75098L160.402 0.980775L140.776 -11.2836ZM132.385 -2.2164L147.792 4.16767L160.131 1.35086L132.385 -2.2164ZM151.421 15.7125L184.326 5.52467L148.034 4.69196L151.421 15.7125ZM171.87 22.189L198.368 12.1657L152.341 16.0723L171.87 22.189ZM187.355 27.8638L192.813 35.4404L199.384 12.8956L187.355 27.8638ZM188.323 43.2123L208.859 44.8057L193.036 36.1805L188.323 43.2123ZM210.581 60.586L209.255 70.7326L216.243 67.7822L210.581 60.586ZM209.952 60.0617L194.216 53.1636L179.293 68.985L209.952 60.0617ZM187.993 43.8188L174.967 61.3878L193.887 52.8449L187.993 43.8188ZM175.722 31.1638L158.38 62.4159L187.732 43.3459L175.722 31.1638ZM161.099 44.7235L155.573 57.2757L157.751 62.4159L161.099 44.7235ZM154.75 57.2038L143.524 51.2103L132.656 64.4719L154.75 57.2038ZM133.459 64.6056L143.553 65.6336L154.199 57.8411L133.459 64.6056ZM150.879 33.888L136.982 38.36L136.885 38.473V38.6375L143.486 50.5319L150.879 33.888ZM127.575 12.1657L113.678 27.9666V28.0899H113.572L106.139 51.7346L127.575 12.1657ZM93.1421 27.9049L83.1934 30.989L110.001 28.0797L93.1421 27.9049ZM92.5905 27.6582L86.0483 16.1545L81.4417 31.0712L92.5905 27.6582ZM77.1642 8.12558L76.2545 27.103L76.3609 27.0311L76.2641 27.3806L80.8417 30.9273L77.1642 8.12558ZM76.1964 27.8329V27.9357L76.1093 27.8432L71.8704 42.2356L80.774 31.5133C80.7643 31.4907 80.7594 31.4661 80.7594 31.4413C80.7594 31.4165 80.7643 31.392 80.774 31.3694L76.1964 27.8329ZM63.925 34.5768L63.1121 44.0861L71.4156 42.431L75.7028 27.8638L63.925 34.5768ZM63.4218 44.4356L74.9673 54.2533L71.5027 42.8833L63.4218 44.4356ZM62.725 44.0655L63.5089 34.9263L56.0377 41.8553L62.725 44.0655ZM63.5379 34.3712L62.8799 29.6628L56.3861 40.9712L63.5379 34.3712ZM62.5702 29.3544L48.9439 31.688L55.6119 41.5571L62.5702 29.3544ZM42.9921 14.2527L25.1464 25.5096L40.6307 21.6956L42.9921 14.2527ZM63.567 -0.0266987L64.4767 -17.5957L44.2309 12.9779L63.567 -0.0266987ZM77.0093 6.0284L79.09 1.1247L64.7864 0.343393L77.0093 6.0284ZM79.0416 0.734046L76.7577 -17.3079L64.1283 -0.0986605L79.0416 0.734046ZM76.6416 -17.7705L71.8898 -23.6714L64.3218 -1.02389L76.6416 -17.7705ZM99.8681 -35.8022H99.9552L98.2326 -41.4358L92.9582 -32.1321L99.8681 -35.8022ZM98.4939 -41.9703L100.304 -36.0386L122.117 -46.2983L98.6681 -42.2582L98.4939 -41.9703ZM125.775 -31.9779L139.102 -22.006L123.201 -45.8357L125.775 -31.9779ZM139.808 -21.0294L139.692 -21.1219L140.931 -11.664L141.289 -11.4892H141.231L160.131 0.302275L139.808 -21.0294ZM149.002 4.31159L182.138 5.06205L161.331 1.50507L149.002 4.31159ZM221.585 10.3153L201.368 11.919L216.446 14.6536L221.585 10.3153ZM199.994 12.3714L193.336 35.2245L207.852 18.6937L199.994 12.3714ZM209.768 44.8057L214.888 34.2684L193.597 36.0572L209.768 44.8057ZM214.985 34.9675L210.146 44.9908L210.32 45.0936L210.175 45.1655L216.485 54.829L214.985 34.9675ZM216.514 55.6617L210.088 45.8132L210.833 59.9794L229.056 66.3635L216.514 55.6617ZM216.969 67.9981L223.811 81.5989L229.559 67.1551L216.969 67.9981ZM224.091 81.9485L232.617 84.7755L229.714 67.7411L224.091 81.9485ZM232.714 85.269L224.314 82.483L234.534 97.6568L232.714 85.269ZM216.591 68.1215L209.536 71.1027L223.298 81.455L216.591 68.1215ZM210.262 61.0178L204.775 68.9542L208.984 70.7635L210.262 61.0178ZM199.81 80.0055L204.146 69.2626L179.09 69.5813L199.704 80.0774C199.704 80.0774 199.752 80.0158 199.81 80.0055ZM200.236 80.0672L207.233 78.0111L204.465 69.6121L200.236 80.0672ZM178.519 69.1906L193.316 53.5029L174.648 61.9533L178.519 69.1906ZM187.49 43.9833L158.602 62.7346L174.28 61.7065L187.49 43.9833ZM155.292 57.5327L144.531 65.4383L157.557 62.8374L155.292 57.5327ZM143.302 50.9328L136.808 39.2441L132.55 63.999L143.302 50.9328ZM112.672 66.4252C112.707 66.3933 112.751 66.3758 112.798 66.3758C112.844 66.3758 112.888 66.3933 112.923 66.4252L113.088 66.5794L124.43 54.243L105.849 53.2664L112.672 66.4252ZM105.442 52.7524L113.117 28.3572L87.4516 44.2917L105.442 52.7524ZM112.604 28.2133L81.4417 31.575L87.1032 44.0553L112.604 28.2133ZM80.9095 31.9965L72.3543 42.359L83.6773 44.3534L80.9095 31.9965ZM75.4319 54.4692L83.0289 46.8412L71.9285 42.8833L75.4319 54.4692ZM85.787 54.4692L75.848 54.9627L82.7095 61.0589L85.787 54.4692ZM75.3544 55.0552L75.2576 55.158V55.0346L67.6897 57.3991L82.1482 60.9869L75.3544 55.0552ZM74.9383 54.7057L63.325 44.7132L66.5767 57.1215L66.9445 57.214L74.9383 54.7057ZM62.8218 44.4253L56.1538 42.2356L65.9864 56.5355L62.8218 44.4253ZM48.5181 31.6058L43.4083 29.5189L47.0955 41.6497L48.5181 31.6058ZM48.7504 31.2666L60.6443 29.2105H44.0954L48.7504 31.2666ZM40.7178 22.076L33.3531 26.8255L42.7986 28.8815L40.7178 22.076ZM39.6339 22.2919L25.34 25.818L32.8208 26.6507L39.6339 22.2919ZM12.1589 25.4068L10.0298 27.8843L25.1367 22.8573L12.1589 25.4068ZM9.4685 27.9255L11.8105 25.2217L6.97163 18.9919L9.4685 27.9255ZM28.2239 22.189L25.0593 25.0984L42.4792 14.191L39.0049 15.0442L28.2239 22.189ZM43.9018 4.92841L43.3502 13.5741L62.8024 -15.7864L43.9018 4.92841ZM65.1928 -18.4284L64.8444 -18.0584L63.9734 -1.31174L71.3866 -23.5686L65.1928 -18.4284ZM77.8706 -33.191L92.3872 -31.9882L98.1068 -42.0834L77.8706 -33.191ZM99.0552 -42.7516L122.108 -46.7096L107.591 -51.8497L99.0552 -42.7516ZM231.64 30.074L234.543 59.4552L237.089 51.3646L231.64 30.074ZM228.408 49.8842L234.214 59.5682L231.311 30.6395L230.972 43.7057L228.408 49.8842ZM230.643 42.1637L231.011 27.6993L226.327 22.8059L230.643 42.1637ZM207.978 18.9919L193.423 35.6871L214.81 33.8778L207.978 18.9919ZM230.343 69.2934L232.714 83.0587L232.782 79.07L230.343 69.2934ZM243.795 96.7727L233.769 86.3587L243.447 103.249L243.795 96.7727ZM239.924 115.277L246.921 115.596L237.901 112.121L237.737 112.337V112.275L233.788 116.387L239.914 115.246L239.924 115.277ZM233.072 108.626L233.392 116.264L237.66 111.761L234.843 99.425L233.072 108.626ZM208.878 71.1953L204.755 69.4168L207.397 77.456L208.878 71.1953ZM207.31 78.3915L200.236 80.4475L212.391 92.6708L207.31 78.3915ZM215.875 98.0474L213.078 94.0689L213.601 106.858L215.875 98.0474ZM213.678 108.883V109.068L213.543 108.79L212.41 116.12L217.23 114.486L213.678 108.883ZM204.136 114.167L207.33 106.066L204.668 111.103L204.136 114.167ZM203.071 89.2475L208.955 102.766L212.662 106.96L200.826 82.6372L203.071 89.2475ZM185.1 74.4438L196.249 78.7718L180.125 70.5476L185.1 74.4438ZM173.341 62.1075L158.747 63.1355L165.938 65.8084L173.341 62.1075ZM157.402 63.2589L146.263 65.5H156.047L157.402 63.2589ZM142.818 66.343L133.353 69.057L137.127 70.8457L142.818 66.343ZM132.066 64.2869L136.131 40.8992L130.411 63.5159L132.066 64.2869ZM125.291 55.3636L127.566 66.2196L129.908 63.5159L125.291 55.3636ZM127.382 67.2168L123.191 75.441L129.501 85.5568L128.95 74.999L127.382 67.2168ZM134.872 93.5652L129.976 86.9447L131.098 99.5175L134.872 93.5652ZM119.843 106.374L122.678 107.659L130.421 100.278L121.875 101.46V101.81V101.872L119.843 106.374ZM119.63 83.398L121.653 100.062L122.785 75.9859L122.698 75.7186C122.684 75.6708 122.688 75.6193 122.707 75.5739C122.727 75.5285 122.761 75.4922 122.804 75.4719V75.4719L113.32 67.2476H113.059L119.63 83.398ZM96.297 53.143L112.159 66.2607L105.384 53.2253C105.355 53.2275 105.326 53.2209 105.301 53.2063C105.275 53.1918 105.254 53.1699 105.239 53.143C105.228 53.1209 105.222 53.0962 105.222 53.0711C105.222 53.046 105.228 53.0213 105.239 52.9991L87.9839 44.888L96.297 53.143ZM86.6967 44.0347L81.3256 32.2021L84.0741 44.2814L86.6967 44.0347ZM83.6773 44.6618L73.0318 42.8833L83.2708 46.502L83.6773 44.6618ZM75.7996 54.5103L85.787 54.0066L83.2708 47.0057L75.7996 54.5103ZM70.3317 63.6495L81.8579 61.3878L66.9058 57.6767L66.6251 57.7692L66.4703 59.8252L70.3317 63.6495ZM46.8148 42.0609L43.3115 30.5469L43.6405 38.617L46.8148 42.0609ZM16.7558 29.4983L31.4176 26.9694L24.0625 26.1572H23.8593C23.8267 26.1816 23.7878 26.1946 23.748 26.1946C23.7081 26.1946 23.6693 26.1816 23.6367 26.1572L10.9105 28.3058L16.7558 29.4983Z" fill="url(#paint0_radial_202_3417)"/>
</g>
<g style="mix-blend-mode:overlay">
<path d="M2.53323 9.73812L11.9109 23.853L22.7016 22.5885L30.2309 19.9259L42.3183 12.8016L43.4313 4.68021L55.1317 -19.828L55.1897 -19.9514L58.5382 -19.4888L59.1189 -22.1617L64.7997 -18.9542L70.9257 -27.7953L70.7709 -27.8981L71.0418 -27.9597L71.7773 -28.8336L93.349 -41.3344L107.266 -52.1493L107.44 -52.2829C107.49 -52.3036 107.545 -52.3036 107.595 -52.2829L123.679 -55.8091L138.999 -23.5598L161.374 -15.3355L161.877 -15.2533L145.338 -4.17113L147.612 2.46995C147.612 2.46995 147.612 2.46995 147.612 2.52135L149.131 20.5222L156.699 25.5801L182.529 21.7969L182.365 21.6838H182.587L172.91 10.7764C172.905 10.7527 172.905 10.7282 172.91 10.7045C172.947 10.6904 172.988 10.6904 173.026 10.7045V10.7045L177.865 10.6222L171.545 -4.03748L153.467 0.290523L151.415 -3.73935C151.393 -3.78641 151.387 -3.84065 151.4 -3.89181C151.412 -3.94297 151.442 -3.98748 151.483 -4.01692C151.527 -4.04098 151.578 -4.04694 151.627 -4.03368C151.675 -4.02042 151.717 -3.98885 151.744 -3.94496L153.68 -0.470217L171.642 -4.76738H171.739L178.194 10.211L182.423 10.1391L195.642 9.98485L175.484 -2.69077L177.787 -7.3169C177.812 -7.36435 177.852 -7.40021 177.901 -7.41735C177.949 -7.4345 178.002 -7.43166 178.048 -7.40942C178.093 -7.38334 178.126 -7.33955 178.141 -7.28757C178.155 -7.23558 178.15 -7.17962 178.126 -7.13186L175.987 -2.84497L196.33 9.98485H196.417C196.44 9.94743 196.475 9.91983 196.516 9.90671C196.556 9.8936 196.6 9.89578 196.639 9.91289L196.949 10.0363L203.481 10.725H203.569H204.41L219.314 5.5232L219.45 5.45124L228.973 18.9287L237.044 16.7698C237.093 16.7572 237.144 16.7651 237.187 16.792C237.231 16.8188 237.262 16.8625 237.276 16.9138C237.282 16.9401 237.283 16.9674 237.278 16.994C237.274 17.0207 237.265 17.0462 237.252 17.0691C237.238 17.092 237.221 17.1119 237.2 17.1276C237.179 17.1433 237.156 17.1544 237.131 17.1605L229.089 19.3091L230.656 44.8042C230.662 44.8279 230.662 44.8525 230.656 44.8762L240.45 49.05C240.498 49.0705 240.536 49.1102 240.556 49.1603C240.575 49.2104 240.576 49.2668 240.557 49.3173C240.544 49.3526 240.521 49.3831 240.492 49.405C240.463 49.4269 240.428 49.4393 240.392 49.4406H240.315L230.405 45.3285H230.347H230.26L229.834 45.0921H229.737L228.711 38.0398L225.614 24.6137L217.321 16.1736L208.998 18.4147L209.162 18.5997C209.188 18.6369 209.202 18.682 209.202 18.7282C209.202 18.7745 209.188 18.8196 209.162 18.8567L212.162 24.9221C212.208 24.9446 212.244 24.985 212.262 25.0349C212.28 25.0848 212.279 25.1402 212.259 25.1894C212.247 25.2255 212.225 25.2568 212.195 25.2789C212.166 25.301 212.131 25.3128 212.095 25.3128H211.988L209.085 31.3062V31.4501L211.872 32.1697L213.111 36.6005C213.12 36.6272 213.12 36.6562 213.111 36.6828L217.224 52.2986L237.692 67.719L242.812 67.0508C242.837 67.048 242.863 67.0505 242.887 67.0583C242.912 67.0661 242.935 67.0789 242.954 67.0962C242.974 67.1134 242.991 67.1346 243.003 67.1585C243.015 67.1825 243.022 67.2088 243.025 67.2358C243.028 67.2884 243.013 67.3403 242.983 67.382C242.952 67.4236 242.909 67.4521 242.86 67.462L237.857 68.0994L233.908 83.16L245.521 98.2104L243.925 102.415L249.518 102.302L245.309 106.116L249.605 116.52L237.653 118.267L235.031 117.239L231.247 116.972L236.144 112.922L238.244 102.713L238.641 99.4852L236.037 90.7263L232.466 84.5581L225.169 78.6778L226.679 71.6564L222.179 65.0359C222.168 65.0119 222.162 64.9855 222.162 64.9588C222.162 64.932 222.168 64.9057 222.179 64.8817L206.946 63.0004L199.31 72.0265L210.624 82.975L210.72 83.0675L206.578 95.959L217.011 97.2852L211.804 90.531C211.787 90.5129 211.773 90.4912 211.764 90.4674C211.755 90.4436 211.75 90.418 211.75 90.3922C211.75 90.3664 211.755 90.3409 211.764 90.317C211.773 90.2932 211.787 90.2716 211.804 90.2534C211.84 90.2158 211.889 90.1947 211.94 90.1947C211.99 90.1947 212.039 90.2158 212.075 90.2534L217.669 97.5113L215.153 101.983L214.998 106.918L215.056 107L218.385 115.913L205.32 117.712L202.098 115.368L207.246 104.564L206.278 96.5964V96.4936L206.211 96.2777L206.065 95.8151L198.778 81.8647L188.578 79.0788C188.528 79.0651 188.485 79.0309 188.458 78.9837C188.432 78.9365 188.425 78.8801 188.437 78.8269C188.45 78.7737 188.482 78.7282 188.527 78.7002C188.571 78.6722 188.624 78.6642 188.675 78.6778L198.71 81.4329V72.304C198.706 72.2838 198.706 72.2626 198.71 72.2424L189.952 73.0956C189.939 73.1194 189.921 73.1393 189.899 73.1537C189.877 73.1681 189.852 73.1764 189.826 73.1779H189.749C189.726 73.1826 189.703 73.1826 189.681 73.1779V73.1779C189.638 73.1675 189.6 73.142 189.573 73.1056C189.545 73.0692 189.53 73.024 189.53 72.9774C189.53 72.9308 189.545 72.8856 189.573 72.8492C189.6 72.8128 189.638 72.7873 189.681 72.7769L178.068 58.6415L177.816 58.2817L170.606 53.964L174.826 63.1032V63.2882L174.942 63.5452L176.49 69.8265L181.136 68.3564L186.439 72.1498C186.48 72.1792 186.51 72.2245 186.52 72.2762C186.531 72.3279 186.523 72.3821 186.497 72.4274C186.481 72.4555 186.458 72.4787 186.431 72.4948C186.404 72.511 186.373 72.5197 186.342 72.5199C186.304 72.5292 186.264 72.5292 186.226 72.5199L181.068 68.8293L176.229 70.3611L174.564 63.6275L164.2 66.7938L158.461 64.3676C158.443 64.3966 158.42 64.4211 158.393 64.4396L144.583 72.2629L143.615 75.347C143.603 75.3859 143.58 75.4197 143.548 75.4437C143.517 75.4677 143.479 75.4806 143.441 75.4806H143.373C143.348 75.4737 143.325 75.4614 143.305 75.4443C143.285 75.4273 143.268 75.406 143.257 75.3818C143.245 75.3576 143.238 75.331 143.236 75.3038C143.235 75.2765 143.238 75.2492 143.247 75.2236L144.215 72.1396V72.0573H144.283L157.619 64.3574L138.263 62.9387H138.196L132.128 62.4041L131.111 65.2106L128.208 72.5919L128.353 72.8592H128.218L130.928 86.0591L135.553 93.7282L135.631 93.8516C135.646 93.8982 135.646 93.9488 135.631 93.9955L135.989 96.3394L132.011 100.678L133.028 107.792L120.64 108.614H120.534L118.85 106.167L118.898 106.054L120.834 101.079V95.6917L117.495 80.1273L109.617 65.7349C109.584 65.7135 109.557 65.6832 109.538 65.6471C109.52 65.6111 109.51 65.5705 109.511 65.5293L109.356 65.2518L85.7713 44.979L85.6939 45.1126V45.0098L84.639 46.1304L84.7551 49.122L84.9584 49.9341L86.1681 53.7378L85.6261 58.9499L80.6034 63.1134H80.555L68.3127 64.4704L68.245 64.3676L65.4578 59.3817L65.3319 56.2976L54.2703 43.3033L45.4636 42.9332L45.4055 42.8715C44.2812 41.5255 43.4517 39.9315 42.9764 38.2043C42.57 36.1482 42.0087 30.1342 41.8828 29.0651L40.1796 28.8698C40.1796 28.8698 40.1796 28.8698 40.1118 28.8698H40.0537L34.7407 28.2735L14.3207 30.3296L9.3657 28.5614L0.994458 7.78486L2.53323 9.73812ZM11.7271 24.2848L5.43654 14.8166L13.0239 27.009L21.5209 23.1334L11.7271 24.2848ZM30.4438 20.2651L22.8661 22.9483L13.6626 27.1427L18.2111 27.9137L23.3984 25.7137L36.1149 16.9241L30.4438 20.2651ZM24.1145 25.7034L32.689 25.8371L34.6826 25.066L39.386 15.125L24.1145 25.7034ZM35.2826 24.7576L41.0893 21.2521L45.4346 19.196L40.0634 14.7755L35.2826 24.7576ZM45.8313 19.0726L48.154 19.2166L44.1474 14.539L40.4408 14.6418L45.8313 19.0726ZM42.6861 13.0689L40.7505 14.2409L43.9926 14.097L43.47 11.4858L42.7345 12.9661L42.6861 13.0689ZM58.5092 10.3138L56.5736 8.63813L51.3477 14.2923L58.5092 10.3138ZM53.0219 13.8502L57.1639 12.1232L64.4706 11.0951L61.3157 10.2316L58.906 10.5297L53.0219 13.8502ZM121.327 100.565L124.734 94.0366H124.666L124.831 93.8207L120.63 84.6712L121.347 95.6609L121.327 100.565ZM125.014 93.2656L127.753 73.1367L120.592 83.6535L125.014 93.2656ZM125.266 94.2114L125.779 100.729L134.837 94.1291L125.285 94.0366L125.266 94.2114ZM116.556 -45.3026H116.459L108.524 -37.6027H114.998L116.556 -45.3026ZM115.482 -38.1064L120.04 -43.3802L116.953 -45.3746L115.482 -38.1064ZM81.8809 -8.29353L82.5486 -0.758068L91.5683 -4.6029L81.8809 -8.29353ZM91.1134 -5.20944L87.3294 -8.44773H82.5486L91.1134 -5.20944ZM87.4649 -8.85895L92.1392 -4.83934L94.6361 -5.99074L93.4554 -10.9767L93.407 -11.2131V-11.3159V-11.4496L94.278 -22.7579L78.1453 -22.9121L76.8968 -12.1075L81.7357 -8.88979L87.4649 -8.85895ZM121.801 13.4082L123.66 13.7577L124.095 5.26619L123.573 -3.64683L120.33 8.3914L121.56 13.3054L121.956 13.2231L121.801 13.4082ZM128.315 48.6079L134.683 47.9808L121.511 41.237L119.227 44.2491L128.315 48.6079ZM119.866 44.9996L123.35 48.5565C123.38 48.5573 123.409 48.5651 123.436 48.5793C123.463 48.5935 123.486 48.6138 123.505 48.6388L123.65 48.8547L123.698 48.9164L127.473 48.6593L119.866 44.9996ZM121.172 41.0416L111.282 41.8127L118.85 44.0846L121.172 41.0416ZM121.869 40.579L146.238 29.2707L134.528 21.8175L130.879 22.2698L118.511 34.8837H118.463L108.708 35.5931L110.566 41.3603L110.391 41.4323L121.869 40.579ZM96.562 -12.3954L94.0361 -11.3673L99.9298 -8.0468L107.024 -7.57391L97.0942 -12.4468L96.4845 -12.3337L96.562 -12.3954ZM96.7749 -12.9197L94.5974 -22.2336L93.7941 -11.6655L96.7749 -12.9197ZM93.8716 -10.9664L95.0232 -6.09354L108.243 -6.62812L107.924 -7.07017L99.8621 -7.61503L93.8716 -10.9664ZM108.078 -7.49166L108.949 -6.54588V-6.29915L107.159 8.30916L115.027 -3.37954L119.585 -8.35521L120.766 -17.1551L97.7039 -12.6524L108.078 -7.49166ZM117.427 5.87273V5.96525L120.011 8.02131L123.456 -4.77767L119.818 -7.86176L115.492 -3.13282L117.311 5.4204C117.348 5.43746 117.379 5.46647 117.4 5.50335C117.421 5.54024 117.43 5.58313 117.427 5.626V5.87273ZM115.201 -2.71132L107.304 9.02878H107.401L116.575 11.9689L117.05 5.87273L115.201 -2.71132ZM120.04 -8.22157L123.708 -5.13747L125.711 -7.10101L121.172 -16.6617L120.04 -8.22157ZM131.034 21.8689L134.363 21.4679L133.395 12.8428C132.311 16.6465 131.199 20.7689 131.044 21.838L131.034 21.8689ZM133.444 11.5886L140.605 0.136317L126.04 4.03255L133.444 11.5886ZM129.911 8.50449L130.211 10.5605L130.608 14.2203L133.221 11.8559L129.911 8.50449ZM140.557 -0.326293L133.686 -6.32999L126.089 -6.80289L125.827 3.62134L140.557 -0.326293ZM129.437 8.05215L125.624 4.15592L124.54 5.25591L129.737 10.1596L129.437 8.10355V8.05215ZM125.469 3.81667L125.721 -6.46363L123.892 -4.66458L124.453 4.8961L125.469 3.81667ZM126.05 -7.18326L133.192 -6.7412L121.579 -16.5383L126.05 -7.18326ZM133.86 -6.70008L140.77 -0.716946L139.463 -10.2468L122.053 -16.7439L133.86 -6.70008ZM141.176 -0.295454L143.363 2.39798L140.102 -8.0982L141.176 -0.295454ZM141.38 0.568092L143.731 10.4989L143.818 3.95031L143.634 3.35405L141.38 0.568092ZM140.925 0.321363L133.734 11.8045C133.739 11.8316 133.739 11.8595 133.734 11.8867L142.56 21.9717L143.673 12.0409L140.925 0.321363ZM142.56 22.5268L133.724 12.4521L134.75 21.5193L146.364 28.9006L142.56 22.5268ZM133.028 12.5446L130.55 14.7857L128.363 17.3147C128.721 17.8801 130.105 20.0184 130.715 21.2212C131.16 19.3194 132.447 14.7446 133.028 12.5446ZM130.221 14.6007L129.815 10.8175L124.414 5.6774L123.998 13.9016L128.092 16.9857L130.221 14.6007ZM119.934 8.53533L117.35 6.42786L116.895 12.1129L121.105 13.2848L119.934 8.53533ZM116.488 12.4213L107.275 9.49139H107.091L95.3619 18.5072L120.524 13.5315L116.488 12.4213ZM108.553 -5.8057L96.3974 4.1148L106.801 8.79233L108.553 -5.8057ZM108.398 -6.19635L95.0523 -5.66177L96.3007 3.68302L108.398 -6.19635ZM94.6845 -5.55897L92.6038 -4.6029L92.3134 -4.47954L95.8071 2.95312L94.6845 -5.55897ZM81.4744 -8.10848L70.8289 -0.398255L82.1325 -0.644984L81.4744 -8.10848ZM80.8841 0.218562L61.8964 6.18114L67.7708 8.34L80.8841 0.218562ZM68.1869 8.5456L73.3258 11.0129L81.5809 0.22884L68.1869 8.5456ZM80.9518 -0.244053L70.3063 -0.00760636L61.5189 3.07648L55.1317 7.09608L61.2673 5.96525L80.9518 -0.244053ZM54.251 7.14749L61.2964 2.71668L68.7482 0.095199L53.5542 1.12323L54.251 7.14749ZM53.1864 1.30827L46.1023 6.62319L53.8445 7.26057L53.1864 1.30827ZM46.6249 10.4989L56.4188 8.19607L54.1058 7.69234L46.6249 10.4989ZM69.5418 -0.367415L61.9447 -4.5515H61.8576L54.1155 0.670893L69.5418 -0.367415ZM70.2289 -0.44966L81.1744 -8.38605L62.5544 -4.67486L70.2289 -0.44966ZM81.1454 -8.78698L76.6936 -11.7785L63.2125 -5.21972L81.1454 -8.78698ZM77.7195 -22.799L65.5545 -18.5327L76.5581 -12.3645L77.7195 -22.799ZM78.1936 -23.3542L94.4232 -23.3028C94.449 -23.34 94.4869 -23.3657 94.5296 -23.3747C94.5695 -23.3839 94.611 -23.3788 94.6478 -23.3602C94.6846 -23.3416 94.7145 -23.3106 94.7329 -23.2719V-23.2719L97.1039 -13.1047L114.814 -33.5317L109.104 -34.3541C109.079 -34.3438 109.052 -34.3438 109.027 -34.3541C108.999 -34.3765 108.976 -34.4044 108.959 -34.4363V-34.4363L114.156 -36.8728H107.972L90.4456 -32.1644L90.2521 -32.113C90.2179 -32.0987 90.1798 -32.0987 90.1456 -32.113V-32.113L71.8063 -27.7027L78.1936 -23.3542ZM114.969 -33.9223V-37.0784L109.801 -34.6625L114.969 -33.9223ZM115.327 -44.6652L92.178 -33.0279L107.972 -37.5307L115.327 -44.6652ZM116.034 -45.4671L103.54 -45.169L91.1328 -32.9457L116.034 -45.4671ZM115.095 -33.1924L97.5297 -12.858L120.756 -17.4019L120.485 -17.9879L120.611 -17.8748L115.095 -33.1924ZM120.901 -18.2654L121.056 -23.642L115.966 -31.9279L120.901 -18.2654ZM121.366 -23.9401L130.579 -20.0028L115.966 -32.7195L121.366 -23.9401ZM121.424 -23.4775L121.25 -17.5664L130.976 -19.3963L121.424 -23.4775ZM121.801 -17.258L138.921 -10.8842L131.595 -19.1084L121.801 -17.258ZM139.463 -10.8636L139.996 -15.1402L132.466 -18.728L139.463 -10.8636ZM140.044 -15.572L140.238 -18.029L132.892 -18.9645L140.044 -15.572ZM140.305 -14.4823L139.792 -10.4318L143.76 2.31574L143.412 -6.28887L140.305 -14.4823ZM144.089 12.0409L142.938 22.1567L148.686 20.5016L144.176 5.20451L144.089 12.0409ZM143.015 22.5577L146.673 28.7258L148.609 20.9745L143.015 22.5577ZM146.664 29.7539C146.664 29.7539 146.664 29.7539 146.605 29.7539C146.562 29.7352 146.525 29.7029 146.499 29.6613L122.237 40.8258L152.451 43.3958L146.77 29.6819C146.738 29.7029 146.701 29.7137 146.664 29.7127V29.7539ZM122.469 41.3192L135.379 47.9192L152.315 43.807L122.469 41.3192ZM135.36 48.4126L131.218 51.25L141.738 55.4957L135.36 48.4126ZM134.634 48.4126L128.74 48.9986L130.811 51.0546L134.634 48.4126ZM128.189 49.05L123.95 49.3378L129.079 57.2228L130.55 51.3528L128.189 49.05ZM129.234 58.1789L129.128 58.0144L126.398 60.749L131.586 61.777L129.234 58.22V58.1789ZM128.905 57.6752L123.379 49.1734L119.218 44.9379L122.072 60.7695L125.779 60.677H125.953L128.905 57.6752ZM125.827 61.0882L122.131 61.1705L127.589 71.2966L125.827 61.0882ZM121.889 61.5303L119.866 71.0293L127.608 72.1704L121.889 61.5303ZM118.734 44.5164L110.566 42.0594L121.56 60.2041L118.734 44.5164ZM110.14 42.1108L106.472 44.8351L107.062 49.05L120.989 60.0088L110.14 42.1108ZM110.14 41.3603L108.204 35.3258L118.298 34.5856L130.628 22.0128C130.628 22.0128 130.628 21.9306 130.628 21.8792C129.834 20.352 128.962 18.8728 128.015 17.4483L123.756 14.1895L121.472 13.7577L101.778 35.994L110.14 41.3603ZM120.872 13.8502L94.8103 18.9904L101.536 35.6856L120.872 13.8502ZM106.782 9.2241L96.4652 4.53629L96.5716 5.33815L96.2232 4.59797L94.7619 18.4661L106.782 9.2241ZM95.9136 3.92975L92.1005 -4.20197L81.1067 14.3026L95.9039 4.02227L95.9136 3.92975ZM91.6457 -4.20197L82.568 -0.295454L80.7679 14.097L91.6457 -4.20197ZM82.1131 0.198L73.6838 11.2185L80.3228 14.6315L82.1131 0.198ZM73.7032 11.6811L78.1162 26.1763L80.2647 15.053L73.7032 11.6811ZM73.7032 13.1203L75 27.5744L76.1323 28.3969L75.9291 30.237L76.8968 29.5791L77.9324 26.9576L73.7032 13.1203ZM76.8968 30.052L75.9871 30.6277L78.0872 39.3145L76.8968 30.052ZM78.9195 42.7276L79.1808 49.235L81.8325 48.207L83.6809 49.3378L84.1551 46.1612L77.3807 30.7408L78.9195 42.7276ZM81.8228 48.7005L78.8517 49.8416L78.5711 42.779L75.7452 31.1623L71.8741 52.021L75.8226 53.049L83.6422 53.4294V49.7799L81.8228 48.7005ZM75.6291 53.4705L71.9612 52.4425L74.5935 60.0705L76.5291 59.1761L75.6291 53.4705ZM76.8968 59.1555L77.3227 59.2789L78.0582 56.8219L76.1226 54.0771L76.8968 59.1555ZM71.4483 52.2472L67.7514 45.051L69.8998 58.0041L74.1193 60.0602L71.4483 52.2472ZM71.5354 51.5687L75.0871 32.4576L73.4419 36.4361L71.9322 37.1865L72.116 38.379L71.0902 39.9519L69.6192 38.523L67.2288 39.2734L67.5772 43.7762L71.5354 51.5687ZM69.6869 38.0603L70.9934 39.3454L71.7096 38.3174L71.516 36.9809L73.1516 36.1688L75.4065 30.7099L75.7162 28.6539L74.8645 28.0371L71.516 32.9305L68.5353 33.0744V36.7856L64.79 36.508L68.8547 38.3996L69.6869 38.0603ZM68.4191 32.6118L71.3225 32.4781L74.5258 27.8006L64.4222 24.3773L64.6545 28.6847L68.4191 32.6118ZM64.4029 23.9147L74.6032 27.3997L73.1903 11.6503L64.0642 18.1474L64.3739 23.8941L64.4029 23.9147ZM68.6611 14.3848L72.8419 11.4138L68.1869 10.6428L68.6611 14.3848ZM72.058 10.869L67.732 8.75121L61.2673 6.37646L55.151 7.49702L67.8869 10.2624C67.9074 10.2385 67.9331 10.2203 67.9618 10.2095C67.9905 10.1988 68.0213 10.1957 68.0514 10.2007L72.058 10.869ZM56.022 8.71009L44.07 11.5269L50.2541 14.94L56.022 8.71009ZM53.2058 7.6101L45.6959 7.00356L43.5861 11.2185L53.2058 7.6101ZM43.8377 4.77274L42.87 11.7942L45.4346 6.65403L53.1767 0.855939V0.732577L54.9865 -18.6561L43.8377 4.77274ZM53.5929 0.547531L61.4125 -4.72626L56.0897 -8.26269L57.4156 -14.4309L55.3929 -19.0159L53.5929 0.547531ZM61.5576 -5.1272L57.6866 -13.8243L56.5252 -8.44773L61.5576 -5.1272ZM55.6252 -19.5196L57.5607 -15.0888L58.4318 -19.129L55.6252 -19.5196ZM59.3898 -21.5757L58.9253 -19.4579L64.49 -18.6972L59.3898 -21.5757ZM64.819 -18.2963V-18.2449L58.8866 -19.0673L57.9188 -14.4823L62.0706 -5.08607L76.3549 -12.0458L65.1287 -18.3785L64.819 -18.2963ZM65.2062 -18.8514L77.7001 -23.2308L71.2547 -27.5897L65.2062 -18.8514ZM72.058 -28.5457L71.6902 -28.1139L90.0779 -32.5345L93.078 -40.7587L72.058 -28.5457ZM93.6006 -41.0363L90.6973 -33.0896L103.278 -45.5288L106.898 -51.3372L93.6006 -41.0363ZM107.604 -51.7792L103.791 -45.611L116.256 -45.9194L107.624 -51.8614L107.604 -51.7792ZM108.049 -52.0157L116.953 -45.8475C116.981 -45.8237 117.001 -45.7914 117.011 -45.7549L120.214 -43.6989L123.35 -55.3259L108.049 -52.0157ZM123.592 -54.6885L120.572 -43.4727H120.65L115.356 -37.3045V-33.7887L131.353 -19.828L123.592 -54.6885ZM138.689 -23.3233L124.173 -53.9586L131.857 -19.4888L140.209 -18.4607L138.689 -23.3233ZM139.163 -23.0766L140.586 -18.3785L159.438 -15.6542L139.163 -23.0766ZM160.783 -15.0477L140.857 -17.9262L144.041 -13.2178L145.251 -4.63374L160.783 -15.0477ZM144.873 -4.40757L143.673 -13.0636L140.586 -17.628L140.412 -15.3767V-15.2841L143.78 -6.40195L145.715 -1.96086L144.873 -4.40757ZM147.244 2.53163L143.818 -5.34308L144.196 3.81667V3.90919L148.628 18.9287L147.244 2.53163ZM149.112 20.9231H149.035L147.041 28.9109L156.138 25.5184L149.112 20.9231ZM147.041 29.3735L152.702 42.9846L156.438 25.8885L147.041 29.3735ZM156.97 25.8885L162.206 35.2333L182.19 22.2184L156.97 25.8885ZM178.039 10.725L173.51 10.797L182.384 20.8408L178.039 10.725ZM182.326 10.6634L178.455 10.725L182.82 20.8306L182.326 10.6634ZM200.772 28.6436L200.268 33.8557L204.914 47.5491L200.772 28.6436ZM205.978 50.6332L208.736 31.3062V31.2034L200.917 27.3277V27.3894L205.978 50.6332ZM200.549 27.4614L200.443 26.9885L199.872 24.9324L200.191 31.2959L200.549 27.4614ZM200.81 26.8445L208.649 30.7408L206.917 23.01L202.078 20.9539L199.804 22.7735V23.0922L200.81 26.8445ZM201.662 20.7586L189.536 15.5568L199.485 22.5371L201.662 20.7586ZM199.407 23.2053V23.0614L183.787 22.167L199.852 33.4753L199.91 33.4137L199.407 23.2053ZM198.933 22.6296L187.891 14.8885L183.42 21.7455L198.933 22.6296ZM187.581 14.6521L182.742 10.9101L183.226 21.2932L187.581 14.6521ZM196.213 10.4166L183.081 10.6942L187.92 14.4259L202.03 20.4399C202.067 20.4306 202.105 20.4324 202.141 20.4451C202.177 20.4579 202.209 20.481 202.233 20.5119L207.014 22.5679C207.053 22.5595 207.093 22.5638 207.129 22.5803C207.165 22.5969 207.196 22.6248 207.217 22.6605L211.001 24.2848L196.213 10.4166ZM204.498 11.1979H204.43H203.994L198.255 10.5914L204.643 13.2745L216.885 6.81851L204.498 11.1979ZM225.934 24.2745L229.06 37.8239L230.027 44.6706L230.192 44.7425L228.702 19.2371L219.798 6.63347L225.934 24.2745ZM217.417 15.5979L225.295 23.6268L219.295 6.49983L217.214 15.6493L217.417 15.5979ZM216.798 15.7624L218.985 6.16057L205.049 13.511C205.068 13.5604 205.068 13.6157 205.049 13.6652C205.037 13.6944 205.018 13.7199 204.995 13.7396C204.971 13.7594 204.943 13.7726 204.914 13.7783L208.659 17.9521L216.798 15.7624ZM208.582 18.4353L204.149 13.511L196.833 10.4269L211.417 24.1511L208.582 18.4353ZM211.659 25.0249L207.314 23.1642L208.988 30.6174L211.659 25.0249ZM211.659 32.3753L209.104 31.7174L206.394 50.7154L209.617 46.0276L212.966 37.0632L211.659 32.3753ZM206.443 51.3322L216.45 52.1649L209.82 46.408L206.443 51.3322ZM213.149 37.7417L210.033 46.0995L216.711 51.9079L213.149 37.7417ZM240.141 110.105V110.259L242.202 108.398L240.141 110.105ZM242.483 107.648L240.015 104.399L240.131 109.591L242.483 107.648ZM239.995 103.7L242.783 107.37L244.718 105.746L243.499 102.806L238.979 102.888L239.995 103.7ZM248.405 102.744L243.934 102.826L245.047 105.52L248.405 102.744ZM244.989 106.404L243.228 107.997L248.56 115.039L244.989 106.404ZM242.938 108.254L240.16 110.732V111.153L248.628 115.749L242.938 108.254ZM248.657 116.252L240.083 111.606L237.953 117.774L248.657 116.252ZM239.783 111.112L238.573 112.212L239.783 111.184V111.112ZM232.263 116.612L234.934 116.797L235.747 114.823L235.863 114.258V114.186L235.989 113.6L232.263 116.612ZM235.311 116.91L237.547 117.805L239.579 111.904L236.25 114.607L235.311 116.91ZM236.366 113.672L239.773 110.588V110.403L236.492 113.127L236.366 113.672ZM236.579 112.479L239.725 109.868L239.589 103.875L238.524 103.042L236.579 112.479ZM238.612 102.497L242.986 102.405L238.95 99.7524L238.612 102.497ZM236.241 90.3357L236.337 90.4796L238.96 99.2795L243.509 102.281L245.038 98.2618L234.218 84.2292L236.25 90.1918C236.271 90.2364 236.277 90.2867 236.27 90.3357H236.241ZM232.757 84.2909L235.379 88.8348L233.492 83.2834L233.444 83.232L237.412 68.1405L227.173 69.4564L232.011 80.0451C232.025 80.0849 232.025 80.1287 232.011 80.1685L232.757 84.2909ZM227.056 70.1349V71.5125L230.085 76.6526L227.056 70.1349ZM225.556 78.4619L232.331 83.9002L231.702 80.2096L226.95 72.0882L225.556 78.4619ZM226.66 70.9573V69.3741L223.03 65.4985L226.66 70.9573ZM222.576 64.5424L226.95 69.076L237.092 67.7704L217.504 53.0285L222.576 64.5424ZM222.101 64.4293L216.963 52.7612L207.285 62.4761C207.275 62.5211 207.251 62.5611 207.217 62.5891L222.101 64.4293ZM207.043 62.1985L216.575 52.5864L206.278 51.7229L207.043 62.1985ZM205.882 51.5892C205.834 51.5596 205.8 51.5117 205.785 51.4556L205.678 50.9313L201.178 37.6594L206.578 60.6976L205.882 51.5892ZM206.578 62.4144L200.007 34.2361L187.31 55.8247L206.578 62.4144ZM199.456 34.4006L178.406 57.7368L186.836 55.7836C186.862 55.7276 186.907 55.6837 186.962 55.6602L199.456 34.4006ZM217.843 115.615L214.756 107.391L205.872 117.301L217.843 115.615ZM202.581 115.265L205.194 117.167L206.994 105.859L202.581 115.265ZM207.594 104.625L205.659 116.962L214.601 106.979L206.665 97.0796L207.594 104.625ZM214.65 106.455L214.795 101.85L217.137 97.7375L206.588 96.3908L214.65 106.455ZM206.278 95.5786L210.227 83.1395L199.397 72.6947L206.278 95.5786ZM198.962 81.5871L205.34 93.7899L199.02 72.6947L198.962 81.5871ZM198.855 71.7592L206.24 63.0312L190.407 72.5816L198.855 71.7592ZM189.933 72.4068L206.056 62.6714L187.223 56.2462L189.933 72.4068ZM189.478 72.0265L186.836 56.2462L178.203 58.2406L189.478 72.0265ZM199.552 33.7323L183.516 22.424L183.72 22.9072L183.197 22.3007L178.126 57.4696L199.552 33.7323ZM177.729 57.5826L182.81 22.3212L162.419 35.5828L177.729 57.5826ZM177.158 57.449L163.145 37.3202L170.306 53.4088H170.403L177.158 57.449ZM164.141 66.3106L173.045 63.5863L159.119 64.1826L164.141 66.3106ZM174.322 63.1237L170.142 54.0565L158.809 63.7817L174.322 63.1237ZM158.17 63.7919L169.938 53.6864C169.924 53.6467 169.924 53.6028 169.938 53.563L161.964 35.6445L156.728 26.2997L152.944 43.622L153.051 43.879H152.828L152.596 44.2285L135.95 48.2276L136.076 48.2893H135.786L142.56 55.9275L142.947 58.878L158.17 63.7919ZM156.544 63.6891L142.86 59.2481L138.776 62.3321L156.544 63.6891ZM138.157 62.3321L142.589 58.9294L142.25 56.3284L132.65 61.849L138.157 62.3321ZM141.95 56.0406L130.889 51.5276L129.35 57.634L132.05 61.7462L141.95 56.0406ZM131.731 62.1471L126.892 61.2219L130.976 64.3676L131.731 62.1471ZM130.763 64.7583L126.215 61.2527L128.063 71.6667L130.763 64.7583ZM127.976 73.6919L125.344 93.0086L130.55 86.0591L127.976 73.6919ZM130.676 86.5011L125.363 93.6357L135.041 93.7282L130.676 86.5011ZM135.515 96.2366L135.273 94.5814L132.679 99.3207L135.515 96.2366ZM134.866 94.5198L126.156 100.842L131.586 100.441L134.866 94.5198ZM131.586 100.852L125.982 101.264L132.524 107.308L131.586 100.852ZM125.508 101.377L122.285 104.738L122.489 106.075L131.924 107.288L125.508 101.377ZM120.669 108.203L130.666 107.535L122.314 106.507L119.411 106.414L120.669 108.203ZM121.056 101.695C121.046 101.717 121.031 101.736 121.012 101.75C120.994 101.764 120.972 101.774 120.95 101.778L119.305 105.962L122.101 106.054L121.879 104.594L125.285 101.109L125.402 101.027L124.898 94.5506L121.056 101.695ZM120.408 83.0572L127.56 72.5508L119.769 71.4096L120.408 83.0572ZM120.679 93.0908L120.069 83.7049L118.066 80.9189L120.679 93.0908ZM117.853 79.9526L120.108 82.975L119.469 71.3377H119.421V71.2657L110.343 66.1256L117.853 79.9526ZM119.479 70.8648L121.511 61.263L110.169 65.4985L119.479 70.8648ZM109.801 65.0564L109.898 65.2209L121.511 60.8621L107.207 49.6051L109.801 65.0564ZM86.052 43.9612L86.1294 44.4341V44.6603L109.308 64.5732L106.714 49.1528L106.056 44.5267L109.927 41.6173L101.449 36.2202L101.352 36.323L94.3555 18.9698H94.3167C94.2913 18.9685 94.2664 18.9619 94.2434 18.9503C94.2204 18.9387 94.1997 18.9225 94.1826 18.9024C94.1655 18.8824 94.1524 18.8589 94.1438 18.8334C94.1353 18.808 94.1316 18.781 94.1329 18.7539C94.1331 18.7197 94.1422 18.6862 94.1593 18.6572C94.1764 18.6281 94.2008 18.6047 94.2296 18.5895V18.4969H94.3555L95.8361 4.45404L80.6808 14.94L86.052 43.9612ZM80.497 15.968L78.3775 26.9473L85.6068 43.6734L80.497 15.968ZM85.6068 44.6295L78.1646 27.4614L77.2936 29.6613C77.3341 29.6824 77.3653 29.7192 77.3807 29.7641L84.4068 45.7603L85.6068 44.6295ZM85.7713 53.7789L84.581 50.0472L84.368 49.2042L84.3197 48.0425L84.068 49.7285V53.6042L85.6068 55.2799L85.7713 53.7789ZM84.9681 58.9705L80.7099 58.3331V62.5378L84.9681 58.9705ZM80.584 57.9425L85.2681 58.6518L85.5584 55.8453L83.7777 53.9331L76.2291 53.563L78.4549 56.6471L80.584 57.9425ZM80.284 62.8153V58.2611L78.3969 57.12L77.6614 59.5462L79.2292 62.9284L80.284 62.8153ZM78.8808 62.9695L77.371 59.7312L76.8001 59.577L74.6032 60.6051L69.2611 64.0592L78.8808 62.9695ZM65.8352 59.3303L68.4772 64.0387L74.0709 60.3583L69.6869 58.3023L65.7191 56.5443L65.8352 59.3303ZM43.3539 38.1529C43.8052 39.7815 44.5845 41.2863 45.6378 42.5631L53.9122 42.9127L42.299 29.5483C42.4732 31.2445 43.0248 36.2819 43.3539 38.1529ZM42.2312 28.7258V28.8184L54.4542 42.9332V42.9949L65.5836 56.0714L69.174 57.6546L51.8025 31.3987C51.7852 31.3806 51.7716 31.3589 51.7622 31.3351C51.7528 31.3113 51.748 31.2857 51.748 31.2599C51.748 31.2341 51.7528 31.2086 51.7622 31.1847C51.7716 31.1609 51.7852 31.1393 51.8025 31.1211C51.8387 31.0835 51.8873 31.0624 51.938 31.0624C51.9886 31.0624 52.0373 31.0835 52.0735 31.1211L69.4159 57.2742L67.2191 43.9098C67.2141 43.8792 67.2141 43.8479 67.2191 43.8173L66.8514 39.2426V39.0061L68.3127 38.5435L62.6319 35.9015L68.1869 36.323V32.9305L64.3836 28.9623L64.2868 28.8595L64.0448 24.2848L51.3864 25.5184L51.1154 25.395C51.1108 25.3747 51.1108 25.3536 51.1154 25.3333V25.3333L58.7898 17.582L64.1319 17.9418L68.3901 14.8577L67.8869 10.8792L56.8543 8.48392L58.935 10.3549L61.3738 10.0568L66.5126 11.4549L57.3091 12.7297L50.3315 15.6287L43.9539 12.1129L44.4184 14.4465L48.5895 19.3296C48.6174 19.3619 48.6329 19.4041 48.6329 19.4479C48.6329 19.4917 48.6174 19.5338 48.5895 19.5661C48.5965 19.5822 48.6001 19.5998 48.6001 19.6175C48.6001 19.6352 48.5965 19.6528 48.5895 19.6689C48.5895 19.718 48.5711 19.765 48.5385 19.7997C48.5058 19.8344 48.4615 19.8539 48.4153 19.8539V19.8539L45.7926 19.6997L41.3893 21.7558L40.4215 28.7464L42.2312 28.7258ZM51.967 25.0147L64.0061 23.853L63.7061 18.1988L51.967 25.0147ZM63.2222 17.9932L58.8672 17.7054L52.2186 24.3773L63.2222 17.9932ZM40.9635 21.7661L34.9633 25.4156L33.3084 26.053L39.9763 28.4894L40.9635 21.7661ZM14.4175 29.9903L34.7407 27.9343L38.3601 28.3455L32.6793 26.2894L23.5242 26.1352L18.2498 28.3763L13.3142 27.5333L14.4175 29.9903ZM9.57861 28.3146L13.9045 29.8567L12.7819 27.3791L2.60098 10.9306L9.57861 28.3146Z" fill="url(#paint1_radial_202_3417)"/>
</g>
<path d="M2.53323 9.73812L11.9109 23.853L22.7016 22.5885L30.2309 19.9259L42.3183 12.8016L43.4313 4.68021L55.1317 -19.828L55.1897 -19.9514L58.5382 -19.4888L59.1189 -22.1617L64.7997 -18.9542L70.9257 -27.7953L70.7709 -27.8981L71.0418 -27.9597L71.7773 -28.8336L93.349 -41.3344L107.266 -52.1493L107.44 -52.2829C107.49 -52.3036 107.545 -52.3036 107.595 -52.2829L123.679 -55.8091L138.999 -23.5598L161.374 -15.3355L161.877 -15.2533L145.338 -4.17113L147.612 2.46995C147.612 2.46995 147.612 2.46995 147.612 2.52135L149.131 20.5222L156.699 25.5801L182.529 21.7969L182.365 21.6838H182.587L172.91 10.7764C172.905 10.7527 172.905 10.7282 172.91 10.7045C172.947 10.6904 172.988 10.6904 173.026 10.7045V10.7045L177.865 10.6222L171.545 -4.03748L153.467 0.290523L151.415 -3.73935C151.393 -3.78641 151.387 -3.84065 151.4 -3.89181C151.412 -3.94297 151.442 -3.98748 151.483 -4.01692C151.527 -4.04098 151.578 -4.04694 151.627 -4.03368C151.675 -4.02042 151.717 -3.98885 151.744 -3.94496L153.68 -0.470217L171.642 -4.76738H171.739L178.194 10.211L182.423 10.1391L195.642 9.98485L175.484 -2.69077L177.787 -7.3169C177.812 -7.36435 177.852 -7.40021 177.901 -7.41735C177.949 -7.4345 178.002 -7.43166 178.048 -7.40942C178.093 -7.38334 178.126 -7.33955 178.141 -7.28757C178.155 -7.23558 178.15 -7.17962 178.126 -7.13186L175.987 -2.84497L196.33 9.98485H196.417C196.44 9.94743 196.475 9.91983 196.516 9.90671C196.556 9.8936 196.6 9.89578 196.639 9.91289L196.949 10.0363L203.481 10.725H203.569H204.41L219.314 5.5232L219.45 5.45124L228.973 18.9287L237.044 16.7698C237.093 16.7572 237.144 16.7651 237.187 16.792C237.231 16.8188 237.262 16.8625 237.276 16.9138C237.282 16.9401 237.283 16.9674 237.278 16.994C237.274 17.0207 237.265 17.0462 237.252 17.0691C237.238 17.092 237.221 17.1119 237.2 17.1276C237.179 17.1433 237.156 17.1544 237.131 17.1605L229.089 19.3091L230.656 44.8042C230.662 44.8279 230.662 44.8525 230.656 44.8762L240.45 49.05C240.498 49.0705 240.536 49.1102 240.556 49.1603C240.575 49.2104 240.576 49.2668 240.557 49.3173C240.544 49.3526 240.521 49.3831 240.492 49.405C240.463 49.4269 240.428 49.4393 240.392 49.4406H240.315L230.405 45.3285H230.347H230.26L229.834 45.0921H229.737L228.711 38.0398L225.614 24.6137L217.321 16.1736L208.998 18.4147L209.162 18.5997C209.188 18.6369 209.202 18.682 209.202 18.7282C209.202 18.7745 209.188 18.8196 209.162 18.8567L212.162 24.9221C212.208 24.9446 212.244 24.985 212.262 25.0349C212.28 25.0848 212.279 25.1402 212.259 25.1894C212.247 25.2255 212.225 25.2568 212.195 25.2789C212.166 25.301 212.131 25.3128 212.095 25.3128H211.988L209.085 31.3062V31.4501L211.872 32.1697L213.111 36.6005C213.12 36.6272 213.12 36.6562 213.111 36.6828L217.224 52.2986L237.692 67.719L242.812 67.0508C242.837 67.048 242.863 67.0505 242.887 67.0583C242.912 67.0661 242.935 67.0789 242.954 67.0962C242.974 67.1134 242.991 67.1346 243.003 67.1585C243.015 67.1825 243.022 67.2088 243.025 67.2358C243.028 67.2884 243.013 67.3403 242.983 67.382C242.952 67.4236 242.909 67.4521 242.86 67.462L237.857 68.0994L233.908 83.16L245.521 98.2104L243.925 102.415L249.518 102.302L245.309 106.116L249.605 116.52L237.653 118.267L235.031 117.239L231.247 116.972L236.144 112.922L238.244 102.713L238.641 99.4852L236.037 90.7263L232.466 84.5581L225.169 78.6778L226.679 71.6564L222.179 65.0359C222.168 65.0119 222.162 64.9855 222.162 64.9588C222.162 64.932 222.168 64.9057 222.179 64.8817L206.946 63.0004L199.31 72.0265L210.624 82.975L210.72 83.0675L206.578 95.959L217.011 97.2852L211.804 90.531C211.787 90.5129 211.773 90.4912 211.764 90.4674C211.755 90.4436 211.75 90.418 211.75 90.3922C211.75 90.3664 211.755 90.3409 211.764 90.317C211.773 90.2932 211.787 90.2716 211.804 90.2534C211.84 90.2158 211.889 90.1947 211.94 90.1947C211.99 90.1947 212.039 90.2158 212.075 90.2534L217.669 97.5113L215.153 101.983L214.998 106.918L215.056 107L218.385 115.913L205.32 117.712L202.098 115.368L207.246 104.564L206.278 96.5964V96.4936L206.211 96.2777L206.065 95.8151L198.778 81.8647L188.578 79.0788C188.528 79.0651 188.485 79.0309 188.458 78.9837C188.432 78.9365 188.425 78.8801 188.437 78.8269C188.45 78.7737 188.482 78.7282 188.527 78.7002C188.571 78.6722 188.624 78.6642 188.675 78.6778L198.71 81.4329V72.304C198.706 72.2838 198.706 72.2626 198.71 72.2424L189.952 73.0956C189.939 73.1194 189.921 73.1393 189.899 73.1537C189.877 73.1681 189.852 73.1764 189.826 73.1779H189.749C189.726 73.1826 189.703 73.1826 189.681 73.1779V73.1779C189.638 73.1675 189.6 73.142 189.573 73.1056C189.545 73.0692 189.53 73.024 189.53 72.9774C189.53 72.9308 189.545 72.8856 189.573 72.8492C189.6 72.8128 189.638 72.7873 189.681 72.7769L178.068 58.6415L177.816 58.2817L170.606 53.964L174.826 63.1032V63.2882L174.942 63.5452L176.49 69.8265L181.136 68.3564L186.439 72.1498C186.48 72.1792 186.51 72.2245 186.52 72.2762C186.531 72.3279 186.523 72.3821 186.497 72.4274C186.481 72.4555 186.458 72.4787 186.431 72.4948C186.404 72.511 186.373 72.5197 186.342 72.5199C186.304 72.5292 186.264 72.5292 186.226 72.5199L181.068 68.8293L176.229 70.3611L174.564 63.6275L164.2 66.7938L158.461 64.3676C158.443 64.3966 158.42 64.4211 158.393 64.4396L144.583 72.2629L143.615 75.347C143.603 75.3859 143.58 75.4197 143.548 75.4437C143.517 75.4677 143.479 75.4806 143.441 75.4806H143.373C143.348 75.4737 143.325 75.4614 143.305 75.4443C143.285 75.4273 143.268 75.406 143.257 75.3818C143.245 75.3576 143.238 75.331 143.236 75.3038C143.235 75.2765 143.238 75.2492 143.247 75.2236L144.215 72.1396V72.0573H144.283L157.619 64.3574L138.263 62.9387H138.196L132.128 62.4041L131.111 65.2106L128.208 72.5919L128.353 72.8592H128.218L130.928 86.0591L135.553 93.7282L135.631 93.8516C135.646 93.8982 135.646 93.9488 135.631 93.9955L135.989 96.3394L132.011 100.678L133.028 107.792L120.64 108.614H120.534L118.85 106.167L118.898 106.054L120.834 101.079V95.6917L117.495 80.1273L109.617 65.7349C109.584 65.7135 109.557 65.6832 109.538 65.6471C109.52 65.6111 109.51 65.5705 109.511 65.5293L109.356 65.2518L85.7713 44.979L85.6939 45.1126V45.0098L84.639 46.1304L84.7551 49.122L84.9584 49.9341L86.1681 53.7378L85.6261 58.9499L80.6034 63.1134H80.555L68.3127 64.4704L68.245 64.3676L65.4578 59.3817L65.3319 56.2976L54.2703 43.3033L45.4636 42.9332L45.4055 42.8715C44.2812 41.5255 43.4517 39.9315 42.9764 38.2043C42.57 36.1482 42.0087 30.1342 41.8828 29.0651L40.1796 28.8698C40.1796 28.8698 40.1796 28.8698 40.1118 28.8698H40.0537L34.7407 28.2735L14.3207 30.3296L9.3657 28.5614L0.994458 7.78486L2.53323 9.73812ZM11.7271 24.2848L5.43654 14.8166L13.0239 27.009L21.5209 23.1334L11.7271 24.2848ZM30.4438 20.2651L22.8661 22.9483L13.6626 27.1427L18.2111 27.9137L23.3984 25.7137L36.1149 16.9241L30.4438 20.2651ZM24.1145 25.7034L32.689 25.8371L34.6826 25.066L39.386 15.125L24.1145 25.7034ZM35.2826 24.7576L41.0893 21.2521L45.4346 19.196L40.0634 14.7755L35.2826 24.7576ZM45.8313 19.0726L48.154 19.2166L44.1474 14.539L40.4408 14.6418L45.8313 19.0726ZM42.6861 13.0689L40.7505 14.2409L43.9926 14.097L43.47 11.4858L42.7345 12.9661L42.6861 13.0689ZM58.5092 10.3138L56.5736 8.63813L51.3477 14.2923L58.5092 10.3138ZM53.0219 13.8502L57.1639 12.1232L64.4706 11.0951L61.3157 10.2316L58.906 10.5297L53.0219 13.8502ZM121.327 100.565L124.734 94.0366H124.666L124.831 93.8207L120.63 84.6712L121.347 95.6609L121.327 100.565ZM125.014 93.2656L127.753 73.1367L120.592 83.6535L125.014 93.2656ZM125.266 94.2114L125.779 100.729L134.837 94.1291L125.285 94.0366L125.266 94.2114ZM116.556 -45.3026H116.459L108.524 -37.6027H114.998L116.556 -45.3026ZM115.482 -38.1064L120.04 -43.3802L116.953 -45.3746L115.482 -38.1064ZM81.8809 -8.29353L82.5486 -0.758068L91.5683 -4.6029L81.8809 -8.29353ZM91.1134 -5.20944L87.3294 -8.44773H82.5486L91.1134 -5.20944ZM87.4649 -8.85895L92.1392 -4.83934L94.6361 -5.99074L93.4554 -10.9767L93.407 -11.2131V-11.3159V-11.4496L94.278 -22.7579L78.1453 -22.9121L76.8968 -12.1075L81.7357 -8.88979L87.4649 -8.85895ZM121.801 13.4082L123.66 13.7577L124.095 5.26619L123.573 -3.64683L120.33 8.3914L121.56 13.3054L121.956 13.2231L121.801 13.4082ZM128.315 48.6079L134.683 47.9808L121.511 41.237L119.227 44.2491L128.315 48.6079ZM119.866 44.9996L123.35 48.5565C123.38 48.5573 123.409 48.5651 123.436 48.5793C123.463 48.5935 123.486 48.6138 123.505 48.6388L123.65 48.8547L123.698 48.9164L127.473 48.6593L119.866 44.9996ZM121.172 41.0416L111.282 41.8127L118.85 44.0846L121.172 41.0416ZM121.869 40.579L146.238 29.2707L134.528 21.8175L130.879 22.2698L118.511 34.8837H118.463L108.708 35.5931L110.566 41.3603L110.391 41.4323L121.869 40.579ZM96.562 -12.3954L94.0361 -11.3673L99.9298 -8.0468L107.024 -7.57391L97.0942 -12.4468L96.4845 -12.3337L96.562 -12.3954ZM96.7749 -12.9197L94.5974 -22.2336L93.7941 -11.6655L96.7749 -12.9197ZM93.8716 -10.9664L95.0232 -6.09354L108.243 -6.62812L107.924 -7.07017L99.8621 -7.61503L93.8716 -10.9664ZM108.078 -7.49166L108.949 -6.54588V-6.29915L107.159 8.30916L115.027 -3.37954L119.585 -8.35521L120.766 -17.1551L97.7039 -12.6524L108.078 -7.49166ZM117.427 5.87273V5.96525L120.011 8.02131L123.456 -4.77767L119.818 -7.86176L115.492 -3.13282L117.311 5.4204C117.348 5.43746 117.379 5.46647 117.4 5.50335C117.421 5.54024 117.43 5.58313 117.427 5.626V5.87273ZM115.201 -2.71132L107.304 9.02878H107.401L116.575 11.9689L117.05 5.87273L115.201 -2.71132ZM120.04 -8.22157L123.708 -5.13747L125.711 -7.10101L121.172 -16.6617L120.04 -8.22157ZM131.034 21.8689L134.363 21.4679L133.395 12.8428C132.311 16.6465 131.199 20.7689 131.044 21.838L131.034 21.8689ZM133.444 11.5886L140.605 0.136317L126.04 4.03255L133.444 11.5886ZM129.911 8.50449L130.211 10.5605L130.608 14.2203L133.221 11.8559L129.911 8.50449ZM140.557 -0.326293L133.686 -6.32999L126.089 -6.80289L125.827 3.62134L140.557 -0.326293ZM129.437 8.05215L125.624 4.15592L124.54 5.25591L129.737 10.1596L129.437 8.10355V8.05215ZM125.469 3.81667L125.721 -6.46363L123.892 -4.66458L124.453 4.8961L125.469 3.81667ZM126.05 -7.18326L133.192 -6.7412L121.579 -16.5383L126.05 -7.18326ZM133.86 -6.70008L140.77 -0.716946L139.463 -10.2468L122.053 -16.7439L133.86 -6.70008ZM141.176 -0.295454L143.363 2.39798L140.102 -8.0982L141.176 -0.295454ZM141.38 0.568092L143.731 10.4989L143.818 3.95031L143.634 3.35405L141.38 0.568092ZM140.925 0.321363L133.734 11.8045C133.739 11.8316 133.739 11.8595 133.734 11.8867L142.56 21.9717L143.673 12.0409L140.925 0.321363ZM142.56 22.5268L133.724 12.4521L134.75 21.5193L146.364 28.9006L142.56 22.5268ZM133.028 12.5446L130.55 14.7857L128.363 17.3147C128.721 17.8801 130.105 20.0184 130.715 21.2212C131.16 19.3194 132.447 14.7446 133.028 12.5446ZM130.221 14.6007L129.815 10.8175L124.414 5.6774L123.998 13.9016L128.092 16.9857L130.221 14.6007ZM119.934 8.53533L117.35 6.42786L116.895 12.1129L121.105 13.2848L119.934 8.53533ZM116.488 12.4213L107.275 9.49139H107.091L95.3619 18.5072L120.524 13.5315L116.488 12.4213ZM108.553 -5.8057L96.3974 4.1148L106.801 8.79233L108.553 -5.8057ZM108.398 -6.19635L95.0523 -5.66177L96.3007 3.68302L108.398 -6.19635ZM94.6845 -5.55897L92.6038 -4.6029L92.3134 -4.47954L95.8071 2.95312L94.6845 -5.55897ZM81.4744 -8.10848L70.8289 -0.398255L82.1325 -0.644984L81.4744 -8.10848ZM80.8841 0.218562L61.8964 6.18114L67.7708 8.34L80.8841 0.218562ZM68.1869 8.5456L73.3258 11.0129L81.5809 0.22884L68.1869 8.5456ZM80.9518 -0.244053L70.3063 -0.00760636L61.5189 3.07648L55.1317 7.09608L61.2673 5.96525L80.9518 -0.244053ZM54.251 7.14749L61.2964 2.71668L68.7482 0.095199L53.5542 1.12323L54.251 7.14749ZM53.1864 1.30827L46.1023 6.62319L53.8445 7.26057L53.1864 1.30827ZM46.6249 10.4989L56.4188 8.19607L54.1058 7.69234L46.6249 10.4989ZM69.5418 -0.367415L61.9447 -4.5515H61.8576L54.1155 0.670893L69.5418 -0.367415ZM70.2289 -0.44966L81.1744 -8.38605L62.5544 -4.67486L70.2289 -0.44966ZM81.1454 -8.78698L76.6936 -11.7785L63.2125 -5.21972L81.1454 -8.78698ZM77.7195 -22.799L65.5545 -18.5327L76.5581 -12.3645L77.7195 -22.799ZM78.1936 -23.3542L94.4232 -23.3028C94.449 -23.34 94.4869 -23.3657 94.5296 -23.3747C94.5695 -23.3839 94.611 -23.3788 94.6478 -23.3602C94.6846 -23.3416 94.7145 -23.3106 94.7329 -23.2719V-23.2719L97.1039 -13.1047L114.814 -33.5317L109.104 -34.3541C109.079 -34.3438 109.052 -34.3438 109.027 -34.3541C108.999 -34.3765 108.976 -34.4044 108.959 -34.4363V-34.4363L114.156 -36.8728H107.972L90.4456 -32.1644L90.2521 -32.113C90.2179 -32.0987 90.1798 -32.0987 90.1456 -32.113V-32.113L71.8063 -27.7027L78.1936 -23.3542ZM114.969 -33.9223V-37.0784L109.801 -34.6625L114.969 -33.9223ZM115.327 -44.6652L92.178 -33.0279L107.972 -37.5307L115.327 -44.6652ZM116.034 -45.4671L103.54 -45.169L91.1328 -32.9457L116.034 -45.4671ZM115.095 -33.1924L97.5297 -12.858L120.756 -17.4019L120.485 -17.9879L120.611 -17.8748L115.095 -33.1924ZM120.901 -18.2654L121.056 -23.642L115.966 -31.9279L120.901 -18.2654ZM121.366 -23.9401L130.579 -20.0028L115.966 -32.7195L121.366 -23.9401ZM121.424 -23.4775L121.25 -17.5664L130.976 -19.3963L121.424 -23.4775ZM121.801 -17.258L138.921 -10.8842L131.595 -19.1084L121.801 -17.258ZM139.463 -10.8636L139.996 -15.1402L132.466 -18.728L139.463 -10.8636ZM140.044 -15.572L140.238 -18.029L132.892 -18.9645L140.044 -15.572ZM140.305 -14.4823L139.792 -10.4318L143.76 2.31574L143.412 -6.28887L140.305 -14.4823ZM144.089 12.0409L142.938 22.1567L148.686 20.5016L144.176 5.20451L144.089 12.0409ZM143.015 22.5577L146.673 28.7258L148.609 20.9745L143.015 22.5577ZM146.664 29.7539C146.664 29.7539 146.664 29.7539 146.605 29.7539C146.562 29.7352 146.525 29.7029 146.499 29.6613L122.237 40.8258L152.451 43.3958L146.77 29.6819C146.738 29.7029 146.701 29.7137 146.664 29.7127V29.7539ZM122.469 41.3192L135.379 47.9192L152.315 43.807L122.469 41.3192ZM135.36 48.4126L131.218 51.25L141.738 55.4957L135.36 48.4126ZM134.634 48.4126L128.74 48.9986L130.811 51.0546L134.634 48.4126ZM128.189 49.05L123.95 49.3378L129.079 57.2228L130.55 51.3528L128.189 49.05ZM129.234 58.1789L129.128 58.0144L126.398 60.749L131.586 61.777L129.234 58.22V58.1789ZM128.905 57.6752L123.379 49.1734L119.218 44.9379L122.072 60.7695L125.779 60.677H125.953L128.905 57.6752ZM125.827 61.0882L122.131 61.1705L127.589 71.2966L125.827 61.0882ZM121.889 61.5303L119.866 71.0293L127.608 72.1704L121.889 61.5303ZM118.734 44.5164L110.566 42.0594L121.56 60.2041L118.734 44.5164ZM110.14 42.1108L106.472 44.8351L107.062 49.05L120.989 60.0088L110.14 42.1108ZM110.14 41.3603L108.204 35.3258L118.298 34.5856L130.628 22.0128C130.628 22.0128 130.628 21.9306 130.628 21.8792C129.834 20.352 128.962 18.8728 128.015 17.4483L123.756 14.1895L121.472 13.7577L101.778 35.994L110.14 41.3603ZM120.872 13.8502L94.8103 18.9904L101.536 35.6856L120.872 13.8502ZM106.782 9.2241L96.4652 4.53629L96.5716 5.33815L96.2232 4.59797L94.7619 18.4661L106.782 9.2241ZM95.9136 3.92975L92.1005 -4.20197L81.1067 14.3026L95.9039 4.02227L95.9136 3.92975ZM91.6457 -4.20197L82.568 -0.295454L80.7679 14.097L91.6457 -4.20197ZM82.1131 0.198L73.6838 11.2185L80.3228 14.6315L82.1131 0.198ZM73.7032 11.6811L78.1162 26.1763L80.2647 15.053L73.7032 11.6811ZM73.7032 13.1203L75 27.5744L76.1323 28.3969L75.9291 30.237L76.8968 29.5791L77.9324 26.9576L73.7032 13.1203ZM76.8968 30.052L75.9871 30.6277L78.0872 39.3145L76.8968 30.052ZM78.9195 42.7276L79.1808 49.235L81.8325 48.207L83.6809 49.3378L84.1551 46.1612L77.3807 30.7408L78.9195 42.7276ZM81.8228 48.7005L78.8517 49.8416L78.5711 42.779L75.7452 31.1623L71.8741 52.021L75.8226 53.049L83.6422 53.4294V49.7799L81.8228 48.7005ZM75.6291 53.4705L71.9612 52.4425L74.5935 60.0705L76.5291 59.1761L75.6291 53.4705ZM76.8968 59.1555L77.3227 59.2789L78.0582 56.8219L76.1226 54.0771L76.8968 59.1555ZM71.4483 52.2472L67.7514 45.051L69.8998 58.0041L74.1193 60.0602L71.4483 52.2472ZM71.5354 51.5687L75.0871 32.4576L73.4419 36.4361L71.9322 37.1865L72.116 38.379L71.0902 39.9519L69.6192 38.523L67.2288 39.2734L67.5772 43.7762L71.5354 51.5687ZM69.6869 38.0603L70.9934 39.3454L71.7096 38.3174L71.516 36.9809L73.1516 36.1688L75.4065 30.7099L75.7162 28.6539L74.8645 28.0371L71.516 32.9305L68.5353 33.0744V36.7856L64.79 36.508L68.8547 38.3996L69.6869 38.0603ZM68.4191 32.6118L71.3225 32.4781L74.5258 27.8006L64.4222 24.3773L64.6545 28.6847L68.4191 32.6118ZM64.4029 23.9147L74.6032 27.3997L73.1903 11.6503L64.0642 18.1474L64.3739 23.8941L64.4029 23.9147ZM68.6611 14.3848L72.8419 11.4138L68.1869 10.6428L68.6611 14.3848ZM72.058 10.869L67.732 8.75121L61.2673 6.37646L55.151 7.49702L67.8869 10.2624C67.9074 10.2385 67.9331 10.2203 67.9618 10.2095C67.9905 10.1988 68.0213 10.1957 68.0514 10.2007L72.058 10.869ZM56.022 8.71009L44.07 11.5269L50.2541 14.94L56.022 8.71009ZM53.2058 7.6101L45.6959 7.00356L43.5861 11.2185L53.2058 7.6101ZM43.8377 4.77274L42.87 11.7942L45.4346 6.65403L53.1767 0.855939V0.732577L54.9865 -18.6561L43.8377 4.77274ZM53.5929 0.547531L61.4125 -4.72626L56.0897 -8.26269L57.4156 -14.4309L55.3929 -19.0159L53.5929 0.547531ZM61.5576 -5.1272L57.6866 -13.8243L56.5252 -8.44773L61.5576 -5.1272ZM55.6252 -19.5196L57.5607 -15.0888L58.4318 -19.129L55.6252 -19.5196ZM59.3898 -21.5757L58.9253 -19.4579L64.49 -18.6972L59.3898 -21.5757ZM64.819 -18.2963V-18.2449L58.8866 -19.0673L57.9188 -14.4823L62.0706 -5.08607L76.3549 -12.0458L65.1287 -18.3785L64.819 -18.2963ZM65.2062 -18.8514L77.7001 -23.2308L71.2547 -27.5897L65.2062 -18.8514ZM72.058 -28.5457L71.6902 -28.1139L90.0779 -32.5345L93.078 -40.7587L72.058 -28.5457ZM93.6006 -41.0363L90.6973 -33.0896L103.278 -45.5288L106.898 -51.3372L93.6006 -41.0363ZM107.604 -51.7792L103.791 -45.611L116.256 -45.9194L107.624 -51.8614L107.604 -51.7792ZM108.049 -52.0157L116.953 -45.8475C116.981 -45.8237 117.001 -45.7914 117.011 -45.7549L120.214 -43.6989L123.35 -55.3259L108.049 -52.0157ZM123.592 -54.6885L120.572 -43.4727H120.65L115.356 -37.3045V-33.7887L131.353 -19.828L123.592 -54.6885ZM138.689 -23.3233L124.173 -53.9586L131.857 -19.4888L140.209 -18.4607L138.689 -23.3233ZM139.163 -23.0766L140.586 -18.3785L159.438 -15.6542L139.163 -23.0766ZM160.783 -15.0477L140.857 -17.9262L144.041 -13.2178L145.251 -4.63374L160.783 -15.0477ZM144.873 -4.40757L143.673 -13.0636L140.586 -17.628L140.412 -15.3767V-15.2841L143.78 -6.40195L145.715 -1.96086L144.873 -4.40757ZM147.244 2.53163L143.818 -5.34308L144.196 3.81667V3.90919L148.628 18.9287L147.244 2.53163ZM149.112 20.9231H149.035L147.041 28.9109L156.138 25.5184L149.112 20.9231ZM147.041 29.3735L152.702 42.9846L156.438 25.8885L147.041 29.3735ZM156.97 25.8885L162.206 35.2333L182.19 22.2184L156.97 25.8885ZM178.039 10.725L173.51 10.797L182.384 20.8408L178.039 10.725ZM182.326 10.6634L178.455 10.725L182.82 20.8306L182.326 10.6634ZM200.772 28.6436L200.268 33.8557L204.914 47.5491L200.772 28.6436ZM205.978 50.6332L208.736 31.3062V31.2034L200.917 27.3277V27.3894L205.978 50.6332ZM200.549 27.4614L200.443 26.9885L199.872 24.9324L200.191 31.2959L200.549 27.4614ZM200.81 26.8445L208.649 30.7408L206.917 23.01L202.078 20.9539L199.804 22.7735V23.0922L200.81 26.8445ZM201.662 20.7586L189.536 15.5568L199.485 22.5371L201.662 20.7586ZM199.407 23.2053V23.0614L183.787 22.167L199.852 33.4753L199.91 33.4137L199.407 23.2053ZM198.933 22.6296L187.891 14.8885L183.42 21.7455L198.933 22.6296ZM187.581 14.6521L182.742 10.9101L183.226 21.2932L187.581 14.6521ZM196.213 10.4166L183.081 10.6942L187.92 14.4259L202.03 20.4399C202.067 20.4306 202.105 20.4324 202.141 20.4451C202.177 20.4579 202.209 20.481 202.233 20.5119L207.014 22.5679C207.053 22.5595 207.093 22.5638 207.129 22.5803C207.165 22.5969 207.196 22.6248 207.217 22.6605L211.001 24.2848L196.213 10.4166ZM204.498 11.1979H204.43H203.994L198.255 10.5914L204.643 13.2745L216.885 6.81851L204.498 11.1979ZM225.934 24.2745L229.06 37.8239L230.027 44.6706L230.192 44.7425L228.702 19.2371L219.798 6.63347L225.934 24.2745ZM217.417 15.5979L225.295 23.6268L219.295 6.49983L217.214 15.6493L217.417 15.5979ZM216.798 15.7624L218.985 6.16057L205.049 13.511C205.068 13.5604 205.068 13.6157 205.049 13.6652C205.037 13.6944 205.018 13.7199 204.995 13.7396C204.971 13.7594 204.943 13.7726 204.914 13.7783L208.659 17.9521L216.798 15.7624ZM208.582 18.4353L204.149 13.511L196.833 10.4269L211.417 24.1511L208.582 18.4353ZM211.659 25.0249L207.314 23.1642L208.988 30.6174L211.659 25.0249ZM211.659 32.3753L209.104 31.7174L206.394 50.7154L209.617 46.0276L212.966 37.0632L211.659 32.3753ZM206.443 51.3322L216.45 52.1649L209.82 46.408L206.443 51.3322ZM213.149 37.7417L210.033 46.0995L216.711 51.9079L213.149 37.7417ZM240.141 110.105V110.259L242.202 108.398L240.141 110.105ZM242.483 107.648L240.015 104.399L240.131 109.591L242.483 107.648ZM239.995 103.7L242.783 107.37L244.718 105.746L243.499 102.806L238.979 102.888L239.995 103.7ZM248.405 102.744L243.934 102.826L245.047 105.52L248.405 102.744ZM244.989 106.404L243.228 107.997L248.56 115.039L244.989 106.404ZM242.938 108.254L240.16 110.732V111.153L248.628 115.749L242.938 108.254ZM248.657 116.252L240.083 111.606L237.953 117.774L248.657 116.252ZM239.783 111.112L238.573 112.212L239.783 111.184V111.112ZM232.263 116.612L234.934 116.797L235.747 114.823L235.863 114.258V114.186L235.989 113.6L232.263 116.612ZM235.311 116.91L237.547 117.805L239.579 111.904L236.25 114.607L235.311 116.91ZM236.366 113.672L239.773 110.588V110.403L236.492 113.127L236.366 113.672ZM236.579 112.479L239.725 109.868L239.589 103.875L238.524 103.042L236.579 112.479ZM238.612 102.497L242.986 102.405L238.95 99.7524L238.612 102.497ZM236.241 90.3357L236.337 90.4796L238.96 99.2795L243.509 102.281L245.038 98.2618L234.218 84.2292L236.25 90.1918C236.271 90.2364 236.277 90.2867 236.27 90.3357H236.241ZM232.757 84.2909L235.379 88.8348L233.492 83.2834L233.444 83.232L237.412 68.1405L227.173 69.4564L232.011 80.0451C232.025 80.0849 232.025 80.1287 232.011 80.1685L232.757 84.2909ZM227.056 70.1349V71.5125L230.085 76.6526L227.056 70.1349ZM225.556 78.4619L232.331 83.9002L231.702 80.2096L226.95 72.0882L225.556 78.4619ZM226.66 70.9573V69.3741L223.03 65.4985L226.66 70.9573ZM222.576 64.5424L226.95 69.076L237.092 67.7704L217.504 53.0285L222.576 64.5424ZM222.101 64.4293L216.963 52.7612L207.285 62.4761C207.275 62.5211 207.251 62.5611 207.217 62.5891L222.101 64.4293ZM207.043 62.1985L216.575 52.5864L206.278 51.7229L207.043 62.1985ZM205.882 51.5892C205.834 51.5596 205.8 51.5117 205.785 51.4556L205.678 50.9313L201.178 37.6594L206.578 60.6976L205.882 51.5892ZM206.578 62.4144L200.007 34.2361L187.31 55.8247L206.578 62.4144ZM199.456 34.4006L178.406 57.7368L186.836 55.7836C186.862 55.7276 186.907 55.6837 186.962 55.6602L199.456 34.4006ZM217.843 115.615L214.756 107.391L205.872 117.301L217.843 115.615ZM202.581 115.265L205.194 117.167L206.994 105.859L202.581 115.265ZM207.594 104.625L205.659 116.962L214.601 106.979L206.665 97.0796L207.594 104.625ZM214.65 106.455L214.795 101.85L217.137 97.7375L206.588 96.3908L214.65 106.455ZM206.278 95.5786L210.227 83.1395L199.397 72.6947L206.278 95.5786ZM198.962 81.5871L205.34 93.7899L199.02 72.6947L198.962 81.5871ZM198.855 71.7592L206.24 63.0312L190.407 72.5816L198.855 71.7592ZM189.933 72.4068L206.056 62.6714L187.223 56.2462L189.933 72.4068ZM189.478 72.0265L186.836 56.2462L178.203 58.2406L189.478 72.0265ZM199.552 33.7323L183.516 22.424L183.72 22.9072L183.197 22.3007L178.126 57.4696L199.552 33.7323ZM177.729 57.5826L182.81 22.3212L162.419 35.5828L177.729 57.5826ZM177.158 57.449L163.145 37.3202L170.306 53.4088H170.403L177.158 57.449ZM164.141 66.3106L173.045 63.5863L159.119 64.1826L164.141 66.3106ZM174.322 63.1237L170.142 54.0565L158.809 63.7817L174.322 63.1237ZM158.17 63.7919L169.938 53.6864C169.924 53.6467 169.924 53.6028 169.938 53.563L161.964 35.6445L156.728 26.2997L152.944 43.622L153.051 43.879H152.828L152.596 44.2285L135.95 48.2276L136.076 48.2893H135.786L142.56 55.9275L142.947 58.878L158.17 63.7919ZM156.544 63.6891L142.86 59.2481L138.776 62.3321L156.544 63.6891ZM138.157 62.3321L142.589 58.9294L142.25 56.3284L132.65 61.849L138.157 62.3321ZM141.95 56.0406L130.889 51.5276L129.35 57.634L132.05 61.7462L141.95 56.0406ZM131.731 62.1471L126.892 61.2219L130.976 64.3676L131.731 62.1471ZM130.763 64.7583L126.215 61.2527L128.063 71.6667L130.763 64.7583ZM127.976 73.6919L125.344 93.0086L130.55 86.0591L127.976 73.6919ZM130.676 86.5011L125.363 93.6357L135.041 93.7282L130.676 86.5011ZM135.515 96.2366L135.273 94.5814L132.679 99.3207L135.515 96.2366ZM134.866 94.5198L126.156 100.842L131.586 100.441L134.866 94.5198ZM131.586 100.852L125.982 101.264L132.524 107.308L131.586 100.852ZM125.508 101.377L122.285 104.738L122.489 106.075L131.924 107.288L125.508 101.377ZM120.669 108.203L130.666 107.535L122.314 106.507L119.411 106.414L120.669 108.203ZM121.056 101.695C121.046 101.717 121.031 101.736 121.012 101.75C120.994 101.764 120.972 101.774 120.95 101.778L119.305 105.962L122.101 106.054L121.879 104.594L125.285 101.109L125.402 101.027L124.898 94.5506L121.056 101.695ZM120.408 83.0572L127.56 72.5508L119.769 71.4096L120.408 83.0572ZM120.679 93.0908L120.069 83.7049L118.066 80.9189L120.679 93.0908ZM117.853 79.9526L120.108 82.975L119.469 71.3377H119.421V71.2657L110.343 66.1256L117.853 79.9526ZM119.479 70.8648L121.511 61.263L110.169 65.4985L119.479 70.8648ZM109.801 65.0564L109.898 65.2209L121.511 60.8621L107.207 49.6051L109.801 65.0564ZM86.052 43.9612L86.1294 44.4341V44.6603L109.308 64.5732L106.714 49.1528L106.056 44.5267L109.927 41.6173L101.449 36.2202L101.352 36.323L94.3555 18.9698H94.3167C94.2913 18.9685 94.2664 18.9619 94.2434 18.9503C94.2204 18.9387 94.1997 18.9225 94.1826 18.9024C94.1655 18.8824 94.1524 18.8589 94.1438 18.8334C94.1353 18.808 94.1316 18.781 94.1329 18.7539C94.1331 18.7197 94.1422 18.6862 94.1593 18.6572C94.1764 18.6281 94.2008 18.6047 94.2296 18.5895V18.4969H94.3555L95.8361 4.45404L80.6808 14.94L86.052 43.9612ZM80.497 15.968L78.3775 26.9473L85.6068 43.6734L80.497 15.968ZM85.6068 44.6295L78.1646 27.4614L77.2936 29.6613C77.3341 29.6824 77.3653 29.7192 77.3807 29.7641L84.4068 45.7603L85.6068 44.6295ZM85.7713 53.7789L84.581 50.0472L84.368 49.2042L84.3197 48.0425L84.068 49.7285V53.6042L85.6068 55.2799L85.7713 53.7789ZM84.9681 58.9705L80.7099 58.3331V62.5378L84.9681 58.9705ZM80.584 57.9425L85.2681 58.6518L85.5584 55.8453L83.7777 53.9331L76.2291 53.563L78.4549 56.6471L80.584 57.9425ZM80.284 62.8153V58.2611L78.3969 57.12L77.6614 59.5462L79.2292 62.9284L80.284 62.8153ZM78.8808 62.9695L77.371 59.7312L76.8001 59.577L74.6032 60.6051L69.2611 64.0592L78.8808 62.9695ZM65.8352 59.3303L68.4772 64.0387L74.0709 60.3583L69.6869 58.3023L65.7191 56.5443L65.8352 59.3303ZM43.3539 38.1529C43.8052 39.7815 44.5845 41.2863 45.6378 42.5631L53.9122 42.9127L42.299 29.5483C42.4732 31.2445 43.0248 36.2819 43.3539 38.1529ZM42.2312 28.7258V28.8184L54.4542 42.9332V42.9949L65.5836 56.0714L69.174 57.6546L51.8025 31.3987C51.7852 31.3806 51.7716 31.3589 51.7622 31.3351C51.7528 31.3113 51.748 31.2857 51.748 31.2599C51.748 31.2341 51.7528 31.2086 51.7622 31.1847C51.7716 31.1609 51.7852 31.1393 51.8025 31.1211C51.8387 31.0835 51.8873 31.0624 51.938 31.0624C51.9886 31.0624 52.0373 31.0835 52.0735 31.1211L69.4159 57.2742L67.2191 43.9098C67.2141 43.8792 67.2141 43.8479 67.2191 43.8173L66.8514 39.2426V39.0061L68.3127 38.5435L62.6319 35.9015L68.1869 36.323V32.9305L64.3836 28.9623L64.2868 28.8595L64.0448 24.2848L51.3864 25.5184L51.1154 25.395C51.1108 25.3747 51.1108 25.3536 51.1154 25.3333V25.3333L58.7898 17.582L64.1319 17.9418L68.3901 14.8577L67.8869 10.8792L56.8543 8.48392L58.935 10.3549L61.3738 10.0568L66.5126 11.4549L57.3091 12.7297L50.3315 15.6287L43.9539 12.1129L44.4184 14.4465L48.5895 19.3296C48.6174 19.3619 48.6329 19.4041 48.6329 19.4479C48.6329 19.4917 48.6174 19.5338 48.5895 19.5661C48.5965 19.5822 48.6001 19.5998 48.6001 19.6175C48.6001 19.6352 48.5965 19.6528 48.5895 19.6689C48.5895 19.718 48.5711 19.765 48.5385 19.7997C48.5058 19.8344 48.4615 19.8539 48.4153 19.8539V19.8539L45.7926 19.6997L41.3893 21.7558L40.4215 28.7464L42.2312 28.7258ZM51.967 25.0147L64.0061 23.853L63.7061 18.1988L51.967 25.0147ZM63.2222 17.9932L58.8672 17.7054L52.2186 24.3773L63.2222 17.9932ZM40.9635 21.7661L34.9633 25.4156L33.3084 26.053L39.9763 28.4894L40.9635 21.7661ZM14.4175 29.9903L34.7407 27.9343L38.3601 28.3455L32.6793 26.2894L23.5242 26.1352L18.2498 28.3763L13.3142 27.5333L14.4175 29.9903ZM9.57861 28.3146L13.9045 29.8567L12.7819 27.3791L2.60098 10.9306L9.57861 28.3146Z" fill="url(#paint2_radial_202_3417)" stroke="url(#paint3_radial_202_3417)"/>
<defs>
<radialGradient id="paint0_radial_202_3417" cx="0" cy="0" r="1" gradientUnits="userSpaceOnUse" gradientTransform="translate(-65.2938 87.3699) rotate(-17.6605) scale(251.862 137.96)">
<stop stop-color="#C6B38A"/>
<stop offset="0.463601" stop-color="#F3C691"/>
<stop offset="1" stop-color="#B4703E"/>
</radialGradient>
<radialGradient id="paint1_radial_202_3417" cx="0" cy="0" r="1" gradientUnits="userSpaceOnUse" gradientTransform="translate(-72.2896 87.8998) rotate(-17.7155) scale(258.573 142.019)">
<stop stop-color="#C6B38A"/>
<stop offset="0.463601" stop-color="#F3C691"/>
<stop offset="1" stop-color="#B4703E"/>
</radialGradient>
<radialGradient id="paint2_radial_202_3417" cx="0" cy="0" r="1" gradientUnits="userSpaceOnUse" gradientTransform="translate(-72.2896 87.8998) rotate(-17.7155) scale(258.573 142.019)">
<stop stop-color="#C6B38A"/>
<stop offset="0.463601" stop-color="#F3C691"/>
<stop offset="1" stop-color="#B4703E"/>
</radialGradient>
<radialGradient id="paint3_radial_202_3417" cx="0" cy="0" r="1" gradientUnits="userSpaceOnUse" gradientTransform="translate(-72.2896 87.8998) rotate(-17.7155) scale(258.573 142.019)">
<stop stop-color="#C6B38A"/>
<stop offset="0.463601" stop-color="#F3C691"/>
<stop offset="1" stop-color="#B4703E"/>
</radialGradient>
</defs>
</svg>
