<svg width="898" height="583" viewBox="0 0 898 583" fill="none" xmlns="http://www.w3.org/2000/svg">
<path d="M8.08702 133.243L47.3733 218.244L107.368 220.455L150.733 212.275L222.759 183.582L235.698 140.173L320.296 16.2212L320.717 15.5966L338.612 20.9516L344.041 6.84596L372.353 29.1604L413.275 -13.9441L412.517 -14.6363L414.048 -14.7442L418.803 -18.8947L547.163 -68.9364L632.296 -116.238L633.36 -116.821C633.649 -116.892 633.951 -116.845 634.205 -116.69L725.018 -122.358L781.434 66.6924L896.672 130.506L899.351 131.38L799.67 177.926L806.48 216.113C806.48 216.113 806.48 216.113 806.436 216.394L799.527 315.977L836.581 349.991L980.83 351.152L980.027 350.396L981.243 350.584L937.608 282.844C937.601 282.711 937.622 282.577 937.669 282.451C937.886 282.406 938.11 282.441 938.303 282.55V282.55L964.797 286.188L942.671 200.795L840.294 209.158L832.495 185.418C832.411 185.142 832.426 184.841 832.537 184.572C832.649 184.303 832.848 184.085 833.099 183.959C833.361 183.865 833.645 183.876 833.897 183.989C834.149 184.102 834.351 184.31 834.465 184.573L842.099 205.183L943.816 196.891L944.345 196.973L966.941 284.221L990.097 287.4L1062.42 297.726L963.043 211.477L979.529 188.16C979.704 187.922 979.956 187.76 980.235 187.707C980.513 187.655 980.799 187.715 981.034 187.876C981.256 188.056 981.401 188.323 981.436 188.619C981.472 188.915 981.395 189.216 981.222 189.457L965.921 211.06L1066.17 298.307L1066.65 298.38C1066.81 298.196 1067.02 298.075 1067.25 298.037C1067.49 298 1067.72 298.049 1067.92 298.175L1069.51 299.111L1104.6 308.39L1105.08 308.464L1109.67 309.175L1195.46 293.359L1196.26 293.081L1236.87 374.724L1282.77 369.753C1283.05 369.725 1283.32 369.812 1283.54 369.995C1283.75 370.178 1283.89 370.444 1283.92 370.735C1283.93 370.884 1283.91 371.034 1283.86 371.176C1283.82 371.318 1283.75 371.449 1283.65 371.563C1283.56 371.677 1283.45 371.77 1283.32 371.838C1283.2 371.907 1283.06 371.948 1282.92 371.96L1237.19 376.899L1224.21 517.449C1224.22 517.582 1224.2 517.717 1224.15 517.842L1274.11 548.908C1274.35 549.06 1274.52 549.309 1274.59 549.599C1274.65 549.889 1274.61 550.198 1274.46 550.457C1274.36 550.639 1274.21 550.787 1274.03 550.882C1273.85 550.977 1273.65 551.015 1273.46 550.992L1273.04 550.927L1222.39 520.099L1222.08 520.05L1221.6 519.977L1219.47 518.326L1218.95 518.244L1219.3 478.866L1213.73 402.932L1175.57 349.835L1128.23 355.043L1128.97 356.192C1129.08 356.417 1129.12 356.675 1129.08 356.928C1129.04 357.18 1128.93 357.414 1128.75 357.596L1140.01 393.252C1140.24 393.413 1140.4 393.664 1140.46 393.952C1140.52 394.24 1140.46 394.542 1140.31 394.793C1140.22 394.981 1140.07 395.132 1139.89 395.228C1139.71 395.324 1139.51 395.359 1139.31 395.328L1138.73 395.238L1117.81 425.515L1117.69 426.301L1132.3 432.585L1135.33 457.827C1135.35 457.98 1135.33 458.139 1135.26 458.276L1144.52 547.026L1243.27 648.527L1271.79 649.202C1271.94 649.208 1272.07 649.244 1272.2 649.307C1272.33 649.37 1272.44 649.46 1272.54 649.571C1272.63 649.681 1272.7 649.811 1272.75 649.952C1272.79 650.093 1272.81 650.243 1272.8 650.393C1272.77 650.682 1272.65 650.953 1272.45 651.155C1272.25 651.357 1271.98 651.476 1271.71 651.489L1243.85 650.743L1209.56 729.651L1260.27 821.649L1248 843.261L1278.64 847.369L1252.43 864.64L1267.1 925.083L1200.36 924.53L1186.9 916.7L1166.47 912.044L1196.63 894.062L1216.72 840.09L1221.62 822.798L1214.8 772.768L1200.51 736.068L1165.63 697.792L1179.8 660.724L1160.82 620.769C1160.78 620.628 1160.77 620.479 1160.8 620.333C1160.82 620.187 1160.87 620.048 1160.95 619.927L1079.36 596.785L1030.04 639.624L1082.57 708.97L1083.02 709.557L1049.51 776.456L1105.36 792.511L1082.63 751.23C1082.55 751.116 1082.5 750.986 1082.46 750.848C1082.43 750.71 1082.43 750.567 1082.45 750.426C1082.47 750.285 1082.52 750.149 1082.59 750.027C1082.66 749.905 1082.76 749.798 1082.87 749.714C1083.1 749.539 1083.38 749.464 1083.66 749.507C1083.93 749.55 1084.18 749.706 1084.35 749.943L1108.76 794.302L1091.24 816.597L1086.23 843.413L1086.48 843.911L1097.13 895.396L1024.26 894.184L1008.64 878.662L1045.89 824.009L1047.33 779.683L1047.42 779.122L1047.23 777.886L1046.83 775.237L1018.82 692.9L965.469 669.069C965.208 668.952 965.002 668.729 964.898 668.449C964.795 668.169 964.801 667.855 964.916 667.575C965.031 667.296 965.245 667.074 965.512 666.959C965.778 666.844 966.075 666.845 966.337 666.961L1018.81 690.485L1026.52 640.633C1026.52 640.519 1026.54 640.403 1026.58 640.296L978.028 637.557C977.938 637.676 977.822 637.77 977.689 637.829C977.557 637.889 977.414 637.914 977.272 637.9L976.849 637.834C976.723 637.841 976.597 637.822 976.479 637.777V637.777C976.254 637.685 976.067 637.513 975.949 637.291C975.83 637.069 975.787 636.81 975.826 636.555C975.866 636.301 975.985 636.067 976.165 635.891C976.346 635.715 976.576 635.608 976.818 635.588L925.341 548.586L924.271 546.408L888.546 516.739L903.868 570.211L903.711 571.222L904.128 572.723L907.278 608.333L933.887 604.229L959.643 629.425C959.845 629.62 959.966 629.892 959.982 630.184C959.997 630.475 959.905 630.764 959.726 630.989C959.613 631.129 959.469 631.236 959.307 631.302C959.146 631.367 958.972 631.389 958.802 631.364C958.586 631.382 958.369 631.348 958.168 631.266L933.118 606.754L905.399 611.031L901.998 572.854L842.722 581.389L813.432 563.292C813.313 563.435 813.166 563.549 813.002 563.627L730.978 594.683L723.088 610.707C722.988 610.909 722.832 611.074 722.641 611.178C722.45 611.283 722.234 611.322 722.023 611.289L721.654 611.232C721.524 611.173 721.407 611.086 721.312 610.976C721.217 610.866 721.145 610.736 721.1 610.594C721.056 610.452 721.041 610.301 721.055 610.151C721.069 610 721.113 609.855 721.184 609.722L729.074 593.698L729.143 593.249L729.513 593.306L808.843 562.524L704.345 538.426L703.975 538.369L671.29 530.323L663.37 544.791L641.28 582.646L641.847 584.228L641.107 584.114L644.754 658.486L663.537 704.273L663.855 705.012C663.896 705.28 663.854 705.556 663.734 705.798L663.709 718.901L638.323 739.231L637.863 778.938L569.522 772.964L568.94 772.874L561.812 758.091L562.171 757.514L576.944 731.978L581.495 702.561L576.411 614.746L545.551 529.496C545.388 529.351 545.266 529.162 545.194 528.95C545.123 528.737 545.105 528.507 545.143 528.283L544.532 526.637L432.866 396.006L432.331 396.671L432.417 396.109L425.71 401.337L423.817 417.772L424.241 422.379L427.634 444.172L420.271 472.177L389.325 490.67L389.061 490.629L321.062 487.697L320.778 487.079L309.77 457.497L311.688 440.549L262.26 360.244L214.48 350.783L214.215 350.397C209.213 342.097 206.029 332.692 204.893 322.858C204.411 311.287 206.426 277.971 206.642 272.027L197.506 269.521C197.506 269.521 197.506 269.521 197.136 269.464L196.819 269.415L168.309 261.67L55.0612 255.648L29.4965 241.806L1.33412 121.277L8.08702 133.243ZM46.0044 220.447L19.6514 163.428L50.7846 236.419L100.46 222.433L46.0044 220.447ZM151.609 214.308L107.962 222.559L54.1597 237.688L78.3471 245.741L108.533 238.11L185.401 200.854L151.609 214.308ZM112.452 238.659L159.163 246.632L170.701 244.106L204.783 193.793L112.452 238.659ZM174.238 242.928L208.909 228.69L234.375 221.133L208.778 192.456L174.238 242.928ZM236.646 220.795L249.208 223.543L231.28 194.615L210.952 192.045L236.646 220.795ZM224.542 185.353L212.982 190.117L230.808 192.07L230.16 177.369L224.893 184.832L224.542 185.353ZM313.277 183.674L304.123 172.889L270.808 199.35L313.277 183.674ZM280.324 198.351L304.402 192.419L345.171 192.977L328.672 185.596L315.261 185.189L280.324 198.351ZM580.074 729.588L604.191 696.817L603.821 696.76L604.902 695.72L589.695 642.208L584.322 702.826L580.074 729.588ZM606.375 692.844L638.336 585.237L590.344 636.617L606.375 692.844ZM606.951 698.221L604.245 734.247L659.287 705.858L607.204 697.283L606.951 698.221ZM677.246 -71.0011L676.718 -71.0828L626.877 -35.7386L662.233 -30.2691L677.246 -71.0011ZM665.301 -32.6112L694.647 -57.5598L679.474 -71.0588L665.301 -32.6112ZM456.625 101.807L453.906 143.521L506.409 130.144L456.625 101.807ZM504.437 126.448L486.509 105.567L460.402 101.529L504.437 126.448ZM487.596 103.436L509.726 129.336L524.334 125.157L522.099 96.9323L522.034 95.6003L522.121 95.0389L522.234 94.3091L536.543 33.2918L448.575 18.821L432.63 76.7686L456.336 98.4279L487.596 103.436ZM656.292 254.041L666.144 257.519L675.695 211.516L680.371 162.402L652.497 225.402L655.058 253.275L657.294 253.161L656.292 254.041ZM662.123 451.763L697.427 453.718L631.197 405.764L616.18 420.283L662.123 451.763ZM619.034 424.921L635.055 447.288C635.218 447.318 635.372 447.385 635.506 447.485C635.64 447.586 635.751 447.716 635.831 447.868L636.441 449.17L636.653 449.548L657.482 451.333L619.034 424.921ZM629.513 404.411L574.85 400.266L614.258 419.066L629.513 404.411ZM633.708 402.474L776.334 361.307L718.684 310.713L698.378 310.101L620.181 368.536L619.917 368.495L566.046 364.127L571.321 397.191L570.309 397.437L633.708 402.474ZM540.262 91.8095L525.599 95.2896L554.979 118.401L593.318 126.977L543.212 91.9785L539.787 92.0809L540.262 91.8095ZM541.867 89.1263L537.844 36.4247L524.53 93.4572L541.867 89.1263ZM524.362 97.34L526.535 124.923L599.178 133.172L597.807 130.488L554.245 120.702L524.362 97.34ZM599.009 128.317L602.966 134.217L602.758 135.565L580.64 213.826L633.48 156.643L662.575 133.322L676.457 86.2642L546.715 91.3708L599.009 128.317ZM638.77 209.195L638.692 209.701L651.066 223.111L680.692 156.129L663.427 136.213L635.808 158.382L638.518 206.627C638.707 206.752 638.853 206.936 638.935 207.155C639.018 207.375 639.033 207.617 638.979 207.848L638.77 209.195ZM633.867 160.439L580.825 217.878L581.353 217.96L628.97 241.766L636.709 208.876L633.867 160.439ZM664.946 134.436L682.37 154.376L694.969 145.346L678.259 89.3023L664.946 134.436ZM699.562 308.043L718.081 308.666L720.082 260.747C710.95 280.603 701.39 302.175 699.641 307.882L699.562 308.043ZM721.406 253.939L770.189 197.45L687.36 206.423L721.406 253.939ZM704.722 234.113L704.623 245.595L703.698 265.915L719.965 255.211L704.722 234.113ZM770.315 194.883L737.864 156.293L696.778 147.293L686.545 203.997L770.315 194.883ZM702.514 231.243L684.983 206.745L678.135 211.836L702.372 243.005L702.471 231.523L702.514 231.243ZM684.424 204.761L694.483 148.835L682.975 157.114L677.963 209.798L684.424 204.761ZM696.888 145.183L735.517 153.631L680.375 90.3194L696.888 145.183ZM739.128 154.419L771.808 192.93L772.724 139.785L683.138 89.5972L739.128 154.419ZM773.671 195.575L783.34 212.131L774.397 152.058L773.671 195.575ZM774.052 200.462L778.505 256.679L784.512 220.992L784.012 217.581L774.052 200.462ZM771.776 198.731L722.809 255.363C722.812 255.516 722.788 255.668 722.74 255.813L762.418 318.341L776.885 265.051L771.776 198.731ZM761.949 321.373L722.209 258.892L720.151 309.273L777.334 359.392L761.949 321.373ZM718.326 258.809L702.903 268.954L688.823 280.917C690.301 284.307 696.052 297.153 698.365 304.236C702.403 294.226 713.296 270.332 718.326 258.809ZM701.263 267.666L702.239 246.663L677.092 214.031L667.872 258.591L687.621 278.891L701.263 267.666ZM650.209 225.853L637.878 212.161L630.592 242.822L652.591 252.778L650.209 225.853ZM628.112 244.163L580.275 220.38L579.271 220.225L507.602 259.55L649.212 253.635L628.112 244.163ZM600.174 137.924L525.415 181.83L578.276 216.162L600.174 137.924ZM599.658 135.66L526.329 127.305L525.252 179.39L599.658 135.66ZM524.234 127.556L512.064 131.019L510.374 131.448L523.173 174.988L524.234 127.556ZM454.249 102.474L389.602 135.585L451.538 143.787L454.249 102.474ZM443.991 147.448L335.265 163.968L365.52 180.72L443.991 147.448ZM367.619 182.194L393.597 200.009L447.787 148.093L367.619 182.194ZM444.752 144.979L386.418 137.277L335.826 146.695L297.551 163.25L332.012 162.258L444.752 144.979ZM292.698 162.786L334.915 144.542L377.823 136.522L293.982 129.3L292.698 162.786ZM291.818 130L248.643 153.039L290.383 163.06L291.818 130ZM248.222 174.645L303.65 170.344L291.445 165.639L248.222 174.645ZM382.547 134.666L344.596 105.4L344.12 105.326L297.43 127.304L382.547 134.666ZM386.369 134.797L452.845 100.705L348.029 105.241L386.369 134.797ZM453.026 98.4907L431.242 78.3934L352.083 102.822L453.026 98.4907ZM446.154 19.0788L376.119 32.0998L430.997 75.079L446.154 19.0788ZM449.213 16.4479L537.796 30.4391C537.969 30.2573 538.198 30.1492 538.438 30.136C538.664 30.1194 538.886 30.1824 539.072 30.3151C539.257 30.4478 539.394 30.6426 539.461 30.8691V30.8691L543.82 88.3938L657.789 -8.19338L627.304 -17.5081C627.159 -17.4728 627.008 -17.4961 626.881 -17.5735C626.75 -17.7189 626.647 -17.891 626.58 -18.0798V-18.0798L657.018 -26.9945L623.248 -32.2187L523.562 -21.313L522.461 -21.1958C522.262 -21.1465 522.055 -21.1787 521.88 -21.2858V-21.2858L418.006 -12.6948L449.213 16.4479ZM658.965 -10.1958L661.631 -27.4306L631.369 -18.6036L658.965 -10.1958ZM669.996 -68.5588L533.751 -24.5653L623.804 -35.8116L669.996 -68.5588ZM674.531 -72.3408L606.052 -81.2674L527.974 -24.9991L674.531 -72.3408ZM659.035 -6.10369L545.937 90.1008L676.612 84.9088L675.628 81.4799L676.219 82.2037L659.035 -6.10369ZM678.134 80.3157L683.522 51.0857L662.724 1.53722L678.134 80.3157ZM685.465 49.7193L732.451 79.0038L663.392 -2.78549L685.465 49.7193ZM685.391 52.2946L679.446 84.4275L734.105 82.6512L685.391 52.2946ZM682.198 86.5777L770.303 135.847L737.244 84.7463L682.198 86.5777ZM773.245 136.417L779.765 113.512L741.679 87.5593L773.245 136.417ZM780.394 111.195L783.526 97.9417L744.204 86.6278L780.394 111.195ZM780.9 117.367L774.677 139.052L785.576 212.017L790.943 164.734L780.9 117.367ZM779.157 265.403L764.323 319.671L797.113 315.489L785.408 228.144L779.157 265.403ZM764.407 321.925L779.173 358.699L796.291 318.006L764.407 321.925ZM778.251 364.305C778.251 364.305 778.251 364.305 777.934 364.256C777.713 364.117 777.537 363.91 777.431 363.661L635.508 404.132L798.33 443.691L778.893 364.002C778.701 364.09 778.49 364.117 778.286 364.08L778.251 364.305ZM636.36 407.023L701.284 453.97L797.243 445.822L636.36 407.023ZM700.762 456.648L675.745 468.644L729.605 500.716L700.762 456.648ZM696.798 456.035L664.118 454.256L673.691 467.234L696.798 456.035ZM661.062 454.071L637.672 452.062L659.02 499.454L672.012 468.641L661.062 454.071ZM659.058 504.805L658.616 503.817L641.402 516.445L668.861 526.441L659.023 505.03L659.058 504.805ZM657.687 501.777L634.692 450.681L615.546 424.037L617.762 512.903L638.081 515.529L639.032 515.676L657.687 501.777ZM637.998 517.815L617.74 515.141L638.992 575.049L637.998 517.815ZM616.115 516.902L597.045 567.065L638.36 579.837L616.115 516.902ZM613.259 421.326L570.731 401.009L615.438 509.382L613.259 421.326ZM568.362 400.93L546.031 412.708L545.694 436.224L612.485 507.833L568.362 400.93ZM568.996 396.831L563.524 362.243L619.27 366.728L697.221 308.485C697.221 308.485 697.29 308.036 697.334 307.755C694.292 298.746 690.778 289.931 686.808 281.352L666.307 259.959L654.2 255.671L527.868 360.463L568.996 396.831ZM650.845 255.67L504.182 261.723L526.807 358.574L650.845 255.67ZM577.806 218.504L525.429 184.189L525.333 188.658L524.056 184.321L504.36 258.819L577.806 218.504ZM522.929 180.411L508.977 132.783L433.308 224.546L522.798 180.908L522.929 180.411ZM506.493 132.399L453.621 146.063L431.632 223.137L506.493 132.399ZM450.72 148.374L395.379 201.434L428.75 225.681L450.72 148.374ZM395.094 203.977L406.947 286.861L428.077 227.933L395.094 203.977ZM393.878 211.836L388.749 291.863L394.237 297.311L391.573 307.188L397.414 304.413L405.283 290.972L393.878 211.836ZM397.014 306.995L391.56 309.37L395.69 358.582L397.014 306.995ZM397.351 377.923L393.281 413.68L408.63 410.306L417.769 418.043L423.042 401.097L399.075 311.165L397.351 377.923ZM408.16 412.993L390.972 416.714L395.406 377.91L389.787 312.085L351.027 422.721L371.721 431.671L414.101 440.354L417.184 420.425L408.16 412.993ZM370.308 433.809L351.146 425.097L359.077 468.976L370.402 465.727L370.308 433.809ZM372.428 465.925L374.649 466.958L380.741 454.163L372.49 437.538L372.428 465.925ZM348.51 423.597L334.401 381.176L335.191 453.727L356.496 468.519L348.51 423.597ZM349.559 419.965L385.099 318.603L372.754 338.939L363.876 341.762L363.873 348.429L356.942 356.152L350.116 347.106L336.429 349.185L334.527 374.068L349.559 419.965ZM350.877 344.637L356.926 352.758L361.705 347.749L361.777 340.287L371.395 337.234L388.32 309.329L391.748 298.363L387.618 294.275L365.199 318.169L348.8 316.436L345.665 336.703L325.447 332.023L346.045 345.786L350.877 344.637ZM348.556 313.812L364.524 315.535L385.968 292.698L333.686 265.468L331.316 289.187L348.556 313.812ZM333.972 262.925L386.73 290.574L392.319 203.375L336.994 231.145L333.83 262.789L333.972 262.925ZM365.276 214.482L390.616 201.789L365.847 193.646L365.276 214.482ZM386.796 198.152L364.961 182.933L331.665 164.503L297.318 165.455L364.53 191.316C364.662 191.202 364.818 191.125 364.984 191.09C365.15 191.056 365.321 191.065 365.481 191.118L386.796 198.152ZM301.049 172.816L233.402 178.101L264.289 201.963L301.049 172.816ZM286.6 164.43L246.102 154.773L231.02 176.008L286.6 164.43ZM237.839 141.021L226.623 178.547L244.97 152.644L292.147 127.522L292.251 126.848L318.513 22.4984L237.839 141.021ZM294.68 126.189L341.837 103.996L315.758 80.1871L328.209 47.6237L321.037 20.8769L294.68 126.189ZM342.968 101.929L329.176 51.1648L318.292 79.5445L342.968 101.929ZM322.731 18.3223L329.557 44.1534L337.727 22.8265L322.731 18.3223ZM345.026 10.2748L340.7 21.447L370.445 30.3023L345.026 10.2748ZM371.903 32.7697L371.86 33.0504L340.159 23.5476L331 47.7681L345.734 102.587L429.618 76.6476L373.664 32.5822L371.903 32.7697ZM374.486 30.0652L446.413 16.7046L414.899 -12.5433L374.486 30.0652ZM420.093 -17.0857L417.72 -15.0385L521.866 -23.6447L545.197 -66.0216L420.093 -17.0857ZM548.285 -67.0958L525.717 -26.153L604.929 -83.453L629.601 -112.114L548.285 -67.0958ZM633.833 -113.931L607.799 -83.4688L676.129 -74.6229L634.008 -114.364L633.833 -113.931ZM636.463 -114.846L679.873 -73.6412C680.005 -73.4878 680.089 -73.2943 680.112 -73.0869L695.868 -59.153L722.813 -119.997L636.463 -114.846ZM723.596 -116.312L697.632 -57.6154L698.055 -57.55L663.936 -28.3386L660.966 -9.13902L736.531 80.6122L723.596 -116.312ZM779.543 67.722L726.15 -111.836L738.993 82.8899L783.732 95.5594L779.543 67.722ZM781.924 69.4699L785.724 96.3273L886.371 127.13L781.924 69.4699ZM893.205 131.579L786.822 99.0264L800.231 127.428L799.586 175.326L893.205 131.579ZM797.333 176.242L798.093 127.959L785.09 100.425L782.237 112.573L782.159 113.078L793.046 164.427L799.864 190.315L797.333 176.242ZM804.419 216.139L792.363 170.242L786.686 220.581L786.608 221.086L798.124 306.85L804.419 216.139ZM799.082 318.15L798.659 318.085L781.025 360.02L833.568 349.18L799.082 318.15ZM780.634 362.547L800.052 441.658L834.894 351.454L780.634 362.547ZM837.8 351.904L858.497 407.357L978.624 353.168L837.8 351.904ZM965.662 286.897L940.868 283.464L980.845 345.809L965.662 286.897ZM989.126 290.182L967.934 287.248L983.232 346.12L989.126 290.182ZM1074.67 403.952L1067.51 431.989L1081.31 510.691L1074.67 403.952ZM1084.52 528.432L1115.91 425.22L1116 424.659L1076.57 396.889L1076.52 397.225L1084.52 528.432ZM1074.45 397.308L1074.27 394.635L1072.89 382.925L1069.25 417.945L1074.45 397.308ZM1076.4 394.16L1115.91 422.059L1112.98 378.379L1088.3 363.063L1074.34 371.079L1074.07 372.819L1076.4 394.16ZM1086.19 361.645L1024.36 322.995L1072.8 369.518L1086.19 361.645ZM1071.81 373.101L1071.93 372.315L987.388 354.236L1065.56 429.56L1065.93 429.273L1071.81 373.101ZM1069.7 369.557L1015.94 317.956L985.735 351.624L1069.7 369.557ZM1014.45 316.403L991.19 291.881L985.061 348.99L1014.45 316.403ZM1065.17 300.566L993.222 290.988L1016.49 315.454L1088.47 360.216C1088.68 360.196 1088.88 360.238 1089.07 360.338C1089.25 360.438 1089.41 360.591 1089.52 360.78L1113.89 376.047C1114.1 376.033 1114.32 376.091 1114.5 376.212C1114.69 376.333 1114.83 376.512 1114.92 376.724L1134.21 388.79L1065.17 300.566ZM1109.75 311.831L1109.38 311.774L1107 311.406L1076.18 303.246L1108.79 323.294L1181.1 298.381L1109.75 311.831ZM1215.76 401.349L1221.39 477.981L1220.89 516.187L1221.72 516.719L1235.13 376.179L1197.16 299.831L1215.76 401.349ZM1176.59 346.773L1212.82 397.273L1194.52 298.676L1175.43 346.882L1176.59 346.773ZM1173.06 347.148L1193.12 296.562L1110.81 324.929C1110.87 325.215 1110.82 325.517 1110.68 325.771C1110.59 325.92 1110.46 326.043 1110.32 326.131C1110.17 326.219 1110.01 326.268 1109.84 326.274L1126.77 352.23L1173.06 347.148ZM1125.94 354.803L1105.89 324.168L1068.55 301.146L1136.59 388.412L1125.94 354.803ZM1137.18 393.388L1115.02 379.556L1117.87 421.672L1137.18 393.388ZM1130.97 433.528L1117.57 427.777L1086.72 529.233L1108.28 506.356L1134.14 460.231L1130.97 433.528ZM1086.47 532.642L1140.41 545.643L1109.07 508.604L1086.47 532.642ZM1134.57 464.091L1110.5 507.1L1142.05 544.46L1134.57 464.091ZM1220.84 882.057L1220.71 882.899L1233.53 874.479L1220.84 882.057ZM1235.7 870.618L1224.97 850.793L1221.22 879.241L1235.7 870.618ZM1225.45 846.959L1237.57 869.355L1249.52 862.121L1245.34 845.035L1220.59 841.666L1225.45 846.959ZM1272.19 848.843L1247.7 845.515L1251.5 861.164L1272.19 848.843ZM1250.44 865.942L1239.48 873.156L1262.65 916.116L1250.44 865.942ZM1237.67 874.314L1220.41 885.497L1220.06 887.799L1262.42 920.047L1237.67 874.314ZM1262.15 922.822L1219.25 890.204L1202.41 922.089L1262.15 922.822ZM1218.03 887.256L1210.49 892.241L1217.97 887.649L1218.03 887.256ZM1172.32 910.938L1186.75 914.205L1192.86 904.113L1193.97 901.123L1194.03 900.73L1195.21 897.637L1172.32 910.938ZM1188.72 915.141L1200.17 921.914L1216.25 891.407L1195.79 903.359L1188.72 915.141ZM1197.21 898.348L1218.42 884.384L1218.58 883.374L1198.36 895.479L1197.21 898.348ZM1199.38 892.016L1218.76 880.414L1223.09 847.57L1217.98 842.124L1199.38 892.016ZM1218.91 839.222L1242.88 842.412L1223.08 824.519L1218.91 839.222ZM1216.24 770.806L1216.65 771.674L1223.53 821.945L1245.84 842.18L1257.58 821.521L1210.35 735.751L1216.41 770.029C1216.49 770.29 1216.48 770.57 1216.4 770.831L1216.24 770.806ZM1202.32 734.853L1212.8 761.882L1207.19 729.973L1206.97 729.651L1241.38 650.591L1184.36 649.127L1201.84 711.038C1201.88 711.267 1201.84 711.507 1201.73 711.712L1202.32 734.853ZM1183.15 652.734L1181.99 660.257L1194.19 690.885L1183.15 652.734ZM1167.92 696.94L1200.32 732.36L1200.01 711.675L1180.92 663.311L1167.92 696.94ZM1180.29 656.89L1181.63 648.245L1165.08 624.014L1180.29 656.89ZM1163.41 618.409L1183.46 646.862L1239.95 648.3L1145.44 551.249L1163.41 618.409ZM1160.91 617.391L1142.71 549.332L1081.65 594.208C1081.56 594.446 1081.4 594.644 1081.19 594.768L1160.91 617.391ZM1080.56 592.488L1140.74 548.051L1085.24 534.636L1080.56 592.488ZM1083.19 533.571C1082.95 533.369 1082.8 533.078 1082.77 532.759L1082.63 529.806L1069.27 453.529L1079.3 583.899L1083.19 533.571ZM1077.85 593.274L1065.77 433.846L978.191 541.011L1077.85 593.274ZM1062.61 434.278L927.955 543.932L975.636 540.386C975.828 540.103 976.109 539.901 976.427 539.819L1062.61 434.278ZM1094.42 893.311L1084.51 845.791L1027.62 892.404L1094.42 893.311ZM1011.37 878.509L1024.03 891.102L1043.42 830.87L1011.37 878.509ZM1047.74 824.64L1026.74 890.372L1084.01 843.415L1049.04 782.649L1047.74 824.64ZM1084.72 840.593L1089.4 815.565L1105.66 795.088L1049.2 778.822L1084.72 840.593ZM1048.19 774.126L1080.26 709.533L1029.95 643.347L1048.19 774.126ZM1020.06 691.539L1044.58 763.564L1027.89 643.028L1020.06 691.539ZM1027.78 637.78L1075.47 596.356L980.946 635.134L1027.78 637.78ZM978.505 633.779L1074.77 594.236L977.359 543.239L978.505 633.779ZM976.342 631.318L975.245 542.912L926.42 546.511L976.342 631.318ZM1063.71 430.71L985.691 355.41L986.392 358.221L984.051 354.467L926.648 542.235L1063.71 430.71ZM924.386 542.517L981.92 354.252L859.365 409.446L924.386 542.517ZM921.381 541.305L861.86 419.546L887.377 513.454L887.905 513.536L921.381 541.305ZM842.813 578.701L893.735 571.346L817.183 562.837L842.813 578.701ZM901.102 569.899L885.931 516.852L815.83 560.386L901.102 569.899ZM812.333 559.902L885.134 514.659C885.091 514.43 885.128 514.191 885.238 513.986L856.829 409.398L836.132 353.945L800.834 445.343L801.199 446.836L799.983 446.648L798.42 448.361L704.142 456.137L704.777 456.58L703.191 456.335L733.732 503.769L733.354 520.208L812.333 559.902ZM803.542 557.968L732.566 522.155L707.658 535.547L803.542 557.968ZM704.276 535.024L731.355 520.186L731.703 505.697L674.613 527.733L704.276 535.024ZM730.307 503.871L673.714 469.882L660.153 501.928L671.423 526.665L730.307 503.871ZM669.341 528.584L643.698 519.444L663.343 540.073L669.341 528.584ZM661.85 542.026L639.973 519.04L641.269 577.471L661.85 542.026ZM639.083 588.457L608.389 691.718L642.693 658.167L639.083 588.457ZM643.006 660.687L607.965 695.159L660.736 703.84L643.006 660.687ZM661.206 717.938L661.283 708.696L643.116 732.385L661.206 717.938ZM659.116 708.015L606.211 735.183L636.198 737.58L659.116 708.015ZM635.85 739.826L604.904 737.338L635.523 775.874L635.85 739.826ZM602.219 737.554L581.78 753.19L581.761 760.659L632.263 775.255L602.219 737.554ZM570.028 770.743L625.185 775.539L580.445 762.87L564.668 759.912L570.028 770.743ZM577.639 735.534C577.564 735.644 577.466 735.733 577.353 735.796C577.24 735.858 577.115 735.891 576.988 735.893L564.469 757.352L579.664 760.22L579.682 752.06L601.229 735.907L601.932 735.556L604.656 699.763L577.639 735.534ZM589.843 633.206L637.774 581.874L596.195 569.061L589.843 633.206ZM582.847 688.227L587.446 636.457L578.86 619.551L582.847 688.227ZM578.514 614.094L588.274 632.503L594.617 568.414L594.353 568.374L594.414 567.981L549.184 532.242L578.514 614.094ZM595.07 565.84L614.28 515.123L548.763 528.671L595.07 565.84ZM547.128 525.946L547.518 526.926L614.618 512.934L546.018 439.378L547.128 525.946ZM435.259 390.686L435.282 393.333L435.091 394.568L544.841 522.89L543.705 436.491L544.019 410.672L567.616 398.055L525.88 361.42L525.265 361.9L501.715 261.226L501.504 261.193C501.366 261.165 501.236 261.107 501.12 261.025C501.004 260.942 500.905 260.836 500.828 260.712C500.752 260.588 500.7 260.449 500.675 260.302C500.65 260.156 500.652 260.005 500.682 259.859C500.712 259.672 500.79 259.497 500.908 259.353C501.026 259.209 501.179 259.101 501.349 259.043L501.428 258.537L502.115 258.644L522.064 183.208L430.445 227.667L435.259 390.686ZM428.572 233.126L407.723 291.292L433.071 388.738L428.572 233.126ZM432.263 393.959L406.126 293.919L399.511 305.197C399.714 305.346 399.854 305.574 399.9 305.832L424.755 399.12L432.263 393.959ZM425.432 444.061L422.084 422.677L421.634 417.894L422.351 411.509L419.553 420.504L416.279 441.668L423.266 452.119L425.432 444.061ZM416.66 471.733L393.945 464.655L390.393 487.616L416.66 471.733ZM393.588 462.416L418.568 470.246L422.524 455.165L414.415 443.219L373.506 434.821L383.056 453.543L393.588 462.416ZM387.833 488.772L391.681 463.902L382.339 456.077L376.273 468.704L381.977 488.498L387.833 488.772ZM380.04 488.429L374.531 469.469L371.544 468.145L358.678 471.903L326.588 486.253L380.04 488.429ZM311.875 457.535L322.325 485.478L355.98 470.106L333.777 455.175L313.594 442.223L311.875 457.535ZM206.998 322.896C208.087 332.171 211.071 341.047 215.744 348.909L260.635 357.808L208.506 275.017C208.025 284.427 206.782 312.401 206.998 322.896ZM208.831 270.468L208.753 270.974L263.577 358.378L263.525 358.715L313.254 439.526L331.523 451.205L258.84 293.15C258.761 293.036 258.705 292.907 258.674 292.769C258.643 292.631 258.638 292.487 258.66 292.346C258.682 292.205 258.73 292.07 258.801 291.948C258.872 291.825 258.965 291.719 259.075 291.634C259.304 291.459 259.588 291.385 259.864 291.428C260.141 291.471 260.389 291.627 260.555 291.863L333.165 449.332L332.459 374.495C332.457 374.324 332.484 374.153 332.537 373.99L334.393 348.697L334.593 347.406L342.964 346.114L314.174 326.888L344.153 333.882L347.019 315.356L329.602 290.473L329.16 289.83L331.704 264.644L261.536 260.687L260.16 259.784C260.152 259.67 260.17 259.554 260.212 259.448V259.448L308.669 223.602L337.538 230.08L363.396 216.835L364.009 194.684L305.785 172.284L315.567 184.259L329.137 184.691L356.018 196.667L304.683 195.853L264.13 205.79L232.273 181.203L232.838 194.339L251.49 224.528C251.615 224.728 251.664 224.972 251.627 225.211C251.59 225.45 251.47 225.667 251.291 225.82C251.315 225.914 251.32 226.012 251.305 226.109C251.29 226.206 251.255 226.299 251.204 226.381C251.162 226.649 251.022 226.891 250.815 227.052C250.607 227.214 250.349 227.283 250.096 227.244V227.244L235.904 224.187L210.122 231.695L198.931 269.052L208.831 270.468ZM265.132 258.427L331.857 262.253L334.995 231.123L265.132 258.427ZM332.526 229.592L308.988 224.341L267.044 255.159L332.526 229.592ZM207.787 231.391L171.938 246.252L162.363 248.334L196.717 267.272L207.787 231.391ZM55.8763 253.877L168.595 259.818L188.013 265.121L158.728 249.094L108.864 240.518L78.1677 248.3L51.9271 239.527L55.8763 253.877ZM30.8676 240.638L53.1882 252.714L49.1508 238.236L7.44958 139.812L30.8676 240.638Z" fill="url(#paint0_radial_350_1908)" stroke="url(#paint1_radial_350_1908)"/>
<defs>
<radialGradient id="paint0_radial_350_1908" cx="0" cy="0" r="1" gradientUnits="userSpaceOnUse" gradientTransform="translate(-466.538 496.863) rotate(-8.92167) scale(1428.82 784.772)">
<stop stop-color="#C6B38A"/>
<stop offset="0.463601" stop-color="#F3C691"/>
<stop offset="1" stop-color="#B4703E"/>
</radialGradient>
<radialGradient id="paint1_radial_350_1908" cx="0" cy="0" r="1" gradientUnits="userSpaceOnUse" gradientTransform="translate(-466.538 496.863) rotate(-8.92167) scale(1428.82 784.772)">
<stop stop-color="#C6B38A"/>
<stop offset="0.463601" stop-color="#F3C691"/>
<stop offset="1" stop-color="#B4703E"/>
</radialGradient>
</defs>
</svg>
