<svg xmlns="http://www.w3.org/2000/svg" width="835" height="65" fill="none" xmlns:v="https://vecta.io/nano"><path d="M33.86 46.58h2.579a.73.73 0 0 0 .586-.31c.066-.094.11-.203.127-.317a.74.74 0 0 0-.03-.34l-2.745-7.783a.74.74 0 0 0-.265-.349.73.73 0 0 0-.417-.135H12.912c-.152 0-.3.048-.423.138s-.214.217-.26.362l-2.696 7.766c-.037.109-.047.226-.03.34a.73.73 0 0 0 .127.317.74.74 0 0 0 .256.225.73.73 0 0 0 .33.085h3.328a.73.73 0 0 1 .732.717v2.45c0 .194-.077.381-.215.519a.73.73 0 0 1-.518.215H.732a.73.73 0 0 1-.518-.215C.077 50.128 0 49.941 0 49.747v-2.45c0-.096.019-.19.056-.278s.091-.168.159-.235.149-.119.238-.154a.72.72 0 0 1 .279-.05H4.16c.15.001.296-.045.419-.132a.71.71 0 0 0 .263-.352L20.998 1.299c.045-.136.129-.256.241-.345a.73.73 0 0 1 .391-.155h3.328a.75.75 0 0 1 .682.483L42.28 46.08a.75.75 0 0 0 .682.483h3.661a.73.73 0 0 1 .732.717v2.45c0 .194-.077.381-.215.519a.73.73 0 0 1-.518.215H33.86a.73.73 0 0 1-.507-.221c-.134-.137-.209-.321-.209-.513v-2.433a.72.72 0 0 1 .209-.507.71.71 0 0 1 .506-.21zM14.609 33.814h17.288a.73.73 0 0 0 .595-.315c.067-.096.11-.207.125-.324s.002-.235-.038-.345L23.777 8.165a.72.72 0 0 0-.259-.362c-.122-.09-.271-.139-.423-.139s-.3.049-.423.139-.213.217-.259.362l-8.486 24.682c-.037.109-.047.226-.03.34a.73.73 0 0 0 .713.627zM338.753.532c11.531 0 20.882 5.816 20.882 25.266 0 15.816-9.351 24.999-20.882 24.999s-20.948-5.783-20.948-24.999c0-15.816 9.401-25.266 20.948-25.266zm0 45.965c8.852 0 16.073-7.366 16.073-20.849 0-15.966-7.221-20.849-16.073-20.849s-16.073 7.45-16.073 20.849c0 16.166 7.221 20.849 16.073 20.849zM476.359 1.549a.74.74 0 0 1 .215-.519.73.73 0 0 1 .517-.215h16.34c9.484 0 15.225 4.117 15.225 12.699 0 5.75-4.909 12.2-8.137 14.466a.72.72 0 0 0-.292.443c-.037.18-.004.367.093.523l10.599 17.283a.73.73 0 0 0 .615.35h3.91a.71.71 0 0 1 .506.21.72.72 0 0 1 .21.507v2.45c0 .192-.075.376-.209.513a.73.73 0 0 1-.507.221h-6.655a.73.73 0 0 1-.353-.096c-.108-.061-.198-.149-.263-.254l-12.18-19.666a.73.73 0 0 0-.262-.255.74.74 0 0 0-.353-.096h-9.135a.73.73 0 0 0-.732.733v14.999a.74.74 0 0 0 .214.519.73.73 0 0 0 .518.215h3.71a.71.71 0 0 1 .517.204.72.72 0 0 1 .216.513v2.45c0 .194-.078.381-.215.518a.73.73 0 0 1-.518.215h-12.845a.73.73 0 0 1-.732-.733v-2.45a.73.73 0 0 1 .22-.508c.137-.134.321-.209.512-.209h2.862a.73.73 0 0 0 .732-.734V5.449a.73.73 0 0 0-.22-.508c-.137-.134-.321-.209-.512-.209h-2.862a.73.73 0 0 1-.732-.734l-.017-2.45zm9.135 3.9v19.999a.74.74 0 0 0 .22.508c.137.134.321.209.512.209h10.683a.73.73 0 0 0 .482-.183c1.847-1.667 6.456-6.216 6.456-12.083s-3.827-9.216-10.765-9.216h-6.856a.73.73 0 0 0-.288.059.74.74 0 0 0-.242.168c-.068.072-.121.156-.156.249a.74.74 0 0 0-.046.291zm149.201-3.9c0-.192.075-.376.209-.513s.316-.216.507-.221h16.339c11.648 0 21.115 5.816 21.115 23.699 0 21.782-8.935 25.966-22.878 25.966h-14.576a.73.73 0 0 1-.507-.221c-.134-.137-.209-.321-.209-.513v-2.45c0-.094.019-.187.055-.274a.73.73 0 0 1 .155-.233.71.71 0 0 1 .232-.155c.087-.036.18-.055.274-.055h2.878a.73.73 0 0 0 .483-.261c.121-.146.18-.334.166-.523V5.449a.72.72 0 0 0-.209-.507.71.71 0 0 0-.506-.21h-2.879a.73.73 0 0 1-.715-.734l.066-2.45zm9.135 3.9v40.348c0 .192.075.376.209.513a.73.73 0 0 0 .507.221h5.091c9.984 0 18.403-1.917 18.403-21.666 0-15.249-7.787-20.132-16.639-20.132h-6.855c-.19 0-.372.076-.506.21a.72.72 0 0 0-.21.507z" fill="#e5e5e5"/><path d="M162.547 34.514c-1.75 0-3.462-.52-4.918-1.494s-2.59-2.359-3.26-3.979-.845-3.403-.504-5.123 1.185-3.3 2.423-4.54 2.815-2.084 4.532-2.427a8.84 8.84 0 0 1 5.115.505 8.85 8.85 0 0 1 3.972 3.265c.973 1.458 1.492 3.172 1.492 4.926 0 2.351-.932 4.607-2.592 6.269s-3.912 2.597-6.26 2.597zm0-13.049c-.83 0-1.641.247-2.331.709a4.2 4.2 0 0 0-1.544 1.887c-.317.768-.399 1.614-.236 2.429a4.2 4.2 0 0 0 1.152 2.15 4.19 4.19 0 0 0 2.151 1.146c.815.16 1.659.075 2.424-.246a4.2 4.2 0 0 0 1.879-1.554c.458-.693.702-1.506.698-2.338 0-.551-.108-1.096-.319-1.605a4.18 4.18 0 0 0-.91-1.359c-.389-.389-.852-.696-1.36-.906s-1.054-.316-1.604-.314z" fill="url(#A)"/><path d="M202.131 25.798c0-19.449-9.351-25.266-20.898-25.266a19.46 19.46 0 0 0-9.977 2.701 19.5 19.5 0 0 0-7.195 7.432.72.72 0 0 0-.095.332.73.73 0 0 0 .071.338.72.72 0 0 0 .54.397 15.07 15.07 0 0 1 3.045.75.7.7 0 0 0 .865-.3c1.286-2.247 3.142-4.114 5.38-5.411s4.78-1.977 7.366-1.973c8.852 0 16.073 4.883 16.073 20.849 0 13.483-7.221 20.849-16.073 20.849-5.192 0-9.817-1.667-12.762-6.233-.087-.147-.224-.258-.386-.313s-.338-.05-.496.013a14.82 14.82 0 0 1-3.328.783c-.118.016-.23.061-.326.131a.72.72 0 0 0-.225.271.71.71 0 0 0-.068.345.71.71 0 0 0 .103.336c3.195 5.683 8.32 8.183 14.41 8.75a.7.7 0 0 1 .615.5c1.897 5.783 7.654 10.95 11.198 13.433.141.098.313.14.483.117l2.046-.2a.73.73 0 0 0 .392-.166.74.74 0 0 0 .234-.356c.041-.139.039-.287-.004-.426a.73.73 0 0 0-.239-.352c-3.328-2.533-7.72-6.666-9.451-11.666-.033-.102-.042-.211-.028-.317s.053-.208.112-.298a.71.71 0 0 1 .23-.22.72.72 0 0 1 .302-.099c10.183-1.267 18.086-10.183 18.086-24.732zm597.696-12.563c0-5.966 5.873-8.333 12.396-8.333 2.569-.011 5.135.196 7.67.617a.76.76 0 0 1 .616.633l.582 4.566c.014.097.048.19.098.274a.74.74 0 0 0 .197.214.73.73 0 0 0 .554.129l2.063-.333c.179-.033.34-.131.451-.276a.73.73 0 0 0 .148-.508l-.665-7.666a.75.75 0 0 0-.181-.415.74.74 0 0 0-.385-.235A49.48 49.48 0 0 0 811.274.535c-3.81.1-11.214 1.083-14.525 6.45-1.177 1.949-1.783 4.189-1.748 6.466 0 10.283 10.999 11.1 19.085 13.916.118.039.245.044.365.014s.231-.092.318-.181c.82-.754 1.718-1.419 2.678-1.983.126-.065.229-.165.297-.287a.71.71 0 0 0 .089-.404c-.01-.14-.062-.275-.148-.386a.72.72 0 0 0-.337-.239c-7.904-2.817-17.521-3.183-17.521-10.666zm13.818 33.095c-.076-.108-.179-.193-.299-.246a.71.71 0 0 0-.384-.054 24.73 24.73 0 0 1-3.46.267c-3.79-.022-7.534-.828-10.999-2.367a.72.72 0 0 1-.416-.65l-.116-4.15a.71.71 0 0 0-.067-.29c-.042-.091-.102-.172-.177-.238a.72.72 0 0 0-.259-.145c-.095-.03-.197-.039-.296-.027l-2.047.2c-.176.02-.339.104-.459.236a.73.73 0 0 0-.189.481v6.466a.75.75 0 0 0 .349.633c4.74 2.79 10.16 4.209 15.657 4.1 1.702.003 3.4-.147 5.075-.45a.72.72 0 0 0 .572-.514.73.73 0 0 0-.004-.401.72.72 0 0 0-.218-.336 14.4 14.4 0 0 1-2.263-2.517z" fill="#e5e5e5"/><path d="M825.509 46.898a8.84 8.84 0 0 1-4.922-1.486c-1.458-.972-2.595-2.356-3.268-3.976a8.88 8.88 0 0 1-.51-5.124c.339-1.721 1.181-3.302 2.418-4.544a8.85 8.85 0 0 1 4.533-2.431 8.84 8.84 0 0 1 5.116.502c1.619.671 3.002 1.807 3.976 3.265a8.88 8.88 0 0 1 1.493 4.928c0 2.349-.931 4.601-2.587 6.264s-3.904 2.598-6.249 2.603zm0-13.049c-.83-.003-1.643.241-2.336.701s-1.232 1.116-1.551 1.884a4.21 4.21 0 0 0-.243 2.43c.162.816.561 1.566 1.149 2.154a4.19 4.19 0 0 0 2.151 1.15c.815.162 1.659.077 2.426-.243s1.421-.861 1.881-1.554a4.21 4.21 0 0 0 .7-2.34c-.005-1.108-.446-2.169-1.228-2.953a4.19 4.19 0 0 0-2.949-1.23z" fill="url(#B)"/><defs><radialGradient id="A" cx="0" cy="0" r="1" gradientUnits="userSpaceOnUse" gradientTransform="translate(176.618 31.4204) rotate(-155.442) scale(19.2846 13.8134)"><stop stop-color="#c6b38a"/><stop offset=".464" stop-color="#f3c691"/><stop offset="1" stop-color="#b4703e"/></radialGradient><radialGradient id="B" cx="0" cy="0" r="1" gradientUnits="userSpaceOnUse" gradientTransform="translate(839.563 43.8047) rotate(-155.442) scale(19.2846 13.8134)"><stop stop-color="#c6b38a"/><stop offset=".464" stop-color="#f3c691"/><stop offset="1" stop-color="#b4703e"/></radialGradient></defs></svg>