<svg xmlns="http://www.w3.org/2000/svg" width="60" height="60" fill="none" xmlns:v="https://vecta.io/nano"><path opacity=".5" d="M0 30C0 15.858 0 8.787 4.393 4.393S15.858 0 30 0s21.213 0 25.607 4.393S60 15.858 60 30s0 21.213-4.393 25.607S44.142 60 30 60 8.787 60 4.393 55.607 0 44.142 0 30z" fill="url(#A)"/><path d="M60 9a9 9 0 1 1-18 0 9 9 0 1 1 18 0z" fill="url(#B)"/><path d="M37.5 26.25a2.25 2.25 0 1 1 0-4.5H45A2.25 2.25 0 0 1 47.25 24v7.5a2.25 2.25 0 1 1-4.5 0v-2.068l-6.038 6.038a5.25 5.25 0 0 1-7.425 0l-4.757-4.757a.75.75 0 0 0-1.061 0l-6.879 6.879a2.25 2.25 0 1 1-3.182-3.182l6.879-6.879a5.25 5.25 0 0 1 7.425 0l4.757 4.757a.75.75 0 0 0 1.061 0l6.038-6.038H37.5z" fill="url(#C)"/><defs><radialGradient id="A" cx="0" cy="0" r="1" gradientUnits="userSpaceOnUse" gradientTransform="translate(77.6864 49.5331) rotate(-155.477) scale(65.3389 46.7521)"><stop stop-color="#c6b38a"/><stop offset=".464" stop-color="#f3c691"/><stop offset="1" stop-color="#b4703e"/></radialGradient><radialGradient id="B" cx="0" cy="0" r="1" gradientUnits="userSpaceOnUse" gradientTransform="translate(65.3059 14.8599) rotate(-155.477) scale(19.6017 14.0256)"><stop stop-color="#c6b38a"/><stop offset=".464" stop-color="#f3c691"/><stop offset="1" stop-color="#b4703e"/></radialGradient><radialGradient id="C" cx="0" cy="0" r="1" gradientUnits="userSpaceOnUse" gradientTransform="translate(57.4197 35.3716) rotate(-167.692) scale(34.985 13.8068)"><stop stop-color="#c6b38a"/><stop offset=".464" stop-color="#f3c691"/><stop offset="1" stop-color="#b4703e"/></radialGradient></defs></svg>