<svg width="62" height="312" viewBox="0 0 62 312" fill="none" xmlns="http://www.w3.org/2000/svg">
<path d="M2.51613 0L2.51629 11.2381C2.51621 36.854 -0.720741 55.0499 9.01651 80.3496C16.1895 98.9868 36.5165 97.846 36.5165 123.462V187.139C36.5165 213.035 15.7891 212.074 9.01651 231.189C2.43627 249.761 2.51651 255.327 2.51645 281.223V312" stroke="url(#paint0_linear_1167_29816)" stroke-width="2.8"/>
<g filter="url(#filter0_dddd_1167_29816)">
<path d="M36.5166 149C40.1065 149 43.0166 151.91 43.0166 155.5C43.0166 159.09 40.1065 162 36.5166 162C32.9268 162 30.0166 159.09 30.0166 155.5C30.0166 151.91 32.9268 149 36.5166 149Z" fill="white"/>
<path d="M36.5166 152C38.4496 152 40.0166 153.567 40.0166 155.5C40.0166 157.433 38.4496 159 36.5166 159C34.5836 159 33.0166 157.433 33.0166 155.5C33.0166 153.567 34.5836 152 36.5166 152Z" stroke="url(#paint1_radial_1167_29816)" stroke-width="2"/>
</g>
<defs>
<filter id="filter0_dddd_1167_29816" x="11.396" y="130.379" width="50.2412" height="50.2412" filterUnits="userSpaceOnUse" color-interpolation-filters="sRGB">
<feFlood flood-opacity="0" result="BackgroundImageFix"/>
<feColorMatrix in="SourceAlpha" type="matrix" values="0 0 0 0 0 0 0 0 0 0 0 0 0 0 0 0 0 0 127 0" result="hardAlpha"/>
<feOffset/>
<feGaussianBlur stdDeviation="6.98273"/>
<feComposite in2="hardAlpha" operator="out"/>
<feColorMatrix type="matrix" values="0 0 0 0 0.952941 0 0 0 0 0.776471 0 0 0 0 0.568627 0 0 0 1 0"/>
<feBlend mode="normal" in2="BackgroundImageFix" result="effect1_dropShadow_1167_29816"/>
<feColorMatrix in="SourceAlpha" type="matrix" values="0 0 0 0 0 0 0 0 0 0 0 0 0 0 0 0 0 0 127 0" result="hardAlpha"/>
<feOffset/>
<feGaussianBlur stdDeviation="9.31031"/>
<feComposite in2="hardAlpha" operator="out"/>
<feColorMatrix type="matrix" values="0 0 0 0 1 0 0 0 0 0.843137 0 0 0 0 0 0 0 0 1 0"/>
<feBlend mode="normal" in2="effect1_dropShadow_1167_29816" result="effect2_dropShadow_1167_29816"/>
<feColorMatrix in="SourceAlpha" type="matrix" values="0 0 0 0 0 0 0 0 0 0 0 0 0 0 0 0 0 0 127 0" result="hardAlpha"/>
<feOffset/>
<feGaussianBlur stdDeviation="2.32758"/>
<feComposite in2="hardAlpha" operator="out"/>
<feColorMatrix type="matrix" values="0 0 0 0 0.803922 0 0 0 0 0.427451 0 0 0 0 0.145098 0 0 0 1 0"/>
<feBlend mode="normal" in2="effect2_dropShadow_1167_29816" result="effect3_dropShadow_1167_29816"/>
<feColorMatrix in="SourceAlpha" type="matrix" values="0 0 0 0 0 0 0 0 0 0 0 0 0 0 0 0 0 0 127 0" result="hardAlpha"/>
<feOffset/>
<feGaussianBlur stdDeviation="6.98273"/>
<feComposite in2="hardAlpha" operator="out"/>
<feColorMatrix type="matrix" values="0 0 0 0 0.803922 0 0 0 0 0.427451 0 0 0 0 0.145098 0 0 0 1 0"/>
<feBlend mode="normal" in2="effect3_dropShadow_1167_29816" result="effect4_dropShadow_1167_29816"/>
<feBlend mode="normal" in="SourceGraphic" in2="effect4_dropShadow_1167_29816" result="shape"/>
</filter>
<linearGradient id="paint0_linear_1167_29816" x1="46" y1="312" x2="46" y2="0" gradientUnits="userSpaceOnUse">
<stop stop-color="#B3703E" stop-opacity="0"/>
<stop offset="0.249987" stop-color="#B3703E"/>
<stop offset="0.500123" stop-color="#F3C691"/>
<stop offset="0.750025" stop-color="#B3703E"/>
<stop offset="1" stop-color="#B3703E" stop-opacity="0"/>
</linearGradient>
<radialGradient id="paint1_radial_1167_29816" cx="0" cy="0" r="1" gradientUnits="userSpaceOnUse" gradientTransform="translate(42.08 153.221) rotate(155.477) scale(7.62287 5.45441)">
<stop stop-color="#C6B38A"/>
<stop offset="0.463601" stop-color="#F3C691"/>
<stop offset="1" stop-color="#B4703E"/>
</radialGradient>
</defs>
</svg>
