<svg xmlns="http://www.w3.org/2000/svg" width="62" height="312" fill="none" xmlns:v="https://vecta.io/nano"><path d="M2.51613 0L2.51629 11.2381C2.51621 36.854 -0.720741 55.0499 9.01651 80.3496C16.1895 98.9868 36.5165 97.846 36.5165 123.462V187.139C36.5165 213.035 15.7891 212.074 9.01651 231.189C2.43627 249.761 2.51651 255.327 2.51645 281.223V312" stroke="url(#B)" stroke-width="2.8"/><g filter="url(#A)"><path d="M36.517 149a6.5 6.5 0 1 1 0 13 6.5 6.5 0 1 1 0-13z" fill="#fff"/><path d="M36.5166 152C38.4496 152 40.0166 153.567 40.0166 155.5C40.0166 157.433 38.4496 159 36.5166 159C34.5836 159 33.0166 157.433 33.0166 155.5C33.0166 153.567 34.5836 152 36.5166 152Z" stroke="url(#C)" stroke-width="2"/></g><defs><filter id="A" x="11.396" y="130.379" width="50.241" height="50.241" filterUnits="userSpaceOnUse" color-interpolation-filters="sRGB"><feFlood flood-opacity="0" result="A"/><feColorMatrix in="SourceAlpha" values="0 0 0 0 0 0 0 0 0 0 0 0 0 0 0 0 0 0 127 0" result="B"/><feOffset/><feGaussianBlur stdDeviation="6.983"/><feComposite in2="B" operator="out"/><feColorMatrix values="0 0 0 0 0.952941 0 0 0 0 0.776471 0 0 0 0 0.568627 0 0 0 1 0"/><feBlend in2="A" result="C"/><feColorMatrix in="SourceAlpha" values="0 0 0 0 0 0 0 0 0 0 0 0 0 0 0 0 0 0 127 0" result="B"/><feOffset/><feGaussianBlur stdDeviation="9.31"/><feComposite in2="B" operator="out"/><feColorMatrix values="0 0 0 0 1 0 0 0 0 0.843137 0 0 0 0 0 0 0 0 1 0"/><feBlend in2="C" result="D"/><feColorMatrix in="SourceAlpha" values="0 0 0 0 0 0 0 0 0 0 0 0 0 0 0 0 0 0 127 0" result="B"/><feOffset/><feGaussianBlur stdDeviation="2.328"/><feComposite in2="B" operator="out"/><feColorMatrix values="0 0 0 0 0.803922 0 0 0 0 0.427451 0 0 0 0 0.145098 0 0 0 1 0"/><feBlend in2="D" result="E"/><feColorMatrix in="SourceAlpha" values="0 0 0 0 0 0 0 0 0 0 0 0 0 0 0 0 0 0 127 0" result="B"/><feOffset/><feGaussianBlur stdDeviation="6.983"/><feComposite in2="B" operator="out"/><feColorMatrix values="0 0 0 0 0.803922 0 0 0 0 0.427451 0 0 0 0 0.145098 0 0 0 1 0"/><feBlend in2="E"/><feBlend in="SourceGraphic"/></filter><linearGradient id="B" x1="46" y1="312" x2="46" y2="0" gradientUnits="userSpaceOnUse"><stop stop-color="#b3703e" stop-opacity="0"/><stop offset=".25" stop-color="#b3703e"/><stop offset=".5" stop-color="#f3c691"/><stop offset=".75" stop-color="#b3703e"/><stop offset="1" stop-color="#b3703e" stop-opacity="0"/></linearGradient><radialGradient id="C" cx="0" cy="0" r="1" gradientUnits="userSpaceOnUse" gradientTransform="translate(42.08 153.221) rotate(155.477) scale(7.62287 5.45441)"><stop stop-color="#c6b38a"/><stop offset=".464" stop-color="#f3c691"/><stop offset="1" stop-color="#b4703e"/></radialGradient></defs></svg>