<svg xmlns="http://www.w3.org/2000/svg" width="459" height="396" fill="none" xmlns:v="https://vecta.io/nano"><g opacity=".15"><path d="M18.447 183.882l20.574 26.661 54.257-10.524 36.755-24.556 14.167-3.508 1.948-30.343 70.505-77.175 1.486-2.21c.081-.128.2-.222.339-.267a.59.59 0 0 1 .42.021l.397-.456 22.819-18.838.297-.947.165.21 17.436-29.958h.232l71.561-31.571v-.21h.859l.957-.421 30.811-32.624 52.837 18.627 56.47 84.401 1.651 2.491 73.048 76.368 80.18 13.716 50.79 22.206 76.614-6.104 31.207 60.336a.5.5 0 0 1 0 .211l20.97 81.033v.211l-10.172 32.343-22.455-37.359 8.916-21.048-16.181-73.176-32.132-24.555-27.707 12.523 23.777 51.742 5.416 73.211 44.119 37.921.165-.421v.666l.628.527 10.27 41.744-.396 20.486 38.108 39.605-1.42 24.556v.245l15.885 41.254-28.962-1.333-23.611 4.42-1.156-28.52 6.604-34.413-36.722-54.548v.21l-.561-1.122-49.304-37.079-5.415 22.977 18.691 51.952 10.963 16.032-8.949 34.658 13.969 22.486-18.328 6.279h-.793l-29.72-1.227 3.104-17.54 14.596-27.678-20.111-46.2-10.237-30.238-50.394-19.539-22.258-17.54h-.264-.198l-13.473-25.047-28.301 14.032-27.542-10.278-5.614 9.191h-39.925l-2.476.736-22.654 17.891-15.554-7.367-1.949-14.663h-.165v-.211l-5.845-2.981-.198.771-.33-.596-8.322 9.647 5.647 28.063 2.014 38.588 18.493 25.047-14.266 22.135 5.086 21.503-33.75 5.999h-.198-.165l-11.327-5.122 7.331-16.312-7.529-62.336-22.687-55.881-56.569-46.761-31.141-30.8-9.412.877v.211h-.429l-1.651 6.138h.462l-.495.492 9.213 25.572-11.591 24.837-43.161 8.875-14.267-14.383.595-7.858-36.326-52.619-.198-.28-28.697 2.736h-.297l-12.813-14.032-1.321-32.624-34.344-7.472-54.687 9.752-23.909-4.876-.958.176a.63.63 0 0 1-.449-.103.7.7 0 0 1-.277-.388h-.198l-10.898-39.36zm59.937 29.432l12.219-11.26-56.139 18.662 43.921-7.402zm107.921 54.408l-22.06-33.044-5.053 35.57 27.113-2.526zm258.44 202.549l-.529-2.175.529 2.175zm-1.718-1.052l-24.503 23.363 30.117-5.333-5.614-18.03zm.859-3.017l-4.128-45.954-21.333-34.168 25.065 80.227.396-.105zm-26.055-77.701l-3.864 81.84 28.202-3.894-24.338-77.946zm-.562-6.806l14.299-28.063-45.176 1.193 30.877 26.87zm14.464-29.431l-8.619-41.148-38.769 42.095.396.316 46.992-1.263zm29.986-91.838l-37.416 49.742v.281l17.337 30.204 20.079-80.227zm-10.535 99.52l34.113-9.752-35.401-3.508h-.429l1.717 13.26zm259.002 117.516l-16.314 41.394 30.91-24.906-14.596-16.488zm10.864 43.955l4.029-25.994-30.91 24.906 26.881 1.088zm2.18-77.175l-40.817-40.938 42.732 87.699-1.915-46.761zm105.443 37.009l-18.328 25.362 33.023 12.734-14.695-38.096zm-19.087 24.135l18.162-25.082-27.838-17.54 9.676 42.622zm17.634-27.012l-33.882-59.459 6.175 41.779 27.707 17.68zM707.676 188.127l26.418-11.857-52.837-9.541 26.419 21.398zm61.786 12.453l14.498 15.155-28.599-55.11-18.129 15.33 32.23 24.625zM629.51 144.453h-.198L520.104 178.2l156.431-13.26-47.025-20.487zM260.904 13.221L244.194 41.6l65.849-24.275-49.139-4.104zM145.125 224.013h63.338l-70.637-23.012 7.299 23.012zm317.419 33.536l-102.57 48.375 63.339 3.508 39.231-51.883zm232.385 102.783l19.814-28.66-102.603 29.712 82.789-1.052zm42.27-4.034l42.567-2.842-61.886-21.714 19.319 24.556zM472.253 51.843l-43.327 9.051 48.181 24.03-4.26-32.659-.594-.421zM339.268 3.925l-25.428 13.33 40.322 3.508-14.894-16.838zM260.012 63.56l50.064-44.796-66.311 24.556 16.247 20.241zM215.86 241.869l38.043-21.855-40.387 5.087 2.344 16.768zm-27.541-43.323l66.938 19.223-50.162-58.091-16.776 38.868zm15.554-39.219l-56.437 13.33 39.694 25.257 16.743-38.587zm-14.068 40.938l23.281 23.538h.331l40.519-5.087-64.131-18.451zm-2.543-.667l-46.397.912 69.613 22.486-23.216-23.398zm-2.047-1.368l-38.935-24.556-8.586 25.643 47.521-1.087zm19.318-40.447l9.247-30.624-64.858 43.639 55.611-13.015zm1.453-.35h.166l-.364.877 49.073 56.828-39.628-87.698-9.247 29.993zm50.724 58.723l3.302-69.002-43.557-20.241 40.255 89.243zm62.15-38.027l-55.545-29.326 27.871 29.432 27.674-.106zm145.897 76.684l2.08-1.017-.33.421 43.723-14.032-60.4-4.981-86.389 67.352 99.07-46.691v-.28l2.246-.772zm83.053 18.908l-59.012 25.503 38.703 20.521 20.309-46.024zm48.28-43.288l-.33-.316h.363l-12.185-26.66-32.66 66.335 44.812-39.359zm-46.232 42.341l-12.219 63.494 56.998-102.748-44.779 39.254zm165.875 55.916l-2.542-48.585-51.318 25.573 53.761 23.504.099-.492zm-55.214-23.819l50.756-25.292-70.603-5.507 19.847 30.799zm-20.739-33.606l15.422-23.433-18.229-25.362 2.807 48.795zm-4.194-50.093l-37.217 9.682 40.123 40.727-2.906-50.409zm.231-1.508l39.628-49.112-75.293 58.443 35.665-9.331zm-134.305-78.473h-.232l-62.281 20.697 73.84 16.943-11.327-37.64zm-51.22 92.645l61.721 5.121-74.302-73.912 12.581 68.791zm-14.365-72.685l7.563-43.674-76.746 33.22 69.183 10.454zm4.392-43.919l-79.751 6.103 4.227 26.555 75.524-32.658zM329.923 39.004l-1.354 27.187 26.187-42.727-24.833 15.54zm-1.288-.175l-13.408-17.224 12.087 43.007 1.321-25.783zm-.363 30.414l-22.225 56.127 78.959-64.476-56.14 7.998-.594.351zm35.268 81.349l-4.061-25.468-35.335 51.216 38.241-24.906h-.595l1.75-.842zm20.772-87.418l-77.274 63.143 52.507-4.701 24.767-58.442zm-25.89 61.073l.297-.736-4.92.386 1.783-.562-50.097 4.42 16.182 49.673 36.755-53.181zm29.06-63.704l-.99.807-24.9 58.793 63.9-58.933-38.01-.666zm37.35-.737l-30.415-19.75-6.208 19.329 36.623.421zM322.195 179.077l-5.581 38.587 45.11-64.195-39.529 25.608zm-17.865-50.655h-.265c-.139.048-.289.048-.429 0l-41.048 18.171 57.626 30.659-15.884-48.83zm-.199-1.789l21.598-54.549-62.579 72.79 40.981-18.241zm8.983-107.624l-42.501 105.94 56.437-56.443-13.936-49.497zm16.247 18.697l24.537-15.189-39.166-3.508 14.629 18.697zm27.046-14.523l-27.046 44.025 62.943-28.344-35.599-15.715-.298.035zm-22.918 43.674l52.441-7.507h.859l6.208-19.294-59.508 26.801zm61.919-27.888l31.636 20.767-1.42-42.095-30.249 21.048h.297l-.264.281zm-33.023 82.297L476.117 85.66l-48.809-24.345-64.923 59.951zm3.302.386l78.331-5.964 31.108-28.064-109.439 34.028zm71.561 39.289l62.744-20.803-55.049-22.906-7.695 43.709zm0 1.894l75.921 75.35v-57.81l-75.921-17.54zm77.044 76.648l33.452 31.361-33.452-87.698v56.337zm34.806 31.291l34.014-68.65-68.193-21.364 34.179 90.014zm50.394-43.323l-.265.491 78.299-60.863-92.697 35.08 12.45 27.327 2.213-2.035zm-51.946 44.902l-33.023-31.045-.43-.456-25.394 56.898 58.847-25.397zm-98.508-38.167l-12.879-70.159-75.657 139.126 88.536-68.967zm-83.846-82.331l19.814 67.317 50.03-56.758-69.844-10.559zm-1.156.666l-46.794 66.651 66.575.667-19.781-67.318zm-48.941 66.651l5.713-39.394c-.141-.06-.265-.157-.363-.28H292.21l22.819 39.78.066-.106zm-53.398-70.369l13.011 80.683 15.587-50.55-28.598-30.133zm54.092-67.177l-46.398 46.34-.33.736-6.076 14.348 52.804-61.424zm-47.29 45.007L311.43 19.29l-50.79 45.323 7.859 62.021zm87.809-105.238l56.932-52.128-72.651 34.062 15.719 18.066zm1.552.421l67.665-5.893-8.982-47.708-58.683 53.601zm1.784 1.228l34.344 15.189 29.721-20.802-64.065 5.613zm67.367-5.157l1.42 41.534 42.369-8.84-43.789-32.694zm50.955 68.861l-32.099 29.115 99.07 12.734-66.971-41.85zm-28.631 30.941l52.573 21.784 42.105-9.612-94.678-12.172zm64.957 61.178l112.279-34.764-123.838-2.841 11.559 37.605zm69.778 22.1l90.417-34.202-157.058 13.33 66.641 20.872zm52.837 19.364l18.625 25.854 22.423-76.93-41.048 51.076zm3.302 52.374l70.076 5.437-53.993-29.432-16.083 23.995zm75.954 59.284l-4.524 34.623 23.842-10.067-19.318-24.556zm-2.147-1.789l-53.696-23.538-50.921 53.987 104.617-30.449zm-74.93-55.426l-44.449 59.951 64.561-29.151-20.112-30.8zm-41.873-43.182l-59.178 106.641 100.16-65.072-40.982-41.569zm-49.898 46.269l-18.856 42.832 7.43 17.54 11.426-60.372zm-21.663 42.587l-38.307-20.452-37.086 45.253 75.393-24.801zM453 345.704l34.444 3.508 36.325-26.59L453 345.704zm59.442-104.817l-47.421 15.259-.33.386v.561l22.522 40.587 25.229-56.793zm-79.52-74.123l-47.421 53.917v.421h-.363l-25.362 80.682 73.146-135.02zM315.425 220.47l-33.947 10.524 91.474-9.927-57.527-.597zm-1.882-.842l-22.324-39.253-15.719 50.9 38.043-11.647zm-52.639-66.651l-3.104 64.757.363-.245-.33 1.192 15.62 12.103-12.549-77.807zm-3.302 67.248v.351l-.297-.316-14.465 49.111 30.382-36.588c-.033-.077-.05-.161-.05-.245s.017-.169.05-.246l-15.62-12.067zm-41.874 23.012l-2.774 32.448 28.334-5.647 14.63-49.708-40.19 22.907zm-1.717 33.641l39.397 33.501-11.822-38.798-27.575 5.297zm-2.378-1.263l2.675-31.185-25.494 23.643 22.819 7.542zm2.774-33.08l-2.245-16.066-22.159 38.587 24.404-22.521zm-3.302-17.118l-46.497 7.963 22.753 33.676 23.744-41.639zm-66.806-51.532l-60.895 38.412 52.837-13.015 8.058-25.397zm70.207-48.726l3.105-59.95-69.085 104.326 65.98-44.376zm45.87 20.662l7.1-16.733-48.809-2.666 41.709 19.399zm6.935-18.066l-7.794-61.564-43.095 58.723 50.889 2.841zm-8.19-63.143l-16.215-20.136-25.824 77.28 42.039-57.145zm79.256-61.529h.297l-5.878-19.224-17.998 31.747 23.579-12.523zm-4.69-21.048l6.176 20.241 74.434-35.009-80.015 13.786-.595.982zm93.093 34.097l45.473 34.027-54.257-81.314 8.784 47.287zm47.884 37.36l-.397-.316 4.227 32.273 1.222.596h-.198l64.495 40.236-69.349-72.79zm31.372 86.471l113.071 2.561-71-12.138-42.071 9.577zm247.674 20.486l-68.985 5.473 51.45 9.331 17.535-14.804zm-73.675 7.016l-22.72 77.982 49.535-56.408-26.815-21.574zm33.354 110.676l17.469-35.956-72.651 6.103 55.182 29.853zm17.799-33.571l-16.511 34.202.594.351-.495.246 21.531 32.974-5.119-67.773zm5.218 70.615l-21.927-33.606 2.542 48.339 62.183 21.785-42.798-36.518zm1.552 42.095l23.348 46.41 19.615-49.286-42.963 2.876zm24.305 47.603l29.094 9.647-9.907-58.127-19.187 48.48zm29.424 11.331l-28.664-9.507 34.872 51.777-6.208-42.27zm-55.017-58.513l-24.074 10.173 46.959 35.325-22.885-45.498zm-21.597-24.24l-18.724 27.082 14.365 6.174 4.359-33.256zm-35.665 64.792l14.794-36.658-85.497 1.087 70.34 35.816s.165-.21.363-.245zm1.453.21l23.876-7.015-9.445-28.66-14.431 35.675zm-74.104-37.114l50.492-53.531-63.702 28.835 13.21 24.696zm30.612-86.014l-98.574 63.984 53.498-3.507 45.076-60.477zm-109.868 46.234l-36.722 26.976 44.449-8.875-7.727-18.101zm-40.916-22.521l-22.159-39.885-14.53 84.471 36.689-44.586zm-104.519 52.865c.12-.109.272-.168.43-.168s.309.059.429.168l.561.526 38.704-42.095-63.405-3.333 23.281 44.902zm-24.668-46.656l26.188-83.243-87.578 54.373 61.39 28.87zm24.437-83.734L275.5 232.994l19.319 42.586 87.016-54.057zm-108.151 12.909l-29.192 35.36 38.637 6.805-9.445-42.165zm-18.691 76.684l25.923-26.029-37.878-13.506 11.955 39.535zm35.335 0l-33.915 1.683 23.413 20.803 10.502-22.486zm-35.599 1.999l-.331.351v-.421l-25.824 8.068 49.337 12.243-23.182-20.241zm-1.42-1.193l-39.628-34.097 11.096 42.341 1.254.316 27.278-8.56zm-41.345-35.079l-22.753-7.472 33.551 48.796-10.798-41.324zm-48.809-43.744l-17.436-7.121 12.582 41.394 4.854-34.273zm.793-1.158l40.585-7.016h-56.469l15.884 7.016zm-27.41-31.361l-25.13 16.207 32.231 7.016-7.101-23.223zm-3.698.737l-48.776 12.032 25.528 2.842 23.248-14.874zm-93.753 10.629l-7.265 8.454 51.549-17.154-44.284 8.7zm-9.18 8.594l7.991-9.225-16.511-21.259 8.52 30.484zm63.999-19.574l-10.799 9.928 59.442-37.22-11.856 2.912-36.788 24.38zm53.497-58.898l-1.882 29.502 66.377-100.187-64.495 70.685zm72.651-79.701l-1.189 1.263-2.972 57.145 25.296-75.947-21.135 17.54zm43.261-50.374l49.535 4.104 19.516-34.448-69.051 30.344zm72.288-32.624l78.661-13.506-49.535-17.54-29.126 31.045zm452.418 248.503l9.907 100.257 8.686-27.607-18.593-72.65zm-11.029 67.598l19.814 33.045-9.907-98.714-1.156 44.586-8.751 21.083zm7.628-26.344l1.255-49.357-15.983-16.698 14.728 66.055zm-77.34-79.07l-49.667 56.969 72.981-6.173-23.314-50.796zM783.596 361.7l8.091 46.972.231-13.611-8.322-33.361zm45.903 93.767l-34.212-35.535 33.023 57.636 1.189-22.101zm-13.21 63.143l23.876 1.088-30.778-11.857-.561.737v-.211l-13.473 14.032 20.903-3.894.033.105zm-23.38-22.696l1.09 26.064 14.563-15.365-9.61-42.095-6.043 31.396zM710.351 368.19l-14.068-6.069 9.015 27.432 5.053-21.363zm-5.35 24.555l-24.14 7.016 41.477 41.71-17.337-48.726zm29.226 67.072l-9.544-13.575 1.783 43.638 7.761-30.063zm-7.497 36.974v.632l-.462-.948-3.864 25.012 16.446-5.578-12.12-19.118zm-32.561 18.031l10.898-27.643-9.081 17.189-1.817 10.454zm-3.632-85.033l20.078 46.13 12.648 14.312-40.388-82.998 7.662 22.556zm-61.324-50.514l38.042 14.768-55.016-28.063 16.974 13.295zm-40.124-42.095l-49.799 3.508 24.536 9.12 25.263-12.628zm-54.389 3.929l-38.01 7.647h33.387l4.623-7.647zm-49.766 10.523l-32.297 9.261 12.879 6.104 19.418-15.365zm-36.689-7.016l13.87-79.805-19.517 77.175 5.647 2.63zm-23.116-30.448l7.76 37.043 7.992-9.225-15.752-27.818zm7.133 40.446l-14.299 28.064 21.531 34.518-1.882-36.027-5.35-26.555zm25.56 89.909l-16.71-22.591 3.831 42.902 12.879-20.311zm-51.285 43.709l9.675 4.385 26.419-25.187-29.159 4.034v1.192.211l-6.935 15.365zm-.727-78.403l6.902 56.864 3.864-82.156-.297-.912a.74.74 0 0 1 .032-.494c.067-.155.184-.279.331-.348l-32.363-28.064h-.892l22.423 55.11zM326.191 306.59l54.125 44.762-23.116-44.481c-.099.007-.198-.015-.286-.065s-.16-.124-.209-.216c-.038-.075-.058-.16-.058-.245a.55.55 0 0 1 .058-.246l-58.881-27.677 28.367 28.168zm-32.759-31.08l-18.328-40.376 9.379 41.218 8.949-.842zm-10.303 2.14l-36.326-6.069 34.939 12.348 1.387-6.279zm-26.881 33.606l34.08-1.719-8.586-23.889-25.494 25.608zm-18.658 31.186l39.33-7.718-51.021-12.664-.957.316-.529 7.016 13.177 13.05zm-80.247-73.667l-11.954-39.289 1.123 27.537 10.831 11.752zm-102.57-42.867l50.03-8.63-25.098-2.771h-.693c-.111.083-.244.127-.38.127s-.269-.044-.38-.127l-43.426 7.331 19.946 4.07z" fill="url(#A)"/></g><path d="M6.252 158.479l31.999 48.164 36.821-4.315 25.692-9.085 41.246-24.31 3.798-27.713 39.925-83.629.198-.421 11.426 1.579 1.981-9.121 19.385 10.945 20.904-30.168-.529-.351.925-.21 2.51-2.982 73.608-42.657 47.488-36.904.594-.456a.69.69 0 0 1 .529 0l54.884-12.032 52.276 110.044 76.35 28.064 1.717.281-56.437 37.816 7.761 22.661v.175l5.184 61.424 25.825 17.26 88.139-12.91-.562-.386h.76l-33.023-37.219c-.017-.081-.017-.165 0-.245a.55.55 0 0 1 .396 0l16.512-.281-21.565-50.023-61.687 14.768-7.001-13.751c-.077-.161-.096-.346-.054-.52s.144-.327.285-.427c.151-.082.326-.103.49-.057a.7.7 0 0 1 .402.302l6.604 11.857 61.292-14.663h.33l22.026 51.111 14.431-.246 45.11-.526-68.787-43.253 7.859-15.786a.71.71 0 0 1 .388-.342c.165-.058.345-.049.504.027.153.089.266.238.316.416a.74.74 0 0 1-.052.531l-7.298 14.628 69.415 43.779h.297c.081-.128.2-.222.339-.267s.287-.037.421.022l1.056.421 22.291 2.35h.297 2.873l50.856-17.75.462-.246 32.495 45.989 27.542-7.366a.62.62 0 0 1 .489.075c.148.092.257.241.303.416.02.089.023.183.008.273a.73.73 0 0 1-.091.257c-.046.078-.106.146-.177.199a.64.64 0 0 1-.235.113l-27.442 7.331 5.349 86.997a.54.54 0 0 1 0 .246l33.42 14.242a.68.68 0 0 1 .359.376.74.74 0 0 1 .004.536.66.66 0 0 1-.221.299c-.1.075-.218.117-.34.122h-.264l-33.816-14.032h-.198-.298l-1.453-.807h-.33l-3.5-24.064-10.568-45.814-28.301-28.8-28.4 7.647.562.632a.77.77 0 0 1 .136.438c0 .158-.048.312-.136.439l10.237 20.697c.156.076.277.214.339.384a.74.74 0 0 1-.009.528.63.63 0 0 1-.217.305c-.101.075-.221.116-.344.116h-.363l-9.907 20.451v.491l9.51 2.455 4.227 15.12c.03.091.03.19 0 .28l14.035 53.286 69.844 52.619 17.47-2.28c.086-.01.174-.001.258.026s.161.07.229.129a.69.69 0 0 1 .164.213c.041.081.067.171.075.263a.77.77 0 0 1-.143.499.69.69 0 0 1-.418.273l-17.073 2.175-13.474 51.391 39.628 51.357-5.449 14.347 19.088-.386-14.365 13.015 14.662 35.5-40.784 5.964-8.949-3.508-12.912-.912 16.71-13.822 7.166-34.833 1.354-11.015-8.884-29.888-12.185-21.048-24.9-20.065 5.152-23.959-15.356-22.592a.62.62 0 0 1-.058-.263c0-.091.02-.181.058-.263l-51.979-6.419-26.055 30.799 38.604 37.36.33.316-14.133 43.989 35.599 4.526-17.767-23.048c-.059-.062-.106-.135-.137-.217a.7.7 0 0 1-.049-.256c0-.088.017-.175.049-.257s.078-.155.137-.217c.124-.128.29-.2.462-.2s.339.072.463.2l19.087 24.766-8.586 15.26-.528 16.838.198.281 11.36 30.413-44.582 6.139-10.996-7.998 17.568-36.868-3.302-27.187v-.351l-.231-.736-.496-1.579-24.866-47.603-34.807-9.506a.67.67 0 0 1-.407-.324c-.089-.162-.115-.354-.072-.536s.154-.336.306-.432a.63.63 0 0 1 .504-.076l34.245 9.401v-31.15a.47.47 0 0 1 0-.211l-29.886 2.912a.55.55 0 0 1-.182.198c-.075.049-.16.077-.248.082h-.264a.56.56 0 0 1-.231 0 .66.66 0 0 1-.37-.246c-.093-.124-.144-.279-.144-.438a.73.73 0 0 1 .144-.437.66.66 0 0 1 .37-.247l-39.628-48.234-.859-1.228-24.602-14.733 14.398 31.186v.631l.397.877 5.283 21.433 15.851-5.016 18.097 12.944c.142.101.241.255.278.432a.74.74 0 0 1-.08.516c-.055.095-.133.174-.226.23a.6.6 0 0 1-.302.085.83.83 0 0 1-.396 0l-17.602-12.593-16.511 5.227-5.68-22.977-35.368 10.804-19.583-8.279c-.059.099-.138.183-.231.246l-47.124 26.695-3.303 10.524a.66.66 0 0 1-.228.33.6.6 0 0 1-.366.126h-.231a.61.61 0 0 1-.233-.124c-.068-.058-.125-.131-.165-.213s-.064-.174-.07-.266.008-.187.038-.274l3.303-10.524v-.28h.231l45.506-26.275-66.047-4.841h-.231l-20.705-1.824-3.468 9.577-9.907 25.187.496.912h-.463l9.247 45.042 15.785 26.169.264.421a.82.82 0 0 1 0 .491l1.222 7.998-13.573 14.804 3.468 24.275-42.27 2.806h-.363l-5.746-8.349.165-.386 6.604-16.978v-18.382l-11.392-53.11-26.881-49.111a.79.79 0 0 1-.27-.3c-.063-.123-.096-.261-.094-.402l-.528-.947-80.478-69.177-.264.457v-.351l-3.599 3.823.396 10.208.693 2.772 4.128 12.979-1.849 17.785-17.139 14.208h-.165l-41.775 4.63-.231-.351-9.511-17.013-.429-10.524-37.745-44.34-30.052-1.263-.198-.211c-3.836-4.593-6.667-10.032-8.289-15.926-1.386-7.016-3.302-27.537-3.731-31.186l-5.812-.666h-.231-.199l-18.129-2.035-69.679 7.016-16.908-6.033-28.565-70.896 5.251 6.665zm31.372 49.638l-21.465-32.309 25.89 41.605 28.994-13.225-33.419 3.929zm63.867-13.716l-25.857 9.155-31.405 14.313L59.75 220.5l17.701-7.507L120.843 183l-19.352 11.401zm-21.597 18.557l29.259.456 6.803-2.631 16.049-33.922-52.111 36.097zm38.109-3.228l19.814-11.962 14.827-7.016-18.328-15.084-16.313 34.062zm35.995-19.399l7.926.491-13.672-15.961-12.648.351 18.394 15.119zm-10.732-20.486l-6.605 3.999 11.063-.491-1.783-8.91-2.51 5.051-.165.351zm53.993-9.401l-6.605-5.718-17.832 19.293 24.437-13.575zm-18.724 12.067l14.134-5.893 24.932-3.508-10.765-2.947-8.223 1.017-20.078 11.331zm233.078 295.895l11.624-22.276h-.231l.561-.736-14.332-31.221 2.444 37.5-.066 16.733zm12.582-24.906l9.345-68.686-24.437 35.886 15.092 32.8zm.858 3.227l1.75 22.24 30.91-22.521-32.594-.316-.066.597zM395.332-29.336h-.33L367.923-3.062h22.092l5.317-26.275zM391.667-4.78l15.554-17.996-10.535-6.805-5.019 24.801zM277.01 96.95l2.279 25.713 30.777-13.12L277.01 96.95zm31.504 10.524l-12.912-11.05h-16.313l29.225 11.05zm-12.45-12.454l15.951 13.716 8.52-3.929-4.029-17.014-.165-.807v-.351-.456l2.972-38.587-55.05-.526-4.26 36.869 16.512 10.98 19.549.105zm117.167 75.982l6.34 1.192 1.486-28.975-1.783-30.414-11.063 41.078 4.194 16.768 1.354-.281-.528.632zm22.225 120.112l21.729-2.14-44.945-23.012-7.793 10.278 31.009 14.874zm-28.83-12.313l11.889 12.137c.102.003.202.029.293.078s.172.118.235.203l.495.736.165.211 12.879-.877-25.956-12.488zm4.458-13.506l-33.749 2.631 25.824 7.753 7.925-10.384zm2.378-1.579l83.153-38.587-39.959-25.432-12.449 1.543-42.204 43.042h-.165l-33.288 2.421 6.341 19.679-.595.246 39.166-2.912zM327.106 82.953l-8.619 3.508 20.111 11.331 24.206 1.614-33.882-16.628-2.08.386.264-.211zm.727-1.789l-7.43-31.782-2.742 36.062 10.172-4.28zm-9.907 6.665l3.93 16.628 45.109-1.824-1.09-1.509-27.508-1.859-20.441-11.436zm48.478 11.857l2.972 3.227v.842l-6.109 49.848 26.848-39.885 15.553-16.979 4.029-30.028-78.694 15.365 35.401 17.61zm31.9 45.603v.316l8.817 7.016 11.757-43.674-12.417-10.524L391.7 114.56l6.208 29.186a.67.67 0 0 1 .304.283c.072.126.104.272.092.418v.842zm-7.595-29.291l-26.947 40.061h.33l31.306 10.032 1.618-20.802-6.307-29.291zm16.512-18.803l12.515 10.524 6.836-6.7-15.488-32.624-3.863 28.8zm37.514 102.678l11.36-1.368-3.302-29.432c-3.699 12.98-7.497 27.046-8.025 30.695l-.033.105zm8.223-35.08l24.437-39.078-49.7 13.295 25.263 25.783zm-12.054-10.523l1.024 7.016 1.354 12.488 8.916-8.068-11.294-11.436zm36.326-30.134l-23.447-20.486-25.923-1.614-.891 35.571 50.261-13.471zm-37.944 28.59l-13.011-13.295-3.699 3.754 17.734 16.732-1.024-7.015v-.176zm-13.539-14.453l.858-35.079-6.241 6.139 1.915 32.624 3.468-3.684zm1.981-37.535l24.371 1.509-39.628-33.431 15.257 31.922zm26.65 1.649l23.578 20.416-4.458-32.518-59.409-22.17 40.289 34.272zm24.965 21.855l7.464 9.19-11.129-35.816 3.665 26.626zm.694 2.946l8.025 33.887.297-22.346-.628-2.034-7.694-9.507zm-1.552-.842l-24.536 39.184a.83.83 0 0 1 0 .281l30.117 34.413 3.797-33.887-9.378-39.991zm5.581 75.772l-30.151-34.378 3.501 30.94 39.628 25.187-12.978-21.749zm-32.528-34.062l-8.454 7.647-7.463 8.63c1.221 1.929 5.944 9.226 8.024 13.33 1.519-6.49 5.911-22.1 7.893-29.607zm-9.577 7.016l-1.387-12.909-18.427-17.54-1.42 28.063 13.969 10.524 7.265-8.138zm-35.104-20.697l-8.817-7.191-1.552 19.399 14.365 3.999-3.996-16.207zm-11.756 13.26l-31.438-9.998h-.627l-40.025 30.765 85.861-16.979-13.771-3.788zm-27.079-62.196l-41.477 33.852 35.5 15.961 5.977-49.813zm-.528-1.333l-45.539 1.824 4.26 31.887 41.279-33.711zm-46.794 2.175l-7.1 3.262-.991.421 11.921 25.363-3.83-29.046zm-45.077-8.7l-36.326 26.31 38.572-.842-2.246-25.468zm-2.014 28.415l-64.792 20.346 20.045 7.366 44.747-27.712zm-43.327 28.414l17.535 8.419 28.169-36.798-45.704 28.379zm43.558-29.993l-36.326.807-29.985 10.524-21.795 13.716 20.936-3.859 67.17-21.188zm-91.111 25.222l24.04-15.119 25.428-8.945-51.846 3.508 2.378 20.556zm-3.633-19.925l-24.173 18.136 26.419 2.175-2.246-20.311zm-22.39 31.361l33.42-7.858-7.893-1.719-25.527 9.577zm78.199-37.079l-25.923-14.277h-.297l-26.419 17.82 52.639-3.543zm2.345-.281l37.349-27.081-63.537 12.664 26.188 14.417zm37.25-28.449l-15.19-10.208-46.002 22.381L274.5 95.266zm-11.69-47.813L221.3 62.011l37.547 21.048 3.963-35.606zm1.618-1.894l55.38.175c.088-.127.218-.215.363-.246.136-.031.278-.014.404.049a.65.65 0 0 1 .29.301l8.091 34.694 60.432-69.703-19.484-2.806c-.085.035-.179.035-.264 0a.93.93 0 0 1-.231-.281l17.733-8.314h-21.101l-59.805 16.066-.661.175c-.117.049-.247.049-.363 0L242.633 30.72l21.795 14.839zM389.916 9.497V-1.273l-17.634 8.244 17.634 2.526zm1.222-36.658l-78.991 39.71 53.894-15.365 25.097-24.345zm2.411-2.736l-42.633 1.017-42.336 41.709 84.969-42.727zm-3.203 41.885l-59.937 69.387 79.255-15.505-.924-2 .429.386-18.823-52.268zm19.814 50.935l.528-18.346-17.37-28.274 16.842 46.621zm1.585-19.364l31.438 13.435-49.865-43.393 18.427 29.958zm.198 1.579l-.595 20.171 33.189-6.244-32.594-13.927zm1.288 21.223l58.418 21.749-24.999-28.064-33.419 6.314zm60.267 21.819l1.817-14.593-25.693-12.243 23.876 26.836zm1.982-16.066l.66-8.384-25.065-3.192 24.405 11.576zm.891 3.718l-1.75 13.821 13.54 43.499-1.189-29.362-10.601-27.958zm12.912 90.505l-3.929 34.518 19.615-5.648-15.388-52.198-.298 23.328zm-3.665 35.886l12.483 21.048 6.604-26.45-19.087 5.402zm12.45 24.556h-.199c-.148-.064-.275-.174-.363-.316l-82.789 38.096 103.099 8.77-19.385-46.796a.63.63 0 0 1-.363.106v.14zm-82.559 39.464l44.053 22.521 57.791-14.032-101.844-8.489zm43.987 24.205l-14.134 9.682 35.897 14.488-21.763-24.17zm-2.476 0l-20.111 2 7.066 7.015 13.045-9.015zm-21.994 2.175l-14.464.982 17.502 26.906 5.02-20.03-8.058-7.858zm3.567 31.15l-.364-.561-9.312 9.331 17.7 3.508-8.024-12.137v-.141zm-1.123-1.718l-18.856-29.011-14.2-14.453 9.741 54.022 12.648-.315h.595l10.072-10.243zm-10.501 11.646l-12.615.281 18.625 34.553-6.01-34.834zm-13.441 1.508l-6.902 32.414 26.419 3.894-19.517-36.308zm-10.765-58.056l-27.872-8.384 37.514 61.915-9.642-53.531zm-29.325-8.209l-12.516 9.296 2.014 14.383 47.521 37.395-37.019-61.074zm0-2.561l-6.605-20.591 34.443-2.526 42.072-42.902v-.456c-2.707-5.211-5.683-10.258-8.916-15.119l-14.53-11.12-7.794-1.474-67.202 75.877 28.532 18.311zm36.623-93.872l-88.932 17.54 22.951 56.969 65.981-74.509zm-48.082-15.786l-35.203-15.996.363 2.736-1.189-2.526-4.986 47.323 41.015-31.537zm-37.085-18.066l-13.012-27.748-37.514 63.143 50.493-35.079.033-.316zm-14.564-27.748l-30.975 13.331-6.143 49.111 37.118-62.442zm-32.527 15.014l-28.764 37.606 22.654 11.646 6.11-49.252zm-28.698 39.184l15.059 49.462 7.331-37.956-22.39-11.506zm0 4.911l4.425 49.322 3.864 2.806-.693 6.28 3.302-2.246 3.533-8.945-14.431-47.217zm10.898 57.776l-3.104 1.965 7.166 29.642-4.062-31.607zm6.902 43.253l.891 22.205 9.049-3.508 6.307 3.859 1.618-10.839-23.116-52.62 5.251 40.903zm9.907 20.381l-10.138 3.894-.958-24.1-9.643-39.639-13.209 71.176 13.473 3.508 26.683 1.298v-12.453l-6.208-3.684zm-21.135 16.277l-12.516-3.508 8.982 26.029 6.605-3.052-3.071-19.469zm4.326 19.399l1.453.421 2.51-8.384-6.605-9.366 2.642 17.329zm-18.592-23.573l-12.615-24.556 7.331 44.2 14.398 7.016-9.114-26.66zm.297-2.316l12.12-65.212-5.614 13.575-5.152 2.561.627 4.069-3.5 5.368-5.02-4.876-8.156 2.56 1.189 15.365 13.506 26.59zm-6.307-46.094l4.458 4.385 2.444-3.508-.661-4.56 5.581-2.772 7.694-18.627 1.057-7.016-2.906-2.104-11.426 16.697-10.171.491v12.664l-12.78-.947 13.87 6.455 2.84-1.158zm-4.326-18.592l9.907-.456 10.93-15.961-34.476-11.682.793 14.699 12.846 13.4zm-13.705-29.677l34.806 11.892-4.821-53.742-31.141 22.17 1.057 19.61.099.07zm14.53-32.519l14.266-10.138-15.884-2.631 1.618 12.769zm11.591-11.997l-14.761-7.226-22.06-8.104-20.87 3.824 43.458 9.436c.07-.081.158-.144.256-.18a.59.59 0 0 1 .306-.03l13.671 2.28zm-54.719-7.367l-40.784 9.612 21.102 11.646 19.682-21.258zm-9.61-3.753l-25.626-2.07-7.199 14.383 32.825-12.313zm-31.967-9.682l-3.302 23.959 8.751-17.54 26.419-19.784v-.421l6.175-66.16-38.043 79.946zm33.288-14.418l26.683-17.996-18.163-12.067 4.524-21.048-6.902-15.645-6.142 66.756zm27.178-19.364l-13.209-29.677-3.963 18.347 17.172 11.33zm-20.243-49.111l6.604 15.119 2.973-13.786-9.577-1.333zm12.846-7.016l-1.585 7.226 18.988 2.596-17.403-9.822zm18.526 11.19v.175l-20.243-2.806-3.303 15.645 14.167 32.063 48.743-23.749-38.307-21.609-1.057.281zm1.321-1.894l42.633-14.944-21.994-14.874-20.639 29.818zm23.38-33.08l-1.255 1.473 62.745-15.084 10.237-28.064-71.727 41.674zm73.51-42.621l-9.907 27.116 42.93-42.446 12.351-19.82-45.374 35.15zm47.785-36.658l-13.011 21.048 42.534-1.052-29.457-20.276-.066.281zm1.519-.807l30.381 21.048c.095.081.164.191.198.316l10.931 7.016 10.7-39.675-52.21 11.296zm53.035-9.121l-10.303 38.272h.264L391.237-2.044V9.953l54.588 47.638L419.34-61.364zm51.516 107.027L421.322-58.873l26.22 117.621 28.499 3.508-5.185-16.593zm1.619.842l4.854 16.031 64.329 9.296-69.183-25.327zm73.773 27.397l-67.994-9.822 10.864 16.066 4.128 29.291 53.002-35.535zm-54.29 36.307l-4.095-29.537-10.534-15.575-.594 7.682v.316l11.492 30.308 6.604 15.155-2.873-8.349zm8.091 23.679l-11.69-26.871 1.288 31.255v.316l15.124 51.251-4.722-55.951zm6.373 62.757h-.264l-6.803 27.256 31.042-11.576-23.975-15.68zm-7.067 28.835l19.319 46.445 12.747-58.337-32.066 11.892zm33.882-11.892l17.866 31.887 68.193-44.41-86.059 12.523zm71.892-51.742l-15.455.245 30.282 34.273-14.827-34.518zm14.629-.211l-13.209.211 14.893 34.483-1.684-34.694zm62.943 61.354l-1.718 17.786 15.852 46.725-14.134-64.511zm17.766 75.035l9.412-65.949v-.351L683.196 218.5v.211l17.271 79.314zm-18.526-79.069l-.363-1.614-1.949-7.015 1.09 21.714 1.222-13.085zm.892-2.105l26.749 13.295-5.912-26.379-16.511-7.016-7.761 6.209v1.087l3.435 12.804zm2.906-20.767l-41.378-17.75 33.947 23.819 7.431-6.069zm-7.695 8.349v-.491l-53.299-3.052 54.818 38.588.199-.211-1.718-34.834zm-1.618-1.964l-37.679-26.415-15.257 23.398 52.936 3.017zm-38.736-27.222l-16.512-12.769 1.651 35.43 14.861-22.661zm29.457-14.453l-44.813.948 16.512 12.733 48.148 20.522c.125-.032.257-.026.379.018s.231.122.314.227l16.314 7.016a.62.62 0 0 1 .393.043c.124.056.229.151.3.273l12.912 5.543-50.459-47.323zm28.268 2.666h-.232-1.486l-19.582-2.069 21.795 9.155 41.774-22.029-42.269 14.943zm73.146 44.622l10.667 46.234 3.302 23.363.561.246-5.085-87.032-30.382-43.008 20.937 60.197zm-29.06-29.608l26.88 27.397-20.474-58.442-7.1 31.221.694-.176zm-2.114.562l7.463-32.764-47.553 25.081c.064.169.064.358 0 .527-.042.099-.106.186-.186.254s-.176.112-.276.131l12.78 14.243 27.772-7.472zm-28.037 9.12l-15.124-16.803-24.966-10.523 49.766 46.831-9.676-19.505zm10.502 22.486l-14.828-6.349 5.713 25.432 9.115-19.083zm0 25.082l-8.718-2.245-9.247 64.827 10.997-15.996 11.426-30.59-4.458-15.996zm-17.8 64.687l34.146 2.841-22.621-19.644-11.525 16.803zm22.885-46.375l-10.633 28.519 22.786 19.82-12.153-48.339zm92.102 246.924v.526l7.034-6.35-7.034 5.824zm7.992-8.384l-8.421-11.085.396 17.715 8.025-6.63zm-8.487-13.471l9.511 12.523 6.604-5.542-4.161-10.033-15.422.281 3.468 2.771zm28.697-3.262l-15.257.28 3.798 9.191 11.459-9.471zm-11.657 12.488l-6.01 5.437 18.195 24.03-12.185-29.467zm-7.001 6.314l-9.478 8.454v1.439l28.896 15.68-19.418-25.573zm19.517 27.292l-29.259-15.856-7.265 21.048 36.524-5.192zm-30.283-17.54l-4.128 3.754 4.128-3.508v-.246zm-25.659 18.768l9.115.631 2.774-6.735.396-1.929v-.246l.429-1.999-12.714 10.278zm10.403 1.017l7.628 3.052 6.935-20.135-11.36 9.225-3.203 7.858zm3.599-11.05l11.624-10.524v-.631l-11.195 9.296-.429 1.859zm.727-4.069l10.732-8.91-.462-20.451-3.633-2.842-6.637 32.203zm6.935-34.062l14.926-.316-13.771-9.05-1.155 9.366zm-8.091-41.499l.33.491 8.949 30.028 15.521 10.243 5.218-13.716-36.92-47.883 6.935 20.346a.85.85 0 0 1 .066.491h-.099zm-11.889-20.627l8.95 15.505-6.44-18.943-.165-.175 13.54-51.497-34.939 4.491 16.512 36.131c.048.136.048.286 0 .421l2.542 14.067zm-19.45-48.304v4.7l10.336 17.54-10.336-22.24zm-5.119 28.414l23.116 18.557-2.146-12.593-16.215-27.713-4.755 21.749zm3.765-25.608v-5.402l-12.384-13.225 12.384 18.627zm-13.936-21.889l14.926 15.47 34.609-4.455-66.839-50.304 17.304 39.289zm-1.618-.386l-17.536-39.815-33.023 33.15c-.032.153-.113.29-.231.386l50.79 6.279zM704.1 337.49l32.528-32.8-35.137-2.946 2.609 35.746zm-3.963-36.202a.77.77 0 0 1-.33-.457l-.364-1.789-15.355-45.287 18.427 78.613-2.378-31.08zm2.378 36.938l-22.423-96.153-43.327 73.667 65.75 22.486zm-24.306-95.591l-71.825 79.63 28.763-6.665a.85.85 0 0 1 .429-.421l42.633-72.544zm62.745 277.127l-10.535-28.063-30.315 33.816 40.85-5.753zm-52.078-1.192l8.916 6.489 6.143-38.587-15.059 32.098zm17.106-36.308l-6.605 42.096 30.514-34.062-27.079-33.782 3.17 25.748zm24.074 6.244l.495-15.715 7.992-14.032-35.995-4.595 27.508 34.342zm-28.565-37.114l13.473-42.446-36.953-35.64 23.48 78.086zm-24.966-47.743l21.763 41.64-21.565-71.983-.198 30.343zm-.363-33.536l25.197-29.782-54.026 32.589 28.829-2.807zm-30.447 2.21l55.016-33.22-64.263-21.924 9.247 55.144zm-1.553-1.298l-9.015-53.846-29.457 6.805 38.472 47.041zm34.378-130.67l-54.72-38.588.694 1.649-1.784-2.07-17.304 120.007 73.114-80.998zm-74.468 81.384l17.337-120.323-69.58 45.253 52.243 75.07zm-1.948-.456l-47.818-68.686 24.437 54.9h.331l23.05 13.786zm-44.416 30.238l30.381-9.296-47.52 2.035 17.139 7.261zm34.74-10.874l-14.266-30.94-38.67 33.185 52.936-2.245zm-55.116 2.28l40.156-34.483c-.048-.136-.048-.286 0-.421l-27.211-61.144-17.865-31.887-12.912 59.109.363.877h-.76l-.792 1.193-56.8 13.646.429.21h-.991l23.117 26.064 1.321 10.068 51.945 16.768zm-5.548-.351l-46.695-15.154-13.935 10.524 60.63 4.63zm-62.744-4.63l15.125-11.612-1.156-8.875-32.759 18.838 18.79 1.649zm12.945-21.469l-37.745-15.4-5.251 20.837 9.213 14.032 33.783-19.469zm-34.872 20.837l-16.512-3.157 13.936 10.734 2.576-7.577zm-3.303 8.91l-15.521-11.962 6.308 35.536 9.213-23.574zm-9.51 30.484l-8.983 65.915 17.767-23.714-8.784-42.201zm9.213 43.709l-18.13 24.345 33.024.316-14.894-24.661zm16.512 33.22l-.826-5.647-8.85 16.171 9.676-10.524zm-2.213-5.858l-29.721 21.574 18.526-1.368 11.195-20.206zm-11.195 21.609l-19.12 1.403 22.324 20.627-3.204-22.03zm-20.738 1.789l-10.997 11.471.693 4.56 32.198 4.14-21.894-20.171zm-16.512 23.293l34.113-2.28-28.499-3.508-9.907-.316 4.293 6.104zm1.321-22.205c-.035.074-.087.137-.15.186s-.136.081-.213.094l-5.614 14.278 9.544.315-.76-4.981 11.624-11.892.396-.281-1.717-22.1-13.11 24.381zm-2.213-63.599l24.405-35.852-26.584-3.893 2.179 39.745zm.925 34.237l-2.08-32.027-6.836-9.507 8.916 41.534zm-9.643-44.831l7.695 10.313-2.18-39.71h-.165v-.245l-30.976-17.54 25.626 47.182zm5.548-31.011l6.935-32.764-38.703 14.453 31.768 18.311zm-33.023-19.819l.33.561 39.628-14.874-48.808-38.412 8.85 52.725zm-81.039-71.983l.264 1.613v.772l79.091 67.949-8.85-52.619-2.246-15.786 13.209-9.928-28.928-18.416-.33.351-23.876-59.215h-.132c-.087-.004-.172-.027-.251-.066a.67.67 0 0 1-.207-.164c-.058-.068-.103-.148-.132-.235s-.042-.179-.038-.271c.001-.117.032-.231.091-.33a.6.6 0 0 1 .24-.231v-.316h.429l5.052-47.919-51.714 35.781 18.328 99.03zm-18.955-95.522l-7.233 37.465 24.669 57.074-17.436-94.539zm17.436 97.802l-25.395-58.583-2.972 7.507c.138.072.244.198.297.351l23.975 54.584 4.095-3.859zm.561 31.22l-4.062-12.733-.726-2.877-.165-3.964-.859 5.753v13.225l5.251 5.718.561-5.122zm-2.741 17.716l-14.53-2.175v14.347l14.53-12.172zm-14.959-3.508l15.983 2.42.991-9.577-6.077-6.524-25.758-1.263 7.596 10.524 7.265 4.42zm-1.024 16.627v-15.54l-6.439-3.894-2.51 8.279 5.35 11.541 3.599-.386zm-4.788.526l-5.152-11.05-1.948-.526-7.497 3.508-18.228 11.787 32.825-3.719zm-44.516-12.418l9.016 16.067 19.087-12.559-14.959-7.016-13.54-5.998.396 9.506zm-76.713-72.263c1.54 5.557 4.2 10.692 7.794 15.049l28.235 1.193-39.628-45.604c.594 5.788 2.477 22.977 3.599 29.362zm-3.83-32.168v.316l41.708 48.164v.21l37.977 44.621 12.251 5.402-59.276-89.592c-.059-.062-.106-.136-.138-.217s-.048-.169-.048-.257.016-.175.048-.257.079-.155.138-.217a.64.64 0 0 1 .462-.2.64.64 0 0 1 .462.2l59.178 89.242-7.496-45.603c-.018-.104-.018-.211 0-.315l-1.255-15.611v-.807l4.986-1.578-19.384-9.016 18.955 1.439v-11.577l-12.978-13.54-.33-.351-.826-15.61-43.194 4.209-.925-.421c-.016-.069-.016-.141 0-.21l26.187-26.45 18.229 1.228 14.53-10.524-1.717-13.576-37.646-8.174 7.1 6.385 8.322-1.017 17.535 4.77-31.405 4.35-23.81 9.893-21.762-11.997 1.585 7.963 14.233 16.662a.62.62 0 0 1 0 .807.44.44 0 0 1 .036.176.44.44 0 0 1-.036.175c0 .167-.063.328-.174.446s-.263.185-.42.185l-8.95-.526-15.025 7.016-3.303 23.854 6.176-.07zm33.221-12.664l41.081-3.964-1.024-19.293-40.057 23.257zm38.406-23.959l-14.86-.982-22.687 22.766 37.547-21.784zm-75.953 12.874l-20.475 12.453-5.647 2.175 22.753 8.314 3.369-22.942zm-90.583 28.064l69.349-7.016 12.35 1.403-19.384-7.016-31.24-.526-17.998 7.647-16.842-2.876 3.765 8.384zm-16.512-5.718l14.761 5.262-3.831-8.455-34.74-56.127 23.81 59.32z" fill="url(#B)" style="mix-blend-mode:overlay"/><path d="M6.25232 158.479L38.2518 206.643L75.0728 202.328L100.765 193.243L142.011 168.933L145.809 141.22L185.734 57.5907L185.932 57.1698L197.358 58.7484L199.339 49.6277L218.724 60.5725L239.628 30.4042L239.099 30.0534L240.024 29.8429L242.534 26.8612L316.142 -15.7954L363.63 -52.699L364.224 -53.155C364.394 -53.2255 364.583 -53.2255 364.753 -53.155L419.637 -65.1873L471.913 44.8569L548.263 72.9205L549.98 73.2011L493.543 111.017L501.304 133.678C501.304 133.678 501.304 133.678 501.304 133.853L506.488 195.277L532.313 212.537L620.452 199.627L619.89 199.241H620.65L587.627 162.022C587.61 161.941 587.61 161.857 587.627 161.777C587.755 161.728 587.895 161.728 588.023 161.777L604.535 161.496L582.97 111.473L521.283 126.241L514.282 112.49C514.205 112.329 514.186 112.144 514.228 111.97C514.271 111.795 514.372 111.643 514.513 111.543C514.664 111.461 514.839 111.44 515.003 111.486C515.167 111.531 515.31 111.639 515.405 111.788L522.009 123.645L583.301 108.982H583.631L605.657 160.093L620.088 159.847L665.198 159.321L596.411 116.068L604.27 100.282C604.355 100.12 604.493 99.9981 604.658 99.9396C604.823 99.8811 605.003 99.8908 605.162 99.9667C605.315 100.056 605.428 100.205 605.478 100.383C605.527 100.56 605.509 100.751 605.426 100.914L598.128 115.542L667.543 159.321H667.84C667.921 159.193 668.04 159.099 668.179 159.054C668.317 159.01 668.466 159.017 668.6 159.076L669.656 159.497L691.947 161.847H692.244H695.117L745.973 144.097L746.435 143.851L778.93 189.84L806.472 182.474C806.638 182.43 806.814 182.457 806.961 182.549C807.109 182.641 807.218 182.79 807.264 182.965C807.284 183.054 807.287 183.148 807.272 183.238C807.258 183.329 807.227 183.416 807.181 183.495C807.135 183.573 807.075 183.641 807.004 183.694C806.933 183.748 806.854 183.786 806.769 183.807L779.327 191.138L784.676 278.135C784.695 278.216 784.695 278.3 784.676 278.381L818.096 292.623C818.258 292.693 818.387 292.828 818.455 292.999C818.523 293.17 818.525 293.363 818.459 293.535C818.414 293.656 818.337 293.76 818.238 293.834C818.138 293.909 818.02 293.951 817.898 293.956H817.634L783.818 279.924H783.62H783.322L781.869 279.117H781.539L778.039 255.053L767.471 209.239L739.17 180.439L710.77 188.086L711.332 188.718C711.42 188.845 711.468 188.998 711.468 189.156C711.468 189.314 711.42 189.468 711.332 189.595L721.569 210.292C721.725 210.368 721.846 210.506 721.908 210.676C721.97 210.847 721.967 211.036 721.899 211.204C721.858 211.327 721.782 211.434 721.682 211.509C721.581 211.584 721.461 211.625 721.338 211.625H720.975L711.068 232.076V232.567L720.578 235.022L724.805 250.142C724.835 250.233 724.835 250.332 724.805 250.422L738.84 303.708L808.684 356.327L826.154 354.047C826.24 354.037 826.328 354.046 826.412 354.073C826.495 354.099 826.573 354.143 826.641 354.202C826.708 354.26 826.764 354.333 826.805 354.415C826.846 354.496 826.872 354.586 826.88 354.678C826.891 354.858 826.84 355.035 826.737 355.177C826.633 355.319 826.485 355.416 826.319 355.45L809.246 357.625L795.772 409.016L835.4 460.373L829.951 474.72L849.039 474.334L834.674 487.349L849.336 522.849L808.552 528.813L799.603 525.305L786.691 524.393L803.401 510.571L810.567 475.738L811.921 464.723L803.037 434.835L790.852 413.787L765.952 393.722L771.104 369.763L755.748 347.171C755.71 347.09 755.69 347 755.69 346.908C755.69 346.817 755.71 346.727 755.748 346.645L703.769 340.226L677.714 371.025L716.318 408.385L716.648 408.701L702.515 452.69L738.114 457.216L720.347 434.168C720.288 434.106 720.241 434.033 720.21 433.951C720.178 433.87 720.161 433.783 720.161 433.695C720.161 433.607 720.178 433.52 720.21 433.438C720.241 433.357 720.288 433.283 720.347 433.221C720.471 433.093 720.637 433.021 720.809 433.021C720.982 433.021 721.148 433.093 721.272 433.221L740.359 457.987L731.773 473.247L731.245 490.085L731.443 490.366L742.803 520.779L698.221 526.918L687.225 518.92L704.793 482.052L701.491 454.865V454.514L701.26 453.778L700.764 452.199L675.898 404.596L641.091 395.09C640.92 395.043 640.774 394.927 640.684 394.766C640.595 394.604 640.569 394.412 640.612 394.23C640.656 394.049 640.766 393.894 640.918 393.798C641.07 393.703 641.251 393.675 641.422 393.722L675.667 403.123V371.973C675.651 371.903 675.651 371.831 675.667 371.762L645.781 374.674C645.737 374.755 645.674 374.823 645.599 374.872C645.524 374.921 645.439 374.949 645.351 374.954H645.087C645.011 374.97 644.932 374.97 644.856 374.954C644.71 374.919 644.58 374.832 644.486 374.708C644.393 374.584 644.342 374.429 644.342 374.27C644.342 374.111 644.393 373.957 644.486 373.833C644.58 373.708 644.71 373.622 644.856 373.586L605.228 325.352L604.369 324.124L579.767 309.391L594.165 340.577V341.208L594.562 342.085L599.845 363.518L615.696 358.502L633.793 371.446C633.935 371.547 634.034 371.701 634.071 371.878C634.108 372.054 634.079 372.239 633.991 372.394C633.936 372.489 633.858 372.568 633.765 372.624C633.673 372.679 633.569 372.708 633.463 372.709C633.332 372.741 633.197 372.741 633.067 372.709L615.465 360.116L598.954 365.343L593.274 342.366L557.906 353.17L538.323 344.891C538.264 344.99 538.185 345.074 538.092 345.137L490.968 371.832L487.665 382.356C487.624 382.489 487.544 382.604 487.437 382.686C487.331 382.768 487.202 382.812 487.071 382.812H486.84C486.755 382.789 486.676 382.746 486.607 382.688C486.539 382.63 486.482 382.557 486.442 382.475C486.401 382.392 486.378 382.301 486.372 382.209C486.367 382.116 486.38 382.022 486.41 381.935L489.713 371.411V371.131H489.944L535.45 344.856L469.403 340.015H469.172L448.467 338.191L444.999 347.768L435.092 372.955L435.588 373.867H435.125L444.372 418.909L460.157 445.078L460.421 445.499C460.471 445.658 460.471 445.831 460.421 445.99L461.643 453.988L448.07 468.792L451.538 493.067L409.268 495.873H408.905L403.159 487.524L403.324 487.138L409.928 470.16V451.778L398.536 398.668L371.655 349.557C371.542 349.484 371.449 349.38 371.385 349.257C371.322 349.134 371.289 348.996 371.291 348.855L370.763 347.908L290.285 278.731L290.021 279.188V278.837L286.422 282.66L286.818 292.868L287.511 295.64L291.639 308.619L289.79 326.404L272.651 340.612H272.486L230.711 345.242L230.48 344.891L220.969 327.878L220.54 317.354L182.795 273.014L152.743 271.751L152.545 271.54C148.709 266.947 145.878 261.508 144.256 255.614C142.87 248.598 140.954 228.077 140.525 224.428L134.713 223.762C134.713 223.762 134.713 223.762 134.482 223.762H134.283L116.154 221.727L46.4746 228.743L29.5667 222.71L1.00153 151.814L6.25232 158.479ZM37.6244 208.117L16.1592 175.808L42.0495 217.413L71.0439 204.188L37.6244 208.117ZM101.491 194.401L75.6342 203.556L44.229 217.869L59.7499 220.5L77.4504 212.993L120.843 183L101.491 194.401ZM79.8941 212.958L109.153 213.414L115.956 210.783L132.005 176.861L79.8941 212.958ZM118.003 209.73L137.817 197.768L152.644 190.752L134.316 175.668L118.003 209.73ZM153.998 190.331L161.924 190.822L148.252 174.861L135.604 175.212L153.998 190.331ZM143.266 169.845L136.661 173.844L147.724 173.353L145.941 164.443L143.431 169.494L143.266 169.845ZM197.259 160.444L190.654 154.726L172.822 174.019L197.259 160.444ZM178.535 172.511L192.669 166.618L217.601 163.11L206.836 160.163L198.613 161.18L178.535 172.511ZM411.613 468.406L423.237 446.13H423.006L423.567 445.394L409.235 414.173L411.679 451.673L411.613 468.406ZM424.195 443.5L433.54 374.814L409.103 410.7L424.195 443.5ZM425.053 446.727L426.803 468.967L457.713 446.446L425.119 446.13L425.053 446.727ZM395.332 -29.3361H395.002L367.923 -3.06159H390.015L395.332 -29.3361ZM391.667 -4.78048L407.221 -22.7762L396.686 -29.5816L391.667 -4.78048ZM277.01 96.9499L279.289 122.663L310.066 109.543L277.01 96.9499ZM308.514 107.474L295.602 96.4237H279.289L308.514 107.474ZM296.064 95.0205L312.015 108.737L320.535 104.808L316.506 87.7941L316.341 86.9873V86.6365V86.1805L319.313 47.5931L264.263 47.0669L260.003 83.9354L276.515 94.9153L296.064 95.0205ZM413.231 171.003L419.571 172.195L421.057 143.22L419.274 112.806L408.211 153.884L412.405 170.652L413.759 170.371L413.231 171.003ZM435.456 291.115L457.185 288.975L412.24 265.963L404.447 276.241L435.456 291.115ZM406.626 278.802L418.515 290.939C418.617 290.942 418.717 290.968 418.808 291.017C418.9 291.065 418.98 291.135 419.043 291.22L419.538 291.956L419.703 292.167L432.582 291.29L406.626 278.802ZM411.084 265.296L377.335 267.927L403.159 275.68L411.084 265.296ZM413.462 263.717L496.615 225.13L456.656 199.698L444.207 201.241L402.003 244.283H401.838L368.55 246.704L374.891 266.383L374.296 266.629L413.462 263.717ZM327.106 82.9532L318.487 86.4611L338.598 97.7918L362.804 99.4054L328.922 82.7778L326.842 83.1637L327.106 82.9532ZM327.833 81.1641L320.403 49.3822L317.661 85.4438L327.833 81.1641ZM317.926 87.8292L321.856 104.457L366.965 102.633L365.875 101.124L338.367 99.2651L317.926 87.8292ZM366.404 99.6861L369.376 102.913V103.755L363.267 153.603L390.115 113.718L405.668 96.7394L409.697 66.7114L331.003 82.0762L366.404 99.6861ZM398.304 145.289V145.605L407.121 152.621L418.878 108.947L406.461 98.4232L391.7 114.56L397.908 143.746C398.035 143.804 398.141 143.903 398.212 144.029C398.284 144.155 398.316 144.301 398.304 144.447V145.289ZM390.709 115.998L363.762 156.059H364.092L395.398 166.091L397.016 145.289L390.709 115.998ZM407.221 97.1954L419.736 107.719L426.572 101.019L411.084 68.3952L407.221 97.1954ZM444.735 199.873L456.095 198.505L452.793 169.073C449.094 182.053 445.296 196.119 444.768 199.768L444.735 199.873ZM452.958 164.793L477.395 125.715L427.695 139.01L452.958 164.793ZM440.904 154.27L441.928 161.286L443.282 173.774L452.198 165.706L440.904 154.27ZM477.23 124.136L453.783 103.65L427.86 102.036L426.969 137.607L477.23 124.136ZM439.286 152.726L426.275 139.431L422.576 143.185L440.31 159.917L439.286 152.902V152.726ZM425.747 138.273L426.605 103.194L420.364 109.333L422.279 141.957L425.747 138.273ZM427.728 100.738L452.099 102.247L412.471 68.8162L427.728 100.738ZM454.378 102.387L477.956 122.803L473.498 90.2848L414.089 68.1146L454.378 102.387ZM479.343 124.242L486.807 133.432L475.678 97.6164L479.343 124.242ZM480.037 127.188L488.062 161.075L488.359 138.729L487.731 136.695L480.037 127.188ZM478.485 126.346L453.949 165.53C453.965 165.623 453.965 165.718 453.949 165.811L484.066 200.224L487.863 166.337L478.485 126.346ZM484.066 202.118L453.915 167.74L457.416 198.68L497.044 223.867L484.066 202.118ZM451.538 168.056L443.084 175.703L435.621 184.333C436.842 186.262 441.565 193.559 443.645 197.663C445.164 191.173 449.556 175.563 451.538 168.056ZM441.961 175.072L440.574 162.163L422.147 144.623L420.727 172.686L434.696 183.21L441.961 175.072ZM406.857 154.375L398.04 147.184L396.488 166.583L410.853 170.582L406.857 154.375ZM395.101 167.635L363.663 157.637H363.036L323.011 188.402L408.872 171.423L395.101 167.635ZM368.022 105.439L326.545 139.291L362.045 155.252L368.022 105.439ZM367.494 104.106L321.955 105.93L326.215 137.817L367.494 104.106ZM320.7 106.281L313.6 109.543L312.609 109.964L324.53 135.327L320.7 106.281ZM275.623 97.5813L239.297 123.891L277.869 123.049L275.623 97.5813ZM273.609 125.996L208.817 146.342L228.862 153.708L273.609 125.996ZM230.282 154.41L247.817 162.829L275.986 126.031L230.282 154.41ZM273.84 124.417L237.514 125.224L207.529 135.748L185.734 149.464L206.67 145.605L273.84 124.417ZM182.729 149.639L206.769 134.52L232.197 125.575L180.351 129.083L182.729 149.639ZM179.096 129.714L154.923 147.85L181.342 150.025L179.096 129.714ZM156.706 161.075L190.126 153.217L182.233 151.498L156.706 161.075ZM234.905 123.996L208.982 109.719H208.685L182.266 127.539L234.905 123.996ZM237.25 123.715L274.599 96.6342L211.062 109.298L237.25 123.715ZM274.5 95.2661L259.31 85.058L213.308 107.439L274.5 95.2661ZM262.81 47.4528L221.3 62.0107L258.847 83.0584L262.81 47.4528ZM264.428 45.5585L319.808 45.7339C319.896 45.6067 320.026 45.5191 320.171 45.4883C320.307 45.4569 320.449 45.4743 320.575 45.5378C320.7 45.6013 320.802 45.7073 320.865 45.8391L328.956 80.5327L389.388 10.8299L369.904 8.02351C369.819 8.05874 369.725 8.05874 369.64 8.02351C369.546 7.94717 369.468 7.85178 369.409 7.74288L387.142 -0.570946H366.041L306.236 15.4954L305.575 15.6708C305.458 15.7197 305.328 15.7197 305.212 15.6708L242.633 30.7199L264.428 45.5585ZM389.916 9.49685V-1.27254L372.282 6.97113L389.916 9.49685ZM391.138 -27.1612L312.147 12.5488L366.041 -2.81603L391.138 -27.1612ZM393.549 -29.8974L350.916 -28.88L308.58 12.8294L393.549 -29.8974ZM390.346 11.9875L330.409 81.3746L409.664 65.8695L408.74 63.87L409.169 64.2558L390.346 11.9875ZM410.16 62.9228L410.688 44.5763L393.318 16.3023L410.16 62.9228ZM411.745 43.559L443.183 56.9944L393.318 13.6011L411.745 43.559ZM411.943 45.1376L411.348 65.3082L444.537 59.0641L411.943 45.1376ZM413.231 66.3606L471.649 88.1098L446.65 60.0463L413.231 66.3606ZM473.498 88.18L475.315 73.587L449.622 61.3442L473.498 88.18ZM475.48 72.1136L476.14 63.7296L451.075 60.5374L475.48 72.1136ZM476.371 75.832L474.621 89.6533L488.161 133.152L486.972 103.79L476.371 75.832ZM489.283 166.337L485.354 200.855L504.969 195.207L489.581 143.009L489.283 166.337ZM485.618 202.223L498.101 223.271L504.705 196.821L485.618 202.223ZM498.068 226.779C498.068 226.779 498.068 226.779 497.869 226.779C497.721 226.715 497.594 226.605 497.506 226.463L414.717 264.559L517.816 273.329L498.431 226.533C498.322 226.605 498.196 226.642 498.068 226.639V226.779ZM415.509 266.243L459.562 288.764L517.353 274.732L415.509 266.243ZM459.496 290.448L445.362 300.13L481.259 314.618L459.496 290.448ZM457.02 290.448L436.909 292.448L443.975 299.463L457.02 290.448ZM435.026 292.623L420.562 293.605L438.064 320.511L443.084 300.481L435.026 292.623ZM438.593 323.773L438.229 323.212L428.917 332.543L446.617 336.051L438.593 323.914V323.773ZM437.47 322.055L418.614 293.044L404.414 278.591L414.155 332.613L426.803 332.298H427.398L437.47 322.055ZM426.969 333.701L414.354 333.982L432.979 368.535L426.969 333.701ZM413.528 335.209L406.626 367.623L433.045 371.517L413.528 335.209ZM402.763 277.153L374.891 268.769L412.405 330.684L402.763 277.153ZM373.438 268.944L360.922 278.24L362.936 292.623L410.457 330.018L373.438 268.944ZM373.438 266.383L366.833 245.792L401.276 243.266L443.348 200.364C443.348 200.364 443.348 200.083 443.348 199.908C440.641 194.697 437.665 189.65 434.432 184.789L419.902 173.669L412.108 172.195L344.906 248.072L373.438 266.383ZM410.061 172.511L321.129 190.051L344.08 247.02L410.061 172.511ZM361.979 156.725L326.776 140.729L327.139 143.465L325.95 140.939L320.964 188.262L361.979 156.725ZM324.894 138.659L311.882 110.911L274.368 174.054L324.861 138.975L324.894 138.659ZM310.33 110.911L279.355 124.242L273.212 173.353L310.33 110.911ZM277.803 125.925L249.039 163.531L271.693 175.177L277.803 125.925ZM249.105 165.109L264.164 214.571L271.495 176.615L249.105 165.109ZM249.105 170.02L253.53 219.342L257.394 222.148L256.701 228.428L260.003 226.182L263.536 217.237L249.105 170.02ZM260.003 227.796L256.899 229.761L264.065 259.403L260.003 227.796ZM266.905 271.049L267.796 293.254L276.845 289.746L283.152 293.605L284.77 282.766L261.654 230.146L266.905 271.049ZM276.812 291.43L266.674 295.324L265.716 271.224L256.073 231.585L242.864 302.761L256.337 306.269L283.02 307.567V295.114L276.812 291.43ZM255.677 307.707L243.161 304.199L252.143 330.228L258.748 327.176L255.677 307.707ZM260.003 327.106L261.456 327.527L263.966 319.143L257.361 309.777L260.003 327.106ZM241.411 303.533L228.796 278.977L236.127 323.177L250.525 330.193L241.411 303.533ZM241.708 301.217L253.828 236.005L248.214 249.58L243.062 252.141L243.689 256.21L240.189 261.578L235.169 256.702L227.013 259.262L228.202 274.627L241.708 301.217ZM235.401 255.123L239.859 259.508L242.303 256L241.642 251.44L247.223 248.668L254.917 230.041L255.974 223.025L253.068 220.921L241.642 237.618L231.471 238.109V250.773L218.691 249.826L232.561 256.281L235.401 255.123ZM231.075 236.531L240.982 236.075L251.912 220.114L217.436 208.432L218.229 223.131L231.075 236.531ZM217.37 206.854L252.176 218.746L247.355 165.004L216.214 187.174L217.271 206.784L217.37 206.854ZM231.9 174.335L246.166 164.197L230.282 161.566L231.9 174.335ZM243.491 162.338L228.73 155.112L206.67 147.008L185.8 150.832L229.258 160.268C229.328 160.187 229.416 160.124 229.514 160.088C229.612 160.051 229.717 160.041 229.82 160.058L243.491 162.338ZM188.772 154.971L147.988 164.583L169.09 176.229L188.772 154.971ZM179.162 151.218L153.536 149.148L146.337 163.531L179.162 151.218ZM147.195 141.536L143.893 165.495L152.644 147.955L179.063 128.171V127.75L185.238 61.5898L147.195 141.536ZM180.483 127.118L207.166 109.122L189.003 97.0551L193.527 76.0074L186.625 60.362L180.483 127.118ZM207.661 107.754L194.452 78.0771L190.489 96.4237L207.661 107.754ZM187.418 58.6431L194.022 73.7624L196.995 59.9762L187.418 58.6431ZM200.264 51.6272L198.679 58.8536L217.667 61.4495L200.264 51.6272ZM218.79 62.8176V62.993L198.547 60.1866L195.244 75.832L209.411 107.895L258.154 84.1459L219.847 62.5369L218.79 62.8176ZM220.111 60.9233L262.744 45.9795L240.75 31.1058L220.111 60.9233ZM243.491 27.8434L242.236 29.3167L304.981 14.2326L315.218 -13.831L243.491 27.8434ZM317.001 -14.7781L307.094 12.3383L350.024 -30.1078L362.375 -49.9277L317.001 -14.7781ZM364.786 -51.4361L351.775 -30.3885L394.309 -31.4408L364.852 -51.7168L364.786 -51.4361ZM366.305 -52.2429L396.686 -31.1953C396.781 -31.1141 396.85 -31.0039 396.884 -30.8796L407.815 -23.8637L418.515 -63.5385L366.305 -52.2429ZM419.34 -61.3636L409.037 -23.0919H409.301L391.237 -2.04428V9.95288L445.825 57.5907L419.34 -61.3636ZM470.856 45.6637L421.322 -58.873L447.542 58.7484L476.041 62.2563L470.856 45.6637ZM472.475 46.5056L477.329 62.5369L541.658 71.833L472.475 46.5056ZM546.248 73.9027L478.254 64.0804L489.118 80.1468L493.246 109.438L546.248 73.9027ZM491.958 110.21L487.863 80.673L477.329 65.0977L476.735 72.7802V73.0958L488.227 103.404L494.831 118.559L491.958 110.21ZM500.049 133.889L488.359 107.018L489.647 138.273V138.589L504.771 189.84L500.049 133.889ZM506.422 196.646H506.158L499.355 223.902L530.397 212.326L506.422 196.646ZM499.355 225.481L518.674 271.926L531.421 213.589L499.355 225.481ZM533.237 213.589L551.103 245.476L619.296 201.066L533.237 213.589ZM605.129 161.847L589.674 162.092L619.956 196.365L605.129 161.847ZM619.758 161.636L606.549 161.847L621.442 196.33L619.758 161.636ZM682.701 222.99L680.983 240.776L696.835 287.501L682.701 222.99ZM700.467 298.025L709.879 232.076V231.725L683.196 218.5V218.711L700.467 298.025ZM681.941 218.956L681.578 217.342L679.629 210.327L680.719 232.041L681.941 218.956ZM682.833 216.851L709.582 230.146L703.67 203.767L687.159 196.751L679.398 202.96V204.047L682.833 216.851ZM685.739 196.084L644.361 178.334L678.308 202.153L685.739 196.084ZM678.044 204.433V203.942L624.745 200.89L679.563 239.478L679.762 239.267L678.044 204.433ZM676.426 202.469L638.747 176.054L623.49 199.452L676.426 202.469ZM637.69 175.247L621.178 162.478L622.829 197.908L637.69 175.247ZM667.147 160.794L622.334 161.742L638.846 174.475L686.994 194.997C687.119 194.965 687.251 194.971 687.373 195.015C687.496 195.058 687.604 195.137 687.687 195.242L704.001 202.258C704.133 202.229 704.27 202.244 704.394 202.301C704.518 202.357 704.623 202.452 704.694 202.574L717.606 208.117L667.147 160.794ZM695.415 163.46H695.183H693.697L674.115 161.391L695.91 170.546L737.684 148.517L695.415 163.46ZM768.561 208.082L779.228 254.316L782.53 277.679L783.091 277.925L778.006 190.893L747.624 147.885L768.561 208.082ZM739.501 178.474L766.381 205.871L745.907 147.429L738.807 178.65L739.501 178.474ZM737.387 179.036L744.85 146.272L697.297 171.353C697.361 171.522 697.361 171.711 697.297 171.88C697.255 171.979 697.191 172.066 697.111 172.134C697.03 172.201 696.935 172.246 696.835 172.265L709.615 186.508L737.387 179.036ZM709.35 188.156L694.226 171.353L669.26 160.83L719.026 207.661L709.35 188.156ZM719.852 210.642L705.024 204.293L710.737 229.725L719.852 210.642ZM719.852 235.724L711.134 233.479L701.887 298.306L712.884 282.31L724.31 251.72L719.852 235.724ZM702.052 300.411L736.198 303.252L713.577 283.608L702.052 300.411ZM724.937 254.036L714.304 282.555L737.09 302.375L724.937 254.036ZM817.039 500.96V501.486L824.073 495.136L817.039 500.96ZM825.031 492.576L816.61 481.491L817.006 499.206L825.031 492.576ZM816.544 479.105L826.055 491.628L832.659 486.086L828.498 476.053L813.076 476.334L816.544 479.105ZM845.241 475.843L829.984 476.123L833.782 485.314L845.241 475.843ZM833.584 488.331L827.574 493.768L845.769 517.798L833.584 488.331ZM826.583 494.645L817.105 503.099V504.538L846.001 520.218L826.583 494.645ZM846.1 521.937L816.841 506.081L809.576 527.129L846.1 521.937ZM815.817 504.397L811.689 508.151L815.817 504.643V504.397ZM790.158 523.165L799.273 523.796L802.047 517.061L802.443 515.132V514.886L802.872 512.887L790.158 523.165ZM800.561 524.182L808.189 527.234L815.124 507.099L803.764 516.324L800.561 524.182ZM804.16 513.132L815.784 502.608V501.977L804.589 511.273L804.16 513.132ZM804.887 509.063L815.619 500.153L815.157 479.702L811.524 476.86L804.887 509.063ZM811.822 475.001L826.748 474.685L812.977 465.635L811.822 475.001ZM803.731 433.502L804.061 433.993L813.01 464.021L828.531 474.264L833.749 460.548L796.829 412.665L803.764 433.011C803.834 433.163 803.857 433.335 803.83 433.502H803.731ZM791.842 412.875L800.792 428.38L794.352 409.437L794.187 409.262L807.727 357.765L772.788 362.256L789.3 398.387C789.348 398.523 789.348 398.673 789.3 398.808L791.842 412.875ZM772.392 364.571V369.271L782.728 386.811L772.392 364.571ZM767.273 392.985L790.389 411.542L788.243 398.949L772.028 371.236L767.273 392.985ZM771.038 367.377V361.975L758.654 348.75L771.038 367.377ZM757.102 345.488L772.028 360.958L806.637 356.503L739.798 306.199L757.102 345.488ZM755.484 345.102L737.948 305.287L704.925 338.437C704.893 338.59 704.812 338.727 704.694 338.823L755.484 345.102ZM704.1 337.49L736.628 304.69L701.491 301.744L704.1 337.49ZM700.137 301.288C699.976 301.186 699.857 301.023 699.807 300.831L699.443 299.042L684.088 253.755L702.515 332.368L700.137 301.288ZM702.515 338.226L680.092 242.073L636.765 315.74L702.515 338.226ZM678.209 242.635L606.384 322.265L635.147 315.6C635.237 315.409 635.39 315.259 635.576 315.179L678.209 242.635ZM740.954 519.762L730.419 491.699L700.104 525.515L740.954 519.762ZM688.876 518.57L697.792 525.059L703.935 486.472L688.876 518.57ZM705.982 482.262L699.377 524.358L729.891 490.296L702.812 456.514L705.982 482.262ZM730.056 488.506L730.551 472.791L738.543 458.759L702.548 454.164L730.056 488.506ZM701.491 451.392L714.964 408.946L678.011 373.306L701.491 451.392ZM676.525 403.649L698.288 445.289L676.723 373.306L676.525 403.649ZM676.162 370.113L701.359 340.331L647.333 372.92L676.162 370.113ZM645.715 372.323L700.731 339.103L636.468 317.179L645.715 372.323ZM644.162 371.025L635.147 317.179L605.69 323.984L644.162 371.025ZM678.54 240.355L623.82 201.767L624.514 203.416L622.73 201.346L605.426 321.353L678.54 240.355ZM604.072 321.739L621.409 201.416L551.829 246.669L604.072 321.739ZM602.124 321.283L554.306 252.597L578.743 307.497H579.074L602.124 321.283ZM557.708 351.521L588.089 342.225L540.569 344.26L557.708 351.521ZM592.448 340.647L578.182 309.707L539.512 342.892L592.448 340.647ZM537.332 342.927L577.488 308.444C577.44 308.308 577.44 308.158 577.488 308.023L550.277 246.879L532.412 214.992L519.5 274.101L519.863 274.978H519.103L518.311 276.171L461.511 289.817L461.94 290.027H460.949L484.066 316.091L485.387 326.159L537.332 342.927ZM531.784 342.576L485.089 327.422L471.154 337.946L531.784 342.576ZM469.04 337.946L484.165 326.334L483.009 317.459L450.25 336.297L469.04 337.946ZM481.985 316.477L444.24 301.077L438.989 321.914L448.202 335.946L481.985 316.477ZM447.113 337.314L430.601 334.157L444.537 344.891L447.113 337.314ZM443.81 346.224L428.289 334.262L434.597 369.798L443.81 346.224ZM434.3 376.708L425.317 442.623L443.084 418.909L434.3 376.708ZM443.513 420.417L425.383 444.762L458.407 445.078L443.513 420.417ZM460.025 453.637L459.199 447.99L450.349 464.161L460.025 453.637ZM457.812 447.779L428.091 469.353L446.617 467.985L457.812 447.779ZM446.617 469.388L427.497 470.791L449.821 491.418L446.617 469.388ZM425.879 471.177L414.882 482.648L415.575 487.208L447.773 491.348L425.879 471.177ZM409.367 494.47L443.48 492.19L414.981 488.682L405.074 488.366L409.367 494.47ZM410.688 472.265C410.653 472.339 410.601 472.402 410.538 472.451C410.475 472.5 410.402 472.532 410.325 472.545L404.711 486.823L414.255 487.138L413.495 482.157L425.119 470.265L425.515 469.984L423.798 447.884L410.688 472.265ZM408.475 408.666L432.88 372.814L406.296 368.921L408.475 408.666ZM409.4 442.903L407.32 410.876L400.484 401.369L409.4 442.903ZM399.757 398.072L407.452 408.385L405.272 368.675H405.107V368.43L374.131 350.89L399.757 398.072ZM405.305 367.061L412.24 334.297L373.537 348.75L405.305 367.061ZM372.282 347.242L372.612 347.803L412.24 332.929L363.432 294.517L372.282 347.242ZM291.243 275.259L291.507 276.872V277.644L370.598 345.593L361.748 292.974L359.502 277.188L372.711 267.26L343.783 248.844L343.453 249.195L319.577 189.98H319.445C319.358 189.976 319.273 189.953 319.194 189.914C319.116 189.874 319.045 189.819 318.987 189.75C318.929 189.682 318.884 189.602 318.855 189.515C318.826 189.428 318.813 189.336 318.817 189.244C318.818 189.127 318.849 189.013 318.908 188.914C318.966 188.814 319.049 188.735 319.148 188.683V188.367H319.577L324.629 140.448L272.915 176.229L291.243 275.259ZM272.288 179.737L265.055 217.202L289.724 274.276L272.288 179.737ZM289.724 277.539L264.329 218.956L261.357 226.463C261.495 226.535 261.601 226.661 261.654 226.814L285.629 281.398L289.724 277.539ZM290.285 308.759L286.223 296.026L285.497 293.149L285.332 289.185L284.473 294.938V308.163L289.724 313.881L290.285 308.759ZM287.544 326.475L273.014 324.3V338.647L287.544 326.475ZM272.585 322.967L288.568 325.387L289.559 315.81L283.482 309.286L257.724 308.023L265.32 318.547L272.585 322.967ZM271.561 339.594V324.054L265.122 320.16L262.612 328.439L267.962 339.98L271.561 339.594ZM266.773 340.12L261.621 329.07L259.673 328.544L252.176 332.052L233.948 343.839L266.773 340.12ZM222.257 327.702L231.273 343.769L250.36 331.21L235.401 324.194L221.861 318.196L222.257 327.702ZM145.544 255.439C147.084 260.996 149.744 266.131 153.338 270.488L181.573 271.681L141.945 226.077C142.539 231.865 144.422 249.054 145.544 255.439ZM141.714 223.271V223.587L183.422 271.751V271.961L221.399 316.582L233.65 321.984L174.374 232.392C174.315 232.33 174.268 232.256 174.236 232.175C174.204 232.093 174.188 232.006 174.188 231.918C174.188 231.83 174.204 231.743 174.236 231.661C174.268 231.58 174.315 231.506 174.374 231.444C174.497 231.316 174.663 231.244 174.836 231.244C175.009 231.244 175.175 231.316 175.298 231.444L234.476 320.686L226.98 275.083C226.962 274.979 226.962 274.872 226.98 274.768L225.725 259.157V258.35L230.711 256.772L211.327 247.756L230.282 249.195V237.618L217.304 224.078L216.974 223.727L216.148 208.117L172.954 212.326L172.029 211.905C172.013 211.836 172.013 211.764 172.029 211.695L198.216 185.245L216.445 186.473L230.975 175.949L229.258 162.373L191.612 154.199L198.712 160.584L207.034 159.567L224.569 164.337L193.164 168.687L169.354 178.58L147.592 166.583L149.177 174.546L163.41 191.208C163.505 191.318 163.558 191.462 163.558 191.612C163.558 191.761 163.505 191.905 163.41 192.015C163.434 192.07 163.446 192.13 163.446 192.191C163.446 192.251 163.434 192.311 163.41 192.366C163.41 192.533 163.347 192.694 163.236 192.812C163.124 192.931 162.973 192.997 162.816 192.997L153.866 192.471L138.841 199.487L135.538 223.341L141.714 223.271ZM174.935 210.607L216.016 206.643L214.992 187.35L174.935 210.607ZM213.341 186.648L198.481 185.666L175.794 208.432L213.341 186.648ZM137.388 199.522L116.913 211.975L111.266 214.15L134.019 222.464L137.388 199.522ZM46.8049 227.586L116.154 220.57L128.504 221.973L109.12 214.957L77.8798 214.431L59.882 222.078L43.0402 219.202L46.8049 227.586ZM30.2932 221.868L45.0546 227.13L41.2239 218.675L6.48346 162.548L30.2932 221.868Z" fill="url(#B)" stroke="url(#B)"/><defs><radialGradient id="A" cx="0" cy="0" r="1" gradientUnits="userSpaceOnUse" gradientTransform="translate(-225.205 423.382) rotate(-17.6605) scale(859.429 470.762)"><stop stop-color="#c6b38a"/><stop offset=".464" stop-color="#f3c691"/><stop offset="1" stop-color="#b4703e"/></radialGradient><radialGradient id="B" cx="0" cy="0" r="1" gradientUnits="userSpaceOnUse" gradientTransform="translate(-249.065 425.19) rotate(-17.7155) scale(882.327 484.613)"><stop stop-color="#c6b38a"/><stop offset=".464" stop-color="#f3c691"/><stop offset="1" stop-color="#b4703e"/></radialGradient></defs></svg>