<svg width="459" height="396" viewBox="0 0 459 396" fill="none" xmlns="http://www.w3.org/2000/svg">
<g opacity="0.15">
<path d="M18.4473 183.882L39.0208 210.543L93.2781 200.019L130.033 175.463L144.2 171.955L146.148 141.612L216.653 64.437L218.139 62.227C218.22 62.0993 218.339 62.0051 218.478 61.9603C218.616 61.9156 218.765 61.923 218.898 61.9814L219.295 61.5254L242.114 42.6877L242.411 41.7406L242.576 41.951L260.012 11.9932H260.244L331.805 -19.5783V-19.7888H332.664L333.621 -20.2097L364.432 -52.8336L417.269 -34.2064L473.739 50.1947L475.39 52.6853L548.438 129.053L628.618 142.769L679.408 164.975L756.022 158.871L787.229 219.207C787.244 219.277 787.244 219.349 787.229 219.418L808.199 300.451V300.662L798.027 333.005L775.572 295.646L784.488 274.598L768.307 201.422L736.175 176.867L708.468 189.39L732.245 241.132L737.661 314.343L781.78 352.264L781.945 351.843V352.509L782.573 353.036L792.843 394.78L792.447 415.266L830.555 454.871L829.135 479.427V479.672L845.02 520.926L816.058 519.593L792.447 524.013L791.291 495.493L797.895 461.08L761.173 406.532V406.742L760.612 405.62L711.308 368.541L705.893 391.518L724.584 443.47L735.547 459.502L726.598 494.16L740.567 516.646L722.239 522.925H721.446L691.726 521.698L694.83 504.158L709.426 476.48L689.315 430.28L679.078 400.042L628.684 380.503L606.426 362.963H606.162H605.964L592.491 337.916L564.19 351.948L536.648 341.67L531.034 350.861H491.109L488.633 351.597L465.979 369.488L450.425 362.121L448.476 347.458H448.311V347.247L442.466 344.266L442.268 345.037L441.938 344.441L433.616 354.088L439.263 382.151L441.277 420.739L459.77 445.786L445.504 467.921L450.59 489.424L416.84 495.423H416.642H416.477L405.15 490.301L412.481 473.989L404.952 411.653L382.265 355.772L325.696 309.011L294.555 278.211L285.143 279.088V279.299H284.714L283.063 285.437H283.525L283.03 285.929L292.243 311.501L280.652 336.338L237.491 345.213L223.224 330.83L223.819 322.972L187.493 270.353L187.295 270.073L158.598 272.809H158.301L145.488 258.777L144.167 226.153L109.823 218.681L55.1361 228.433L31.2273 223.557L30.2696 223.733C30.1132 223.757 29.9539 223.72 29.8206 223.63C29.6873 223.54 29.5889 223.402 29.5431 223.242H29.345L18.4473 183.882ZM78.3845 213.314L90.6031 202.054L34.4636 220.716L78.3845 213.314ZM186.305 267.722L164.245 234.678L159.192 270.248L186.305 267.722ZM444.745 470.271L444.216 468.096L444.745 470.271ZM443.027 469.219L418.524 492.582L448.641 487.249L443.027 469.219ZM443.886 466.202L439.758 420.248L418.425 386.08L443.49 466.307L443.886 466.202ZM417.831 388.501L413.967 470.341L442.169 466.447L417.831 388.501ZM417.269 381.695L431.568 353.632L386.392 354.825L417.269 381.695ZM431.733 352.264L423.114 311.116L384.345 353.211L384.741 353.527L431.733 352.264ZM461.719 260.426L424.303 310.168V310.449L441.64 340.653L461.719 260.426ZM451.184 359.946L485.297 350.194L449.896 346.686H449.467L451.184 359.946ZM710.186 477.462L693.872 518.856L724.782 493.95L710.186 477.462ZM721.05 521.417L725.079 495.423L694.169 520.329L721.05 521.417ZM723.23 444.242L682.413 403.304L725.145 491.003L723.23 444.242ZM828.673 481.251L810.345 506.613L843.368 519.347L828.673 481.251ZM809.586 505.386L827.748 480.304L799.91 462.764L809.586 505.386ZM827.22 478.374L793.338 418.915L799.513 460.694L827.22 478.374ZM707.676 188.127L734.094 176.27L681.257 166.729L707.676 188.127ZM769.462 200.58L783.96 215.735L755.361 160.625L737.232 175.955L769.462 200.58ZM629.51 144.453H629.312L520.104 178.2L676.535 164.94L629.51 144.453ZM260.904 13.221L244.194 41.6002L310.043 17.3253L260.904 13.221ZM145.125 224.013H208.463L137.826 201.001L145.125 224.013ZM462.544 257.549L359.974 305.924L423.313 309.432L462.544 257.549ZM694.929 360.332L714.743 331.672L612.14 361.384L694.929 360.332ZM737.199 356.298L779.766 353.456L717.88 331.742L737.199 356.298ZM472.253 51.8434L428.926 60.8939L477.107 84.9234L472.847 52.2644L472.253 51.8434ZM339.268 3.92492L313.84 17.2551L354.162 20.7631L339.268 3.92492ZM260.012 63.56L310.076 18.7635L243.765 43.3191L260.012 63.56ZM215.86 241.869L253.903 220.014L213.516 225.101L215.86 241.869ZM188.319 198.546L255.257 217.769L205.095 159.678L188.319 198.546ZM203.873 159.327L147.436 172.657L187.13 197.914L203.873 159.327ZM189.805 200.265L213.086 223.803H213.417L253.936 218.716L189.805 200.265ZM187.262 199.598L140.865 200.51L210.478 222.996L187.262 199.598ZM185.215 198.23L146.28 173.674L137.694 199.317L185.215 198.23ZM204.533 157.783L213.78 127.159L148.922 170.798L204.533 157.783ZM205.986 157.433H206.152L205.788 158.31L254.861 215.138L215.233 127.44L205.986 157.433ZM256.71 216.156L260.012 147.154L216.455 126.913L256.71 216.156ZM318.86 178.129L263.315 148.803L291.186 178.235L318.86 178.129ZM464.757 254.813L466.837 253.796L466.507 254.217L510.23 240.185L449.83 235.204L363.441 302.556L462.511 255.865V255.585L464.757 254.813ZM547.81 273.721L488.798 299.224L527.501 319.745L547.81 273.721ZM596.09 230.433L595.76 230.117H596.123L583.938 203.457L551.278 269.792L596.09 230.433ZM549.858 272.774L537.639 336.268L594.637 233.52L549.858 272.774ZM715.733 328.69L713.191 280.105L661.873 305.678L715.634 329.182L715.733 328.69ZM660.519 304.871L711.275 279.579L640.672 274.072L660.519 304.871ZM639.78 271.265L655.202 247.832L636.973 222.47L639.78 271.265ZM635.586 221.172L598.369 230.854L638.492 271.581L635.586 221.172ZM635.817 219.664L675.445 170.552L600.152 228.995L635.817 219.664ZM501.512 141.191H501.28L438.999 161.888L512.839 178.831L501.512 141.191ZM450.292 233.836L512.013 238.957L437.711 165.045L450.292 233.836ZM435.927 161.151L443.49 117.477L366.744 150.697L435.927 161.151ZM440.319 117.232L360.568 123.335L364.795 149.89L440.319 117.232ZM329.923 39.0044L328.569 66.1909L354.756 23.4642L329.923 39.0044ZM328.635 38.829L315.227 21.605L327.314 64.6124L328.635 38.829ZM328.272 69.2428L306.047 125.37L385.006 60.8939L328.866 68.8921L328.272 69.2428ZM363.54 150.592L359.479 125.124L324.144 176.34L362.385 151.434H361.79L363.54 150.592ZM384.312 63.1741L307.038 126.317L359.545 121.616L384.312 63.1741ZM358.422 124.247L358.719 123.511L353.799 123.897L355.582 123.335L305.485 127.755L321.667 177.428L358.422 124.247ZM387.482 60.5431L386.492 61.35L361.592 120.143L425.492 61.2096L387.482 60.5431ZM424.832 59.8065L394.417 40.0567L388.209 59.3855L424.832 59.8065ZM322.195 179.077L316.614 217.664L361.724 153.469L322.195 179.077ZM304.33 128.422C304.33 128.422 304.165 128.422 304.065 128.422C303.926 128.47 303.776 128.47 303.636 128.422L262.588 146.593L320.214 177.252L304.33 128.422ZM304.131 126.633L325.729 72.0843L263.15 144.874L304.131 126.633ZM313.114 19.0091L270.613 124.949L327.05 68.5062L313.114 19.0091ZM329.361 37.7064L353.898 22.517L314.732 19.0091L329.361 37.7064ZM356.407 23.1835L329.361 67.2082L392.304 38.864L356.705 23.1485L356.407 23.1835ZM333.489 66.8574L385.93 59.3504H386.789L392.997 40.0567L333.489 66.8574ZM395.408 38.9693L427.044 59.7363L425.624 17.641L395.375 38.6887H395.672L395.408 38.9693ZM362.385 121.266L476.117 85.66L427.308 61.3149L362.385 121.266ZM365.687 121.652L444.018 115.688L475.126 87.6245L365.687 121.652ZM437.248 160.941L499.992 140.138L444.943 117.232L437.248 160.941ZM437.248 162.835L513.169 238.185V180.375L437.248 162.835ZM514.292 239.483L547.744 270.844L514.292 183.146V239.483ZM549.098 270.774L583.112 202.124L514.919 180.76L549.098 270.774ZM599.492 227.451L599.227 227.942L677.526 167.079L584.829 202.159L597.279 229.486L599.492 227.451ZM547.546 272.353L514.523 241.308L514.093 240.852L488.699 297.75L547.546 272.353ZM449.038 234.186L436.159 164.027L360.502 303.153L449.038 234.186ZM365.192 151.855L385.006 219.172L435.036 162.414L365.192 151.855ZM364.036 152.521L317.242 219.172L383.817 219.839L364.036 152.521ZM315.095 219.172L320.808 179.778C320.667 179.718 320.543 179.621 320.445 179.498H292.21L315.029 219.278L315.095 219.172ZM261.697 148.803L274.708 229.486L290.295 178.936L261.697 148.803ZM315.789 81.6259L269.391 127.966L269.061 128.702L262.985 143.05L315.789 81.6259ZM268.499 126.633L311.43 19.2897L260.64 64.6124L268.499 126.633ZM356.308 21.3945L413.24 -30.7336L340.589 3.32857L356.308 21.3945ZM357.86 21.8154L425.525 15.9221L416.543 -31.7859L357.86 21.8154ZM359.644 23.0432L393.988 38.2326L423.709 17.4305L359.644 23.0432ZM427.011 17.8865L428.431 59.4206L470.8 50.5806L427.011 17.8865ZM477.966 86.7475L445.867 115.863L544.937 128.597L477.966 86.7475ZM449.335 117.688L501.908 139.472L544.013 129.86L449.335 117.688ZM514.292 178.866L626.571 144.102L502.733 141.261L514.292 178.866ZM584.07 200.966L674.487 166.764L517.429 180.094L584.07 200.966ZM636.907 220.33L655.532 246.184L677.955 169.254L636.907 220.33ZM640.209 272.704L710.285 278.141L656.292 248.709L640.209 272.704ZM716.163 331.988L711.639 366.611L735.481 356.544L716.163 331.988ZM714.016 330.199L660.32 306.661L609.399 360.648L714.016 330.199ZM639.086 274.773L594.637 334.724L659.198 305.573L639.086 274.773ZM597.213 231.591L538.035 338.232L638.195 273.16L597.213 231.591ZM547.315 277.86L528.459 320.692L535.889 338.232L547.315 277.86ZM525.652 320.447L487.345 299.995L450.259 345.248L525.652 320.447ZM453 345.704L487.444 349.212L523.769 322.622L453 345.704ZM512.442 240.887L465.021 256.146L464.691 256.532V257.093L487.213 297.68L512.442 240.887ZM432.922 166.764L385.501 220.681V221.102H385.138L359.776 301.784L432.922 166.764ZM315.425 220.47L281.478 230.994L372.952 221.067L315.425 220.47ZM313.543 219.628L291.219 180.375L275.5 231.275L313.543 219.628ZM260.904 152.977L257.8 217.734L258.163 217.489L257.833 218.681L273.453 230.784L260.904 152.977ZM257.602 220.225V220.576L257.305 220.26L242.84 269.371L273.222 232.783C273.189 232.706 273.172 232.622 273.172 232.538C273.172 232.453 273.189 232.369 273.222 232.292L257.602 220.225ZM215.728 243.237L212.954 275.685L241.288 270.038L255.918 220.33L215.728 243.237ZM214.011 276.878L253.408 310.379L241.586 271.581L214.011 276.878ZM211.633 275.615L214.308 244.43L188.814 268.073L211.633 275.615ZM214.407 242.535L212.162 226.469L190.003 265.056L214.407 242.535ZM211.105 225.417L164.608 233.38L187.361 267.056L211.105 225.417ZM144.299 173.885L83.4041 212.297L136.241 199.282L144.299 173.885ZM214.506 125.159L217.611 65.2087L148.526 169.535L214.506 125.159ZM260.376 145.821L267.476 129.088L218.667 126.422L260.376 145.821ZM267.311 127.755L259.517 66.1909L216.422 124.914L267.311 127.755ZM259.121 64.6124L242.906 44.4768L217.082 121.757L259.121 64.6124ZM338.377 3.08301H338.674L332.796 -16.1405L314.798 15.6064L338.377 3.08301ZM333.687 -17.9646L339.863 2.27618L414.297 -32.7331L334.282 -18.9469L333.687 -17.9646ZM426.78 16.1326L472.253 50.1596L417.996 -31.1545L426.78 16.1326ZM474.664 53.4922L474.267 53.1765L478.494 85.4495L479.716 86.0459H479.518L544.013 126.282L474.664 53.4922ZM506.036 139.963L619.107 142.524L548.107 130.386L506.036 139.963ZM753.71 160.449L684.725 165.922L736.175 175.253L753.71 160.449ZM680.035 167.465L657.315 245.447L706.85 189.039L680.035 167.465ZM713.389 278.141L730.858 242.185L658.207 248.288L713.389 278.141ZM731.188 244.57L714.677 278.772L715.271 279.123L714.776 279.369L736.307 312.343L731.188 244.57ZM736.406 315.185L714.479 281.579L717.021 329.918L779.204 351.703L736.406 315.185ZM737.958 357.28L761.306 403.69L780.921 354.404L737.958 357.28ZM762.263 404.883L791.357 414.53L781.45 356.403L762.263 404.883ZM791.687 416.214L763.023 406.707L797.895 458.484L791.687 416.214ZM736.67 357.701L712.596 367.874L759.555 403.199L736.67 357.701ZM715.073 333.461L696.349 360.543L710.714 366.717L715.073 333.461ZM679.408 398.253L694.202 361.595L608.705 362.682L679.045 398.498C679.045 398.498 679.21 398.288 679.408 398.253ZM680.861 398.463L704.737 391.448L695.292 362.788L680.861 398.463ZM606.757 361.349L657.249 307.818L593.547 336.653L606.757 361.349ZM637.369 275.335L538.795 339.319L592.293 335.812L637.369 275.335ZM527.501 321.569L490.779 348.545L535.228 339.67L527.501 321.569ZM486.585 299.048L464.426 259.163L449.896 343.634L486.585 299.048ZM382.066 351.913C382.186 351.804 382.338 351.745 382.496 351.745C382.653 351.745 382.805 351.804 382.925 351.913L383.486 352.439L422.19 310.344L358.785 307.011L382.066 351.913ZM357.398 305.257L383.586 222.014L296.008 276.387L357.398 305.257ZM381.835 221.523L275.5 232.994L294.819 275.58L381.835 221.523ZM273.684 234.432L244.492 269.792L283.129 276.597L273.684 234.432ZM254.993 311.116L280.916 285.087L243.038 271.581L254.993 311.116ZM290.328 311.116L256.413 312.799L279.826 333.602L290.328 311.116ZM254.729 313.115L254.398 313.466V313.045L228.574 321.113L277.911 333.356L254.729 313.115ZM253.309 311.922L213.681 277.825L224.777 320.166L226.031 320.482L253.309 311.922ZM211.964 276.843L189.211 269.371L222.762 318.167L211.964 276.843ZM163.155 233.099L145.719 225.978L158.301 267.372L163.155 233.099ZM163.948 231.941L204.533 224.925H148.064L163.948 231.941ZM136.538 200.58L111.408 216.787L143.639 223.803L136.538 200.58ZM132.84 201.317L84.0645 213.349L109.592 216.191L132.84 201.317ZM39.0869 211.946L31.8217 220.4L83.3711 203.246L39.0869 211.946ZM29.9064 220.54L37.8979 211.315L21.3864 190.056L29.9064 220.54ZM93.9055 200.966L83.1068 210.894L142.549 173.674L130.693 176.586L93.9055 200.966ZM147.403 142.068L145.521 171.57L211.898 71.3827L147.403 142.068ZM220.054 62.3673L218.865 63.6301L215.893 120.775L241.189 44.8276L220.054 62.3673ZM263.315 11.9932L312.85 16.0975L332.366 -18.3505L263.315 11.9932ZM335.603 -20.6307L414.264 -34.1363L364.729 -51.676L335.603 -20.6307ZM788.021 227.872L797.928 328.129L806.614 300.522L788.021 227.872ZM776.992 295.47L796.806 328.515L786.899 229.801L785.743 274.387L776.992 295.47ZM784.62 269.126L785.875 219.769L769.892 203.071L784.62 269.126ZM707.28 190.056L657.613 247.025L730.594 240.852L707.28 190.056ZM783.596 361.7L791.687 408.672L791.918 395.061L783.596 361.7ZM829.499 455.467L795.287 419.932L828.31 477.568L829.499 455.467ZM816.289 518.61L840.165 519.698L809.387 507.841L808.826 508.578V508.367L795.353 522.399L816.256 518.505L816.289 518.61ZM792.909 495.914L793.999 521.978L808.562 506.613L798.952 464.518L792.909 495.914ZM710.351 368.19L696.283 362.121L705.298 389.553L710.351 368.19ZM705.001 392.745L680.861 399.761L722.338 441.471L705.001 392.745ZM734.227 459.817L724.683 446.242L726.466 489.88L734.227 459.817ZM726.73 496.791V497.423L726.268 496.475L722.404 521.487L738.85 515.909L726.73 496.791ZM694.169 514.822L705.067 487.179L695.986 504.368L694.169 514.822ZM690.537 429.789L710.615 475.919L723.263 490.231L682.875 407.233L690.537 429.789ZM629.213 379.275L667.255 394.043L612.239 365.98L629.213 379.275ZM589.089 337.18L539.29 340.688L563.826 349.808L589.089 337.18ZM534.7 341.109L496.69 348.756H530.077L534.7 341.109ZM484.934 351.632L452.637 360.893L465.516 366.997L484.934 351.632ZM448.245 344.616L462.115 264.811L442.598 341.986L448.245 344.616ZM425.129 314.168L432.889 351.211L440.881 341.986L425.129 314.168ZM432.262 354.614L417.963 382.678L439.494 417.196L437.612 381.169L432.262 354.614ZM457.822 444.523L441.112 421.932L444.943 464.834L457.822 444.523ZM406.537 488.232L416.212 492.617L442.631 467.43L413.472 471.464V472.656V472.867L406.537 488.232ZM405.81 409.829L412.712 466.693L416.576 384.537L416.279 383.625C416.233 383.462 416.244 383.286 416.311 383.131C416.378 382.976 416.495 382.852 416.642 382.783L384.279 354.719H383.387L405.81 409.829ZM326.191 306.59L380.316 351.352L357.2 306.871C357.101 306.878 357.002 306.856 356.914 306.806C356.827 306.757 356.754 306.682 356.705 306.59C356.667 306.515 356.647 306.43 356.647 306.345C356.647 306.259 356.667 306.175 356.705 306.099L297.824 278.422L326.191 306.59ZM293.432 275.51L275.104 235.134L284.483 276.352L293.432 275.51ZM283.129 277.65L246.803 271.581L281.742 283.929L283.129 277.65ZM256.248 311.256L290.328 309.537L281.742 285.648L256.248 311.256ZM237.59 342.442L276.92 334.724L225.899 322.06L224.942 322.376L224.413 329.392L237.59 342.442ZM157.343 268.775L145.389 229.486L146.512 257.023L157.343 268.775ZM54.7729 225.908L104.803 217.278L79.7054 214.507H79.012C78.9008 214.59 78.7682 214.634 78.6323 214.634C78.4963 214.634 78.3636 214.59 78.2524 214.507L34.8268 221.838L54.7729 225.908Z" fill="url(#paint0_radial_228_1663)"/>
</g>
<g style="mix-blend-mode:overlay">
<path d="M6.25232 158.479L38.2518 206.643L75.0728 202.328L100.765 193.243L142.011 168.933L145.809 141.22L185.734 57.5907L185.932 57.1698L197.358 58.7484L199.339 49.6277L218.724 60.5725L239.628 30.4042L239.099 30.0534L240.024 29.8429L242.534 26.8612L316.142 -15.7954L363.63 -52.699L364.224 -53.155C364.394 -53.2255 364.583 -53.2255 364.753 -53.155L419.637 -65.1873L471.913 44.8569L548.263 72.9205L549.98 73.2011L493.543 111.017L501.304 133.678C501.304 133.678 501.304 133.678 501.304 133.853L506.488 195.277L532.313 212.537L620.452 199.627L619.89 199.241H620.65L587.627 162.022C587.61 161.941 587.61 161.857 587.627 161.777C587.755 161.728 587.895 161.728 588.023 161.777L604.535 161.496L582.97 111.473L521.283 126.241L514.282 112.49C514.205 112.329 514.186 112.144 514.228 111.97C514.271 111.795 514.372 111.643 514.513 111.543C514.664 111.461 514.839 111.44 515.003 111.486C515.167 111.531 515.31 111.639 515.405 111.788L522.009 123.645L583.301 108.982H583.631L605.657 160.093L620.088 159.847L665.198 159.321L596.411 116.068L604.27 100.282C604.355 100.12 604.493 99.9981 604.658 99.9396C604.823 99.8811 605.003 99.8908 605.162 99.9667C605.315 100.056 605.428 100.205 605.478 100.383C605.527 100.56 605.509 100.751 605.426 100.914L598.128 115.542L667.543 159.321H667.84C667.921 159.193 668.04 159.099 668.179 159.054C668.317 159.01 668.466 159.017 668.6 159.076L669.656 159.497L691.947 161.847H692.244H695.117L745.973 144.097L746.435 143.851L778.93 189.84L806.472 182.474C806.638 182.43 806.814 182.457 806.961 182.549C807.109 182.641 807.218 182.79 807.264 182.965C807.284 183.054 807.287 183.148 807.272 183.238C807.258 183.329 807.227 183.416 807.181 183.495C807.135 183.573 807.075 183.641 807.004 183.694C806.933 183.748 806.854 183.786 806.769 183.807L779.327 191.138L784.676 278.135C784.695 278.216 784.695 278.3 784.676 278.381L818.096 292.623C818.258 292.693 818.387 292.828 818.455 292.999C818.523 293.17 818.525 293.363 818.459 293.535C818.414 293.656 818.337 293.76 818.238 293.834C818.138 293.909 818.02 293.951 817.898 293.956H817.634L783.818 279.924H783.62H783.322L781.869 279.117H781.539L778.039 255.053L767.471 209.239L739.17 180.439L710.77 188.086L711.332 188.718C711.42 188.845 711.468 188.998 711.468 189.156C711.468 189.314 711.42 189.468 711.332 189.595L721.569 210.292C721.725 210.368 721.846 210.506 721.908 210.676C721.97 210.847 721.967 211.036 721.899 211.204C721.858 211.327 721.782 211.434 721.682 211.509C721.581 211.584 721.461 211.625 721.338 211.625H720.975L711.068 232.076V232.567L720.578 235.022L724.805 250.142C724.835 250.233 724.835 250.332 724.805 250.422L738.84 303.708L808.684 356.327L826.154 354.047C826.24 354.037 826.328 354.046 826.412 354.073C826.495 354.099 826.573 354.143 826.641 354.202C826.708 354.26 826.764 354.333 826.805 354.415C826.846 354.496 826.872 354.586 826.88 354.678C826.891 354.858 826.84 355.035 826.737 355.177C826.633 355.319 826.485 355.416 826.319 355.45L809.246 357.625L795.772 409.016L835.4 460.373L829.951 474.72L849.039 474.334L834.674 487.349L849.336 522.849L808.552 528.813L799.603 525.305L786.691 524.393L803.401 510.571L810.567 475.738L811.921 464.723L803.037 434.835L790.852 413.787L765.952 393.722L771.104 369.763L755.748 347.171C755.71 347.09 755.69 347 755.69 346.908C755.69 346.817 755.71 346.727 755.748 346.645L703.769 340.226L677.714 371.025L716.318 408.385L716.648 408.701L702.515 452.69L738.114 457.216L720.347 434.168C720.288 434.106 720.241 434.033 720.21 433.951C720.178 433.87 720.161 433.783 720.161 433.695C720.161 433.607 720.178 433.52 720.21 433.438C720.241 433.357 720.288 433.283 720.347 433.221C720.471 433.093 720.637 433.021 720.809 433.021C720.982 433.021 721.148 433.093 721.272 433.221L740.359 457.987L731.773 473.247L731.245 490.085L731.443 490.366L742.803 520.779L698.221 526.918L687.225 518.92L704.793 482.052L701.491 454.865V454.514L701.26 453.778L700.764 452.199L675.898 404.596L641.091 395.09C640.92 395.043 640.774 394.927 640.684 394.766C640.595 394.604 640.569 394.412 640.612 394.23C640.656 394.049 640.766 393.894 640.918 393.798C641.07 393.703 641.251 393.675 641.422 393.722L675.667 403.123V371.973C675.651 371.903 675.651 371.831 675.667 371.762L645.781 374.674C645.737 374.755 645.674 374.823 645.599 374.872C645.524 374.921 645.439 374.949 645.351 374.954H645.087C645.011 374.97 644.932 374.97 644.856 374.954C644.71 374.919 644.58 374.832 644.486 374.708C644.393 374.584 644.342 374.429 644.342 374.27C644.342 374.111 644.393 373.957 644.486 373.833C644.58 373.708 644.71 373.622 644.856 373.586L605.228 325.352L604.369 324.124L579.767 309.391L594.165 340.577V341.208L594.562 342.085L599.845 363.518L615.696 358.502L633.793 371.446C633.935 371.547 634.034 371.701 634.071 371.878C634.108 372.054 634.079 372.239 633.991 372.394C633.936 372.489 633.858 372.568 633.765 372.624C633.673 372.679 633.569 372.708 633.463 372.709C633.332 372.741 633.197 372.741 633.067 372.709L615.465 360.116L598.954 365.343L593.274 342.366L557.906 353.17L538.323 344.891C538.264 344.99 538.185 345.074 538.092 345.137L490.968 371.832L487.665 382.356C487.624 382.489 487.544 382.604 487.437 382.686C487.331 382.768 487.202 382.812 487.071 382.812H486.84C486.755 382.789 486.676 382.746 486.607 382.688C486.539 382.63 486.482 382.557 486.442 382.475C486.401 382.392 486.378 382.301 486.372 382.209C486.367 382.116 486.38 382.022 486.41 381.935L489.713 371.411V371.131H489.944L535.45 344.856L469.403 340.015H469.172L448.467 338.191L444.999 347.768L435.092 372.955L435.588 373.867H435.125L444.372 418.909L460.157 445.078L460.421 445.499C460.471 445.658 460.471 445.831 460.421 445.99L461.643 453.988L448.07 468.792L451.538 493.067L409.268 495.873H408.905L403.159 487.524L403.324 487.138L409.928 470.16V451.778L398.536 398.668L371.655 349.557C371.542 349.484 371.449 349.38 371.385 349.257C371.322 349.134 371.289 348.996 371.291 348.855L370.763 347.908L290.285 278.731L290.021 279.188V278.837L286.422 282.66L286.818 292.868L287.511 295.64L291.639 308.619L289.79 326.404L272.651 340.612H272.486L230.711 345.242L230.48 344.891L220.969 327.878L220.54 317.354L182.795 273.014L152.743 271.751L152.545 271.54C148.709 266.947 145.878 261.508 144.256 255.614C142.87 248.598 140.954 228.077 140.525 224.428L134.713 223.762C134.713 223.762 134.713 223.762 134.482 223.762H134.283L116.154 221.727L46.4746 228.743L29.5667 222.71L1.00153 151.814L6.25232 158.479ZM37.6244 208.117L16.1592 175.808L42.0495 217.413L71.0439 204.188L37.6244 208.117ZM101.491 194.401L75.6342 203.556L44.229 217.869L59.7499 220.5L77.4504 212.993L120.843 183L101.491 194.401ZM79.8941 212.958L109.153 213.414L115.956 210.783L132.005 176.861L79.8941 212.958ZM118.003 209.73L137.817 197.768L152.644 190.752L134.316 175.668L118.003 209.73ZM153.998 190.331L161.924 190.822L148.252 174.861L135.604 175.212L153.998 190.331ZM143.266 169.845L136.661 173.844L147.724 173.353L145.941 164.443L143.431 169.494L143.266 169.845ZM197.259 160.444L190.654 154.726L172.822 174.019L197.259 160.444ZM178.535 172.511L192.669 166.618L217.601 163.11L206.836 160.163L198.613 161.18L178.535 172.511ZM411.613 468.406L423.237 446.13H423.006L423.567 445.394L409.235 414.173L411.679 451.673L411.613 468.406ZM424.195 443.5L433.54 374.814L409.103 410.7L424.195 443.5ZM425.053 446.727L426.803 468.967L457.713 446.446L425.119 446.13L425.053 446.727ZM395.332 -29.3361H395.002L367.923 -3.06159H390.015L395.332 -29.3361ZM391.667 -4.78048L407.221 -22.7762L396.686 -29.5816L391.667 -4.78048ZM277.01 96.9499L279.289 122.663L310.066 109.543L277.01 96.9499ZM308.514 107.474L295.602 96.4237H279.289L308.514 107.474ZM296.064 95.0205L312.015 108.737L320.535 104.808L316.506 87.7941L316.341 86.9873V86.6365V86.1805L319.313 47.5931L264.263 47.0669L260.003 83.9354L276.515 94.9153L296.064 95.0205ZM413.231 171.003L419.571 172.195L421.057 143.22L419.274 112.806L408.211 153.884L412.405 170.652L413.759 170.371L413.231 171.003ZM435.456 291.115L457.185 288.975L412.24 265.963L404.447 276.241L435.456 291.115ZM406.626 278.802L418.515 290.939C418.617 290.942 418.717 290.968 418.808 291.017C418.9 291.065 418.98 291.135 419.043 291.22L419.538 291.956L419.703 292.167L432.582 291.29L406.626 278.802ZM411.084 265.296L377.335 267.927L403.159 275.68L411.084 265.296ZM413.462 263.717L496.615 225.13L456.656 199.698L444.207 201.241L402.003 244.283H401.838L368.55 246.704L374.891 266.383L374.296 266.629L413.462 263.717ZM327.106 82.9532L318.487 86.4611L338.598 97.7918L362.804 99.4054L328.922 82.7778L326.842 83.1637L327.106 82.9532ZM327.833 81.1641L320.403 49.3822L317.661 85.4438L327.833 81.1641ZM317.926 87.8292L321.856 104.457L366.965 102.633L365.875 101.124L338.367 99.2651L317.926 87.8292ZM366.404 99.6861L369.376 102.913V103.755L363.267 153.603L390.115 113.718L405.668 96.7394L409.697 66.7114L331.003 82.0762L366.404 99.6861ZM398.304 145.289V145.605L407.121 152.621L418.878 108.947L406.461 98.4232L391.7 114.56L397.908 143.746C398.035 143.804 398.141 143.903 398.212 144.029C398.284 144.155 398.316 144.301 398.304 144.447V145.289ZM390.709 115.998L363.762 156.059H364.092L395.398 166.091L397.016 145.289L390.709 115.998ZM407.221 97.1954L419.736 107.719L426.572 101.019L411.084 68.3952L407.221 97.1954ZM444.735 199.873L456.095 198.505L452.793 169.073C449.094 182.053 445.296 196.119 444.768 199.768L444.735 199.873ZM452.958 164.793L477.395 125.715L427.695 139.01L452.958 164.793ZM440.904 154.27L441.928 161.286L443.282 173.774L452.198 165.706L440.904 154.27ZM477.23 124.136L453.783 103.65L427.86 102.036L426.969 137.607L477.23 124.136ZM439.286 152.726L426.275 139.431L422.576 143.185L440.31 159.917L439.286 152.902V152.726ZM425.747 138.273L426.605 103.194L420.364 109.333L422.279 141.957L425.747 138.273ZM427.728 100.738L452.099 102.247L412.471 68.8162L427.728 100.738ZM454.378 102.387L477.956 122.803L473.498 90.2848L414.089 68.1146L454.378 102.387ZM479.343 124.242L486.807 133.432L475.678 97.6164L479.343 124.242ZM480.037 127.188L488.062 161.075L488.359 138.729L487.731 136.695L480.037 127.188ZM478.485 126.346L453.949 165.53C453.965 165.623 453.965 165.718 453.949 165.811L484.066 200.224L487.863 166.337L478.485 126.346ZM484.066 202.118L453.915 167.74L457.416 198.68L497.044 223.867L484.066 202.118ZM451.538 168.056L443.084 175.703L435.621 184.333C436.842 186.262 441.565 193.559 443.645 197.663C445.164 191.173 449.556 175.563 451.538 168.056ZM441.961 175.072L440.574 162.163L422.147 144.623L420.727 172.686L434.696 183.21L441.961 175.072ZM406.857 154.375L398.04 147.184L396.488 166.583L410.853 170.582L406.857 154.375ZM395.101 167.635L363.663 157.637H363.036L323.011 188.402L408.872 171.423L395.101 167.635ZM368.022 105.439L326.545 139.291L362.045 155.252L368.022 105.439ZM367.494 104.106L321.955 105.93L326.215 137.817L367.494 104.106ZM320.7 106.281L313.6 109.543L312.609 109.964L324.53 135.327L320.7 106.281ZM275.623 97.5813L239.297 123.891L277.869 123.049L275.623 97.5813ZM273.609 125.996L208.817 146.342L228.862 153.708L273.609 125.996ZM230.282 154.41L247.817 162.829L275.986 126.031L230.282 154.41ZM273.84 124.417L237.514 125.224L207.529 135.748L185.734 149.464L206.67 145.605L273.84 124.417ZM182.729 149.639L206.769 134.52L232.197 125.575L180.351 129.083L182.729 149.639ZM179.096 129.714L154.923 147.85L181.342 150.025L179.096 129.714ZM156.706 161.075L190.126 153.217L182.233 151.498L156.706 161.075ZM234.905 123.996L208.982 109.719H208.685L182.266 127.539L234.905 123.996ZM237.25 123.715L274.599 96.6342L211.062 109.298L237.25 123.715ZM274.5 95.2661L259.31 85.058L213.308 107.439L274.5 95.2661ZM262.81 47.4528L221.3 62.0107L258.847 83.0584L262.81 47.4528ZM264.428 45.5585L319.808 45.7339C319.896 45.6067 320.026 45.5191 320.171 45.4883C320.307 45.4569 320.449 45.4743 320.575 45.5378C320.7 45.6013 320.802 45.7073 320.865 45.8391L328.956 80.5327L389.388 10.8299L369.904 8.02351C369.819 8.05874 369.725 8.05874 369.64 8.02351C369.546 7.94717 369.468 7.85178 369.409 7.74288L387.142 -0.570946H366.041L306.236 15.4954L305.575 15.6708C305.458 15.7197 305.328 15.7197 305.212 15.6708L242.633 30.7199L264.428 45.5585ZM389.916 9.49685V-1.27254L372.282 6.97113L389.916 9.49685ZM391.138 -27.1612L312.147 12.5488L366.041 -2.81603L391.138 -27.1612ZM393.549 -29.8974L350.916 -28.88L308.58 12.8294L393.549 -29.8974ZM390.346 11.9875L330.409 81.3746L409.664 65.8695L408.74 63.87L409.169 64.2558L390.346 11.9875ZM410.16 62.9228L410.688 44.5763L393.318 16.3023L410.16 62.9228ZM411.745 43.559L443.183 56.9944L393.318 13.6011L411.745 43.559ZM411.943 45.1376L411.348 65.3082L444.537 59.0641L411.943 45.1376ZM413.231 66.3606L471.649 88.1098L446.65 60.0463L413.231 66.3606ZM473.498 88.18L475.315 73.587L449.622 61.3442L473.498 88.18ZM475.48 72.1136L476.14 63.7296L451.075 60.5374L475.48 72.1136ZM476.371 75.832L474.621 89.6533L488.161 133.152L486.972 103.79L476.371 75.832ZM489.283 166.337L485.354 200.855L504.969 195.207L489.581 143.009L489.283 166.337ZM485.618 202.223L498.101 223.271L504.705 196.821L485.618 202.223ZM498.068 226.779C498.068 226.779 498.068 226.779 497.869 226.779C497.721 226.715 497.594 226.605 497.506 226.463L414.717 264.559L517.816 273.329L498.431 226.533C498.322 226.605 498.196 226.642 498.068 226.639V226.779ZM415.509 266.243L459.562 288.764L517.353 274.732L415.509 266.243ZM459.496 290.448L445.362 300.13L481.259 314.618L459.496 290.448ZM457.02 290.448L436.909 292.448L443.975 299.463L457.02 290.448ZM435.026 292.623L420.562 293.605L438.064 320.511L443.084 300.481L435.026 292.623ZM438.593 323.773L438.229 323.212L428.917 332.543L446.617 336.051L438.593 323.914V323.773ZM437.47 322.055L418.614 293.044L404.414 278.591L414.155 332.613L426.803 332.298H427.398L437.47 322.055ZM426.969 333.701L414.354 333.982L432.979 368.535L426.969 333.701ZM413.528 335.209L406.626 367.623L433.045 371.517L413.528 335.209ZM402.763 277.153L374.891 268.769L412.405 330.684L402.763 277.153ZM373.438 268.944L360.922 278.24L362.936 292.623L410.457 330.018L373.438 268.944ZM373.438 266.383L366.833 245.792L401.276 243.266L443.348 200.364C443.348 200.364 443.348 200.083 443.348 199.908C440.641 194.697 437.665 189.65 434.432 184.789L419.902 173.669L412.108 172.195L344.906 248.072L373.438 266.383ZM410.061 172.511L321.129 190.051L344.08 247.02L410.061 172.511ZM361.979 156.725L326.776 140.729L327.139 143.465L325.95 140.939L320.964 188.262L361.979 156.725ZM324.894 138.659L311.882 110.911L274.368 174.054L324.861 138.975L324.894 138.659ZM310.33 110.911L279.355 124.242L273.212 173.353L310.33 110.911ZM277.803 125.925L249.039 163.531L271.693 175.177L277.803 125.925ZM249.105 165.109L264.164 214.571L271.495 176.615L249.105 165.109ZM249.105 170.02L253.53 219.342L257.394 222.148L256.701 228.428L260.003 226.182L263.536 217.237L249.105 170.02ZM260.003 227.796L256.899 229.761L264.065 259.403L260.003 227.796ZM266.905 271.049L267.796 293.254L276.845 289.746L283.152 293.605L284.77 282.766L261.654 230.146L266.905 271.049ZM276.812 291.43L266.674 295.324L265.716 271.224L256.073 231.585L242.864 302.761L256.337 306.269L283.02 307.567V295.114L276.812 291.43ZM255.677 307.707L243.161 304.199L252.143 330.228L258.748 327.176L255.677 307.707ZM260.003 327.106L261.456 327.527L263.966 319.143L257.361 309.777L260.003 327.106ZM241.411 303.533L228.796 278.977L236.127 323.177L250.525 330.193L241.411 303.533ZM241.708 301.217L253.828 236.005L248.214 249.58L243.062 252.141L243.689 256.21L240.189 261.578L235.169 256.702L227.013 259.262L228.202 274.627L241.708 301.217ZM235.401 255.123L239.859 259.508L242.303 256L241.642 251.44L247.223 248.668L254.917 230.041L255.974 223.025L253.068 220.921L241.642 237.618L231.471 238.109V250.773L218.691 249.826L232.561 256.281L235.401 255.123ZM231.075 236.531L240.982 236.075L251.912 220.114L217.436 208.432L218.229 223.131L231.075 236.531ZM217.37 206.854L252.176 218.746L247.355 165.004L216.214 187.174L217.271 206.784L217.37 206.854ZM231.9 174.335L246.166 164.197L230.282 161.566L231.9 174.335ZM243.491 162.338L228.73 155.112L206.67 147.008L185.8 150.832L229.258 160.268C229.328 160.187 229.416 160.124 229.514 160.088C229.612 160.051 229.717 160.041 229.82 160.058L243.491 162.338ZM188.772 154.971L147.988 164.583L169.09 176.229L188.772 154.971ZM179.162 151.218L153.536 149.148L146.337 163.531L179.162 151.218ZM147.195 141.536L143.893 165.495L152.644 147.955L179.063 128.171V127.75L185.238 61.5898L147.195 141.536ZM180.483 127.118L207.166 109.122L189.003 97.0551L193.527 76.0074L186.625 60.362L180.483 127.118ZM207.661 107.754L194.452 78.0771L190.489 96.4237L207.661 107.754ZM187.418 58.6431L194.022 73.7624L196.995 59.9762L187.418 58.6431ZM200.264 51.6272L198.679 58.8536L217.667 61.4495L200.264 51.6272ZM218.79 62.8176V62.993L198.547 60.1866L195.244 75.832L209.411 107.895L258.154 84.1459L219.847 62.5369L218.79 62.8176ZM220.111 60.9233L262.744 45.9795L240.75 31.1058L220.111 60.9233ZM243.491 27.8434L242.236 29.3167L304.981 14.2326L315.218 -13.831L243.491 27.8434ZM317.001 -14.7781L307.094 12.3383L350.024 -30.1078L362.375 -49.9277L317.001 -14.7781ZM364.786 -51.4361L351.775 -30.3885L394.309 -31.4408L364.852 -51.7168L364.786 -51.4361ZM366.305 -52.2429L396.686 -31.1953C396.781 -31.1141 396.85 -31.0039 396.884 -30.8796L407.815 -23.8637L418.515 -63.5385L366.305 -52.2429ZM419.34 -61.3636L409.037 -23.0919H409.301L391.237 -2.04428V9.95288L445.825 57.5907L419.34 -61.3636ZM470.856 45.6637L421.322 -58.873L447.542 58.7484L476.041 62.2563L470.856 45.6637ZM472.475 46.5056L477.329 62.5369L541.658 71.833L472.475 46.5056ZM546.248 73.9027L478.254 64.0804L489.118 80.1468L493.246 109.438L546.248 73.9027ZM491.958 110.21L487.863 80.673L477.329 65.0977L476.735 72.7802V73.0958L488.227 103.404L494.831 118.559L491.958 110.21ZM500.049 133.889L488.359 107.018L489.647 138.273V138.589L504.771 189.84L500.049 133.889ZM506.422 196.646H506.158L499.355 223.902L530.397 212.326L506.422 196.646ZM499.355 225.481L518.674 271.926L531.421 213.589L499.355 225.481ZM533.237 213.589L551.103 245.476L619.296 201.066L533.237 213.589ZM605.129 161.847L589.674 162.092L619.956 196.365L605.129 161.847ZM619.758 161.636L606.549 161.847L621.442 196.33L619.758 161.636ZM682.701 222.99L680.983 240.776L696.835 287.501L682.701 222.99ZM700.467 298.025L709.879 232.076V231.725L683.196 218.5V218.711L700.467 298.025ZM681.941 218.956L681.578 217.342L679.629 210.327L680.719 232.041L681.941 218.956ZM682.833 216.851L709.582 230.146L703.67 203.767L687.159 196.751L679.398 202.96V204.047L682.833 216.851ZM685.739 196.084L644.361 178.334L678.308 202.153L685.739 196.084ZM678.044 204.433V203.942L624.745 200.89L679.563 239.478L679.762 239.267L678.044 204.433ZM676.426 202.469L638.747 176.054L623.49 199.452L676.426 202.469ZM637.69 175.247L621.178 162.478L622.829 197.908L637.69 175.247ZM667.147 160.794L622.334 161.742L638.846 174.475L686.994 194.997C687.119 194.965 687.251 194.971 687.373 195.015C687.496 195.058 687.604 195.137 687.687 195.242L704.001 202.258C704.133 202.229 704.27 202.244 704.394 202.301C704.518 202.357 704.623 202.452 704.694 202.574L717.606 208.117L667.147 160.794ZM695.415 163.46H695.183H693.697L674.115 161.391L695.91 170.546L737.684 148.517L695.415 163.46ZM768.561 208.082L779.228 254.316L782.53 277.679L783.091 277.925L778.006 190.893L747.624 147.885L768.561 208.082ZM739.501 178.474L766.381 205.871L745.907 147.429L738.807 178.65L739.501 178.474ZM737.387 179.036L744.85 146.272L697.297 171.353C697.361 171.522 697.361 171.711 697.297 171.88C697.255 171.979 697.191 172.066 697.111 172.134C697.03 172.201 696.935 172.246 696.835 172.265L709.615 186.508L737.387 179.036ZM709.35 188.156L694.226 171.353L669.26 160.83L719.026 207.661L709.35 188.156ZM719.852 210.642L705.024 204.293L710.737 229.725L719.852 210.642ZM719.852 235.724L711.134 233.479L701.887 298.306L712.884 282.31L724.31 251.72L719.852 235.724ZM702.052 300.411L736.198 303.252L713.577 283.608L702.052 300.411ZM724.937 254.036L714.304 282.555L737.09 302.375L724.937 254.036ZM817.039 500.96V501.486L824.073 495.136L817.039 500.96ZM825.031 492.576L816.61 481.491L817.006 499.206L825.031 492.576ZM816.544 479.105L826.055 491.628L832.659 486.086L828.498 476.053L813.076 476.334L816.544 479.105ZM845.241 475.843L829.984 476.123L833.782 485.314L845.241 475.843ZM833.584 488.331L827.574 493.768L845.769 517.798L833.584 488.331ZM826.583 494.645L817.105 503.099V504.538L846.001 520.218L826.583 494.645ZM846.1 521.937L816.841 506.081L809.576 527.129L846.1 521.937ZM815.817 504.397L811.689 508.151L815.817 504.643V504.397ZM790.158 523.165L799.273 523.796L802.047 517.061L802.443 515.132V514.886L802.872 512.887L790.158 523.165ZM800.561 524.182L808.189 527.234L815.124 507.099L803.764 516.324L800.561 524.182ZM804.16 513.132L815.784 502.608V501.977L804.589 511.273L804.16 513.132ZM804.887 509.063L815.619 500.153L815.157 479.702L811.524 476.86L804.887 509.063ZM811.822 475.001L826.748 474.685L812.977 465.635L811.822 475.001ZM803.731 433.502L804.061 433.993L813.01 464.021L828.531 474.264L833.749 460.548L796.829 412.665L803.764 433.011C803.834 433.163 803.857 433.335 803.83 433.502H803.731ZM791.842 412.875L800.792 428.38L794.352 409.437L794.187 409.262L807.727 357.765L772.788 362.256L789.3 398.387C789.348 398.523 789.348 398.673 789.3 398.808L791.842 412.875ZM772.392 364.571V369.271L782.728 386.811L772.392 364.571ZM767.273 392.985L790.389 411.542L788.243 398.949L772.028 371.236L767.273 392.985ZM771.038 367.377V361.975L758.654 348.75L771.038 367.377ZM757.102 345.488L772.028 360.958L806.637 356.503L739.798 306.199L757.102 345.488ZM755.484 345.102L737.948 305.287L704.925 338.437C704.893 338.59 704.812 338.727 704.694 338.823L755.484 345.102ZM704.1 337.49L736.628 304.69L701.491 301.744L704.1 337.49ZM700.137 301.288C699.976 301.186 699.857 301.023 699.807 300.831L699.443 299.042L684.088 253.755L702.515 332.368L700.137 301.288ZM702.515 338.226L680.092 242.073L636.765 315.74L702.515 338.226ZM678.209 242.635L606.384 322.265L635.147 315.6C635.237 315.409 635.39 315.259 635.576 315.179L678.209 242.635ZM740.954 519.762L730.419 491.699L700.104 525.515L740.954 519.762ZM688.876 518.57L697.792 525.059L703.935 486.472L688.876 518.57ZM705.982 482.262L699.377 524.358L729.891 490.296L702.812 456.514L705.982 482.262ZM730.056 488.506L730.551 472.791L738.543 458.759L702.548 454.164L730.056 488.506ZM701.491 451.392L714.964 408.946L678.011 373.306L701.491 451.392ZM676.525 403.649L698.288 445.289L676.723 373.306L676.525 403.649ZM676.162 370.113L701.359 340.331L647.333 372.92L676.162 370.113ZM645.715 372.323L700.731 339.103L636.468 317.179L645.715 372.323ZM644.162 371.025L635.147 317.179L605.69 323.984L644.162 371.025ZM678.54 240.355L623.82 201.767L624.514 203.416L622.73 201.346L605.426 321.353L678.54 240.355ZM604.072 321.739L621.409 201.416L551.829 246.669L604.072 321.739ZM602.124 321.283L554.306 252.597L578.743 307.497H579.074L602.124 321.283ZM557.708 351.521L588.089 342.225L540.569 344.26L557.708 351.521ZM592.448 340.647L578.182 309.707L539.512 342.892L592.448 340.647ZM537.332 342.927L577.488 308.444C577.44 308.308 577.44 308.158 577.488 308.023L550.277 246.879L532.412 214.992L519.5 274.101L519.863 274.978H519.103L518.311 276.171L461.511 289.817L461.94 290.027H460.949L484.066 316.091L485.387 326.159L537.332 342.927ZM531.784 342.576L485.089 327.422L471.154 337.946L531.784 342.576ZM469.04 337.946L484.165 326.334L483.009 317.459L450.25 336.297L469.04 337.946ZM481.985 316.477L444.24 301.077L438.989 321.914L448.202 335.946L481.985 316.477ZM447.113 337.314L430.601 334.157L444.537 344.891L447.113 337.314ZM443.81 346.224L428.289 334.262L434.597 369.798L443.81 346.224ZM434.3 376.708L425.317 442.623L443.084 418.909L434.3 376.708ZM443.513 420.417L425.383 444.762L458.407 445.078L443.513 420.417ZM460.025 453.637L459.199 447.99L450.349 464.161L460.025 453.637ZM457.812 447.779L428.091 469.353L446.617 467.985L457.812 447.779ZM446.617 469.388L427.497 470.791L449.821 491.418L446.617 469.388ZM425.879 471.177L414.882 482.648L415.575 487.208L447.773 491.348L425.879 471.177ZM409.367 494.47L443.48 492.19L414.981 488.682L405.074 488.366L409.367 494.47ZM410.688 472.265C410.653 472.339 410.601 472.402 410.538 472.451C410.475 472.5 410.402 472.532 410.325 472.545L404.711 486.823L414.255 487.138L413.495 482.157L425.119 470.265L425.515 469.984L423.798 447.884L410.688 472.265ZM408.475 408.666L432.88 372.814L406.296 368.921L408.475 408.666ZM409.4 442.903L407.32 410.876L400.484 401.369L409.4 442.903ZM399.757 398.072L407.452 408.385L405.272 368.675H405.107V368.43L374.131 350.89L399.757 398.072ZM405.305 367.061L412.24 334.297L373.537 348.75L405.305 367.061ZM372.282 347.242L372.612 347.803L412.24 332.929L363.432 294.517L372.282 347.242ZM291.243 275.259L291.507 276.872V277.644L370.598 345.593L361.748 292.974L359.502 277.188L372.711 267.26L343.783 248.844L343.453 249.195L319.577 189.98H319.445C319.358 189.976 319.273 189.953 319.194 189.914C319.116 189.874 319.045 189.819 318.987 189.75C318.929 189.682 318.884 189.602 318.855 189.515C318.826 189.428 318.813 189.336 318.817 189.244C318.818 189.127 318.849 189.013 318.908 188.914C318.966 188.814 319.049 188.735 319.148 188.683V188.367H319.577L324.629 140.448L272.915 176.229L291.243 275.259ZM272.288 179.737L265.055 217.202L289.724 274.276L272.288 179.737ZM289.724 277.539L264.329 218.956L261.357 226.463C261.495 226.535 261.601 226.661 261.654 226.814L285.629 281.398L289.724 277.539ZM290.285 308.759L286.223 296.026L285.497 293.149L285.332 289.185L284.473 294.938V308.163L289.724 313.881L290.285 308.759ZM287.544 326.475L273.014 324.3V338.647L287.544 326.475ZM272.585 322.967L288.568 325.387L289.559 315.81L283.482 309.286L257.724 308.023L265.32 318.547L272.585 322.967ZM271.561 339.594V324.054L265.122 320.16L262.612 328.439L267.962 339.98L271.561 339.594ZM266.773 340.12L261.621 329.07L259.673 328.544L252.176 332.052L233.948 343.839L266.773 340.12ZM222.257 327.702L231.273 343.769L250.36 331.21L235.401 324.194L221.861 318.196L222.257 327.702ZM145.544 255.439C147.084 260.996 149.744 266.131 153.338 270.488L181.573 271.681L141.945 226.077C142.539 231.865 144.422 249.054 145.544 255.439ZM141.714 223.271V223.587L183.422 271.751V271.961L221.399 316.582L233.65 321.984L174.374 232.392C174.315 232.33 174.268 232.256 174.236 232.175C174.204 232.093 174.188 232.006 174.188 231.918C174.188 231.83 174.204 231.743 174.236 231.661C174.268 231.58 174.315 231.506 174.374 231.444C174.497 231.316 174.663 231.244 174.836 231.244C175.009 231.244 175.175 231.316 175.298 231.444L234.476 320.686L226.98 275.083C226.962 274.979 226.962 274.872 226.98 274.768L225.725 259.157V258.35L230.711 256.772L211.327 247.756L230.282 249.195V237.618L217.304 224.078L216.974 223.727L216.148 208.117L172.954 212.326L172.029 211.905C172.013 211.836 172.013 211.764 172.029 211.695L198.216 185.245L216.445 186.473L230.975 175.949L229.258 162.373L191.612 154.199L198.712 160.584L207.034 159.567L224.569 164.337L193.164 168.687L169.354 178.58L147.592 166.583L149.177 174.546L163.41 191.208C163.505 191.318 163.558 191.462 163.558 191.612C163.558 191.761 163.505 191.905 163.41 192.015C163.434 192.07 163.446 192.13 163.446 192.191C163.446 192.251 163.434 192.311 163.41 192.366C163.41 192.533 163.347 192.694 163.236 192.812C163.124 192.931 162.973 192.997 162.816 192.997L153.866 192.471L138.841 199.487L135.538 223.341L141.714 223.271ZM174.935 210.607L216.016 206.643L214.992 187.35L174.935 210.607ZM213.341 186.648L198.481 185.666L175.794 208.432L213.341 186.648ZM137.388 199.522L116.913 211.975L111.266 214.15L134.019 222.464L137.388 199.522ZM46.8049 227.586L116.154 220.57L128.504 221.973L109.12 214.957L77.8798 214.431L59.882 222.078L43.0402 219.202L46.8049 227.586ZM30.2932 221.868L45.0546 227.13L41.2239 218.675L6.48346 162.548L30.2932 221.868Z" fill="url(#paint1_radial_228_1663)"/>
</g>
<path d="M6.25232 158.479L38.2518 206.643L75.0728 202.328L100.765 193.243L142.011 168.933L145.809 141.22L185.734 57.5907L185.932 57.1698L197.358 58.7484L199.339 49.6277L218.724 60.5725L239.628 30.4042L239.099 30.0534L240.024 29.8429L242.534 26.8612L316.142 -15.7954L363.63 -52.699L364.224 -53.155C364.394 -53.2255 364.583 -53.2255 364.753 -53.155L419.637 -65.1873L471.913 44.8569L548.263 72.9205L549.98 73.2011L493.543 111.017L501.304 133.678C501.304 133.678 501.304 133.678 501.304 133.853L506.488 195.277L532.313 212.537L620.452 199.627L619.89 199.241H620.65L587.627 162.022C587.61 161.941 587.61 161.857 587.627 161.777C587.755 161.728 587.895 161.728 588.023 161.777L604.535 161.496L582.97 111.473L521.283 126.241L514.282 112.49C514.205 112.329 514.186 112.144 514.228 111.97C514.271 111.795 514.372 111.643 514.513 111.543C514.664 111.461 514.839 111.44 515.003 111.486C515.167 111.531 515.31 111.639 515.405 111.788L522.009 123.645L583.301 108.982H583.631L605.657 160.093L620.088 159.847L665.198 159.321L596.411 116.068L604.27 100.282C604.355 100.12 604.493 99.9981 604.658 99.9396C604.823 99.8811 605.003 99.8908 605.162 99.9667C605.315 100.056 605.428 100.205 605.478 100.383C605.527 100.56 605.509 100.751 605.426 100.914L598.128 115.542L667.543 159.321H667.84C667.921 159.193 668.04 159.099 668.179 159.054C668.317 159.01 668.466 159.017 668.6 159.076L669.656 159.497L691.947 161.847H692.244H695.117L745.973 144.097L746.435 143.851L778.93 189.84L806.472 182.474C806.638 182.43 806.814 182.457 806.961 182.549C807.109 182.641 807.218 182.79 807.264 182.965C807.284 183.054 807.287 183.148 807.272 183.238C807.258 183.329 807.227 183.416 807.181 183.495C807.135 183.573 807.075 183.641 807.004 183.694C806.933 183.748 806.854 183.786 806.769 183.807L779.327 191.138L784.676 278.135C784.695 278.216 784.695 278.3 784.676 278.381L818.096 292.623C818.258 292.693 818.387 292.828 818.455 292.999C818.523 293.17 818.525 293.363 818.459 293.535C818.414 293.656 818.337 293.76 818.238 293.834C818.138 293.909 818.02 293.951 817.898 293.956H817.634L783.818 279.924H783.62H783.322L781.869 279.117H781.539L778.039 255.053L767.471 209.239L739.17 180.439L710.77 188.086L711.332 188.718C711.42 188.845 711.468 188.998 711.468 189.156C711.468 189.314 711.42 189.468 711.332 189.595L721.569 210.292C721.725 210.368 721.846 210.506 721.908 210.676C721.97 210.847 721.967 211.036 721.899 211.204C721.858 211.327 721.782 211.434 721.682 211.509C721.581 211.584 721.461 211.625 721.338 211.625H720.975L711.068 232.076V232.567L720.578 235.022L724.805 250.142C724.835 250.233 724.835 250.332 724.805 250.422L738.84 303.708L808.684 356.327L826.154 354.047C826.24 354.037 826.328 354.046 826.412 354.073C826.495 354.099 826.573 354.143 826.641 354.202C826.708 354.26 826.764 354.333 826.805 354.415C826.846 354.496 826.872 354.586 826.88 354.678C826.891 354.858 826.84 355.035 826.737 355.177C826.633 355.319 826.485 355.416 826.319 355.45L809.246 357.625L795.772 409.016L835.4 460.373L829.951 474.72L849.039 474.334L834.674 487.349L849.336 522.849L808.552 528.813L799.603 525.305L786.691 524.393L803.401 510.571L810.567 475.738L811.921 464.723L803.037 434.835L790.852 413.787L765.952 393.722L771.104 369.763L755.748 347.171C755.71 347.09 755.69 347 755.69 346.908C755.69 346.817 755.71 346.727 755.748 346.645L703.769 340.226L677.714 371.025L716.318 408.385L716.648 408.701L702.515 452.69L738.114 457.216L720.347 434.168C720.288 434.106 720.241 434.033 720.21 433.951C720.178 433.87 720.161 433.783 720.161 433.695C720.161 433.607 720.178 433.52 720.21 433.438C720.241 433.357 720.288 433.283 720.347 433.221C720.471 433.093 720.637 433.021 720.809 433.021C720.982 433.021 721.148 433.093 721.272 433.221L740.359 457.987L731.773 473.247L731.245 490.085L731.443 490.366L742.803 520.779L698.221 526.918L687.225 518.92L704.793 482.052L701.491 454.865V454.514L701.26 453.778L700.764 452.199L675.898 404.596L641.091 395.09C640.92 395.043 640.774 394.927 640.684 394.766C640.595 394.604 640.569 394.412 640.612 394.23C640.656 394.049 640.766 393.894 640.918 393.798C641.07 393.703 641.251 393.675 641.422 393.722L675.667 403.123V371.973C675.651 371.903 675.651 371.831 675.667 371.762L645.781 374.674C645.737 374.755 645.674 374.823 645.599 374.872C645.524 374.921 645.439 374.949 645.351 374.954H645.087C645.011 374.97 644.932 374.97 644.856 374.954C644.71 374.919 644.58 374.832 644.486 374.708C644.393 374.584 644.342 374.429 644.342 374.27C644.342 374.111 644.393 373.957 644.486 373.833C644.58 373.708 644.71 373.622 644.856 373.586L605.228 325.352L604.369 324.124L579.767 309.391L594.165 340.577V341.208L594.562 342.085L599.845 363.518L615.696 358.502L633.793 371.446C633.935 371.547 634.034 371.701 634.071 371.878C634.108 372.054 634.079 372.239 633.991 372.394C633.936 372.489 633.858 372.568 633.765 372.624C633.673 372.679 633.569 372.708 633.463 372.709C633.332 372.741 633.197 372.741 633.067 372.709L615.465 360.116L598.954 365.343L593.274 342.366L557.906 353.17L538.323 344.891C538.264 344.99 538.185 345.074 538.092 345.137L490.968 371.832L487.665 382.356C487.624 382.489 487.544 382.604 487.437 382.686C487.331 382.768 487.202 382.812 487.071 382.812H486.84C486.755 382.789 486.676 382.746 486.607 382.688C486.539 382.63 486.482 382.557 486.442 382.475C486.401 382.392 486.378 382.301 486.372 382.209C486.367 382.116 486.38 382.022 486.41 381.935L489.713 371.411V371.131H489.944L535.45 344.856L469.403 340.015H469.172L448.467 338.191L444.999 347.768L435.092 372.955L435.588 373.867H435.125L444.372 418.909L460.157 445.078L460.421 445.499C460.471 445.658 460.471 445.831 460.421 445.99L461.643 453.988L448.07 468.792L451.538 493.067L409.268 495.873H408.905L403.159 487.524L403.324 487.138L409.928 470.16V451.778L398.536 398.668L371.655 349.557C371.542 349.484 371.449 349.38 371.385 349.257C371.322 349.134 371.289 348.996 371.291 348.855L370.763 347.908L290.285 278.731L290.021 279.188V278.837L286.422 282.66L286.818 292.868L287.511 295.64L291.639 308.619L289.79 326.404L272.651 340.612H272.486L230.711 345.242L230.48 344.891L220.969 327.878L220.54 317.354L182.795 273.014L152.743 271.751L152.545 271.54C148.709 266.947 145.878 261.508 144.256 255.614C142.87 248.598 140.954 228.077 140.525 224.428L134.713 223.762C134.713 223.762 134.713 223.762 134.482 223.762H134.283L116.154 221.727L46.4746 228.743L29.5667 222.71L1.00153 151.814L6.25232 158.479ZM37.6244 208.117L16.1592 175.808L42.0495 217.413L71.0439 204.188L37.6244 208.117ZM101.491 194.401L75.6342 203.556L44.229 217.869L59.7499 220.5L77.4504 212.993L120.843 183L101.491 194.401ZM79.8941 212.958L109.153 213.414L115.956 210.783L132.005 176.861L79.8941 212.958ZM118.003 209.73L137.817 197.768L152.644 190.752L134.316 175.668L118.003 209.73ZM153.998 190.331L161.924 190.822L148.252 174.861L135.604 175.212L153.998 190.331ZM143.266 169.845L136.661 173.844L147.724 173.353L145.941 164.443L143.431 169.494L143.266 169.845ZM197.259 160.444L190.654 154.726L172.822 174.019L197.259 160.444ZM178.535 172.511L192.669 166.618L217.601 163.11L206.836 160.163L198.613 161.18L178.535 172.511ZM411.613 468.406L423.237 446.13H423.006L423.567 445.394L409.235 414.173L411.679 451.673L411.613 468.406ZM424.195 443.5L433.54 374.814L409.103 410.7L424.195 443.5ZM425.053 446.727L426.803 468.967L457.713 446.446L425.119 446.13L425.053 446.727ZM395.332 -29.3361H395.002L367.923 -3.06159H390.015L395.332 -29.3361ZM391.667 -4.78048L407.221 -22.7762L396.686 -29.5816L391.667 -4.78048ZM277.01 96.9499L279.289 122.663L310.066 109.543L277.01 96.9499ZM308.514 107.474L295.602 96.4237H279.289L308.514 107.474ZM296.064 95.0205L312.015 108.737L320.535 104.808L316.506 87.7941L316.341 86.9873V86.6365V86.1805L319.313 47.5931L264.263 47.0669L260.003 83.9354L276.515 94.9153L296.064 95.0205ZM413.231 171.003L419.571 172.195L421.057 143.22L419.274 112.806L408.211 153.884L412.405 170.652L413.759 170.371L413.231 171.003ZM435.456 291.115L457.185 288.975L412.24 265.963L404.447 276.241L435.456 291.115ZM406.626 278.802L418.515 290.939C418.617 290.942 418.717 290.968 418.808 291.017C418.9 291.065 418.98 291.135 419.043 291.22L419.538 291.956L419.703 292.167L432.582 291.29L406.626 278.802ZM411.084 265.296L377.335 267.927L403.159 275.68L411.084 265.296ZM413.462 263.717L496.615 225.13L456.656 199.698L444.207 201.241L402.003 244.283H401.838L368.55 246.704L374.891 266.383L374.296 266.629L413.462 263.717ZM327.106 82.9532L318.487 86.4611L338.598 97.7918L362.804 99.4054L328.922 82.7778L326.842 83.1637L327.106 82.9532ZM327.833 81.1641L320.403 49.3822L317.661 85.4438L327.833 81.1641ZM317.926 87.8292L321.856 104.457L366.965 102.633L365.875 101.124L338.367 99.2651L317.926 87.8292ZM366.404 99.6861L369.376 102.913V103.755L363.267 153.603L390.115 113.718L405.668 96.7394L409.697 66.7114L331.003 82.0762L366.404 99.6861ZM398.304 145.289V145.605L407.121 152.621L418.878 108.947L406.461 98.4232L391.7 114.56L397.908 143.746C398.035 143.804 398.141 143.903 398.212 144.029C398.284 144.155 398.316 144.301 398.304 144.447V145.289ZM390.709 115.998L363.762 156.059H364.092L395.398 166.091L397.016 145.289L390.709 115.998ZM407.221 97.1954L419.736 107.719L426.572 101.019L411.084 68.3952L407.221 97.1954ZM444.735 199.873L456.095 198.505L452.793 169.073C449.094 182.053 445.296 196.119 444.768 199.768L444.735 199.873ZM452.958 164.793L477.395 125.715L427.695 139.01L452.958 164.793ZM440.904 154.27L441.928 161.286L443.282 173.774L452.198 165.706L440.904 154.27ZM477.23 124.136L453.783 103.65L427.86 102.036L426.969 137.607L477.23 124.136ZM439.286 152.726L426.275 139.431L422.576 143.185L440.31 159.917L439.286 152.902V152.726ZM425.747 138.273L426.605 103.194L420.364 109.333L422.279 141.957L425.747 138.273ZM427.728 100.738L452.099 102.247L412.471 68.8162L427.728 100.738ZM454.378 102.387L477.956 122.803L473.498 90.2848L414.089 68.1146L454.378 102.387ZM479.343 124.242L486.807 133.432L475.678 97.6164L479.343 124.242ZM480.037 127.188L488.062 161.075L488.359 138.729L487.731 136.695L480.037 127.188ZM478.485 126.346L453.949 165.53C453.965 165.623 453.965 165.718 453.949 165.811L484.066 200.224L487.863 166.337L478.485 126.346ZM484.066 202.118L453.915 167.74L457.416 198.68L497.044 223.867L484.066 202.118ZM451.538 168.056L443.084 175.703L435.621 184.333C436.842 186.262 441.565 193.559 443.645 197.663C445.164 191.173 449.556 175.563 451.538 168.056ZM441.961 175.072L440.574 162.163L422.147 144.623L420.727 172.686L434.696 183.21L441.961 175.072ZM406.857 154.375L398.04 147.184L396.488 166.583L410.853 170.582L406.857 154.375ZM395.101 167.635L363.663 157.637H363.036L323.011 188.402L408.872 171.423L395.101 167.635ZM368.022 105.439L326.545 139.291L362.045 155.252L368.022 105.439ZM367.494 104.106L321.955 105.93L326.215 137.817L367.494 104.106ZM320.7 106.281L313.6 109.543L312.609 109.964L324.53 135.327L320.7 106.281ZM275.623 97.5813L239.297 123.891L277.869 123.049L275.623 97.5813ZM273.609 125.996L208.817 146.342L228.862 153.708L273.609 125.996ZM230.282 154.41L247.817 162.829L275.986 126.031L230.282 154.41ZM273.84 124.417L237.514 125.224L207.529 135.748L185.734 149.464L206.67 145.605L273.84 124.417ZM182.729 149.639L206.769 134.52L232.197 125.575L180.351 129.083L182.729 149.639ZM179.096 129.714L154.923 147.85L181.342 150.025L179.096 129.714ZM156.706 161.075L190.126 153.217L182.233 151.498L156.706 161.075ZM234.905 123.996L208.982 109.719H208.685L182.266 127.539L234.905 123.996ZM237.25 123.715L274.599 96.6342L211.062 109.298L237.25 123.715ZM274.5 95.2661L259.31 85.058L213.308 107.439L274.5 95.2661ZM262.81 47.4528L221.3 62.0107L258.847 83.0584L262.81 47.4528ZM264.428 45.5585L319.808 45.7339C319.896 45.6067 320.026 45.5191 320.171 45.4883C320.307 45.4569 320.449 45.4743 320.575 45.5378C320.7 45.6013 320.802 45.7073 320.865 45.8391L328.956 80.5327L389.388 10.8299L369.904 8.02351C369.819 8.05874 369.725 8.05874 369.64 8.02351C369.546 7.94717 369.468 7.85178 369.409 7.74288L387.142 -0.570946H366.041L306.236 15.4954L305.575 15.6708C305.458 15.7197 305.328 15.7197 305.212 15.6708L242.633 30.7199L264.428 45.5585ZM389.916 9.49685V-1.27254L372.282 6.97113L389.916 9.49685ZM391.138 -27.1612L312.147 12.5488L366.041 -2.81603L391.138 -27.1612ZM393.549 -29.8974L350.916 -28.88L308.58 12.8294L393.549 -29.8974ZM390.346 11.9875L330.409 81.3746L409.664 65.8695L408.74 63.87L409.169 64.2558L390.346 11.9875ZM410.16 62.9228L410.688 44.5763L393.318 16.3023L410.16 62.9228ZM411.745 43.559L443.183 56.9944L393.318 13.6011L411.745 43.559ZM411.943 45.1376L411.348 65.3082L444.537 59.0641L411.943 45.1376ZM413.231 66.3606L471.649 88.1098L446.65 60.0463L413.231 66.3606ZM473.498 88.18L475.315 73.587L449.622 61.3442L473.498 88.18ZM475.48 72.1136L476.14 63.7296L451.075 60.5374L475.48 72.1136ZM476.371 75.832L474.621 89.6533L488.161 133.152L486.972 103.79L476.371 75.832ZM489.283 166.337L485.354 200.855L504.969 195.207L489.581 143.009L489.283 166.337ZM485.618 202.223L498.101 223.271L504.705 196.821L485.618 202.223ZM498.068 226.779C498.068 226.779 498.068 226.779 497.869 226.779C497.721 226.715 497.594 226.605 497.506 226.463L414.717 264.559L517.816 273.329L498.431 226.533C498.322 226.605 498.196 226.642 498.068 226.639V226.779ZM415.509 266.243L459.562 288.764L517.353 274.732L415.509 266.243ZM459.496 290.448L445.362 300.13L481.259 314.618L459.496 290.448ZM457.02 290.448L436.909 292.448L443.975 299.463L457.02 290.448ZM435.026 292.623L420.562 293.605L438.064 320.511L443.084 300.481L435.026 292.623ZM438.593 323.773L438.229 323.212L428.917 332.543L446.617 336.051L438.593 323.914V323.773ZM437.47 322.055L418.614 293.044L404.414 278.591L414.155 332.613L426.803 332.298H427.398L437.47 322.055ZM426.969 333.701L414.354 333.982L432.979 368.535L426.969 333.701ZM413.528 335.209L406.626 367.623L433.045 371.517L413.528 335.209ZM402.763 277.153L374.891 268.769L412.405 330.684L402.763 277.153ZM373.438 268.944L360.922 278.24L362.936 292.623L410.457 330.018L373.438 268.944ZM373.438 266.383L366.833 245.792L401.276 243.266L443.348 200.364C443.348 200.364 443.348 200.083 443.348 199.908C440.641 194.697 437.665 189.65 434.432 184.789L419.902 173.669L412.108 172.195L344.906 248.072L373.438 266.383ZM410.061 172.511L321.129 190.051L344.08 247.02L410.061 172.511ZM361.979 156.725L326.776 140.729L327.139 143.465L325.95 140.939L320.964 188.262L361.979 156.725ZM324.894 138.659L311.882 110.911L274.368 174.054L324.861 138.975L324.894 138.659ZM310.33 110.911L279.355 124.242L273.212 173.353L310.33 110.911ZM277.803 125.925L249.039 163.531L271.693 175.177L277.803 125.925ZM249.105 165.109L264.164 214.571L271.495 176.615L249.105 165.109ZM249.105 170.02L253.53 219.342L257.394 222.148L256.701 228.428L260.003 226.182L263.536 217.237L249.105 170.02ZM260.003 227.796L256.899 229.761L264.065 259.403L260.003 227.796ZM266.905 271.049L267.796 293.254L276.845 289.746L283.152 293.605L284.77 282.766L261.654 230.146L266.905 271.049ZM276.812 291.43L266.674 295.324L265.716 271.224L256.073 231.585L242.864 302.761L256.337 306.269L283.02 307.567V295.114L276.812 291.43ZM255.677 307.707L243.161 304.199L252.143 330.228L258.748 327.176L255.677 307.707ZM260.003 327.106L261.456 327.527L263.966 319.143L257.361 309.777L260.003 327.106ZM241.411 303.533L228.796 278.977L236.127 323.177L250.525 330.193L241.411 303.533ZM241.708 301.217L253.828 236.005L248.214 249.58L243.062 252.141L243.689 256.21L240.189 261.578L235.169 256.702L227.013 259.262L228.202 274.627L241.708 301.217ZM235.401 255.123L239.859 259.508L242.303 256L241.642 251.44L247.223 248.668L254.917 230.041L255.974 223.025L253.068 220.921L241.642 237.618L231.471 238.109V250.773L218.691 249.826L232.561 256.281L235.401 255.123ZM231.075 236.531L240.982 236.075L251.912 220.114L217.436 208.432L218.229 223.131L231.075 236.531ZM217.37 206.854L252.176 218.746L247.355 165.004L216.214 187.174L217.271 206.784L217.37 206.854ZM231.9 174.335L246.166 164.197L230.282 161.566L231.9 174.335ZM243.491 162.338L228.73 155.112L206.67 147.008L185.8 150.832L229.258 160.268C229.328 160.187 229.416 160.124 229.514 160.088C229.612 160.051 229.717 160.041 229.82 160.058L243.491 162.338ZM188.772 154.971L147.988 164.583L169.09 176.229L188.772 154.971ZM179.162 151.218L153.536 149.148L146.337 163.531L179.162 151.218ZM147.195 141.536L143.893 165.495L152.644 147.955L179.063 128.171V127.75L185.238 61.5898L147.195 141.536ZM180.483 127.118L207.166 109.122L189.003 97.0551L193.527 76.0074L186.625 60.362L180.483 127.118ZM207.661 107.754L194.452 78.0771L190.489 96.4237L207.661 107.754ZM187.418 58.6431L194.022 73.7624L196.995 59.9762L187.418 58.6431ZM200.264 51.6272L198.679 58.8536L217.667 61.4495L200.264 51.6272ZM218.79 62.8176V62.993L198.547 60.1866L195.244 75.832L209.411 107.895L258.154 84.1459L219.847 62.5369L218.79 62.8176ZM220.111 60.9233L262.744 45.9795L240.75 31.1058L220.111 60.9233ZM243.491 27.8434L242.236 29.3167L304.981 14.2326L315.218 -13.831L243.491 27.8434ZM317.001 -14.7781L307.094 12.3383L350.024 -30.1078L362.375 -49.9277L317.001 -14.7781ZM364.786 -51.4361L351.775 -30.3885L394.309 -31.4408L364.852 -51.7168L364.786 -51.4361ZM366.305 -52.2429L396.686 -31.1953C396.781 -31.1141 396.85 -31.0039 396.884 -30.8796L407.815 -23.8637L418.515 -63.5385L366.305 -52.2429ZM419.34 -61.3636L409.037 -23.0919H409.301L391.237 -2.04428V9.95288L445.825 57.5907L419.34 -61.3636ZM470.856 45.6637L421.322 -58.873L447.542 58.7484L476.041 62.2563L470.856 45.6637ZM472.475 46.5056L477.329 62.5369L541.658 71.833L472.475 46.5056ZM546.248 73.9027L478.254 64.0804L489.118 80.1468L493.246 109.438L546.248 73.9027ZM491.958 110.21L487.863 80.673L477.329 65.0977L476.735 72.7802V73.0958L488.227 103.404L494.831 118.559L491.958 110.21ZM500.049 133.889L488.359 107.018L489.647 138.273V138.589L504.771 189.84L500.049 133.889ZM506.422 196.646H506.158L499.355 223.902L530.397 212.326L506.422 196.646ZM499.355 225.481L518.674 271.926L531.421 213.589L499.355 225.481ZM533.237 213.589L551.103 245.476L619.296 201.066L533.237 213.589ZM605.129 161.847L589.674 162.092L619.956 196.365L605.129 161.847ZM619.758 161.636L606.549 161.847L621.442 196.33L619.758 161.636ZM682.701 222.99L680.983 240.776L696.835 287.501L682.701 222.99ZM700.467 298.025L709.879 232.076V231.725L683.196 218.5V218.711L700.467 298.025ZM681.941 218.956L681.578 217.342L679.629 210.327L680.719 232.041L681.941 218.956ZM682.833 216.851L709.582 230.146L703.67 203.767L687.159 196.751L679.398 202.96V204.047L682.833 216.851ZM685.739 196.084L644.361 178.334L678.308 202.153L685.739 196.084ZM678.044 204.433V203.942L624.745 200.89L679.563 239.478L679.762 239.267L678.044 204.433ZM676.426 202.469L638.747 176.054L623.49 199.452L676.426 202.469ZM637.69 175.247L621.178 162.478L622.829 197.908L637.69 175.247ZM667.147 160.794L622.334 161.742L638.846 174.475L686.994 194.997C687.119 194.965 687.251 194.971 687.373 195.015C687.496 195.058 687.604 195.137 687.687 195.242L704.001 202.258C704.133 202.229 704.27 202.244 704.394 202.301C704.518 202.357 704.623 202.452 704.694 202.574L717.606 208.117L667.147 160.794ZM695.415 163.46H695.183H693.697L674.115 161.391L695.91 170.546L737.684 148.517L695.415 163.46ZM768.561 208.082L779.228 254.316L782.53 277.679L783.091 277.925L778.006 190.893L747.624 147.885L768.561 208.082ZM739.501 178.474L766.381 205.871L745.907 147.429L738.807 178.65L739.501 178.474ZM737.387 179.036L744.85 146.272L697.297 171.353C697.361 171.522 697.361 171.711 697.297 171.88C697.255 171.979 697.191 172.066 697.111 172.134C697.03 172.201 696.935 172.246 696.835 172.265L709.615 186.508L737.387 179.036ZM709.35 188.156L694.226 171.353L669.26 160.83L719.026 207.661L709.35 188.156ZM719.852 210.642L705.024 204.293L710.737 229.725L719.852 210.642ZM719.852 235.724L711.134 233.479L701.887 298.306L712.884 282.31L724.31 251.72L719.852 235.724ZM702.052 300.411L736.198 303.252L713.577 283.608L702.052 300.411ZM724.937 254.036L714.304 282.555L737.09 302.375L724.937 254.036ZM817.039 500.96V501.486L824.073 495.136L817.039 500.96ZM825.031 492.576L816.61 481.491L817.006 499.206L825.031 492.576ZM816.544 479.105L826.055 491.628L832.659 486.086L828.498 476.053L813.076 476.334L816.544 479.105ZM845.241 475.843L829.984 476.123L833.782 485.314L845.241 475.843ZM833.584 488.331L827.574 493.768L845.769 517.798L833.584 488.331ZM826.583 494.645L817.105 503.099V504.538L846.001 520.218L826.583 494.645ZM846.1 521.937L816.841 506.081L809.576 527.129L846.1 521.937ZM815.817 504.397L811.689 508.151L815.817 504.643V504.397ZM790.158 523.165L799.273 523.796L802.047 517.061L802.443 515.132V514.886L802.872 512.887L790.158 523.165ZM800.561 524.182L808.189 527.234L815.124 507.099L803.764 516.324L800.561 524.182ZM804.16 513.132L815.784 502.608V501.977L804.589 511.273L804.16 513.132ZM804.887 509.063L815.619 500.153L815.157 479.702L811.524 476.86L804.887 509.063ZM811.822 475.001L826.748 474.685L812.977 465.635L811.822 475.001ZM803.731 433.502L804.061 433.993L813.01 464.021L828.531 474.264L833.749 460.548L796.829 412.665L803.764 433.011C803.834 433.163 803.857 433.335 803.83 433.502H803.731ZM791.842 412.875L800.792 428.38L794.352 409.437L794.187 409.262L807.727 357.765L772.788 362.256L789.3 398.387C789.348 398.523 789.348 398.673 789.3 398.808L791.842 412.875ZM772.392 364.571V369.271L782.728 386.811L772.392 364.571ZM767.273 392.985L790.389 411.542L788.243 398.949L772.028 371.236L767.273 392.985ZM771.038 367.377V361.975L758.654 348.75L771.038 367.377ZM757.102 345.488L772.028 360.958L806.637 356.503L739.798 306.199L757.102 345.488ZM755.484 345.102L737.948 305.287L704.925 338.437C704.893 338.59 704.812 338.727 704.694 338.823L755.484 345.102ZM704.1 337.49L736.628 304.69L701.491 301.744L704.1 337.49ZM700.137 301.288C699.976 301.186 699.857 301.023 699.807 300.831L699.443 299.042L684.088 253.755L702.515 332.368L700.137 301.288ZM702.515 338.226L680.092 242.073L636.765 315.74L702.515 338.226ZM678.209 242.635L606.384 322.265L635.147 315.6C635.237 315.409 635.39 315.259 635.576 315.179L678.209 242.635ZM740.954 519.762L730.419 491.699L700.104 525.515L740.954 519.762ZM688.876 518.57L697.792 525.059L703.935 486.472L688.876 518.57ZM705.982 482.262L699.377 524.358L729.891 490.296L702.812 456.514L705.982 482.262ZM730.056 488.506L730.551 472.791L738.543 458.759L702.548 454.164L730.056 488.506ZM701.491 451.392L714.964 408.946L678.011 373.306L701.491 451.392ZM676.525 403.649L698.288 445.289L676.723 373.306L676.525 403.649ZM676.162 370.113L701.359 340.331L647.333 372.92L676.162 370.113ZM645.715 372.323L700.731 339.103L636.468 317.179L645.715 372.323ZM644.162 371.025L635.147 317.179L605.69 323.984L644.162 371.025ZM678.54 240.355L623.82 201.767L624.514 203.416L622.73 201.346L605.426 321.353L678.54 240.355ZM604.072 321.739L621.409 201.416L551.829 246.669L604.072 321.739ZM602.124 321.283L554.306 252.597L578.743 307.497H579.074L602.124 321.283ZM557.708 351.521L588.089 342.225L540.569 344.26L557.708 351.521ZM592.448 340.647L578.182 309.707L539.512 342.892L592.448 340.647ZM537.332 342.927L577.488 308.444C577.44 308.308 577.44 308.158 577.488 308.023L550.277 246.879L532.412 214.992L519.5 274.101L519.863 274.978H519.103L518.311 276.171L461.511 289.817L461.94 290.027H460.949L484.066 316.091L485.387 326.159L537.332 342.927ZM531.784 342.576L485.089 327.422L471.154 337.946L531.784 342.576ZM469.04 337.946L484.165 326.334L483.009 317.459L450.25 336.297L469.04 337.946ZM481.985 316.477L444.24 301.077L438.989 321.914L448.202 335.946L481.985 316.477ZM447.113 337.314L430.601 334.157L444.537 344.891L447.113 337.314ZM443.81 346.224L428.289 334.262L434.597 369.798L443.81 346.224ZM434.3 376.708L425.317 442.623L443.084 418.909L434.3 376.708ZM443.513 420.417L425.383 444.762L458.407 445.078L443.513 420.417ZM460.025 453.637L459.199 447.99L450.349 464.161L460.025 453.637ZM457.812 447.779L428.091 469.353L446.617 467.985L457.812 447.779ZM446.617 469.388L427.497 470.791L449.821 491.418L446.617 469.388ZM425.879 471.177L414.882 482.648L415.575 487.208L447.773 491.348L425.879 471.177ZM409.367 494.47L443.48 492.19L414.981 488.682L405.074 488.366L409.367 494.47ZM410.688 472.265C410.653 472.339 410.601 472.402 410.538 472.451C410.475 472.5 410.402 472.532 410.325 472.545L404.711 486.823L414.255 487.138L413.495 482.157L425.119 470.265L425.515 469.984L423.798 447.884L410.688 472.265ZM408.475 408.666L432.88 372.814L406.296 368.921L408.475 408.666ZM409.4 442.903L407.32 410.876L400.484 401.369L409.4 442.903ZM399.757 398.072L407.452 408.385L405.272 368.675H405.107V368.43L374.131 350.89L399.757 398.072ZM405.305 367.061L412.24 334.297L373.537 348.75L405.305 367.061ZM372.282 347.242L372.612 347.803L412.24 332.929L363.432 294.517L372.282 347.242ZM291.243 275.259L291.507 276.872V277.644L370.598 345.593L361.748 292.974L359.502 277.188L372.711 267.26L343.783 248.844L343.453 249.195L319.577 189.98H319.445C319.358 189.976 319.273 189.953 319.194 189.914C319.116 189.874 319.045 189.819 318.987 189.75C318.929 189.682 318.884 189.602 318.855 189.515C318.826 189.428 318.813 189.336 318.817 189.244C318.818 189.127 318.849 189.013 318.908 188.914C318.966 188.814 319.049 188.735 319.148 188.683V188.367H319.577L324.629 140.448L272.915 176.229L291.243 275.259ZM272.288 179.737L265.055 217.202L289.724 274.276L272.288 179.737ZM289.724 277.539L264.329 218.956L261.357 226.463C261.495 226.535 261.601 226.661 261.654 226.814L285.629 281.398L289.724 277.539ZM290.285 308.759L286.223 296.026L285.497 293.149L285.332 289.185L284.473 294.938V308.163L289.724 313.881L290.285 308.759ZM287.544 326.475L273.014 324.3V338.647L287.544 326.475ZM272.585 322.967L288.568 325.387L289.559 315.81L283.482 309.286L257.724 308.023L265.32 318.547L272.585 322.967ZM271.561 339.594V324.054L265.122 320.16L262.612 328.439L267.962 339.98L271.561 339.594ZM266.773 340.12L261.621 329.07L259.673 328.544L252.176 332.052L233.948 343.839L266.773 340.12ZM222.257 327.702L231.273 343.769L250.36 331.21L235.401 324.194L221.861 318.196L222.257 327.702ZM145.544 255.439C147.084 260.996 149.744 266.131 153.338 270.488L181.573 271.681L141.945 226.077C142.539 231.865 144.422 249.054 145.544 255.439ZM141.714 223.271V223.587L183.422 271.751V271.961L221.399 316.582L233.65 321.984L174.374 232.392C174.315 232.33 174.268 232.256 174.236 232.175C174.204 232.093 174.188 232.006 174.188 231.918C174.188 231.83 174.204 231.743 174.236 231.661C174.268 231.58 174.315 231.506 174.374 231.444C174.497 231.316 174.663 231.244 174.836 231.244C175.009 231.244 175.175 231.316 175.298 231.444L234.476 320.686L226.98 275.083C226.962 274.979 226.962 274.872 226.98 274.768L225.725 259.157V258.35L230.711 256.772L211.327 247.756L230.282 249.195V237.618L217.304 224.078L216.974 223.727L216.148 208.117L172.954 212.326L172.029 211.905C172.013 211.836 172.013 211.764 172.029 211.695L198.216 185.245L216.445 186.473L230.975 175.949L229.258 162.373L191.612 154.199L198.712 160.584L207.034 159.567L224.569 164.337L193.164 168.687L169.354 178.58L147.592 166.583L149.177 174.546L163.41 191.208C163.505 191.318 163.558 191.462 163.558 191.612C163.558 191.761 163.505 191.905 163.41 192.015C163.434 192.07 163.446 192.13 163.446 192.191C163.446 192.251 163.434 192.311 163.41 192.366C163.41 192.533 163.347 192.694 163.236 192.812C163.124 192.931 162.973 192.997 162.816 192.997L153.866 192.471L138.841 199.487L135.538 223.341L141.714 223.271ZM174.935 210.607L216.016 206.643L214.992 187.35L174.935 210.607ZM213.341 186.648L198.481 185.666L175.794 208.432L213.341 186.648ZM137.388 199.522L116.913 211.975L111.266 214.15L134.019 222.464L137.388 199.522ZM46.8049 227.586L116.154 220.57L128.504 221.973L109.12 214.957L77.8798 214.431L59.882 222.078L43.0402 219.202L46.8049 227.586ZM30.2932 221.868L45.0546 227.13L41.2239 218.675L6.48346 162.548L30.2932 221.868Z" fill="url(#paint2_radial_228_1663)" stroke="url(#paint3_radial_228_1663)"/>
<defs>
<radialGradient id="paint0_radial_228_1663" cx="0" cy="0" r="1" gradientUnits="userSpaceOnUse" gradientTransform="translate(-225.205 423.382) rotate(-17.6605) scale(859.429 470.762)">
<stop stop-color="#C6B38A"/>
<stop offset="0.463601" stop-color="#F3C691"/>
<stop offset="1" stop-color="#B4703E"/>
</radialGradient>
<radialGradient id="paint1_radial_228_1663" cx="0" cy="0" r="1" gradientUnits="userSpaceOnUse" gradientTransform="translate(-249.065 425.19) rotate(-17.7155) scale(882.327 484.613)">
<stop stop-color="#C6B38A"/>
<stop offset="0.463601" stop-color="#F3C691"/>
<stop offset="1" stop-color="#B4703E"/>
</radialGradient>
<radialGradient id="paint2_radial_228_1663" cx="0" cy="0" r="1" gradientUnits="userSpaceOnUse" gradientTransform="translate(-249.065 425.19) rotate(-17.7155) scale(882.327 484.613)">
<stop stop-color="#C6B38A"/>
<stop offset="0.463601" stop-color="#F3C691"/>
<stop offset="1" stop-color="#B4703E"/>
</radialGradient>
<radialGradient id="paint3_radial_228_1663" cx="0" cy="0" r="1" gradientUnits="userSpaceOnUse" gradientTransform="translate(-249.065 425.19) rotate(-17.7155) scale(882.327 484.613)">
<stop stop-color="#C6B38A"/>
<stop offset="0.463601" stop-color="#F3C691"/>
<stop offset="1" stop-color="#B4703E"/>
</radialGradient>
</defs>
</svg>
