<svg width="30" height="24" viewBox="0 0 30 24" fill="none" xmlns="http://www.w3.org/2000/svg">
<path fill-rule="evenodd" clip-rule="evenodd" d="M0.625 2C0.625 0.964466 1.46447 0.125 2.5 0.125H27.5C28.5355 0.125 29.375 0.964466 29.375 2C29.375 3.03554 28.5355 3.875 27.5 3.875H2.5C1.46447 3.875 0.625 3.03554 0.625 2ZM0.625 12C0.625 10.9645 1.46447 10.125 2.5 10.125H27.5C28.5355 10.125 29.375 10.9645 29.375 12C29.375 13.0355 28.5355 13.875 27.5 13.875H2.5C1.46447 13.875 0.625 13.0355 0.625 12ZM2.5 20.125C1.46447 20.125 0.625 20.9645 0.625 22C0.625 23.0355 1.46447 23.875 2.5 23.875H27.5C28.5355 23.875 29.375 23.0355 29.375 22C29.375 20.9645 28.5355 20.125 27.5 20.125H2.5Z" fill="url(#paint0_radial_202_3192)"/>
<defs>
<radialGradient id="paint0_radial_202_3192" cx="0" cy="0" r="1" gradientUnits="userSpaceOnUse" gradientTransform="translate(37.8497 19.7318) rotate(-159.35) scale(30.4397 19.0341)">
<stop stop-color="#C6B38A"/>
<stop offset="0.463601" stop-color="#F3C691"/>
<stop offset="1" stop-color="#B4703E"/>
</radialGradient>
</defs>
</svg>
