<svg xmlns="http://www.w3.org/2000/svg" width="900" height="558" fill="none" xmlns:v="https://vecta.io/nano"><g opacity=".2" filter="url(#A)"><circle cx="766.85" cy="338.15" r="516.15" fill="url(#B)"/></g><g opacity=".15"><path d="M110.805 189.409l22.177 40.235 75.347-2.872 54.676-25.441 19.833-1.775 8.955-40.504 111.154-89.345 2.465-2.67a.86.86 0 0 1 .512-.289.81.81 0 0 1 .563.116l.63-.532 34.694-20.638.599-1.215.178.318 29.757-36.754.312.048 103.067-27.64.044-.284 1.157.179 1.379-.368 48.345-37.559 67.353 36.134 58.531 125.572 1.707 3.702 82.557 118.198 105.242 35.216 63.851 40.532 104.56 7.75 29.49 87.857c.01.097-.01.194-.04.284l11.37 113.627-.04.284-20.46 41.485-22.49-55.054 16.41-26.517-6.55-102.034-38.2-39.809-39.97 11.106 21.27 74.72-7.97 99.836 51.57 60.328.32-.533-.14.899.73.84 5.14 58.424-4.8 27.538 43.11 61.345-7.03 32.811-.05.331 12.81 58.933-38.77-7.838-32.76 1.035 4.39-38.693 16.09-45.019-38.14-81.204-.04.284-.52-1.631-58.74-60.275-12.097 29.849 14.367 73.944 11.44 23.901-19.3 44.861 14.14 33.23-26.016 4.643-1.069-.165-39.815-7.854 7.844-23.001 25.452-34.272-17.479-66.483-7.495-42.904-63.868-36.854-26.35-28.29-.357-.055-.267-.042-12.941-36.579-41.083 13.016-34.989-19.602-9.486 11.22-53.829-8.327-3.493.476-34.275 19.396-19.434-13.176.432-20.176-.223-.034.044-.284-7.259-5.239-.428.999-.321-.873-13.231 11.271 1.76 39.014-5.333 52.445 19.709 37.627-23.85 26.868 2.371 30.053-46.754 1.048-.267-.041-.223-.035-14.203-9.267 13.286-20.464 2.851-85.615-18.933-80.074-66.515-74.843-35.562-48.021-12.872-.781-.044.284-.579-.09-3.506 7.933.623.096-.77.559 7.088 36.4-20.808 31.068-60.043 2.964-16.235-22.367 2.441-10.47-38.001-78.52-.209-.42-39.261-2.296-.401-.062-14.348-21.591 5.023-44.261-44.746-17.237-75.765 1.742-31.218-11.561-1.328.037c-.215 0-.423-.082-.584-.232a.96.96 0 0 1-.293-.581l-.267-.042-6.483-55.338zm74.671 52.182l18.822-12.634-79.582 13.453 60.76-.819zm134.155 95.864l-22.85-49.153-14.231 46.904 37.081 2.249zm306.194 326.989l-.258-3.043.258 3.043zm-2.095-1.777l-37.91 26.388 41.718-.907-3.808-25.481zm1.786-3.888l4.02-62.819-21.636-50.515 17.06 113.393.556-.059zm-18.922-110.195l-22.279 109.535 38.835.633-16.556-110.168zm.662-9.292l25.132-34.854-61.157-7.815 36.025 42.669zm25.64-36.664l-3.038-57.276-61.051 48.669.469.508 63.62 8.099zm59.582-117.566l-60.82 59.261-.058.378 17.075 44.338 43.803-103.977zm-34.96 131.98l48.027-6.033-46.998-12.113-.578-.09-.451 18.236zm324.687 212.461l-30.628 52.406 46.869-27.133-16.241-25.273zm5.481 61.528l10.853-34.206-46.869 27.133 36.016 7.073zm19.034-103.596l-46.492-63.708 39.322 127.152 7.17-63.444zm134.44 71.889l-30 30.372 41.87 24.056-11.87-54.428zm-30.76 28.558l29.72-30.028-33.88-29.454 4.16 59.482zm29.41-32.739l-33.28-87.233-.39 57.617 33.67 29.616zm-100.64-416.258l38.09-10.476-69.25-23.885 31.16 34.361zm80.7 29.677l16.39 23.455-27.06-80.266-27.64 16.887 38.31 39.924zM942.89 263.698l-.267-.041-154.277 22.721 213.674 14.749-59.13-37.429zM473.291 9.885l-28.448 34.777 93.843-18.994-65.395-15.782zM273.226 269.936l85.397 13.211-90.437-45.759 5.04 32.548zm420.965 111.419l-148.379 43.828 84.664 17.94 63.715-61.768zm291.874 187.046l32.695-34.508-144.535 18.659 111.84 15.849zm57.835 3.377l57.98 5.047-78.91-42.183 20.93 37.136zM750.186 106.039l-60.303 3.165 59.948 42.447 1.068-44.921-.713-.691zM580.884 13.696l-37.063 12.669 53.631 13.14-16.568-25.808zM461.59 77.568l76.84-49.955-94.524 19.277 17.684 30.678zm-96.718 231.195l55.849-21.53-55.513-1.566-.336 23.096zm-28.097-64.154l86.24 39.879-55.515-88.784-30.725 48.905zm29.15-49.633l-78.87 6.201 48.249 42.332 30.621-48.533zm-27.505 52.26l26.48 36.591.445.069 55.691 1.593-82.616-38.253zm-3.289-1.429l-62.746-8.448 89.166 44.836-26.42-36.388zm-2.475-2.272l-47.372-41.227-16.924 32.782 64.296 8.445zm34.482-50.502l18.854-39.361-96.546 45.309 77.692-5.948zm2.032-.17l.223.034-.673 1.107 54.309 86.854-35.137-126.504-18.722 38.509zm56.14 89.752l18.844-92.341-54.505-36.375 35.661 128.716zm91.724-38.305l-68.771-51.125 31.439 45.495 37.332 5.63zm180.711 133.818l3.017-.938-.533.499 61.876-9.799-80.395-19.314-130.521 72.79 143.309-42.288.059-.378 3.188-.572zm108.033 42.815l-84.883 22.075 47.902 35.741 36.981-57.816zM879.9 372.65l-.38-.495.49.076-10.868-38.486-57.87 82.624L879.9 372.65zm-71.164 47.443l-29.717 83.057 98.278-126.641-68.561 43.584zm211.974 109.986l6.71-66.035-74.524 23.775 67.584 42.902.23-.642zm-69.471-43.63l73.711-23.514-94.045-22.151 20.334 45.665zm-20.951-49.635l25.68-28.376-19.287-37.997-6.393 66.373zm4.793-68.413l-52.197 5.292 45.602 63.279 6.595-68.571zm.627-1.985l63.671-57.949-113.703 63.091 50.032-5.142zm-164.71-133.813l-.312-.048-88.288 14.914 96.021 38.245-7.421-53.111zm-88.379 114.225l82.146 19.779-84.762-115.15 2.616 95.371zm-4.208-100.993l19.305-57.305-110.401 28.782 91.096 28.523zm15.082-58.298l-108.797-8.404.16 36.684 108.637-28.28zM560.967 59.042l-7.495 36.372L597.69 43.27l-36.723 15.773zm-1.699-.505l-14.485-26.019 7.326 60.505 7.159-34.487zm-6.834 40.93l-41.67 71.037 119.903-70.461-77.358-.925-.875.349zm30.584 117.035l-.164-35.184L524.531 243l56.753-25.604-.801-.124 2.535-.77zm46.238-113.529l-117.354 69.015 71.772 4.614 45.582-73.629zm-47.644 76.942l.554-.931-6.714-.506 2.521-.385-68.464-4.49 11.456 70.346 60.647-64.034zm52.467-79.828l-1.504.881-45.833 74.075 98.445-66.13-51.108-8.826zm50.51 6.797l-36.887-32.971L635.3 98.678l49.289 8.206zM521.334 246.282l-15.573 50.861 74.208-77.142-58.635 26.281zm-13.522-72.021l-.356-.055c-.199.036-.401.004-.579-.09l-59.133 15.938 71.299 53.356-11.231-69.149zm.106-2.453l40.495-69.041-99.553 85.087 59.058-16.046zm34.557-143.23l-79.397 133.968 87.863-64.327-8.466-69.641zm18.006 28.597l36.249-15.361-52.073-12.898 15.824 28.26zm39.494-13.939l-45.647 53.715 90.773-25.087-44.718-28.613-.408-.015zm-40.008 54.103l72.269.816 1.157.179 12.395-24.718-85.821 23.722zm89.298-24.686l38.322 34.598 6.865-57.051-45.173 22.068.4.062-.414.323zm-61.688 104.068l160.765-24.284-60.728-43.003-100.037 67.287zm4.371 1.209l106.854 8.298 47.794-31.349-154.648 23.051zm88.288 67.897l88.933-14.96-69.442-42.365-19.491 57.325zm-.395 2.554l86.643 117.426 12.058-77.943-98.701-39.483zm87.887 119.41l38.561 49.26-26.811-125.217-11.75 75.957zm40.401 49.448l60.178-85.464-87.486-43.026 27.308 128.49zm76.979-47.9l-.459.607 118.261-65.727-132.296 27.962 11.086 39.44 3.408-2.282zm-79.401 49.704l-38.048-48.744-.484-.705-46.106 71.417 84.638-21.968zm-124.853-72.004l-2.731-97.277-131.021 171.795 133.752-74.518zm-95.873-128.49l12.674 94.893 79.291-66.09-91.965-28.803zm-1.697.657l-76.992 80.102 89.621 14.784-12.629-94.886zm-79.886 79.654l15.919-51.921c-.177-.111-.325-.267-.431-.454l-38.067-5.889 22.468 58.392.111-.128zm-57.317-106.012l.714 111.494 31.558-64.903-32.272-46.591zm86.941-79.289l-72.221 52.8-.599.924-11.185 18.077 84.005-71.801zm-73.145 50.817l80.269-135.771-77.93 50.513-2.339 85.258zM600.215 40.803l87.63-58.407-105.056 30.771 17.426 27.636zm2.004.891l92.458 6.167-2.16-66.196-90.298 60.028zm2.149 2.027l43.136 27.642 44.41-21.847-87.546-5.795zm91.903 7.098l-6.748 56.294 58.967-3.081-52.219-53.213zm54.337 103.469l-49.349 32.561 130.914 37.831-81.565-70.392zm-45.055 35.743l66.338 40.336 58.772-4.177-125.11-36.159zm74.818 96.032l158.63-23.452-166.37-29.659 7.74 53.111zm89.468 44.35l129.039-27.254-214.534-14.786 85.495 42.04zm67.199 37.128l19.719 38.741 46.273-99.042-65.992 60.301zm-6.471 71.301l93.343 21.947-66.656-50.943-26.687 28.996zm90.043 95.772l-13.33 45.737 34.25-8.601-20.92-37.136zm-2.53-2.86l-67.481-42.935-79.915 62.167 147.396-19.232zm-89.459-90.356l-72.432 71.558 93.123-25.837-20.691-45.721zm-47.449-66.954L779.144 505.881l148.612-66.843-46.584-64.593zm-76.925 51.975l-34.357 53.816 6.36 25.197 27.997-79.013zm-38.09 52.899l-47.382-35.563-59.438 53.276 106.82-17.713zm-103.22 18.9l45.707 11.913 54.521-28.273-100.228 16.36zm102.005-128.922l-67.119 10.683-.525.452-.118.756 21.9 59.419 45.862-71.31zm-91.753-116.521l-75.181 62.803-.088.567-.49-.076-51.022 103.491 126.781-166.785zm-169.616 47.903l-47.965 7.108 125.4 5.695-77.435-12.803zm-2.362-1.528L479.3 241.572l-31.809 65.347 53.72-7.768zm-57.069-100.84l-17.692 86.66.541-.255-.694 1.539 18.536 19.575-.691-107.519zm-18.478 89.977l-.074.473-.334-.488-29.745 63.197 48.593-42.993a.85.85 0 0 1-.016-.341c.018-.114.058-.223.118-.321l-18.542-19.527zm-61.256 22.292L353.9 353.75l39.379-1.705 30.092-63.967-58.963 22.502zm-9.332 44.998l46.129 53.385-7.847-54.775-38.282 1.39zm-2.942-2.198l10.111-41.488-39.304 26.56 29.193 14.928zm10.64-44.021l.323-22.13-37.924 47.403 37.601-25.273zm-.882-23.769l-64.35 1.038 23.653 50.149 40.697-51.187zm-79.323-83.412l-90.113 39.088 73.952-6.526 16.161-32.562zm104.819-51.05l16.69-80.181-114.903 126.248 98.213-46.067zm57.534 37.424l13.063-21.079-65.25-13.775 52.187 34.854zm13.118-22.911l2.333-84.629-70.351 70.184 68.018 14.445zm2.128-86.84l-17.661-30.53-50.936 98.806 68.597-68.276zm119.69-66.426l.4.062-3.915-27.144-30.887 39.049 34.402-11.967zm-1.933-29.355l4.104 28.578 107.658-31.676-110.756 1.898-1.006 1.2zm118.4 65.388l54.212 55.361L694.345-17.18l1.98 65.587zm56.767 60.357l-.469-.508-1.032 44.394 1.523 1.058-.267-.041 78.562 67.7-78.317-112.603zm24.262 123.127l151.914 27.037-93.194-31.173-58.72 4.136zm329.656 79.279l-94.15-7.01 67.42 23.311 26.73-16.301zm-100.8-5.907l-46.895 100.399 78.545-65.72-31.65-34.679zm21.89 156.174l31.05-44.834-99.226-6.924 68.176 51.758zm31-41.549l-29.4 42.669.73.597-.72.228 22.15 48.949 7.24-92.443zm-7.7 96.294l-22.55-49.883-6.66 65.704 79.3 42.34-50.09-58.161zm-6.68 57.079l21.79 67.441 36.73-62.359-58.52-5.082zm22.84 69.249l37.21 19.075-1.23-80.436-35.98 61.361zm37.3 21.414l-36.66-18.796 36.22 77.082.44-58.286zm-61.97-90.364l-34.58 8.694 55.95 57.421-21.37-66.115zm-24.06-37.186l-30.894 32.607 18.084 11.32 12.81-43.927zm-61.6 79.916l27.592-46.338-115.498-16.366 87.365 62.959s.266-.249.541-.255zm1.915.587l33.654-4.479-6.756-40.611-26.898 45.09zm-92.17-65.495l79.242-61.642-91.9 25.591 12.658 36.051zm59.214-109.584l-146.248 65.707 72.86 6.429 73.388-72.136zm-157.773 39.42l-55.136 28.711 61.779-2.694-6.643-26.017zm-50.467-38.897l-21.557-58.397-37.208 110.857 58.765-52.46zm-151.943 49.475a.87.87 0 0 1 1.158.179l.647.826 60.961-48.682-84.79-17.718 22.024 65.395zm-23.528-68.049l52.669-106.771-129.417 55.043 76.748 51.728zm50.412-107.798l-145.758-6.713 17.164 61.447 128.594-54.734zm-148.507-5.152l-46.734 41.585 50.673 17.234-3.939-58.819zm-41.194 99.49l40.38-29.687-48.252-26.109 7.872 55.796zm47.64 7.37l-46.077-4.804 27.229 32.93 18.848-28.126zm-48.413-4.73l-.519.405.088-.568-36.5 5.492 63.965 26.796-27.034-32.125zm-1.666-1.904l-46.316-54.236 6.128 59.4 1.626.687 38.562-5.851zm-48.427-55.919l-29.118-14.819 35.058 72.786-5.94-57.967zm-56.682-69.158l-22.023-13.237 8.33 58.433 13.693-45.196zm1.31-1.395l56.183-.994-76.135-11.778 19.952 12.772zm-30.413-47.999l-37.263 16.609 41.992 16.181-4.729-32.79zm-5.14.222l-68.271 6.049 33.824 9.155 34.447-15.204zm-128.619-5.224l-11.559 9.883 73.079-12.376-61.52 2.493zm-14.17 9.673l12.698-10.772-17.827-32.105 5.129 42.877zm90.369-13.043l-16.63 11.132 87.905-37.783-16.591 1.453-54.684 25.198zm84.412-68.251l-8.691 39.383L395.087 78.08l-101.697 81.85zm114.575-92.303l-1.866 1.455-15.926 76.425 49.945-97.119-32.153 19.24zm68.832-58.894l65.929 15.865 33.499-42.374-99.428 26.509zm104.267-28.908l108.871-1.802-63.127-33.979-45.744 35.782zM1139.2 409.229l-7.55 137.237 17.47-35.41-9.92-101.827zm-28.97 88.838l19.83 48.685 7.23-135.156-10.86 59.871-16.2 26.6zm15.78-33.928l11.99-66.283-18.07-25.847 6.08 92.13zm-87.78-122.736l-78.844 66.45 99.684 6.897-20.84-73.347zm67.1 247.336l1.11 65.016 3.15-18.302-4.26-46.714zm42.33 135.995l-38.72-55.046 32.5 84.594 6.22-29.548zm-30.98 82.377l31.96 6.446-39.02-22.405-.91.876.04-.284-21.09 16.108 28.99-.89.03.149zm-26.79-35.477l-3.97 35.368 22.84-17.678-4.18-58.759-14.69 41.069zm-84.67-189.422l-17.702-11.117 6.433 38.866 11.269-27.749zm-12.336 31.991l-34.01 4.424 47.226 64.885-13.216-69.309zm25.416 96.525l-10.04-20.294-6.7 59.207 16.74-38.913zm-17.82 48.286l-.13.851-.428-1.373-10.426 32.916 23.334-4.09-12.35-28.304zm-47.661 17.518l20.458-34.996-15.829 21.281-4.629 13.715zm12.838-115.402l17.449 66.382 14.067 21.934-37.141-120.325 5.625 32.009zm-72.144-80.896l48.21 27.846-68.322-49.312 20.112 21.466zm-45.317-65.124l-67.872-5.657 31.178 17.415 36.694-11.758zm-74.149-6.047l-52.842 2.383 45.014 6.964 7.828-9.347zm-69.292 3.809l-45.475 5.75 16.091 10.916 29.384-16.666zm-48.002-17.111l35.345-104.705-42.41 99.98 7.065 4.725zm-24.816-45.874l2.737 51.563 12.699-10.772-15.436-40.791zm1.181 56.02l-25.132 34.854 21.83 51.029 4.976-48.965-1.674-36.918zm15.709 126.549l-17.817-33.943-3.783 58.641 21.6-24.698zm-78.261 48.234l12.13 7.93 40.872-28.448-40.155-.643-.249 1.608-.044.284-12.554 19.269zm15.373-105.857l-2.555 78.106 22.345-109.961-.211-1.292a1.01 1.01 0 0 1 .147-.658c.122-.195.306-.338.518-.401l-37.779-44.586-1.202-.186 18.737 78.978zm-85.814-155.798l63.638 71.639-21.889-64.793a.68.68 0 0 1-.371-.146c-.108-.086-.19-.202-.238-.335a.75.75 0 0 1-.026-.343c.018-.116.062-.225.128-.319l-73.612-49.598 32.37 43.895zm-37.684-48.736l-16.29-58.26 4.048 57.528 12.242.732zm-14.338.736l-47.71-15.759 44.53 23.936 3.18-8.177zm-43.251 39.703l46.306 4.79-6.593-33.999-39.713 29.209zm-31.661 38.154l54.637-2.202-66.147-27.715-1.357.226-2.176 9.349 15.043 20.342zm-92.827-116.058l-7.923-55.465-4.229 37.362 12.152 18.103zm-129.349-79.189l69.253-1.2-33.26-8.971-.935-.144c-.167.089-.355.121-.538.093s-.353-.117-.486-.252l-60.077.828 26.043 9.646z" fill="url(#C)"/></g><path d="M99.666 152.615l33.097 71.611 50.544 1.863 36.534-6.891 60.68-24.173 10.901-36.572 71.271-104.425.355-.526 15.076 4.511 4.574-11.884 23.852 18.799 34.476-36.314-.639-.583 1.29-.091 4.006-3.497 108.14-42.159 71.721-39.85.897-.491c.244-.059.498-.02.712.11l76.508-4.775 47.528 159.27 97.085 53.761 2.257.737-83.978 39.213 5.737 32.172-.037.236-5.821 83.896 31.218 28.656 121.525.979-.676-.638 1.024.159-36.761-57.069a.83.83 0 0 1 .051-.331c.183-.038.372-.009.535.083l22.32 3.065-18.64-71.941-86.25 7.045-6.571-20c-.071-.232-.058-.486.036-.712a1 1 0 0 1 .473-.517.9.9 0 0 1 .672.025c.212.096.383.271.479.492l6.431 17.364 85.694-6.986.446.069 19.036 73.504 19.508 2.679 60.929 8.699-83.721-72.663 13.889-19.644c.147-.2.36-.337.595-.381s.475.006.673.142c.188.151.309.377.339.626a1.01 1.01 0 0 1-.18.706l-12.891 18.2 84.457 73.503.401.062c.135-.156.316-.258.512-.289a.81.81 0 0 1 .563.116l1.337.788 29.565 7.818.4.062 3.87.599 72.27-13.324.68-.235 34.21 68.782 38.67-4.187a.86.86 0 0 1 .65.203.97.97 0 0 1 .32.624.94.94 0 0 1-.05.371.83.83 0 0 1-.17.326 1.04 1.04 0 0 1-.28.232c-.11.058-.23.093-.34.103l-38.53 4.161-10.93 118.409c0 .113-.01.226-.06.331l42.09 26.172a.93.93 0 0 1 .41.583c.05.244.02.504-.11.723-.08.153-.21.277-.36.357s-.32.113-.48.093l-.36-.055-42.67-25.971-.26-.041-.4-.062-1.79-1.391-.45-.069.3-33.175-4.69-63.972-32.15-44.733-39.89 4.387.63.969a1.09 1.09 0 0 1 .09.619 1.06 1.06 0 0 1-.27.563l9.48 30.04c.2.135.33.347.38.589a1.03 1.03 0 0 1-.12.709c-.08.158-.21.286-.36.367s-.32.11-.49.084l-.49-.076-17.62 25.507-.1.662 12.31 5.295 2.54 21.266c.03.128 0 .262-.06.378l7.81 74.769 83.2 85.511 24.02.57c.12.005.24.035.35.088a.98.98 0 0 1 .28.222c.08.093.14.203.18.321.03.119.05.245.04.372-.02.244-.13.472-.3.642a.9.9 0 0 1-.62.281l-23.47-.629-28.88 66.478 42.71 77.507-10.33 18.207 25.81 3.461-22.08 14.55 12.36 50.922-56.23-.466-11.33-6.596-17.22-3.923 25.41-15.15 16.93-45.47 4.12-14.568-5.74-42.149-12.04-30.919-29.39-32.246 11.95-31.229-16-33.661c-.03-.118-.04-.244-.02-.367s.07-.24.13-.342l-68.74-19.497-41.55 36.092 44.26 58.421.38.495-28.236 56.361 47.056 13.526-19.15-34.779c-.07-.096-.11-.205-.14-.321s-.03-.238-.01-.356.06-.233.12-.336.14-.193.23-.264a.86.86 0 0 1 .66-.174c.24.036.44.168.58.367l20.57 37.372-14.76 18.782-4.22 22.592.21.42 8.97 43.374-61.386-1.021-13.158-13.077 31.376-46.044 1.218-37.343.073-.473-.158-1.041-.338-2.232-23.598-69.366-44.945-20.077c-.22-.098-.393-.286-.481-.522a1.02 1.02 0 0 1 .015-.737.96.96 0 0 1 .502-.519.86.86 0 0 1 .695.002l44.21 19.818 6.497-41.998a.67.67 0 0 1 .044-.284l-40.901-2.308a.74.74 0 0 1-.286.229.69.69 0 0 1-.351.06l-.357-.055c-.106.005-.212-.011-.311-.049-.19-.078-.347-.222-.447-.409s-.136-.406-.103-.62a1 1 0 0 1 .285-.56c.152-.148.346-.238.55-.255l-43.368-73.297-.901-1.834-30.097-24.996 12.907 45.049-.131.851.351 1.265 2.654 30 22.417-3.457 21.699 21.226a.96.96 0 0 1 .285.64 1.01 1.01 0 0 1-.215.679.89.89 0 0 1-.353.263.82.82 0 0 1-.426.052c-.182.016-.365-.013-.534-.082l-21.104-20.651-23.352 3.603-2.866-32.163-49.938 7.19-24.676-15.246c-.1.121-.224.218-.362.283l-69.103 26.163-6.648 13.5c-.083.17-.215.309-.376.397s-.343.121-.52.094l-.312-.048c-.109-.05-.207-.123-.288-.216a.89.89 0 0 1-.178-.322.96.96 0 0 1-.038-.373c.012-.127.049-.25.108-.361l6.648-13.5.058-.378.312.048 66.833-25.933-88.037-20.302-.312-.049-27.535-6.778-6.673 12.189-18.61 31.892.478 1.333-.624-.097 3.072 62.657 15.824 38.575.269.622a1.12 1.12 0 0 1-.103.662l-.021 11.039-21.386 17.127-.388 33.452-57.576-5.032-.49-.076-6.005-12.455.303-.486 12.446-21.513 3.834-24.783-4.284-73.982-25.999-71.821a1.08 1.08 0 0 1-.3-.46 1.16 1.16 0 0 1-.043-.561l-.515-1.388-94.075-110.052-.451.56.073-.473-5.651 4.404-1.595 13.846.357 3.881 2.859 18.36-6.203 23.593-26.071 15.581-.223-.035-57.288-2.47-.238-.521-9.274-24.922 1.616-14.278-41.642-67.655-40.253-7.97-.224-.325c-4.214-6.993-6.896-14.917-7.853-23.201-.407-9.749 1.291-37.816 1.473-42.824l-7.697-2.111-.312-.049-.267-.041-24.019-6.524-95.408-5.074-21.537-11.662-23.726-101.542 5.689 10.081zm31.944 73.467l-22.201-48.036 26.229 61.492 41.849-11.783-45.877-1.673zm88.969-5.172l-36.771 6.951-45.327 12.747 20.377 6.784 25.431-6.429 64.759-31.388-28.469 11.335zm-32.988 20.515l39.352 6.717 9.721-2.128 28.713-42.387-77.786 37.798zm52.053 3.597l29.209-11.995 21.454-6.367-21.564-24.159-29.099 42.521zm52.576-18.647l10.584 2.316-15.104-24.372-17.126-2.165 21.646 24.221zm-10.197-29.859l-9.739 4.014 15.018 1.646-.546-12.385-4.437 6.287-.296.438zm74.757-1.414l-7.712-9.086-28.067 22.293 35.779-13.207zm-27.762 12.365l20.285-4.998 34.347.471-13.9-6.219-11.298-.343-29.434 11.089zm252.531 447.552l20.319-27.608-.312-.048.91-.876-12.811-45.083-4.527 51.069-3.579 22.546zm22.159-30.956l26.925-90.655-40.432 43.286 13.507 47.369zm.484 4.531l-2.279 30.35 46.371-23.917-43.879-7.224-.213.791zm59.222-648.049l-.445-.069-41.989 29.777 29.786 4.608 12.648-34.316zM653.35 12.888l24.724-21.019-12.783-11.372-11.941 32.391zM477.547 126.131l-2.291 35.143 44.232-11.269-41.941-23.874zm40.28 20.76l-15.104-17.592-21.994-3.402 37.098 20.994zm-14.188-19.387l18.644 21.819 12.307-3.52-1.883-23.778-.055-1.123.073-.473.096-.615 12.055-51.405-74.111-12.191-13.433 48.819 19.971 18.248 26.336 4.219zm142.122 126.88l8.3 2.93 8.047-38.756 3.939-41.377-23.483 53.076 2.157 23.482 1.884-.096-.844.741zm4.912 166.576l29.743 1.647-55.797-40.4-12.651 12.232 38.705 26.521zm-36.301-22.614l13.497 18.844a.9.9 0 0 1 .38.166.95.95 0 0 1 .274.322l.514 1.097.179.318 17.547 1.504-32.391-22.251zm8.828-17.279l-46.052-3.492 33.201 15.838 12.851-12.346zm3.535-1.632l120.158-34.682-48.569-42.624-17.107-.515-65.878 49.229-.223-.035-45.385-3.679 4.444 27.855-.852.207 53.412 4.244zm-78.727-261.726l-12.352 2.932 24.752 19.471 32.299 7.224-42.213-29.485-2.886.086.4-.228zm1.353-2.261l-3.389-44.399-11.217 48.048 14.606-3.649zm-14.747 6.92l1.83 23.238 61.2 6.949-1.155-2.261-36.7-8.244-25.175-19.682zm62.887 26.097l3.334 4.971-.175 1.135-18.634 65.933 44.516-48.175 24.512-19.647 11.695-39.645-109.304 4.302 44.056 31.126zm33.498 68.138l-.065.426 10.424 11.298 24.959-56.431-14.545-16.779-23.268 18.677 2.283 40.645c.159.105.282.261.351.445s.083.389.037.584l-.176 1.135zm-4.131-41.076l-44.686 48.391.445.069 40.116 20.056 6.52-27.709-2.395-40.807zm26.184-21.907l14.679 16.799 10.614-7.607-14.077-47.216-11.216 38.024zm29.163 146.259l15.601.525 1.686-40.37c-7.693 16.728-15.747 34.902-17.221 39.71l-.066.135zm18.403-45.58l41.098-47.591-69.781 7.559 28.683 40.032zm-14.056-16.703l-.084 9.672-.779 17.12 13.704-9.018-12.841-17.774zm55.26-33.051l-27.339-32.511-34.614-7.582-8.621 47.772 70.574-7.679zm-57.12 30.632l-14.769-20.638-5.77 4.289 20.419 26.258.083-9.672.037-.237zm-15.24-22.309l8.474-47.117-9.696 6.975-4.222 44.384 5.444-4.242zm10.5-50.194l32.544 7.117-46.456-53.338 13.912 46.221zm35.586 7.782L743.08 202.9l.772-44.773-75.474-42.282 47.17 54.611zm29.102 34.672l8.145 13.948-7.534-50.61-.611 36.662zm.32 4.118l3.752 47.361 5.061-30.066-.422-2.874-8.391-14.421zm-1.917-1.459L701.8 255.498c.002.129-.018.257-.059.379l33.428 52.678 12.188-44.895-4.304-55.873zm-8.279 103.322l-33.48-52.638-1.734 42.445 48.175 42.224-12.961-32.031zm-36.751-52.708l-12.993 8.547-11.863 10.078c1.245 2.856 6.09 13.679 8.039 19.646 3.402-8.433 12.58-28.563 16.817-38.271zm-14.375 7.462l.822-17.695-21.186-27.491-7.767 37.541 16.638 17.102 11.493-9.457zm-43.012-35.227l-10.388-11.534-6.139 25.831 18.534 8.387-2.007-22.684zm-18.616 15.426l-40.301-20.036-.846-.131-60.379 33.13 119.302-4.983-17.776-7.98zm-23.537-89.503l-62.982 36.989 44.534 28.924 18.448-65.913zm-.434-1.907l-61.779-7.039-.907 43.88 62.686-36.841zm-63.544-6.828l-10.253 2.918-1.423.361 10.783 36.681.893-39.96zm-58.96-21.131l-54.463 27.895 52.179 6.91 2.284-34.805zm-8.642 37.889L375.304 178.5l25.49 14.113 66.109-28.031zm-64.341 29.273l21.886 15.009 45.653-43.738-67.539 28.729zm64.982-31.353l-49.144-6.488-42.623 7.934-32.246 13.947 29.033-.836 94.98-14.557zm-128.101 15.003l35.567-15.371 36.148-6.756-70.633-6.085-1.082 28.212zm-.742-27.622l-36.374 19.41 35.166 8.443 1.208-27.853zm-36.728 37.613l46.697-3.624-10.283-3.964-36.414 7.588zm113.165-33.682l-31.973-24.656-.4-.062-39.336 18.516 71.709 6.202zm3.22.111l56.005-28.722-88.305 3.821 32.3 24.901zm56.156-30.588l-18.351-16.931-66.69 20.58 85.041-3.649zm-5.788-66.902l-59.003 10.97 46.233 36.209 12.77-47.179zm2.576-2.216l74.629 11.787a.81.81 0 0 1 .542-.255.81.81 0 0 1 .533.151.88.88 0 0 1 .328.467l3.672 48.463 96.016-81.372-25.683-7.847a.47.47 0 0 1-.356-.055c-.111-.122-.197-.267-.253-.427l25.643-7.51-28.451-4.401-83.983 9.188-.927.099a.64.64 0 0 1-.49-.076l-87.51 7.238 26.29 24.552zm176.711-22.447l2.246-14.52-25.495 7.436 23.249 7.083zm9.293-49.169L542.524 19.666l75.866-9.475 38.916-27.589zm3.821-3.186l-57.692-7.52-65.779 47.405 123.471-39.884zM648.072 35.22l-95.282 81.05 110.09-4.374-.829-2.889.498.61-14.477-74.396zm16.091 72.806l4.539-24.625-17.523-41.743 12.984 66.368zm6.175-25.776l39.584 24.671-58.179-68.905 18.595 44.234zm-.062 2.17l-5.008 27.071 46.048-1.496-41.04-25.574zm-2.69 28.883l74.226 41.508-27.851-43.051-46.375 1.543zm76.705 41.988l5.492-19.296-32.086-21.865 26.594 41.161zm6.022-21.248l2.639-11.166-33.127-9.532 30.488 20.698zm.427 5.199l-5.243 18.27 9.182 61.47 4.521-39.834-8.46-39.906zm-1.469 124.716l-12.497 45.719 27.625-3.523-9.861-73.586-5.267 31.39zm-12.426 47.619l12.439 30.981 14.422-34.283-26.861 3.302zm11.663 35.704l-.267-.042a1.1 1.1 0 0 1-.424-.501l-119.566 34.095 137.173 33.328-16.375-67.136a.86.86 0 0 1-.512.066l-.029.19zm-119.54 35.988l54.698 39.552 80.842-6.865-135.54-32.687zm54.257 41.808l-21.075 10.106 45.375 27.02-24.3-37.126zm-3.339-.516l-27.532-1.499 8.065 10.933 19.467-9.434zm-30.106-1.655l-19.706-1.693 17.985 39.927 10.946-25.959-9.225-12.275zm-1.689 42.742l-.372-.832-14.502 10.638 23.133 8.422-8.288-18.038.029-.19zm-1.155-2.551l-19.372-43.047-16.131-22.447 1.867 74.867 17.118 2.212.802.124 15.716-11.709zm-16.588 13.512l-17.066-2.253 17.904 50.471-.838-48.218zm-18.435-.77l-16.066 42.262 34.806 10.76-18.74-53.022zm-2.406-80.52L573.678 378.2l37.665 91.302-1.836-74.185zm-37.825-17.183l-18.813 9.923-.284 19.811 56.27 60.329-37.173-90.063zm.534-3.453l-4.609-29.14 46.964 3.779 65.671-49.068.095-.615a222.06 222.06 0 0 0-8.867-22.244l-17.271-18.023-10.201-3.612-106.431 88.284 34.649 30.639zm68.956-118.925l-123.56 5.1 19.062 81.595 104.498-86.695zm-61.534-31.311l-44.125-28.909-.081 3.765-1.076-3.654-16.593 62.762 61.875-33.964zm-46.232-32.092l-11.754-40.125-63.749 77.308 75.393-36.764.11-.419zm-13.847-40.449l-44.543 11.512-18.525 64.933 63.068-76.445zm-46.987 13.459l-46.623 44.701 28.114 20.427 18.509-65.128zm-46.863 46.843l9.986 69.828 17.801-49.645-27.787-20.183zm-1.025 6.622l-4.321 67.42 4.624 4.59-2.244 8.321 4.92-2.338 6.63-11.323-9.609-66.67zm2.643 80.169l-4.595 2.001 3.479 41.459 1.116-43.46zm.284 59.755l-3.43 30.124 12.931-2.842 7.7 6.518 4.442-14.277-20.191-75.765-1.452 56.242zm9.106 29.545l-14.481 3.135 3.735-32.692-4.733-55.455-32.655 93.208 17.434 7.54 35.705 7.315 2.597-16.79-7.602-6.261zm-31.89 17.537l-16.143-7.34 6.682 36.967 9.541-2.737-.08-26.89zm1.786 27.057l1.872.87 5.132-10.78-6.951-14.005-.053 23.915zm-20.15-35.661l-11.886-35.738.665 61.122 17.949 12.462-6.728-37.846zm.884-3.059l29.942-85.395-10.401 17.132-7.48 2.378-.002 5.618-5.839 6.506-5.751-7.621-11.531 1.751-1.602 20.964 12.664 38.667zm1.11-63.462l5.096 6.841 4.027-4.219.06-6.287 8.103-2.572 14.259-23.509 2.888-9.239-3.479-3.444-18.888 20.13-13.816-1.459-2.641 17.073-17.033-3.942 17.354 11.595 4.07-.968zm-1.955-25.969l13.452 1.451 18.067-19.24-44.046-22.94-1.997 19.982 14.524 20.747zm-12.287-42.871l44.447 23.293 4.709-73.463-46.61 23.396-2.665 26.659.119.115zm26.373-40.812l21.348-10.693-20.867-6.861-.481 17.554zm18.13-13.758l-18.395-12.822-28.052-15.526-28.936.802 56.625 21.787c.111-.096.242-.161.382-.19a.81.81 0 0 1 .418.023l17.958 5.926zm-72.239-21.345l-56.992 4.453 26.022 20.103 30.97-24.556zm-12.174-7.065l-34.118-8.135-12.706 17.889 46.824-9.754zm-41.079-19.721l-9.45 31.614 15.457-21.822 39.746-21.165.087-.567 22.125-87.912-67.965 99.852zm47.887-12.496l39.728-18.697-21.971-20.058 10.49-27.434-6.043-22.533-22.204 88.722zm40.681-20.438l-11.619-42.767-9.17 23.909 20.789 18.858zm-17.049-70.436l5.751 21.762 6.882-17.967-12.633-3.795zm18.783-6.78l-3.645 9.412 25.06 7.46-21.415-16.873zm22.643 18.951l-.036.236-26.708-8.006-7.715 20.405 12.413 46.183 70.67-21.853-47.141-37.124-1.483.158zm2.176-2.279l60.597-11.256-26.55-24.641-34.047 35.896zm38.422-39.723l-1.999 1.725 87.741-7.25 19.655-35.701-105.397 41.227zm107.999-42.132l-19.013 34.493 66.734-48.274 20.786-24.146-68.507 37.927zm72.071-39.457l-21.932 25.664 57.566 7.453-35.486-33.481-.148.365zm2.217-.771l36.571 34.714a.86.86 0 0 1 .202.467l13.274 11.739 22.7-51.26-72.747 4.34zm73.407-1.235L680.589-8.178l.356.055-28.744 24.61-2.502 16.175 63.661 75.613-10.897-165.903zm47.133 155.044L704.615-53.857l10.819 164.051 37.692 10.674-3.53-23.452zm2.006 1.473l3.202 22.627 84.792 25.95-87.994-48.577zm93.752 52.325l-89.626-27.424 11.298 23.927-.544 40.353 78.872-36.856zm-80.77 37.628l.64-40.677-10.954-23.197-2.404 10.234-.066.426 9.173 43.26 5.744 21.809-2.133-11.855zm5.97 33.612l-10.157-38.667-4.783 42.409-.065.426 9.702 72.253 5.303-76.421zm-4.496 85.941l-.357-.055-14.856 35.33 44.266-9.133-29.053-26.142zm-15.543 37.403l16.359 66.649 29.354-75.994-45.713 9.345zm48.162-8.966l17.436 46.718 101.204-45.653-118.64-1.065zm107.719-54.767l-20.888-2.892 33.68 52.524-12.792-49.632zm19.768 2.768l-17.853-2.472 12.888 49.598 4.965-47.126zm72.065 95.848l-6.025 23.621 11.626 66.304-5.601-89.925zm8.301 104.871l26.45-86.953.07-.473-33.217-23.396-.044.284 6.741 110.538zm-8.484-110.469l-.153-2.251-1.163-9.865-3.06 29.503 4.376-17.387zm1.641-2.651l33.293 23.504-2.47-36.799-20.8-12.903-11.756 6.752-.226 1.466 1.959 17.98zm8.253-27.393l-52.089-32.562 40.802 39.194 11.287-6.632zm-12.118 9.651l.102-.662-71.224-15.231 65.861 63.459.311-.243 4.95-47.323zm-1.772-2.986l-45.292-43.472-25.45 28.364 70.742 15.108zm-46.549-44.78l-19.598-20.66-5.164 48.113 24.762-27.453zm42.73-13.342l-60.616-8.07 19.606 20.612 60.639 37.71a.87.87 0 0 1 .5.104.94.94 0 0 1 .38.372l20.53 12.862a.84.84 0 0 1 .52.139.89.89 0 0 1 .35.431l16.25 10.166-58.159-74.326zm37.559 9.49l-.31-.048-2.01-.31-25.969-6.875 27.479 16.89 60.91-20.989-60.1 11.332zm89.31 75.416l4.74 64.561-.42 32.187.7.449 11.3-118.402-31.99-64.321 15.67 85.526zm-33.01-45.978l30.53 42.544-15.41-83.065-16.09 40.612.97-.091zm-2.96.316l16.89-42.618-69.34 23.898a1.03 1.03 0 0 1-.11.709c-.08.126-.18.23-.31.304-.12.074-.26.115-.4.12l14.26 21.868 39.01-4.281zm-39.71 6.449l-16.88-25.81-31.467-19.395 57.327 73.519-8.98-28.314zm9.47 32.507l-18.66-11.654 2.39 35.481 16.27-23.827zm-5.23 33.816l-11.28-4.845-25.99 85.473 18.16-19.273 21.79-38.858-2.68-22.497zm-37.49 83.501l45.45 10.952-26.4-31.203-19.05 20.251zm40.53-57.752l-20.29 36.233 26.59 31.475-6.3-67.708zm72.67 352.124l-.11.709 10.81-7.093-10.7 6.384zm12.53-9.637l-9.04-16.702-3.16 23.967 12.2-7.265zm-8.64-19.931l10.21 18.868 10.07-6.095-3.52-14.395-20.85-2.838 4.09 4.46zm39.38 1.586l-20.63-2.803 3.2 13.183 17.43-10.38zm-18.33 14.406l-9.23 6.078 19.52 36.192-10.29-42.27zm-10.75 7.053l-14.54 9.422-.3 1.939 35.68 27.168-20.84-38.529zm20.62 40.867l-36.14-27.48-14.19 26.862 50.33.618zm-37.17-29.964l-6.35 4.2 6.3-3.869.05-.331zm-38.51 19.952l12.16 2.752 5.14-8.502.94-2.519.05-.331 1-2.606-19.29 11.206zm13.81 3.541l9.65 5.706 13.55-25.702-17.24 10.07-5.96 9.926zm7.16-14.148l17.87-11.764.13-.851-17.03 10.198-.97 2.417zm1.83-5.334l16.33-9.775 3.64-27.67-4.31-4.588-15.66 42.033zm16.45-44.478l20.19 2.688-16.67-15.075-3.52 12.387zm-2.25-57.638l.34.731 5.81 42.351 18.79 17.048 9.89-17.404-39.79-72.259 5.11 28.877c.06.22.06.457-.02.676l-.13-.02zm-11.73-30.29l8.84 22.772-4.73-26.883-.19-.271 28.99-66.606-48.04-1.234 14.73 52.159c.03.193 0 .395-.09.567l.49 19.496zm-16.14-69.183l-.99 6.338 10.28 25.804-9.29-32.142zm-12.83 37.242l27.29 29.841-.26-17.427-16.08-40.745-10.95 28.331zm10.41-33.741l1.13-7.283-13.94-20.413 12.81 27.696zm-14.22-32.419l16.9 23.971 47.59 1.212-79.62-81.763 15.13 56.58zm-2.1-.857l-15.34-57.338-51.44 37.806a.88.88 0 0 1-.39.472l67.17 19.06zm-67.69-20.981l50.7-37.437-46.76-11.301-3.94 48.738zm2.21-49.635c-.2-.17-.33-.415-.35-.684l-.12-2.488-11.258-64.262 8.448 109.833 3.28-42.399zm-4.5 50.298l-10.179-134.314-73.779 90.284 83.958 44.03zm-12.833-133.95l-113.448 92.38 40.171-2.987c.161-.239.398-.409.666-.478l72.611-88.915zm26.793 386.722l-8.35-40.034-47.925 39.271 56.275.763zm-69.965-12.47l10.668 10.61 16.33-50.744-26.998 40.134zm30.636-45.383l-17.684 55.377 48.243-39.56-29.463-51.193-1.096 35.376zm31.159 13.44l3.94-21.085 13.7-17.252-47.569-13.703 29.929 52.04zm-30.775-55.997l27.015-54.417-42.385-55.76 15.37 110.177zm-23.702-69.576l20.656 60.679-14.06-101.549-6.596 40.87zm6.505-45.291l40.183-34.899-79.638 32.67 39.455 2.229zm-41.512-3.371l81.105-33.314-82.07-42.963.965 76.277zm-1.822-2.073l-.924-74.479-41.134 3.031 42.058 71.448zm73.603-169.007l-65.727-63.438.591 2.368-1.972-3.163-48.36 158.19 115.468-93.957zm-117.374 94.195l48.47-158.609-103.249 46.499 54.779 112.11zm-2.532-1.022l-50.144-102.578 21.497 79.115.445.069 28.202 23.394zM802.9 527.901l42.9-6.196-64.493-7.169 21.593 13.365zm49.107-7.416l-12.781-44.69-59.059 36.676 71.84 8.014zm-74.786-8.421l61.333-38.116a.86.86 0 0 1 .088-.568l-23.935-88.112-17.436-46.717-29.737 77 .307 1.258-1.024-.159-1.318 1.443-79.426 6.551.535.374-1.336-.207 25.73 39.962-.319 13.849 66.538 33.442zm-7.406-1.63l-59.796-30.171-20.984 11.282 80.78 18.889zm-83.629-19.33l22.813-12.5.293-12.207-48.096 18.565 24.99 6.142zm21.931-26.245l-47.678-28.635-11.426 26.998 9.496 20.84 49.608-19.203zm-51.363 20.821l-21.603-7.701 16.55 17.379 5.053-9.678zm-6.311 11.324l-18.431-19.365 1.092 49.226 17.339-29.861zm-19.181 39.116l-25.858 86.995 28.9-28.266-3.042-58.729zm3.306 60.852l-29.521 29.042 44.457 7.313-14.936-36.355zm15.333 48.233l.065-7.787-15.305 19.958 15.24-12.171zm-1.761-8.36l-44.571 22.888 25.263 2.02 19.308-24.908zm-19.601 26.799l-26.071-2.096 25.795 32.466.276-30.37zm-28.334-1.913l-17.218 13.172-.017 6.293 42.547 12.297-25.312-31.762zm-27.119 27.96l46.468 4.041-37.692-10.673-13.291-2.492 4.515 9.124zm6.412-29.662c-.063.092-.146.168-.241.22a.65.65 0 0 1-.308.082l-10.546 18.079 12.801 2.416.015-6.874 18.153-13.609.592-.296 2.295-30.154-22.761 30.136zm10.282-86.209l40.38-43.246-35.029-10.794-5.351 54.04zm-5.895 46.354l3.875-43.615-7.233-14.243 3.358 57.858zm-3.65-62.455l8.223 15.509 5.344-53.993-.223-.034.051-.331-38.104-30.109 24.709 68.958zm13.948-40.653l16.184-42.727-55.196 11.413 39.012 31.314zm-40.39-33.609l.329.825 56.53-11.788-57.794-61.969.935 72.932zm-94.247-113.953l.02 2.23-.161 1.041 92.462 108.107-.958-72.789.265-21.751 19.88-10.63-35.161-30.864-.519.404-19.84-84.815-.178-.027a.87.87 0 0 1-.324-.142.91.91 0 0 1-.245-.264c-.064-.104-.108-.221-.129-.345s-.019-.25.006-.373a.9.9 0 0 1 .19-.427c.1-.121.228-.212.372-.261l.066-.426.579.09 16.806-63.552-77.186 37.455 4.055 137.339zm-5.633-132.74l-17.565 49.003 21.355 82.095-3.79-131.098zm3.11 135.497l-22.02-84.281-5.573 9.502c.171.125.289.317.328.535l20.939 78.592 6.326-4.348zm-5.755 42.21l-2.821-18.015-.379-4.03.604-5.379-2.358 7.577-2.758 17.831 5.887 8.804 1.825-6.788zm-7.39 23.313l-19.137-5.963-2.993 19.344 22.13-13.381zm-19.438-7.85l21.045 6.597 3.333-12.705-6.832-10.064-34.465-7.075 8.046 15.772 8.873 7.475zm-4.848 22.205l3.241-20.952-7.87-6.593-5.11 10.638 4.805 16.676 4.934.231zm-6.566-.29l-4.641-15.972-2.517-1.116-10.838 3.166-27.036 12.089 45.032 1.833zm-57.427-26.027l8.804 23.542 28.353-12.951-18.705-12.579-17.004-10.912-1.448 12.9zm-88.356-113.429c.917 7.814 3.432 15.291 7.369 21.915l37.818 7.497-43.916-69.749c-.406 7.927-1.453 31.495-1.271 40.337zm1.544-44.169l-.065.425 46.187 73.637-.044.283 41.895 68.081 15.392 9.839-61.233-133.156c-.067-.096-.114-.205-.14-.322a.97.97 0 0 1-.012-.356.96.96 0 0 1 .119-.336c.06-.102.138-.192.23-.263.194-.148.432-.21.665-.174s.442.167.582.366l61.173 132.663-.596-63.047c-.001-.145.021-.289.066-.426l1.564-21.308.168-1.088 7.053-1.089-24.255-16.198 25.256 5.893 2.415-15.607-14.674-20.963-.372-.542 2.143-21.219-59.115-3.334-1.159-.76a.67.67 0 0 1 .044-.284l40.824-30.199 24.321 5.457 21.785-11.158.517-18.661-49.052-18.872 8.241 10.089 11.432.364 22.647 10.089-43.249-.685-34.165 8.371-26.839-20.714.476 11.067 15.715 25.434c.105.168.146.373.115.574s-.132.385-.284.513c.021.08.025.163.012.245s-.041.159-.085.228a.89.89 0 0 1-.328.566c-.175.137-.392.195-.605.162l-11.956-2.576-21.721 6.325-9.428 31.472 8.34 1.194zm47.432-10.145l56.214 3.224 2.644-26.226-58.858 23.002zm56.778-24.293l-19.83-4.423-35.336 25.963 55.166-21.54zm-105.089 1.516l-30.202 12.52-8.067 1.754 28.943 15.955 9.326-30.229zm-127.981 18.944l94.963 5.005 16.359 4.468-24.672-13.503-42.01-7.225-25.86 6.557-22.107-7.391 3.327 12.089zm-21.069-11.153l18.805 10.173-3.402-12.197-35.132-82.919 19.729 84.943z" fill="url(#D)" style="mix-blend-mode:overlay"/><path d="M99.666 152.615L132.764 224.226L183.307 226.089L219.841 219.198L280.521 195.025L291.422 158.453L362.693 54.0276L363.048 53.5014L378.124 58.0128L382.698 46.1292L406.55 64.9285L441.026 28.6142L440.387 28.031L441.677 27.9401L445.683 24.4434L553.823 -17.7154L625.544 -57.5659L626.441 -58.0568C626.685 -58.1163 626.939 -58.077 627.153 -57.9465L703.661 -62.7216L751.189 96.5482L848.274 150.309L850.531 151.046L766.553 190.259L772.29 222.431C772.29 222.431 772.29 222.431 772.253 222.667L766.432 306.563L797.65 335.219L919.175 336.198L918.499 335.56L919.523 335.719L882.762 278.65C882.756 278.538 882.774 278.425 882.813 278.319C882.996 278.281 883.185 278.31 883.348 278.402V278.402L905.668 281.467L887.028 209.526L800.778 216.571L794.207 196.571C794.136 196.339 794.149 196.085 794.243 195.859C794.336 195.632 794.505 195.448 794.716 195.342C794.937 195.263 795.176 195.272 795.388 195.367C795.6 195.463 795.771 195.638 795.867 195.859L802.298 213.223L887.992 206.237L888.438 206.306L907.474 279.81L926.982 282.489L987.911 291.188L904.19 218.525L918.079 198.881C918.226 198.681 918.439 198.544 918.674 198.5C918.908 198.456 919.149 198.506 919.347 198.642C919.535 198.793 919.656 199.019 919.686 199.268C919.716 199.518 919.651 199.771 919.506 199.974L906.615 218.174L991.072 291.677L991.473 291.739C991.608 291.583 991.789 291.481 991.985 291.45C992.181 291.418 992.38 291.46 992.548 291.566L993.885 292.354L1023.45 300.172L1023.85 300.234L1027.72 300.833L1099.99 287.509L1100.67 287.274L1134.88 356.056L1173.55 351.869C1173.79 351.845 1174.02 351.918 1174.2 352.072C1174.38 352.227 1174.49 352.45 1174.52 352.696C1174.53 352.821 1174.51 352.947 1174.47 353.067C1174.44 353.186 1174.38 353.297 1174.3 353.393C1174.22 353.489 1174.12 353.568 1174.02 353.625C1173.91 353.683 1173.79 353.718 1173.68 353.728L1135.15 357.889L1124.22 476.298C1124.22 476.411 1124.21 476.524 1124.16 476.629L1166.25 502.801C1166.46 502.93 1166.6 503.139 1166.66 503.384C1166.71 503.628 1166.68 503.888 1166.55 504.107C1166.47 504.26 1166.34 504.384 1166.19 504.464C1166.04 504.544 1165.87 504.577 1165.71 504.557L1165.35 504.502L1122.68 478.531L1122.42 478.49L1122.02 478.428L1120.23 477.037L1119.78 476.968L1120.08 443.793L1115.39 379.821L1083.24 335.088L1043.35 339.475L1043.98 340.444C1044.07 340.633 1044.1 340.85 1044.07 341.063C1044.04 341.276 1043.94 341.473 1043.8 341.626L1053.28 371.666C1053.48 371.801 1053.61 372.013 1053.66 372.255C1053.71 372.498 1053.66 372.752 1053.54 372.964C1053.46 373.122 1053.33 373.25 1053.18 373.331C1053.03 373.411 1052.86 373.441 1052.69 373.415L1052.2 373.339L1034.58 398.846L1034.48 399.508L1046.79 404.803L1049.33 426.069C1049.36 426.197 1049.33 426.331 1049.27 426.447L1057.08 501.216L1140.28 586.727L1164.3 587.297C1164.42 587.302 1164.54 587.332 1164.65 587.385C1164.75 587.438 1164.85 587.514 1164.93 587.607C1165.01 587.7 1165.07 587.81 1165.11 587.928C1165.14 588.047 1165.16 588.173 1165.15 588.3C1165.13 588.544 1165.02 588.772 1164.85 588.942C1164.69 589.112 1164.47 589.212 1164.23 589.223L1140.76 588.594L1111.88 655.072L1154.59 732.579L1144.26 750.786L1170.07 754.247L1147.99 768.797L1160.35 819.719L1104.12 819.253L1092.79 812.657L1075.57 808.734L1100.98 793.584L1117.91 748.114L1122.03 733.546L1116.29 691.397L1104.25 660.478L1074.86 628.232L1086.81 597.003L1070.81 563.342C1070.78 563.224 1070.77 563.098 1070.79 562.975C1070.81 562.852 1070.86 562.735 1070.92 562.633L1002.18 543.136L960.63 579.228L1004.89 637.649L1005.27 638.144L977.034 694.505L1024.09 708.031L1004.94 673.252C1004.87 673.156 1004.83 673.047 1004.8 672.931C1004.77 672.814 1004.77 672.693 1004.79 672.575C1004.81 672.456 1004.85 672.342 1004.91 672.239C1004.97 672.136 1005.05 672.046 1005.14 671.975C1005.33 671.827 1005.57 671.765 1005.8 671.801C1006.04 671.837 1006.24 671.969 1006.38 672.168L1026.95 709.54L1012.19 728.322L1007.97 750.914L1008.18 751.334L1017.15 794.708L955.764 793.687L942.606 780.61L973.982 734.566L975.2 697.223L975.273 696.75L975.115 695.709L974.777 693.477L951.179 624.111L906.234 604.034C906.014 603.936 905.841 603.748 905.753 603.512C905.666 603.276 905.671 603.011 905.768 602.775C905.865 602.54 906.045 602.353 906.27 602.256C906.494 602.159 906.744 602.16 906.965 602.258L951.175 622.076L957.672 580.078C957.666 579.981 957.681 579.884 957.716 579.794L916.815 577.486C916.739 577.586 916.641 577.665 916.529 577.715C916.418 577.766 916.297 577.786 916.178 577.775L915.821 577.72C915.715 577.725 915.609 577.709 915.51 577.671V577.671C915.32 577.593 915.163 577.449 915.063 577.262C914.963 577.075 914.927 576.856 914.96 576.642C914.993 576.428 915.094 576.23 915.245 576.082C915.397 575.934 915.591 575.844 915.795 575.827L872.427 502.53L871.526 500.696L841.429 475.7L854.337 520.749L854.205 521.6L854.556 522.865L857.21 552.865L879.627 549.408L901.326 570.634C901.496 570.799 901.598 571.028 901.611 571.274C901.624 571.52 901.547 571.763 901.396 571.953C901.3 572.07 901.179 572.161 901.043 572.216C900.907 572.271 900.761 572.289 900.617 572.268C900.435 572.284 900.252 572.255 900.083 572.186L878.979 551.535L855.627 555.139L852.761 522.975L802.823 530.165L778.147 514.919C778.047 515.04 777.923 515.137 777.785 515.202L708.682 541.365L702.034 554.865C701.951 555.035 701.819 555.174 701.658 555.262C701.497 555.351 701.315 555.383 701.138 555.356L700.826 555.308C700.717 555.258 700.619 555.185 700.538 555.092C700.458 555 700.397 554.89 700.36 554.77C700.323 554.65 700.31 554.523 700.322 554.397C700.334 554.27 700.371 554.147 700.43 554.036L707.078 540.536L707.136 540.158L707.448 540.206L774.281 514.273L686.244 493.971L685.932 493.922L658.397 487.144L651.724 499.333L633.114 531.225L633.592 532.558L632.968 532.461L636.04 595.118L651.864 633.693L652.133 634.315C652.167 634.54 652.131 634.773 652.03 634.977L652.009 646.016L630.623 663.143L630.235 696.595L572.659 691.563L572.169 691.487L566.164 679.032L566.467 678.546L578.913 657.033L582.747 632.25L578.463 558.268L552.464 486.447C552.328 486.325 552.224 486.166 552.164 485.987C552.104 485.808 552.089 485.614 552.121 485.426L551.606 484.038L457.531 373.986L457.08 374.546L457.153 374.073L451.502 378.477L449.907 392.323L450.264 396.204L453.123 414.564L446.92 438.157L420.849 453.738L420.626 453.703L363.338 451.233L363.1 450.712L353.826 425.79L355.442 411.512L313.8 343.857L273.547 335.887L273.323 335.562C269.109 328.569 266.427 320.645 265.47 312.361C265.063 302.612 266.761 274.545 266.943 269.537L259.246 267.426C259.246 267.426 259.246 267.426 258.934 267.377L258.667 267.336L234.648 260.812L139.24 255.738L117.703 244.076L93.9769 142.534L99.666 152.615ZM131.61 226.082L109.409 178.046L135.638 239.538L177.487 227.755L131.61 226.082ZM220.579 220.91L183.808 227.861L138.481 240.608L158.858 247.392L184.289 240.963L249.048 209.575L220.579 220.91ZM187.591 241.425L226.943 248.142L236.664 246.014L265.377 203.627L187.591 241.425ZM239.644 245.022L268.853 233.027L290.307 226.66L268.743 202.501L239.644 245.022ZM292.22 226.375L302.804 228.691L287.7 204.319L270.574 202.154L292.22 226.375ZM282.023 196.516L272.284 200.53L287.302 202.176L286.756 189.791L282.319 196.078L282.023 196.516ZM356.78 195.102L349.068 186.016L321.001 208.309L356.78 195.102ZM329.018 207.467L349.303 202.469L383.65 202.94L369.75 196.721L358.452 196.378L329.018 207.467ZM581.549 655.019L601.868 627.411L601.556 627.363L602.466 626.487L589.655 581.404L585.128 632.473L581.549 655.019ZM603.708 624.063L630.633 533.408L590.201 576.694L603.708 624.063ZM604.192 628.594L601.913 658.944L648.284 635.027L604.405 627.803L604.192 628.594ZM663.414 -19.4548L662.969 -19.5236L620.98 10.2529L650.766 14.8608L663.414 -19.4548ZM653.35 12.8877L678.074 -8.1309L665.291 -19.5034L653.35 12.8877ZM477.547 126.131L475.256 161.274L519.488 150.005L477.547 126.131ZM517.827 146.891L502.723 129.299L480.729 125.897L517.827 146.891ZM503.639 127.504L522.283 149.323L534.59 145.803L532.707 122.025L532.652 120.902L532.725 120.429L532.821 119.814L544.876 68.4091L470.765 56.2179L457.332 105.037L477.303 123.285L503.639 127.504ZM645.761 254.384L654.061 257.314L662.108 218.558L666.047 177.181L642.564 230.257L644.721 253.739L646.605 253.643L645.761 254.384ZM650.673 420.96L680.416 422.607L624.619 382.207L611.968 394.439L650.673 420.96ZM614.372 398.346L627.869 417.19C628.006 417.215 628.136 417.271 628.249 417.356C628.362 417.44 628.456 417.55 628.523 417.678L629.037 418.775L629.216 419.093L646.763 420.597L614.372 398.346ZM623.2 381.067L577.148 377.575L610.349 393.413L623.2 381.067ZM626.735 379.435L746.893 344.753L698.324 302.129L681.217 301.613L615.339 350.843L615.116 350.808L569.731 347.129L574.175 374.984L573.323 375.191L626.735 379.435ZM548.008 117.709L535.656 120.641L560.408 140.112L592.707 147.336L550.494 117.851L547.608 117.937L548.008 117.709ZM549.361 115.448L545.972 71.0485L534.755 119.097L549.361 115.448ZM534.614 122.368L536.444 145.606L597.644 152.555L596.489 150.294L559.789 142.05L534.614 122.368ZM597.501 148.465L600.835 153.436L600.66 154.571L582.026 220.504L626.542 172.329L651.054 152.682L662.749 113.037L553.445 117.339L597.501 148.465ZM630.999 216.603L630.933 217.029L641.358 228.327L666.317 171.896L651.772 155.117L628.504 173.794L630.787 214.439C630.946 214.544 631.069 214.7 631.138 214.884C631.208 215.069 631.221 215.273 631.175 215.468L630.999 216.603ZM626.868 175.527L582.182 223.918L582.627 223.987L622.743 244.043L629.263 216.334L626.868 175.527ZM653.052 153.62L667.731 170.419L678.345 162.812L664.268 115.596L653.052 153.62ZM682.215 299.879L697.816 300.404L699.502 260.034C691.809 276.762 683.755 294.936 682.281 299.744L682.215 299.879ZM700.618 254.299L741.716 206.708L671.935 214.267L700.618 254.299ZM686.562 237.596L686.478 247.268L685.699 264.388L699.403 255.37L686.562 237.596ZM741.822 204.545L714.483 172.034L679.869 164.452L671.248 212.224L741.822 204.545ZM684.702 235.177L669.933 214.539L664.163 218.828L684.582 245.086L684.665 235.414L684.702 235.177ZM669.462 212.868L677.936 165.751L668.24 172.726L664.018 217.11L669.462 212.868ZM679.962 162.674L712.506 169.791L666.05 116.453L679.962 162.674ZM715.548 170.456L743.08 202.9L743.852 158.127L668.378 115.845L715.548 170.456ZM744.65 205.128L752.795 219.076L745.261 168.466L744.65 205.128ZM744.97 209.246L748.722 256.607L753.783 226.541L753.361 223.667L744.97 209.246ZM743.053 207.787L701.8 255.498C701.802 255.627 701.782 255.755 701.741 255.877L735.169 308.555L747.357 263.66L743.053 207.787ZM734.774 311.109L701.294 258.471L699.56 300.916L747.735 343.14L734.774 311.109ZM698.023 258.401L685.03 266.948L673.167 277.026C674.412 279.882 679.257 290.705 681.206 296.672C684.608 288.239 693.786 268.109 698.023 258.401ZM683.648 265.863L684.47 248.168L663.284 220.677L655.517 258.218L672.155 275.32L683.648 265.863ZM640.636 230.636L630.248 219.102L624.109 244.933L642.643 253.32L640.636 230.636ZM622.02 246.062L581.719 226.026L580.873 225.895L520.494 259.025L639.796 254.042L622.02 246.062ZM598.483 156.559L535.501 193.548L580.035 222.472L598.483 156.559ZM598.049 154.652L536.27 147.613L535.363 191.493L598.049 154.652ZM534.505 147.824L524.252 150.742L522.829 151.103L533.612 187.784L534.505 147.824ZM475.545 126.693L421.082 154.588L473.261 161.498L475.545 126.693ZM466.903 164.582L375.304 178.5L400.794 192.613L466.903 164.582ZM402.562 193.855L424.448 208.864L470.101 165.126L402.562 193.855ZM467.544 162.502L418.4 156.014L375.777 163.948L343.531 177.895L372.564 177.059L467.544 162.502ZM339.443 177.505L375.01 162.134L411.158 155.378L340.525 149.293L339.443 177.505ZM338.701 149.883L302.327 169.293L337.493 177.736L338.701 149.883ZM301.973 187.496L348.67 183.872L338.387 179.908L301.973 187.496ZM415.138 153.814L383.165 129.158L382.765 129.096L343.429 147.612L415.138 153.814ZM418.358 153.925L474.363 125.203L386.058 129.024L418.358 153.925ZM474.514 123.337L456.163 106.406L389.474 126.986L474.514 123.337ZM468.726 56.4351L409.723 67.4049L455.956 103.614L468.726 56.4351ZM471.302 54.2186L545.931 66.0058C546.077 65.8526 546.27 65.7615 546.473 65.7505C546.662 65.7365 546.85 65.7895 547.006 65.9013C547.162 66.0131 547.277 66.1773 547.334 66.3681V66.3681L551.007 114.831L647.022 33.459L621.339 25.6116C621.217 25.6414 621.09 25.6217 620.983 25.5565C620.872 25.434 620.786 25.289 620.73 25.1299V25.1299L646.373 17.6195L617.922 13.2183L533.939 22.4061L533.012 22.5048C532.845 22.5463 532.67 22.5192 532.522 22.429V22.429L445.012 29.6666L471.302 54.2186ZM648.013 31.772L650.259 17.2522L624.764 24.6886L648.013 31.772ZM657.306 -17.3972L542.524 19.6661L618.39 10.1914L657.306 -17.3972ZM661.127 -20.5834L603.435 -28.1039L537.656 19.3006L661.127 -20.5834ZM648.072 35.2195L552.79 116.269L662.88 111.895L662.051 109.006L662.549 109.616L648.072 35.2195ZM664.163 108.025L668.702 83.4L651.179 41.6568L664.163 108.025ZM670.338 82.2488L709.923 106.92L651.743 38.015L670.338 82.2488ZM670.276 84.4185L665.268 111.489L711.316 109.993L670.276 84.4185ZM667.586 113.301L741.812 154.809L713.961 111.758L667.586 113.301ZM744.291 155.289L749.783 135.993L717.697 114.128L744.291 155.289ZM750.313 134.041L752.952 122.875L719.825 113.343L750.313 134.041ZM750.74 139.24L745.497 157.51L754.679 218.98L759.2 179.146L750.74 139.24ZM749.271 263.956L736.774 309.675L764.399 306.152L754.538 232.566L749.271 263.956ZM736.845 311.575L749.284 342.556L763.706 308.273L736.845 311.575ZM748.508 347.279C748.508 347.279 748.508 347.279 748.241 347.237C748.054 347.12 747.907 346.945 747.817 346.736L628.251 380.831L765.424 414.159L749.049 347.023C748.887 347.097 748.71 347.12 748.537 347.089L748.508 347.279ZM628.968 383.267L683.665 422.819L764.508 415.954L628.968 383.267ZM683.225 425.075L662.15 435.181L707.525 462.201L683.225 425.075ZM679.886 424.559L652.354 423.06L660.419 433.993L679.886 424.559ZM649.78 422.904L630.074 421.211L648.059 461.138L659.005 435.179L649.78 422.904ZM648.091 465.646L647.719 464.814L633.217 475.452L656.35 483.874L648.062 465.836L648.091 465.646ZM646.936 463.095L627.564 420.048L611.433 397.601L613.3 472.468L630.418 474.68L631.22 474.804L646.936 463.095ZM630.348 476.607L613.282 474.354L631.186 524.825L630.348 476.607ZM611.913 475.837L595.847 518.099L630.653 528.859L611.913 475.837ZM609.507 395.317L573.678 378.2L611.343 469.502L609.507 395.317ZM571.682 378.134L552.869 388.057L552.585 407.868L608.855 468.197L571.682 378.134ZM572.216 374.681L567.607 345.541L614.571 349.32L680.242 300.252C680.242 300.252 680.301 299.874 680.337 299.637C677.775 292.047 674.815 284.621 671.47 277.393L654.199 259.37L643.998 255.758L537.567 344.042L572.216 374.681ZM641.172 255.756L517.612 260.856L536.674 342.451L641.172 255.756ZM579.638 224.445L535.513 195.536L535.432 199.301L534.356 195.647L517.763 258.409L579.638 224.445ZM533.407 192.353L521.652 152.228L457.903 229.536L533.296 192.772L533.407 192.353ZM519.559 151.904L475.016 163.416L456.491 228.349L519.559 151.904ZM472.572 165.363L425.949 210.064L454.063 230.491L472.572 165.363ZM425.709 212.206L435.695 282.034L453.496 232.389L425.709 212.206ZM424.684 218.828L420.363 286.248L424.987 290.838L422.743 299.159L427.663 296.821L434.293 285.498L424.684 218.828ZM427.327 298.997L422.732 300.998L426.211 342.457L427.327 298.997ZM427.611 358.752L424.181 388.876L437.112 386.034L444.812 392.552L449.254 378.275L429.063 302.51L427.611 358.752ZM436.717 388.297L422.236 391.432L425.971 358.74L421.238 303.285L388.583 396.493L406.017 404.033L441.722 411.348L444.319 394.558L436.717 388.297ZM404.827 405.834L388.684 398.494L395.366 435.461L404.907 432.724L404.827 405.834ZM406.613 432.891L408.485 433.761L413.617 422.981L406.666 408.976L406.613 432.891ZM386.463 397.23L374.577 361.492L375.242 422.614L393.191 435.076L386.463 397.23ZM387.347 394.171L417.289 308.776L406.888 325.908L399.408 328.286L399.406 333.904L393.567 340.41L387.816 332.789L376.285 334.54L374.683 355.504L387.347 394.171ZM388.457 330.709L393.553 337.55L397.58 333.331L397.64 327.044L405.743 324.472L420.002 300.963L422.89 291.724L419.411 288.28L400.523 308.41L386.707 306.951L384.066 324.024L367.033 320.082L384.387 331.677L388.457 330.709ZM386.502 304.74L399.954 306.191L418.021 286.951L373.975 264.011L371.978 283.993L386.502 304.74ZM374.215 261.869L418.662 285.162L423.371 211.699L376.761 235.095L374.096 261.754L374.215 261.869ZM400.588 221.057L421.936 210.364L401.069 203.503L400.588 221.057ZM418.718 207.299L400.323 194.477L372.271 178.951L343.335 179.753L399.96 201.54C400.071 201.444 400.202 201.379 400.342 201.35C400.482 201.321 400.626 201.329 400.76 201.373L418.718 207.299ZM346.479 185.954L289.487 190.407L315.509 210.51L346.479 185.954ZM334.305 178.889L300.187 170.754L287.481 188.643L334.305 178.889ZM293.226 159.168L283.776 190.782L299.233 168.96L338.979 147.795L339.066 147.228L361.191 59.316L293.226 159.168ZM341.113 146.672L380.841 127.975L358.87 107.917L369.36 80.4833L363.317 57.9499L341.113 146.672ZM381.794 126.234L370.175 83.4666L361.005 107.376L381.794 126.234ZM364.745 55.7977L370.496 77.5597L377.378 59.5924L364.745 55.7977ZM383.528 49.0179L379.883 58.4302L404.943 65.8905L383.528 49.0179ZM406.171 67.9692L406.135 68.2057L379.427 60.1999L371.712 80.605L384.125 126.788L454.795 104.935L407.654 67.8113L406.171 67.9692ZM408.347 65.6908L468.944 54.4349L442.393 29.7943L408.347 65.6908ZM446.769 25.9675L444.77 27.6922L532.511 20.4417L552.166 -15.2597L446.769 25.9675ZM554.768 -16.1647L535.755 18.3285L602.489 -29.9452L623.275 -54.0913L554.768 -16.1647ZM626.839 -55.6222L604.907 -29.9585L662.473 -22.506L626.987 -55.9868L626.839 -55.6222ZM629.056 -56.3931L665.627 -21.679C665.739 -21.5498 665.809 -21.3868 665.829 -21.212L679.103 -9.47307L701.803 -60.7329L629.056 -56.3931ZM702.463 -57.6283L680.589 -8.17773L680.945 -8.12263L652.201 16.4872L649.699 32.6623L713.36 108.275L702.463 -57.6283ZM749.596 97.4156L704.615 -53.8571L715.434 110.194L753.126 120.868L749.596 97.4156ZM751.602 98.8882L754.804 121.515L839.596 147.465L751.602 98.8882ZM845.354 151.213L755.728 123.789L767.026 147.716L766.482 188.069L845.354 151.213ZM764.584 188.841L765.224 148.164L754.27 124.967L751.866 135.201L751.8 135.627L760.973 178.887L766.717 200.696L764.584 188.841ZM770.554 222.453L760.397 183.786L755.614 226.195L755.549 226.621L765.251 298.874L770.554 222.453ZM766.058 308.394L765.701 308.339L750.845 343.669L795.111 334.536L766.058 308.394ZM750.515 345.797L766.874 412.446L796.228 336.452L750.515 345.797ZM798.677 336.831L816.113 383.549L917.317 337.896L798.677 336.831ZM906.396 282.064L885.508 279.172L919.188 331.696L906.396 282.064ZM926.164 284.832L908.311 282.36L921.199 331.958L926.164 284.832ZM998.229 380.68L992.204 404.301L1003.83 470.605L998.229 380.68ZM1006.53 485.551L1032.98 398.598L1033.05 398.125L999.833 374.729L999.789 375.013L1006.53 485.551ZM998.046 375.082L997.893 372.831L996.73 362.966L993.67 392.469L998.046 375.082ZM999.687 372.431L1032.98 395.935L1030.51 359.136L1009.71 346.233L997.954 352.985L997.728 354.451L999.687 372.431ZM1007.94 345.038L955.851 312.476L996.653 351.67L1007.94 345.038ZM995.822 354.689L995.924 354.027L924.7 338.796L990.561 402.255L990.872 402.012L995.822 354.689ZM994.05 351.703L948.758 308.231L923.308 336.595L994.05 351.703ZM947.501 306.923L927.903 286.263L922.739 334.376L947.501 306.923ZM990.231 293.581L929.615 285.511L949.221 306.123L1009.86 343.833C1010.03 343.817 1010.21 343.853 1010.36 343.937C1010.52 344.021 1010.65 344.15 1010.74 344.309L1031.27 357.171C1031.45 357.159 1031.64 357.208 1031.79 357.31C1031.95 357.412 1032.07 357.562 1032.14 357.741L1048.39 367.907L990.231 293.581ZM1027.79 303.071L1027.48 303.023L1025.47 302.713L999.501 295.838L1026.98 312.728L1087.89 291.739L1027.79 303.071ZM1117.1 378.487L1121.84 443.048L1121.42 475.235L1122.12 475.684L1133.42 357.282L1101.43 292.961L1117.1 378.487ZM1084.09 332.509L1114.62 375.053L1099.21 291.988L1083.12 332.6L1084.09 332.509ZM1081.13 332.824L1098.02 290.207L1028.68 314.105C1028.73 314.346 1028.69 314.6 1028.57 314.814C1028.49 314.94 1028.39 315.044 1028.26 315.118C1028.14 315.192 1028 315.233 1027.86 315.238L1042.12 337.106L1081.13 332.824ZM1041.42 339.274L1024.54 313.464L993.073 294.069L1050.4 367.588L1041.42 339.274ZM1050.89 371.78L1032.23 360.127L1034.62 395.608L1050.89 371.78ZM1045.66 405.597L1034.38 400.752L1008.39 486.225L1026.55 466.952L1048.34 428.094L1045.66 405.597ZM1008.17 489.098L1053.62 500.05L1027.22 468.847L1008.17 489.098ZM1048.7 431.346L1028.41 467.579L1055 499.054L1048.7 431.346ZM1121.37 783.47L1121.26 784.179L1132.07 777.086L1121.37 783.47ZM1133.9 773.833L1124.86 757.131L1121.7 781.098L1133.9 773.833ZM1125.26 753.902L1135.47 772.77L1145.54 766.675L1142.02 752.28L1121.17 749.442L1125.26 753.902ZM1164.64 755.488L1144.01 752.685L1147.21 765.868L1164.64 755.488ZM1146.31 769.894L1137.08 775.972L1156.6 812.164L1146.31 769.894ZM1135.56 776.947L1121.02 786.369L1120.72 788.308L1156.4 815.476L1135.56 776.947ZM1156.18 817.814L1120.04 790.334L1105.85 817.196L1156.18 817.814ZM1119.01 787.85L1112.66 792.05L1118.96 788.181L1119.01 787.85ZM1080.5 807.802L1092.66 810.554L1097.8 802.052L1098.74 799.533L1098.79 799.202L1099.79 796.596L1080.5 807.802ZM1094.31 811.343L1103.96 817.049L1117.51 791.347L1100.27 801.417L1094.31 811.343ZM1101.47 797.195L1119.34 785.431L1119.47 784.58L1102.44 794.778L1101.47 797.195ZM1103.3 791.861L1119.63 782.086L1123.27 754.416L1118.96 749.828L1103.3 791.861ZM1119.75 747.383L1139.94 750.071L1123.27 734.996L1119.75 747.383ZM1117.5 689.745L1117.84 690.476L1123.65 732.827L1142.44 749.875L1152.33 732.471L1112.54 660.212L1117.65 689.089C1117.71 689.309 1117.71 689.546 1117.63 689.765L1117.5 689.745ZM1105.77 659.455L1114.61 682.227L1109.88 655.344L1109.69 655.073L1138.68 588.467L1090.64 587.233L1105.37 639.392C1105.4 639.585 1105.37 639.787 1105.28 639.959L1105.77 659.455ZM1089.63 590.272L1088.64 596.61L1098.92 622.414L1089.63 590.272ZM1076.8 627.514L1104.09 657.355L1103.83 639.928L1087.75 599.183L1076.8 627.514ZM1087.21 593.774L1088.34 586.49L1074.4 566.077L1087.21 593.774ZM1072.99 561.354L1089.89 585.325L1137.48 586.537L1057.86 504.774L1072.99 561.354ZM1070.89 560.497L1055.55 503.159L1004.11 540.965C1004.04 541.166 1003.9 541.333 1003.72 541.437L1070.89 560.497ZM1003.2 539.516L1053.9 502.079L1007.14 490.778L1003.2 539.516ZM1005.41 489.881C1005.21 489.711 1005.08 489.466 1005.06 489.197L1004.94 486.709L993.682 422.447L1002.13 532.28L1005.41 489.881ZM1000.91 540.179L990.731 405.865L916.952 496.149L1000.91 540.179ZM988.077 406.229L874.629 498.609L914.8 495.622C914.961 495.383 915.198 495.213 915.466 495.144L988.077 406.229ZM1014.87 792.951L1006.52 752.918L958.595 792.188L1014.87 792.951ZM944.905 780.481L955.573 791.091L971.903 740.346L944.905 780.481ZM975.541 735.098L957.857 790.475L1006.1 750.915L976.637 699.722L975.541 735.098ZM1006.7 748.538L1010.64 727.453L1024.34 710.201L976.771 696.498L1006.7 748.538ZM975.925 692.541L1002.94 638.124L960.555 582.364L975.925 692.541ZM952.223 622.965L972.879 683.644L958.819 582.095L952.223 622.965ZM958.728 577.674L998.911 542.775L919.273 575.445L958.728 577.674ZM917.216 574.303L998.321 540.989L916.251 498.026L917.216 574.303ZM915.394 572.23L914.47 497.75L873.336 500.782L915.394 572.23ZM988.997 403.223L923.27 339.785L923.861 342.153L921.889 338.99L873.529 497.18L988.997 403.223ZM871.623 497.418L920.093 338.809L816.844 385.308L871.623 497.418ZM869.091 496.396L818.947 393.818L840.444 472.933L840.889 473.002L869.091 496.396ZM802.9 527.901L845.8 521.705L781.307 514.536L802.9 527.901ZM852.007 520.485L839.226 475.795L780.167 512.471L852.007 520.485ZM777.221 512.064L838.554 473.948C838.517 473.755 838.549 473.553 838.642 473.38L814.707 385.269L797.271 338.551L767.534 415.551L767.841 416.809L766.817 416.65L765.499 418.093L686.073 424.644L686.608 425.018L685.272 424.811L711.002 464.773L710.683 478.622L777.221 512.064ZM769.815 510.434L710.019 480.263L689.035 491.545L769.815 510.434ZM686.186 491.104L708.999 478.604L709.292 466.397L661.196 484.962L686.186 491.104ZM708.117 464.859L660.439 436.224L649.013 463.222L658.509 484.062L708.117 464.859ZM656.754 485.68L635.151 477.979L651.701 495.358L656.754 485.68ZM650.443 497.004L632.012 477.639L633.104 526.865L650.443 497.004ZM631.262 536.12L605.404 623.115L634.304 594.849L631.262 536.12ZM634.568 596.972L605.047 626.014L649.504 633.327L634.568 596.972ZM649.901 645.205L649.966 637.418L634.661 657.376L649.901 645.205ZM648.14 636.845L603.569 659.733L628.832 661.753L648.14 636.845ZM628.539 663.644L602.468 661.548L628.263 694.014L628.539 663.644ZM600.205 661.731L582.987 674.903L582.97 681.196L625.517 693.493L600.205 661.731ZM573.086 689.691L619.554 693.732L581.862 683.059L568.57 680.567L573.086 689.691ZM579.498 660.029C579.435 660.121 579.352 660.197 579.257 660.249C579.161 660.302 579.056 660.33 578.949 660.331L568.403 678.41L581.204 680.826L581.219 673.952L599.372 660.343L599.964 660.047L602.259 629.893L579.498 660.029ZM589.78 573.82L630.16 530.574L595.131 519.78L589.78 573.82ZM583.885 620.174L587.76 576.559L580.527 562.316L583.885 620.174ZM580.235 557.719L588.458 573.228L593.802 519.235L593.579 519.201L593.63 518.87L555.526 488.761L580.235 557.719ZM594.183 517.066L610.367 474.339L555.171 485.752L594.183 517.066ZM553.793 483.457L554.122 484.282L610.652 472.494L552.858 410.525L553.793 483.457ZM459.546 369.503L459.566 371.734L459.405 372.775L551.866 480.882L550.909 408.093L551.174 386.342L571.054 375.712L535.893 344.848L535.374 345.252L515.534 260.437L515.356 260.41C515.24 260.386 515.13 260.337 515.032 260.268C514.935 260.198 514.851 260.109 514.787 260.004C514.723 259.9 514.679 259.783 514.658 259.659C514.636 259.536 514.638 259.409 514.664 259.286C514.689 259.128 514.755 258.981 514.854 258.859C514.954 258.738 515.082 258.647 515.226 258.598L515.292 258.172L515.871 258.262L532.677 194.71L455.491 232.165L459.546 369.503ZM453.913 236.764L436.348 285.767L457.703 367.862L453.913 236.764ZM457.023 372.261L435.003 287.98L429.43 297.482C429.601 297.607 429.719 297.799 429.758 298.017L450.697 376.609L457.023 372.261ZM451.268 414.471L448.447 396.456L448.068 392.426L448.672 387.047L446.315 394.624L443.556 412.455L449.443 421.259L451.268 414.471ZM443.878 437.784L424.741 431.821L421.748 451.165L443.878 437.784ZM424.44 429.934L445.485 436.531L448.818 423.826L441.986 413.762L407.521 406.687L415.567 422.459L424.44 429.934ZM419.592 452.139L422.833 431.187L414.963 424.594L409.853 435.232L414.658 451.908L419.592 452.139ZM413.026 451.849L408.385 435.877L405.868 434.761L395.03 437.927L367.994 450.016L413.026 451.849ZM355.599 425.822L364.403 449.364L392.756 436.413L374.051 423.834L357.047 412.922L355.599 425.822ZM267.243 312.393C268.16 320.207 270.675 327.684 274.612 334.308L312.43 341.805L268.514 272.056C268.108 279.983 267.061 303.551 267.243 312.393ZM268.787 268.224L268.722 268.649L314.909 342.286L314.865 342.569L356.76 410.65L372.152 420.489L310.919 287.333C310.852 287.237 310.805 287.128 310.779 287.011C310.753 286.895 310.749 286.774 310.767 286.655C310.785 286.537 310.826 286.422 310.886 286.319C310.946 286.217 311.024 286.127 311.116 286.056C311.31 285.908 311.548 285.846 311.781 285.882C312.015 285.918 312.223 286.049 312.363 286.248L373.536 418.911L372.94 355.864C372.939 355.719 372.961 355.575 373.006 355.438L374.57 334.13L374.738 333.042L381.791 331.953L357.536 315.755L382.792 321.648L385.207 306.041L370.533 285.078L370.161 284.536L372.304 263.317L313.189 259.983L312.03 259.223C312.024 259.126 312.039 259.029 312.074 258.939V258.939L352.898 228.74L377.219 234.197L399.004 223.039L399.521 204.378L350.469 185.506L358.71 195.595L370.142 195.959L392.789 206.048L349.54 205.363L315.375 213.734L288.536 193.02L289.012 204.087L304.727 229.521C304.832 229.689 304.873 229.894 304.842 230.095C304.811 230.297 304.71 230.48 304.558 230.609C304.579 230.688 304.583 230.771 304.57 230.853C304.558 230.934 304.529 231.012 304.485 231.081C304.45 231.307 304.332 231.511 304.157 231.647C303.982 231.784 303.765 231.842 303.552 231.809V231.809L291.596 229.233L269.875 235.558L260.447 267.03L268.787 268.224ZM316.219 258.079L372.433 261.303L375.077 235.077L316.219 258.079ZM372.997 233.787L353.167 229.363L317.831 255.326L372.997 233.787ZM267.908 235.302L237.706 247.822L229.639 249.576L258.582 265.531L267.908 235.302ZM139.927 254.246L234.89 259.251L251.249 263.719L226.577 250.216L184.567 242.991L158.707 249.548L136.6 242.157L139.927 254.246ZM118.858 243.093L137.662 253.266L134.261 241.069L99.129 158.15L118.858 243.093Z" fill="url(#D)" stroke="url(#D)"/><defs><filter id="A" x=".701" y="-428" width="1532.3" height="1532.3" filterUnits="userSpaceOnUse" color-interpolation-filters="sRGB"><feFlood flood-opacity="0"/><feBlend in="SourceGraphic"/><feGaussianBlur stdDeviation="125"/></filter><radialGradient id="B" cx="0" cy="0" r="1" gradientUnits="userSpaceOnUse" gradientTransform="translate(1587.29 674.216) rotate(-155.477) scale(1124.15 804.37)"><stop stop-color="#c6b38a"/><stop offset=".464" stop-color="#f3c691"/><stop offset="1" stop-color="#b4703e"/></radialGradient><radialGradient id="C" cx="0" cy="0" r="1" gradientUnits="userSpaceOnUse" gradientTransform="translate(-267.651 461.494) rotate(-8.86668) scale(1172.5 642.252)"><stop stop-color="#c6b38a"/><stop offset=".464" stop-color="#f3c691"/><stop offset="1" stop-color="#b4703e"/></radialGradient><radialGradient id="D" cx="0" cy="0" r="1" gradientUnits="userSpaceOnUse" gradientTransform="translate(-300.193 458.955) rotate(-8.92167) scale(1203.74 661.148)"><stop stop-color="#c6b38a"/><stop offset=".464" stop-color="#f3c691"/><stop offset="1" stop-color="#b4703e"/></radialGradient></defs></svg>