<svg width="900" height="558" viewBox="0 0 900 558" fill="none" xmlns="http://www.w3.org/2000/svg">
<g opacity="0.2" filter="url(#filter0_f_1005_5284)">
<circle cx="766.85" cy="338.15" r="516.15" fill="url(#paint0_radial_1005_5284)"/>
</g>
<g opacity="0.15">
<path d="M110.805 189.409L132.982 229.644L208.329 226.772L263.005 201.331L282.838 199.556L291.793 159.052L402.947 69.7068L405.412 67.0371C405.547 66.8817 405.728 66.7797 405.924 66.7482C406.12 66.7168 406.319 66.7578 406.487 66.8644L407.117 66.3323L441.811 45.6939L442.41 44.4789L442.588 44.7971L472.345 8.0433L472.657 8.09151L575.724 -19.5489L575.768 -19.8327L576.925 -19.6536L578.304 -20.0214L626.649 -57.5802L694.002 -21.4458L752.533 104.126L754.24 107.828L836.797 226.026L942.039 261.242L1005.89 301.774L1110.45 309.524L1139.94 397.381C1139.95 397.478 1139.93 397.575 1139.9 397.665L1151.27 511.292L1151.23 511.576L1130.77 553.061L1108.28 498.007L1124.69 471.49L1118.14 369.456L1079.94 329.647L1039.97 340.753L1061.24 415.473L1053.27 515.309L1104.84 575.637L1105.16 575.104L1105.02 576.003L1105.75 576.843L1110.89 635.267L1106.09 662.805L1149.2 724.15L1142.17 756.961L1142.12 757.292L1154.93 816.225L1116.16 808.387L1083.4 809.422L1087.79 770.729L1103.88 725.71L1065.74 644.506L1065.7 644.79L1065.18 643.159L1006.44 582.884L994.343 612.733L1008.71 686.677L1020.15 710.578L1000.85 755.439L1014.99 788.669L988.974 793.312L987.905 793.147L948.09 785.293L955.934 762.292L981.386 728.02L963.907 661.537L956.412 618.633L892.544 581.779L866.194 553.489L865.837 553.434L865.57 553.392L852.629 516.813L811.546 529.829L776.557 510.227L767.071 521.447L713.242 513.12L709.749 513.596L675.474 532.992L656.04 519.816L656.472 499.64L656.249 499.606L656.293 499.322L649.034 494.083L648.606 495.082L648.285 494.209L635.054 505.48L636.814 544.494L631.481 596.939L651.19 634.566L627.34 661.434L629.711 691.487L582.957 692.535L582.69 692.494L582.467 692.459L568.264 683.192L581.55 662.728L584.401 577.113L565.468 497.039L498.953 422.196L463.391 374.175L450.519 373.394L450.475 373.678L449.896 373.588L446.39 381.521L447.013 381.617L446.243 382.176L453.331 418.576L432.523 449.644L372.48 452.608L356.245 430.241L358.686 419.771L320.685 341.251L320.476 340.831L281.215 338.535L280.814 338.473L266.466 316.882L271.489 272.621L226.743 255.384L150.978 257.126L119.76 245.565L118.432 245.602C118.217 245.602 118.009 245.52 117.848 245.37C117.688 245.221 117.584 245.015 117.555 244.789L117.288 244.747L110.805 189.409ZM185.476 241.591L204.298 228.957L124.716 242.41L185.476 241.591ZM319.631 337.455L296.781 288.302L282.55 335.206L319.631 337.455ZM625.825 664.444L625.567 661.401L625.825 664.444ZM623.73 662.667L585.82 689.055L627.538 688.148L623.73 662.667ZM625.516 658.779L629.536 595.96L607.9 545.445L624.96 658.838L625.516 658.779ZM606.594 548.584L584.315 658.119L623.15 658.752L606.594 548.584ZM607.256 539.292L632.388 504.438L571.231 496.623L607.256 539.292ZM632.896 502.628L629.858 445.352L568.807 494.021L569.276 494.529L632.896 502.628ZM692.478 385.062L631.658 444.323L631.6 444.701L648.675 489.039L692.478 385.062ZM657.518 517.042L705.545 511.009L658.547 498.896L657.969 498.806L657.518 517.042ZM982.205 729.503L951.577 781.909L998.446 754.776L982.205 729.503ZM987.686 791.031L998.539 756.825L951.67 783.958L987.686 791.031ZM1006.72 687.435L960.228 623.727L999.55 750.879L1006.72 687.435ZM1141.16 759.324L1111.16 789.696L1153.03 813.752L1141.16 759.324ZM1110.4 787.882L1140.12 757.854L1106.24 728.4L1110.4 787.882ZM1139.81 755.143L1106.53 667.91L1106.14 725.527L1139.81 755.143ZM1039.17 338.885L1077.26 328.409L1008.01 304.524L1039.17 338.885ZM1119.87 368.562L1136.26 392.017L1109.2 311.751L1081.56 328.638L1119.87 368.562ZM942.89 263.698L942.623 263.657L788.346 286.378L1002.02 301.127L942.89 263.698ZM473.291 9.88461L444.843 44.6616L538.686 25.6671L473.291 9.88461ZM273.226 269.936L358.623 283.147L268.186 237.388L273.226 269.936ZM694.191 381.355L545.812 425.183L630.476 443.123L694.191 381.355ZM986.065 568.401L1018.76 533.893L874.225 552.552L986.065 568.401ZM1043.9 571.778L1101.88 576.825L1022.97 534.642L1043.9 571.778ZM750.186 106.039L689.883 109.204L749.831 151.651L750.899 106.73L750.186 106.039ZM580.884 13.6958L543.821 26.3646L597.452 39.5041L580.884 13.6958ZM461.59 77.568L538.43 27.6131L443.906 46.8896L461.59 77.568ZM364.872 308.763L420.721 287.233L365.208 285.667L364.872 308.763ZM336.775 244.609L423.015 284.488L367.5 195.704L336.775 244.609ZM365.925 194.976L287.055 201.177L335.304 243.509L365.925 194.976ZM338.42 247.236L364.9 283.827L365.345 283.896L421.036 285.489L338.42 247.236ZM335.131 245.807L272.385 237.359L361.551 282.195L335.131 245.807ZM332.656 243.535L285.284 202.308L268.36 235.09L332.656 243.535ZM367.138 193.033L385.992 153.672L289.446 198.981L367.138 193.033ZM369.17 192.863L369.393 192.897L368.72 194.004L423.029 280.858L387.892 154.354L369.17 192.863ZM425.31 282.615L444.154 190.274L389.649 153.899L425.31 282.615ZM517.034 244.31L448.263 193.185L479.702 238.68L517.034 244.31ZM697.745 378.128L700.762 377.19L700.229 377.689L762.105 367.89L681.71 348.576L551.189 421.366L694.498 379.078L694.557 378.7L697.745 378.128ZM805.778 420.943L720.895 443.018L768.797 478.759L805.778 420.943ZM879.9 372.65L879.52 372.155L880.01 372.231L869.142 333.745L811.272 416.369L879.9 372.65ZM808.736 420.093L779.019 503.15L877.297 376.509L808.736 420.093ZM1020.71 530.079L1027.42 464.044L952.896 487.819L1020.48 530.721L1020.71 530.079ZM951.239 486.449L1024.95 462.935L930.905 440.784L951.239 486.449ZM930.288 436.814L955.968 408.438L936.681 370.441L930.288 436.814ZM935.081 368.401L882.884 373.693L928.486 436.972L935.081 368.401ZM935.708 366.416L999.379 308.467L885.676 371.558L935.708 366.416ZM770.998 232.603L770.686 232.555L682.398 247.469L778.419 285.714L770.998 232.603ZM682.619 346.828L764.765 366.607L680.003 251.457L682.619 346.828ZM678.411 245.835L697.716 188.53L587.315 217.312L678.411 245.835ZM693.493 187.537L584.696 179.133L584.856 215.817L693.493 187.537ZM560.967 59.0423L553.472 95.414L597.69 43.2698L560.967 59.0423ZM559.268 58.5372L544.783 32.5186L552.109 93.024L559.268 58.5372ZM552.434 99.4668L510.764 170.504L630.667 100.043L553.309 99.1178L552.434 99.4668ZM583.018 216.502L582.854 181.318L524.531 243L581.284 217.396L580.483 217.272L583.018 216.502ZM629.256 102.973L511.902 171.988L583.674 176.602L629.256 102.973ZM581.612 179.915L582.166 178.984L575.452 178.478L577.973 178.093L509.509 173.603L520.965 243.949L581.612 179.915ZM634.079 100.087L632.575 100.968L586.742 175.043L685.187 108.913L634.079 100.087ZM684.589 106.884L647.702 73.9128L635.3 98.6779L684.589 106.884ZM521.334 246.282L505.761 297.143L579.969 220.001L521.334 246.282ZM507.812 174.261C507.812 174.261 507.589 174.227 507.456 174.206C507.257 174.242 507.055 174.21 506.877 174.116L447.744 190.054L519.043 243.41L507.812 174.261ZM507.918 171.808L548.413 102.767L448.86 187.854L507.918 171.808ZM542.475 28.5779L463.078 162.546L550.941 98.2187L542.475 28.5779ZM560.481 57.1752L596.73 41.8138L544.657 28.9154L560.481 57.1752ZM599.975 43.2359L554.328 96.9509L645.101 71.864L600.383 43.2506L599.975 43.2359ZM559.967 97.3389L632.236 98.1553L633.393 98.3344L645.788 73.6167L559.967 97.3389ZM649.265 72.6533L687.587 107.251L694.452 50.1998L649.279 72.268L649.679 72.33L649.265 72.6533ZM587.577 176.721L748.342 152.437L687.614 109.434L587.577 176.721ZM591.948 177.93L698.802 186.228L746.596 154.879L591.948 177.93ZM680.236 245.827L769.169 230.867L699.727 188.502L680.236 245.827ZM679.841 248.381L766.484 365.807L778.542 287.864L679.841 248.381ZM767.728 367.791L806.289 417.051L779.478 291.834L767.728 367.791ZM808.129 417.239L868.307 331.775L780.821 288.749L808.129 417.239ZM885.108 369.339L884.649 369.946L1002.91 304.219L870.614 332.181L881.7 371.621L885.108 369.339ZM805.707 419.043L767.659 370.299L767.175 369.594L721.069 441.011L805.707 419.043ZM680.854 347.039L678.123 249.762L547.102 421.557L680.854 347.039ZM584.981 218.549L597.655 313.442L676.946 247.352L584.981 218.549ZM583.284 219.206L506.292 299.308L595.913 314.092L583.284 219.206ZM503.398 298.86L519.317 246.939C519.14 246.828 518.992 246.672 518.886 246.485L480.819 240.596L503.287 298.988L503.398 298.86ZM446.081 192.848L446.795 304.342L478.353 239.439L446.081 192.848ZM533.022 113.559L460.801 166.359L460.202 167.283L449.017 185.36L533.022 113.559ZM459.877 164.376L540.146 28.605L462.216 79.1177L459.877 164.376ZM600.215 40.8031L687.845 -17.6039L582.789 13.1673L600.215 40.8031ZM602.219 41.6944L694.677 47.8616L692.517 -18.334L602.219 41.6944ZM604.368 43.7217L647.504 71.3639L691.914 49.5165L604.368 43.7217ZM696.271 50.8201L689.523 107.114L748.49 104.033L696.271 50.8201ZM750.608 154.289L701.259 186.85L832.173 224.681L750.608 154.289ZM705.553 190.032L771.891 230.368L830.663 226.191L705.553 190.032ZM780.371 286.064L939.001 262.612L772.631 232.953L780.371 286.064ZM869.839 330.414L998.878 303.16L784.344 288.374L869.839 330.414ZM937.038 367.542L956.757 406.283L1003.03 307.241L937.038 367.542ZM930.567 438.843L1023.91 460.79L957.254 409.847L930.567 438.843ZM1020.61 534.615L1007.28 580.352L1041.53 571.751L1020.61 534.615ZM1018.08 531.755L950.599 488.82L870.684 550.987L1018.08 531.755ZM928.621 441.399L856.189 512.957L949.312 487.12L928.621 441.399ZM881.172 374.445L779.144 505.881L927.756 439.038L881.172 374.445ZM804.247 426.42L769.89 480.236L776.25 505.433L804.247 426.42ZM766.157 479.319L718.775 443.756L659.337 497.032L766.157 479.319ZM662.937 498.219L708.644 510.132L763.165 481.859L662.937 498.219ZM764.942 369.297L697.823 379.98L697.298 380.432L697.18 381.188L719.08 440.607L764.942 369.297ZM673.189 252.776L598.008 315.579L597.92 316.146L597.43 316.07L546.408 419.561L673.189 252.776ZM503.573 300.679L455.608 307.787L581.008 313.482L503.573 300.679ZM501.211 299.151L479.3 241.572L447.491 306.919L501.211 299.151ZM444.142 198.311L426.45 284.971L426.991 284.716L426.297 286.255L444.833 305.83L444.142 198.311ZM425.664 288.288L425.59 288.761L425.256 288.273L395.511 351.47L444.104 308.477C444.076 308.367 444.07 308.25 444.088 308.136C444.106 308.022 444.146 307.913 444.206 307.815L425.664 288.288ZM364.408 310.58L353.9 353.75L393.279 352.045L423.371 288.078L364.408 310.58ZM355.076 355.578L401.205 408.963L393.358 354.188L355.076 355.578ZM352.134 353.38L362.245 311.892L322.941 338.452L352.134 353.38ZM362.774 309.359L363.097 287.229L325.173 334.632L362.774 309.359ZM361.892 285.59L297.542 286.628L321.195 336.777L361.892 285.59ZM282.569 202.178L192.456 241.266L266.408 234.74L282.569 202.178ZM387.388 151.128L404.078 70.947L289.175 197.195L387.388 151.128ZM444.922 188.552L457.985 167.473L392.735 153.698L444.922 188.552ZM458.04 165.641L460.373 81.0118L390.022 151.196L458.04 165.641ZM460.168 78.8009L442.507 48.2713L391.571 147.077L460.168 78.8009ZM579.858 12.3747L580.258 12.4367L576.343 -14.7073L545.456 24.3415L579.858 12.3747ZM577.925 -16.9807L582.029 11.5969L689.687 -20.0793L578.931 -18.181L577.925 -16.9807ZM696.325 48.4072L750.537 103.768L694.345 -17.1796L696.325 48.4072ZM753.092 108.764L752.623 108.256L751.591 152.65L753.114 153.708L752.847 153.667L831.409 221.367L753.092 108.764ZM777.354 231.891L929.268 258.928L836.074 227.755L777.354 231.891ZM1107.01 311.17L1012.86 304.16L1080.28 327.471L1107.01 311.17ZM1006.21 305.263L959.315 405.662L1037.86 339.942L1006.21 305.263ZM1028.1 461.437L1059.15 416.603L959.924 409.679L1028.1 461.437ZM1059.1 419.888L1029.7 462.557L1030.43 463.154L1029.71 463.382L1051.86 512.331L1059.1 419.888ZM1051.4 516.182L1028.85 466.299L1022.19 532.003L1101.49 574.343L1051.4 516.182ZM1044.72 573.261L1066.51 640.702L1103.24 578.343L1044.72 573.261ZM1067.56 642.51L1104.77 661.585L1103.54 581.149L1067.56 642.51ZM1104.86 663.924L1068.2 645.128L1104.42 722.21L1104.86 663.924ZM1042.89 573.56L1008.31 582.254L1064.26 639.675L1042.89 573.56ZM1018.83 536.374L987.936 568.981L1006.02 580.301L1018.83 536.374ZM957.23 616.29L984.822 569.952L869.324 553.586L956.689 616.545C956.689 616.545 956.955 616.296 957.23 616.29ZM959.145 616.877L992.799 612.398L986.043 571.787L959.145 616.877ZM866.975 551.382L946.217 489.74L854.317 515.331L866.975 551.382ZM926.189 441.798L779.941 507.505L852.801 513.934L926.189 441.798ZM768.416 481.218L713.28 509.929L775.059 507.235L768.416 481.218ZM717.949 442.321L696.392 383.924L659.184 494.781L717.949 442.321ZM566.006 491.796C566.19 491.674 566.408 491.625 566.62 491.658C566.832 491.691 567.025 491.803 567.164 491.975L567.811 492.801L628.772 444.119L543.982 426.401L566.006 491.796ZM542.478 423.747L595.147 316.976L465.73 372.019L542.478 423.747ZM592.89 315.949L447.132 309.236L464.296 370.683L592.89 315.949ZM444.383 310.797L397.649 352.382L448.322 369.616L444.383 310.797ZM403.189 410.287L443.569 380.6L395.317 354.491L403.189 410.287ZM450.829 417.657L404.752 412.853L431.981 445.783L450.829 417.657ZM402.416 412.927L401.897 413.332L401.985 412.764L365.485 418.256L429.45 445.052L402.416 412.927ZM400.75 411.023L354.434 356.787L360.562 416.187L362.188 416.874L400.75 411.023ZM352.323 355.104L323.205 340.285L358.263 413.071L352.323 355.104ZM295.641 285.946L273.618 272.709L281.948 331.142L295.641 285.946ZM296.951 284.551L353.134 283.557L276.999 271.779L296.951 284.551ZM266.538 236.552L229.275 253.161L271.267 269.342L266.538 236.552ZM261.398 236.774L193.127 242.823L226.951 251.978L261.398 236.774ZM132.779 231.55L121.22 241.433L194.299 229.057L132.779 231.55ZM118.609 241.223L131.307 230.451L113.48 198.346L118.609 241.223ZM208.978 228.18L192.348 239.312L280.253 201.529L263.662 202.982L208.978 228.18ZM293.39 159.929L284.699 199.312L395.087 78.0795L293.39 159.929ZM407.965 67.6258L406.099 69.0805L390.173 145.505L440.118 48.3861L407.965 67.6258ZM476.797 8.73207L542.726 24.5972L576.225 -17.7765L476.797 8.73207ZM581.064 -20.1757L689.935 -21.978L626.808 -55.9574L581.064 -20.1757ZM1139.2 409.229L1131.65 546.466L1149.12 511.056L1139.2 409.229ZM1110.23 498.067L1130.06 546.752L1137.29 411.596L1126.43 471.467L1110.23 498.067ZM1126.01 464.139L1138 397.856L1119.93 372.009L1126.01 464.139ZM1038.23 341.403L959.386 407.853L1059.07 414.75L1038.23 341.403ZM1105.33 588.739L1106.44 653.755L1109.59 635.453L1105.33 588.739ZM1147.66 724.734L1108.94 669.688L1141.44 754.282L1147.66 724.734ZM1116.68 807.111L1148.64 813.557L1109.62 791.152L1108.71 792.028L1108.75 791.744L1087.66 807.852L1116.65 806.962L1116.68 807.111ZM1089.89 771.634L1085.92 807.002L1108.76 789.324L1104.58 730.565L1089.89 771.634ZM1005.22 582.212L987.518 571.095L993.951 609.961L1005.22 582.212ZM992.884 614.203L958.874 618.627L1006.1 683.512L992.884 614.203ZM1018.3 710.728L1008.26 690.434L1001.56 749.641L1018.3 710.728ZM1000.48 759.014L1000.35 759.865L999.922 758.492L989.496 791.408L1012.83 787.318L1000.48 759.014ZM952.819 776.532L973.277 741.536L957.448 762.817L952.819 776.532ZM965.657 661.13L983.106 727.512L997.173 749.446L960.032 629.121L965.657 661.13ZM893.513 580.234L941.723 608.08L873.401 558.768L893.513 580.234ZM848.196 515.11L780.324 509.453L811.502 526.868L848.196 515.11ZM774.047 509.063L721.205 511.446L766.219 518.41L774.047 509.063ZM704.755 512.872L659.28 518.622L675.371 529.538L704.755 512.872ZM656.753 495.761L692.098 391.056L649.688 491.036L656.753 495.761ZM631.937 449.887L634.674 501.45L647.373 490.678L631.937 449.887ZM633.118 505.907L607.986 540.761L629.816 591.79L634.792 542.825L633.118 505.907ZM648.827 632.456L631.01 598.513L627.227 657.154L648.827 632.456ZM570.566 680.69L582.696 688.62L623.568 660.172L583.413 659.529L583.164 661.137L583.12 661.421L570.566 680.69ZM585.939 574.833L583.384 652.939L605.729 542.978L605.518 541.686C605.49 541.457 605.542 541.223 605.665 541.028C605.787 540.833 605.971 540.69 606.183 540.627L568.404 496.041L567.202 495.855L585.939 574.833ZM500.125 419.035L563.763 490.674L541.874 425.881C541.739 425.871 541.611 425.82 541.503 425.735C541.395 425.649 541.313 425.533 541.265 425.4C541.23 425.29 541.221 425.172 541.239 425.057C541.257 424.941 541.301 424.832 541.367 424.738L467.755 375.14L500.125 419.035ZM462.441 370.299L446.151 312.039L450.199 369.567L462.441 370.299ZM448.103 371.035L400.393 355.276L444.923 379.212L448.103 371.035ZM404.852 410.738L451.158 415.528L444.565 381.529L404.852 410.738ZM373.191 448.892L427.828 446.69L361.681 418.975L360.324 419.201L358.148 428.55L373.191 448.892ZM280.364 332.834L272.441 277.369L268.212 314.731L280.364 332.834ZM151.015 253.645L220.268 252.445L187.008 243.474L186.073 243.33C185.906 243.419 185.718 243.451 185.535 243.423C185.352 243.394 185.182 243.306 185.049 243.171L124.972 243.999L151.015 253.645Z" fill="url(#paint1_radial_1005_5284)"/>
</g>
<g style="mix-blend-mode:overlay">
<path d="M99.666 152.615L132.763 224.226L183.307 226.089L219.841 219.198L280.521 195.025L291.422 158.453L362.693 54.0276L363.048 53.5014L378.124 58.0128L382.698 46.1292L406.55 64.9285L441.026 28.6142L440.387 28.031L441.677 27.9401L445.683 24.4434L553.823 -17.7154L625.544 -57.5659L626.441 -58.0568C626.685 -58.1163 626.939 -58.077 627.153 -57.9465L703.661 -62.7216L751.189 96.5482L848.274 150.309L850.531 151.046L766.553 190.259L772.29 222.431C772.29 222.431 772.29 222.431 772.253 222.667L766.432 306.563L797.65 335.219L919.175 336.198L918.499 335.56L919.523 335.719L882.762 278.65C882.756 278.538 882.774 278.425 882.813 278.319C882.996 278.281 883.185 278.31 883.348 278.402L905.668 281.467L887.028 209.526L800.778 216.571L794.207 196.571C794.136 196.339 794.149 196.085 794.243 195.859C794.336 195.632 794.505 195.448 794.716 195.342C794.937 195.263 795.176 195.272 795.388 195.367C795.6 195.463 795.771 195.638 795.867 195.859L802.298 213.223L887.992 206.237L888.438 206.306L907.474 279.81L926.982 282.489L987.911 291.188L904.19 218.525L918.079 198.881C918.226 198.681 918.439 198.544 918.674 198.5C918.908 198.456 919.149 198.506 919.347 198.642C919.535 198.793 919.656 199.019 919.686 199.268C919.716 199.518 919.651 199.771 919.506 199.974L906.615 218.174L991.072 291.677L991.473 291.739C991.608 291.583 991.789 291.481 991.985 291.45C992.181 291.418 992.38 291.46 992.548 291.566L993.885 292.354L1023.45 300.172L1023.85 300.234L1027.72 300.833L1099.99 287.509L1100.67 287.274L1134.88 356.056L1173.55 351.869C1173.79 351.845 1174.02 351.918 1174.2 352.072C1174.38 352.227 1174.49 352.45 1174.52 352.696C1174.53 352.821 1174.51 352.947 1174.47 353.067C1174.44 353.186 1174.38 353.297 1174.3 353.393C1174.22 353.489 1174.12 353.568 1174.02 353.625C1173.91 353.683 1173.79 353.718 1173.68 353.728L1135.15 357.889L1124.22 476.298C1124.22 476.411 1124.21 476.524 1124.16 476.629L1166.25 502.801C1166.46 502.93 1166.6 503.139 1166.66 503.384C1166.71 503.628 1166.68 503.888 1166.55 504.107C1166.47 504.26 1166.34 504.384 1166.19 504.464C1166.04 504.544 1165.87 504.577 1165.71 504.557L1165.35 504.502L1122.68 478.531L1122.42 478.49L1122.02 478.428L1120.23 477.037L1119.78 476.968L1120.08 443.793L1115.39 379.821L1083.24 335.088L1043.35 339.475L1043.98 340.444C1044.07 340.633 1044.1 340.85 1044.07 341.063C1044.04 341.276 1043.94 341.473 1043.8 341.626L1053.28 371.666C1053.48 371.801 1053.61 372.013 1053.66 372.255C1053.71 372.498 1053.66 372.752 1053.54 372.964C1053.46 373.122 1053.33 373.25 1053.18 373.331C1053.03 373.411 1052.86 373.441 1052.69 373.415L1052.2 373.339L1034.58 398.846L1034.48 399.508L1046.79 404.803L1049.33 426.069C1049.36 426.197 1049.33 426.331 1049.27 426.447L1057.08 501.216L1140.28 586.727L1164.3 587.297C1164.42 587.302 1164.54 587.332 1164.65 587.385C1164.75 587.438 1164.85 587.514 1164.93 587.607C1165.01 587.7 1165.07 587.81 1165.11 587.928C1165.14 588.047 1165.16 588.173 1165.15 588.3C1165.13 588.544 1165.02 588.772 1164.85 588.942C1164.69 589.112 1164.47 589.212 1164.23 589.223L1140.76 588.594L1111.88 655.072L1154.59 732.579L1144.26 750.786L1170.07 754.247L1147.99 768.797L1160.35 819.719L1104.12 819.253L1092.79 812.657L1075.57 808.734L1100.98 793.584L1117.91 748.114L1122.03 733.546L1116.29 691.397L1104.25 660.478L1074.86 628.232L1086.81 597.003L1070.81 563.342C1070.78 563.224 1070.77 563.098 1070.79 562.975C1070.81 562.852 1070.86 562.735 1070.92 562.633L1002.18 543.136L960.63 579.228L1004.89 637.649L1005.27 638.144L977.034 694.505L1024.09 708.031L1004.94 673.252C1004.87 673.156 1004.83 673.047 1004.8 672.931C1004.77 672.814 1004.77 672.693 1004.79 672.575C1004.81 672.456 1004.85 672.342 1004.91 672.239C1004.97 672.136 1005.05 672.046 1005.14 671.975C1005.33 671.827 1005.57 671.765 1005.8 671.801C1006.04 671.837 1006.24 671.969 1006.38 672.168L1026.95 709.54L1012.19 728.322L1007.97 750.914L1008.18 751.334L1017.15 794.708L955.764 793.687L942.606 780.61L973.982 734.566L975.2 697.223L975.273 696.75L975.115 695.709L974.777 693.477L951.179 624.111L906.234 604.034C906.014 603.936 905.841 603.748 905.753 603.512C905.666 603.276 905.671 603.011 905.768 602.775C905.865 602.54 906.045 602.353 906.27 602.256C906.494 602.159 906.744 602.16 906.965 602.258L951.175 622.076L957.672 580.078C957.666 579.981 957.681 579.884 957.716 579.794L916.815 577.486C916.739 577.586 916.641 577.665 916.529 577.715C916.418 577.766 916.297 577.786 916.178 577.775L915.821 577.72C915.715 577.725 915.609 577.709 915.51 577.671C915.32 577.593 915.163 577.449 915.063 577.262C914.963 577.075 914.927 576.856 914.96 576.642C914.993 576.428 915.094 576.23 915.245 576.082C915.397 575.934 915.591 575.844 915.795 575.827L872.427 502.53L871.526 500.696L841.429 475.7L854.336 520.749L854.205 521.6L854.556 522.865L857.21 552.865L879.627 549.408L901.326 570.634C901.496 570.799 901.598 571.028 901.611 571.274C901.624 571.52 901.547 571.763 901.396 571.953C901.3 572.07 901.179 572.161 901.043 572.216C900.907 572.271 900.761 572.289 900.617 572.268C900.435 572.284 900.252 572.255 900.083 572.186L878.979 551.535L855.627 555.138L852.761 522.975L802.823 530.165L778.147 514.919C778.047 515.04 777.923 515.137 777.785 515.202L708.682 541.365L702.034 554.865C701.951 555.035 701.819 555.174 701.658 555.262C701.497 555.351 701.315 555.383 701.138 555.356L700.826 555.308C700.717 555.258 700.619 555.185 700.538 555.092C700.458 555 700.397 554.89 700.36 554.77C700.323 554.65 700.31 554.523 700.322 554.397C700.334 554.27 700.371 554.147 700.43 554.036L707.078 540.536L707.136 540.158L707.448 540.206L774.281 514.273L686.244 493.971L685.932 493.922L658.397 487.144L651.724 499.333L633.114 531.225L633.592 532.558L632.968 532.461L636.04 595.118L651.864 633.693L652.133 634.315C652.167 634.541 652.131 634.773 652.03 634.977L652.009 646.016L630.623 663.143L630.235 696.595L572.659 691.563L572.169 691.487L566.164 679.032L566.467 678.546L578.913 657.033L582.747 632.25L578.463 558.268L552.464 486.447C552.328 486.325 552.224 486.166 552.164 485.987C552.104 485.808 552.089 485.614 552.121 485.426L551.606 484.038L457.531 373.986L457.08 374.546L457.153 374.073L451.502 378.477L449.907 392.323L450.264 396.204L453.123 414.564L446.92 438.157L420.849 453.738L420.626 453.703L363.338 451.233L363.1 450.712L353.826 425.79L355.442 411.512L313.8 343.857L273.547 335.887L273.323 335.562C269.109 328.569 266.427 320.645 265.47 312.361C265.063 302.612 266.761 274.545 266.943 269.537L259.246 267.426C259.246 267.426 259.246 267.426 258.934 267.377L258.667 267.336L234.648 260.812L139.24 255.738L117.703 244.076L93.9769 142.534L99.666 152.615ZM131.61 226.082L109.409 178.046L135.638 239.538L177.487 227.755L131.61 226.082ZM220.579 220.91L183.808 227.861L138.481 240.608L158.858 247.392L184.289 240.963L249.048 209.575L220.579 220.91ZM187.591 241.425L226.943 248.142L236.664 246.014L265.377 203.627L187.591 241.425ZM239.644 245.022L268.853 233.027L290.307 226.66L268.743 202.501L239.644 245.022ZM292.22 226.375L302.804 228.691L287.7 204.319L270.574 202.154L292.22 226.375ZM282.023 196.516L272.284 200.53L287.302 202.176L286.756 189.791L282.319 196.078L282.023 196.516ZM356.78 195.102L349.068 186.016L321.001 208.309L356.78 195.102ZM329.018 207.467L349.303 202.469L383.65 202.94L369.75 196.721L358.452 196.378L329.018 207.467ZM581.549 655.019L601.868 627.411L601.556 627.363L602.466 626.487L589.655 581.404L585.128 632.473L581.549 655.019ZM603.708 624.063L630.633 533.408L590.201 576.694L603.708 624.063ZM604.192 628.594L601.913 658.944L648.284 635.027L604.405 627.803L604.192 628.594ZM663.414 -19.4548L662.969 -19.5236L620.98 10.2529L650.766 14.8608L663.414 -19.4548ZM653.35 12.8877L678.074 -8.1309L665.291 -19.5034L653.35 12.8877ZM477.547 126.131L475.256 161.274L519.488 150.005L477.547 126.131ZM517.827 146.891L502.723 129.299L480.729 125.897L517.827 146.891ZM503.639 127.504L522.283 149.323L534.59 145.803L532.707 122.025L532.652 120.902L532.725 120.429L532.821 119.814L544.876 68.4091L470.765 56.2179L457.332 105.037L477.303 123.285L503.639 127.504ZM645.761 254.384L654.061 257.314L662.108 218.558L666.047 177.181L642.564 230.257L644.721 253.739L646.605 253.643L645.761 254.384ZM650.673 420.96L680.416 422.607L624.619 382.207L611.968 394.439L650.673 420.96ZM614.372 398.346L627.869 417.19C628.006 417.215 628.136 417.271 628.249 417.356C628.362 417.44 628.456 417.55 628.523 417.678L629.037 418.775L629.216 419.093L646.763 420.597L614.372 398.346ZM623.2 381.067L577.148 377.575L610.349 393.413L623.2 381.067ZM626.735 379.435L746.893 344.753L698.324 302.129L681.217 301.614L615.339 350.843L615.116 350.808L569.731 347.129L574.175 374.984L573.323 375.191L626.735 379.435ZM548.008 117.709L535.656 120.641L560.408 140.112L592.707 147.336L550.494 117.851L547.608 117.937L548.008 117.709ZM549.361 115.448L545.972 71.0485L534.755 119.097L549.361 115.448ZM534.614 122.368L536.444 145.606L597.644 152.555L596.489 150.294L559.789 142.05L534.614 122.368ZM597.501 148.465L600.835 153.436L600.66 154.571L582.026 220.504L626.542 172.329L651.054 152.682L662.749 113.037L553.445 117.339L597.501 148.465ZM630.999 216.603L630.934 217.029L641.358 228.327L666.317 171.896L651.772 155.117L628.504 173.794L630.787 214.439C630.946 214.544 631.069 214.7 631.138 214.884C631.208 215.069 631.221 215.273 631.175 215.468L630.999 216.603ZM626.868 175.527L582.182 223.918L582.627 223.987L622.743 244.043L629.263 216.334L626.868 175.527ZM653.052 153.62L667.731 170.419L678.345 162.812L664.268 115.596L653.052 153.62ZM682.215 299.879L697.816 300.404L699.502 260.034C691.809 276.762 683.755 294.936 682.281 299.744L682.215 299.879ZM700.618 254.299L741.716 206.708L671.935 214.267L700.618 254.299ZM686.562 237.596L686.478 247.268L685.699 264.388L699.403 255.37L686.562 237.596ZM741.822 204.545L714.483 172.034L679.869 164.452L671.248 212.224L741.822 204.545ZM684.702 235.177L669.933 214.539L664.163 218.828L684.582 245.086L684.665 235.414L684.702 235.177ZM669.462 212.868L677.936 165.751L668.24 172.726L664.018 217.11L669.462 212.868ZM679.962 162.674L712.506 169.791L666.05 116.453L679.962 162.674ZM715.548 170.456L743.08 202.9L743.852 158.127L668.378 115.845L715.548 170.456ZM744.65 205.128L752.795 219.076L745.261 168.466L744.65 205.128ZM744.97 209.246L748.722 256.607L753.783 226.541L753.361 223.667L744.97 209.246ZM743.053 207.787L701.8 255.498C701.802 255.627 701.782 255.755 701.741 255.877L735.169 308.555L747.357 263.66L743.053 207.787ZM734.774 311.109L701.294 258.471L699.56 300.916L747.735 343.14L734.774 311.109ZM698.023 258.401L685.03 266.948L673.167 277.026C674.412 279.882 679.257 290.705 681.206 296.672C684.608 288.239 693.786 268.109 698.023 258.401ZM683.648 265.863L684.47 248.168L663.284 220.677L655.517 258.218L672.155 275.32L683.648 265.863ZM640.636 230.636L630.248 219.102L624.109 244.933L642.643 253.32L640.636 230.636ZM622.02 246.062L581.719 226.026L580.873 225.895L520.494 259.025L639.796 254.042L622.02 246.062ZM598.483 156.559L535.501 193.548L580.035 222.472L598.483 156.559ZM598.049 154.652L536.27 147.613L535.363 191.493L598.049 154.652ZM534.505 147.824L524.252 150.742L522.829 151.103L533.612 187.784L534.505 147.824ZM475.545 126.693L421.082 154.588L473.261 161.498L475.545 126.693ZM466.903 164.582L375.304 178.5L400.794 192.613L466.903 164.582ZM402.562 193.855L424.448 208.864L470.101 165.126L402.562 193.855ZM467.544 162.502L418.4 156.014L375.777 163.948L343.531 177.895L372.564 177.059L467.544 162.502ZM339.443 177.505L375.01 162.134L411.158 155.378L340.525 149.293L339.443 177.505ZM338.701 149.883L302.327 169.293L337.493 177.736L338.701 149.883ZM301.973 187.496L348.67 183.872L338.387 179.908L301.973 187.496ZM415.138 153.814L383.165 129.158L382.765 129.096L343.429 147.612L415.138 153.814ZM418.358 153.925L474.363 125.203L386.058 129.024L418.358 153.925ZM474.514 123.337L456.163 106.406L389.473 126.986L474.514 123.337ZM468.726 56.4351L409.723 67.4049L455.956 103.614L468.726 56.4351ZM471.302 54.2186L545.931 66.0058C546.077 65.8526 546.27 65.7615 546.473 65.7505C546.662 65.7365 546.85 65.7895 547.006 65.9013C547.162 66.0131 547.277 66.1773 547.334 66.3681L551.006 114.831L647.022 33.459L621.339 25.6116C621.217 25.6414 621.09 25.6217 620.983 25.5565C620.872 25.434 620.786 25.289 620.73 25.1299L646.373 17.6195L617.922 13.2183L533.939 22.406L533.012 22.5048C532.845 22.5463 532.67 22.5192 532.522 22.429L445.012 29.6666L471.302 54.2186ZM648.013 31.772L650.259 17.2522L624.764 24.6886L648.013 31.772ZM657.306 -17.3972L542.524 19.6661L618.39 10.1914L657.306 -17.3972ZM661.127 -20.5834L603.435 -28.1039L537.656 19.3006L661.127 -20.5834ZM648.072 35.2195L552.79 116.269L662.88 111.895L662.051 109.006L662.549 109.616L648.072 35.2195ZM664.163 108.025L668.702 83.4L651.179 41.6568L664.163 108.025ZM670.338 82.2488L709.922 106.92L651.743 38.015L670.338 82.2488ZM670.276 84.4185L665.268 111.489L711.316 109.993L670.276 84.4185ZM667.586 113.301L741.812 154.809L713.961 111.758L667.586 113.301ZM744.291 155.289L749.783 135.993L717.697 114.128L744.291 155.289ZM750.313 134.041L752.952 122.875L719.825 113.343L750.313 134.041ZM750.74 139.24L745.497 157.51L754.679 218.98L759.2 179.146L750.74 139.24ZM749.271 263.956L736.774 309.675L764.399 306.152L754.538 232.566L749.271 263.956ZM736.845 311.575L749.284 342.556L763.706 308.273L736.845 311.575ZM748.508 347.279C748.508 347.279 748.508 347.279 748.241 347.237C748.054 347.12 747.907 346.945 747.817 346.736L628.251 380.831L765.424 414.159L749.049 347.023C748.887 347.097 748.71 347.12 748.537 347.089L748.508 347.279ZM628.968 383.267L683.666 422.819L764.508 415.954L628.968 383.267ZM683.225 425.075L662.15 435.181L707.525 462.201L683.225 425.075ZM679.886 424.559L652.354 423.06L660.419 433.993L679.886 424.559ZM649.78 422.904L630.074 421.211L648.059 461.138L659.005 435.179L649.78 422.904ZM648.091 465.646L647.719 464.814L633.217 475.452L656.35 483.874L648.062 465.836L648.091 465.646ZM646.936 463.095L627.564 420.048L611.433 397.601L613.3 472.468L630.418 474.68L631.22 474.804L646.936 463.095ZM630.348 476.607L613.282 474.354L631.186 524.825L630.348 476.607ZM611.913 475.837L595.847 518.099L630.653 528.859L611.913 475.837ZM609.507 395.317L573.678 378.2L611.343 469.502L609.507 395.317ZM571.682 378.134L552.869 388.057L552.585 407.868L608.855 468.197L571.682 378.134ZM572.216 374.681L567.607 345.541L614.571 349.32L680.242 300.252C680.242 300.252 680.301 299.874 680.337 299.637C677.775 292.047 674.815 284.621 671.47 277.393L654.199 259.37L643.998 255.758L537.567 344.042L572.216 374.681ZM641.172 255.756L517.612 260.856L536.674 342.451L641.172 255.756ZM579.638 224.445L535.513 195.536L535.432 199.301L534.356 195.647L517.763 258.409L579.638 224.445ZM533.406 192.353L521.652 152.228L457.903 229.536L533.296 192.772L533.406 192.353ZM519.559 151.904L475.016 163.416L456.491 228.349L519.559 151.904ZM472.572 165.363L425.949 210.064L454.063 230.491L472.572 165.363ZM425.709 212.206L435.695 282.034L453.496 232.389L425.709 212.206ZM424.684 218.828L420.363 286.248L424.987 290.838L422.743 299.159L427.663 296.821L434.293 285.498L424.684 218.828ZM427.327 298.997L422.732 300.998L426.211 342.457L427.327 298.997ZM427.611 358.752L424.181 388.876L437.112 386.034L444.812 392.552L449.254 378.275L429.063 302.51L427.611 358.752ZM436.717 388.297L422.236 391.432L425.971 358.74L421.238 303.285L388.583 396.493L406.017 404.033L441.722 411.348L444.319 394.558L436.717 388.297ZM404.827 405.834L388.684 398.494L395.366 435.461L404.907 432.724L404.827 405.834ZM406.613 432.891L408.485 433.761L413.617 422.981L406.666 408.976L406.613 432.891ZM386.463 397.23L374.577 361.492L375.242 422.614L393.191 435.076L386.463 397.23ZM387.347 394.171L417.289 308.776L406.888 325.908L399.408 328.286L399.406 333.904L393.567 340.41L387.816 332.789L376.285 334.54L374.683 355.504L387.347 394.171ZM388.457 330.709L393.553 337.55L397.58 333.331L397.64 327.044L405.743 324.472L420.002 300.963L422.89 291.724L419.411 288.28L400.523 308.41L386.707 306.951L384.066 324.024L367.033 320.082L384.387 331.677L388.457 330.709ZM386.502 304.74L399.954 306.191L418.021 286.951L373.975 264.011L371.978 283.993L386.502 304.74ZM374.215 261.869L418.662 285.162L423.371 211.699L376.761 235.095L374.096 261.754L374.215 261.869ZM400.588 221.057L421.936 210.364L401.069 203.503L400.588 221.057ZM418.718 207.299L400.323 194.477L372.271 178.951L343.335 179.753L399.96 201.54C400.071 201.444 400.202 201.379 400.342 201.35C400.482 201.321 400.625 201.329 400.76 201.373L418.718 207.299ZM346.479 185.954L289.487 190.407L315.509 210.51L346.479 185.954ZM334.305 178.889L300.187 170.754L287.481 188.643L334.305 178.889ZM293.226 159.168L283.776 190.782L299.233 168.96L338.979 147.795L339.066 147.228L361.191 59.316L293.226 159.168ZM341.113 146.672L380.841 127.975L358.87 107.917L369.36 80.4833L363.317 57.9499L341.113 146.672ZM381.794 126.234L370.175 83.4666L361.005 107.376L381.794 126.234ZM364.745 55.7977L370.496 77.5597L377.378 59.5924L364.745 55.7977ZM383.528 49.0179L379.883 58.4302L404.943 65.8905L383.528 49.0179ZM406.171 67.9693L406.135 68.2057L379.427 60.1999L371.712 80.605L384.125 126.788L454.795 104.935L407.654 67.8113L406.171 67.9693ZM408.347 65.6908L468.944 54.4349L442.394 29.7943L408.347 65.6908ZM446.769 25.9675L444.77 27.6922L532.511 20.4417L552.166 -15.2597L446.769 25.9675ZM554.768 -16.1647L535.755 18.3285L602.489 -29.9452L623.275 -54.0913L554.768 -16.1647ZM626.839 -55.6222L604.907 -29.9585L662.473 -22.506L626.987 -55.9868L626.839 -55.6222ZM629.056 -56.3931L665.627 -21.679C665.739 -21.5498 665.809 -21.3868 665.829 -21.212L679.103 -9.47308L701.803 -60.7329L629.056 -56.3931ZM702.463 -57.6283L680.589 -8.17773L680.945 -8.12263L652.201 16.4872L649.699 32.6623L713.36 108.275L702.463 -57.6283ZM749.596 97.4156L704.615 -53.8571L715.434 110.194L753.126 120.868L749.596 97.4156ZM751.602 98.8882L754.804 121.515L839.596 147.465L751.602 98.8882ZM845.354 151.213L755.728 123.789L767.026 147.716L766.482 188.069L845.354 151.213ZM764.584 188.841L765.224 148.164L754.27 124.967L751.866 135.201L751.8 135.627L760.973 178.887L766.717 200.696L764.584 188.841ZM770.554 222.453L760.397 183.786L755.614 226.195L755.549 226.621L765.251 298.874L770.554 222.453ZM766.058 308.394L765.701 308.339L750.845 343.669L795.111 334.536L766.058 308.394ZM750.515 345.797L766.874 412.446L796.228 336.452L750.515 345.797ZM798.677 336.831L816.113 383.549L917.317 337.896L798.677 336.831ZM906.396 282.064L885.508 279.172L919.188 331.696L906.396 282.064ZM926.164 284.832L908.311 282.36L921.199 331.958L926.164 284.832ZM998.229 380.68L992.204 404.301L1003.83 470.605L998.229 380.68ZM1006.53 485.551L1032.98 398.598L1033.05 398.125L999.833 374.729L999.789 375.013L1006.53 485.551ZM998.046 375.082L997.893 372.831L996.73 362.966L993.67 392.469L998.046 375.082ZM999.687 372.431L1032.98 395.935L1030.51 359.136L1009.71 346.233L997.954 352.985L997.728 354.451L999.687 372.431ZM1007.94 345.038L955.851 312.476L996.653 351.67L1007.94 345.038ZM995.822 354.689L995.924 354.027L924.7 338.796L990.561 402.255L990.872 402.012L995.822 354.689ZM994.05 351.703L948.758 308.231L923.308 336.595L994.05 351.703ZM947.501 306.923L927.903 286.263L922.739 334.376L947.501 306.923ZM990.231 293.581L929.615 285.511L949.221 306.123L1009.86 343.833C1010.03 343.817 1010.21 343.853 1010.36 343.937C1010.52 344.021 1010.65 344.15 1010.74 344.309L1031.27 357.171C1031.45 357.159 1031.64 357.208 1031.79 357.31C1031.95 357.412 1032.07 357.562 1032.14 357.741L1048.39 367.907L990.231 293.581ZM1027.79 303.071L1027.48 303.023L1025.47 302.713L999.501 295.838L1026.98 312.728L1087.89 291.739L1027.79 303.071ZM1117.1 378.487L1121.84 443.048L1121.42 475.235L1122.12 475.684L1133.42 357.282L1101.43 292.961L1117.1 378.487ZM1084.09 332.509L1114.62 375.053L1099.21 291.988L1083.12 332.6L1084.09 332.509ZM1081.13 332.825L1098.02 290.207L1028.68 314.105C1028.73 314.346 1028.69 314.6 1028.57 314.814C1028.49 314.94 1028.39 315.044 1028.26 315.118C1028.14 315.192 1028 315.233 1027.86 315.238L1042.12 337.106L1081.13 332.825ZM1041.42 339.274L1024.54 313.464L993.073 294.069L1050.4 367.588L1041.42 339.274ZM1050.89 371.781L1032.23 360.127L1034.62 395.608L1050.89 371.781ZM1045.66 405.597L1034.38 400.752L1008.39 486.225L1026.55 466.952L1048.34 428.094L1045.66 405.597ZM1008.17 489.098L1053.62 500.05L1027.22 468.847L1008.17 489.098ZM1048.7 431.346L1028.41 467.579L1055 499.054L1048.7 431.346ZM1121.37 783.47L1121.26 784.179L1132.07 777.086L1121.37 783.47ZM1133.9 773.833L1124.86 757.131L1121.7 781.098L1133.9 773.833ZM1125.26 753.902L1135.47 772.77L1145.54 766.675L1142.02 752.28L1121.17 749.442L1125.26 753.902ZM1164.64 755.488L1144.01 752.685L1147.21 765.868L1164.64 755.488ZM1146.31 769.894L1137.08 775.972L1156.6 812.164L1146.31 769.894ZM1135.56 776.947L1121.02 786.369L1120.72 788.308L1156.4 815.476L1135.56 776.947ZM1156.18 817.814L1120.04 790.334L1105.85 817.196L1156.18 817.814ZM1119.01 787.85L1112.66 792.05L1118.96 788.181L1119.01 787.85ZM1080.5 807.802L1092.66 810.554L1097.8 802.052L1098.74 799.533L1098.79 799.202L1099.79 796.596L1080.5 807.802ZM1094.31 811.343L1103.96 817.049L1117.51 791.347L1100.27 801.417L1094.31 811.343ZM1101.47 797.195L1119.34 785.431L1119.47 784.58L1102.44 794.778L1101.47 797.195ZM1103.3 791.861L1119.63 782.086L1123.27 754.416L1118.96 749.828L1103.3 791.861ZM1119.75 747.383L1139.94 750.071L1123.27 734.996L1119.75 747.383ZM1117.5 689.745L1117.84 690.476L1123.65 732.827L1142.44 749.875L1152.33 732.471L1112.54 660.212L1117.65 689.089C1117.71 689.309 1117.71 689.546 1117.63 689.765L1117.5 689.745ZM1105.77 659.455L1114.61 682.227L1109.88 655.344L1109.69 655.073L1138.68 588.467L1090.64 587.233L1105.37 639.392C1105.4 639.585 1105.37 639.787 1105.28 639.959L1105.77 659.455ZM1089.63 590.272L1088.64 596.61L1098.92 622.414L1089.63 590.272ZM1076.8 627.514L1104.09 657.355L1103.83 639.928L1087.75 599.183L1076.8 627.514ZM1087.21 593.773L1088.34 586.49L1074.4 566.077L1087.21 593.773ZM1072.99 561.354L1089.89 585.325L1137.48 586.537L1057.86 504.774L1072.99 561.354ZM1070.89 560.497L1055.55 503.159L1004.11 540.965C1004.04 541.166 1003.9 541.333 1003.72 541.437L1070.89 560.497ZM1003.2 539.516L1053.9 502.079L1007.14 490.778L1003.2 539.516ZM1005.41 489.881C1005.21 489.711 1005.08 489.466 1005.06 489.197L1004.94 486.709L993.682 422.447L1002.13 532.28L1005.41 489.881ZM1000.91 540.179L990.731 405.865L916.952 496.149L1000.91 540.179ZM988.077 406.229L874.629 498.609L914.8 495.622C914.961 495.383 915.198 495.213 915.466 495.144L988.077 406.229ZM1014.87 792.951L1006.52 752.917L958.595 792.188L1014.87 792.951ZM944.905 780.481L955.573 791.091L971.903 740.347L944.905 780.481ZM975.541 735.098L957.857 790.475L1006.1 750.915L976.637 699.722L975.541 735.098ZM1006.7 748.538L1010.64 727.453L1024.34 710.201L976.771 696.498L1006.7 748.538ZM975.925 692.541L1002.94 638.124L960.555 582.364L975.925 692.541ZM952.223 622.965L972.879 683.644L958.819 582.095L952.223 622.965ZM958.728 577.674L998.911 542.775L919.273 575.445L958.728 577.674ZM917.216 574.303L998.321 540.989L916.251 498.026L917.216 574.303ZM915.394 572.23L914.47 497.751L873.336 500.782L915.394 572.23ZM988.997 403.223L923.27 339.785L923.861 342.153L921.889 338.99L873.529 497.18L988.997 403.223ZM871.623 497.418L920.093 338.809L816.844 385.308L871.623 497.418ZM869.091 496.396L818.947 393.818L840.444 472.933L840.889 473.002L869.091 496.396ZM802.9 527.901L845.8 521.705L781.307 514.536L802.9 527.901ZM852.007 520.485L839.226 475.795L780.167 512.471L852.007 520.485ZM777.221 512.064L838.554 473.948C838.517 473.755 838.549 473.553 838.642 473.38L814.707 385.268L797.271 338.551L767.534 415.551L767.841 416.809L766.817 416.65L765.499 418.093L686.073 424.644L686.608 425.018L685.272 424.811L711.002 464.773L710.683 478.622L777.221 512.064ZM769.815 510.434L710.019 480.263L689.035 491.545L769.815 510.434ZM686.186 491.104L708.999 478.604L709.292 466.397L661.196 484.962L686.186 491.104ZM708.117 464.859L660.439 436.224L649.013 463.222L658.509 484.062L708.117 464.859ZM656.754 485.68L635.151 477.979L651.701 495.358L656.754 485.68ZM650.443 497.004L632.012 477.639L633.104 526.865L650.443 497.004ZM631.262 536.12L605.404 623.115L634.304 594.849L631.262 536.12ZM634.568 596.972L605.047 626.014L649.504 633.327L634.568 596.972ZM649.901 645.205L649.966 637.418L634.661 657.376L649.901 645.205ZM648.14 636.845L603.569 659.733L628.832 661.753L648.14 636.845ZM628.539 663.644L602.468 661.548L628.263 694.014L628.539 663.644ZM600.205 661.731L582.987 674.903L582.97 681.196L625.517 693.493L600.205 661.731ZM573.086 689.691L619.554 693.732L581.862 683.059L568.571 680.567L573.086 689.691ZM579.498 660.029C579.435 660.121 579.352 660.197 579.257 660.249C579.161 660.302 579.056 660.33 578.949 660.331L568.403 678.41L581.204 680.826L581.219 673.952L599.372 660.343L599.964 660.047L602.259 629.893L579.498 660.029ZM589.78 573.82L630.16 530.574L595.131 519.78L589.78 573.82ZM583.885 620.174L587.76 576.559L580.527 562.316L583.885 620.174ZM580.235 557.719L588.458 573.228L593.802 519.235L593.579 519.201L593.63 518.87L555.526 488.761L580.235 557.719ZM594.183 517.066L610.367 474.339L555.171 485.752L594.183 517.066ZM553.793 483.457L554.122 484.282L610.652 472.494L552.858 410.525L553.793 483.457ZM459.546 369.504L459.566 371.734L459.405 372.775L551.867 480.882L550.909 408.093L551.174 386.342L571.054 375.712L535.893 344.848L535.374 345.252L515.534 260.437L515.356 260.41C515.24 260.386 515.13 260.337 515.032 260.268C514.935 260.198 514.851 260.109 514.787 260.004C514.723 259.9 514.679 259.783 514.658 259.659C514.636 259.536 514.639 259.409 514.664 259.286C514.689 259.128 514.755 258.981 514.854 258.859C514.954 258.738 515.082 258.647 515.226 258.598L515.292 258.172L515.871 258.262L532.677 194.71L455.491 232.165L459.546 369.504ZM453.913 236.764L436.348 285.767L457.703 367.862L453.913 236.764ZM457.023 372.261L435.003 287.98L429.43 297.482C429.601 297.607 429.719 297.799 429.758 298.017L450.697 376.609L457.023 372.261ZM451.268 414.471L448.447 396.456L448.068 392.426L448.672 387.047L446.314 394.624L443.556 412.455L449.443 421.259L451.268 414.471ZM443.878 437.784L424.741 431.821L421.748 451.165L443.878 437.784ZM424.44 429.934L445.485 436.531L448.818 423.826L441.986 413.762L407.521 406.687L415.567 422.459L424.44 429.934ZM419.592 452.139L422.833 431.187L414.963 424.594L409.853 435.232L414.658 451.908L419.592 452.139ZM413.026 451.849L408.385 435.877L405.868 434.761L395.03 437.927L367.994 450.016L413.026 451.849ZM355.599 425.822L364.403 449.364L392.756 436.413L374.051 423.834L357.047 412.922L355.599 425.822ZM267.243 312.393C268.16 320.207 270.675 327.684 274.612 334.308L312.43 341.805L268.514 272.056C268.108 279.983 267.061 303.551 267.243 312.393ZM268.787 268.224L268.722 268.649L314.909 342.286L314.865 342.569L356.76 410.65L372.152 420.489L310.919 287.333C310.852 287.237 310.805 287.128 310.779 287.011C310.753 286.895 310.749 286.774 310.767 286.655C310.785 286.537 310.826 286.422 310.886 286.319C310.946 286.217 311.024 286.127 311.116 286.056C311.31 285.908 311.548 285.846 311.781 285.882C312.015 285.918 312.223 286.049 312.363 286.248L373.536 418.911L372.94 355.864C372.939 355.719 372.961 355.575 373.006 355.438L374.57 334.13L374.738 333.042L381.791 331.953L357.536 315.755L382.792 321.648L385.207 306.041L370.533 285.078L370.161 284.536L372.304 263.317L313.189 259.983L312.03 259.223C312.024 259.126 312.039 259.029 312.074 258.939L352.898 228.74L377.219 234.197L399.004 223.039L399.521 204.378L350.469 185.506L358.71 195.595L370.142 195.959L392.789 206.048L349.54 205.363L315.375 213.734L288.536 193.02L289.012 204.087L304.727 229.521C304.832 229.689 304.873 229.894 304.842 230.095C304.811 230.297 304.71 230.48 304.558 230.608C304.579 230.688 304.583 230.771 304.57 230.853C304.558 230.934 304.529 231.012 304.485 231.081C304.45 231.307 304.332 231.511 304.157 231.647C303.982 231.784 303.765 231.842 303.552 231.809L291.596 229.233L269.875 235.558L260.447 267.03L268.787 268.224ZM316.219 258.079L372.433 261.303L375.077 235.077L316.219 258.079ZM372.997 233.786L353.167 229.363L317.831 255.326L372.997 233.786ZM267.908 235.302L237.706 247.822L229.639 249.576L258.582 265.531L267.908 235.302ZM139.927 254.246L234.89 259.251L251.249 263.719L226.577 250.216L184.567 242.991L158.707 249.548L136.6 242.157L139.927 254.246ZM118.858 243.093L137.663 253.266L134.261 241.069L99.129 158.15L118.858 243.093Z" fill="url(#paint2_radial_1005_5284)"/>
</g>
<path d="M99.666 152.615L132.764 224.226L183.307 226.089L219.841 219.198L280.521 195.025L291.422 158.453L362.693 54.0276L363.048 53.5014L378.124 58.0128L382.698 46.1292L406.55 64.9285L441.026 28.6142L440.387 28.031L441.677 27.9401L445.683 24.4434L553.823 -17.7154L625.544 -57.5659L626.441 -58.0568C626.685 -58.1163 626.939 -58.077 627.153 -57.9465L703.661 -62.7216L751.189 96.5482L848.274 150.309L850.531 151.046L766.553 190.259L772.29 222.431C772.29 222.431 772.29 222.431 772.253 222.667L766.432 306.563L797.65 335.219L919.175 336.198L918.499 335.56L919.523 335.719L882.762 278.65C882.756 278.538 882.774 278.425 882.813 278.319C882.996 278.281 883.185 278.31 883.348 278.402V278.402L905.668 281.467L887.028 209.526L800.778 216.571L794.207 196.571C794.136 196.339 794.149 196.085 794.243 195.859C794.336 195.632 794.505 195.448 794.716 195.342C794.937 195.263 795.176 195.272 795.388 195.367C795.6 195.463 795.771 195.638 795.867 195.859L802.298 213.223L887.992 206.237L888.438 206.306L907.474 279.81L926.982 282.489L987.911 291.188L904.19 218.525L918.079 198.881C918.226 198.681 918.439 198.544 918.674 198.5C918.908 198.456 919.149 198.506 919.347 198.642C919.535 198.793 919.656 199.019 919.686 199.268C919.716 199.518 919.651 199.771 919.506 199.974L906.615 218.174L991.072 291.677L991.473 291.739C991.608 291.583 991.789 291.481 991.985 291.45C992.181 291.418 992.38 291.46 992.548 291.566L993.885 292.354L1023.45 300.172L1023.85 300.234L1027.72 300.833L1099.99 287.509L1100.67 287.274L1134.88 356.056L1173.55 351.869C1173.79 351.845 1174.02 351.918 1174.2 352.072C1174.38 352.227 1174.49 352.45 1174.52 352.696C1174.53 352.821 1174.51 352.947 1174.47 353.067C1174.44 353.186 1174.38 353.297 1174.3 353.393C1174.22 353.489 1174.12 353.568 1174.02 353.625C1173.91 353.683 1173.79 353.718 1173.68 353.728L1135.15 357.889L1124.22 476.298C1124.22 476.411 1124.21 476.524 1124.16 476.629L1166.25 502.801C1166.46 502.93 1166.6 503.139 1166.66 503.384C1166.71 503.628 1166.68 503.888 1166.55 504.107C1166.47 504.26 1166.34 504.384 1166.19 504.464C1166.04 504.544 1165.87 504.577 1165.71 504.557L1165.35 504.502L1122.68 478.531L1122.42 478.49L1122.02 478.428L1120.23 477.037L1119.78 476.968L1120.08 443.793L1115.39 379.821L1083.24 335.088L1043.35 339.475L1043.98 340.444C1044.07 340.633 1044.1 340.85 1044.07 341.063C1044.04 341.276 1043.94 341.473 1043.8 341.626L1053.28 371.666C1053.48 371.801 1053.61 372.013 1053.66 372.255C1053.71 372.498 1053.66 372.752 1053.54 372.964C1053.46 373.122 1053.33 373.25 1053.18 373.331C1053.03 373.411 1052.86 373.441 1052.69 373.415L1052.2 373.339L1034.58 398.846L1034.48 399.508L1046.79 404.803L1049.33 426.069C1049.36 426.197 1049.33 426.331 1049.27 426.447L1057.08 501.216L1140.28 586.727L1164.3 587.297C1164.42 587.302 1164.54 587.332 1164.65 587.385C1164.75 587.438 1164.85 587.514 1164.93 587.607C1165.01 587.7 1165.07 587.81 1165.11 587.928C1165.14 588.047 1165.16 588.173 1165.15 588.3C1165.13 588.544 1165.02 588.772 1164.85 588.942C1164.69 589.112 1164.47 589.212 1164.23 589.223L1140.76 588.594L1111.88 655.072L1154.59 732.579L1144.26 750.786L1170.07 754.247L1147.99 768.797L1160.35 819.719L1104.12 819.253L1092.79 812.657L1075.57 808.734L1100.98 793.584L1117.91 748.114L1122.03 733.546L1116.29 691.397L1104.25 660.478L1074.86 628.232L1086.81 597.003L1070.81 563.342C1070.78 563.224 1070.77 563.098 1070.79 562.975C1070.81 562.852 1070.86 562.735 1070.92 562.633L1002.18 543.136L960.63 579.228L1004.89 637.649L1005.27 638.144L977.034 694.505L1024.09 708.031L1004.94 673.252C1004.87 673.156 1004.83 673.047 1004.8 672.931C1004.77 672.814 1004.77 672.693 1004.79 672.575C1004.81 672.456 1004.85 672.342 1004.91 672.239C1004.97 672.136 1005.05 672.046 1005.14 671.975C1005.33 671.827 1005.57 671.765 1005.8 671.801C1006.04 671.837 1006.24 671.969 1006.38 672.168L1026.95 709.54L1012.19 728.322L1007.97 750.914L1008.18 751.334L1017.15 794.708L955.764 793.687L942.606 780.61L973.982 734.566L975.2 697.223L975.273 696.75L975.115 695.709L974.777 693.477L951.179 624.111L906.234 604.034C906.014 603.936 905.841 603.748 905.753 603.512C905.666 603.276 905.671 603.011 905.768 602.775C905.865 602.54 906.045 602.353 906.27 602.256C906.494 602.159 906.744 602.16 906.965 602.258L951.175 622.076L957.672 580.078C957.666 579.981 957.681 579.884 957.716 579.794L916.815 577.486C916.739 577.586 916.641 577.665 916.529 577.715C916.418 577.766 916.297 577.786 916.178 577.775L915.821 577.72C915.715 577.725 915.609 577.709 915.51 577.671V577.671C915.32 577.593 915.163 577.449 915.063 577.262C914.963 577.075 914.927 576.856 914.96 576.642C914.993 576.428 915.094 576.23 915.245 576.082C915.397 575.934 915.591 575.844 915.795 575.827L872.427 502.53L871.526 500.696L841.429 475.7L854.337 520.749L854.205 521.6L854.556 522.865L857.21 552.865L879.627 549.408L901.326 570.634C901.496 570.799 901.598 571.028 901.611 571.274C901.624 571.52 901.547 571.763 901.396 571.953C901.3 572.07 901.179 572.161 901.043 572.216C900.907 572.271 900.761 572.289 900.617 572.268C900.435 572.284 900.252 572.255 900.083 572.186L878.979 551.535L855.627 555.139L852.761 522.975L802.823 530.165L778.147 514.919C778.047 515.04 777.923 515.137 777.785 515.202L708.682 541.365L702.034 554.865C701.951 555.035 701.819 555.174 701.658 555.262C701.497 555.351 701.315 555.383 701.138 555.356L700.826 555.308C700.717 555.258 700.619 555.185 700.538 555.092C700.458 555 700.397 554.89 700.36 554.77C700.323 554.65 700.31 554.523 700.322 554.397C700.334 554.27 700.371 554.147 700.43 554.036L707.078 540.536L707.136 540.158L707.448 540.206L774.281 514.273L686.244 493.971L685.932 493.922L658.397 487.144L651.724 499.333L633.114 531.225L633.592 532.558L632.968 532.461L636.04 595.118L651.864 633.693L652.133 634.315C652.167 634.54 652.131 634.773 652.03 634.977L652.009 646.016L630.623 663.143L630.235 696.595L572.659 691.563L572.169 691.487L566.164 679.032L566.467 678.546L578.913 657.033L582.747 632.25L578.463 558.268L552.464 486.447C552.328 486.325 552.224 486.166 552.164 485.987C552.104 485.808 552.089 485.614 552.121 485.426L551.606 484.038L457.531 373.986L457.08 374.546L457.153 374.073L451.502 378.477L449.907 392.323L450.264 396.204L453.123 414.564L446.92 438.157L420.849 453.738L420.626 453.703L363.338 451.233L363.1 450.712L353.826 425.79L355.442 411.512L313.8 343.857L273.547 335.887L273.323 335.562C269.109 328.569 266.427 320.645 265.47 312.361C265.063 302.612 266.761 274.545 266.943 269.537L259.246 267.426C259.246 267.426 259.246 267.426 258.934 267.377L258.667 267.336L234.648 260.812L139.24 255.738L117.703 244.076L93.9769 142.534L99.666 152.615ZM131.61 226.082L109.409 178.046L135.638 239.538L177.487 227.755L131.61 226.082ZM220.579 220.91L183.808 227.861L138.481 240.608L158.858 247.392L184.289 240.963L249.048 209.575L220.579 220.91ZM187.591 241.425L226.943 248.142L236.664 246.014L265.377 203.627L187.591 241.425ZM239.644 245.022L268.853 233.027L290.307 226.66L268.743 202.501L239.644 245.022ZM292.22 226.375L302.804 228.691L287.7 204.319L270.574 202.154L292.22 226.375ZM282.023 196.516L272.284 200.53L287.302 202.176L286.756 189.791L282.319 196.078L282.023 196.516ZM356.78 195.102L349.068 186.016L321.001 208.309L356.78 195.102ZM329.018 207.467L349.303 202.469L383.65 202.94L369.75 196.721L358.452 196.378L329.018 207.467ZM581.549 655.019L601.868 627.411L601.556 627.363L602.466 626.487L589.655 581.404L585.128 632.473L581.549 655.019ZM603.708 624.063L630.633 533.408L590.201 576.694L603.708 624.063ZM604.192 628.594L601.913 658.944L648.284 635.027L604.405 627.803L604.192 628.594ZM663.414 -19.4548L662.969 -19.5236L620.98 10.2529L650.766 14.8608L663.414 -19.4548ZM653.35 12.8877L678.074 -8.1309L665.291 -19.5034L653.35 12.8877ZM477.547 126.131L475.256 161.274L519.488 150.005L477.547 126.131ZM517.827 146.891L502.723 129.299L480.729 125.897L517.827 146.891ZM503.639 127.504L522.283 149.323L534.59 145.803L532.707 122.025L532.652 120.902L532.725 120.429L532.821 119.814L544.876 68.4091L470.765 56.2179L457.332 105.037L477.303 123.285L503.639 127.504ZM645.761 254.384L654.061 257.314L662.108 218.558L666.047 177.181L642.564 230.257L644.721 253.739L646.605 253.643L645.761 254.384ZM650.673 420.96L680.416 422.607L624.619 382.207L611.968 394.439L650.673 420.96ZM614.372 398.346L627.869 417.19C628.006 417.215 628.136 417.271 628.249 417.356C628.362 417.44 628.456 417.55 628.523 417.678L629.037 418.775L629.216 419.093L646.763 420.597L614.372 398.346ZM623.2 381.067L577.148 377.575L610.349 393.413L623.2 381.067ZM626.735 379.435L746.893 344.753L698.324 302.129L681.217 301.613L615.339 350.843L615.116 350.808L569.731 347.129L574.175 374.984L573.323 375.191L626.735 379.435ZM548.008 117.709L535.656 120.641L560.408 140.112L592.707 147.336L550.494 117.851L547.608 117.937L548.008 117.709ZM549.361 115.448L545.972 71.0485L534.755 119.097L549.361 115.448ZM534.614 122.368L536.444 145.606L597.644 152.555L596.489 150.294L559.789 142.05L534.614 122.368ZM597.501 148.465L600.835 153.436L600.66 154.571L582.026 220.504L626.542 172.329L651.054 152.682L662.749 113.037L553.445 117.339L597.501 148.465ZM630.999 216.603L630.933 217.029L641.358 228.327L666.317 171.896L651.772 155.117L628.504 173.794L630.787 214.439C630.946 214.544 631.069 214.7 631.138 214.884C631.208 215.069 631.221 215.273 631.175 215.468L630.999 216.603ZM626.868 175.527L582.182 223.918L582.627 223.987L622.743 244.043L629.263 216.334L626.868 175.527ZM653.052 153.62L667.731 170.419L678.345 162.812L664.268 115.596L653.052 153.62ZM682.215 299.879L697.816 300.404L699.502 260.034C691.809 276.762 683.755 294.936 682.281 299.744L682.215 299.879ZM700.618 254.299L741.716 206.708L671.935 214.267L700.618 254.299ZM686.562 237.596L686.478 247.268L685.699 264.388L699.403 255.37L686.562 237.596ZM741.822 204.545L714.483 172.034L679.869 164.452L671.248 212.224L741.822 204.545ZM684.702 235.177L669.933 214.539L664.163 218.828L684.582 245.086L684.665 235.414L684.702 235.177ZM669.462 212.868L677.936 165.751L668.24 172.726L664.018 217.11L669.462 212.868ZM679.962 162.674L712.506 169.791L666.05 116.453L679.962 162.674ZM715.548 170.456L743.08 202.9L743.852 158.127L668.378 115.845L715.548 170.456ZM744.65 205.128L752.795 219.076L745.261 168.466L744.65 205.128ZM744.97 209.246L748.722 256.607L753.783 226.541L753.361 223.667L744.97 209.246ZM743.053 207.787L701.8 255.498C701.802 255.627 701.782 255.755 701.741 255.877L735.169 308.555L747.357 263.66L743.053 207.787ZM734.774 311.109L701.294 258.471L699.56 300.916L747.735 343.14L734.774 311.109ZM698.023 258.401L685.03 266.948L673.167 277.026C674.412 279.882 679.257 290.705 681.206 296.672C684.608 288.239 693.786 268.109 698.023 258.401ZM683.648 265.863L684.47 248.168L663.284 220.677L655.517 258.218L672.155 275.32L683.648 265.863ZM640.636 230.636L630.248 219.102L624.109 244.933L642.643 253.32L640.636 230.636ZM622.02 246.062L581.719 226.026L580.873 225.895L520.494 259.025L639.796 254.042L622.02 246.062ZM598.483 156.559L535.501 193.548L580.035 222.472L598.483 156.559ZM598.049 154.652L536.27 147.613L535.363 191.493L598.049 154.652ZM534.505 147.824L524.252 150.742L522.829 151.103L533.612 187.784L534.505 147.824ZM475.545 126.693L421.082 154.588L473.261 161.498L475.545 126.693ZM466.903 164.582L375.304 178.5L400.794 192.613L466.903 164.582ZM402.562 193.855L424.448 208.864L470.101 165.126L402.562 193.855ZM467.544 162.502L418.4 156.014L375.777 163.948L343.531 177.895L372.564 177.059L467.544 162.502ZM339.443 177.505L375.01 162.134L411.158 155.378L340.525 149.293L339.443 177.505ZM338.701 149.883L302.327 169.293L337.493 177.736L338.701 149.883ZM301.973 187.496L348.67 183.872L338.387 179.908L301.973 187.496ZM415.138 153.814L383.165 129.158L382.765 129.096L343.429 147.612L415.138 153.814ZM418.358 153.925L474.363 125.203L386.058 129.024L418.358 153.925ZM474.514 123.337L456.163 106.406L389.474 126.986L474.514 123.337ZM468.726 56.4351L409.723 67.4049L455.956 103.614L468.726 56.4351ZM471.302 54.2186L545.931 66.0058C546.077 65.8526 546.27 65.7615 546.473 65.7505C546.662 65.7365 546.85 65.7895 547.006 65.9013C547.162 66.0131 547.277 66.1773 547.334 66.3681V66.3681L551.007 114.831L647.022 33.459L621.339 25.6116C621.217 25.6414 621.09 25.6217 620.983 25.5565C620.872 25.434 620.786 25.289 620.73 25.1299V25.1299L646.373 17.6195L617.922 13.2183L533.939 22.4061L533.012 22.5048C532.845 22.5463 532.67 22.5192 532.522 22.429V22.429L445.012 29.6666L471.302 54.2186ZM648.013 31.772L650.259 17.2522L624.764 24.6886L648.013 31.772ZM657.306 -17.3972L542.524 19.6661L618.39 10.1914L657.306 -17.3972ZM661.127 -20.5834L603.435 -28.1039L537.656 19.3006L661.127 -20.5834ZM648.072 35.2195L552.79 116.269L662.88 111.895L662.051 109.006L662.549 109.616L648.072 35.2195ZM664.163 108.025L668.702 83.4L651.179 41.6568L664.163 108.025ZM670.338 82.2488L709.923 106.92L651.743 38.015L670.338 82.2488ZM670.276 84.4185L665.268 111.489L711.316 109.993L670.276 84.4185ZM667.586 113.301L741.812 154.809L713.961 111.758L667.586 113.301ZM744.291 155.289L749.783 135.993L717.697 114.128L744.291 155.289ZM750.313 134.041L752.952 122.875L719.825 113.343L750.313 134.041ZM750.74 139.24L745.497 157.51L754.679 218.98L759.2 179.146L750.74 139.24ZM749.271 263.956L736.774 309.675L764.399 306.152L754.538 232.566L749.271 263.956ZM736.845 311.575L749.284 342.556L763.706 308.273L736.845 311.575ZM748.508 347.279C748.508 347.279 748.508 347.279 748.241 347.237C748.054 347.12 747.907 346.945 747.817 346.736L628.251 380.831L765.424 414.159L749.049 347.023C748.887 347.097 748.71 347.12 748.537 347.089L748.508 347.279ZM628.968 383.267L683.665 422.819L764.508 415.954L628.968 383.267ZM683.225 425.075L662.15 435.181L707.525 462.201L683.225 425.075ZM679.886 424.559L652.354 423.06L660.419 433.993L679.886 424.559ZM649.78 422.904L630.074 421.211L648.059 461.138L659.005 435.179L649.78 422.904ZM648.091 465.646L647.719 464.814L633.217 475.452L656.35 483.874L648.062 465.836L648.091 465.646ZM646.936 463.095L627.564 420.048L611.433 397.601L613.3 472.468L630.418 474.68L631.22 474.804L646.936 463.095ZM630.348 476.607L613.282 474.354L631.186 524.825L630.348 476.607ZM611.913 475.837L595.847 518.099L630.653 528.859L611.913 475.837ZM609.507 395.317L573.678 378.2L611.343 469.502L609.507 395.317ZM571.682 378.134L552.869 388.057L552.585 407.868L608.855 468.197L571.682 378.134ZM572.216 374.681L567.607 345.541L614.571 349.32L680.242 300.252C680.242 300.252 680.301 299.874 680.337 299.637C677.775 292.047 674.815 284.621 671.47 277.393L654.199 259.37L643.998 255.758L537.567 344.042L572.216 374.681ZM641.172 255.756L517.612 260.856L536.674 342.451L641.172 255.756ZM579.638 224.445L535.513 195.536L535.432 199.301L534.356 195.647L517.763 258.409L579.638 224.445ZM533.407 192.353L521.652 152.228L457.903 229.536L533.296 192.772L533.407 192.353ZM519.559 151.904L475.016 163.416L456.491 228.349L519.559 151.904ZM472.572 165.363L425.949 210.064L454.063 230.491L472.572 165.363ZM425.709 212.206L435.695 282.034L453.496 232.389L425.709 212.206ZM424.684 218.828L420.363 286.248L424.987 290.838L422.743 299.159L427.663 296.821L434.293 285.498L424.684 218.828ZM427.327 298.997L422.732 300.998L426.211 342.457L427.327 298.997ZM427.611 358.752L424.181 388.876L437.112 386.034L444.812 392.552L449.254 378.275L429.063 302.51L427.611 358.752ZM436.717 388.297L422.236 391.432L425.971 358.74L421.238 303.285L388.583 396.493L406.017 404.033L441.722 411.348L444.319 394.558L436.717 388.297ZM404.827 405.834L388.684 398.494L395.366 435.461L404.907 432.724L404.827 405.834ZM406.613 432.891L408.485 433.761L413.617 422.981L406.666 408.976L406.613 432.891ZM386.463 397.23L374.577 361.492L375.242 422.614L393.191 435.076L386.463 397.23ZM387.347 394.171L417.289 308.776L406.888 325.908L399.408 328.286L399.406 333.904L393.567 340.41L387.816 332.789L376.285 334.54L374.683 355.504L387.347 394.171ZM388.457 330.709L393.553 337.55L397.58 333.331L397.64 327.044L405.743 324.472L420.002 300.963L422.89 291.724L419.411 288.28L400.523 308.41L386.707 306.951L384.066 324.024L367.033 320.082L384.387 331.677L388.457 330.709ZM386.502 304.74L399.954 306.191L418.021 286.951L373.975 264.011L371.978 283.993L386.502 304.74ZM374.215 261.869L418.662 285.162L423.371 211.699L376.761 235.095L374.096 261.754L374.215 261.869ZM400.588 221.057L421.936 210.364L401.069 203.503L400.588 221.057ZM418.718 207.299L400.323 194.477L372.271 178.951L343.335 179.753L399.96 201.54C400.071 201.444 400.202 201.379 400.342 201.35C400.482 201.321 400.626 201.329 400.76 201.373L418.718 207.299ZM346.479 185.954L289.487 190.407L315.509 210.51L346.479 185.954ZM334.305 178.889L300.187 170.754L287.481 188.643L334.305 178.889ZM293.226 159.168L283.776 190.782L299.233 168.96L338.979 147.795L339.066 147.228L361.191 59.316L293.226 159.168ZM341.113 146.672L380.841 127.975L358.87 107.917L369.36 80.4833L363.317 57.9499L341.113 146.672ZM381.794 126.234L370.175 83.4666L361.005 107.376L381.794 126.234ZM364.745 55.7977L370.496 77.5597L377.378 59.5924L364.745 55.7977ZM383.528 49.0179L379.883 58.4302L404.943 65.8905L383.528 49.0179ZM406.171 67.9692L406.135 68.2057L379.427 60.1999L371.712 80.605L384.125 126.788L454.795 104.935L407.654 67.8113L406.171 67.9692ZM408.347 65.6908L468.944 54.4349L442.393 29.7943L408.347 65.6908ZM446.769 25.9675L444.77 27.6922L532.511 20.4417L552.166 -15.2597L446.769 25.9675ZM554.768 -16.1647L535.755 18.3285L602.489 -29.9452L623.275 -54.0913L554.768 -16.1647ZM626.839 -55.6222L604.907 -29.9585L662.473 -22.506L626.987 -55.9868L626.839 -55.6222ZM629.056 -56.3931L665.627 -21.679C665.739 -21.5498 665.809 -21.3868 665.829 -21.212L679.103 -9.47307L701.803 -60.7329L629.056 -56.3931ZM702.463 -57.6283L680.589 -8.17773L680.945 -8.12263L652.201 16.4872L649.699 32.6623L713.36 108.275L702.463 -57.6283ZM749.596 97.4156L704.615 -53.8571L715.434 110.194L753.126 120.868L749.596 97.4156ZM751.602 98.8882L754.804 121.515L839.596 147.465L751.602 98.8882ZM845.354 151.213L755.728 123.789L767.026 147.716L766.482 188.069L845.354 151.213ZM764.584 188.841L765.224 148.164L754.27 124.967L751.866 135.201L751.8 135.627L760.973 178.887L766.717 200.696L764.584 188.841ZM770.554 222.453L760.397 183.786L755.614 226.195L755.549 226.621L765.251 298.874L770.554 222.453ZM766.058 308.394L765.701 308.339L750.845 343.669L795.111 334.536L766.058 308.394ZM750.515 345.797L766.874 412.446L796.228 336.452L750.515 345.797ZM798.677 336.831L816.113 383.549L917.317 337.896L798.677 336.831ZM906.396 282.064L885.508 279.172L919.188 331.696L906.396 282.064ZM926.164 284.832L908.311 282.36L921.199 331.958L926.164 284.832ZM998.229 380.68L992.204 404.301L1003.83 470.605L998.229 380.68ZM1006.53 485.551L1032.98 398.598L1033.05 398.125L999.833 374.729L999.789 375.013L1006.53 485.551ZM998.046 375.082L997.893 372.831L996.73 362.966L993.67 392.469L998.046 375.082ZM999.687 372.431L1032.98 395.935L1030.51 359.136L1009.71 346.233L997.954 352.985L997.728 354.451L999.687 372.431ZM1007.94 345.038L955.851 312.476L996.653 351.67L1007.94 345.038ZM995.822 354.689L995.924 354.027L924.7 338.796L990.561 402.255L990.872 402.012L995.822 354.689ZM994.05 351.703L948.758 308.231L923.308 336.595L994.05 351.703ZM947.501 306.923L927.903 286.263L922.739 334.376L947.501 306.923ZM990.231 293.581L929.615 285.511L949.221 306.123L1009.86 343.833C1010.03 343.817 1010.21 343.853 1010.36 343.937C1010.52 344.021 1010.65 344.15 1010.74 344.309L1031.27 357.171C1031.45 357.159 1031.64 357.208 1031.79 357.31C1031.95 357.412 1032.07 357.562 1032.14 357.741L1048.39 367.907L990.231 293.581ZM1027.79 303.071L1027.48 303.023L1025.47 302.713L999.501 295.838L1026.98 312.728L1087.89 291.739L1027.79 303.071ZM1117.1 378.487L1121.84 443.048L1121.42 475.235L1122.12 475.684L1133.42 357.282L1101.43 292.961L1117.1 378.487ZM1084.09 332.509L1114.62 375.053L1099.21 291.988L1083.12 332.6L1084.09 332.509ZM1081.13 332.824L1098.02 290.207L1028.68 314.105C1028.73 314.346 1028.69 314.6 1028.57 314.814C1028.49 314.94 1028.39 315.044 1028.26 315.118C1028.14 315.192 1028 315.233 1027.86 315.238L1042.12 337.106L1081.13 332.824ZM1041.42 339.274L1024.54 313.464L993.073 294.069L1050.4 367.588L1041.42 339.274ZM1050.89 371.78L1032.23 360.127L1034.62 395.608L1050.89 371.78ZM1045.66 405.597L1034.38 400.752L1008.39 486.225L1026.55 466.952L1048.34 428.094L1045.66 405.597ZM1008.17 489.098L1053.62 500.05L1027.22 468.847L1008.17 489.098ZM1048.7 431.346L1028.41 467.579L1055 499.054L1048.7 431.346ZM1121.37 783.47L1121.26 784.179L1132.07 777.086L1121.37 783.47ZM1133.9 773.833L1124.86 757.131L1121.7 781.098L1133.9 773.833ZM1125.26 753.902L1135.47 772.77L1145.54 766.675L1142.02 752.28L1121.17 749.442L1125.26 753.902ZM1164.64 755.488L1144.01 752.685L1147.21 765.868L1164.64 755.488ZM1146.31 769.894L1137.08 775.972L1156.6 812.164L1146.31 769.894ZM1135.56 776.947L1121.02 786.369L1120.72 788.308L1156.4 815.476L1135.56 776.947ZM1156.18 817.814L1120.04 790.334L1105.85 817.196L1156.18 817.814ZM1119.01 787.85L1112.66 792.05L1118.96 788.181L1119.01 787.85ZM1080.5 807.802L1092.66 810.554L1097.8 802.052L1098.74 799.533L1098.79 799.202L1099.79 796.596L1080.5 807.802ZM1094.31 811.343L1103.96 817.049L1117.51 791.347L1100.27 801.417L1094.31 811.343ZM1101.47 797.195L1119.34 785.431L1119.47 784.58L1102.44 794.778L1101.47 797.195ZM1103.3 791.861L1119.63 782.086L1123.27 754.416L1118.96 749.828L1103.3 791.861ZM1119.75 747.383L1139.94 750.071L1123.27 734.996L1119.75 747.383ZM1117.5 689.745L1117.84 690.476L1123.65 732.827L1142.44 749.875L1152.33 732.471L1112.54 660.212L1117.65 689.089C1117.71 689.309 1117.71 689.546 1117.63 689.765L1117.5 689.745ZM1105.77 659.455L1114.61 682.227L1109.88 655.344L1109.69 655.073L1138.68 588.467L1090.64 587.233L1105.37 639.392C1105.4 639.585 1105.37 639.787 1105.28 639.959L1105.77 659.455ZM1089.63 590.272L1088.64 596.61L1098.92 622.414L1089.63 590.272ZM1076.8 627.514L1104.09 657.355L1103.83 639.928L1087.75 599.183L1076.8 627.514ZM1087.21 593.774L1088.34 586.49L1074.4 566.077L1087.21 593.774ZM1072.99 561.354L1089.89 585.325L1137.48 586.537L1057.86 504.774L1072.99 561.354ZM1070.89 560.497L1055.55 503.159L1004.11 540.965C1004.04 541.166 1003.9 541.333 1003.72 541.437L1070.89 560.497ZM1003.2 539.516L1053.9 502.079L1007.14 490.778L1003.2 539.516ZM1005.41 489.881C1005.21 489.711 1005.08 489.466 1005.06 489.197L1004.94 486.709L993.682 422.447L1002.13 532.28L1005.41 489.881ZM1000.91 540.179L990.731 405.865L916.952 496.149L1000.91 540.179ZM988.077 406.229L874.629 498.609L914.8 495.622C914.961 495.383 915.198 495.213 915.466 495.144L988.077 406.229ZM1014.87 792.951L1006.52 752.918L958.595 792.188L1014.87 792.951ZM944.905 780.481L955.573 791.091L971.903 740.346L944.905 780.481ZM975.541 735.098L957.857 790.475L1006.1 750.915L976.637 699.722L975.541 735.098ZM1006.7 748.538L1010.64 727.453L1024.34 710.201L976.771 696.498L1006.7 748.538ZM975.925 692.541L1002.94 638.124L960.555 582.364L975.925 692.541ZM952.223 622.965L972.879 683.644L958.819 582.095L952.223 622.965ZM958.728 577.674L998.911 542.775L919.273 575.445L958.728 577.674ZM917.216 574.303L998.321 540.989L916.251 498.026L917.216 574.303ZM915.394 572.23L914.47 497.75L873.336 500.782L915.394 572.23ZM988.997 403.223L923.27 339.785L923.861 342.153L921.889 338.99L873.529 497.18L988.997 403.223ZM871.623 497.418L920.093 338.809L816.844 385.308L871.623 497.418ZM869.091 496.396L818.947 393.818L840.444 472.933L840.889 473.002L869.091 496.396ZM802.9 527.901L845.8 521.705L781.307 514.536L802.9 527.901ZM852.007 520.485L839.226 475.795L780.167 512.471L852.007 520.485ZM777.221 512.064L838.554 473.948C838.517 473.755 838.549 473.553 838.642 473.38L814.707 385.269L797.271 338.551L767.534 415.551L767.841 416.809L766.817 416.65L765.499 418.093L686.073 424.644L686.608 425.018L685.272 424.811L711.002 464.773L710.683 478.622L777.221 512.064ZM769.815 510.434L710.019 480.263L689.035 491.545L769.815 510.434ZM686.186 491.104L708.999 478.604L709.292 466.397L661.196 484.962L686.186 491.104ZM708.117 464.859L660.439 436.224L649.013 463.222L658.509 484.062L708.117 464.859ZM656.754 485.68L635.151 477.979L651.701 495.358L656.754 485.68ZM650.443 497.004L632.012 477.639L633.104 526.865L650.443 497.004ZM631.262 536.12L605.404 623.115L634.304 594.849L631.262 536.12ZM634.568 596.972L605.047 626.014L649.504 633.327L634.568 596.972ZM649.901 645.205L649.966 637.418L634.661 657.376L649.901 645.205ZM648.14 636.845L603.569 659.733L628.832 661.753L648.14 636.845ZM628.539 663.644L602.468 661.548L628.263 694.014L628.539 663.644ZM600.205 661.731L582.987 674.903L582.97 681.196L625.517 693.493L600.205 661.731ZM573.086 689.691L619.554 693.732L581.862 683.059L568.57 680.567L573.086 689.691ZM579.498 660.029C579.435 660.121 579.352 660.197 579.257 660.249C579.161 660.302 579.056 660.33 578.949 660.331L568.403 678.41L581.204 680.826L581.219 673.952L599.372 660.343L599.964 660.047L602.259 629.893L579.498 660.029ZM589.78 573.82L630.16 530.574L595.131 519.78L589.78 573.82ZM583.885 620.174L587.76 576.559L580.527 562.316L583.885 620.174ZM580.235 557.719L588.458 573.228L593.802 519.235L593.579 519.201L593.63 518.87L555.526 488.761L580.235 557.719ZM594.183 517.066L610.367 474.339L555.171 485.752L594.183 517.066ZM553.793 483.457L554.122 484.282L610.652 472.494L552.858 410.525L553.793 483.457ZM459.546 369.503L459.566 371.734L459.405 372.775L551.866 480.882L550.909 408.093L551.174 386.342L571.054 375.712L535.893 344.848L535.374 345.252L515.534 260.437L515.356 260.41C515.24 260.386 515.13 260.337 515.032 260.268C514.935 260.198 514.851 260.109 514.787 260.004C514.723 259.9 514.679 259.783 514.658 259.659C514.636 259.536 514.638 259.409 514.664 259.286C514.689 259.128 514.755 258.981 514.854 258.859C514.954 258.738 515.082 258.647 515.226 258.598L515.292 258.172L515.871 258.262L532.677 194.71L455.491 232.165L459.546 369.503ZM453.913 236.764L436.348 285.767L457.703 367.862L453.913 236.764ZM457.023 372.261L435.003 287.98L429.43 297.482C429.601 297.607 429.719 297.799 429.758 298.017L450.697 376.609L457.023 372.261ZM451.268 414.471L448.447 396.456L448.068 392.426L448.672 387.047L446.315 394.624L443.556 412.455L449.443 421.259L451.268 414.471ZM443.878 437.784L424.741 431.821L421.748 451.165L443.878 437.784ZM424.44 429.934L445.485 436.531L448.818 423.826L441.986 413.762L407.521 406.687L415.567 422.459L424.44 429.934ZM419.592 452.139L422.833 431.187L414.963 424.594L409.853 435.232L414.658 451.908L419.592 452.139ZM413.026 451.849L408.385 435.877L405.868 434.761L395.03 437.927L367.994 450.016L413.026 451.849ZM355.599 425.822L364.403 449.364L392.756 436.413L374.051 423.834L357.047 412.922L355.599 425.822ZM267.243 312.393C268.16 320.207 270.675 327.684 274.612 334.308L312.43 341.805L268.514 272.056C268.108 279.983 267.061 303.551 267.243 312.393ZM268.787 268.224L268.722 268.649L314.909 342.286L314.865 342.569L356.76 410.65L372.152 420.489L310.919 287.333C310.852 287.237 310.805 287.128 310.779 287.011C310.753 286.895 310.749 286.774 310.767 286.655C310.785 286.537 310.826 286.422 310.886 286.319C310.946 286.217 311.024 286.127 311.116 286.056C311.31 285.908 311.548 285.846 311.781 285.882C312.015 285.918 312.223 286.049 312.363 286.248L373.536 418.911L372.94 355.864C372.939 355.719 372.961 355.575 373.006 355.438L374.57 334.13L374.738 333.042L381.791 331.953L357.536 315.755L382.792 321.648L385.207 306.041L370.533 285.078L370.161 284.536L372.304 263.317L313.189 259.983L312.03 259.223C312.024 259.126 312.039 259.029 312.074 258.939V258.939L352.898 228.74L377.219 234.197L399.004 223.039L399.521 204.378L350.469 185.506L358.71 195.595L370.142 195.959L392.789 206.048L349.54 205.363L315.375 213.734L288.536 193.02L289.012 204.087L304.727 229.521C304.832 229.689 304.873 229.894 304.842 230.095C304.811 230.297 304.71 230.48 304.558 230.609C304.579 230.688 304.583 230.771 304.57 230.853C304.558 230.934 304.529 231.012 304.485 231.081C304.45 231.307 304.332 231.511 304.157 231.647C303.982 231.784 303.765 231.842 303.552 231.809V231.809L291.596 229.233L269.875 235.558L260.447 267.03L268.787 268.224ZM316.219 258.079L372.433 261.303L375.077 235.077L316.219 258.079ZM372.997 233.787L353.167 229.363L317.831 255.326L372.997 233.787ZM267.908 235.302L237.706 247.822L229.639 249.576L258.582 265.531L267.908 235.302ZM139.927 254.246L234.89 259.251L251.249 263.719L226.577 250.216L184.567 242.991L158.707 249.548L136.6 242.157L139.927 254.246ZM118.858 243.093L137.662 253.266L134.261 241.069L99.129 158.15L118.858 243.093Z" fill="url(#paint3_radial_1005_5284)" stroke="url(#paint4_radial_1005_5284)"/>
<defs>
<filter id="filter0_f_1005_5284" x="0.700592" y="-428" width="1532.3" height="1532.3" filterUnits="userSpaceOnUse" color-interpolation-filters="sRGB">
<feFlood flood-opacity="0" result="BackgroundImageFix"/>
<feBlend mode="normal" in="SourceGraphic" in2="BackgroundImageFix" result="shape"/>
<feGaussianBlur stdDeviation="125" result="effect1_foregroundBlur_1005_5284"/>
</filter>
<radialGradient id="paint0_radial_1005_5284" cx="0" cy="0" r="1" gradientUnits="userSpaceOnUse" gradientTransform="translate(1587.29 674.216) rotate(-155.477) scale(1124.15 804.37)">
<stop stop-color="#C6B38A"/>
<stop offset="0.463601" stop-color="#F3C691"/>
<stop offset="1" stop-color="#B4703E"/>
</radialGradient>
<radialGradient id="paint1_radial_1005_5284" cx="0" cy="0" r="1" gradientUnits="userSpaceOnUse" gradientTransform="translate(-267.651 461.494) rotate(-8.86668) scale(1172.5 642.252)">
<stop stop-color="#C6B38A"/>
<stop offset="0.463601" stop-color="#F3C691"/>
<stop offset="1" stop-color="#B4703E"/>
</radialGradient>
<radialGradient id="paint2_radial_1005_5284" cx="0" cy="0" r="1" gradientUnits="userSpaceOnUse" gradientTransform="translate(-300.193 458.955) rotate(-8.92167) scale(1203.74 661.148)">
<stop stop-color="#C6B38A"/>
<stop offset="0.463601" stop-color="#F3C691"/>
<stop offset="1" stop-color="#B4703E"/>
</radialGradient>
<radialGradient id="paint3_radial_1005_5284" cx="0" cy="0" r="1" gradientUnits="userSpaceOnUse" gradientTransform="translate(-300.193 458.955) rotate(-8.92167) scale(1203.74 661.148)">
<stop stop-color="#C6B38A"/>
<stop offset="0.463601" stop-color="#F3C691"/>
<stop offset="1" stop-color="#B4703E"/>
</radialGradient>
<radialGradient id="paint4_radial_1005_5284" cx="0" cy="0" r="1" gradientUnits="userSpaceOnUse" gradientTransform="translate(-300.193 458.955) rotate(-8.92167) scale(1203.74 661.148)">
<stop stop-color="#C6B38A"/>
<stop offset="0.463601" stop-color="#F3C691"/>
<stop offset="1" stop-color="#B4703E"/>
</radialGradient>
</defs>
</svg>
