<svg xmlns="http://www.w3.org/2000/svg" width="34" height="40" fill="none" xmlns:v="https://vecta.io/nano"><path d="M1.3 13.74v-7.5c0-2.2.48-3.78 1.44-4.74 1-1 2.6-1.5 4.8-1.5h13.62c.56 0 .94.1 1.14.3s.3.58.3 1.14v.24c0 .56-.1.94-.3 1.14s-.58.3-1.14.3H7.9c-2.2 0-3.3 1.08-3.3 3.24v7.26c0 2.16 1.1 3.24 3.3 3.24h3.06c4.64 0 8.06.9 10.26 2.7s3.3 4.62 3.3 8.46-1.08 6.7-3.24 8.58c-2.12 1.88-5.44 2.82-9.96 2.82-3.44 0-6.5-.36-9.18-1.08-.6-.16-1-.32-1.2-.48-.16-.2-.24-.58-.24-1.14v-.48c0-1.12.48-1.52 1.44-1.2 2.6.84 5.7 1.26 9.3 1.26 3.48 0 5.98-.64 7.5-1.92 1.52-1.32 2.28-3.42 2.28-6.3 0-3.12-.8-5.24-2.4-6.36-1.64-1.16-4.38-1.74-8.22-1.74H7.54c-2.2 0-3.8-.48-4.8-1.44-.96-1-1.44-2.6-1.44-4.8zm26.365 23.04c-.12-1.08.28-1.84 1.2-2.28s1.84-.44 2.76 0 1.32 1.2 1.2 2.28c0 .72-.26 1.34-.78 1.86-.48.48-1.08.72-1.8.72s-1.34-.24-1.86-.72c-.48-.52-.72-1.14-.72-1.86z" fill="url(#A)"/><defs><radialGradient id="A" cx="0" cy="0" r="1" gradientUnits="userSpaceOnUse" gradientTransform="translate(47.2014 47.0908) rotate(-138.382) scale(50.3601 47.3804)"><stop stop-color="#c6b38a"/><stop offset=".464" stop-color="#f3c691"/><stop offset="1" stop-color="#b4703e"/></radialGradient></defs></svg>