<svg xmlns="http://www.w3.org/2000/svg" width="32" height="40" fill="none" xmlns:v="https://vecta.io/nano"><path d="M1.8 20.76l6.36-19.2C8.36.92 8.6.5 8.88.3s.76-.3 1.44-.3h.24c.68 0 1.08.1 1.2.3.16.2.14.62-.06 1.26L4.8 22.32c-.52 1.64-.52 2.82 0 3.54.56.72 1.72 1.08 3.48 1.08h12.3v-15.9c0-.56.1-.94.3-1.14s.58-.3 1.14-.3h.48c.56 0 .94.1 1.14.3s.3.58.3 1.14v26.52c0 .56-.1.94-.3 1.14s-.58.3-1.14.3h-.48c-.56 0-.94-.1-1.14-.3s-.3-.58-.3-1.14v-7.5H8.64c-3.4 0-5.66-.74-6.78-2.22S.72 24 1.8 20.76zm24.455 16.02c-.12-1.08.28-1.84 1.2-2.28s1.84-.44 2.76 0 1.32 1.2 1.2 2.28c0 .72-.26 1.34-.78 1.86-.48.48-1.08.72-1.8.72s-1.34-.24-1.86-.72c-.48-.52-.72-1.14-.72-1.86z" fill="url(#A)"/><defs><radialGradient id="A" cx="0" cy="0" r="1" gradientUnits="userSpaceOnUse" gradientTransform="translate(46.2014 47.0908) rotate(-138.382) scale(50.3601 47.3804)"><stop stop-color="#c6b38a"/><stop offset=".464" stop-color="#f3c691"/><stop offset="1" stop-color="#b4703e"/></radialGradient></defs></svg>