<svg width="72" height="80" viewBox="0 0 72 80" fill="none" xmlns="http://www.w3.org/2000/svg">
<path fill-rule="evenodd" clip-rule="evenodd" d="M1.51006 12.3296C0 14.4811 0 20.8763 0 33.6666V39.9654C0 62.5177 16.9558 73.4619 27.5942 78.1091C30.4801 79.3697 31.923 80 36 80V0C32.7544 0 29.6199 1.07296 23.3509 3.21887L21.0596 4.00317C9.0333 8.11983 3.02013 10.1782 1.51006 12.3296Z" fill="url(#paint0_radial_169_2082)"/>
<path opacity="0.5" d="M72 39.9654V33.6666C72 20.8763 72 14.4811 70.4899 12.3296C68.9799 10.1782 62.9667 8.11983 50.9404 4.00317L48.6491 3.21887C42.3801 1.07296 39.2456 0 36 0V80C40.077 80 41.5199 79.3697 44.4058 78.1091C55.0441 73.462 72 62.5177 72 39.9654Z" fill="url(#paint1_radial_169_2082)"/>
<defs>
<radialGradient id="paint0_radial_169_2082" cx="0" cy="0" r="1" gradientUnits="userSpaceOnUse" gradientTransform="translate(46.6119 66.0441) rotate(-134.607) scale(50.7902 48.1153)">
<stop stop-color="#C6B38A"/>
<stop offset="0.463601" stop-color="#F3C691"/>
<stop offset="1" stop-color="#B4703E"/>
</radialGradient>
<radialGradient id="paint1_radial_169_2082" cx="0" cy="0" r="1" gradientUnits="userSpaceOnUse" gradientTransform="translate(82.6119 66.0441) rotate(-134.607) scale(50.7902 48.1153)">
<stop stop-color="#C6B38A"/>
<stop offset="0.463601" stop-color="#F3C691"/>
<stop offset="1" stop-color="#B4703E"/>
</radialGradient>
</defs>
</svg>
