<svg xmlns="http://www.w3.org/2000/svg" width="60" height="60" fill="none" xmlns:v="https://vecta.io/nano"><path opacity=".5" d="M0 42.651c0-8.179 0-12.268 2.636-14.809S9.515 25.301 18 25.301h24c8.485 0 12.728 0 15.364 2.541S60 34.472 60 42.651s0 12.268-2.636 14.809S50.485 60 42 60H18c-8.485 0-12.728 0-15.364-2.541S0 50.829 0 42.651z" fill="url(#A)"/><path d="M30 48.868a6 6 0 1 0 0-12 6 6 0 1 0 0 12z" fill="url(#B)"/><path d="M14.25 19.518c0-8.384 7.052-15.181 15.75-15.181s15.75 6.797 15.75 15.181v5.793c1.702.015 3.191.053 4.5.148v-5.941C50.25 8.739 41.184 0 30 0S9.75 8.739 9.75 19.518v5.941c1.31-.094 2.798-.132 4.5-.148v-5.793z" fill="url(#C)"/><defs><radialGradient id="A" cx="0" cy="0" r="1" gradientUnits="userSpaceOnUse" gradientTransform="translate(77.6864 53.9468) rotate(-165.22) scale(61.479 28.7349)"><stop stop-color="#c6b38a"/><stop offset=".464" stop-color="#f3c691"/><stop offset="1" stop-color="#b4703e"/></radialGradient><radialGradient id="B" cx="0" cy="0" r="1" gradientUnits="userSpaceOnUse" gradientTransform="translate(39.5373 46.7741) rotate(-155.477) scale(13.0678 9.35042)"><stop stop-color="#c6b38a"/><stop offset=".464" stop-color="#f3c691"/><stop offset="1" stop-color="#b4703e"/></radialGradient><radialGradient id="C" cx="0" cy="0" r="1" gradientUnits="userSpaceOnUse" gradientTransform="translate(62.1883 21.0178) rotate(-163.998) scale(41.7428 20.9598)"><stop stop-color="#c6b38a"/><stop offset=".464" stop-color="#f3c691"/><stop offset="1" stop-color="#b4703e"/></radialGradient></defs></svg>