<svg width="54" height="59" viewBox="0 0 54 59" fill="none" xmlns="http://www.w3.org/2000/svg">
<path d="M52.6155 14.9687L50.2919 22.4782L45.3246 23.3293L41.6254 23.1309L35.3134 21.5445L33.7541 18.0764L25.3367 8.70374L25.2947 8.65645L23.8653 9.30101L23.2567 8.18772L21.1491 10.3592L17.2648 7.22778L17.3202 7.16175L17.1916 7.16981L16.7498 6.87734L5.51309 4.14099L-2.09642 1.15192L-2.19144 1.11527C-2.2163 1.11261 -2.24089 1.11985 -2.26034 1.13556L-9.87952 1.67383L-12.4713 18.0312L-21.3501 24.6223L-21.5633 24.7249L-12.7517 27.4893L-12.8936 30.7424C-12.8936 30.7424 -12.8936 30.7424 -12.8869 30.7652L-11.2046 38.9743L-13.9095 42.2164L-25.8989 43.9172L-25.8405 43.8453L-25.9395 43.8745L-23.0622 37.753C-23.0631 37.7418 -23.0663 37.7308 -23.0716 37.7209C-23.0902 37.7196 -23.1084 37.725 -23.1233 37.7362L-25.2873 38.3335L-24.3959 30.9823L-15.7845 30.5397L-15.3996 28.4777C-15.3957 28.4537 -15.4003 28.4289 -15.4125 28.4077C-15.4248 28.3866 -15.4438 28.3707 -15.4661 28.363C-15.4889 28.3581 -15.5124 28.3622 -15.5321 28.3744C-15.5518 28.3866 -15.5663 28.4061 -15.5729 28.4293L-15.9789 30.229L-24.5346 30.6702L-24.5776 30.6829L-25.4876 38.1937L-27.3789 38.7157L-33.2816 40.3791L-25.9721 32.0976L-27.6032 30.3409C-27.6203 30.323 -27.6431 30.3124 -27.6669 30.3111C-27.6907 30.3098 -27.7138 30.318 -27.7315 30.3339C-27.748 30.3514 -27.7571 30.3753 -27.7567 30.4003C-27.7564 30.4253 -27.7466 30.4495 -27.7296 30.4676L-26.2163 32.095L-33.5873 40.4692L-33.6261 40.4806C-33.6415 40.467 -33.6607 40.4593 -33.6805 40.4588C-33.7003 40.4583 -33.7194 40.465 -33.7346 40.4777L-33.8562 40.5732L-36.6728 41.7355L-36.7115 41.747L-37.0862 41.8573L-44.3995 41.4952L-44.4692 41.4809L-46.9409 48.7258L-50.8153 48.8226C-50.8386 48.8233 -50.8605 48.8336 -50.8763 48.8512C-50.892 48.8689 -50.9005 48.8925 -50.8998 48.9171C-50.8989 48.9295 -50.8957 48.9418 -50.8903 48.9531C-50.885 48.9644 -50.8776 48.9745 -50.8686 48.983C-50.8596 48.9914 -50.8491 48.9979 -50.8379 49.0022C-50.8266 49.0065 -50.8147 49.0084 -50.8029 49.0078L-46.9428 48.9102L-44.3001 60.4604C-44.2994 60.4717 -44.2962 60.4826 -44.2907 60.4925L-48.1019 63.6329C-48.1203 63.6482 -48.1319 63.6708 -48.1343 63.6957C-48.1366 63.7206 -48.1294 63.7458 -48.1142 63.7657C-48.1038 63.7798 -48.0897 63.7904 -48.0739 63.7963C-48.058 63.8022 -48.041 63.8032 -48.0249 63.7991L-47.9904 63.7889L-44.1195 60.6608L-44.0936 60.6532L-44.0549 60.6417L-43.8964 60.4807L-43.8533 60.4681L-44.3208 57.1955L-44.7018 50.8155L-42.117 45.9732L-38.1199 45.88L-38.1689 45.9839C-38.1756 46.0038 -38.1759 46.0257 -38.1698 46.0463C-38.1638 46.0669 -38.1516 46.0851 -38.1352 46.0983L-38.6755 49.1903C-38.6929 49.2063 -38.7035 49.2289 -38.705 49.2535C-38.7065 49.2781 -38.6988 49.3026 -38.6836 49.3219C-38.6735 49.3364 -38.6595 49.3474 -38.6435 49.3534C-38.6275 49.3593 -38.6102 49.36 -38.5942 49.3552L-38.5468 49.3413L-36.4697 51.6278L-36.4508 51.6919L-37.5968 52.3773L-37.5675 54.5112C-37.5679 54.5242 -37.5641 54.5371 -37.5567 54.5478L-37.341 62.0353L-44.4286 71.5788L-46.7942 71.9522C-46.8059 71.9543 -46.817 71.9588 -46.8269 71.9655C-46.8368 71.9721 -46.8453 71.9808 -46.8518 71.9911C-46.8584 72.0013 -46.8629 72.0129 -46.8651 72.0252C-46.8673 72.0374 -46.8672 72.0501 -46.8647 72.0624C-46.8593 72.0862 -46.8458 72.1074 -46.8269 72.122C-46.808 72.1365 -46.7848 72.1435 -46.7619 72.1415L-44.452 71.7696L-40.7218 77.9539L-43.9176 86.1726L-42.6561 87.8343L-45.16 88.5169L-42.7871 89.6625L-43.3361 94.8548L-37.7887 94.0666L-36.7564 93.2655L-35.1076 92.6508L-37.8173 91.49L-40.0892 87.2227L-40.6887 85.8383L-40.6779 81.5997L-39.897 78.3872L-37.4204 74.8145L-39.0121 71.8879L-37.877 68.3523C-37.8752 68.3402 -37.8761 68.3277 -37.8796 68.3158C-37.8831 68.3039 -37.8892 68.2929 -37.8972 68.2837L-31.3655 65.4508L-26.7852 68.4668L-30.3849 74.8209L-30.4158 74.8748L-26.8837 80.0685L-31.3522 82.0255L-29.9203 78.3379C-29.915 78.3275 -29.9117 78.3161 -29.9107 78.3043C-29.9097 78.2925 -29.9109 78.2805 -29.9142 78.269C-29.9176 78.2575 -29.9231 78.2468 -29.9304 78.2374C-29.9377 78.228 -29.9466 78.2202 -29.9567 78.2144C-29.9777 78.2023 -30.0021 78.1993 -30.0247 78.206C-30.0472 78.2126 -30.0661 78.2284 -30.0772 78.2499L-31.6154 82.2124L-29.9099 83.8726L-29.1945 86.0481L-29.2095 86.0923L-29.5232 90.4945L-23.4738 89.5834L-22.3469 88.1181L-26.0535 83.9849L-26.6667 80.3128L-26.6802 80.2671L-26.6783 80.1622L-26.6743 79.9373L-25.2594 72.7749L-21.0854 70.1988C-21.065 70.1862 -21.0504 70.1653 -21.0448 70.1409C-21.0393 70.1164 -21.0433 70.0903 -21.056 70.0683C-21.0687 70.0464 -21.089 70.0303 -21.1124 70.0237C-21.1359 70.0171 -21.1606 70.0205 -21.181 70.0331L-25.2858 72.5739L-26.4818 68.5117C-26.4825 68.5021 -26.4852 68.4927 -26.4899 68.4843L-22.4809 67.7165C-22.472 67.7254 -22.4613 67.7319 -22.4496 67.7354C-22.438 67.7389 -22.4257 67.7393 -22.4141 67.7366L-22.3796 67.7265C-22.3691 67.7256 -22.3588 67.7226 -22.3495 67.7176C-22.3318 67.7074 -22.3182 67.691 -22.3108 67.6712C-22.3034 67.6515 -22.3027 67.6294 -22.3088 67.6087C-22.3149 67.5879 -22.3274 67.5698 -22.3444 67.5571C-22.3613 67.5445 -22.3816 67.5382 -22.402 67.5392L-19.0864 59.7277L-19.0215 59.5346L-16.379 56.6687L-17.0592 61.2883L-17.0349 61.3706L-17.0529 61.5002L-16.919 64.4981L-19.1787 64.4525L-21.0415 66.8354C-21.0562 66.8539 -21.0632 66.8779 -21.0612 66.9023C-21.0593 66.9267 -21.0485 66.9497 -21.031 66.9665C-21.0201 66.9768 -21.0069 66.9842 -20.9927 66.9878C-20.9786 66.9915 -20.9639 66.9913 -20.95 66.9874C-20.9318 66.9865 -20.9141 66.9813 -20.8983 66.9722L-19.0866 64.6541L-16.7327 64.7017L-16.8742 61.4873L-11.8472 61.5383L-9.61142 59.7068C-9.59989 59.7174 -9.58639 59.7253 -9.57185 59.73L-2.40167 61.4018L-1.56696 62.6474C-1.55645 62.6631 -1.54162 62.6751 -1.52457 62.6816C-1.50751 62.6882 -1.4891 62.689 -1.47193 62.684L-1.44179 62.6751C-1.43163 62.6688 -1.42292 62.6603 -1.41621 62.6501C-1.40951 62.6399 -1.40497 62.6282 -1.40286 62.6159C-1.40076 62.6036 -1.40115 62.5908 -1.40401 62.5785C-1.40687 62.5662 -1.41214 62.5545 -1.41948 62.5443L-2.25419 61.2987L-2.26496 61.2621L-2.29511 61.271L-9.23812 59.5919L-0.81124 56.4248L-0.78109 56.4159L1.84896 55.383L2.66884 56.4987L4.92783 59.4028L4.89824 59.5408L4.95854 59.523L5.48217 65.7517L4.42851 69.7704L4.41021 69.8354C4.40976 69.8581 4.41638 69.8806 4.42907 69.8995L4.57683 70.9894L6.91513 72.3987L7.39502 75.6974L13.0149 74.4404L13.0623 74.4264L13.491 73.1171L13.4547 73.0731L11.9415 71.1126L11.2358 68.7156L10.6822 61.3523L12.302 53.9159C12.3139 53.902 12.322 53.885 12.3256 53.8665C12.3292 53.848 12.3281 53.8287 12.3224 53.8105L12.355 53.6667L20.1935 41.5558L20.2455 41.6051L20.232 41.5593L20.8482 41.9198L21.1885 43.2662L21.2045 43.6542L21.1645 45.5052L22.0885 47.7535L24.869 48.9481L24.8906 48.9418L30.5159 47.9416L30.5326 47.887L31.1196 45.3032L30.7715 43.9144L33.9912 36.6829L37.8615 35.3644L37.8793 35.3294C38.2032 34.5831 38.3635 33.7651 38.3487 32.9343C38.2602 31.9661 37.722 29.2165 37.6379 28.7243L38.3703 28.4142C38.3703 28.4142 38.3703 28.4142 38.4004 28.4053L38.4262 28.3977L40.7123 27.4363L50.0681 25.6758L52.0413 24.2398L53.0443 13.898L52.6155 14.9687ZM50.4303 22.6462L51.9889 17.6089L50.2101 24.0284L45.9214 23.417L50.4303 22.6462ZM41.5751 23.3098L45.2985 23.5109L49.9434 24.1715L48.0205 25.1105L45.424 24.8112L38.6138 22.5661L41.5751 23.3098ZM45.104 24.9005L41.3061 26.0833L40.3179 26.0014L36.9226 22.1941L45.104 24.9005ZM40.0105 25.9428L36.9674 25.1437L34.7645 24.7981L36.5753 22.1273L40.0105 25.9428ZM34.5717 24.7952L33.5571 25.1635L34.7271 22.5572L36.3899 22.1173L34.5717 24.7952ZM35.1847 21.7116L36.1995 21.9795L34.7381 22.3402L34.6285 21.1098L35.1497 21.6722L35.1847 21.7116ZM27.7828 22.5587L28.4246 21.5595L31.4908 23.3908L27.7828 22.5587ZM30.6879 23.4134L28.6185 23.1876L25.2325 23.6874L26.5232 22.8898L27.6346 22.7068L30.6879 23.4134ZM11.6546 70.9486L9.28344 68.4901L9.31358 68.4812L9.21209 68.4067L9.88231 63.7851L11.0035 68.7691L11.6546 70.9486ZM9.05753 68.1837L5.20161 59.5857L9.7662 63.3271L9.05753 68.1837ZM9.06947 68.6376L9.69517 71.605L4.7997 69.855L9.03797 68.5623L9.06947 68.6376ZM-5.3335 5.41577L-5.29044 5.40309L-0.750386 7.78968L-3.63135 8.63794L-5.3335 5.41577ZM-3.91266 8.47718L-6.63192 6.72766L-5.5195 5.43574L-3.91266 8.47718ZM14.9451 17.3409L15.6352 20.7815L11.1179 20.2524L14.9451 17.3409ZM11.2408 19.9229L12.5004 17.9862L14.6277 17.3598L11.2408 19.9229ZM12.3862 17.821L10.8329 20.222L9.57097 20.0368L9.4431 17.6635L9.43365 17.5519L9.42019 17.5062L9.40268 17.4467L7.53352 12.5288L14.692 10.3466L16.6631 14.9908L14.9315 17.0566L12.3862 17.821ZM0.024568 32.228L-0.75647 32.627L-2.06278 28.9055L-2.99801 24.8709L0.021846 29.8029L0.118758 32.1506L-0.0685828 32.166L0.024568 32.228ZM1.73814 48.7445L-1.17761 49.2997L3.7998 44.5732L5.21075 45.6143L1.73814 48.7445ZM5.02485 46.0319L3.94058 48.0711C3.92736 48.0754 3.9153 48.0827 3.90525 48.0925C3.8952 48.1024 3.88742 48.1145 3.88245 48.128L3.84614 48.2431L3.8327 48.2769L2.11953 48.657L5.02485 46.0319ZM3.92493 44.4419L8.42706 43.4891L5.35714 45.4916L3.92493 44.4419ZM3.55426 44.3273L-8.77077 42.488L-4.53655 37.6373L-2.85379 37.3606L4.3024 41.3531L4.32392 41.3467L8.75769 40.3843L8.68646 43.194L8.77342 43.2032L3.55426 44.3273ZM7.87488 17.4392L9.13354 17.5657L6.94601 19.8154L3.85138 20.9553L7.63129 17.4861L7.91742 17.4565L7.87488 17.4392ZM7.71145 17.2338L7.46009 12.804L9.20214 17.4013L7.71145 17.2338ZM9.25927 17.7226L9.38524 20.0418L3.43269 21.5359L3.51689 21.2974L7.03271 19.9987L9.25927 17.7226ZM3.39276 21.1301L3.12911 21.6651L3.16144 21.7748L5.87205 28.0407L0.839548 23.8703L-1.84065 22.2534L-3.51897 18.4923L7.33306 17.4744L3.39276 21.1301ZM0.983769 28.3018L0.995891 28.343L0.115477 29.5964L-3.09448 24.3525L-1.87936 22.5034L0.665163 24.0409L0.97618 28.0853C0.961875 28.0978 0.951796 28.1148 0.947359 28.1339C0.942922 28.153 0.944349 28.1734 0.951443 28.192L0.983769 28.3018ZM0.849584 24.1904L5.90173 28.3799L5.85867 28.3926L2.16144 30.9029L1.15172 28.2523L0.849584 24.1904ZM-2.02554 22.3725L-3.25359 24.2254L-4.40227 23.6141L-3.63519 18.7652L-2.02554 22.3725ZM-2.97522 37.2025L-4.50915 37.4602L-5.20855 33.4954C-4.22789 35.046 -3.19255 36.7345 -2.98357 37.19L-2.97522 37.2025ZM-5.3944 32.9437L-10.0816 28.7859L-3.09 28.6114L-5.3944 32.9437ZM-4.22664 31.1085L-4.09076 32.0627L-3.78783 33.7432L-5.26035 33.0334L-4.22664 31.1085ZM-10.1206 28.5738L-7.8497 25.002L-4.53115 23.7962L-3.04913 28.4005L-10.1206 28.5738ZM-4.0749 30.8451L-2.88866 28.6118L-2.26223 28.9593L-3.93229 31.8222L-4.06817 30.868L-4.0749 30.8451ZM-2.86421 28.4405L-4.32307 23.899L-3.27345 24.4599L-2.27062 28.7877L-2.86421 28.4405ZM-4.56377 23.6219L-7.68396 24.7544L-3.7999 18.8733L-4.56377 23.6219ZM-7.9757 24.8601L-10.2666 28.4278L-10.9338 24.0161L-4.03785 18.8439L-7.9757 24.8601ZM-10.3922 28.6686L-11.0126 30.1537L-10.9365 25.0558L-10.3922 28.6686ZM-10.3695 29.0795L-10.1148 33.8066L-11.0116 30.904L-11.0079 30.6146L-10.3695 29.0795ZM-10.1994 28.9101L-5.49532 33.0778C-5.49386 33.0905 -5.49021 33.1029 -5.48454 33.1144L-8.09065 38.7583L-9.88698 34.4852L-10.1994 28.9101ZM-8.01792 39.0053L-5.40615 33.3647L-4.67466 37.5338L-8.87524 42.3398L-8.01792 39.0053ZM-5.08397 33.3146L-3.68792 33.9872L-2.38334 34.826C-2.46859 35.1245 -2.80425 36.2573 -2.91796 36.8724C-3.36523 36.0845 -4.53735 34.2174 -5.08397 33.3146ZM-3.56575 33.8618L-3.88053 32.1251L-2.15102 29.1303L-0.888336 32.7354L-2.30586 34.6441L-3.56575 33.8618ZM0.217264 29.815L1.09096 28.5387L2.03819 31.0088L0.318463 32.0818L0.217264 29.815ZM2.25946 31.0928L5.97526 28.5819L6.05708 28.5578L12.4576 31.0329L0.609173 32.1155L2.25946 31.0928ZM3.40264 21.9424L10.1112 24.7643L6.09469 28.2087L3.40264 21.9424ZM3.42037 21.7483L9.42888 20.2377L10.0977 24.5595L3.42037 21.7483ZM9.606 20.2353L10.6571 20.3881L10.8025 20.4049L10.2217 24.17L9.606 20.2353ZM15.1502 17.37L20.8973 19.4062L15.8352 20.7773L15.1502 17.37ZM16.5038 20.998L25.7342 21.1635L23.403 22.8938L16.5038 20.998ZM23.2448 23.0398L21.2814 24.811L16.1951 21.0939L23.2448 23.0398ZM16.4131 20.8011L21.1811 19.5115L25.4953 19.7326L28.8642 20.6844L25.9858 20.9851L16.4131 20.8011ZM29.2628 20.5919L25.5472 19.5433L21.8879 19.3531L28.7836 17.8199L29.2628 20.5919ZM28.9715 17.8541L32.8201 19.291L29.4585 20.5889L28.9715 17.8541ZM33.0953 21.084L28.4356 21.3425L29.3988 20.8153L33.0953 21.084ZM21.4741 19.2513L24.3065 16.3941L24.3452 16.3827L28.4745 17.6922L21.4741 19.2513ZM21.1576 19.3047L15.2473 17.2072L24.019 16.4191L21.1576 19.3047ZM15.2077 17.025L16.7967 15.1106L23.6548 16.2628L15.2077 17.025ZM14.8963 10.3411L20.8684 10.6457L16.7802 14.8321L14.8963 10.3411ZM14.6126 10.1562L7.39754 12.3054C7.38119 12.2922 7.36092 12.2858 7.34074 12.2873C7.32181 12.2885 7.30399 12.2962 7.29005 12.3093C7.27612 12.3224 7.26689 12.3401 7.26377 12.3597L7.54078 17.1946L-3.01615 10.4253L-0.583148 9.3113C-0.570722 9.31263 -0.558427 9.30901 -0.548706 9.30116C-0.5394 9.2876 -0.532817 9.27214 -0.529328 9.25568L-3.16107 8.85241L-0.409285 8.04219L8.00643 7.84107L8.0993 7.83858C8.11639 7.84047 8.13332 7.83549 8.14666 7.82463L16.8851 7.38434L14.6126 10.1562ZM-3.13624 10.2718L-3.54974 8.86743L-0.933614 9.26536L-3.13624 10.2718ZM-4.70308 5.53836L7.12244 7.68377L-0.495486 7.74943L-4.70308 5.53836ZM-5.12251 5.27411L0.476085 3.76985L7.59832 7.58343L-5.12251 5.27411ZM-3.09659 10.6131L7.38363 17.3601L-3.547 18.3813L-3.50319 18.085L-3.54436 18.1518L-3.09659 10.6131ZM-3.72473 18.016L-4.49806 15.6439L-3.3185 11.2899L-3.72473 18.016ZM-4.67493 15.5518L-8.25873 18.5109L-3.42221 10.9376L-4.67493 15.5518ZM-4.64015 15.7652L-3.78816 18.3727L-8.35583 18.8328L-4.64015 15.7652ZM-3.99322 18.5823L-10.7761 23.6614L-8.59371 19.042L-3.99322 18.5823ZM-11.0146 23.7416L-11.8118 21.9083L-8.93146 19.3254L-11.0146 23.7416ZM-11.8898 21.7226L-12.2979 20.6546L-9.15191 19.276L-11.8898 21.7226ZM-11.8633 22.2417L-11.1044 23.9768L-11.1999 30.1691L-12.1722 26.2946L-11.8633 22.2417ZM-10.0722 34.5397L-8.23435 38.8901L-11.0092 38.9068L-11.0066 31.509L-10.0722 34.5397ZM-8.21628 39.0787L-9.03594 42.3027L-10.9128 39.1071L-8.21628 39.0787ZM-8.89694 42.7588C-8.89694 42.7588 -8.89695 42.7588 -8.87111 42.7512C-8.85422 42.7372 -8.84193 42.718 -8.83586 42.6961L3.42294 44.4853L-9.68483 49.5874L-8.95374 42.7408C-8.93679 42.7459 -8.91892 42.7459 -8.90233 42.7405L-8.89694 42.7588ZM3.38425 44.7353L-1.49575 49.3636L-9.57066 49.7527L3.38425 44.7353ZM-1.42249 49.5806L0.792381 50.3005L-3.33238 53.568L-1.42249 49.5806ZM-1.09951 49.4855L1.59984 48.9741L0.947665 50.1603L-1.09951 49.4855ZM1.85204 48.9247L3.77595 48.4974L2.52663 52.6781L1.10299 50.2587L1.85204 48.9247ZM2.583 53.1238L2.60882 53.0366L4.18149 53.8959L2.00796 55.033L2.58839 53.1421L2.583 53.1238ZM2.66342 52.8565L4.00848 48.3494L5.30529 45.9195L6.10913 53.3383L4.44767 53.7827L4.37015 53.8055L2.66342 52.8565ZM4.48001 53.972L6.13583 53.5243L5.03372 58.7453L4.48001 53.972ZM6.29063 53.6527L8.43519 57.6145L5.1396 59.1367L6.29063 53.6527ZM5.46538 45.6685L8.77805 43.5051L6.26329 53.0195L5.46538 45.6685ZM8.97427 43.4722L10.9633 44.2039L11.2529 46.1567L6.49178 52.8577L8.97427 43.4722ZM8.87595 43.1382L8.9466 40.1994L4.35808 41.1925L-2.77549 37.2132C-2.77549 37.2132 -2.78627 37.1766 -2.793 37.1538C-2.64013 36.3703 -2.44576 35.5978 -2.2108 34.8398L-0.742965 32.8318L0.216777 32.3404L11.8936 39.6548L8.87595 43.1382ZM0.495891 32.303L12.7664 31.1757L11.9608 39.4859L0.495891 32.303ZM6.15987 28.3983L10.1363 24.9607L10.194 25.3315L10.252 24.9565L12.7193 30.936L6.15987 28.3983ZM10.3023 24.6186L10.9336 20.5005L18.25 27.2943L10.3187 24.6585L10.3023 24.6186ZM11.136 20.441L15.6872 20.9899L18.3738 27.1584L11.136 20.441ZM15.9542 21.1499L21.149 24.9494L18.642 27.338L15.9542 21.1499ZM21.201 25.1578L21.1364 32.186L18.723 27.5179L21.201 25.1578ZM21.3895 25.7982L22.7062 32.3999L22.3101 32.9142L22.6416 33.7064L22.1248 33.5404L21.3206 32.5096L21.3895 25.7982ZM22.1868 33.7509L22.667 33.8878L22.8706 38.0285L22.1868 33.7509ZM22.9475 39.6562L23.6838 42.5861L22.3691 42.4761L21.6948 43.2215L21.0676 41.8701L22.0617 34.1208L22.9475 39.6562ZM22.4381 42.6944L23.9097 42.8129L23.1092 39.6335L22.8447 34.094L27.3001 42.8685L25.6778 43.8433L22.2481 45.0371L21.7699 43.4131L22.4381 42.6944ZM25.8191 44.0055L27.3166 43.0675L27.1446 46.8067L26.1662 46.6623L25.8191 44.0055ZM25.9998 46.7013L25.8265 46.812L25.1773 45.815L25.679 44.3401L25.9998 46.7013ZM27.5192 42.9134L28.2214 39.2269L28.9625 45.2722L27.3543 46.74L27.5192 42.9134ZM27.3916 42.6229L23.3072 34.5842L24.5606 36.139L25.3307 36.2751L25.4051 36.8299L26.0676 37.3953L26.535 36.5668L27.697 36.5875L28.1319 38.6368L27.3916 42.6229ZM26.4442 36.3698L26.0312 37.1128L25.5779 36.7491L25.4889 36.1291L24.6547 35.982L22.9362 33.8484L22.529 32.974L22.8271 32.588L24.9582 34.3267L26.3035 34.0003L26.7897 35.6517L28.4199 35.0375L26.859 36.4117L26.4442 36.3698ZM26.2945 33.7792L24.9851 34.1001L22.9469 32.4384L26.9942 29.5913L27.4552 31.5385L26.2945 33.7792ZM26.9422 29.383L22.8599 32.2701L21.4252 25.0769L26.3373 26.7723L26.9524 29.37L26.9422 29.383ZM23.7988 25.7003L21.5492 24.926L23.5196 23.973L23.7988 25.7003ZM21.8266 24.5809L23.4741 23.0717L26.0397 21.168L28.9081 20.8653L23.6032 23.7645C23.591 23.7565 23.5771 23.7518 23.563 23.7508C23.5488 23.7497 23.5347 23.7524 23.5219 23.7586L21.8266 24.5809ZM28.6795 21.5192L34.3669 21.2067L32.0623 23.5357L28.6795 21.5192ZM29.7885 20.6608L33.0508 19.407L34.5418 21.0061L29.7885 20.6608ZM33.5853 18.1708L34.9359 21.1684L33.1213 19.2172L28.9165 17.6515L28.9003 17.5966L25.5548 9.20621L33.5853 18.1708ZM28.6909 17.5688L24.5204 16.2466L26.4256 13.9756L25.0275 11.4046L25.3268 9.09936L28.6909 17.5688ZM24.4033 16.0872L24.9864 11.71L26.2076 13.9503L24.4033 16.0872ZM25.1575 8.90564L24.8767 11.1308L23.9598 9.44718L25.1575 8.90564ZM23.2129 8.48397L23.6971 9.36545L21.3206 10.433L23.2129 8.48397ZM21.2267 10.6546L21.2334 10.6774L23.7655 9.53422L24.7968 11.4477L24.1804 16.1727L16.9124 14.9472L21.0781 10.6585L21.2267 10.6546ZM20.9817 10.4583L14.8484 10.1464L17.1453 7.36239L20.9817 10.4583ZM16.6626 7.04219L16.8829 7.18614L8.12159 7.6282L5.70909 4.36166L16.6626 7.04219ZM5.44018 4.30662L7.77324 7.46233L0.545209 3.57551L-1.82637 1.46512L5.44018 4.30662ZM-2.19865 1.36098L0.306199 3.60611L-5.28082 5.10199L-2.21804 1.32692L-2.19865 1.36098ZM-2.42772 1.31409L-5.58145 5.22531C-5.59072 5.23954 -5.59551 5.25657 -5.59517 5.27409L-6.7512 6.60868L-9.6698 1.84572L-2.42772 1.31409ZM-9.69395 2.16104L-6.8809 6.75623L-6.91535 6.76637L-3.75162 8.81751L-3.29098 10.382L-8.58033 18.6901L-9.69395 2.16104ZM-12.3025 18.0959L-9.85671 2.56191L-8.75983 18.907L-12.3415 20.4587L-12.3025 18.0959ZM-12.4812 18.2678L-12.4987 20.5447L-20.5306 24.2269L-12.4812 18.2678ZM-21.0497 24.6731L-12.56 20.7815L-13.3599 23.2938L-12.7736 27.272L-21.0497 24.6731ZM-12.576 27.3232L-13.1761 23.3142L-12.4004 20.8787L-12.0279 21.8577L-12.0158 21.8988L-12.3507 26.2924L-12.6301 28.5222L-12.576 27.3232ZM-12.7219 30.7216L-12.2292 26.7687L-11.197 30.894L-11.1849 30.9352L-11.1894 38.1993L-12.7219 30.7216ZM-11.1434 39.1501L-11.109 39.14L-9.17534 42.4332L-13.6678 42.1155L-11.1434 39.1501ZM-9.11473 42.639L-9.85067 49.4374L-13.7528 42.3194L-9.11473 42.639ZM-13.9897 42.3892L-15.0951 47.2334L-25.6929 44.0604L-13.9897 42.3892ZM-25.3513 38.4021L-23.3265 37.8407L-25.9595 43.4727L-25.3513 38.4021ZM-27.2671 38.9364L-25.5365 38.4566L-26.1547 43.5252L-27.2671 38.9364ZM-33.1193 49.3539L-32.2125 51.6072L-32.4855 58.3091L-33.1193 49.3539ZM-32.5552 59.8209L-36.3146 51.5822L-36.3281 51.5365L-33.3563 48.7874L-33.3483 48.8148L-32.5552 59.8209ZM-33.1752 48.7987L-33.1898 48.5743L-33.2051 47.5846L-32.5135 50.458L-33.1752 48.7987ZM-33.3723 48.5584L-36.35 51.3192L-36.592 47.6522L-34.7082 46.1033L-33.4578 46.615L-33.416 46.7569L-33.3723 48.5584ZM-34.5486 45.9619L-29.8342 42.0584L-33.3467 46.468L-34.5486 45.9619ZM-33.2247 46.7552L-33.2435 46.6911L-26.4102 44.2467L-32.0772 51.3834L-32.1111 51.3636L-33.2247 46.7552ZM-33.0891 46.4369L-29.1897 41.5456L-26.3018 44.011L-33.0891 46.4369ZM-29.0829 41.3998L-27.42 39.1007L-26.2749 43.7843L-29.0829 41.3998ZM-33.4791 40.6461L-27.599 39.049L-29.2632 41.3435L-34.754 45.8683C-34.7716 45.8689 -34.7885 45.8748 -34.8028 45.8852C-34.8171 45.8955 -34.8283 45.91 -34.835 45.9269L-36.693 47.4682C-36.7113 47.4695 -36.7287 47.4767 -36.7427 47.4888C-36.7567 47.5009 -36.7666 47.5174 -36.7713 47.536L-38.2423 48.7545L-33.4791 40.6461ZM-37.063 42.0791L-37.0328 42.0702L-36.8391 42.0132L-34.3648 40.9914L-36.8555 43.0222L-43.1489 41.7533L-37.063 42.0791ZM-44.8884 50.7064L-44.5041 57.1451L-44.0377 60.3185L-44.1015 60.3721L-46.78 48.8275L-44.4694 42.0526L-44.8884 50.7064ZM-42.2355 45.7297L-44.689 50.3345L-44.263 41.9272L-42.1384 45.7259L-42.2355 45.7297ZM-41.9384 45.7217L-44.1696 41.7357L-37.0054 43.1806C-37.0073 43.2051 -37.0001 43.2297 -36.9852 43.2493C-36.976 43.2606 -36.9643 43.2696 -36.9512 43.2752C-36.9381 43.2809 -36.924 43.2832 -36.9101 43.2818L-38.0298 45.6298L-41.9384 45.7217ZM-37.9321 45.8346L-36.6049 43.0627L-33.7534 40.7318L-38.445 48.7496L-37.9321 45.8346ZM-38.4381 49.1701L-36.7484 47.7728L-36.5169 51.3087L-38.4381 49.1701ZM-37.4751 52.4409L-36.4244 51.8134L-32.7296 59.912L-34.7778 58.2483L-37.4423 54.698L-37.4751 52.4409ZM-32.6703 60.1928L-37.014 61.8744L-34.8184 58.4442L-32.6703 60.1928ZM-37.4352 55.024L-34.9535 58.3348L-37.1639 61.7943L-37.4352 55.024ZM-39.9649 90.7603L-39.9447 90.8289L-41.1057 90.271L-39.9649 90.7603ZM-41.3289 89.9738L-40.6564 88.205L-40.0279 90.5303L-41.3289 89.9738ZM-40.7394 87.8914L-41.4988 89.8896L-42.5729 89.4204L-42.4155 87.9524L-40.3936 87.3968L-40.7394 87.8914ZM-44.6069 88.5678L-42.6066 88.0186L-42.7489 89.3629L-44.6069 88.5678ZM-42.6073 89.7487L-41.6147 90.227L-43.0649 94.0592L-42.6073 89.7487ZM-41.4519 90.3033L-39.8913 91.0419L-39.8361 91.2294L-43.0021 94.3837L-41.4519 90.3033ZM-42.949 94.6116L-39.7424 91.4206L-37.9869 93.8863L-42.949 94.6116ZM-39.6735 91.1617L-38.9911 91.4927L-39.6641 91.1937L-39.6735 91.1617ZM-35.6069 92.6238L-36.7712 93.0561L-37.3916 92.2843L-37.5173 92.048L-37.5267 92.0159L-37.6595 91.7717L-35.6069 92.6238ZM-36.9244 93.1559L-37.8019 93.8468L-39.4794 91.4873L-37.6438 92.2542L-36.9244 93.1559ZM-37.818 91.8531L-39.7379 90.9271L-39.7622 90.8448L-37.9454 91.6272L-37.818 91.8531ZM-38.069 91.3504L-39.8107 90.6006L-40.5356 87.9159L-40.171 87.4059L-38.069 91.3504ZM-40.2812 87.1748L-42.2398 87.7068L-40.7915 85.9978L-40.2812 87.1748ZM-40.8195 81.4525L-40.8437 81.5293L-40.8578 85.7887L-42.4885 87.7203L-43.6955 86.132L-40.7195 78.4703L-40.8427 81.3898C-40.8459 81.4123 -40.8424 81.4356 -40.8324 81.4563L-40.8195 81.4525ZM-40.0612 78.3063L-40.6329 80.6718L-40.5205 77.9543L-40.5057 77.9251L-44.2485 71.7296L-39.52 70.9736L-40.2858 76.3194C-40.2869 76.3389 -40.2812 76.3584 -40.2697 76.3743L-40.0612 78.3063ZM-39.3794 71.2603L-39.1989 71.8733L-39.8734 74.5574L-39.3794 71.2603ZM-37.6209 74.7692L-39.9229 78.0766L-40.1265 76.352L-39.0761 72.1156L-37.6209 74.7692ZM-39.0951 71.5743L-39.3025 70.8698L-38.1954 68.6698L-39.0951 71.5743ZM-38.1183 68.1847L-39.4708 70.7752L-44.1549 71.5231L-37.3702 62.3969L-38.1183 68.1847ZM-37.9221 68.0723L-37.1641 62.207L-31.5849 65.2619C-31.5749 65.2807 -31.5589 65.2954 -31.5399 65.3034L-37.9221 68.0723ZM-31.5136 65.1067L-37.0147 62.0785L-32.5459 60.3451L-31.5136 65.1067ZM-32.3868 60.2337C-32.3697 60.2143 -32.3605 60.1884 -32.3613 60.1615L-32.3826 59.9143L-32.119 53.419L-31.5036 64.378L-32.3868 60.2337ZM-31.2786 65.1419L-32.0464 51.7422L-23.568 59.6852L-31.2786 65.1419ZM-31.7794 51.7432L-19.3556 59.3695L-23.3624 59.6047C-23.3815 59.5833 -23.4071 59.5696 -23.4345 59.5663L-31.7794 51.7432ZM-29.3211 90.2909L-29.0248 86.2268L-23.7732 89.4726L-29.3211 90.2909ZM-22.5757 88.1358L-23.4893 89.3244L-25.7718 84.5283L-22.5757 88.1358ZM-26.2004 84.058L-23.7229 89.2938L-29.0098 86.0235L-26.7756 80.5786L-26.2004 84.058ZM-29.1 85.7966L-29.768 83.7662L-31.3489 82.2433L-26.8314 80.2619L-29.1 85.7966ZM-26.8 79.86L-30.1868 74.8421L-26.7364 68.7756L-26.8 79.86ZM-25.3775 72.6755L-26.6167 78.941L-26.5685 68.7262L-25.3775 72.6755ZM-26.6178 68.2883L-31.0471 65.372L-22.7506 67.5474L-26.6178 68.2883ZM-22.5625 67.4075L-31.0124 65.1878L-23.474 59.8613L-22.5625 67.4075ZM-22.4099 67.1786L-23.3018 59.8106L-19.1992 59.567L-22.4099 67.1786ZM-31.91 51.4585L-26.256 44.3256L-26.2831 44.5672L-26.13 44.2288L-19.2657 59.2138L-31.91 51.4585ZM-19.0744 59.2121L-25.9551 44.1873L-15.144 47.4168L-19.0744 59.2121ZM-18.8378 59.0779L-15.2394 48.285L-16.3182 56.3824L-16.3613 56.3951L-18.8378 59.0779ZM-11.8847 61.3157L-16.2035 61.27L-9.9285 59.7107L-11.8847 61.3157ZM-16.8325 61.2315L-16.1602 56.649L-9.84322 59.4917L-16.8325 61.2315ZM-9.55766 59.4126L-16.1182 56.4577C-16.1171 56.4382 -16.1229 56.4187 -16.1344 56.4028L-14.9336 47.3847L-13.8281 42.5405L-9.87482 49.7527L-9.88852 49.8811L-9.78948 49.8519L-9.64033 49.977L-1.70942 49.5756L-1.75732 49.6195L-1.62813 49.5815L-3.64185 53.8679L-3.42755 55.2315L-9.55766 59.4126ZM-8.84765 59.1539L-3.3403 55.3848L-1.11894 56.2221L-8.84765 59.1539ZM-0.843329 56.1409L-3.26148 55.2075L-3.45152 54.0058L1.54369 55.2045L-0.843329 56.1409ZM-3.35573 53.8384L0.975163 50.3809L2.45993 52.8965L1.79722 55.0801L-3.35573 53.8384ZM1.99186 55.2167L4.02382 54.171L2.61868 56.1059L1.99186 55.2167ZM2.7646 56.2518L4.32931 54.096L4.8712 58.9721L2.7646 56.2518ZM5.17529 59.8619L8.87744 68.1125L5.65011 65.7023L5.17529 59.8619ZM5.65204 65.9155L8.95099 68.3941L4.65675 69.7032L5.65204 65.9155ZM4.77436 70.8815L4.66517 70.1133L6.4402 71.8823L4.77436 70.8815ZM4.83797 70.0326L9.54204 71.7048L7.07363 72.2377L4.83797 70.0326ZM7.12751 72.4207L9.67478 71.8695L7.55564 75.4164L7.12751 72.4207ZM9.9006 71.8577L11.7751 72.9313L11.8597 73.5526L7.81995 75.3287L9.9006 71.8577ZM12.9481 74.2612L8.4121 75.2736L11.9938 73.722L13.2736 73.3004L12.9481 74.2612ZM11.9233 71.4163C11.9308 71.4245 11.9399 71.4309 11.95 71.4348C11.9601 71.4388 11.9709 71.4402 11.9814 71.4389L13.2617 73.0852L12.0293 73.4928L11.9371 72.814L9.96464 71.7096L9.90218 71.6882L9.27756 68.7403L11.9233 71.4163ZM9.7699 63.0377L5.21096 59.2996L8.52809 57.7711L9.7699 63.0377ZM10.9639 67.5379L10.0055 63.2815L10.5319 61.7794L10.9639 67.5379ZM10.5 61.3215L9.89262 62.9618L8.65216 57.6998L8.67369 57.6934L8.66426 57.6614L12.0302 54.1848L10.5 61.3215ZM8.58589 57.4906L6.42355 53.4843L12.0255 53.883L8.58589 57.4906ZM12.1313 53.6381L12.1098 53.724L6.37102 53.3059L11.261 46.4228L12.1313 53.6381ZM19.9353 41.1397L19.9628 41.3602L19.9924 41.4609L12.2876 53.3584L11.4214 46.1568L11.1081 44.0121L9.00436 43.2247L12.0696 39.7123L12.1262 39.7454L12.9661 31.1069L12.9833 31.1018C12.9945 31.0979 13.0047 31.0917 13.0134 31.0836C13.0221 31.0754 13.0292 31.0654 13.0342 31.0543C13.0392 31.0431 13.042 31.031 13.0424 31.0185C13.0429 31.006 13.041 30.9935 13.0369 30.9817C13.0323 30.9665 13.0238 30.9528 13.0124 30.9421C13.001 30.9314 12.9871 30.9242 12.9723 30.9212L12.9601 30.88L12.9042 30.8965L10.4054 24.8417L18.523 27.5221L19.9353 41.1397ZM18.7395 27.9555L21.1211 32.5634L20.0957 40.9532L18.7395 27.9555ZM20.2209 41.3787L21.2832 32.7642L21.959 33.629C21.9438 33.6437 21.9347 33.6642 21.9337 33.6862L20.9031 41.7246L20.2209 41.3787ZM21.3464 45.4715L21.3872 43.655L21.3715 43.252L21.2408 42.7288L21.5737 43.446L22.0815 45.1706L21.6163 46.1179L21.3464 45.4715ZM22.3841 47.6764L24.1954 46.8349L24.7462 48.7059L22.3841 47.6764ZM24.2002 46.6446L22.2088 47.5739L21.7119 46.3631L22.2538 45.279L25.5643 44.1253L24.9779 45.7893L24.2002 46.6446ZM24.9721 48.7736L24.3754 46.7471L25.0657 45.9921L25.7108 46.9753L25.4563 48.6857L24.9721 48.7736ZM25.6167 48.6584L25.8642 47.0196L26.0981 46.8762L27.2103 47.0458L30.04 47.8829L25.6167 48.6584ZM30.9449 45.3298L30.3862 47.7711L27.4149 46.8663L29.0963 45.377L30.6316 44.0749L30.9449 45.3298ZM38.174 32.9609C38.1865 33.7447 38.0369 34.5164 37.7355 35.2226L34.0994 36.4622L37.5161 28.9938C37.6608 29.7714 38.0753 32.0852 38.174 32.9609ZM37.4384 28.619L37.4506 28.6601L33.8609 36.5424L33.869 36.5698L30.6299 43.8467L29.2397 45.0216L33.5296 31.0623C33.5349 31.052 33.5382 31.0406 33.5392 31.0288C33.5403 31.0169 33.5391 31.0049 33.5357 30.9934C33.5323 30.982 33.5268 30.9712 33.5195 30.9618C33.5123 30.9525 33.5033 30.9446 33.4933 30.9388C33.4722 30.9268 33.4478 30.9238 33.4253 30.9304C33.4027 30.9371 33.3838 30.9528 33.3727 30.9743L29.0822 44.884L28.3088 38.6494C28.307 38.6351 28.3029 38.6211 28.2966 38.6082L27.8609 36.5243L27.8299 36.4191L27.119 36.4047L29.3007 34.4848L26.8841 35.4002L26.4396 33.8906L27.6121 31.6265L27.6417 31.5681L27.15 29.5007L32.9444 28.3912L33.0488 28.3008C33.0482 28.2912 33.0454 28.2818 33.0407 28.2733L28.6102 25.8297L26.2802 26.6897L23.9814 25.8752L23.684 24.0389L28.2795 21.5276L27.5987 22.6328L26.4745 22.8197L24.371 24.1151L28.6333 23.4765L32.1181 23.8523L34.4953 21.4523L34.5944 22.5515L33.3781 25.2709C33.3699 25.2889 33.3686 25.3097 33.3743 25.3292C33.38 25.3487 33.3924 25.3654 33.4091 25.3761C33.4081 25.3842 33.4088 25.3925 33.4111 25.4004C33.4134 25.4083 33.4173 25.4156 33.4225 25.4219C33.429 25.4437 33.4433 25.4622 33.4624 25.4734C33.4815 25.4846 33.5037 25.4874 33.5243 25.4814L34.6711 25.0691L36.8999 25.4071L38.2464 28.391L37.4384 28.619ZM32.62 28.2431L27.1107 29.3035L26.5034 26.7482L32.62 28.2431ZM26.6918 26.5934L28.5919 25.8947L32.4245 27.9925L26.6918 26.5934ZM37.0907 25.3559L40.2388 26.1937L41.0587 26.2605L38.4108 28.2183L37.0907 25.3559ZM49.9806 25.5375L40.6679 27.2853L39.1112 27.9425L41.3696 26.2833L45.4232 25.0152L48.0638 25.3215L50.1497 24.2997L49.9806 25.5375ZM51.9143 24.1579L50.1914 25.4109L50.3663 24.1613L52.7416 15.5082L51.9143 24.1579Z" fill="url(#paint0_linear_279_1174)" stroke="url(#paint1_radial_279_1174)" stroke-width="0.5"/>
<defs>
<linearGradient id="paint0_linear_279_1174" x1="24.4606" y1="53.4286" x2="-32.3921" y2="-8.54327" gradientUnits="userSpaceOnUse">
<stop stop-color="#8D794C"/>
<stop offset="1" stop-color="#ADA785"/>
</linearGradient>
<radialGradient id="paint1_radial_279_1174" cx="0" cy="0" r="1" gradientUnits="userSpaceOnUse" gradientTransform="translate(96.1505 39.9459) rotate(-178.691) scale(119.943 65.8779)">
<stop stop-color="#C6B38A"/>
<stop offset="0.463601" stop-color="#F3C691"/>
<stop offset="1" stop-color="#B4703E"/>
</radialGradient>
</defs>
</svg>
