<svg width="366" height="28" viewBox="0 0 366 28" fill="none" xmlns="http://www.w3.org/2000/svg">
<path d="M14.8429 20.1132H15.9734C16.0239 20.1123 16.0735 20.0997 16.1181 20.0761C16.1627 20.0526 16.2012 20.0189 16.2303 19.9778C16.2594 19.9367 16.2784 19.8892 16.2858 19.8394C16.2931 19.7896 16.2886 19.7387 16.2725 19.691L15.069 16.2914C15.0467 16.2299 15.0061 16.1768 14.9526 16.1391C14.8992 16.1013 14.8354 16.0808 14.77 16.0803H5.66C5.59337 16.0803 5.52846 16.1014 5.47469 16.1407C5.42092 16.18 5.38108 16.2353 5.36094 16.2987L4.17935 19.6909C4.16328 19.7387 4.15873 19.7896 4.16606 19.8394C4.17339 19.8892 4.19239 19.9367 4.22153 19.9778C4.25066 20.0189 4.28911 20.0526 4.33375 20.0761C4.37838 20.0997 4.42795 20.1123 4.47842 20.1131H5.93718C6.02105 20.1131 6.10159 20.1459 6.16157 20.2044C6.22155 20.2629 6.2562 20.3425 6.25809 20.4262V21.4963C6.25809 21.5812 6.22428 21.6627 6.16409 21.7227C6.10391 21.7828 6.02229 21.8165 5.93718 21.8165H0.320933C0.278789 21.8165 0.237058 21.8083 0.198121 21.7922C0.159184 21.7761 0.123805 21.7525 0.094004 21.7227C0.0338182 21.6627 4.41222e-06 21.5812 9.09853e-09 21.4963V20.4262C-1.006e-05 20.3844 0.00833735 20.3431 0.0245517 20.3047C0.0407664 20.2662 0.0645231 20.2314 0.0944242 20.2022C0.124323 20.1731 0.159763 20.1501 0.198662 20.1348C0.237564 20.1196 0.27913 20.1122 0.320926 20.1131H1.82346C1.88918 20.1137 1.95341 20.0936 2.00707 20.0557C2.06073 20.0178 2.10111 19.9641 2.1225 19.902L9.20479 0.334598C9.22453 0.275136 9.2613 0.222755 9.31056 0.183939C9.35982 0.145123 9.4194 0.121577 9.48194 0.116211H10.9407C11.0059 0.11775 11.0692 0.138647 11.1225 0.176248C11.1757 0.213848 11.2166 0.266443 11.2398 0.327311L18.5335 19.8948C18.5567 19.9556 18.5976 20.0082 18.6508 20.0458C18.7041 20.0834 18.7674 20.1043 18.8326 20.1059H20.4372C20.5211 20.1059 20.6016 20.1386 20.6616 20.1971C20.7216 20.2556 20.7562 20.3352 20.7581 20.4189V21.489C20.7581 21.5739 20.7243 21.6554 20.6641 21.7155C20.604 21.7755 20.5223 21.8093 20.4372 21.8093H14.8429C14.7591 21.8074 14.6793 21.7728 14.6207 21.713C14.5621 21.6531 14.5292 21.5727 14.5293 21.489V20.4262C14.5293 20.3851 14.5374 20.3444 14.5531 20.3064C14.5689 20.2684 14.592 20.2339 14.6211 20.2048C14.6502 20.1758 14.6848 20.1527 14.7229 20.137C14.7609 20.1213 14.8017 20.1132 14.8429 20.1132ZM6.40395 14.537H13.9822C14.0336 14.5366 14.084 14.5239 14.1294 14.4999C14.1748 14.476 14.2138 14.4416 14.2431 14.3995C14.2724 14.3574 14.2912 14.3089 14.2978 14.2581C14.3044 14.2073 14.2988 14.1557 14.2813 14.1075L10.4228 3.33379C10.4027 3.27036 10.3629 3.21497 10.3091 3.17565C10.2554 3.13633 10.1904 3.11513 10.1238 3.11513C10.0571 3.11513 9.9922 3.13633 9.93843 3.17565C9.88465 3.21497 9.84483 3.27036 9.82474 3.33379L6.10492 14.1148C6.08886 14.1626 6.0843 14.2134 6.09163 14.2633C6.09896 14.3131 6.11796 14.3605 6.14709 14.4017C6.17622 14.4428 6.21466 14.4765 6.25929 14.5C6.30392 14.5235 6.35348 14.5362 6.40395 14.537Z" fill="white"/>
<path d="M148.495 0C153.55 0 157.649 2.54056 157.649 11.0358C157.649 17.9441 153.55 21.9551 148.495 21.9551C143.441 21.9551 139.312 19.4291 139.312 11.0358C139.312 4.12752 143.433 0 148.495 0ZM148.495 20.077C152.375 20.077 155.541 16.8594 155.541 10.9703C155.541 3.9965 152.375 1.86356 148.495 1.86356C144.615 1.86356 141.449 5.11755 141.449 10.9703C141.449 18.0314 144.615 20.077 148.495 20.077Z" fill="white"/>
<path d="M208.813 0.444328C208.812 0.402262 208.821 0.360607 208.837 0.321739C208.853 0.282872 208.877 0.247558 208.906 0.217812C208.936 0.188066 208.972 0.164469 209.011 0.148377C209.05 0.132285 209.091 0.124009 209.133 0.124023H216.296C220.453 0.124023 222.97 1.92207 222.97 5.67107C222.97 8.18251 220.818 10.9997 219.403 11.9897C219.337 12.0354 219.291 12.1048 219.275 12.1833C219.259 12.2619 219.273 12.3437 219.315 12.4119L223.962 19.9608C223.99 20.007 224.03 20.0453 224.077 20.072C224.124 20.0988 224.177 20.1131 224.232 20.1137H225.946C225.987 20.1137 226.028 20.1217 226.066 20.1375C226.104 20.1532 226.138 20.1763 226.167 20.2053C226.197 20.2344 226.22 20.2689 226.235 20.3069C226.251 20.3449 226.259 20.3856 226.259 20.4267V21.4968C226.259 21.5805 226.226 21.6609 226.168 21.7207C226.109 21.7806 226.029 21.8152 225.946 21.8171H223.028C222.974 21.8165 222.921 21.8022 222.873 21.7755C222.826 21.7487 222.787 21.7105 222.758 21.6642L217.419 13.0743C217.391 13.0282 217.351 12.99 217.304 12.9632C217.257 12.9365 217.204 12.9221 217.149 12.9215H213.145C213.06 12.9216 212.978 12.9554 212.918 13.0154C212.858 13.0755 212.824 13.1568 212.824 13.2418V19.7934C212.824 19.8783 212.858 19.9597 212.918 20.0197C212.978 20.0798 213.06 20.1135 213.145 20.1137H214.772C214.813 20.1128 214.855 20.1202 214.894 20.1355C214.933 20.1509 214.968 20.1738 214.998 20.2029C215.028 20.2321 215.052 20.2669 215.068 20.3053C215.084 20.3437 215.092 20.385 215.093 20.4267V21.4968C215.092 21.5817 215.059 21.6631 214.998 21.7231C214.938 21.7832 214.857 21.8169 214.772 21.8171H209.141C209.099 21.8171 209.057 21.8088 209.018 21.7927C208.979 21.7766 208.944 21.753 208.914 21.7233C208.884 21.6936 208.86 21.6582 208.844 21.6194C208.828 21.5805 208.82 21.5388 208.82 21.4968V20.4267C208.822 20.343 208.856 20.2634 208.916 20.2049C208.976 20.1464 209.057 20.1136 209.141 20.1137H210.395C210.437 20.1137 210.479 20.1054 210.518 20.0893C210.557 20.0732 210.592 20.0496 210.622 20.0199C210.652 19.9902 210.676 19.9548 210.692 19.916C210.708 19.8771 210.716 19.8354 210.716 19.7934V2.14773C210.714 2.06405 210.68 1.98444 210.62 1.92593C210.56 1.86743 210.479 1.83469 210.395 1.83473H209.141C209.099 1.83475 209.057 1.82648 209.018 1.81038C208.979 1.79429 208.944 1.7707 208.914 1.74095C208.884 1.7112 208.86 1.67588 208.844 1.63701C208.828 1.59814 208.82 1.55649 208.82 1.51442L208.813 0.444328ZM212.817 2.14773V10.8832C212.819 10.9669 212.853 11.0465 212.913 11.105C212.973 11.1635 213.054 11.1963 213.138 11.1962H217.82C217.898 11.1961 217.973 11.1676 218.032 11.1162C218.842 10.3882 220.862 8.40087 220.862 5.83848C220.862 3.27609 219.184 1.81289 216.143 1.81289H213.138C213.094 1.81282 213.051 1.82156 213.011 1.83858C212.971 1.85565 212.935 1.88055 212.905 1.9118C212.875 1.94312 212.852 1.98018 212.837 2.02073C212.822 2.06129 212.815 2.1045 212.817 2.14774L212.817 2.14773Z" fill="white"/>
<path d="M278.221 0.444328C278.221 0.360569 278.253 0.280116 278.312 0.220237C278.371 0.160358 278.451 0.12582 278.535 0.124023H285.697C290.803 0.124023 294.953 2.66459 294.953 10.4756C294.953 19.9899 291.036 21.8171 284.924 21.8171H278.535C278.451 21.8153 278.371 21.7807 278.312 21.7209C278.253 21.661 278.221 21.5805 278.221 21.4968V20.4267C278.221 20.3436 278.254 20.264 278.313 20.2053C278.372 20.1466 278.451 20.1137 278.535 20.1137H279.796C279.879 20.1045 279.954 20.0637 280.007 19.9999C280.061 19.9361 280.087 19.8543 280.081 19.7715V2.14773C280.081 2.06476 280.048 1.98522 279.989 1.92654C279.93 1.86786 279.85 1.83485 279.767 1.83473H278.505C278.421 1.83276 278.342 1.79817 278.283 1.73832C278.224 1.67848 278.192 1.59813 278.191 1.51442L278.221 0.444328ZM282.225 2.14773V19.7715C282.225 19.8552 282.258 19.9356 282.316 19.9955C282.375 20.0554 282.455 20.0899 282.539 20.0918H284.771C289.147 20.0918 292.837 19.2547 292.837 10.6284C292.837 3.96763 289.424 1.8347 285.544 1.8347H282.539C282.497 1.83468 282.457 1.84276 282.419 1.85849C282.381 1.87421 282.346 1.89727 282.317 1.92634C282.288 1.95541 282.265 1.98992 282.249 2.02791C282.233 2.06589 282.225 2.10661 282.225 2.14772V2.14773Z" fill="white"/>
<path d="M71.2554 14.8431C70.3577 14.8431 69.4877 14.5325 68.7937 13.9641C68.0998 13.3957 67.6247 12.6048 67.4496 11.726C67.2744 10.8472 67.41 9.93505 67.8331 9.14486C68.2563 8.35467 68.9409 7.73537 69.7703 7.39248C70.5997 7.04959 71.5226 7.00432 72.3817 7.2644C73.2407 7.52448 73.9829 8.0738 74.4816 8.81877C74.9804 9.56375 75.2049 10.4583 75.1169 11.3499C75.0289 12.2416 74.6339 13.0753 73.9991 13.7088C73.2714 14.4351 72.2845 14.8431 71.2554 14.8431ZM71.2554 9.14322C70.8011 9.14503 70.3636 9.31539 70.0282 9.62121C69.6927 9.92703 69.4832 10.3464 69.4403 10.7979C69.3975 11.2493 69.5244 11.7005 69.7963 12.0638C70.0683 12.427 70.4659 12.6764 70.9118 12.7633C71.3577 12.8502 71.8201 12.7685 72.209 12.5341C72.598 12.2997 72.8856 11.9293 73.0161 11.4949C73.1466 11.0606 73.1106 10.5933 72.9151 10.184C72.7196 9.77465 72.3785 9.45253 71.9583 9.28023C71.7352 9.18901 71.4964 9.14246 71.2554 9.14322Z" fill="url(#paint0_linear_169_3374)"/>
<path d="M88.6069 11.0359C88.6069 2.54066 84.5078 8.56177e-05 79.446 8.56177e-05C77.9083 -0.0067918 76.3973 0.400782 75.0723 1.17979C73.7474 1.9588 72.6578 3.08035 71.9185 4.42605C71.8931 4.4703 71.8788 4.5201 71.877 4.57111C71.8752 4.62211 71.886 4.67278 71.9083 4.7187C71.9306 4.76462 71.9638 4.80441 72.005 4.83461C72.0462 4.8648 72.0942 4.88448 72.1448 4.89194C72.5999 4.95457 73.0472 5.06437 73.4795 5.21954C73.5479 5.24687 73.624 5.24867 73.6936 5.2246C73.7633 5.20054 73.8219 5.15222 73.8588 5.08851C74.4224 4.10691 75.2361 3.29156 76.2173 2.72519C77.1986 2.15883 78.3125 1.86161 79.446 1.86367C83.3262 1.86367 86.4918 3.99659 86.4918 10.9704C86.4918 16.8596 83.3262 20.0771 79.446 20.0771C77.17 20.0771 75.1425 19.3491 73.8514 17.3546C73.8133 17.2903 73.7534 17.2417 73.6825 17.2177C73.6117 17.1937 73.5345 17.1957 73.4651 17.2235C72.9936 17.3933 72.5041 17.5081 72.0062 17.5657C71.9545 17.5726 71.9053 17.5922 71.8632 17.6229C71.821 17.6535 71.7872 17.6942 71.7647 17.7412C71.7424 17.7882 71.7321 17.84 71.7348 17.892C71.7375 17.9439 71.7531 17.9944 71.7803 18.0388C73.1804 20.5212 75.4268 21.6131 78.0966 21.8606C78.1584 21.8655 78.2173 21.8889 78.2655 21.9279C78.3137 21.9669 78.3489 22.0196 78.3665 22.079C79.1979 24.605 81.7217 26.8617 83.2752 27.9463C83.3368 27.9892 83.4123 28.0074 83.4867 27.9973L84.3836 27.9099C84.4468 27.9033 84.5066 27.8782 84.5555 27.8376C84.6043 27.797 84.64 27.7429 84.658 27.6821C84.676 27.6213 84.6754 27.5565 84.6565 27.4959C84.6375 27.4354 84.601 27.3819 84.5515 27.3421C83.0929 26.2356 81.1671 24.4303 80.4088 22.2464C80.3869 22.1791 80.3886 22.1063 80.4136 22.0401C80.4386 21.9739 80.4854 21.9181 80.5463 21.8819C80.5866 21.8578 80.6319 21.843 80.6787 21.8388C85.1423 21.2855 88.6069 17.3909 88.6069 11.0359Z" fill="white"/>
<path d="M350.995 5.58249C350.995 2.97641 353.569 1.94272 356.428 1.94272C357.555 1.93801 358.68 2.02812 359.791 2.21207C359.859 2.22473 359.922 2.25811 359.97 2.30764C360.018 2.35716 360.05 2.42041 360.061 2.48869L360.316 4.4833C360.322 4.52559 360.337 4.56621 360.359 4.60279C360.381 4.63936 360.41 4.67113 360.445 4.69623C360.48 4.72133 360.519 4.73925 360.561 4.74893C360.603 4.75861 360.646 4.75987 360.688 4.75261L361.592 4.60704C361.671 4.5929 361.741 4.54999 361.79 4.48671C361.839 4.42343 361.862 4.34433 361.855 4.26488L361.564 0.916304C361.556 0.849269 361.529 0.786041 361.484 0.735239C361.44 0.684436 361.381 0.64853 361.315 0.632401C359.579 0.21652 357.798 0.0160264 356.013 0.0354692C354.343 0.0791453 351.097 0.508623 349.645 2.85266C349.129 3.70375 348.864 4.68257 348.88 5.67714C348.88 10.1686 353.701 10.5253 357.246 11.7556C357.297 11.7724 357.353 11.7746 357.405 11.7617C357.458 11.7488 357.506 11.7215 357.544 11.6828C357.904 11.3533 358.298 11.0629 358.719 10.8165C358.774 10.7883 358.819 10.7446 358.849 10.6909C358.879 10.6372 358.893 10.5758 358.888 10.5144C358.883 10.453 358.861 10.3944 358.823 10.3458C358.785 10.2973 358.733 10.261 358.675 10.2414C355.211 9.01118 350.995 8.851 350.995 5.58249Z" fill="white"/>
<path d="M356.668 20.0034C356.635 19.9562 356.59 19.919 356.537 19.8959C356.484 19.8728 356.426 19.8646 356.369 19.8724C355.866 19.9468 355.36 19.9857 354.852 19.9888C353.191 19.9792 351.549 19.6273 350.031 18.9552C349.976 18.9301 349.93 18.8901 349.898 18.8398C349.866 18.7895 349.848 18.731 349.848 18.6713L349.797 16.8586C349.797 16.8149 349.787 16.7718 349.768 16.7321C349.75 16.6924 349.723 16.6571 349.69 16.6283C349.657 16.5995 349.619 16.5779 349.577 16.5649C349.535 16.5519 349.491 16.5478 349.447 16.5529L348.55 16.6403C348.473 16.6491 348.401 16.6858 348.349 16.7434C348.296 16.801 348.267 16.8756 348.266 16.9533V19.7777C348.266 19.833 348.28 19.8874 348.306 19.9358C348.333 19.9842 348.372 20.025 348.419 20.0544C350.497 21.2732 352.872 21.8931 355.282 21.8452C356.028 21.8466 356.773 21.7808 357.507 21.6486C357.566 21.6388 357.62 21.6124 357.665 21.5727C357.709 21.533 357.741 21.4815 357.757 21.4242C357.774 21.3669 357.773 21.3062 357.756 21.2492C357.738 21.1923 357.705 21.1414 357.66 21.1026C357.287 20.7762 356.954 20.4073 356.668 20.0034Z" fill="white"/>
<path d="M361.868 20.2513C360.97 20.2529 360.099 19.9437 359.404 19.3764C358.709 18.8091 358.233 18.0188 358.056 17.1402C357.88 16.2616 358.014 15.3491 358.436 14.5581C358.858 13.7672 359.542 13.1468 360.371 12.8027C361.2 12.4586 362.123 12.4122 362.982 12.6712C363.842 12.9302 364.585 13.4787 365.085 14.2232C365.584 14.9677 365.81 15.8622 365.723 16.7541C365.636 17.646 365.241 18.4801 364.607 19.1144C363.881 19.8406 362.896 20.2495 361.868 20.2513ZM361.868 14.5514C361.442 14.5497 361.029 14.6955 360.7 14.9638C360.37 15.2321 360.143 15.6064 360.059 16.0226C359.975 16.4389 360.038 16.8715 360.238 17.2465C360.437 17.6216 360.761 17.9158 361.154 18.0791C361.547 18.2424 361.984 18.2646 362.392 18.1419C362.799 18.0192 363.151 17.7592 363.388 17.4063C363.625 17.0534 363.731 16.6295 363.69 16.2068C363.648 15.7841 363.461 15.3889 363.16 15.0886C362.818 14.7463 362.353 14.5531 361.868 14.5514Z" fill="url(#paint1_linear_169_3374)"/>
<defs>
<linearGradient id="paint0_linear_169_3374" x1="72.5347" y1="12.7933" x2="68.3155" y2="6.75812" gradientUnits="userSpaceOnUse">
<stop stop-color="#EFCE84"/>
<stop offset="1" stop-color="#CD6D25"/>
</linearGradient>
<linearGradient id="paint1_linear_169_3374" x1="357.98" y1="16.3785" x2="365.741" y2="16.3785" gradientUnits="userSpaceOnUse">
<stop stop-color="#EFCE84"/>
<stop offset="1" stop-color="#CD6D25"/>
</linearGradient>
</defs>
</svg>
