<svg xmlns="http://www.w3.org/2000/svg" width="76" height="80" fill="none" xmlns:v="https://vecta.io/nano"><path fill-rule="evenodd" d="M38 0c3.756 0 5.634 0 7.115.609a8.03 8.03 0 0 1 4.363 4.33c.373.895.52 1.935.577 3.453.084 2.231 1.237 4.296 3.185 5.412s4.326 1.075 6.315.031c1.353-.71 2.334-1.104 3.302-1.231 2.12-.277 4.263.293 5.959 1.585 1.272.969 2.211 2.583 4.089 5.811h0c1.878 3.228 2.817 4.842 3.026 6.42.279 2.104-.295 4.231-1.597 5.914-.594.768-1.429 1.414-2.725 2.223-1.905 1.188-3.13 3.211-3.13 5.443s1.225 4.256 3.13 5.444c1.296.808 2.131 1.454 2.725 2.222 1.302 1.683 1.876 3.811 1.597 5.914-.209 1.578-1.148 3.192-3.026 6.42s-2.817 4.842-4.089 5.811c-1.696 1.292-3.84 1.862-5.959 1.585-.968-.126-1.949-.521-3.302-1.231-1.989-1.043-4.367-1.085-6.315.032s-3.101 3.181-3.184 5.412c-.057 1.518-.203 2.559-.577 3.454a8.03 8.03 0 0 1-4.363 4.33C43.634 80 41.756 80 38 80s-5.634 0-7.115-.609a8.03 8.03 0 0 1-4.363-4.33c-.373-.895-.52-1.935-.577-3.453-.084-2.231-1.237-4.296-3.185-5.412s-4.326-1.075-6.315-.031c-1.353.71-2.334 1.104-3.302 1.231-2.12.277-4.263-.293-5.959-1.585-1.272-.969-2.211-2.583-4.089-5.811S.278 55.158.069 53.58c-.279-2.104.295-4.231 1.597-5.914.594-.768 1.429-1.414 2.725-2.222 1.905-1.188 3.13-3.211 3.13-5.443s-1.226-4.256-3.13-5.444c-1.296-.808-2.131-1.454-2.725-2.222C.365 30.651-.21 28.523.069 26.42.279 24.842 1.218 23.228 3.096 20s2.817-4.842 4.089-5.811c1.696-1.292 3.84-1.862 5.959-1.585.967.126 1.949.521 3.302 1.231 1.989 1.043 4.367 1.085 6.315-.031s3.101-3.181 3.185-5.412c.057-1.518.203-2.559.577-3.453a8.03 8.03 0 0 1 4.363-4.33C32.366 0 34.244 0 38 0zm-.002 52c6.678 0 12.091-5.373 12.091-12s-5.413-12-12.091-12-12.091 5.373-12.091 12 5.414 12 12.091 12z" fill="url(#A)"/><defs><radialGradient id="A" cx="0" cy="0" r="1" gradientUnits="userSpaceOnUse" gradientTransform="translate(98.4028 66.0441) rotate(-154.348) scale(83.5292 61.764)"><stop stop-color="#c6b38a"/><stop offset=".464" stop-color="#f3c691"/><stop offset="1" stop-color="#b4703e"/></radialGradient></defs></svg>