<svg xmlns="http://www.w3.org/2000/svg" width="26" height="41" fill="none" xmlns:v="https://vecta.io/nano"><path d="M1.26 10.54l-.3-.3C.32 9.6.28 8.94.84 8.26L4.68 3.4C6.24 1.48 8.02.52 10.02.52c1.68 0 2.9.5 3.66 1.5s1.14 2.64 1.14 4.92v31.62c0 .56-.1.94-.3 1.14s-.58.3-1.14.3h-.48c-.56 0-.94-.1-1.14-.3s-.3-.58-.3-1.14V8.2c0-2.32-.14-3.64-.42-3.96-.16-.2-.62-.4-1.38-.6-.92 0-1.88.66-2.88 1.98l-3.72 4.8c-.56.68-1.16.72-1.8.12zm18.503 27.24c-.12-1.08.28-1.84 1.2-2.28s1.84-.44 2.76 0 1.32 1.2 1.2 2.28c0 .72-.26 1.34-.78 1.86-.48.48-1.08.72-1.8.72s-1.34-.24-1.86-.72c-.48-.52-.72-1.14-.72-1.86z" fill="url(#A)"/><defs><radialGradient id="A" cx="0" cy="0" r="1" gradientUnits="userSpaceOnUse" gradientTransform="translate(37.5484 48.0908) rotate(-130.663) scale(44.0936 41.2975)"><stop stop-color="#c6b38a"/><stop offset=".464" stop-color="#f3c691"/><stop offset="1" stop-color="#b4703e"/></radialGradient></defs></svg>