<svg xmlns="http://www.w3.org/2000/svg" width="24" height="312" fill="none" xmlns:v="https://vecta.io/nano"><path opacity=".4" d="M2.51614 262L2.51629 312C2.51621 286.384 -0.720737 256.95 9.01651 231.651C16.1895 213.013 19.5165 214.154 19.5165 188.538V124.861C19.5165 98.9653 15.4859 100.031 9.01651 80.811C2.51646 61.5001 2.51651 56.6727 2.51646 30.7773V9.15527e-05" stroke="url(#A)" stroke-width="2.8"/><path d="M19.5 153C21.433 153 23 154.567 23 156.5C23 158.433 21.433 160 19.5 160C17.567 160 16 158.433 16 156.5C16 154.567 17.567 153 19.5 153Z" stroke="url(#B)" stroke-width="2"/><defs><linearGradient id="A" x1="10.758" y1="312" x2="10.758" y2="0" gradientUnits="userSpaceOnUse"><stop stop-color="#bc9163" stop-opacity="0"/><stop offset=".25" stop-color="#bc9163"/><stop offset=".75" stop-color="#bc9163"/><stop offset="1" stop-color="#bc9163" stop-opacity="0"/></linearGradient><radialGradient id="B" cx="0" cy="0" r="1" gradientUnits="userSpaceOnUse" gradientTransform="translate(25.0634 154.221) rotate(155.477) scale(7.62287 5.45441)"><stop stop-color="#c6b38a"/><stop offset=".464" stop-color="#f3c691"/><stop offset="1" stop-color="#b4703e"/></radialGradient></defs></svg>