<svg xmlns="http://www.w3.org/2000/svg" xmlns:xlink="http://www.w3.org/1999/xlink" width="79" height="60" fill="none" xmlns:v="https://vecta.io/nano"><style><![CDATA[.B{stroke-opacity:.7}.C{stroke-width:1.212}]]></style><circle cx="11.46" cy="11.46" transform="matrix(-1 0 0 1 69.9717 7.27271)" fill="url(#A)" r="11.46"/><path d="M47.6576 18.7328C47.6576 24.7273 52.5171 29.5868 58.5116 29.5868C64.5061 29.5868 69.3656 24.7273 69.3656 18.7328C69.3656 12.7383 64.5061 7.87877 58.5116 7.87877C52.5171 7.87877 47.6576 12.7383 47.6576 18.7328Z" stroke="url(#B)" class="B C"/><circle cx="11.46" cy="11.46" transform="matrix(-1 0 0 1 31.5146 7.27271)" fill="url(#A)" r="11.46"/><path d="M9.20059 18.7328C9.20059 24.7273 14.0601 29.5868 20.0546 29.5868C26.0491 29.5868 30.9086 24.7273 30.9086 18.7328C30.9086 12.7383 26.0491 7.87877 20.0546 7.87877C14.0601 7.87877 9.20059 12.7383 9.20059 18.7328Z" stroke="url(#C)" class="B C"/><path d="M38.457 44.33c0-2.465 1.55-4.664 3.871-5.493h0a48.12 48.12 0 0 1 32.368 0h0c2.321.829 3.871 3.028 3.871 5.493v3.769c0 3.402-3.013 6.015-6.381 5.534l-1.123-.16a88.75 88.75 0 0 0-25.102 0l-1.123.16c-3.368.481-6.381-2.132-6.381-5.534V44.33z" fill="url(#D)"/><path d="M77.9612 44.3304V48.0993C77.9612 51.1325 75.2747 53.4625 72.272 53.0336L71.1491 52.8731C62.767 51.6757 54.2573 51.6757 45.8752 52.8732L44.7523 53.0336C41.7496 53.4625 39.0631 51.1325 39.0631 48.0993V44.3304C39.0631 42.1216 40.4516 40.1512 42.5318 39.4083C52.8657 35.7176 64.1586 35.7176 74.4925 39.4083C76.5726 40.1512 77.9612 42.1216 77.9612 44.3304Z" stroke="url(#E)" class="B C"/><path d="M0 44.33c0-2.465 1.55-4.664 3.871-5.493h0a48.12 48.12 0 0 1 32.368 0h0c2.321.829 3.871 3.028 3.871 5.493v3.769c0 3.402-3.013 6.015-6.381 5.534l-1.123-.16c-8.325-1.189-16.777-1.189-25.103 0l-1.123.16C3.013 54.115 0 51.501 0 48.099V44.33z" fill="url(#F)"/><path d="M39.5042 44.3304V48.0993C39.5042 51.1325 36.8177 53.4625 33.8149 53.0336L32.6921 52.8731C24.31 51.6757 15.8002 51.6757 7.41814 52.8732L6.29527 53.0336C3.29255 53.4625 0.606061 51.1325 0.606061 48.0993V44.3304C0.606061 42.1216 1.9946 40.1512 4.07474 39.4083C14.4087 35.7176 25.7015 35.7176 36.0355 39.4083C38.1156 40.1512 39.5042 42.1216 39.5042 44.3304Z" stroke="url(#G)" class="B C"/><circle cx="14.546" cy="14.546" transform="matrix(-1 0 0 1 54.5454 0)" fill="url(#H)" r="14.546"/><path d="M14.545 47.035c0-3.129 1.967-5.919 4.913-6.972h0c13.283-4.744 27.8-4.744 41.083 0h0c2.946 1.052 4.913 3.843 4.913 6.972v4.784a7.1 7.1 0 0 1-8.099 7.024l-1.425-.204c-10.567-1.509-21.294-1.509-31.861 0l-1.425.204a7.1 7.1 0 0 1-8.099-7.024v-4.784z" fill="url(#I)"/><path d="M64.8485 47.0351V51.8187C64.8485 55.7679 61.3507 58.8014 57.4413 58.2429L56.0161 58.0393C45.3926 56.5217 34.6073 56.5217 23.9838 58.0393L22.5586 58.2429C18.6492 58.8014 15.1515 55.7679 15.1515 51.8187V47.0351C15.1515 44.1626 16.9572 41.6003 19.6623 40.6342C32.814 35.9372 47.186 35.9372 60.3376 40.6342C63.0427 41.6003 64.8485 44.1626 64.8485 47.0351Z" stroke="url(#J)" class="B C"/><defs><radialGradient id="A" cx="0" cy="0" r="1" gradientTransform="translate(29.6764 18.9217) rotate(-155.477) scale(24.9596 17.8594)" xlink:href="#K"><stop stop-color="#c6b38a"/><stop offset=".464" stop-color="#f3c691"/><stop offset="1" stop-color="#b4703e"/></radialGradient><linearGradient id="B" x1="69.399" y1="10.711" x2="49.344" y2="27.901" xlink:href="#K"><stop stop-color="#fff" stop-opacity=".15"/><stop offset="1" stop-color="#fff" stop-opacity=".44"/></linearGradient><linearGradient id="C" x1="30.942" y1="10.711" x2="10.887" y2="27.901" xlink:href="#K"><stop stop-color="#fff" stop-opacity=".15"/><stop offset="1" stop-color="#fff" stop-opacity=".44"/></linearGradient><radialGradient id="D" cx="0" cy="0" r="1" gradientTransform="translate(90.3907 50.7966) rotate(-166.266) scale(40.9087 17.8771)" xlink:href="#K"><stop stop-color="#c6b38a"/><stop offset=".464" stop-color="#f3c691"/><stop offset="1" stop-color="#b4703e"/></radialGradient><linearGradient id="E" x1="39.46" y1="36.281" x2="56.561" y2="63.643" xlink:href="#K"><stop stop-color="#fff" stop-opacity=".15"/><stop offset="1" stop-color="#fff" stop-opacity=".44"/></linearGradient><radialGradient id="F" cx="0" cy="0" r="1" gradientTransform="translate(51.9337 50.7966) rotate(-166.266) scale(40.9087 17.8771)" xlink:href="#K"><stop stop-color="#c6b38a"/><stop offset=".464" stop-color="#f3c691"/><stop offset="1" stop-color="#b4703e"/></radialGradient><linearGradient id="G" x1="1.003" y1="36.281" x2="18.104" y2="63.643" xlink:href="#K"><stop stop-color="#fff" stop-opacity=".15"/><stop offset="1" stop-color="#fff" stop-opacity=".44"/></linearGradient><radialGradient id="H" cx="0" cy="0" r="1" gradientTransform="translate(37.6662 24.016) rotate(-155.477) scale(31.6795 22.6677)" xlink:href="#K"><stop stop-color="#c6b38a"/><stop offset=".464" stop-color="#f3c691"/><stop offset="1" stop-color="#b4703e"/></radialGradient><radialGradient id="I" cx="0" cy="0" r="1" gradientTransform="translate(80.4612 55.2422) rotate(-166.266) scale(51.9226 22.6902)" xlink:href="#K"><stop stop-color="#c6b38a"/><stop offset=".464" stop-color="#f3c691"/><stop offset="1" stop-color="#b4703e"/></radialGradient><linearGradient id="J" x1="15.818" y1="36.818" x2="37.524" y2="71.547" xlink:href="#K"><stop stop-color="#fff" stop-opacity=".15"/><stop offset="1" stop-color="#fff" stop-opacity=".44"/></linearGradient><linearGradient id="K" gradientUnits="userSpaceOnUse"/></defs></svg>