<svg width="25" height="386" viewBox="0 0 25 386" fill="none" xmlns="http://www.w3.org/2000/svg">
<path opacity="0.4" d="M2.51614 262L2.51629 386C2.51621 360.384 -0.720736 256.95 9.01651 231.65C16.1895 213.013 19.5165 214.154 19.5165 188.538V124.861C19.5165 98.9652 15.486 100.031 9.01651 80.8109C2.51646 61.5 2.51652 56.6725 2.51646 30.7771V-3.05176e-05" stroke="url(#paint0_linear_932_4924)" stroke-width="2.8"/>
<path d="M19.5166 152C21.4496 152 23.0166 153.567 23.0166 155.5C23.0166 157.433 21.4496 159 19.5166 159C17.5836 159 16.0166 157.433 16.0166 155.5C16.0166 153.567 17.5836 152 19.5166 152Z" stroke="url(#paint1_radial_932_4924)" stroke-width="2"/>
<path opacity="0.4" d="M2.51614 262L2.51629 386C2.51621 360.384 -0.720736 256.95 9.01651 231.65C16.1895 213.013 19.5165 214.154 19.5165 188.538V124.861C19.5165 98.9652 15.486 100.031 9.01651 80.8109C2.51646 61.5 2.51652 56.6725 2.51646 30.7771V-3.05176e-05" stroke="url(#paint2_linear_932_4924)" stroke-width="2.8"/>
<defs>
<linearGradient id="paint0_linear_932_4924" x1="10.7582" y1="386" x2="10.7582" y2="-3.05176e-05" gradientUnits="userSpaceOnUse">
<stop stop-color="#BC9163" stop-opacity="0"/>
<stop offset="1" stop-color="#BC9163"/>
</linearGradient>
<radialGradient id="paint1_radial_932_4924" cx="0" cy="0" r="1" gradientUnits="userSpaceOnUse" gradientTransform="translate(25.08 153.221) rotate(155.477) scale(7.62287 5.45441)">
<stop stop-color="#C6B38A"/>
<stop offset="0.463601" stop-color="#F3C691"/>
<stop offset="1" stop-color="#B4703E"/>
</radialGradient>
<linearGradient id="paint2_linear_932_4924" x1="10.7582" y1="386" x2="10.7582" y2="-3.05176e-05" gradientUnits="userSpaceOnUse">
<stop stop-color="#BC9163" stop-opacity="0"/>
<stop offset="1" stop-color="#BC9163"/>
</linearGradient>
</defs>
</svg>
