<svg width="60" height="60" viewBox="0 0 60 60" fill="none" xmlns="http://www.w3.org/2000/svg">
<path opacity="0.5" d="M30 60C46.5685 60 60 46.5685 60 30C60 13.4315 46.5685 0 30 0C13.4315 0 0 13.4315 0 30C0 34.799 1.12685 39.3349 3.13038 43.3574C3.66281 44.4264 3.84003 45.6482 3.53136 46.8018L1.74453 53.4799C0.968864 56.379 3.62104 59.0311 6.52004 58.2555L13.1982 56.4686C14.3518 56.16 15.5736 56.3372 16.6426 56.8696C20.6651 58.8732 25.201 60 30 60Z" fill="url(#paint0_linear_1715_24348)"/>
<path d="M27 30.001C27 31.6578 28.3431 33.001 30 33.001C31.6569 33.001 33 31.6578 33 30.001C33 28.3441 31.6569 27.001 30 27.001C28.3431 27.001 27 28.3441 27 30.001Z" fill="url(#paint1_linear_1715_24348)"/>
<path d="M15 30.001C15 31.6578 16.3431 33.001 18 33.001C19.6569 33.001 21 31.6578 21 30.001C21 28.3441 19.6569 27.001 18 27.001C16.3431 27.001 15 28.3441 15 30.001Z" fill="url(#paint2_linear_1715_24348)"/>
<path d="M39 30.001C39 31.6578 40.3431 33.001 42 33.001C43.6569 33.001 45 31.6578 45 30.001C45 28.3441 43.6569 27.001 42 27.001C40.3431 27.001 39 28.3441 39 30.001Z" fill="url(#paint3_linear_1715_24348)"/>
<defs>
<linearGradient id="paint0_linear_1715_24348" x1="0" y1="9.31323e-10" x2="60" y2="9.31314e-10" gradientUnits="userSpaceOnUse">
<stop stop-color="#C6B38A"/>
<stop offset="0.474018" stop-color="#F3C691"/>
<stop offset="1" stop-color="#B4703E"/>
</linearGradient>
<linearGradient id="paint1_linear_1715_24348" x1="15" y1="27.001" x2="45" y2="27.001" gradientUnits="userSpaceOnUse">
<stop stop-color="#C6B38A"/>
<stop offset="0.474018" stop-color="#F3C691"/>
<stop offset="1" stop-color="#B4703E"/>
</linearGradient>
<linearGradient id="paint2_linear_1715_24348" x1="15" y1="27.001" x2="45" y2="27.001" gradientUnits="userSpaceOnUse">
<stop stop-color="#C6B38A"/>
<stop offset="0.474018" stop-color="#F3C691"/>
<stop offset="1" stop-color="#B4703E"/>
</linearGradient>
<linearGradient id="paint3_linear_1715_24348" x1="15" y1="27.001" x2="45" y2="27.001" gradientUnits="userSpaceOnUse">
<stop stop-color="#C6B38A"/>
<stop offset="0.474018" stop-color="#F3C691"/>
<stop offset="1" stop-color="#B4703E"/>
</linearGradient>
</defs>
</svg>
