<svg xmlns="http://www.w3.org/2000/svg" width="25" height="40" fill="none" xmlns:v="https://vecta.io/nano"><path d="M7.82 39h-.3c-.68 0-1.1-.1-1.26-.3-.12-.2-.02-.62.3-1.26l13.08-27.06c.88-1.72 1.32-3.3 1.32-4.74 0-.88-.32-1.52-.96-1.92s-1.72-.6-3.24-.6H2.12c-.56 0-.94-.1-1.14-.3s-.3-.58-.3-1.14v-.24C.68.88.78.5.98.3S1.56 0 2.12 0h14.76c4.96 0 7.44 1.84 7.44 5.52 0 1.76-1.08 4.9-3.24 9.42L10.22 37.5c-.28.6-.58 1-.9 1.2s-.82.3-1.5.3zm11.236-2.22c-.12-1.08.28-1.84 1.2-2.28s1.84-.44 2.76 0 1.32 1.2 1.2 2.28c0 .72-.26 1.34-.78 1.86-.48.48-1.08.72-1.8.72s-1.34-.24-1.86-.72c-.48-.52-.72-1.14-.72-1.86z" fill="url(#A)"/><defs><radialGradient id="A" cx="0" cy="0" r="1" gradientUnits="userSpaceOnUse" gradientTransform="translate(36.5484 47.0908) rotate(-130.663) scale(44.0936 41.2975)"><stop stop-color="#c6b38a"/><stop offset=".464" stop-color="#f3c691"/><stop offset="1" stop-color="#b4703e"/></radialGradient></defs></svg>