<svg xmlns="http://www.w3.org/2000/svg" width="34" height="41" fill="none" xmlns:v="https://vecta.io/nano"><path d="M12.96 16.72c4.28 0 7.4.94 9.36 2.82 2 1.84 3 4.74 3 8.7 0 4.12-1.02 7.18-3.06 9.18-2 2-5.1 3-9.3 3-4.52 0-7.8-1.2-9.84-3.6S.06 30.72.06 25.72V14.26c0-4.84 1.08-8.34 3.24-10.5C5.5 1.6 9.06.52 13.98.52c3 0 5.76.44 8.28 1.32.6.2.98.42 1.14.66.2.2.3.56.3 1.08v.48c0 1.2-.46 1.58-1.38 1.14-2.44-1.04-5.32-1.56-8.64-1.56-3.88 0-6.58.82-8.1 2.46-1.48 1.6-2.22 4.28-2.22 8.04v3.9c2.88-.88 6.08-1.32 9.6-1.32zm-.24 3c-3.4 0-6.52.46-9.36 1.38v4.44c0 3.96.68 6.92 2.04 8.88 1.36 1.92 3.96 2.88 7.8 2.88 3.12 0 5.36-.7 6.72-2.1s2.04-3.66 2.04-6.78-.72-5.34-2.16-6.66c-1.4-1.36-3.76-2.04-7.08-2.04zm15.527 18.06c-.12-1.08.28-1.84 1.2-2.28s1.84-.44 2.76 0 1.32 1.2 1.2 2.28c0 .72-.26 1.34-.78 1.86-.48.48-1.08.72-1.8.72s-1.34-.24-1.86-.72c-.48-.52-.72-1.14-.72-1.86z" fill="url(#A)"/><defs><radialGradient id="A" cx="0" cy="0" r="1" gradientUnits="userSpaceOnUse" gradientTransform="translate(48.791 48.0908) rotate(-139.836) scale(51.8582 48.4334)"><stop stop-color="#c6b38a"/><stop offset=".464" stop-color="#f3c691"/><stop offset="1" stop-color="#b4703e"/></radialGradient></defs></svg>