<svg xmlns="http://www.w3.org/2000/svg" width="65" height="60" fill="none" xmlns:v="https://vecta.io/nano"><path fill-rule="evenodd" d="M57.5 55.591V6.841l-.145-4.638c-.131-.976-.343-1.282-.514-1.453s-.477-.383-1.453-.514C54.347.095 52.935.091 50.75.091l-4.638.145c-.976.131-1.282.343-1.453.514s-.383.477-.514 1.453C44.005 3.243 44 4.656 44 6.841v48.75h13.5z" fill="url(#A)"/><path opacity=".7" d="M39.5 20.16a2.25 2.25 0 0 0-2.25-2.25h-9A2.25 2.25 0 0 0 26 20.16v35.25h13.5V20.16z" fill="url(#B)"/><path opacity=".7" d="M21 35.16a2.25 2.25 0 0 0-2.25-2.25h-9a2.25 2.25 0 0 0-2.25 2.25v20.25H21V35.16z" fill="url(#C)"/><path opacity=".5" d="M2.25 55.41a2.25 2.25 0 1 0 0 4.5h60a2.25 2.25 0 1 0 0-4.5h-.75H57 43.5 39 25.5 21 7.5 3h-.75z" fill="url(#D)"/><defs><radialGradient id="A" cx="0" cy="0" r="1" gradientUnits="userSpaceOnUse" gradientTransform="translate(61.4794 45.9086) rotate(-118.066) scale(28.4286 22.3636)"><stop stop-color="#c6b38a"/><stop offset=".464" stop-color="#f3c691"/><stop offset="1" stop-color="#b4703e"/></radialGradient><radialGradient id="B" cx="0" cy="0" r="1" gradientUnits="userSpaceOnUse" gradientTransform="translate(43.4794 48.8676) rotate(-128.277) scale(21.5914 19.8955)"><stop stop-color="#c6b38a"/><stop offset=".464" stop-color="#f3c691"/><stop offset="1" stop-color="#b4703e"/></radialGradient><radialGradient id="C" cx="0" cy="0" r="1" gradientUnits="userSpaceOnUse" gradientTransform="translate(24.9794 51.4844) rotate(-142.752) scale(16.8024 15.3397)"><stop stop-color="#c6b38a"/><stop offset=".464" stop-color="#f3c691"/><stop offset="1" stop-color="#b4703e"/></radialGradient><radialGradient id="D" cx="0" cy="0" r="1" gradientUnits="userSpaceOnUse" gradientTransform="translate(83.5129 59.1245) rotate(-178.177) scale(63.9356 3.85212)"><stop stop-color="#c6b38a"/><stop offset=".464" stop-color="#f3c691"/><stop offset="1" stop-color="#b4703e"/></radialGradient></defs></svg>