<svg width="62" height="1472" viewBox="0 0 62 1472" fill="none" xmlns="http://www.w3.org/2000/svg">
<path d="M2.51613 581L2.51629 592.238C2.51621 617.854 -0.720741 636.05 9.01651 661.35C16.1895 679.987 36.5165 678.846 36.5165 704.462V768.139C36.5165 794.035 15.7891 793.074 9.01651 812.189C2.43627 830.761 2.51651 836.327 2.51645 862.223V893" fill="url(#paint0_linear_932_4916)"/>
<path d="M2.49953 478L2.49969 500.762C2.49961 475.146 -0.737343 472.95 8.99991 447.651C16.1729 429.013 19.4999 430.154 19.4999 404.538V340.861C19.4999 314.965 15.4693 316.031 8.99991 296.811C2.49985 277.5 2.49991 272.673 2.49985 246.777V216" stroke="#B3703E" stroke-width="2.8"/>
<rect x="1" width="3" height="396" fill="url(#paint1_linear_932_4916)"/>
<rect width="3" height="486" transform="matrix(1 0 0 -1 1 1472)" fill="url(#paint2_linear_932_4916)"/>
<rect width="3" height="630" transform="matrix(1 0 0 -1 1 1026)" fill="#B3703E"/>
<path d="M2.51613 581L2.51629 592.238C2.51621 617.854 -0.720741 636.05 9.01651 661.35C16.1895 679.987 36.5165 678.846 36.5165 704.462V768.139C36.5165 794.035 15.7891 793.074 9.01651 812.189C2.43627 830.761 2.51651 836.327 2.51645 862.223V893" stroke="url(#paint3_radial_932_4916)" stroke-width="2.8"/>
<g filter="url(#filter0_dddd_932_4916)">
<path d="M36.5166 730C40.1065 730 43.0166 732.91 43.0166 736.5C43.0166 740.09 40.1065 743 36.5166 743C32.9268 743 30.0166 740.09 30.0166 736.5C30.0166 732.91 32.9268 730 36.5166 730Z" fill="white"/>
<path d="M36.5166 733C38.4496 733 40.0166 734.567 40.0166 736.5C40.0166 738.433 38.4496 740 36.5166 740C34.5836 740 33.0166 738.433 33.0166 736.5C33.0166 734.567 34.5836 733 36.5166 733Z" stroke="url(#paint4_radial_932_4916)" stroke-width="2"/>
</g>
<path opacity="0.4" d="M2.49954 1228L2.49969 1352C2.49961 1326.38 -0.737337 1222.95 8.99991 1197.65C16.1729 1179.01 19.4999 1180.15 19.4999 1154.54V1090.86C19.4999 1064.97 15.4693 1066.03 8.99991 1046.81C2.49986 1027.5 2.49992 1022.67 2.49986 996.777V966" stroke="url(#paint5_linear_932_4916)" stroke-width="2.8"/>
<path d="M19.5 1118C21.433 1118 23 1119.57 23 1121.5C23 1123.43 21.433 1125 19.5 1125C17.567 1125 16 1123.43 16 1121.5C16 1119.57 17.567 1118 19.5 1118Z" stroke="url(#paint6_radial_932_4916)" stroke-width="2"/>
<path opacity="0.4" d="M2.49954 1228L2.49969 1352C2.49961 1326.38 -0.737337 1222.95 8.99991 1197.65C16.1729 1179.01 19.4999 1180.15 19.4999 1154.54V1090.86C19.4999 1064.97 15.4693 1066.03 8.99991 1046.81C2.49986 1027.5 2.49992 1022.67 2.49986 996.777V966" stroke="url(#paint7_linear_932_4916)" stroke-width="2.8"/>
<defs>
<filter id="filter0_dddd_932_4916" x="11.396" y="711.379" width="50.2412" height="50.2412" filterUnits="userSpaceOnUse" color-interpolation-filters="sRGB">
<feFlood flood-opacity="0" result="BackgroundImageFix"/>
<feColorMatrix in="SourceAlpha" type="matrix" values="0 0 0 0 0 0 0 0 0 0 0 0 0 0 0 0 0 0 127 0" result="hardAlpha"/>
<feOffset/>
<feGaussianBlur stdDeviation="6.98273"/>
<feComposite in2="hardAlpha" operator="out"/>
<feColorMatrix type="matrix" values="0 0 0 0 0.952941 0 0 0 0 0.776471 0 0 0 0 0.568627 0 0 0 1 0"/>
<feBlend mode="normal" in2="BackgroundImageFix" result="effect1_dropShadow_932_4916"/>
<feColorMatrix in="SourceAlpha" type="matrix" values="0 0 0 0 0 0 0 0 0 0 0 0 0 0 0 0 0 0 127 0" result="hardAlpha"/>
<feOffset/>
<feGaussianBlur stdDeviation="9.31031"/>
<feComposite in2="hardAlpha" operator="out"/>
<feColorMatrix type="matrix" values="0 0 0 0 1 0 0 0 0 0.843137 0 0 0 0 0 0 0 0 1 0"/>
<feBlend mode="normal" in2="effect1_dropShadow_932_4916" result="effect2_dropShadow_932_4916"/>
<feColorMatrix in="SourceAlpha" type="matrix" values="0 0 0 0 0 0 0 0 0 0 0 0 0 0 0 0 0 0 127 0" result="hardAlpha"/>
<feOffset/>
<feGaussianBlur stdDeviation="2.32758"/>
<feComposite in2="hardAlpha" operator="out"/>
<feColorMatrix type="matrix" values="0 0 0 0 0.803922 0 0 0 0 0.427451 0 0 0 0 0.145098 0 0 0 1 0"/>
<feBlend mode="normal" in2="effect2_dropShadow_932_4916" result="effect3_dropShadow_932_4916"/>
<feColorMatrix in="SourceAlpha" type="matrix" values="0 0 0 0 0 0 0 0 0 0 0 0 0 0 0 0 0 0 127 0" result="hardAlpha"/>
<feOffset/>
<feGaussianBlur stdDeviation="6.98273"/>
<feComposite in2="hardAlpha" operator="out"/>
<feColorMatrix type="matrix" values="0 0 0 0 0.803922 0 0 0 0 0.427451 0 0 0 0 0.145098 0 0 0 1 0"/>
<feBlend mode="normal" in2="effect3_dropShadow_932_4916" result="effect4_dropShadow_932_4916"/>
<feBlend mode="normal" in="SourceGraphic" in2="effect4_dropShadow_932_4916" result="shape"/>
</filter>
<linearGradient id="paint0_linear_932_4916" x1="2" y1="893" x2="2" y2="581" gradientUnits="userSpaceOnUse">
<stop stop-color="#B4703E"/>
<stop offset="0.479167" stop-color="#BC9163"/>
<stop offset="1" stop-color="#C6B38A" stop-opacity="0"/>
</linearGradient>
<linearGradient id="paint1_linear_932_4916" x1="1" y1="396" x2="1" y2="0" gradientUnits="userSpaceOnUse">
<stop stop-color="#B4703E"/>
<stop offset="0.479167" stop-color="#BC9163"/>
<stop offset="1" stop-color="#C6B38A" stop-opacity="0"/>
</linearGradient>
<linearGradient id="paint2_linear_932_4916" x1="0" y1="486" x2="-1.66801e-10" y2="0" gradientUnits="userSpaceOnUse">
<stop stop-color="#B4703E"/>
<stop offset="0.479167" stop-color="#BC9163"/>
<stop offset="1" stop-color="#C6B38A" stop-opacity="0"/>
</linearGradient>
<radialGradient id="paint3_radial_932_4916" cx="0" cy="0" r="1" gradientUnits="userSpaceOnUse" gradientTransform="translate(46.691 838.572) rotate(-103.631) scale(145.109 62.9733)">
<stop stop-color="#C6B38A"/>
<stop offset="0.463601" stop-color="#F3C691"/>
<stop offset="1" stop-color="#B4703E"/>
</radialGradient>
<radialGradient id="paint4_radial_932_4916" cx="0" cy="0" r="1" gradientUnits="userSpaceOnUse" gradientTransform="translate(42.08 734.221) rotate(155.477) scale(7.62287 5.45441)">
<stop stop-color="#C6B38A"/>
<stop offset="0.463601" stop-color="#F3C691"/>
<stop offset="1" stop-color="#B4703E"/>
</radialGradient>
<linearGradient id="paint5_linear_932_4916" x1="10.7416" y1="1352" x2="10.7416" y2="966" gradientUnits="userSpaceOnUse">
<stop stop-color="#BC9163" stop-opacity="0"/>
<stop offset="1" stop-color="#BC9163"/>
</linearGradient>
<radialGradient id="paint6_radial_932_4916" cx="0" cy="0" r="1" gradientUnits="userSpaceOnUse" gradientTransform="translate(25.0634 1119.22) rotate(155.477) scale(7.62287 5.45441)">
<stop stop-color="#C6B38A"/>
<stop offset="0.463601" stop-color="#F3C691"/>
<stop offset="1" stop-color="#B4703E"/>
</radialGradient>
<linearGradient id="paint7_linear_932_4916" x1="10.7416" y1="1352" x2="10.7416" y2="966" gradientUnits="userSpaceOnUse">
<stop stop-color="#BC9163" stop-opacity="0"/>
<stop offset="1" stop-color="#BC9163"/>
</linearGradient>
</defs>
</svg>
