<svg width="24" height="1060" viewBox="0 0 24 1060" fill="none" xmlns="http://www.w3.org/2000/svg">
<rect width="3" height="244" transform="matrix(1 0 0 -1 1 244)" fill="url(#paint0_linear_932_4917)"/>
<rect width="2.99998" height="269" transform="matrix(-1 -8.74228e-08 -8.74228e-08 1 4 791)" fill="url(#paint1_linear_932_4917)"/>
<rect width="3" height="547" transform="matrix(1 0 0 -1 1 791)" fill="#41352B"/>
<path d="M2.49954 476L2.49969 600C2.49961 574.384 -0.737337 470.95 8.99991 445.651C16.1729 427.013 19.4999 428.154 19.4999 402.538V338.861C19.4999 312.965 15.4693 314.031 8.99991 294.811C2.49986 275.5 2.49992 270.673 2.49986 244.777V214" stroke="url(#paint2_linear_932_4917)" stroke-width="2.8"/>
<path d="M2.49954 792L2.49969 916C2.49961 890.384 -0.737337 786.95 8.99991 761.651C16.1729 743.013 19.4999 744.154 19.4999 718.538V654.861C19.4999 628.965 15.4693 630.031 8.99991 610.811C2.49986 591.5 2.49992 586.673 2.49986 560.777V530" stroke="url(#paint3_linear_932_4917)" stroke-width="2.8"/>
<path d="M19.5 366C21.433 366 23 367.567 23 369.5C23 371.433 21.433 373 19.5 373C17.567 373 16 371.433 16 369.5C16 367.567 17.567 366 19.5 366Z" stroke="url(#paint4_radial_932_4917)" stroke-width="2"/>
<path d="M19.5 682C21.433 682 23 683.567 23 685.5C23 687.433 21.433 689 19.5 689C17.567 689 16 687.433 16 685.5C16 683.567 17.567 682 19.5 682Z" stroke="url(#paint5_radial_932_4917)" stroke-width="2"/>
<defs>
<linearGradient id="paint0_linear_932_4917" x1="1.5" y1="0" x2="1.5" y2="244" gradientUnits="userSpaceOnUse">
<stop stop-color="#41352B"/>
<stop offset="0.520833" stop-color="#7D5435" stop-opacity="0.479167"/>
<stop offset="1" stop-color="#B4703E" stop-opacity="0"/>
</linearGradient>
<linearGradient id="paint1_linear_932_4917" x1="1.49999" y1="0" x2="1.49999" y2="269" gradientUnits="userSpaceOnUse">
<stop stop-color="#41352B"/>
<stop offset="0.520833" stop-color="#7D5435" stop-opacity="0.479167"/>
<stop offset="1" stop-color="#B4703E" stop-opacity="0"/>
</linearGradient>
<linearGradient id="paint2_linear_932_4917" x1="10.7416" y1="600" x2="10.7416" y2="214" gradientUnits="userSpaceOnUse">
<stop offset="0.67382" stop-color="#41352B"/>
<stop offset="0.755507" stop-color="#41352B"/>
<stop offset="1" stop-color="#41352B" stop-opacity="0"/>
</linearGradient>
<linearGradient id="paint3_linear_932_4917" x1="10.7416" y1="916" x2="10.7416" y2="530" gradientUnits="userSpaceOnUse">
<stop offset="0.67382" stop-color="#41352B"/>
<stop offset="0.755507" stop-color="#41352B"/>
<stop offset="1" stop-color="#41352B" stop-opacity="0"/>
</linearGradient>
<radialGradient id="paint4_radial_932_4917" cx="0" cy="0" r="1" gradientUnits="userSpaceOnUse" gradientTransform="translate(25.0634 367.221) rotate(155.477) scale(7.62287 5.45441)">
<stop stop-color="#C6B38A"/>
<stop offset="0.463601" stop-color="#F3C691"/>
<stop offset="1" stop-color="#B4703E"/>
</radialGradient>
<radialGradient id="paint5_radial_932_4917" cx="0" cy="0" r="1" gradientUnits="userSpaceOnUse" gradientTransform="translate(25.0634 683.221) rotate(155.477) scale(7.62287 5.45441)">
<stop stop-color="#C6B38A"/>
<stop offset="0.463601" stop-color="#F3C691"/>
<stop offset="1" stop-color="#B4703E"/>
</radialGradient>
</defs>
</svg>
