<svg width="24" height="1365" viewBox="0 0 24 1365" fill="none" xmlns="http://www.w3.org/2000/svg">
<rect width="3" height="245" transform="matrix(1 0 0 -1 1 245)" fill="url(#paint0_linear_932_4918)"/>
<rect width="2.99995" height="573" transform="matrix(-1 -8.74228e-08 -8.74228e-08 1 4 792)" fill="url(#paint1_linear_932_4918)"/>
<rect width="3" height="547" transform="matrix(1 0 0 -1 1 792)" fill="#41352B"/>
<path d="M2.49954 477L2.49969 601C2.49961 575.384 -0.737337 471.95 8.99991 446.651C16.1729 428.013 19.4999 429.154 19.4999 403.538V339.861C19.4999 313.965 15.4693 315.031 8.99991 295.811C2.49986 276.5 2.49992 271.673 2.49986 245.777V215" stroke="url(#paint2_linear_932_4918)" stroke-width="2.8"/>
<path d="M2.49954 793L2.49969 917C2.49961 891.384 -0.737337 787.95 8.99991 762.651C16.1729 744.013 19.4999 745.154 19.4999 719.538V655.861C19.4999 629.965 15.4693 631.031 8.99991 611.811C2.49986 592.5 2.49992 587.673 2.49986 561.777V531" stroke="url(#paint3_linear_932_4918)" stroke-width="2.8"/>
<path d="M19.5 367C21.433 367 23 368.567 23 370.5C23 372.433 21.433 374 19.5 374C17.567 374 16 372.433 16 370.5C16 368.567 17.567 367 19.5 367Z" stroke="url(#paint4_radial_932_4918)" stroke-width="2"/>
<path d="M19.5 683C21.433 683 23 684.567 23 686.5C23 688.433 21.433 690 19.5 690C17.567 690 16 688.433 16 686.5C16 684.567 17.567 683 19.5 683Z" stroke="url(#paint5_radial_932_4918)" stroke-width="2"/>
<defs>
<linearGradient id="paint0_linear_932_4918" x1="1.5" y1="0" x2="1.5" y2="245" gradientUnits="userSpaceOnUse">
<stop stop-color="#41352B"/>
<stop offset="0.520833" stop-color="#7D5435" stop-opacity="0.479167"/>
<stop offset="1" stop-color="#B4703E" stop-opacity="0"/>
</linearGradient>
<linearGradient id="paint1_linear_932_4918" x1="1.49997" y1="0" x2="1.49997" y2="573" gradientUnits="userSpaceOnUse">
<stop stop-color="#41352B"/>
<stop offset="0.520833" stop-color="#7D5435" stop-opacity="0.479167"/>
<stop offset="1" stop-color="#B4703E" stop-opacity="0"/>
</linearGradient>
<linearGradient id="paint2_linear_932_4918" x1="10.7416" y1="601" x2="10.7416" y2="215" gradientUnits="userSpaceOnUse">
<stop offset="0.67382" stop-color="#41352B"/>
<stop offset="0.755507" stop-color="#41352B"/>
<stop offset="1" stop-color="#41352B" stop-opacity="0"/>
</linearGradient>
<linearGradient id="paint3_linear_932_4918" x1="10.7416" y1="917" x2="10.7416" y2="531" gradientUnits="userSpaceOnUse">
<stop offset="0.67382" stop-color="#41352B"/>
<stop offset="0.755507" stop-color="#41352B"/>
<stop offset="1" stop-color="#41352B" stop-opacity="0"/>
</linearGradient>
<radialGradient id="paint4_radial_932_4918" cx="0" cy="0" r="1" gradientUnits="userSpaceOnUse" gradientTransform="translate(25.0634 368.221) rotate(155.477) scale(7.62287 5.45441)">
<stop stop-color="#C6B38A"/>
<stop offset="0.463601" stop-color="#F3C691"/>
<stop offset="1" stop-color="#B4703E"/>
</radialGradient>
<radialGradient id="paint5_radial_932_4918" cx="0" cy="0" r="1" gradientUnits="userSpaceOnUse" gradientTransform="translate(25.0634 684.221) rotate(155.477) scale(7.62287 5.45441)">
<stop stop-color="#C6B38A"/>
<stop offset="0.463601" stop-color="#F3C691"/>
<stop offset="1" stop-color="#B4703E"/>
</radialGradient>
</defs>
</svg>
