<svg xmlns="http://www.w3.org/2000/svg" width="80" height="80" fill="none" xmlns:v="https://vecta.io/nano"><path opacity=".5" d="M40 80c-18.856 0-28.284 0-34.142-5.858S0 58.856 0 40 0 11.716 5.858 5.858 21.144 0 40 0s28.284 0 34.142 5.858S80 21.144 80 40s0 28.284-5.858 34.142S58.856 80 40 80z" fill="url(#A)"/><path d="M28.792 21h.416l8.97.32c2.511.338 4.778 1.08 6.6 2.902s2.565 4.089 2.902 6.6c.32 2.379.32 5.376.32 8.97V40a3 3 0 1 1-6 0l-.266-8.378c-.248-1.846-.677-2.636-1.198-3.157s-1.311-.95-3.157-1.198C35.446 27.006 32.856 27 29 27l-8.378.266c-1.846.248-2.636.677-3.157 1.198s-.95 1.311-1.198 3.157C16.006 33.554 16 36.144 16 40l.266 8.378c.248 1.846.677 2.636 1.198 3.157s1.311.95 3.157 1.198c1.932.26 4.522.266 8.378.266a3 3 0 1 1 0 6h-.208c-3.594 0-6.591 0-8.97-.32-2.511-.338-4.778-1.08-6.6-2.902s-2.565-4.089-2.902-6.6c-.32-2.379-.32-5.376-.32-8.97h0v-.416h0l.32-8.97c.338-2.511 1.08-4.778 2.902-6.6s4.089-2.565 6.6-2.902c2.379-.32 5.376-.32 8.97-.32z" fill="url(#B)"/><path d="M59.378 27.266C57.446 27.006 54.856 27 51 27a3 3 0 1 1 0-6h.208l8.97.32c2.511.338 4.778 1.08 6.6 2.902s2.564 4.089 2.902 6.6c.32 2.379.32 5.376.32 8.969h0v.416h0l-.32 8.97c-.338 2.511-1.08 4.778-2.902 6.6s-4.089 2.565-6.6 2.902c-2.379.32-5.376.32-8.97.32h-.416c-3.594 0-6.591 0-8.97-.32-2.511-.338-4.778-1.08-6.6-2.902s-2.565-4.089-2.902-6.6c-.32-2.379-.32-5.376-.32-8.97V40a3 3 0 1 1 6 0l.266 8.378c.248 1.846.677 2.636 1.198 3.157s1.311.95 3.157 1.198c1.932.26 4.522.266 8.378.266l8.378-.266c1.846-.248 2.636-.677 3.157-1.198s.95-1.311 1.198-3.157c.26-1.932.266-4.522.266-8.378l-.266-8.378c-.248-1.846-.677-2.636-1.198-3.157s-1.311-.95-3.157-1.198z" fill="url(#B)"/><defs><radialGradient id="A" cx="0" cy="0" r="1" gradientUnits="userSpaceOnUse" gradientTransform="translate(103.582 66.0441) rotate(-155.477) scale(87.1185 62.3362)"><stop stop-color="#c6b38a"/><stop offset=".464" stop-color="#f3c691"/><stop offset="1" stop-color="#b4703e"/></radialGradient><radialGradient id="B" cx="0" cy="0" r="1" gradientUnits="userSpaceOnUse" gradientTransform="translate(87.6865 52.371) rotate(-163.884) scale(61.8765 31.2665)"><stop stop-color="#c6b38a"/><stop offset=".464" stop-color="#f3c691"/><stop offset="1" stop-color="#b4703e"/></radialGradient></defs></svg>