<svg xmlns="http://www.w3.org/2000/svg" width="34" height="41" fill="none" xmlns:v="https://vecta.io/nano"><path d="M9.26 19.84v-.24c0-.56.08-.92.24-1.08.2-.2.58-.3 1.14-.3h1.38c3.16 0 5.4-.56 6.72-1.68 1.32-1.16 1.98-2.98 1.98-5.46 0-2.64-.68-4.54-2.04-5.7s-3.7-1.74-7.02-1.74c-3.04 0-5.9.42-8.58 1.26-.96.28-1.44-.1-1.44-1.14v-.6c0-.48.08-.82.24-1.02.2-.2.6-.4 1.2-.6C5.36.86 8.22.52 11.66.52c4.32 0 7.46.86 9.42 2.58 2 1.72 3 4.36 3 7.92 0 4.32-1.9 7.24-5.7 8.76 1.96.48 3.5 1.56 4.62 3.24 1.12 1.64 1.68 3.7 1.68 6.18 0 7.56-4.34 11.34-13.02 11.34-3.28 0-6.36-.36-9.24-1.08-.6-.16-1-.32-1.2-.48-.16-.2-.24-.58-.24-1.14v-.48c0-1.12.48-1.52 1.44-1.2 2.52.84 5.6 1.26 9.24 1.26 3.48 0 5.96-.64 7.44-1.92s2.22-3.38 2.22-6.3c0-5.32-3.1-7.98-9.3-7.98h-1.38c-.56 0-.94-.08-1.14-.24-.16-.2-.24-.58-.24-1.14zm18.878 17.94c-.12-1.08.28-1.84 1.2-2.28s1.84-.44 2.76 0 1.32 1.2 1.2 2.28c0 .72-.26 1.34-.78 1.86-.48.48-1.08.72-1.8.72s-1.34-.24-1.86-.72c-.48-.52-.72-1.14-.72-1.86z" fill="url(#A)"/><defs><radialGradient id="A" cx="0" cy="0" r="1" gradientUnits="userSpaceOnUse" gradientTransform="translate(48.2014 48.0908) rotate(-138.382) scale(50.3601 47.3804)"><stop stop-color="#c6b38a"/><stop offset=".464" stop-color="#f3c691"/><stop offset="1" stop-color="#b4703e"/></radialGradient></defs></svg>