<svg xmlns="http://www.w3.org/2000/svg" width="34" height="41" fill="none" xmlns:v="https://vecta.io/nano"><path d="M23.92 10.18c0 3.76-2.06 7.32-6.18 10.68L6.22 30.4c-1.76 1.52-2.64 2.9-2.64 4.14 0 .88.26 1.5.78 1.86.56.32 1.6.48 3.12.48h15c.56 0 .94.1 1.14.3s.3.58.3 1.14v.24c0 .56-.1.94-.3 1.14s-.58.3-1.14.3H7.36c-2.48 0-4.28-.42-5.4-1.26S.28 36.6.28 34.84c0-2.52 1.3-4.84 3.9-6.96l11.16-9.06c2-1.64 3.38-3.06 4.14-4.26.76-1.24 1.14-2.6 1.14-4.08 0-2.36-.72-4.08-2.16-5.16-1.44-1.12-3.76-1.68-6.96-1.68-3.48 0-6.44.52-8.88 1.56-.92.44-1.38.08-1.38-1.08v-.54c0-.52.08-.88.24-1.08.2-.2.58-.4 1.14-.6A29.2 29.2 0 0 1 11.56.52c8.24 0 12.36 3.22 12.36 9.66zm3.804 27.6c-.12-1.08.28-1.84 1.2-2.28s1.84-.44 2.76 0 1.32 1.2 1.2 2.28c0 .72-.26 1.34-.78 1.86-.48.48-1.08.72-1.8.72s-1.34-.24-1.86-.72c-.48-.52-.72-1.14-.72-1.86z" fill="url(#A)"/><defs><radialGradient id="A" cx="0" cy="0" r="1" gradientUnits="userSpaceOnUse" gradientTransform="translate(48.4962 48.0908) rotate(-139.119) scale(51.105 47.9185)"><stop stop-color="#c6b38a"/><stop offset=".464" stop-color="#f3c691"/><stop offset="1" stop-color="#b4703e"/></radialGradient></defs></svg>