<svg xmlns="http://www.w3.org/2000/svg" width="82" height="80" fill="none" xmlns:v="https://vecta.io/nano"><path d="M11.285 29.714c0-1.57 1.263-2.843 2.821-2.843h15.046c1.558 0 2.821 1.273 2.821 2.843s-1.263 2.843-2.821 2.843H14.106c-1.558 0-2.821-1.273-2.821-2.843z" fill="url(#A)"/><path fill-rule="evenodd" d="M74.881 31.234l-.782-.015h-.068-10.754c-8.864 0-16.449 6.775-16.449 15.61s7.585 15.61 16.449 15.61H74.03h.068c.274 0 .539 0 .782-.015 3.6-.221 6.785-2.957 7.052-6.778.018-.251.017-.521.017-.771v-.068-15.957-.068c0-.25 0-.52-.017-.771-.268-3.821-3.452-6.557-7.052-6.778zM62.323 50.992c2.282 0 4.132-1.864 4.132-4.163s-1.85-4.163-4.132-4.163-4.132 1.864-4.132 4.163 1.85 4.163 4.132 4.163z" fill="url(#B)"/><path opacity=".5" d="M74.69 31.225c0-4.607-.167-9.55-3.113-13.093-.284-.342-.587-.674-.909-.996-2.92-2.92-6.624-4.217-11.199-4.832-4.446-.598-10.126-.598-17.298-.598h-8.245c-7.172 0-12.852 0-17.298.598-4.575.615-8.279 1.911-11.199 4.832S1.213 23.76.598 28.336C0 32.781 0 38.462 0 45.633v.44c0 7.172 0 12.852.598 17.298.615 4.575 1.911 8.279 4.832 11.199s6.624 4.216 11.199 4.832C21.074 80 26.754 80 33.926 80h8.245c7.172 0 12.852 0 17.298-.598 4.575-.615 8.279-1.911 11.199-4.832a14.53 14.53 0 0 0 2.052-2.576c1.758-2.808 1.97-6.249 1.97-9.561-.188.006-.386.006-.59.006H63.278c-8.864 0-16.448-6.775-16.448-15.61s7.584-15.61 16.448-15.61H74.1l.59.006z" fill="url(#C)"/><path d="M31.613 2.233l-8.201 5.543-6.764 4.526c4.442-.595 10.116-.595 17.276-.595h8.245c7.172 0 12.852 0 17.298.598.894.12 1.755.267 2.584.446l-7.419-4.946-8.244-5.572c-4.404-2.977-10.371-2.977-14.775 0z" fill="url(#D)"/><defs><radialGradient id="A" cx="0" cy="0" r="1" gradientUnits="userSpaceOnUse" gradientTransform="translate(38.071 31.5655) rotate(-172.852) scale(20.6568 4.83234)"><stop stop-color="#c6b38a"/><stop offset=".464" stop-color="#f3c691"/><stop offset="1" stop-color="#b4703e"/></radialGradient><radialGradient id="B" cx="0" cy="0" r="1" gradientUnits="userSpaceOnUse" gradientTransform="translate(92.3031 56.9928) rotate(-157.926) scale(37.5493 24.7784)"><stop stop-color="#c6b38a"/><stop offset=".464" stop-color="#f3c691"/><stop offset="1" stop-color="#b4703e"/></radialGradient><radialGradient id="C" cx="0" cy="0" r="1" gradientUnits="userSpaceOnUse" gradientTransform="translate(96.7071 68.0864) rotate(-157.357) scale(80.1794 53.9817)"><stop stop-color="#c6b38a"/><stop offset=".464" stop-color="#f3c691"/><stop offset="1" stop-color="#b4703e"/></radialGradient><radialGradient id="D" cx="0" cy="0" r="1" gradientUnits="userSpaceOnUse" gradientTransform="translate(75.4341 10.5264) rotate(-172.699) scale(45.3499 10.8319)"><stop stop-color="#c6b38a"/><stop offset=".464" stop-color="#f3c691"/><stop offset="1" stop-color="#b4703e"/></radialGradient></defs></svg>