<svg width="440" height="350" viewBox="0 0 440 350" fill="none" xmlns="http://www.w3.org/2000/svg">
<g opacity="0.2" filter="url(#filter0_f_1005_5550)">
<circle cx="457.14" cy="231.647" r="337.647" fill="url(#paint0_radial_1005_5550)"/>
</g>
<g opacity="0.15">
<path d="M27.9787 134.346L42.4863 160.666L91.7757 158.788L127.543 142.145L140.516 140.984L146.375 114.488L219.088 56.0411L220.7 54.2947C220.789 54.1931 220.907 54.1263 221.035 54.1057C221.163 54.0851 221.293 54.112 221.403 54.1818L221.815 53.8336L244.511 40.3327L244.903 39.5379L245.02 39.7461L264.485 15.7031L264.689 15.7346L332.112 -2.34678L332.141 -2.53241L332.898 -2.41526L333.8 -2.65586L365.426 -27.2255L409.485 -3.58765L447.774 78.5567L448.891 80.9786L502.897 158.3L571.743 181.337L613.508 207.851L681.912 212.921L701.204 270.394C701.208 270.457 701.198 270.521 701.175 270.58L708.614 344.91L708.585 345.096L695.201 372.234L680.493 336.22L691.229 318.873L686.941 252.126L661.953 226.085L635.808 233.35L649.718 282.229L644.506 347.538L678.244 387.003L678.447 386.654L678.356 387.242L678.838 387.792L682.2 426.01L679.055 444.025L707.263 484.155L702.66 505.618L702.626 505.835L711.007 544.387L685.646 539.259L664.218 539.936L667.09 514.625L677.61 485.175L652.665 432.054L652.636 432.24L652.294 431.173L613.869 391.743L605.957 411.27L615.354 459.641L622.836 475.276L610.215 504.623L619.467 526.36L602.445 529.398L601.746 529.29L575.701 524.152L580.832 509.106L597.482 486.686L586.048 443.195L581.144 415.129L539.364 391.02L522.127 372.514L521.894 372.478L521.719 372.451L513.253 348.522L486.378 357.036L463.49 344.213L457.284 351.553L422.071 346.106L419.786 346.418L397.365 359.106L384.652 350.486L384.935 337.288L384.789 337.266L384.818 337.08L380.069 333.653L379.789 334.306L379.579 333.735L370.923 341.108L372.075 366.63L368.587 400.938L381.48 425.551L365.877 443.128L367.429 462.787L336.844 463.473L336.669 463.446L336.523 463.423L327.232 457.361L335.924 443.974L337.788 387.968L325.403 335.587L281.891 286.627L258.628 255.213L250.207 254.703L250.179 254.888L249.8 254.83L247.506 260.019L247.914 260.082L247.41 260.447L252.047 284.259L238.435 304.582L199.157 306.521L188.537 291.89L190.134 285.04L165.275 233.675L165.138 233.401L139.455 231.899L139.193 231.858L129.806 217.734L133.093 188.781L103.821 177.505L54.2587 178.644L33.837 171.082L32.9684 171.106C32.8272 171.105 32.6917 171.052 32.5864 170.954C32.4812 170.856 32.4131 170.721 32.3947 170.573L32.2199 170.546L27.9787 134.346ZM76.826 168.481L89.1389 160.217L37.0791 169.017L76.826 168.481ZM164.585 231.193L149.638 199.038L140.328 229.721L164.585 231.193ZM364.887 445.097L364.717 443.107L364.887 445.097ZM363.516 443.934L338.717 461.197L366.007 460.603L363.516 443.934ZM364.685 441.391L367.314 400.297L353.161 367.252L364.321 441.429L364.685 441.391ZM352.306 369.306L337.732 440.959L363.137 441.373L352.306 369.306ZM352.739 363.227L369.18 340.426L329.173 335.315L352.739 363.227ZM369.512 339.242L367.525 301.775L327.588 333.612L327.894 333.945L369.512 339.242ZM408.489 262.335L368.702 301.102L368.664 301.349L379.834 330.353L408.489 262.335ZM385.619 348.672L417.036 344.725L386.292 336.801L385.914 336.743L385.619 348.672ZM598.017 487.656L577.982 521.939L608.641 504.189L598.017 487.656ZM601.603 527.905L608.703 505.529L578.043 523.279L601.603 527.905ZM614.055 460.137L583.641 418.462L609.364 501.64L614.055 460.137ZM702.003 507.164L682.378 527.032L709.766 542.769L702.003 507.164ZM681.876 525.846L701.317 506.203L679.157 486.935L681.876 525.846ZM701.114 504.429L679.344 447.364L679.09 485.055L701.114 504.429ZM635.281 232.128L660.199 225.275L614.9 209.65L635.281 232.128ZM688.076 251.541L698.794 266.885L681.091 214.378L663.009 225.424L688.076 251.541ZM572.299 182.943L572.125 182.916L471.202 197.78L610.979 207.428L572.299 182.943ZM265.104 16.9076L246.495 39.6575L307.883 27.232L265.104 16.9076ZM134.229 187.024L190.092 195.666L130.932 165.732L134.229 187.024ZM409.609 259.911L312.545 288.581L367.929 300.317L409.609 259.911ZM600.543 382.269L621.928 359.695L527.381 371.901L600.543 382.269ZM638.374 384.478L676.305 387.78L624.686 360.185L638.374 384.478ZM446.239 79.808L406.791 81.8789L446.007 109.646L446.705 80.2604L446.239 79.808ZM335.488 19.4007L311.242 27.6882L346.326 36.2836L335.488 19.4007ZM257.45 61.1836L307.716 28.505L245.881 41.1149L257.45 61.1836ZM194.18 212.423L230.715 198.339L194.4 197.314L194.18 212.423ZM175.8 170.456L232.215 196.543L195.899 138.464L175.8 170.456ZM194.869 137.988L143.275 142.044L174.838 169.736L194.869 137.988ZM176.876 172.174L194.198 196.111L194.49 196.156L230.921 197.198L176.876 172.174ZM174.725 171.24L133.679 165.713L192.008 195.043L174.725 171.24ZM173.106 169.754L142.117 142.784L131.045 164.229L173.106 169.754ZM195.663 136.717L207.996 110.968L144.839 140.607L195.663 136.717ZM196.992 136.605L197.138 136.628L196.698 137.352L232.225 194.169L209.239 111.414L196.992 136.605ZM233.717 195.318L246.044 134.912L210.389 111.117L233.717 195.318ZM293.72 170.26L248.731 136.816L269.298 166.577L293.72 170.26ZM411.934 257.799L413.908 257.186L413.559 257.512L454.036 251.102L401.445 238.468L316.062 286.084L409.81 258.421L409.848 258.173L411.934 257.799ZM482.605 285.807L427.078 300.248L458.413 323.628L482.605 285.807ZM531.093 254.216L530.845 253.892L531.165 253.942L524.055 228.765L486.199 282.815L531.093 254.216ZM484.54 285.251L465.101 339.584L529.39 256.74L484.54 285.251ZM623.209 357.2L627.595 314.003L578.845 329.555L623.055 357.62L623.209 357.2ZM577.761 328.659L625.978 313.277L564.459 298.787L577.761 328.659ZM564.055 296.19L580.854 277.627L568.237 252.77L564.055 296.19ZM567.191 251.436L533.045 254.898L562.876 296.293L567.191 251.436ZM567.601 250.138L609.252 212.23L534.872 253.501L567.601 250.138ZM459.853 162.602L459.649 162.571L401.895 172.327L464.708 197.345L459.853 162.602ZM402.039 237.324L455.776 250.262L400.328 174.936L402.039 237.324ZM399.286 171.258L411.915 133.771L339.695 152.599L399.286 171.258ZM409.153 133.122L337.981 127.624L338.086 151.621L409.153 133.122ZM322.459 49.0648L317.555 72.8579L346.482 38.747L322.459 49.0648ZM321.347 48.7344L311.872 31.7139L316.664 71.2944L321.347 48.7344ZM316.877 75.509L289.617 121.979L368.054 75.8863L317.449 75.2807L316.877 75.509ZM336.884 152.069L336.776 129.053L298.624 169.403L335.749 152.654L335.225 152.573L336.884 152.069ZM367.131 77.8027L290.362 122.95L337.313 125.968L367.131 77.8027ZM335.964 128.135L336.326 127.526L331.934 127.195L333.583 126.943L288.797 124.007L296.291 170.024L335.964 128.135ZM370.286 75.9148L369.302 76.4913L339.32 124.948L403.719 81.6887L370.286 75.9148ZM403.328 80.3611L379.198 58.7926L371.085 74.993L403.328 80.3611ZM296.532 171.55L286.345 204.822L334.889 154.358L296.532 171.55ZM287.686 124.437C287.686 124.437 287.541 124.414 287.453 124.401C287.324 124.424 287.191 124.404 287.075 124.342L248.392 134.768L295.033 169.671L287.686 124.437ZM287.756 122.832L314.246 77.6682L249.122 133.329L287.756 122.832ZM310.362 29.136L258.423 116.773L315.9 74.6926L310.362 29.136ZM322.141 47.8434L345.854 37.7945L311.789 29.3568L322.141 47.8434ZM347.976 38.7248L318.116 73.8632L377.496 57.4523L348.243 38.7344L347.976 38.7248ZM321.804 74.1171L369.08 74.6511L369.837 74.7683L377.945 58.5988L321.804 74.1171ZM380.22 57.9686L405.289 80.601L409.78 43.2803L380.229 57.7166L380.491 57.7572L380.22 57.9686ZM339.866 126.046L445.032 110.161L405.306 82.0294L339.866 126.046ZM342.726 126.837L412.625 132.265L443.891 111.758L342.726 126.837ZM400.48 171.253L458.657 161.467L413.23 133.752L400.48 171.253ZM400.222 172.923L456.901 249.739L464.789 198.752L400.222 172.923ZM457.714 251.037L482.939 283.261L465.401 201.349L457.714 251.037ZM484.143 283.384L523.509 227.477L466.28 199.331L484.143 283.384ZM534.5 252.05L534.2 252.447L611.561 209.451L525.019 227.742L532.271 253.542L534.5 252.05ZM482.559 284.564L457.669 252.678L457.353 252.217L427.192 298.935L482.559 284.564ZM400.884 237.462L399.098 173.827L313.389 286.209L400.884 237.462ZM338.168 153.408L346.458 215.484L398.328 172.25L338.168 153.408ZM337.057 153.838L286.692 206.238L345.319 215.909L337.057 153.838ZM284.799 205.945L295.213 171.98C295.097 171.907 295 171.805 294.931 171.683L270.029 167.831L284.727 206.029L284.799 205.945ZM247.304 136.596L247.772 209.531L268.416 167.074L247.304 136.596ZM304.178 84.7274L256.934 119.267L256.542 119.872L249.225 131.697L304.178 84.7274ZM256.329 117.97L308.838 29.1538L257.859 62.1974L256.329 117.97ZM348.133 37.1334L405.458 -1.07437L336.734 19.055L348.133 37.1334ZM349.444 37.7164L409.927 41.7508L408.514 -1.55198L349.444 37.7164ZM350.85 39.0426L379.068 57.1252L408.119 42.8334L350.85 39.0426ZM410.97 43.6862L406.555 80.5118L445.129 78.496L410.97 43.6862ZM446.515 111.372L414.232 132.672L499.872 157.42L446.515 111.372ZM417.042 134.754L460.437 161.14L498.884 158.408L417.042 134.754ZM465.985 197.574L569.755 182.233L460.921 162.831L465.985 197.574ZM524.512 226.587L608.924 208.758L468.584 199.085L524.512 226.587ZM568.471 250.874L581.37 276.218L611.643 211.427L568.471 250.874ZM564.237 297.517L625.3 311.874L581.695 278.549L564.237 297.517ZM623.138 360.167L614.423 390.087L636.826 384.46L623.138 360.167ZM621.489 358.296L577.342 330.21L525.064 370.877L621.489 358.296ZM562.965 299.189L515.582 345.999L576.5 329.098L562.965 299.189ZM531.925 255.39L465.182 341.371L562.399 297.644L531.925 255.39ZM481.603 289.39L459.129 324.594L463.289 341.078L481.603 289.39ZM456.687 323.995L425.691 300.731L386.809 335.582L456.687 323.995ZM389.164 336.358L419.063 344.152L454.73 325.656L389.164 336.358ZM455.892 252.023L411.985 259.011L411.641 259.306L411.565 259.801L425.891 298.671L455.892 252.023ZM395.87 175.798L346.689 216.882L346.632 217.253L346.312 217.203L312.935 284.903L395.87 175.798ZM284.913 207.135L253.536 211.785L335.569 215.51L284.913 207.135ZM283.368 206.136L269.035 168.469L248.226 211.217L283.368 206.136ZM246.036 140.169L234.463 196.859L234.816 196.692L234.362 197.699L246.488 210.504L246.036 140.169ZM233.948 199.029L233.9 199.338L233.681 199.019L214.223 240.361L246.011 212.236C245.993 212.164 245.989 212.088 246.001 212.013C246.012 211.938 246.038 211.867 246.078 211.803L233.948 199.029ZM193.877 213.612L187.003 241.852L212.763 240.737L232.448 198.892L193.877 213.612ZM187.772 243.048L217.948 277.97L212.815 242.139L187.772 243.048ZM185.848 241.61L192.462 214.47L166.751 231.845L185.848 241.61ZM192.808 212.813L193.019 198.336L168.211 229.346L192.808 212.813ZM192.231 197.264L150.135 197.943L165.608 230.749L192.231 197.264ZM140.341 142.699L81.3919 168.269L129.769 164L140.341 142.699ZM208.91 109.304L219.827 56.8524L144.662 139.44L208.91 109.304ZM246.546 133.785L255.091 119.996L212.407 110.985L246.546 133.785ZM255.127 118.798L256.654 63.4365L210.632 109.349L255.127 118.798ZM256.52 61.9901L244.966 42.0188L211.646 106.654L256.52 61.9901ZM334.816 18.5366L335.078 18.5771L332.517 0.820439L312.312 26.3648L334.816 18.5366ZM333.552 -0.666745L336.237 18.0277L406.663 -2.69372L334.21 -1.45194L333.552 -0.666745ZM411.005 42.1077L446.468 78.323L409.709 -0.796822L411.005 42.1077ZM448.14 81.5911L447.833 81.2586L447.158 110.299L448.154 110.992L447.98 110.965L499.372 155.252L448.14 81.5911ZM464.011 162.136L563.388 179.823L502.424 159.43L464.011 162.136ZM679.658 213.998L618.068 209.412L662.173 224.661L679.658 213.998ZM613.722 210.133L583.043 275.811L634.428 232.819L613.722 210.133ZM628.038 312.297L648.351 282.968L583.442 278.439L628.038 312.297ZM648.317 285.117L629.088 313.03L629.564 313.42L629.094 313.569L643.585 345.59L648.317 285.117ZM643.284 348.109L628.53 315.478L624.177 358.459L676.049 386.156L643.284 348.109ZM638.91 385.448L653.169 429.566L677.195 388.773L638.91 385.448ZM653.851 430.749L678.195 443.226L677.388 390.608L653.851 430.749ZM678.256 444.756L654.272 432.461L677.964 482.885L678.256 444.756ZM637.716 385.644L615.096 391.331L651.693 428.894L637.716 385.644ZM621.976 361.318L601.766 382.648L613.594 390.053L621.976 361.318ZM581.68 413.596L599.73 383.283L524.175 372.577L581.326 413.763C581.326 413.763 581.5 413.6 581.68 413.596ZM582.932 413.98L604.948 411.05L600.528 384.484L582.932 413.98ZM522.638 371.136L574.475 330.812L514.358 347.552L522.638 371.136ZM561.374 299.45L465.704 342.433L513.366 346.639L561.374 299.45ZM458.164 325.237L422.096 344.019L462.51 342.256L458.164 325.237ZM425.151 299.792L411.049 261.591L386.709 334.109L425.151 299.792ZM325.755 332.156C325.875 332.077 326.018 332.045 326.157 332.066C326.295 332.088 326.422 332.161 326.512 332.274L326.936 332.814L366.814 300.968L311.348 289.378L325.755 332.156ZM310.364 287.642L344.818 217.796L260.158 253.803L310.364 287.642ZM343.342 217.124L247.992 212.733L259.22 252.929L343.342 217.124ZM246.194 213.754L215.622 240.957L248.771 252.231L246.194 213.754ZM219.246 278.836L245.661 259.416L214.096 242.337L219.246 278.836ZM250.41 283.657L220.269 280.515L238.08 302.057L250.41 283.657ZM218.74 280.564L218.401 280.828L218.458 280.457L194.581 284.049L236.425 301.579L218.74 280.564ZM217.65 279.318L187.352 243.838L191.361 282.696L192.425 283.146L217.65 279.318ZM185.971 242.738L166.923 233.043L189.857 280.657L185.971 242.738ZM148.892 197.497L134.485 188.838L139.935 227.063L148.892 197.497ZM149.749 196.584L186.502 195.934L136.697 188.229L149.749 196.584ZM129.854 165.185L105.478 176.05L132.947 186.636L129.854 165.185ZM126.491 165.33L81.8309 169.287L103.957 175.276L126.491 165.33ZM42.3532 161.913L34.792 168.378L82.5977 160.282L42.3532 161.913ZM33.0836 168.241L41.3908 161.194L29.7284 140.192L33.0836 168.241ZM92.1999 159.709L81.3212 166.991L138.826 142.275L127.972 143.225L92.1999 159.709ZM147.419 115.061L141.734 140.824L213.946 61.5182L147.419 115.061ZM222.37 54.6798L221.149 55.6314L210.731 105.626L243.404 42.0939L222.37 54.6798ZM267.398 16.1536L310.526 26.5321L332.44 -1.1873L267.398 16.1536ZM335.605 -2.75678L406.825 -3.93579L365.53 -26.1639L335.605 -2.75678ZM700.721 278.144L695.779 367.92L707.206 344.756L700.721 278.144ZM681.77 336.259L694.736 368.107L699.467 279.693L692.364 318.859L681.77 336.259ZM692.092 314.064L699.933 270.704L688.115 253.797L692.092 314.064ZM634.668 233.775L583.09 277.244L648.3 281.756L634.668 233.775ZM678.558 395.573L679.285 438.105L681.346 426.132L678.558 395.573ZM706.249 484.536L680.924 448.527L702.185 503.866L706.249 484.536ZM685.984 538.425L706.893 542.641L681.366 527.985L680.77 528.558L680.799 528.372L667.001 538.909L685.969 538.327L685.984 538.425ZM668.46 515.217L665.865 538.353L680.805 526.789L678.073 488.351L668.46 515.217ZM613.072 391.303L601.493 384.031L605.701 409.456L613.072 391.303ZM605.003 412.231L582.755 415.125L613.646 457.571L605.003 412.231ZM621.628 475.374L615.063 462.098L610.682 500.83L621.628 475.374ZM609.972 506.961L609.886 507.518L609.607 506.619L602.787 528.152L618.053 525.476L609.972 506.961ZM578.794 518.421L592.177 495.528L581.822 509.449L578.794 518.421ZM587.192 442.929L598.607 486.353L607.809 500.702L583.513 421.99L587.192 442.929ZM539.998 390.01L571.536 408.226L526.841 375.968L539.998 390.01ZM510.354 347.408L465.954 343.708L486.35 355.099L510.354 347.408ZM461.848 343.452L427.281 345.011L456.727 349.566L461.848 343.452ZM416.52 345.944L386.771 349.705L397.297 356.846L416.52 345.944ZM385.118 334.75L408.24 266.256L380.497 331.66L385.118 334.75ZM368.885 304.741L370.675 338.472L378.982 331.425L368.885 304.741ZM369.657 341.387L353.217 364.188L367.497 397.57L370.753 365.538L369.657 341.387ZM379.934 424.172L368.278 401.967L365.803 440.328L379.934 424.172ZM328.738 455.725L336.673 460.912L363.41 442.302L337.142 441.882L336.979 442.934L336.951 443.119L328.738 455.725ZM338.794 386.477L337.123 437.571L351.74 365.638L351.602 364.793C351.584 364.643 351.618 364.49 351.698 364.362C351.778 364.235 351.899 364.142 352.038 364.1L327.324 334.933L326.537 334.812L338.794 386.477ZM282.658 284.559L324.288 331.423L309.969 289.038C309.881 289.031 309.796 288.997 309.726 288.942C309.655 288.886 309.601 288.81 309.57 288.723C309.548 288.651 309.542 288.574 309.553 288.498C309.565 288.423 309.594 288.351 309.637 288.29L261.483 255.845L282.658 284.559ZM258.006 252.678L247.35 214.566L249.998 252.199L258.006 252.678ZM248.627 253.159L217.417 242.85L246.547 258.508L248.627 253.159ZM220.333 279.131L250.626 282.265L246.312 260.024L220.333 279.131ZM199.623 304.09L235.364 302.65L192.093 284.52L191.205 284.668L189.782 290.783L199.623 304.09ZM138.898 228.169L133.716 191.886L130.949 216.327L138.898 228.169ZM54.283 176.367L99.5857 175.582L77.8283 169.714L77.2167 169.619C77.1073 169.677 76.9843 169.698 76.8643 169.68C76.7445 169.661 76.6335 169.604 76.5468 169.515L37.2462 170.057L54.283 176.367Z" fill="url(#paint1_radial_1005_5550)"/>
</g>
<g style="mix-blend-mode:overlay">
<path d="M20.6924 110.277L42.3437 157.122L75.4075 158.34L99.3068 153.833L139.002 138.019L146.132 114.096L192.756 45.7841L192.988 45.4398L202.85 48.3911L205.842 40.6172L221.445 52.9151L243.998 29.1595L243.58 28.7781L244.424 28.7186L247.044 26.4312L317.785 -1.14761L364.703 -27.2164L365.29 -27.5375C365.449 -27.5764 365.616 -27.5507 365.756 -27.4654L415.804 -30.5891L446.896 73.5995L510.405 108.768L511.881 109.25L456.946 134.902L460.699 155.947C460.699 155.947 460.699 155.947 460.675 156.102L456.867 210.984L477.288 229.729L556.786 230.37L556.343 229.953L557.013 230.056L532.966 192.724C532.962 192.651 532.973 192.577 532.999 192.508C533.119 192.483 533.242 192.502 533.349 192.562V192.562L547.95 194.567L535.756 147.506L479.334 152.114L475.036 139.031C474.99 138.879 474.998 138.713 475.06 138.565C475.121 138.417 475.231 138.297 475.369 138.227C475.514 138.175 475.67 138.181 475.809 138.244C475.948 138.306 476.059 138.42 476.122 138.565L480.329 149.924L536.387 145.354L536.679 145.399L549.132 193.483L561.893 195.235L601.751 200.926L546.983 153.392L556.069 140.542C556.165 140.411 556.304 140.322 556.458 140.293C556.611 140.264 556.769 140.297 556.898 140.385C557.021 140.485 557.101 140.632 557.12 140.795C557.14 140.958 557.097 141.124 557.002 141.257L548.57 153.163L603.819 201.246L604.081 201.286C604.169 201.185 604.287 201.118 604.416 201.097C604.544 201.077 604.674 201.104 604.784 201.173L605.659 201.689L624.998 206.803L625.26 206.844L627.794 207.236L675.069 198.519L675.51 198.366L697.895 243.36L723.191 240.621C723.344 240.606 723.495 240.653 723.613 240.754C723.731 240.855 723.806 241.002 723.823 241.162C723.828 241.244 723.818 241.327 723.793 241.405C723.768 241.483 723.729 241.556 723.677 241.618C723.626 241.681 723.564 241.733 723.494 241.77C723.425 241.808 723.349 241.83 723.271 241.837L698.068 244.559L690.916 322.018C690.921 322.092 690.91 322.166 690.883 322.235L718.415 339.356C718.548 339.44 718.643 339.577 718.68 339.737C718.717 339.897 718.692 340.067 718.611 340.21C718.554 340.31 718.472 340.391 718.374 340.444C718.276 340.496 718.166 340.517 718.058 340.504L717.825 340.468L689.915 323.479L689.74 323.452L689.478 323.411L688.306 322.501L688.015 322.456L688.211 300.755L685.142 258.906L664.111 229.644L638.019 232.514L638.428 233.147C638.489 233.271 638.51 233.413 638.489 233.553C638.467 233.692 638.404 233.821 638.309 233.921L644.514 253.572C644.641 253.66 644.729 253.799 644.76 253.957C644.791 254.116 644.763 254.282 644.68 254.421C644.627 254.524 644.546 254.608 644.447 254.661C644.348 254.713 644.236 254.733 644.128 254.716L643.807 254.666L632.279 271.352L632.212 271.785L640.266 275.248L641.931 289.16C641.945 289.244 641.932 289.331 641.892 289.407L647.001 338.319L701.422 394.257L717.141 394.63C717.218 394.633 717.295 394.653 717.365 394.687C717.435 394.722 717.498 394.772 717.549 394.833C717.601 394.894 717.64 394.965 717.665 395.043C717.69 395.121 717.7 395.203 717.695 395.286C717.68 395.445 717.611 395.595 717.501 395.706C717.39 395.817 717.246 395.883 717.095 395.89L701.74 395.478L682.845 438.966L710.789 489.668L704.025 501.578L720.913 503.842L706.467 513.361L714.555 546.672L677.772 546.367L670.357 542.052L659.093 539.486L675.717 529.576L686.79 499.831L689.487 490.301L685.73 462.728L677.854 442.502L658.631 421.408L666.444 400.979L655.983 378.959C655.961 378.882 655.955 378.8 655.968 378.719C655.98 378.639 656.01 378.562 656.055 378.495L611.087 365.741L583.904 389.351L612.855 427.568L613.103 427.892L594.635 464.761L625.415 473.609L612.89 450.858C612.847 450.796 612.816 450.724 612.798 450.648C612.781 450.572 612.779 450.493 612.791 450.415C612.803 450.338 612.829 450.263 612.868 450.196C612.908 450.128 612.959 450.07 613.019 450.023C613.146 449.926 613.302 449.886 613.455 449.909C613.607 449.933 613.744 450.019 613.835 450.149L627.291 474.596L617.636 486.884L614.872 501.662L615.009 501.937L620.878 530.311L580.721 529.643L572.114 521.088L592.639 490.968L593.436 466.54L593.483 466.23L593.38 465.549L593.159 464.089L577.722 418.712L548.321 405.578C548.176 405.514 548.063 405.391 548.006 405.237C547.949 405.082 547.952 404.909 548.016 404.755C548.079 404.601 548.197 404.479 548.344 404.416C548.491 404.352 548.654 404.353 548.798 404.417L577.719 417.381L581.969 389.907C581.965 389.844 581.975 389.78 581.998 389.721L555.242 388.212C555.192 388.277 555.128 388.329 555.055 388.362C554.982 388.395 554.903 388.408 554.825 388.401L554.592 388.365C554.523 388.368 554.453 388.358 554.388 388.333V388.333C554.264 388.282 554.161 388.188 554.096 388.065C554.031 387.943 554.007 387.8 554.028 387.66C554.05 387.519 554.116 387.39 554.215 387.293C554.315 387.197 554.441 387.138 554.575 387.126L526.205 339.178L525.615 337.978L505.927 321.627L514.371 351.096L514.285 351.653L514.515 352.481L516.25 372.106L530.915 369.844L545.11 383.73C545.221 383.838 545.288 383.987 545.296 384.148C545.305 384.309 545.254 384.468 545.155 384.592C545.093 384.669 545.014 384.728 544.925 384.764C544.836 384.8 544.74 384.812 544.646 384.799C544.527 384.809 544.407 384.79 544.297 384.744L530.491 371.236L515.215 373.593L513.34 352.553L480.673 357.256L464.531 347.283C464.465 347.362 464.384 347.425 464.293 347.468L419.089 364.583L414.74 373.414C414.685 373.525 414.599 373.616 414.494 373.674C414.389 373.732 414.27 373.753 414.154 373.735L413.95 373.704C413.878 373.671 413.814 373.623 413.762 373.563C413.709 373.502 413.669 373.43 413.645 373.352C413.621 373.274 413.612 373.19 413.62 373.108C413.628 373.025 413.652 372.944 413.691 372.872L418.039 364.04L418.078 363.793L418.282 363.824L462.002 346.86L404.411 333.579L404.207 333.547L386.194 329.113L381.829 337.087L369.655 357.949L369.967 358.821L369.56 358.758L371.569 399.746L381.921 424.98L382.096 425.387C382.119 425.535 382.095 425.687 382.029 425.821L382.016 433.041L368.025 444.246L367.771 466.129L330.108 462.837L329.787 462.787L325.859 454.64L326.057 454.322L334.198 440.248L336.706 424.036L333.905 375.64L316.897 328.658C316.807 328.578 316.74 328.474 316.7 328.357C316.661 328.239 316.651 328.113 316.672 327.989L316.336 327.082L254.795 255.089L254.5 255.456L254.547 255.146L250.851 258.027L249.808 267.085L250.041 269.624L251.911 281.634L247.853 297.068L230.799 307.26L230.653 307.237L193.177 305.622L193.021 305.281L186.955 288.978L188.012 279.637L160.771 235.38L134.439 230.166L134.293 229.954C131.536 225.379 129.782 220.196 129.155 214.776C128.889 208.399 130 190.039 130.119 186.762L125.084 185.381C125.084 185.381 125.084 185.381 124.88 185.35L124.705 185.323L108.993 181.055L46.5806 177.736L32.4915 170.107L16.9708 103.682L20.6924 110.277ZM41.5893 158.336L27.0657 126.912L44.2237 167.138L71.6005 159.43L41.5893 158.336ZM99.7897 154.953L75.7351 159.5L46.0838 167.838L59.4139 172.276L76.0495 168.07L118.413 147.538L99.7897 154.953ZM78.2096 168.373L103.953 172.767L110.312 171.375L129.095 143.646L78.2096 168.373ZM112.261 170.726L131.368 162.879L145.403 158.714L131.296 142.91L112.261 170.726ZM146.655 158.528L153.578 160.042L143.698 144.1L132.494 142.683L146.655 158.528ZM139.984 138.995L133.613 141.621L143.437 142.697L143.08 134.595L140.177 138.708L139.984 138.995ZM188.887 138.07L183.842 132.126L165.482 146.709L188.887 138.07ZM170.726 146.158L183.996 142.889L206.465 143.197L197.372 139.129L189.981 138.905L170.726 146.158ZM335.923 438.931L349.215 420.871L349.011 420.839L349.606 420.266L341.226 390.775L338.264 424.182L335.923 438.931ZM350.418 418.681L368.032 359.377L341.583 387.694L350.418 418.681ZM350.735 421.645L349.244 441.499L379.579 425.853L350.875 421.128L350.735 421.645ZM389.476 -2.28545L389.185 -2.33051L361.717 17.1482L381.202 20.1625L389.476 -2.28545ZM382.893 18.8718L399.066 5.12221L390.704 -2.31729L382.893 18.8718ZM267.889 92.9515L266.39 115.941L295.325 108.569L267.889 92.9515ZM294.239 106.532L284.358 95.0241L269.97 92.7983L294.239 106.532ZM284.957 93.8496L297.154 108.123L305.204 105.82L303.972 90.2652L303.937 89.5311L303.984 89.2217L304.047 88.8195L311.933 55.1919L263.452 47.2169L254.665 79.1527L267.729 91.0895L284.957 93.8496ZM377.928 176.85L383.358 178.767L388.622 153.414L391.199 126.347L375.837 161.067L377.248 176.428L378.48 176.365L377.928 176.85ZM381.142 285.818L400.598 286.895L364.098 260.467L355.822 268.469L381.142 285.818ZM357.395 271.025L366.224 283.352C366.314 283.368 366.399 283.405 366.473 283.46C366.547 283.516 366.608 283.588 366.652 283.671L366.988 284.389L367.105 284.597L378.584 285.581L357.395 271.025ZM363.17 259.722L333.044 257.437L354.763 267.798L363.17 259.722ZM365.482 258.654L444.085 235.966L412.313 208.083L401.122 207.746L358.027 239.95L357.881 239.927L328.192 237.52L331.1 255.742L330.542 255.878L365.482 258.654ZM313.982 87.4419L305.901 89.3599L322.093 102.097L343.222 106.823L315.608 87.5351L313.72 87.5915L313.982 87.4419ZM314.867 85.9632L312.65 56.9185L305.312 88.35L314.867 85.9632ZM305.22 90.4899L306.417 105.691L346.452 110.237L345.696 108.758L321.688 103.365L305.22 90.4899ZM346.358 107.562L348.539 110.814L348.424 111.556L336.235 154.687L365.356 123.172L381.391 110.32L389.041 84.3859L317.538 87.2001L346.358 107.562ZM368.272 152.135L368.229 152.414L375.048 159.804L391.375 122.889L381.86 111.913L366.639 124.131L368.133 150.72C368.237 150.788 368.317 150.89 368.363 151.011C368.408 151.132 368.416 151.265 368.387 151.393L368.272 152.135ZM365.569 125.265L336.337 156.92L336.628 156.965L362.87 170.085L367.136 151.959L365.569 125.265ZM382.697 110.934L392.3 121.923L399.243 116.947L390.035 86.0602L382.697 110.934ZM401.775 206.611L411.981 206.955L413.084 180.546C408.051 191.489 402.782 203.377 401.818 206.523L401.775 206.611ZM413.813 176.794L440.698 145.662L395.05 150.607L413.813 176.794ZM404.618 165.868L404.564 172.195L404.054 183.394L413.019 177.495L404.618 165.868ZM440.768 144.247L422.884 122.98L400.24 118.02L394.601 149.27L440.768 144.247ZM403.402 164.286L393.74 150.785L389.966 153.59L403.324 170.768L403.378 164.44L403.402 164.286ZM393.432 149.691L398.976 118.869L392.633 123.432L389.872 152.467L393.432 149.691ZM400.301 116.857L421.59 121.513L391.201 86.6207L400.301 116.857ZM423.581 121.947L441.591 143.171L442.096 113.882L392.723 86.2227L423.581 121.947ZM442.618 144.629L447.946 153.753L443.018 120.646L442.618 144.629ZM442.827 147.322L445.281 178.304L448.592 158.636L448.317 156.756L442.827 147.322ZM441.573 146.368L414.587 177.579C414.588 177.663 414.575 177.747 414.548 177.827L436.416 212.287L444.389 182.918L441.573 146.368ZM436.157 213.958L414.256 179.524L413.122 207.29L444.636 234.911L436.157 213.958ZM412.116 179.478L403.616 185.069L395.857 191.662C396.671 193.53 399.84 200.61 401.115 204.513C403.34 198.997 409.344 185.828 412.116 179.478ZM402.712 184.359L403.25 172.784L389.391 154.8L384.31 179.358L395.194 190.546L402.712 184.359ZM374.576 161.315L367.78 153.77L363.764 170.667L375.888 176.154L374.576 161.315ZM362.398 171.406L336.034 158.299L335.481 158.214L295.983 179.886L374.026 176.627L362.398 171.406ZM347.001 112.856L305.8 137.054L334.932 155.975L347.001 112.856ZM346.716 111.609L306.303 107.004L305.71 135.709L346.716 111.609ZM305.149 107.142L298.442 109.051L297.51 109.287L304.564 133.283L305.149 107.142ZM266.579 93.3192L230.951 111.567L265.085 116.087L266.579 93.3192ZM260.926 118.105L201.005 127.21L217.679 136.442L260.926 118.105ZM218.836 137.254L233.153 147.072L263.018 118.46L218.836 137.254ZM261.345 116.744L229.197 112.5L201.315 117.69L180.22 126.814L199.213 126.267L261.345 116.744ZM177.546 126.558L200.812 116.504L224.46 112.084L178.254 108.104L177.546 126.558ZM177.061 108.489L153.266 121.187L176.27 126.709L177.061 108.489ZM153.035 133.094L183.582 130.723L176.855 128.131L153.035 133.094ZM227.063 111.061L206.148 94.9316L205.885 94.8911L180.154 107.004L227.063 111.061ZM229.169 111.133L265.806 92.3441L208.04 94.8442L229.169 111.133ZM265.905 91.124L253.9 80.0481L210.274 93.5108L265.905 91.124ZM262.118 47.3589L223.521 54.535L253.765 78.2215L262.118 47.3589ZM263.804 45.909L312.623 53.6198C312.718 53.5196 312.845 53.46 312.977 53.4527C313.101 53.4436 313.224 53.4783 313.326 53.5514C313.428 53.6245 313.504 53.7319 313.541 53.8568V53.8568L315.943 85.5595L378.753 32.3288L361.952 27.1953C361.872 27.2148 361.789 27.2019 361.719 27.1593C361.647 27.0792 361.591 26.9843 361.554 26.8802V26.8802L378.328 21.9672L359.717 19.0881L304.778 25.0984L304.172 25.163C304.062 25.1901 303.948 25.1724 303.852 25.1134V25.1134L246.605 29.848L263.804 45.909ZM379.401 31.2252L380.871 21.7269L364.193 26.5916L379.401 31.2252ZM385.481 -0.939456L310.394 23.306L360.023 17.108L385.481 -0.939456ZM387.98 -3.02379L350.24 -7.94341L307.21 23.0669L387.98 -3.02379ZM379.44 33.4805L317.11 86.5002L389.127 83.6388L388.584 81.7491L388.91 82.148L379.44 33.4805ZM389.966 81.1075L392.935 64.9984L381.473 37.6915L389.966 81.1075ZM394.006 64.2454L419.9 80.3845L381.841 35.3092L394.006 64.2454ZM393.965 65.6647L390.689 83.3736L420.812 82.3946L393.965 65.6647ZM392.205 84.5586L440.761 111.711L422.542 83.5493L392.205 84.5586ZM442.383 112.026L445.976 99.4028L424.986 85.0996L442.383 112.026ZM446.322 98.1258L448.049 90.8215L426.378 84.5862L446.322 98.1258ZM446.601 101.527L443.172 113.478L449.179 153.69L452.136 127.632L446.601 101.527ZM445.641 183.112L437.465 213.02L455.537 210.715L449.086 162.578L445.641 183.112ZM437.512 214.262L445.65 234.529L455.083 212.102L437.512 214.262ZM445.142 237.618C445.142 237.618 445.142 237.618 444.967 237.591C444.845 237.515 444.748 237.4 444.69 237.263L366.474 259.567L456.208 281.369L445.496 237.451C445.39 237.5 445.273 237.515 445.161 237.495L445.142 237.618ZM366.943 261.161L402.724 287.034L455.608 282.543L366.943 261.161ZM402.436 288.51L388.649 295.121L418.332 312.797L402.436 288.51ZM400.252 288.172L382.241 287.192L387.517 294.344L400.252 288.172ZM380.557 287.09L367.666 285.983L379.432 312.101L386.592 295.119L380.557 287.09ZM379.453 315.05L379.209 314.506L369.722 321.465L384.855 326.974L379.433 315.174L379.453 315.05ZM378.697 313.381L366.024 285.222L355.472 270.537L356.693 319.513L367.892 320.96L368.416 321.041L378.697 313.381ZM367.846 322.22L356.682 320.746L368.394 353.763L367.846 322.22ZM355.786 321.717L345.276 349.363L368.045 356.401L355.786 321.717ZM354.212 269.044L330.774 257.846L355.413 317.572L354.212 269.044ZM329.469 257.803L317.162 264.294L316.976 277.254L353.786 316.719L329.469 257.803ZM329.818 255.544L326.802 236.482L357.525 238.954L400.485 206.855C400.485 206.855 400.523 206.608 400.547 206.453C398.871 201.488 396.934 196.63 394.746 191.902L383.448 180.112L376.775 177.749L307.152 235.501L329.818 255.544ZM374.926 177.748L294.098 181.084L306.567 234.46L374.926 177.748ZM334.673 157.265L305.808 138.354L305.755 140.816L305.051 138.427L294.196 179.483L334.673 157.265ZM304.43 136.271L296.74 110.023L255.038 160.595L304.358 136.545L304.43 136.271ZM295.371 109.812L266.233 117.342L254.115 159.819L295.371 109.812ZM264.634 118.615L234.135 147.858L252.526 161.22L264.634 118.615ZM233.978 149.259L240.511 194.938L252.155 162.462L233.978 149.259ZM233.308 153.59L230.481 197.695L233.506 200.697L232.038 206.14L235.256 204.611L239.593 197.203L233.308 153.59ZM235.036 206.034L232.03 207.343L234.306 234.464L235.036 206.034ZM235.222 245.124L232.979 264.83L241.438 262.97L246.474 267.234L249.38 257.895L236.172 208.332L235.222 245.124ZM241.179 264.451L231.706 266.502L234.15 245.116L231.053 208.839L209.692 269.812L221.097 274.745L244.453 279.53L246.152 268.547L241.179 264.451ZM220.318 275.923L209.758 271.122L214.128 295.304L220.37 293.513L220.318 275.923ZM221.486 293.623L222.71 294.192L226.068 287.14L221.521 277.978L221.486 293.623ZM208.305 270.295L200.529 246.916L200.965 286.9L212.706 295.052L208.305 270.295ZM208.883 268.293L228.47 212.431L221.666 223.639L216.773 225.194L216.771 228.869L212.952 233.125L209.19 228.14L201.646 229.285L200.599 242.999L208.883 268.293ZM209.609 226.779L212.943 231.255L215.577 228.494L215.616 224.382L220.917 222.699L230.245 207.32L232.134 201.277L229.858 199.024L217.502 212.192L208.464 211.237L206.737 222.406L195.594 219.827L206.946 227.412L209.609 226.779ZM208.33 209.791L217.13 210.74L228.949 198.154L200.135 183.148L198.829 196.219L208.33 209.791ZM200.292 181.747L229.368 196.984L232.449 148.927L201.958 164.232L200.215 181.671L200.292 181.747ZM217.545 155.048L231.51 148.053L217.86 143.566L217.545 155.048ZM229.405 146.049L217.371 137.661L199.021 127.505L180.092 128.029L217.134 142.281C217.207 142.219 217.292 142.176 217.384 142.157C217.475 142.138 217.569 142.143 217.658 142.172L229.405 146.049ZM182.148 132.086L144.867 134.998L161.889 148.149L182.148 132.086ZM174.185 127.464L151.866 122.142L143.554 133.845L174.185 127.464ZM147.312 114.563L141.131 135.244L151.242 120.969L177.242 107.123L177.3 106.752L191.773 49.2435L147.312 114.563ZM178.638 106.389L204.627 94.1578L190.254 81.0366L197.116 63.0904L193.164 48.3499L178.638 106.389ZM205.251 93.0188L197.649 65.042L191.651 80.6825L205.251 93.0188ZM194.097 46.942L197.86 61.1779L202.362 49.4244L194.097 46.942ZM206.384 42.5069L204 48.6641L220.393 53.5444L206.384 42.5069ZM221.197 54.9042L221.173 55.0589L203.702 49.8218L198.655 63.1701L206.775 93.3814L253.005 79.086L222.167 54.8009L221.197 54.9042ZM222.621 53.4137L262.261 46.0505L244.892 29.9315L222.621 53.4137ZM247.755 27.4281L246.447 28.5564L303.844 23.8134L316.702 0.458824L247.755 27.4281ZM318.404 -0.133223L305.967 22.431L349.621 -9.14793L363.218 -24.9434L318.404 -0.133223ZM365.55 -25.9449L351.203 -9.15664L388.861 -4.28147L365.647 -26.1834L365.55 -25.9449ZM367 -26.4492L390.924 -3.74049C390.997 -3.65594 391.043 -3.5493 391.056 -3.43501L399.739 4.24421L414.589 -29.2881L367 -26.4492ZM415.02 -27.2572L400.711 5.09158L400.944 5.12762L382.141 21.2265L380.504 31.8077L422.149 81.2709L415.02 -27.2572ZM445.854 74.1669L416.428 -24.7902L423.506 82.5262L448.162 89.5085L445.854 74.1669ZM447.166 75.1302L449.26 89.9318L504.728 106.908L447.166 75.1302ZM508.495 109.359L449.865 91.4192L457.255 107.072L456.899 133.469L508.495 109.359ZM455.658 133.974L456.077 107.365L448.911 92.1903L447.338 98.8849L447.295 99.1633L453.296 127.463L457.053 141.73L455.658 133.974ZM459.563 155.962L452.919 130.667L449.79 158.41L449.747 158.688L456.094 205.954L459.563 155.962ZM456.622 212.182L456.389 212.146L446.67 235.257L475.628 229.283L456.622 212.182ZM446.455 236.649L457.156 280.249L476.358 230.536L446.455 236.649ZM477.96 230.784L489.366 261.345L555.57 231.48L477.96 230.784ZM548.426 194.957L534.762 193.065L556.794 227.425L548.426 194.957ZM561.358 196.768L549.679 195.151L558.11 227.596L561.358 196.768ZM608.5 259.468L604.559 274.92L612.164 318.294L608.5 259.468ZM613.932 328.071L631.231 271.19L631.279 270.88L609.55 255.576L609.521 255.761L613.932 328.071ZM608.381 255.807L608.28 254.334L607.519 247.88L605.518 267.18L608.381 255.807ZM609.454 254.072L631.232 269.448L629.618 245.375L616.012 236.934L608.321 241.351L608.172 242.311L609.454 254.072ZM614.851 236.152L580.778 214.852L607.469 240.491L614.851 236.152ZM606.925 242.466L606.992 242.033L560.4 232.069L603.484 273.582L603.687 273.423L606.925 242.466ZM605.766 240.513L576.138 212.075L559.489 230.629L605.766 240.513ZM575.316 211.219L562.495 197.704L559.118 229.178L575.316 211.219ZM603.268 202.491L563.615 197.212L576.441 210.696L616.106 235.365C616.221 235.354 616.336 235.377 616.438 235.432C616.54 235.487 616.626 235.571 616.684 235.676L630.115 244.089C630.235 244.082 630.354 244.114 630.456 244.18C630.558 244.247 630.637 244.346 630.683 244.463L641.315 251.113L603.268 202.491ZM627.836 208.699L627.632 208.668L626.321 208.465L609.332 203.968L627.306 215.017L667.156 201.286L627.836 208.699ZM686.261 258.034L689.36 300.267L689.085 321.323L689.547 321.616L696.936 244.162L676.009 202.086L686.261 258.034ZM664.67 227.956L684.64 255.787L674.556 201.449L664.034 228.016L664.67 227.956ZM662.729 228.163L673.782 200.284L628.419 215.917C628.453 216.075 628.427 216.241 628.347 216.381C628.297 216.464 628.229 216.532 628.149 216.58C628.068 216.628 627.978 216.655 627.887 216.659L637.215 230.964L662.729 228.163ZM636.757 232.382L625.71 215.498L605.127 202.81L642.63 250.904L636.757 232.382ZM642.951 253.647L630.74 246.024L632.309 269.234L642.951 253.647ZM639.529 275.768L632.146 272.598L615.146 328.512L627.027 315.905L641.279 290.485L639.529 275.768ZM615.005 330.391L644.733 337.556L627.462 317.144L615.005 330.391ZM641.516 292.612L628.246 316.315L645.639 336.904L641.516 292.612ZM689.057 522.959L688.985 523.423L696.055 518.783L689.057 522.959ZM697.249 516.655L691.335 505.729L689.267 521.408L697.249 516.655ZM691.602 503.616L698.282 515.959L704.863 511.972L702.562 502.556L688.922 500.699L691.602 503.616ZM717.357 504.655L703.863 502.82L705.958 511.445L717.357 504.655ZM705.372 514.078L699.329 518.054L712.099 541.73L705.372 514.078ZM698.336 518.692L688.823 524.855L688.627 526.124L711.973 543.896L698.336 518.692ZM711.825 545.426L688.184 527.449L678.904 545.021L711.825 545.426ZM687.51 525.824L683.358 528.572L687.477 526.041L687.51 525.824ZM662.319 538.876L670.272 540.676L673.637 535.115L674.25 533.467L674.283 533.25L674.935 531.545L662.319 538.876ZM671.355 541.192L677.667 544.925L686.53 528.112L675.252 534.699L671.355 541.192ZM676.037 531.938L687.725 524.242L687.812 523.685L676.67 530.357L676.037 531.938ZM677.233 528.448L687.915 522.054L690.297 503.953L687.481 500.952L677.233 528.448ZM687.997 499.352L701.205 501.11L690.294 491.249L687.997 499.352ZM686.523 461.647L686.748 462.126L690.544 489.831L702.835 500.982L709.308 489.597L683.279 442.328L686.62 461.219C686.661 461.363 686.657 461.517 686.611 461.661L686.523 461.647ZM678.852 441.833L684.63 456.729L681.535 439.144L681.413 438.966L700.381 395.395L668.954 394.588L678.587 428.708C678.61 428.835 678.59 428.967 678.529 429.08L678.852 441.833ZM668.288 396.576L667.647 400.722L674.37 417.602L668.288 396.576ZM659.897 420.938L677.753 440.459L677.578 429.059L667.058 402.405L659.897 420.938ZM666.711 398.866L667.448 394.102L658.33 380.748L666.711 398.866ZM657.407 377.659L668.461 393.34L699.592 394.132L647.505 340.646L657.407 377.659ZM656.032 377.098L645.999 339.59L612.35 364.321C612.301 364.452 612.21 364.562 612.094 364.63L656.032 377.098ZM611.751 363.373L644.915 338.883L614.328 331.49L611.751 363.373ZM613.196 330.903C613.067 330.792 612.985 330.632 612.967 330.456L612.89 328.829L605.526 286.791L611.052 358.64L613.196 330.903ZM610.253 363.807L603.596 275.943L555.332 335.004L610.253 363.807ZM601.859 276.181L527.646 336.613L553.924 334.659C554.029 334.503 554.184 334.392 554.36 334.347L601.859 276.181ZM619.386 529.161L613.924 502.973L582.573 528.662L619.386 529.161ZM573.618 521.004L580.596 527.944L591.278 494.749L573.618 521.004ZM593.659 491.316L582.09 527.542L613.65 501.663L594.376 468.174L593.659 491.316ZM614.039 500.108L616.62 486.315L625.583 475.029L594.463 466.065L614.039 500.108ZM593.909 463.477L611.584 427.879L583.855 391.403L593.909 463.477ZM578.405 417.962L591.917 457.656L582.719 391.227L578.405 417.962ZM582.66 388.335L608.946 365.505L556.85 386.877L582.66 388.335ZM555.504 386.13L608.56 364.337L554.873 336.232L555.504 386.13ZM554.313 384.773L553.708 336.052L526.8 338.035L554.313 384.773ZM602.461 274.215L559.465 232.716L559.852 234.265L558.561 232.197L526.926 335.678L602.461 274.215ZM525.679 335.834L557.387 232.078L489.845 262.496L525.679 335.834ZM524.023 335.166L491.22 268.063L505.283 319.817L505.574 319.862L524.023 335.166ZM480.723 355.775L508.787 351.722L466.597 347.032L480.723 355.775ZM512.847 350.924L504.486 321.689L465.852 345.682L512.847 350.924ZM463.925 345.415L504.047 320.481C504.023 320.355 504.043 320.223 504.104 320.11L488.447 262.47L477.041 231.909L457.588 282.279L457.788 283.102L457.119 282.999L456.257 283.943L404.299 288.228L404.649 288.472L403.775 288.337L420.607 314.479L420.398 323.539L463.925 345.415ZM459.08 344.349L419.964 324.612L406.237 331.992L459.08 344.349ZM404.373 331.704L419.297 323.527L419.488 315.541L388.025 327.686L404.373 331.704ZM418.719 314.535L387.53 295.803L380.056 313.465L386.267 327.097L418.719 314.535ZM385.119 328.155L370.987 323.118L381.814 334.487L385.119 328.155ZM380.991 335.563L368.934 322.895L369.649 355.097L380.991 335.563ZM368.444 361.152L351.528 418.061L370.433 399.57L368.444 361.152ZM370.606 400.959L351.295 419.957L380.377 424.741L370.606 400.959ZM380.636 432.511L380.679 427.417L370.667 440.473L380.636 432.511ZM379.484 427.042L350.328 442.015L366.854 443.336L379.484 427.042ZM366.662 444.574L349.607 443.202L366.482 464.44L366.662 444.574ZM348.127 443.322L336.863 451.939L336.853 456.055L364.686 464.099L348.127 443.322ZM330.387 461.613L360.784 464.256L336.128 457.274L327.433 455.643L330.387 461.613ZM334.581 442.208C334.54 442.269 334.486 442.318 334.424 442.352C334.361 442.387 334.292 442.405 334.223 442.406L327.323 454.233L335.697 455.813L335.707 451.316L347.582 442.414L347.97 442.22L349.471 422.494L334.581 442.208ZM341.307 385.814L367.723 357.524L344.808 350.462L341.307 385.814ZM337.451 416.137L339.986 387.605L335.254 378.288L337.451 416.137ZM335.064 375.281L340.443 385.427L343.938 350.106L343.793 350.084L343.826 349.867L318.9 330.171L335.064 375.281ZM344.188 348.687L354.774 320.736L318.667 328.203L344.188 348.687ZM317.766 326.701L317.981 327.241L354.961 319.53L317.154 278.992L317.766 326.701ZM256.113 252.157L256.126 253.616L256.021 254.297L316.506 325.017L315.879 277.401L316.053 263.172L329.058 256.218L306.056 236.028L305.717 236.293L292.738 180.81L292.622 180.792C292.546 180.776 292.474 180.745 292.41 180.699C292.346 180.653 292.292 180.595 292.25 180.527C292.208 180.458 292.179 180.382 292.165 180.301C292.151 180.22 292.153 180.137 292.169 180.057C292.186 179.954 292.229 179.857 292.294 179.778C292.359 179.698 292.443 179.639 292.537 179.607L292.58 179.328L292.959 179.387L303.953 137.813L253.46 162.315L256.113 252.157ZM252.428 165.324L240.938 197.38L254.908 251.083L252.428 165.324ZM254.462 253.961L240.058 198.828L236.412 205.043C236.524 205.125 236.601 205.251 236.627 205.393L250.324 256.805L254.462 253.961ZM250.698 281.573L248.853 269.788L248.604 267.152L249 263.633L247.457 268.59L245.653 280.254L249.504 286.014L250.698 281.573ZM245.863 296.824L233.345 292.923L231.387 305.577L245.863 296.824ZM233.148 291.689L246.915 296.004L249.095 287.693L244.626 281.109L222.08 276.481L227.343 286.799L233.148 291.689ZM229.976 306.214L232.097 292.508L226.949 288.195L223.605 295.154L226.749 306.063L229.976 306.214ZM225.681 306.025L222.645 295.576L220.999 294.846L213.909 296.917L196.223 304.826L225.681 306.025ZM188.114 288.999L193.874 304.399L212.422 295.927L200.185 287.698L189.062 280.56L188.114 288.999ZM130.315 214.797C130.915 219.909 132.56 224.801 135.136 229.134L159.875 234.038L131.147 188.41C130.881 193.596 130.196 209.013 130.315 214.797ZM131.326 185.903L131.283 186.182L161.497 234.352L161.468 234.538L188.874 279.074L198.943 285.51L158.886 198.404C158.843 198.341 158.812 198.27 158.795 198.194C158.778 198.118 158.775 198.038 158.787 197.961C158.799 197.883 158.826 197.808 158.865 197.741C158.904 197.674 158.955 197.615 159.016 197.568C159.142 197.472 159.298 197.431 159.451 197.455C159.603 197.478 159.74 197.564 159.831 197.695L199.848 284.478L199.459 243.234C199.458 243.14 199.472 243.046 199.502 242.956L200.525 229.017L200.635 228.305L205.248 227.593L189.382 216.997L205.904 220.852L207.483 210.642L197.884 196.929L197.641 196.574L199.042 182.694L160.372 180.513L159.614 180.015C159.609 179.952 159.619 179.889 159.642 179.83V179.83L186.348 160.075L202.258 163.645L216.509 156.345L216.847 144.138L184.759 131.792L190.149 138.392L197.628 138.63L212.443 145.231L184.151 144.782L161.801 150.258L144.245 136.708L144.556 143.947L154.836 160.585C154.905 160.695 154.932 160.83 154.911 160.961C154.891 161.093 154.825 161.213 154.726 161.297C154.739 161.349 154.742 161.403 154.734 161.457C154.725 161.51 154.706 161.561 154.678 161.606C154.655 161.754 154.578 161.887 154.463 161.976C154.349 162.066 154.206 162.104 154.067 162.082V162.082L146.246 160.397L132.037 164.535L125.87 185.123L131.326 185.903ZM162.354 179.267L199.127 181.376L200.857 164.22L162.354 179.267ZM199.496 163.376L186.523 160.482L163.408 177.466L199.496 163.376ZM130.75 164.367L110.993 172.557L105.716 173.705L124.649 184.142L130.75 164.367ZM47.0298 176.76L109.151 180.034L119.852 182.956L103.713 174.124L76.2319 169.397L59.315 173.686L44.8534 168.852L47.0298 176.76ZM33.2472 169.464L45.5484 176.119L43.3233 168.14L20.3411 113.897L33.2472 169.464Z" fill="url(#paint2_radial_1005_5550)"/>
</g>
<path d="M20.6924 110.277L42.3437 157.122L75.4075 158.34L99.3068 153.833L139.002 138.019L146.132 114.096L192.756 45.7841L192.988 45.4398L202.85 48.3911L205.842 40.6172L221.445 52.9151L243.998 29.1595L243.58 28.7781L244.424 28.7186L247.044 26.4312L317.785 -1.14761L364.703 -27.2164L365.29 -27.5375C365.449 -27.5764 365.616 -27.5507 365.756 -27.4654L415.804 -30.5891L446.896 73.5995L510.405 108.768L511.881 109.25L456.946 134.902L460.699 155.947C460.699 155.947 460.699 155.947 460.675 156.102L456.867 210.984L477.288 229.729L556.786 230.37L556.343 229.953L557.013 230.056L532.966 192.724C532.962 192.651 532.973 192.577 532.999 192.508C533.119 192.483 533.242 192.502 533.349 192.562V192.562L547.95 194.567L535.756 147.506L479.334 152.114L475.036 139.031C474.99 138.879 474.998 138.713 475.06 138.565C475.121 138.417 475.231 138.297 475.369 138.227C475.514 138.175 475.67 138.181 475.809 138.244C475.948 138.306 476.059 138.42 476.122 138.565L480.329 149.924L536.387 145.354L536.679 145.399L549.132 193.483L561.893 195.235L601.751 200.926L546.983 153.392L556.069 140.542C556.165 140.411 556.304 140.322 556.458 140.293C556.611 140.264 556.769 140.297 556.898 140.385C557.021 140.485 557.101 140.632 557.12 140.795C557.14 140.958 557.097 141.124 557.002 141.257L548.57 153.163L603.819 201.246L604.081 201.286C604.169 201.185 604.287 201.118 604.416 201.097C604.544 201.077 604.674 201.104 604.784 201.173L605.659 201.689L624.998 206.803L625.26 206.844L627.794 207.236L675.069 198.519L675.51 198.366L697.895 243.36L723.191 240.621C723.344 240.606 723.495 240.653 723.613 240.754C723.731 240.855 723.806 241.002 723.823 241.162C723.828 241.244 723.818 241.327 723.793 241.405C723.768 241.483 723.729 241.556 723.677 241.618C723.626 241.681 723.564 241.733 723.494 241.77C723.425 241.808 723.349 241.83 723.271 241.837L698.068 244.559L690.916 322.018C690.921 322.092 690.91 322.166 690.883 322.235L718.415 339.356C718.548 339.44 718.643 339.577 718.68 339.737C718.717 339.897 718.692 340.067 718.611 340.21C718.554 340.31 718.472 340.391 718.374 340.444C718.276 340.496 718.166 340.517 718.058 340.504L717.825 340.468L689.915 323.479L689.74 323.452L689.478 323.411L688.306 322.501L688.015 322.456L688.211 300.755L685.142 258.906L664.111 229.644L638.019 232.514L638.428 233.147C638.489 233.271 638.51 233.413 638.489 233.553C638.467 233.692 638.404 233.821 638.309 233.921L644.514 253.572C644.641 253.66 644.729 253.799 644.76 253.957C644.791 254.116 644.763 254.282 644.68 254.421C644.627 254.524 644.546 254.608 644.447 254.661C644.348 254.713 644.236 254.733 644.128 254.716L643.807 254.666L632.279 271.352L632.212 271.785L640.266 275.248L641.931 289.16C641.945 289.244 641.932 289.331 641.892 289.407L647.001 338.319L701.422 394.257L717.141 394.63C717.218 394.633 717.295 394.653 717.365 394.687C717.435 394.722 717.498 394.772 717.549 394.833C717.601 394.894 717.64 394.965 717.665 395.043C717.69 395.121 717.7 395.203 717.695 395.286C717.68 395.445 717.611 395.595 717.501 395.706C717.39 395.817 717.246 395.883 717.095 395.89L701.74 395.478L682.845 438.966L710.789 489.668L704.025 501.578L720.913 503.842L706.467 513.361L714.555 546.672L677.772 546.367L670.357 542.052L659.093 539.486L675.717 529.576L686.79 499.831L689.487 490.301L685.73 462.728L677.854 442.502L658.631 421.408L666.444 400.979L655.983 378.959C655.961 378.882 655.955 378.8 655.968 378.719C655.98 378.639 656.01 378.562 656.055 378.495L611.087 365.741L583.904 389.351L612.855 427.568L613.103 427.892L594.635 464.761L625.415 473.609L612.89 450.858C612.847 450.796 612.816 450.724 612.798 450.648C612.781 450.572 612.779 450.493 612.791 450.415C612.803 450.338 612.829 450.263 612.868 450.196C612.908 450.128 612.959 450.07 613.019 450.023C613.146 449.926 613.302 449.886 613.455 449.909C613.607 449.933 613.744 450.019 613.835 450.149L627.291 474.596L617.636 486.884L614.872 501.662L615.009 501.937L620.878 530.311L580.721 529.643L572.114 521.088L592.639 490.968L593.436 466.54L593.483 466.23L593.38 465.549L593.159 464.089L577.722 418.712L548.321 405.578C548.176 405.514 548.063 405.391 548.006 405.237C547.949 405.082 547.952 404.909 548.016 404.755C548.079 404.601 548.197 404.479 548.344 404.416C548.491 404.352 548.654 404.353 548.798 404.417L577.719 417.381L581.969 389.907C581.965 389.844 581.975 389.78 581.998 389.721L555.242 388.212C555.192 388.277 555.128 388.329 555.055 388.362C554.982 388.395 554.903 388.408 554.825 388.401L554.592 388.365C554.523 388.368 554.453 388.358 554.388 388.333V388.333C554.264 388.282 554.161 388.188 554.096 388.065C554.031 387.943 554.007 387.8 554.028 387.66C554.05 387.519 554.116 387.39 554.215 387.293C554.315 387.197 554.441 387.138 554.575 387.126L526.205 339.178L525.615 337.978L505.927 321.627L514.371 351.096L514.285 351.653L514.515 352.481L516.25 372.106L530.915 369.844L545.11 383.73C545.221 383.838 545.288 383.987 545.296 384.148C545.305 384.309 545.254 384.468 545.155 384.592C545.093 384.669 545.014 384.728 544.925 384.764C544.836 384.8 544.74 384.812 544.646 384.799C544.527 384.809 544.407 384.79 544.297 384.744L530.491 371.236L515.215 373.593L513.34 352.553L480.673 357.256L464.531 347.283C464.465 347.362 464.384 347.425 464.293 347.468L419.089 364.583L414.74 373.414C414.685 373.525 414.599 373.616 414.494 373.674C414.389 373.732 414.27 373.753 414.154 373.735L413.95 373.704C413.878 373.671 413.814 373.623 413.762 373.563C413.709 373.502 413.669 373.43 413.645 373.352C413.621 373.274 413.612 373.19 413.62 373.108C413.628 373.025 413.652 372.944 413.691 372.872L418.039 364.04L418.078 363.793L418.282 363.824L462.002 346.86L404.411 333.579L404.207 333.547L386.194 329.113L381.829 337.087L369.655 357.949L369.967 358.821L369.56 358.758L371.569 399.746L381.921 424.98L382.096 425.387C382.119 425.535 382.095 425.687 382.029 425.821L382.016 433.041L368.025 444.246L367.771 466.129L330.108 462.837L329.787 462.787L325.859 454.64L326.057 454.322L334.198 440.248L336.706 424.036L333.905 375.64L316.897 328.658C316.807 328.578 316.74 328.474 316.7 328.357C316.661 328.239 316.651 328.113 316.672 327.989L316.336 327.082L254.795 255.089L254.5 255.456L254.547 255.146L250.851 258.027L249.808 267.085L250.041 269.624L251.911 281.634L247.853 297.068L230.799 307.26L230.653 307.237L193.177 305.622L193.021 305.281L186.955 288.978L188.012 279.637L160.771 235.38L134.439 230.166L134.293 229.954C131.536 225.379 129.782 220.196 129.155 214.776C128.889 208.399 130 190.039 130.119 186.762L125.084 185.381C125.084 185.381 125.084 185.381 124.88 185.35L124.705 185.323L108.993 181.055L46.5806 177.736L32.4915 170.107L16.9708 103.682L20.6924 110.277ZM41.5893 158.336L27.0657 126.912L44.2237 167.138L71.6005 159.43L41.5893 158.336ZM99.7897 154.953L75.7351 159.5L46.0838 167.838L59.4139 172.276L76.0495 168.07L118.413 147.538L99.7897 154.953ZM78.2096 168.373L103.953 172.767L110.312 171.375L129.095 143.646L78.2096 168.373ZM112.261 170.726L131.368 162.879L145.403 158.714L131.296 142.91L112.261 170.726ZM146.655 158.528L153.578 160.042L143.698 144.1L132.494 142.683L146.655 158.528ZM139.984 138.995L133.613 141.621L143.437 142.697L143.08 134.595L140.177 138.708L139.984 138.995ZM188.887 138.07L183.842 132.126L165.482 146.709L188.887 138.07ZM170.726 146.158L183.996 142.889L206.465 143.197L197.372 139.129L189.981 138.905L170.726 146.158ZM335.923 438.931L349.215 420.871L349.011 420.839L349.606 420.266L341.226 390.775L338.264 424.182L335.923 438.931ZM350.418 418.681L368.032 359.377L341.583 387.694L350.418 418.681ZM350.735 421.645L349.244 441.499L379.579 425.853L350.875 421.128L350.735 421.645ZM389.476 -2.28545L389.185 -2.33051L361.717 17.1482L381.202 20.1625L389.476 -2.28545ZM382.893 18.8718L399.066 5.12221L390.704 -2.31729L382.893 18.8718ZM267.889 92.9515L266.39 115.941L295.325 108.569L267.889 92.9515ZM294.239 106.532L284.358 95.0241L269.97 92.7983L294.239 106.532ZM284.957 93.8496L297.154 108.123L305.204 105.82L303.972 90.2652L303.937 89.5311L303.984 89.2217L304.047 88.8195L311.933 55.1919L263.452 47.2169L254.665 79.1527L267.729 91.0895L284.957 93.8496ZM377.928 176.85L383.358 178.767L388.622 153.414L391.199 126.347L375.837 161.067L377.248 176.428L378.48 176.365L377.928 176.85ZM381.142 285.818L400.598 286.895L364.098 260.467L355.822 268.469L381.142 285.818ZM357.395 271.025L366.224 283.352C366.314 283.368 366.399 283.405 366.473 283.46C366.547 283.516 366.608 283.588 366.652 283.671L366.988 284.389L367.105 284.597L378.584 285.581L357.395 271.025ZM363.17 259.722L333.044 257.437L354.763 267.798L363.17 259.722ZM365.482 258.654L444.085 235.966L412.313 208.083L401.122 207.746L358.027 239.95L357.881 239.927L328.192 237.52L331.1 255.742L330.542 255.878L365.482 258.654ZM313.982 87.4419L305.901 89.3599L322.093 102.097L343.222 106.823L315.608 87.5351L313.72 87.5915L313.982 87.4419ZM314.867 85.9632L312.65 56.9185L305.312 88.35L314.867 85.9632ZM305.22 90.4899L306.417 105.691L346.452 110.237L345.696 108.758L321.688 103.365L305.22 90.4899ZM346.358 107.562L348.539 110.814L348.424 111.556L336.235 154.687L365.356 123.172L381.391 110.32L389.041 84.3859L317.538 87.2001L346.358 107.562ZM368.272 152.135L368.229 152.414L375.048 159.804L391.375 122.889L381.86 111.913L366.639 124.131L368.133 150.72C368.237 150.788 368.317 150.89 368.363 151.011C368.408 151.132 368.416 151.265 368.387 151.393L368.272 152.135ZM365.569 125.265L336.337 156.92L336.628 156.965L362.87 170.085L367.136 151.959L365.569 125.265ZM382.697 110.934L392.3 121.923L399.243 116.947L390.035 86.0602L382.697 110.934ZM401.775 206.611L411.981 206.955L413.084 180.546C408.051 191.489 402.782 203.377 401.818 206.523L401.775 206.611ZM413.813 176.794L440.698 145.662L395.05 150.607L413.813 176.794ZM404.618 165.868L404.564 172.195L404.054 183.394L413.019 177.495L404.618 165.868ZM440.768 144.247L422.884 122.98L400.24 118.02L394.601 149.27L440.768 144.247ZM403.402 164.286L393.74 150.785L389.966 153.59L403.324 170.768L403.378 164.44L403.402 164.286ZM393.432 149.691L398.976 118.869L392.633 123.432L389.872 152.467L393.432 149.691ZM400.301 116.857L421.59 121.513L391.201 86.6207L400.301 116.857ZM423.581 121.947L441.591 143.171L442.096 113.882L392.723 86.2227L423.581 121.947ZM442.618 144.629L447.946 153.753L443.018 120.646L442.618 144.629ZM442.827 147.322L445.281 178.304L448.592 158.636L448.317 156.756L442.827 147.322ZM441.573 146.368L414.587 177.579C414.588 177.663 414.575 177.747 414.548 177.827L436.416 212.287L444.389 182.918L441.573 146.368ZM436.157 213.958L414.256 179.524L413.122 207.29L444.636 234.911L436.157 213.958ZM412.116 179.478L403.616 185.069L395.857 191.662C396.671 193.53 399.84 200.61 401.115 204.513C403.34 198.997 409.344 185.828 412.116 179.478ZM402.712 184.359L403.25 172.784L389.391 154.8L384.31 179.358L395.194 190.546L402.712 184.359ZM374.576 161.315L367.78 153.77L363.764 170.667L375.888 176.154L374.576 161.315ZM362.398 171.406L336.034 158.299L335.481 158.214L295.983 179.886L374.026 176.627L362.398 171.406ZM347.001 112.856L305.8 137.054L334.932 155.975L347.001 112.856ZM346.716 111.609L306.303 107.004L305.71 135.709L346.716 111.609ZM305.149 107.142L298.442 109.051L297.51 109.287L304.564 133.283L305.149 107.142ZM266.579 93.3192L230.951 111.567L265.085 116.087L266.579 93.3192ZM260.926 118.105L201.005 127.21L217.679 136.442L260.926 118.105ZM218.836 137.254L233.153 147.072L263.018 118.46L218.836 137.254ZM261.345 116.744L229.197 112.5L201.315 117.69L180.22 126.814L199.213 126.267L261.345 116.744ZM177.546 126.558L200.812 116.504L224.46 112.084L178.254 108.104L177.546 126.558ZM177.061 108.489L153.266 121.187L176.27 126.709L177.061 108.489ZM153.035 133.094L183.582 130.723L176.855 128.131L153.035 133.094ZM227.063 111.061L206.148 94.9316L205.885 94.8911L180.154 107.004L227.063 111.061ZM229.169 111.133L265.806 92.3441L208.04 94.8442L229.169 111.133ZM265.905 91.124L253.9 80.0481L210.274 93.5108L265.905 91.124ZM262.118 47.3589L223.521 54.535L253.765 78.2215L262.118 47.3589ZM263.804 45.909L312.623 53.6198C312.718 53.5196 312.845 53.46 312.977 53.4527C313.101 53.4436 313.224 53.4783 313.326 53.5514C313.428 53.6245 313.504 53.7319 313.541 53.8568V53.8568L315.943 85.5595L378.753 32.3288L361.952 27.1953C361.872 27.2148 361.789 27.2019 361.719 27.1593C361.647 27.0792 361.591 26.9843 361.554 26.8802V26.8802L378.328 21.9672L359.717 19.0881L304.778 25.0984L304.172 25.163C304.062 25.1901 303.948 25.1724 303.852 25.1134V25.1134L246.605 29.848L263.804 45.909ZM379.401 31.2252L380.871 21.7269L364.193 26.5916L379.401 31.2252ZM385.481 -0.939456L310.394 23.306L360.023 17.108L385.481 -0.939456ZM387.98 -3.02379L350.24 -7.94341L307.21 23.0669L387.98 -3.02379ZM379.44 33.4805L317.11 86.5002L389.127 83.6388L388.584 81.7491L388.91 82.148L379.44 33.4805ZM389.966 81.1075L392.935 64.9984L381.473 37.6915L389.966 81.1075ZM394.006 64.2454L419.9 80.3845L381.841 35.3092L394.006 64.2454ZM393.965 65.6647L390.689 83.3736L420.812 82.3946L393.965 65.6647ZM392.205 84.5586L440.761 111.711L422.542 83.5493L392.205 84.5586ZM442.383 112.026L445.976 99.4028L424.986 85.0996L442.383 112.026ZM446.322 98.1258L448.049 90.8215L426.378 84.5862L446.322 98.1258ZM446.601 101.527L443.172 113.478L449.179 153.69L452.136 127.632L446.601 101.527ZM445.641 183.112L437.465 213.02L455.537 210.715L449.086 162.578L445.641 183.112ZM437.512 214.262L445.65 234.529L455.083 212.102L437.512 214.262ZM445.142 237.618C445.142 237.618 445.142 237.618 444.967 237.591C444.845 237.515 444.748 237.4 444.69 237.263L366.474 259.567L456.208 281.369L445.496 237.451C445.39 237.5 445.273 237.515 445.161 237.495L445.142 237.618ZM366.943 261.161L402.724 287.034L455.608 282.543L366.943 261.161ZM402.436 288.51L388.649 295.121L418.332 312.797L402.436 288.51ZM400.252 288.172L382.241 287.192L387.517 294.344L400.252 288.172ZM380.557 287.09L367.666 285.983L379.432 312.101L386.592 295.119L380.557 287.09ZM379.453 315.05L379.209 314.506L369.722 321.465L384.855 326.974L379.433 315.174L379.453 315.05ZM378.697 313.381L366.024 285.222L355.472 270.537L356.693 319.513L367.892 320.96L368.416 321.041L378.697 313.381ZM367.846 322.22L356.682 320.746L368.394 353.763L367.846 322.22ZM355.786 321.717L345.276 349.363L368.045 356.401L355.786 321.717ZM354.212 269.044L330.774 257.846L355.413 317.572L354.212 269.044ZM329.469 257.803L317.162 264.294L316.976 277.254L353.786 316.719L329.469 257.803ZM329.818 255.544L326.802 236.482L357.525 238.954L400.485 206.855C400.485 206.855 400.523 206.608 400.547 206.453C398.871 201.488 396.934 196.63 394.746 191.902L383.448 180.112L376.775 177.749L307.152 235.501L329.818 255.544ZM374.926 177.748L294.098 181.084L306.567 234.46L374.926 177.748ZM334.673 157.265L305.808 138.354L305.755 140.816L305.051 138.427L294.196 179.483L334.673 157.265ZM304.43 136.271L296.74 110.023L255.038 160.595L304.358 136.545L304.43 136.271ZM295.371 109.812L266.233 117.342L254.115 159.819L295.371 109.812ZM264.634 118.615L234.135 147.858L252.526 161.22L264.634 118.615ZM233.978 149.259L240.511 194.938L252.155 162.462L233.978 149.259ZM233.308 153.59L230.481 197.695L233.506 200.697L232.038 206.14L235.256 204.611L239.593 197.203L233.308 153.59ZM235.036 206.034L232.03 207.343L234.306 234.464L235.036 206.034ZM235.222 245.124L232.979 264.83L241.438 262.97L246.474 267.234L249.38 257.895L236.172 208.332L235.222 245.124ZM241.179 264.451L231.706 266.502L234.15 245.116L231.053 208.839L209.692 269.812L221.097 274.745L244.453 279.53L246.152 268.547L241.179 264.451ZM220.318 275.923L209.758 271.122L214.128 295.304L220.37 293.513L220.318 275.923ZM221.486 293.623L222.71 294.192L226.068 287.14L221.521 277.978L221.486 293.623ZM208.305 270.295L200.529 246.916L200.965 286.9L212.706 295.052L208.305 270.295ZM208.883 268.293L228.47 212.431L221.666 223.639L216.773 225.194L216.771 228.869L212.952 233.125L209.19 228.14L201.646 229.285L200.599 242.999L208.883 268.293ZM209.609 226.779L212.943 231.255L215.577 228.494L215.616 224.382L220.917 222.699L230.245 207.32L232.134 201.277L229.858 199.024L217.502 212.192L208.464 211.237L206.737 222.406L195.594 219.827L206.946 227.412L209.609 226.779ZM208.33 209.791L217.13 210.74L228.949 198.154L200.135 183.148L198.829 196.219L208.33 209.791ZM200.292 181.747L229.368 196.984L232.449 148.927L201.958 164.232L200.215 181.671L200.292 181.747ZM217.545 155.048L231.51 148.053L217.86 143.566L217.545 155.048ZM229.405 146.049L217.371 137.661L199.021 127.505L180.092 128.029L217.134 142.281C217.207 142.219 217.292 142.176 217.384 142.157C217.475 142.138 217.569 142.143 217.658 142.172L229.405 146.049ZM182.148 132.086L144.867 134.998L161.889 148.149L182.148 132.086ZM174.185 127.464L151.866 122.142L143.554 133.845L174.185 127.464ZM147.312 114.563L141.131 135.244L151.242 120.969L177.242 107.123L177.3 106.752L191.773 49.2435L147.312 114.563ZM178.638 106.389L204.627 94.1578L190.254 81.0366L197.116 63.0904L193.164 48.3499L178.638 106.389ZM205.251 93.0188L197.649 65.042L191.651 80.6825L205.251 93.0188ZM194.097 46.942L197.86 61.1779L202.362 49.4244L194.097 46.942ZM206.384 42.5069L204 48.6641L220.393 53.5444L206.384 42.5069ZM221.197 54.9042L221.173 55.0589L203.702 49.8218L198.655 63.1701L206.775 93.3814L253.005 79.086L222.167 54.8009L221.197 54.9042ZM222.621 53.4137L262.261 46.0505L244.892 29.9315L222.621 53.4137ZM247.755 27.4281L246.447 28.5564L303.844 23.8134L316.702 0.458824L247.755 27.4281ZM318.404 -0.133223L305.967 22.431L349.621 -9.14793L363.218 -24.9434L318.404 -0.133223ZM365.55 -25.9449L351.203 -9.15664L388.861 -4.28147L365.647 -26.1834L365.55 -25.9449ZM367 -26.4492L390.924 -3.74049C390.997 -3.65594 391.043 -3.5493 391.056 -3.43501L399.739 4.24421L414.589 -29.2881L367 -26.4492ZM415.02 -27.2572L400.711 5.09158L400.944 5.12762L382.141 21.2265L380.504 31.8077L422.149 81.2709L415.02 -27.2572ZM445.854 74.1669L416.428 -24.7902L423.506 82.5262L448.162 89.5085L445.854 74.1669ZM447.166 75.1302L449.26 89.9318L504.728 106.908L447.166 75.1302ZM508.495 109.359L449.865 91.4192L457.255 107.072L456.899 133.469L508.495 109.359ZM455.658 133.974L456.077 107.365L448.911 92.1903L447.338 98.8849L447.295 99.1633L453.296 127.463L457.053 141.73L455.658 133.974ZM459.563 155.962L452.919 130.667L449.79 158.41L449.747 158.688L456.094 205.954L459.563 155.962ZM456.622 212.182L456.389 212.146L446.67 235.257L475.628 229.283L456.622 212.182ZM446.455 236.649L457.156 280.249L476.358 230.536L446.455 236.649ZM477.96 230.784L489.366 261.345L555.57 231.48L477.96 230.784ZM548.426 194.957L534.762 193.065L556.794 227.425L548.426 194.957ZM561.358 196.768L549.679 195.151L558.11 227.596L561.358 196.768ZM608.5 259.468L604.559 274.92L612.164 318.294L608.5 259.468ZM613.932 328.071L631.231 271.19L631.279 270.88L609.55 255.576L609.521 255.761L613.932 328.071ZM608.381 255.807L608.28 254.334L607.519 247.88L605.518 267.18L608.381 255.807ZM609.454 254.072L631.232 269.448L629.618 245.375L616.012 236.934L608.321 241.351L608.172 242.311L609.454 254.072ZM614.851 236.152L580.778 214.852L607.469 240.491L614.851 236.152ZM606.925 242.466L606.992 242.033L560.4 232.069L603.484 273.582L603.687 273.423L606.925 242.466ZM605.766 240.513L576.138 212.075L559.489 230.629L605.766 240.513ZM575.316 211.219L562.495 197.704L559.118 229.178L575.316 211.219ZM603.268 202.491L563.615 197.212L576.441 210.696L616.106 235.365C616.221 235.354 616.336 235.377 616.438 235.432C616.54 235.487 616.626 235.571 616.684 235.676L630.115 244.089C630.235 244.082 630.354 244.114 630.456 244.18C630.558 244.247 630.637 244.346 630.683 244.463L641.315 251.113L603.268 202.491ZM627.836 208.699L627.632 208.668L626.321 208.465L609.332 203.968L627.306 215.017L667.156 201.286L627.836 208.699ZM686.261 258.034L689.36 300.267L689.085 321.323L689.547 321.616L696.936 244.162L676.009 202.086L686.261 258.034ZM664.67 227.956L684.64 255.787L674.556 201.449L664.034 228.016L664.67 227.956ZM662.729 228.163L673.782 200.284L628.419 215.917C628.453 216.075 628.427 216.241 628.347 216.381C628.297 216.464 628.229 216.532 628.149 216.58C628.068 216.628 627.978 216.655 627.887 216.659L637.215 230.964L662.729 228.163ZM636.757 232.382L625.71 215.498L605.127 202.81L642.63 250.904L636.757 232.382ZM642.951 253.647L630.74 246.024L632.309 269.234L642.951 253.647ZM639.529 275.768L632.146 272.598L615.146 328.512L627.027 315.905L641.279 290.485L639.529 275.768ZM615.005 330.391L644.733 337.556L627.462 317.144L615.005 330.391ZM641.516 292.612L628.246 316.315L645.639 336.904L641.516 292.612ZM689.057 522.959L688.985 523.423L696.055 518.783L689.057 522.959ZM697.249 516.655L691.335 505.729L689.267 521.408L697.249 516.655ZM691.602 503.616L698.282 515.959L704.863 511.972L702.562 502.556L688.922 500.699L691.602 503.616ZM717.357 504.655L703.863 502.82L705.958 511.445L717.357 504.655ZM705.372 514.078L699.329 518.054L712.099 541.73L705.372 514.078ZM698.336 518.692L688.823 524.855L688.627 526.124L711.973 543.896L698.336 518.692ZM711.825 545.426L688.184 527.449L678.904 545.021L711.825 545.426ZM687.51 525.824L683.358 528.572L687.477 526.041L687.51 525.824ZM662.319 538.876L670.272 540.676L673.637 535.115L674.25 533.467L674.283 533.25L674.935 531.545L662.319 538.876ZM671.355 541.192L677.667 544.925L686.53 528.112L675.252 534.699L671.355 541.192ZM676.037 531.938L687.725 524.242L687.812 523.685L676.67 530.357L676.037 531.938ZM677.233 528.448L687.915 522.054L690.297 503.953L687.481 500.952L677.233 528.448ZM687.997 499.352L701.205 501.11L690.294 491.249L687.997 499.352ZM686.523 461.647L686.748 462.126L690.544 489.831L702.835 500.982L709.308 489.597L683.279 442.328L686.62 461.219C686.661 461.363 686.657 461.517 686.611 461.661L686.523 461.647ZM678.852 441.833L684.63 456.729L681.535 439.144L681.413 438.966L700.381 395.395L668.954 394.588L678.587 428.708C678.61 428.835 678.59 428.967 678.529 429.08L678.852 441.833ZM668.288 396.576L667.647 400.722L674.37 417.602L668.288 396.576ZM659.897 420.938L677.753 440.459L677.578 429.059L667.058 402.405L659.897 420.938ZM666.711 398.866L667.448 394.102L658.33 380.748L666.711 398.866ZM657.407 377.659L668.461 393.34L699.592 394.132L647.505 340.646L657.407 377.659ZM656.032 377.098L645.999 339.59L612.35 364.321C612.301 364.452 612.21 364.562 612.094 364.63L656.032 377.098ZM611.751 363.373L644.915 338.883L614.328 331.49L611.751 363.373ZM613.196 330.903C613.067 330.792 612.985 330.632 612.967 330.456L612.89 328.829L605.526 286.791L611.052 358.64L613.196 330.903ZM610.253 363.807L603.596 275.943L555.332 335.004L610.253 363.807ZM601.859 276.181L527.646 336.613L553.924 334.659C554.029 334.503 554.184 334.392 554.36 334.347L601.859 276.181ZM619.386 529.161L613.924 502.973L582.573 528.662L619.386 529.161ZM573.618 521.004L580.596 527.944L591.278 494.749L573.618 521.004ZM593.659 491.316L582.09 527.542L613.65 501.663L594.376 468.174L593.659 491.316ZM614.039 500.108L616.62 486.315L625.583 475.029L594.463 466.065L614.039 500.108ZM593.909 463.477L611.584 427.879L583.855 391.403L593.909 463.477ZM578.405 417.962L591.917 457.656L582.719 391.227L578.405 417.962ZM582.66 388.335L608.946 365.505L556.85 386.877L582.66 388.335ZM555.504 386.13L608.56 364.337L554.873 336.232L555.504 386.13ZM554.313 384.773L553.708 336.052L526.8 338.035L554.313 384.773ZM602.461 274.215L559.465 232.716L559.852 234.265L558.561 232.197L526.926 335.678L602.461 274.215ZM525.679 335.834L557.387 232.078L489.845 262.496L525.679 335.834ZM524.023 335.166L491.22 268.063L505.283 319.817L505.574 319.862L524.023 335.166ZM480.723 355.775L508.787 351.722L466.597 347.032L480.723 355.775ZM512.847 350.924L504.486 321.689L465.852 345.682L512.847 350.924ZM463.925 345.415L504.047 320.481C504.023 320.355 504.043 320.223 504.104 320.11L488.447 262.47L477.041 231.909L457.588 282.279L457.788 283.102L457.119 282.999L456.257 283.943L404.299 288.228L404.649 288.472L403.775 288.337L420.607 314.479L420.398 323.539L463.925 345.415ZM459.08 344.349L419.964 324.612L406.237 331.992L459.08 344.349ZM404.373 331.704L419.297 323.527L419.488 315.541L388.025 327.686L404.373 331.704ZM418.719 314.535L387.53 295.803L380.056 313.465L386.267 327.097L418.719 314.535ZM385.119 328.155L370.987 323.118L381.814 334.487L385.119 328.155ZM380.991 335.563L368.934 322.895L369.649 355.097L380.991 335.563ZM368.444 361.152L351.528 418.061L370.433 399.57L368.444 361.152ZM370.606 400.959L351.295 419.957L380.377 424.741L370.606 400.959ZM380.636 432.511L380.679 427.417L370.667 440.473L380.636 432.511ZM379.484 427.042L350.328 442.015L366.854 443.336L379.484 427.042ZM366.662 444.574L349.607 443.202L366.482 464.44L366.662 444.574ZM348.127 443.322L336.863 451.939L336.853 456.055L364.686 464.099L348.127 443.322ZM330.387 461.613L360.784 464.256L336.128 457.274L327.433 455.643L330.387 461.613ZM334.581 442.208C334.54 442.269 334.486 442.318 334.424 442.352C334.361 442.387 334.292 442.405 334.223 442.406L327.323 454.233L335.697 455.813L335.707 451.316L347.582 442.414L347.97 442.22L349.471 422.494L334.581 442.208ZM341.307 385.814L367.723 357.524L344.808 350.462L341.307 385.814ZM337.451 416.137L339.986 387.605L335.254 378.288L337.451 416.137ZM335.064 375.281L340.443 385.427L343.938 350.106L343.793 350.084L343.826 349.867L318.9 330.171L335.064 375.281ZM344.188 348.687L354.774 320.736L318.667 328.203L344.188 348.687ZM317.766 326.701L317.981 327.241L354.961 319.53L317.154 278.992L317.766 326.701ZM256.113 252.157L256.126 253.616L256.021 254.297L316.506 325.017L315.879 277.401L316.053 263.172L329.058 256.218L306.056 236.028L305.717 236.293L292.738 180.81L292.622 180.792C292.546 180.776 292.474 180.745 292.41 180.699C292.346 180.653 292.292 180.595 292.25 180.527C292.208 180.458 292.179 180.382 292.165 180.301C292.151 180.22 292.153 180.137 292.169 180.057C292.186 179.954 292.229 179.857 292.294 179.778C292.359 179.698 292.443 179.639 292.537 179.607L292.58 179.328L292.959 179.387L303.953 137.813L253.46 162.315L256.113 252.157ZM252.428 165.324L240.938 197.38L254.908 251.083L252.428 165.324ZM254.462 253.961L240.058 198.828L236.412 205.043C236.524 205.125 236.601 205.251 236.627 205.393L250.324 256.805L254.462 253.961ZM250.698 281.573L248.853 269.788L248.604 267.152L249 263.633L247.457 268.59L245.653 280.254L249.504 286.014L250.698 281.573ZM245.863 296.824L233.345 292.923L231.387 305.577L245.863 296.824ZM233.148 291.689L246.915 296.004L249.095 287.693L244.626 281.109L222.08 276.481L227.343 286.799L233.148 291.689ZM229.976 306.214L232.097 292.508L226.949 288.195L223.605 295.154L226.749 306.063L229.976 306.214ZM225.681 306.025L222.645 295.576L220.999 294.846L213.909 296.917L196.223 304.826L225.681 306.025ZM188.114 288.999L193.874 304.399L212.422 295.927L200.185 287.698L189.062 280.56L188.114 288.999ZM130.315 214.797C130.915 219.909 132.56 224.801 135.136 229.134L159.875 234.038L131.147 188.41C130.881 193.596 130.196 209.013 130.315 214.797ZM131.326 185.903L131.283 186.182L161.497 234.352L161.468 234.538L188.874 279.074L198.943 285.51L158.886 198.404C158.843 198.341 158.812 198.27 158.795 198.194C158.778 198.118 158.775 198.038 158.787 197.961C158.799 197.883 158.826 197.808 158.865 197.741C158.904 197.674 158.955 197.615 159.016 197.568C159.142 197.472 159.298 197.431 159.451 197.455C159.603 197.478 159.74 197.564 159.831 197.695L199.848 284.478L199.459 243.234C199.458 243.14 199.472 243.046 199.502 242.956L200.525 229.017L200.635 228.305L205.248 227.593L189.382 216.997L205.904 220.852L207.483 210.642L197.884 196.929L197.641 196.574L199.042 182.694L160.372 180.513L159.614 180.015C159.609 179.952 159.619 179.889 159.642 179.83V179.83L186.348 160.075L202.258 163.645L216.509 156.345L216.847 144.138L184.759 131.792L190.149 138.392L197.628 138.63L212.443 145.231L184.151 144.782L161.801 150.258L144.245 136.708L144.556 143.947L154.836 160.585C154.905 160.695 154.932 160.83 154.911 160.961C154.891 161.093 154.825 161.213 154.726 161.297C154.739 161.349 154.742 161.403 154.734 161.457C154.725 161.51 154.706 161.561 154.678 161.606C154.655 161.754 154.578 161.887 154.463 161.976C154.349 162.066 154.206 162.104 154.067 162.082V162.082L146.246 160.397L132.037 164.535L125.87 185.123L131.326 185.903ZM162.354 179.267L199.127 181.376L200.857 164.22L162.354 179.267ZM199.496 163.376L186.523 160.482L163.408 177.466L199.496 163.376ZM130.75 164.367L110.993 172.557L105.716 173.705L124.649 184.142L130.75 164.367ZM47.0298 176.76L109.151 180.034L119.852 182.956L103.713 174.124L76.2319 169.397L59.315 173.686L44.8534 168.852L47.0298 176.76ZM33.2472 169.464L45.5484 176.119L43.3233 168.14L20.3411 113.897L33.2472 169.464Z" fill="url(#paint3_radial_1005_5550)" stroke="url(#paint4_radial_1005_5550)"/>
<defs>
<filter id="filter0_f_1005_5550" x="-130.507" y="-356" width="1175.29" height="1175.29" filterUnits="userSpaceOnUse" color-interpolation-filters="sRGB">
<feFlood flood-opacity="0" result="BackgroundImageFix"/>
<feBlend mode="normal" in="SourceGraphic" in2="BackgroundImageFix" result="shape"/>
<feGaussianBlur stdDeviation="125" result="effect1_foregroundBlur_1005_5550"/>
</filter>
<radialGradient id="paint0_radial_1005_5550" cx="0" cy="0" r="1" gradientUnits="userSpaceOnUse" gradientTransform="translate(993.845 451.489) rotate(-155.477) scale(735.382 526.19)">
<stop stop-color="#C6B38A"/>
<stop offset="0.463601" stop-color="#F3C691"/>
<stop offset="1" stop-color="#B4703E"/>
</radialGradient>
<radialGradient id="paint1_radial_1005_5550" cx="0" cy="0" r="1" gradientUnits="userSpaceOnUse" gradientTransform="translate(-219.593 312.335) rotate(-8.86668) scale(767.01 420.138)">
<stop stop-color="#C6B38A"/>
<stop offset="0.463601" stop-color="#F3C691"/>
<stop offset="1" stop-color="#B4703E"/>
</radialGradient>
<radialGradient id="paint2_radial_1005_5550" cx="0" cy="0" r="1" gradientUnits="userSpaceOnUse" gradientTransform="translate(-240.881 310.673) rotate(-8.92167) scale(787.445 432.5)">
<stop stop-color="#C6B38A"/>
<stop offset="0.463601" stop-color="#F3C691"/>
<stop offset="1" stop-color="#B4703E"/>
</radialGradient>
<radialGradient id="paint3_radial_1005_5550" cx="0" cy="0" r="1" gradientUnits="userSpaceOnUse" gradientTransform="translate(-240.881 310.673) rotate(-8.92167) scale(787.445 432.5)">
<stop stop-color="#C6B38A"/>
<stop offset="0.463601" stop-color="#F3C691"/>
<stop offset="1" stop-color="#B4703E"/>
</radialGradient>
<radialGradient id="paint4_radial_1005_5550" cx="0" cy="0" r="1" gradientUnits="userSpaceOnUse" gradientTransform="translate(-240.881 310.673) rotate(-8.92167) scale(787.445 432.5)">
<stop stop-color="#C6B38A"/>
<stop offset="0.463601" stop-color="#F3C691"/>
<stop offset="1" stop-color="#B4703E"/>
</radialGradient>
</defs>
</svg>
