<svg xmlns="http://www.w3.org/2000/svg" width="440" height="350" fill="none" xmlns:v="https://vecta.io/nano"><g opacity=".2" filter="url(#A)"><circle cx="457.14" cy="231.647" r="337.647" fill="url(#B)"/></g><g opacity=".15"><path d="M27.979 134.346l14.508 26.32 49.289-1.878 35.767-16.643 12.973-1.161 5.859-26.496 72.713-58.447 1.612-1.746c.089-.102.207-.168.335-.189a.53.53 0 0 1 .368.076l.412-.348 22.696-13.501.392-.795.117.208 19.465-24.043.204.032 67.423-18.081.029-.186.757.117.902-.241 31.626-24.57 44.059 23.638 38.289 82.144 1.117 2.422 54.006 77.321 68.846 23.037 41.765 26.514 68.404 5.07 19.292 57.473a.44.44 0 0 1-.029.186l7.439 74.33-.029.186-13.384 27.138-14.708-36.014 10.736-17.347-4.288-66.747-24.988-26.041-26.145 7.265 13.91 48.879-5.212 65.309 33.738 39.465.203-.349-.091.588.482.55 3.362 38.218-3.145 18.015 28.208 40.13-4.603 21.463-.034.217 8.381 38.552-25.361-5.128-21.428.677 2.872-25.311 10.52-29.45-24.945-53.121-.029.186-.342-1.067-38.425-39.43-7.912 19.527 9.397 48.371 7.482 15.635-12.621 29.347 9.252 21.737-17.022 3.038-.699-.108-26.045-5.138 5.131-15.046 16.65-22.42-11.434-43.491-4.904-28.066-41.78-24.109-17.237-18.506-.233-.036-.175-.027-8.466-23.929-26.875 8.514-22.888-12.823-6.206 7.34-35.213-5.447-2.285.312-22.421 12.688-12.713-8.62.283-13.198-.146-.022.029-.186-4.749-3.427-.28.653-.21-.571-8.656 7.373 1.152 25.522-3.488 34.308 12.893 24.613-15.603 17.577 1.552 19.659-30.585.686-.175-.027-.146-.023-9.291-6.062 8.692-13.387 1.864-56.006-12.385-52.381-43.512-48.96-23.263-31.414-8.421-.51-.028.185-.379-.058-2.294 5.189.408.063-.504.365 4.637 23.812-13.612 20.323-39.278 1.939-10.62-14.631 1.597-6.85-24.859-51.365-.137-.274-25.683-1.502-.262-.041-9.387-14.124 3.287-28.953-29.272-11.276-49.562 1.139-20.422-7.562-.869.024c-.141-.001-.277-.054-.382-.152s-.173-.233-.192-.381l-.175-.027-4.241-36.2zm48.847 34.135l12.313-8.264-52.06 8.8 39.747-.536zm87.759 62.712l-14.947-32.155-9.31 30.683 24.257 1.472zm200.302 213.904l-.17-1.99.17 1.99zm-1.371-1.163l-24.799 17.263 27.29-.594-2.491-16.669zm1.169-2.543l2.629-41.094-14.153-33.045 11.16 74.177.364-.038zm-12.379-72.085l-14.574 71.653 25.405.414-10.831-72.067zm.433-6.079l16.441-22.801-40.007-5.111 23.566 27.912zm16.773-23.985l-1.987-37.467-39.937 31.837.306.333 41.618 5.297zm38.977-76.907l-39.787 38.767-.038.247 11.17 29.004 28.655-68.018zm-22.87 86.337l31.417-3.947-30.744-7.924-.378-.058-.295 11.929zm212.398 138.984l-20.035 34.283 30.659-17.75-10.624-16.533zm3.586 40.249l7.1-22.376-30.66 17.75 23.56 4.626zm12.452-67.768l-30.414-41.675 25.723 83.178 4.691-41.503zm87.948 47.027l-19.625 19.868 27.388 15.737-7.763-35.605zm-20.127 18.682l19.441-19.643-22.16-19.268 2.719 38.911zm19.238-21.417l-21.77-57.065-.254 37.691 22.024 19.374zm-65.833-272.301l24.918-6.853L614.9 209.65l20.381 22.478zm52.795 19.413l10.718 15.344-17.703-52.507-18.082 11.046 25.067 26.117zm-115.777-68.598l-.174-.027-100.923 14.864 139.777 9.648-38.68-24.485zM265.104 16.908l-18.609 22.75 61.388-12.425-42.779-10.324zM134.229 187.024l55.863 8.642-59.16-29.934 3.297 21.292zm275.38 72.887l-97.064 28.67 55.384 11.736 41.68-40.406zm190.934 122.358l21.385-22.574-94.547 12.206 73.162 10.368zm37.831 2.209l37.931 3.302-51.619-27.595 13.688 24.293zM446.239 79.808l-39.448 2.071 39.216 27.767.698-29.386-.466-.452zM335.488 19.401l-24.246 8.287 35.084 8.595-10.838-16.883zM257.45 61.184l50.266-32.679-61.835 12.61 11.569 20.069zm-63.27 151.239l36.535-14.084-36.315-1.025-.22 15.109zm-18.38-41.967l56.415 26.087-36.316-58.079-20.099 31.992zm19.069-32.468l-51.594 4.056 31.563 27.692 20.031-31.748zm-17.993 34.186l17.322 23.937.292.045 36.431 1.042-54.045-25.024zm-2.151-.934l-41.046-5.527 58.329 29.33-17.283-23.803zm-1.619-1.486l-30.989-26.97-11.072 21.445 42.061 5.525zm22.557-33.037l12.333-25.749-63.157 29.639 50.824-3.89zm1.329-.112l.146.023-.44.724 35.527 56.817-22.986-82.755-12.247 25.191zm36.725 58.713l12.327-60.406-35.655-23.795 23.328 84.201zm60.003-25.058l-44.989-33.444 20.567 29.761 24.422 3.683zm118.214 87.539l1.974-.613-.349.326 40.477-6.41-52.591-12.634-85.383 47.616 93.748-27.663.038-.248 2.086-.374zm70.671 28.008l-55.527 14.441 31.335 23.38 24.192-37.821zm48.488-31.591l-.248-.324.32.05-7.11-25.177-37.856 54.05 44.894-28.599zm-46.553 31.035l-19.439 54.333 64.289-82.844-44.85 28.511zM623.209 357.2l4.386-43.197-48.75 15.552 44.21 28.065.154-.42zm-45.448-28.541l48.217-15.382-61.519-14.49 13.302 29.872zm-13.706-32.469l16.799-18.563-12.617-24.857-4.182 43.42zm3.136-44.754l-34.146 3.462 29.831 41.395 4.315-44.857zm.41-1.298l41.651-37.908-74.38 41.271 32.729-3.363zm-107.748-87.536l-.204-.031-57.754 9.756 62.813 25.018-4.855-34.743zm-57.814 74.722l53.737 12.938-55.448-75.326 1.711 62.388zm-2.753-66.066l12.629-37.487-72.22 18.828 59.591 18.659zm9.867-38.136l-71.172-5.498.105 23.997 71.067-18.499zm-86.694-84.057l-4.904 23.793 28.927-34.111-24.023 10.318zm-1.112-.33l-9.475-17.021 4.792 39.581 4.683-22.56zm-4.47 26.775l-27.26 46.47 78.437-46.093-50.605-.606-.572.228zm20.007 76.56l-.108-23.016-38.152 40.35 37.125-16.749-.524-.081 1.659-.504zm30.247-74.266l-76.769 45.147 46.951 3.018 29.818-48.165zm-31.167 50.332l.362-.609-4.392-.331 1.649-.252-44.786-2.936 7.494 46.017 39.673-41.889zm34.322-52.22l-.984.576-29.982 48.457 64.399-43.259-33.433-5.774zm33.042 4.446l-24.13-21.568-8.113 16.2 32.243 5.368zM296.532 171.55l-10.187 33.272 48.544-50.464-38.357 17.192zm-8.846-47.113l-.233-.036c-.129.023-.262.003-.378-.059l-38.683 10.426 46.641 34.903-7.347-45.234zm.07-1.605l26.49-45.164-65.124 55.661 38.634-10.497zm22.606-93.696l-51.939 87.637 57.477-42.08-5.538-45.557zm11.779 18.707l23.713-10.049-34.065-8.438 10.352 18.487zm25.835-9.119l-29.86 35.138 59.38-16.411-29.253-18.718-.267-.01zm-26.172 35.392l47.276.534.757.117 8.108-16.169-56.141 15.518zm58.416-16.148l25.069 22.632 4.491-37.321-29.551 14.436.262.041-.271.211zm-40.354 68.077l105.166-15.885-39.726-28.132-65.44 44.017zm2.86.791l69.899 5.428 31.266-20.507-101.165 15.079zm57.754 44.416l58.177-9.786-45.427-27.715-12.75 37.501zm-.258 1.67l56.679 76.816 7.888-50.987-64.567-25.829zm57.492 78.114l25.225 32.224-17.538-81.912-7.687 49.688zm26.429 32.347l39.366-55.907-57.229-28.146 17.863 84.053zM534.5 252.05l-.3.397 77.361-42.996-86.542 18.291 7.252 25.8 2.229-1.492zm-51.941 32.514l-24.89-31.886-.316-.461-30.161 46.718 55.367-14.371zm-81.675-47.102l-1.786-63.635-85.709 112.382 87.495-48.747zm-62.716-84.054l8.29 62.076 51.87-43.234-60.16-18.842zm-1.111.43l-50.365 52.4 58.627 9.671-8.262-62.071zm-52.258 52.107l10.414-33.965c-.116-.073-.213-.175-.282-.297l-24.902-3.852 14.698 38.198.072-.084zm-37.495-69.349l.468 72.935 20.644-42.457-21.112-30.478zm56.874-51.869l-47.244 34.54-.392.605-7.317 11.825 54.953-46.97zm-47.849 33.243l52.509-88.816-50.979 33.044-1.53 55.773zm91.804-80.837l57.325-38.208-68.724 20.129 11.399 18.078zm1.311.583l60.483 4.034-1.413-43.303-59.07 39.268zm1.406 1.326l28.218 18.083 29.051-14.292-57.269-3.791zm60.12 4.644l-4.415 36.826 38.574-2.016-34.159-34.81zm35.545 67.686l-32.283 21.3 85.64 24.748-53.357-46.048zm-29.473 23.382l43.395 26.386 38.447-2.732-81.842-23.654zm48.943 62.82l103.77-15.341-108.834-19.402 5.064 34.743zm58.527 29.013l84.412-17.829-140.34-9.673 55.928 27.502zm43.959 24.287l12.899 25.344 30.273-64.791-43.172 39.447zm-4.234 46.643l61.063 14.357-43.605-33.325-17.458 18.968zm58.901 62.65l-8.715 29.92 22.403-5.627-13.688-24.293zm-1.649-1.871l-44.147-28.086-52.278 40.667 96.425-12.581zm-58.524-59.107l-47.383 46.81 60.918-16.901-13.535-29.909zm-31.04-43.799l-66.743 85.981 97.217-43.727-30.474-42.254zm-50.322 34l-22.474 35.204 4.16 16.484 18.314-51.688zm-24.916 34.605l-30.996-23.264-38.882 34.851 69.878-11.587zm-67.523 12.363l29.899 7.794 35.667-18.496-65.566 10.702zm66.728-84.335l-43.907 6.988-.344.295-.076.495 14.326 38.87 30.001-46.648zm-60.022-76.225l-49.181 41.084-.057.371-.32-.05-33.377 67.7 82.935-109.105zm-110.957 31.337l-31.377 4.65 82.033 3.725-50.656-8.375zm-1.545-.999l-14.333-37.667-20.809 42.748 35.142-5.081zm-37.332-65.967l-11.573 56.69.353-.167-.454 1.007 12.126 12.805-.452-70.335zm-12.088 58.86l-.048.309-.219-.319-19.458 41.342 31.788-28.125c-.018-.072-.022-.148-.01-.223s.037-.146.077-.21l-12.13-12.774zm-40.071 14.583l-6.874 28.24 25.76-1.115 19.685-41.845-38.571 14.72zm-6.105 29.436l30.176 34.922-5.133-35.831-25.043.909zm-1.924-1.438l6.614-27.14-25.711 17.375 19.097 9.765zm6.96-28.797l.211-14.477-24.808 31.01 24.597-16.533zm-.577-15.549l-42.096.679 15.473 32.806 26.623-33.485zm-51.89-54.565l-58.949 25.57L129.769 164l10.572-21.301zm68.569-33.395l10.917-52.452-75.165 82.588 64.248-30.136zm37.636 24.481l8.545-13.789-42.684-9.011 34.139 22.8zm8.581-14.987l1.527-55.361-46.022 45.913 44.495 9.449zm1.393-56.808l-11.554-19.971-33.32 64.635L256.52 61.99zm78.296-43.453l.262.041L332.517.82l-20.205 25.544 22.504-7.828zM333.552-.667l2.685 18.694 70.426-20.721-72.453 1.242-.658.785zm77.453 42.774l35.463 36.215-36.759-79.12 1.296 42.905zm37.135 39.483l-.307-.332-.675 29.04.996.693-.174-.027 51.392 44.287-51.232-73.661zm15.871 80.545l99.377 17.687-60.964-20.393-38.413 2.706zm215.647 51.862l-61.59-4.586 44.105 15.249 17.485-10.663zm-65.936-3.865l-30.679 65.678 51.385-42.992-20.706-22.686zm14.316 102.164l20.313-29.329-64.909-4.529 44.596 33.858zm20.279-27.18l-19.229 27.913.476.39-.47.149 14.491 32.021 4.732-60.473zm-5.033 62.992l-14.754-32.631-4.353 42.981 51.872 27.697-32.765-38.047zm-4.374 37.339l14.259 44.118 24.026-40.793-38.285-3.325zm14.941 45.301l24.344 12.477-.807-52.618-23.537 40.141zm24.405 14.007l-23.984-12.295 23.692 50.424.292-38.129zm-40.54-59.112l-22.62 5.687 36.597 37.563-13.977-43.25zm-15.74-24.326l-20.21 21.33 11.828 7.405 8.382-28.735zm-40.296 52.278l18.05-30.313-75.555-10.706 57.151 41.186s.174-.163.354-.167zm1.252.384l22.016-2.93-4.42-26.566-17.596 29.496zm-60.294-42.844l51.837-40.324-60.117 16.74 8.28 23.584zm38.736-71.686l-95.67 42.983 47.662 4.206 48.008-47.189zm-103.21 25.787l-36.068 18.782 40.414-1.763-4.346-17.019zm-33.013-25.445l-14.102-38.201-24.34 72.518 38.442-34.317zm-99.396 32.364c.12-.079.263-.111.402-.09a.57.57 0 0 1 .355.208l.424.54 39.878-31.846-55.466-11.59 14.407 42.778zm-15.391-44.514l34.454-69.846-84.66 36.007 50.206 33.839zm32.978-70.518l-95.35-4.391 11.228 40.196 84.122-35.805zm-97.148-3.37l-30.572 27.203 33.149 11.274-2.577-38.477zm-26.948 65.082l26.415-19.42-31.565-17.079 5.15 36.499zm31.164 4.821l-30.141-3.142 17.811 21.542 12.33-18.4zm-31.67-3.093l-.339.264.057-.371-23.877 3.592 41.844 17.53-17.685-21.015zm-1.09-1.246l-30.298-35.48 4.009 38.858 1.064.45 25.225-3.828zm-31.679-36.58l-19.048-9.695 22.934 47.614-3.886-37.919zm-37.079-45.241l-14.407-8.659 5.45 38.225 8.957-29.566zm.857-.913l36.753-.65-49.805-7.705 13.052 8.355zm-19.895-31.399l-24.376 10.865 27.469 10.586-3.093-21.451zm-3.363.145l-44.66 3.957 22.126 5.989 22.534-9.946zm-84.138-3.417l-7.561 6.465 47.806-8.096-40.244 1.631zm-9.27 6.328l8.307-7.047-11.662-21.002 3.355 28.049zm59.116-8.532l-10.879 7.282 57.505-24.716-10.854.95L92.2 159.709zm55.219-44.648l-5.685 25.763 72.212-79.306-66.527 53.543zM222.37 54.68l-1.221.952-10.418 49.995 32.673-63.532L222.37 54.68zm45.028-38.526l43.128 10.378L332.44-1.187l-65.042 17.341zm68.207-18.91l71.22-1.179-41.295-22.228-29.925 23.407zm365.116 280.901l-4.942 89.776 11.427-23.164-6.485-66.612zm-18.951 58.115l12.966 31.848 4.731-88.414-7.103 39.166-10.594 17.4zm10.322-22.195l7.841-43.36-11.818-16.907 3.977 60.267zm-57.424-80.289l-51.578 43.469 65.21 4.512-13.632-47.981zm43.89 161.798l.727 42.532 2.061-11.973-2.788-30.559zm27.691 88.963l-25.325-36.009 21.261 55.339 4.064-19.33zm-20.265 53.889l20.909 4.216-25.527-14.656-.596.573.029-.186-13.798 10.537 18.968-.582.015.098zm-17.524-23.208l-2.595 23.136 14.94-11.564-2.732-38.438-9.613 26.866zm-55.388-123.914l-11.579-7.272 4.208 25.425 7.371-18.153zm-8.069 20.928l-22.248 2.894 30.891 42.446-8.643-45.34zm16.625 63.143l-6.565-13.276-4.381 38.732 10.946-25.456zm-11.656 31.587l-.086.557-.279-.899-6.82 21.533 15.266-2.676-8.081-18.515zm-31.178 11.46l13.383-22.893-10.355 13.921-3.028 8.972zm8.398-75.492l11.415 43.424 9.202 14.349-24.296-78.712 3.679 20.939zm-47.194-52.919l31.538 18.216-44.695-32.258 13.157 14.042zm-29.644-42.602l-44.4-3.7 20.396 11.391 24.004-7.691zm-48.506-3.956l-34.567 1.559 29.446 4.555 5.121-6.114zm-45.328 2.492l-29.749 3.761 10.526 7.141 19.223-10.902zm-31.402-11.194l23.122-68.494-27.743 65.404 4.621 3.09zm-16.233-30.009l1.79 33.731 8.307-7.047-10.097-26.684zm.772 36.646l-16.44 22.801 14.28 33.382 3.256-32.032-1.096-24.151zm10.277 82.785l-11.656-22.205-2.475 38.361 14.131-16.156zm-51.196 31.553l7.935 5.187 26.737-18.61-26.268-.42-.163 1.052-.028.185-8.213 12.606zm10.056-69.248l-1.671 51.094 14.617-71.933-.138-.845c-.018-.15.016-.303.096-.431s.201-.22.34-.262l-24.714-29.167-.787-.121 12.257 51.665zm-56.136-101.918l41.63 46.864-14.319-42.385c-.088-.007-.173-.041-.243-.096s-.125-.132-.156-.219c-.022-.072-.028-.149-.017-.225a.5.5 0 0 1 .084-.208l-48.154-32.445 21.175 28.714zm-24.652-31.881l-10.656-38.112 2.648 37.633 8.008.479zm-9.379.481l-31.21-10.309 29.13 15.658 2.08-5.349zm-28.294 25.972l30.293 3.134-4.314-22.241-25.979 19.107zm-20.71 24.959l35.741-1.44-43.271-18.13-.888.148-1.423 6.115 9.841 13.307zm-60.725-75.921l-5.182-36.283-2.767 24.441 7.949 11.842zm-84.615-51.802l45.303-.785-21.757-5.868-.612-.095a.57.57 0 0 1-.352.061c-.12-.019-.231-.076-.317-.165l-39.301.542 17.037 6.31z" fill="url(#C)"/></g><path d="M20.692 110.277l21.651 46.845 33.064 1.218 23.899-4.507 39.695-15.814 7.13-23.923 46.624-68.312.232-.344 9.862 2.951 2.992-7.774 15.603 12.298 22.553-23.756-.418-.381.844-.059 2.62-2.287 70.741-27.579 46.918-26.069.587-.321c.159-.039.326-.013.466.072l50.048-3.124L446.896 73.6l63.509 35.168 1.476.482-54.935 25.652 3.753 21.045-.024.155-3.808 54.882 20.421 18.745 79.498.641-.443-.417.67.103-24.047-37.332a.53.53 0 0 1 .033-.216.5.5 0 0 1 .35.054h0l14.601 2.005-12.194-47.061-56.422 4.608-4.298-13.083a.69.69 0 0 1 .024-.466.66.66 0 0 1 .309-.338c.145-.052.301-.046.44.017s.25.176.313.321l4.207 11.359 56.058-4.57.292.045 12.453 48.084 12.761 1.752 39.858 5.691-54.768-47.534 9.086-12.85a.63.63 0 0 1 .389-.249c.153-.029.311.004.44.092a.62.62 0 0 1 .222.41.66.66 0 0 1-.118.462l-8.432 11.906 55.249 48.083.262.04c.088-.101.206-.168.335-.189s.258.007.368.076l.875.516 19.339 5.114.262.041 2.534.392 47.275-8.717.441-.153 22.385 44.994 25.296-2.739a.56.56 0 0 1 .422.133c.118.101.193.248.21.408.005.082-.005.165-.03.243a.63.63 0 0 1-.116.213c-.051.063-.113.115-.183.152s-.145.06-.223.067l-25.203 2.722-7.152 77.459a.5.5 0 0 1-.033.217l27.532 17.121a.61.61 0 0 1 .265.381.66.66 0 0 1-.069.473c-.057.1-.139.181-.237.234s-.208.073-.316.06l-.233-.036-27.91-16.989-.175-.027-.262-.041-1.172-.91-.291-.045.196-21.701-3.069-41.849-21.031-29.262-26.092 2.87.409.633a.69.69 0 0 1-.119.774l6.205 19.651a.61.61 0 0 1 .246.385.66.66 0 0 1-.08.464c-.053.103-.134.187-.233.24s-.211.072-.319.055l-.321-.05-11.528 16.686-.067.433 8.054 3.463 1.665 13.912c.014.084.001.171-.039.247l5.109 48.912 54.421 55.938 15.719.373c.077.003.154.023.224.057a.58.58 0 0 1 .184.146.61.61 0 0 1 .116.21c.025.078.035.16.03.243a.69.69 0 0 1-.194.42c-.111.111-.255.177-.406.184l-15.355-.412-18.895 43.488 27.944 50.702-6.764 11.91 16.888 2.264-14.446 9.519 8.088 33.311-36.783-.305-7.415-4.315-11.264-2.566 16.624-9.91 11.073-29.745 2.697-9.53-3.757-27.573-7.876-20.226-19.223-21.094 7.813-20.429-10.461-22.02c-.022-.077-.028-.159-.015-.24a.55.55 0 0 1 .087-.224l-44.968-12.754-27.183 23.61 28.951 38.217.248.324-18.468 36.869 30.78 8.848-12.525-22.751a.62.62 0 0 1-.092-.21.63.63 0 0 1 .07-.452c.04-.068.091-.126.151-.173.127-.097.283-.137.436-.114s.289.11.38.24l13.456 24.447-9.655 12.288-2.764 14.778.137.275 5.869 28.374-40.157-.668-8.607-8.555 20.525-30.12.797-24.428.047-.31-.103-.681-.221-1.46-15.437-45.377-29.401-13.134c-.145-.064-.258-.187-.315-.341s-.054-.328.01-.482.181-.276.328-.339a.56.56 0 0 1 .454.001l28.921 12.964 4.25-27.474a.44.44 0 0 1 .029-.186l-26.756-1.509c-.05.065-.114.117-.187.15a.46.46 0 0 1-.23.039l-.233-.036a.51.51 0 0 1-.204-.032h0a.58.58 0 0 1-.292-.268c-.065-.122-.089-.265-.068-.405s.088-.27.187-.367.226-.155.36-.167l-28.37-47.948-.59-1.2-19.688-16.351 8.444 29.469-.086.557.23.828 1.735 19.625 14.665-2.262 14.195 13.886c.111.108.178.257.186.418s-.042.32-.141.444a.57.57 0 0 1-.23.172c-.089.036-.185.048-.279.035-.119.01-.239-.009-.349-.055l-13.806-13.508-15.276 2.357-1.875-21.04-32.667 4.703-16.142-9.973a.7.7 0 0 1-.238.185l-45.204 17.115-4.349 8.831a.6.6 0 0 1-.246.26c-.105.058-.224.079-.34.061l-.204-.031c-.072-.033-.136-.081-.188-.141s-.093-.133-.117-.211a.63.63 0 0 1-.025-.244.62.62 0 0 1 .071-.236l4.348-8.832.039-.247.204.031 43.72-16.964-57.591-13.281-.204-.032-18.013-4.434-4.365 7.974-12.174 20.862.312.872-.407-.063 2.009 40.988 10.352 25.234.175.407a.73.73 0 0 1-.067.434l-.013 7.22-13.991 11.205-.254 21.883-37.663-3.292-.321-.05-3.928-8.147.198-.318 8.141-14.074 2.508-16.212-2.801-48.396-17.008-46.982c-.09-.08-.157-.184-.197-.301s-.049-.244-.028-.368l-.336-.907-61.541-71.993-.295.367.047-.31-3.696 2.881-1.043 9.058.233 2.539 1.87 12.01-4.058 15.434-17.054 10.192-.146-.023-37.476-1.615-.156-.341-6.066-16.303 1.057-9.341-27.241-44.257-26.332-5.214-.146-.212c-2.757-4.575-4.511-9.758-5.138-15.178-.266-6.377.845-24.737.964-28.014l-5.035-1.381-.204-.031-.175-.027-15.712-4.268-62.412-3.319-14.089-7.629-15.521-66.425 3.722 6.595zm20.897 48.059l-14.524-31.424 17.158 40.226 27.377-7.708-30.011-1.094zm58.2-3.383L75.735 159.5l-29.651 8.338 13.33 4.438 16.636-4.206 42.364-20.532-18.623 7.415zm-21.58 13.42l25.743 4.394 6.359-1.392 18.783-27.729-50.885 24.727zm34.051 2.353l19.107-7.847 14.035-4.165-14.107-15.804-19.035 27.816zm34.394-12.198l6.923 1.514-9.88-15.942-11.204-1.417 14.161 15.845zm-6.671-19.533l-6.371 2.626 9.824 1.076-.357-8.102-2.903 4.113-.193.287zm48.903-.925l-5.045-5.944-18.36 14.583 23.405-8.639zm-18.161 8.088l13.27-3.269 22.469.308-9.093-4.068-7.391-.224-19.255 7.253zm165.197 292.773l13.292-18.06-.204-.032.595-.573-8.38-29.491-2.962 33.407-2.341 14.749zm14.495-20.25l17.614-59.304-26.449 28.317 8.835 30.987zm.317 2.964l-1.491 19.854 30.335-15.646-28.704-4.725-.14.517zm38.741-423.93l-.291-.045-27.468 19.479 19.485 3.014 8.274-22.448zm-6.583 21.157l16.173-13.75-8.362-7.439-7.811 21.189zm-115.004 74.08l-1.499 22.99 28.935-7.372-27.436-15.618zm26.35 13.581l-9.881-11.508-14.388-2.226 24.269 13.734zm-9.282-12.682l12.197 14.273 8.05-2.303-1.232-15.555-.035-.734.047-.309.063-.402 7.886-33.628-48.481-7.975-8.787 31.936 13.064 11.937 17.228 2.76zm92.971 83l5.43 1.917 5.264-25.353 2.577-27.067-15.362 34.72 1.411 15.361 1.232-.063-.552.485zm3.214 108.968l19.456 1.077-36.5-26.428-8.276 8.002 25.32 17.349zm-23.747-14.793l8.829 12.327a.59.59 0 0 1 .249.108.64.64 0 0 1 .179.211l.336.718.117.208 11.479.984-21.189-14.556zm5.775-11.303l-30.126-2.285 21.719 10.361 8.407-8.076zm2.312-1.068l78.603-22.688-31.772-27.883-11.191-.337-43.095 32.204-.146-.023-29.689-2.407 2.908 18.222-.558.136 34.94 2.776zm-51.5-171.212l-8.081 1.918 16.192 12.737 21.129 4.726-27.614-19.288-1.888.056.262-.15zm.885-1.479l-2.217-29.045-7.338 31.431 9.555-2.387zm-9.647 4.527l1.197 15.201 40.035 4.546-.756-1.479-24.008-5.393L305.22 90.49zm41.138 17.072l2.181 3.252-.115.742-12.189 43.131 29.121-31.515 16.035-12.852 7.65-25.934-71.503 2.814 28.82 20.362zm21.914 44.573l-.043.279 6.819 7.39 16.327-36.915-9.515-10.976-15.221 12.218 1.494 26.589a.6.6 0 0 1 .23.291.67.67 0 0 1 .024.382l-.115.742zm-2.703-26.87l-29.232 31.655.291.045 26.242 13.12 4.266-18.126-1.567-26.694zm17.128-14.331l9.603 10.989 6.943-4.976-9.208-30.887-7.338 24.874zm19.078 95.677l10.206.344 1.103-26.409c-5.033 10.943-10.302 22.831-11.266 25.977l-.043.088zm12.038-29.817l26.885-31.132-45.648 4.945 18.763 26.187zm-9.195-10.926l-.054 6.327-.51 11.199 8.965-5.899-8.401-11.627zm36.15-21.621l-17.884-21.267-22.644-4.96-5.639 31.25 46.167-5.023zm-37.366 20.039l-9.662-13.501-3.774 2.805 13.358 17.178.054-6.328.024-.154zm-9.97-14.595l5.544-30.822-6.343 4.563-2.761 29.035 3.56-2.776zm6.869-32.834l21.289 4.656-30.389-34.892 9.1 30.236zm23.28 5.09l18.01 21.224.505-29.289-49.373-27.659 30.858 35.724zm19.037 22.682l5.328 9.124-4.928-33.107-.4 23.983zm.209 2.693l2.454 30.982 3.311-19.668-.275-1.88-5.49-9.434zm-1.254-.954l-26.986 31.211a.75.75 0 0 1-.039.248l21.868 34.46 7.973-29.369-2.816-36.55zm-5.416 67.59l-21.901-34.434-1.134 27.766 31.514 27.621-8.479-20.953zm-24.041-34.48l-8.5 5.591-7.759 6.593c.814 1.868 3.983 8.948 5.258 12.851 2.225-5.516 8.229-18.685 11.001-25.035zm-9.404 4.881l.538-11.575-13.859-17.984-5.081 24.558 10.884 11.188 7.518-6.187zm-28.136-23.044l-6.796-7.545-4.016 16.897 12.124 5.487-1.312-14.839zm-12.178 10.091l-26.364-13.107-.553-.085-39.498 21.672 78.043-3.259-11.628-5.221zm-15.397-58.55L305.8 137.054l29.132 18.921 12.069-43.119zm-.285-1.247l-40.413-4.605-.593 28.705 41.006-24.1zm-41.567-4.467l-6.707 1.909-.932.236 7.054 23.996.585-26.141zm-38.57-13.823l-35.628 18.248 34.134 4.52 1.494-22.768zm-5.653 24.786l-59.921 9.105 16.674 9.232 43.247-18.337zm-42.09 19.149l14.317 9.818 29.865-28.612-44.182 18.794zm42.509-20.51l-32.148-4.244-27.882 5.19-21.095 9.124 18.993-.547 62.132-9.523zm-83.799 9.814l23.266-10.054 23.648-4.42-46.206-3.98-.708 18.454zm-.485-18.069l-23.795 12.698 23.004 5.522.791-18.22zm-24.026 24.605l30.547-2.371-6.727-2.592-23.82 4.963zm74.028-22.033l-20.915-16.129-.263-.041-25.731 12.113 46.909 4.057zm2.106.072l36.637-18.789-57.766 2.5 21.129 16.289zm36.736-20.009L253.9 80.048l-43.626 13.463 55.631-2.387zm-3.787-43.765l-38.597 7.176 30.244 23.687 8.353-30.863zm1.686-1.45l48.819 7.711a.53.53 0 0 1 .354-.167.53.53 0 0 1 .349.099c.102.073.178.181.215.305h0l2.402 31.703 62.81-53.231-16.801-5.134c-.08.02-.163.007-.233-.036-.072-.08-.128-.175-.165-.279h0l16.774-4.913-18.611-2.879-54.939 6.01-.606.065c-.11.027-.224.009-.32-.05h0l-57.247 4.735 17.199 16.061zm115.597-14.684l1.47-9.498-16.678 4.865 15.208 4.634zm6.08-32.165l-75.087 24.245 49.629-6.198L385.481-.939zm2.499-2.084l-37.74-4.92-43.03 31.01 80.77-26.091zm-8.54 36.504L317.11 86.5l72.017-2.861-.543-1.89.326.399-9.47-48.667zm10.526 47.627l2.969-16.109-11.462-27.307 8.493 43.416zm4.04-16.862L419.9 80.385l-38.059-45.075 12.165 28.936zm-.041 1.419l-3.276 17.709 30.123-.979-26.847-16.73zm-1.76 18.894l48.556 27.152-18.219-28.162-30.337 1.009zm50.178 27.467l3.593-12.623-20.99-14.303 17.397 26.926zm3.939-13.9l1.727-7.304-21.671-6.235 19.944 13.54zm.279 3.401l-3.429 11.951 6.007 40.212 2.957-26.058-5.535-26.105zm-.96 81.585l-8.176 29.908 18.072-2.305-6.451-48.137-3.445 20.534zm-8.129 31.15l8.138 20.267 9.433-22.427-17.571 2.16zm7.63 23.356l-.175-.027c-.122-.076-.219-.191-.277-.328l-78.216 22.304 89.734 21.802-10.712-43.918c-.106.049-.223.064-.335.044l-.019.123zm-78.199 23.543l35.781 25.873 52.884-4.491-88.665-21.382zm35.493 27.349l-13.787 6.611 29.683 17.676-15.896-24.287zm-2.184-.338l-18.011-.98 5.276 7.152 12.735-6.172zm-19.695-1.082l-12.891-1.107 11.766 26.118 7.16-16.982-6.035-8.029zm-1.104 27.96l-.244-.544-9.487 6.959 15.133 5.509-5.422-11.8.02-.124zm-.756-1.669l-12.673-28.159-10.552-14.685 1.221 48.976 11.199 1.447.524.081 10.281-7.66zm-10.851 8.839l-11.164-1.474 11.712 33.017-.548-31.543zm-12.06-.503l-10.51 27.646 22.769 7.038-12.259-34.684zm-1.574-52.673l-23.438-11.198 24.639 59.726-1.201-48.528zm-24.743-11.241l-12.307 6.491-.186 12.96 36.81 39.465-24.317-58.916zm.349-2.259l-3.016-19.062 30.723 2.472 42.96-32.099.062-.402c-1.676-4.965-3.613-9.823-5.801-14.551l-11.298-11.79-6.673-2.363-69.623 57.752 22.666 20.043zm45.108-77.796l-80.828 3.336 12.469 53.376 68.359-56.712zm-40.253-20.483l-28.865-18.911-.053 2.462-.704-2.389-10.855 41.056 40.477-22.218zm-30.243-20.994l-7.69-26.248-41.702 50.572 49.32-24.05.072-.274zm-9.059-26.459l-29.138 7.53-12.118 42.477 41.256-50.007zm-30.737 8.803l-30.499 29.243 18.391 13.362 12.108-42.605zm-30.656 30.644l6.533 45.679 11.644-32.476-18.177-13.203zm-.67 4.331l-2.827 44.105 3.025 3.002-1.468 5.443 3.218-1.529 4.337-7.408-6.285-43.613zm1.728 52.444l-3.006 1.309 2.276 27.121.73-28.43zm.186 39.09l-2.243 19.706 8.459-1.86 5.036 4.264 2.906-9.339-13.208-49.563-.95 36.792zm5.957 19.327l-9.473 2.051 2.444-21.386-3.097-36.277-21.361 60.973 11.405 4.933 23.356 4.785 1.699-10.983-4.973-4.096zm-20.861 11.472l-10.56-4.801 4.37 24.182 6.242-1.791-.052-17.59zm1.168 17.7l1.224.569 3.358-7.052-4.547-9.162-.035 15.645zm-13.181-23.328l-7.776-23.379.436 39.984 11.741 8.152-4.401-24.757zm.578-2.002l19.587-55.862-6.804 11.208-4.893 1.555-.002 3.675-3.819 4.256-3.762-4.985-7.544 1.145-1.047 13.714 8.284 25.294zm.726-41.514l3.334 4.476 2.634-2.761.039-4.112 5.301-1.683 9.328-15.379 1.889-6.043-2.276-2.253-12.356 13.168-9.038-.955-1.727 11.169-11.143-2.579 11.352 7.585 2.663-.633zm-1.279-16.988l8.8.949 11.819-12.586-28.814-15.006-1.306 13.071 9.501 13.572zm-8.038-28.044l29.076 15.237 3.081-48.057-30.491 15.305-1.743 17.439.077.076zm17.253-26.699l13.965-6.995-13.65-4.487-.315 11.482zm11.86-8.999l-12.034-8.388-18.35-10.156-18.929.524 37.042 14.252a.56.56 0 0 1 .25-.124.53.53 0 0 1 .274.015l11.747 3.877zm-47.257-13.963l-37.281 2.912 17.022 13.151 20.259-16.063zm-7.963-4.622l-22.319-5.322-8.312 11.703 30.631-6.381zm-26.873-12.901l-6.181 20.681 10.111-14.275 26-13.846.058-.371 14.473-57.508-44.461 65.32zm31.326-8.174l25.989-12.231-14.373-13.121 6.862-17.946-3.952-14.741-14.526 58.039zm26.613-13.37l-7.602-27.977-5.998 15.641 13.6 12.336zm-11.154-46.077l3.763 14.236 4.502-11.754-8.265-2.482zm12.287-4.435L204 48.664l16.393 4.88-14.009-11.038zm14.813 12.397l-.024.155-17.471-5.237-5.047 13.348 8.12 30.211 46.23-14.295-30.838-24.285-.97.103zm1.424-1.491l39.64-7.363-17.369-16.119-22.271 23.482zm25.134-25.986l-1.308 1.128 57.397-4.743L316.702.459l-68.947 26.969zM318.404-.133l-12.437 22.564 43.654-31.579 13.597-15.795-44.814 24.81zm47.146-25.812L351.203-9.157l37.658 4.875-23.214-21.902-.097.238zm1.45-.504L390.924-3.74c.073.085.119.191.132.305l8.683 7.679 14.85-33.532L367-26.449zm48.02-.808L400.711 5.092l.233.036-18.803 16.099-1.637 10.581 41.645 49.463-7.129-108.528zm30.834 101.424L416.428-24.79l7.078 107.316 24.656 6.982-2.308-15.342zm1.312.963l2.094 14.802 55.468 16.976-57.562-31.778zm61.329 34.229l-58.63-17.94 7.39 15.653-.356 26.397 51.596-24.11zm-52.837 24.615l.419-26.609-7.166-15.175-1.573 6.695-.043.278 6.001 28.3 3.757 14.267-1.395-7.756zm3.905 21.988l-6.644-25.295-3.129 27.743-.043.278 6.347 47.266 3.469-49.992zm-2.941 56.22l-.233-.036-9.719 23.111 28.958-5.974-19.006-17.101zm-10.167 24.467l10.701 43.6 19.202-49.713-29.903 6.113zm31.505-5.865l11.406 30.561 66.204-29.865-77.61-.696zm70.466-35.827l-13.664-1.892 22.032 34.36-8.368-32.468zm12.932 1.811l-11.679-1.617 8.431 32.445 3.248-30.828zm47.142 62.7l-3.941 15.452 7.605 43.374-3.664-58.826zm5.432 68.603l17.299-56.881.048-.31-21.729-15.304-.029.185 4.411 72.31zm-5.551-72.264l-.101-1.473-.761-6.454-2.001 19.3 2.863-11.373zm1.073-1.735l21.778 15.376-1.614-24.073-13.606-8.441-7.691 4.417-.149.96 1.282 11.761zm5.397-17.92l-34.073-21.3 26.691 25.639 7.382-4.339zm-7.926 6.314l.067-.433-46.592-9.964 43.084 41.513.203-.159 3.238-30.957zm-1.159-1.953l-29.628-28.438-16.649 18.554 46.277 9.884zm-30.45-29.294l-12.821-13.515-3.377 31.474 16.198-17.959zm27.952-8.728l-39.653-5.279 12.826 13.484 39.665 24.669a.58.58 0 0 1 .332.067c.102.055.188.139.246.244l13.431 8.413c.12-.007.239.025.341.091a.6.6 0 0 1 .227.283l10.632 6.65-38.047-48.622zm24.568 6.208l-.204-.031-1.311-.203-16.989-4.497 17.974 11.049 39.85-13.731-39.32 7.413zm58.425 49.335l3.099 42.233-.275 21.056.462.293 7.389-77.454-20.927-42.076 10.252 55.948zm-21.591-30.078l19.97 27.831-10.084-54.338-10.522 26.567.636-.06zm-1.941.207l11.053-27.879-45.363 15.633a.66.66 0 0 1-.072.464.58.58 0 0 1-.198.199c-.081.048-.171.075-.262.079l9.328 14.305 25.514-2.801zm-25.972 4.219l-11.047-16.884-20.583-12.688 37.503 48.094-5.873-18.522zm6.194 21.265l-12.211-7.623 1.569 23.21 10.642-15.587zm-3.422 22.121l-7.383-3.17-17 55.914 11.881-12.607 14.252-25.42-1.75-14.717zm-24.524 54.623l29.728 7.165-17.271-20.412-12.457 13.247zm26.511-37.779l-13.27 23.703 17.393 20.589-4.123-44.292zm47.541 230.347l-.072.464 7.07-4.64-6.998 4.176zm8.192-6.304l-5.914-10.926-2.068 15.679 7.982-4.753zm-5.647-13.039l6.68 12.343 6.581-3.987-2.301-9.416-13.64-1.857 2.68 2.917zm25.755 1.039l-13.494-1.835 2.095 8.625 11.399-6.79zm-11.985 9.423l-6.043 3.976 12.77 23.676-6.727-27.652zm-7.036 4.614l-9.513 6.163-.196 1.269 23.346 17.772-13.637-25.204zm13.489 26.734l-23.641-17.977-9.28 17.572 32.921.405zm-24.315-19.602l-4.152 2.748 4.119-2.531.033-.217zm-25.191 13.052l7.953 1.8 3.365-5.561.613-1.648.033-.217.652-1.705-12.616 7.331zm9.036 2.316l6.312 3.733 8.863-16.813-11.278 6.587-3.897 6.493zm4.682-9.254l11.688-7.696.087-.557-11.142 6.672-.633 1.581zm1.196-3.49l10.682-6.394 2.382-18.101-2.816-3.001-10.248 27.496zm10.764-29.096l13.208 1.758-10.911-9.861-2.297 8.103zm-1.474-37.705l.225.479 3.796 27.705 12.291 11.151 6.473-11.385-26.029-47.269 3.341 18.891c.041.144.037.298-.009.442l-.088-.014zm-7.671-19.814l5.778 14.896-3.095-17.585-.122-.178 18.968-43.571-31.427-.807 9.633 34.12a.57.57 0 0 1-.058.372l.323 12.753zm-10.564-45.257l-.641 4.146 6.723 16.88-6.082-21.026zm-8.391 24.362l17.856 19.521-.175-11.4-10.52-26.654-7.161 18.533zm6.814-22.072l.737-4.764-9.118-13.354 8.381 18.118zm-9.304-21.207l11.054 15.681 31.131.792-52.087-53.486 9.902 37.013zm-1.375-.561l-10.033-37.508-33.649 24.731a.6.6 0 0 1-.256.309l43.938 12.468zm-44.281-13.725l33.164-24.49-30.587-7.393-2.577 31.883zm1.445-32.47a.68.68 0 0 1-.229-.447l-.077-1.627-7.364-42.038 5.526 71.849 2.144-27.737zm-2.943 32.904l-6.657-87.864-48.264 59.061 54.921 28.803zm-8.394-87.626l-74.213 60.432 26.278-1.954c.105-.156.26-.267.436-.312l47.499-58.166zm17.527 252.98l-5.462-26.188-31.351 25.689 36.813.499zm-45.768-8.157l6.978 6.94 10.682-33.195-17.66 26.255zm20.041-29.688l-11.569 36.226 31.56-25.879-19.274-33.489-.717 23.142zm20.38 8.792l2.581-13.793 8.963-11.286-31.12-8.964 19.576 34.043zm-20.13-36.631l17.675-35.598-27.729-36.476 10.054 72.074zm-15.504-45.515l13.512 39.694-9.198-66.429-4.314 26.735zm4.255-29.627l26.286-22.83-52.096 21.372 25.81 1.458zm-27.156-2.205l53.056-21.793-53.687-28.105.631 49.898zm-1.191-1.357l-.605-48.721-26.908 1.983 27.513 46.738zm48.148-110.558l-42.996-41.499.387 1.549-1.291-2.068-31.635 103.481 75.535-61.463zm-76.782 61.619l31.708-103.756-67.542 30.418 35.834 73.338zm-1.656-.668l-32.803-67.103 14.063 51.754.291.045 18.449 15.304zm-43.3 20.609l28.064-4.053-42.19-4.69 14.126 8.743zm32.124-4.851l-8.361-29.235-38.634 23.993 46.995 5.242zm-48.922-5.509l40.122-24.934a.56.56 0 0 1 .057-.371l-15.657-57.64-11.406-30.561-19.453 50.37.2.823-.669-.103-.862.944-51.958 4.285.35.244-.874-.135 16.832 26.142-.209 9.06 43.527 21.876zm-4.845-1.066l-39.116-19.737-13.727 7.38 52.843 12.357zm-54.707-12.645l14.924-8.177.191-7.986-31.463 12.145 16.348 4.018zm14.346-17.169l-31.189-18.732-7.474 17.662 6.211 13.632 32.452-12.562zm-33.6 13.62l-14.132-5.037 10.827 11.369 3.305-6.332zm-4.128 7.408l-12.057-12.668.715 32.202 11.342-19.534zm-12.547 25.589l-16.916 56.909 18.905-18.491-1.989-38.418zm2.162 39.807l-19.311 18.998 29.082 4.784-9.771-23.782zm10.03 31.552l.043-5.094-10.012 13.056 9.969-7.962zm-1.152-5.469l-29.156 14.973 16.526 1.321 12.63-16.294zm-12.822 17.532l-17.055-1.372 16.875 21.238.18-19.866zm-18.535-1.252l-11.264 8.617-.01 4.116 27.833 8.044-16.559-20.777zm-17.74 18.291l30.397 2.643-24.656-6.982-8.695-1.631 2.954 5.97zm4.194-19.405a.45.45 0 0 1-.157.144c-.063.035-.132.053-.201.054l-6.9 11.827 8.374 1.58.01-4.497 11.875-8.902.388-.194 1.501-19.726-14.89 19.714zm6.726-56.394l26.416-28.29-22.915-7.062-3.501 35.352zm-3.856 30.323l2.535-28.532-4.732-9.317 2.197 37.849zm-2.387-40.856l5.379 10.146 3.495-35.321-.145-.022.033-.217-24.926-19.696 16.164 45.11zm9.124-26.594l10.586-27.951-36.107 7.467 25.521 20.484zm-26.422-21.986l.215.54 36.98-7.711-37.807-40.538.612 47.709zm-61.653-74.544l.013 1.459-.105.681 60.485 70.72-.627-47.616.174-14.229 13.005-6.954-23.002-20.19-.339.265-12.979-55.483-.116-.018a.56.56 0 0 1-.212-.093c-.064-.046-.118-.104-.16-.172s-.071-.145-.085-.226-.012-.164.004-.244a.59.59 0 0 1 .125-.279c.065-.08.149-.139.243-.171l.043-.279.379.059 10.994-41.574-50.493 24.502 2.653 89.842zm-3.685-86.833l-11.49 32.056 13.97 53.703-2.48-85.759zm2.034 88.637l-14.404-55.133-3.646 6.215c.112.082.189.208.215.35l13.697 51.412 4.138-2.844zm-3.764 27.612l-1.845-11.785-.249-2.636.396-3.519-1.543 4.957-1.804 11.664 3.851 5.76 1.194-4.441zm-4.835 15.251l-12.518-3.901-1.958 12.654 14.476-8.753zm-12.715-5.135l13.767 4.315 2.18-8.311-4.469-6.584-22.546-4.628 5.263 10.318 5.805 4.89zm-3.172 14.525l2.121-13.706-5.148-4.313-3.344 6.959 3.144 10.909 3.227.151zm-4.295-.189l-3.036-10.449-1.646-.73-7.09 2.071-17.686 7.909 29.458 1.199zm-37.567-17.026l5.76 15.4 18.548-8.472-12.237-8.229-11.123-7.138-.948 8.439zm-57.799-74.202c.6 5.112 2.245 10.004 4.821 14.337l24.739 4.904-28.728-45.628c-.266 5.186-.951 20.603-.832 26.387zm1.011-28.894l-.043.279 30.214 48.17-.029.186 27.406 44.536 10.069 6.436-40.057-87.106c-.043-.063-.074-.134-.091-.21a.63.63 0 0 1 .07-.453c.039-.067.09-.126.151-.173a.57.57 0 0 1 .435-.113c.152.023.289.109.38.24l40.017 86.783-.389-41.244a.85.85 0 0 1 .043-.278l1.023-13.939.11-.712 4.613-.712-15.866-10.596 16.522 3.855 1.579-10.21-9.599-13.713-.243-.355 1.401-13.88-38.67-2.181-.758-.498c-.005-.063.005-.126.028-.185h0l26.706-19.755 15.91 3.57 14.251-7.3.338-12.207-32.088-12.346 5.39 6.6 7.479.238 14.815 6.601-28.292-.449-22.35 5.476-17.556-13.55.311 7.239 10.28 16.638a.55.55 0 0 1 .075.376.55.55 0 0 1-.185.336.41.41 0 0 1 .008.16c-.009.053-.028.104-.056.149a.58.58 0 0 1-.215.37.51.51 0 0 1-.396.106h0l-7.821-1.685-14.209 4.138-6.167 20.588 5.456.78zm31.028-6.636l36.773 2.109 1.73-17.156-38.503 15.047zm37.142-15.891l-12.973-2.894-23.115 16.984 36.088-14.09zm-68.746.991l-19.757 8.19-5.277 1.148 18.933 10.437 6.101-19.775zM47.03 176.76l62.121 3.274 10.701 2.922-16.139-8.832-27.481-4.727-16.917 4.289-14.462-4.834 2.176 7.908zm-13.783-7.296l12.301 6.655-2.225-7.979-22.982-54.243 12.906 55.567z" fill="url(#D)" style="mix-blend-mode:overlay"/><path d="M20.6924 110.277L42.3437 157.122L75.4075 158.34L99.3068 153.833L139.002 138.019L146.132 114.096L192.756 45.7841L192.988 45.4398L202.85 48.3911L205.842 40.6172L221.445 52.9151L243.998 29.1595L243.58 28.7781L244.424 28.7186L247.044 26.4312L317.785 -1.14761L364.703 -27.2164L365.29 -27.5375C365.449 -27.5764 365.616 -27.5507 365.756 -27.4654L415.804 -30.5891L446.896 73.5995L510.405 108.768L511.881 109.25L456.946 134.902L460.699 155.947C460.699 155.947 460.699 155.947 460.675 156.102L456.867 210.984L477.288 229.729L556.786 230.37L556.343 229.953L557.013 230.056L532.966 192.724C532.962 192.651 532.973 192.577 532.999 192.508C533.119 192.483 533.242 192.502 533.349 192.562V192.562L547.95 194.567L535.756 147.506L479.334 152.114L475.036 139.031C474.99 138.879 474.998 138.713 475.06 138.565C475.121 138.417 475.231 138.297 475.369 138.227C475.514 138.175 475.67 138.181 475.809 138.244C475.948 138.306 476.059 138.42 476.122 138.565L480.329 149.924L536.387 145.354L536.679 145.399L549.132 193.483L561.893 195.235L601.751 200.926L546.983 153.392L556.069 140.542C556.165 140.411 556.304 140.322 556.458 140.293C556.611 140.264 556.769 140.297 556.898 140.385C557.021 140.485 557.101 140.632 557.12 140.795C557.14 140.958 557.097 141.124 557.002 141.257L548.57 153.163L603.819 201.246L604.081 201.286C604.169 201.185 604.287 201.118 604.416 201.097C604.544 201.077 604.674 201.104 604.784 201.173L605.659 201.689L624.998 206.803L625.26 206.844L627.794 207.236L675.069 198.519L675.51 198.366L697.895 243.36L723.191 240.621C723.344 240.606 723.495 240.653 723.613 240.754C723.731 240.855 723.806 241.002 723.823 241.162C723.828 241.244 723.818 241.327 723.793 241.405C723.768 241.483 723.729 241.556 723.677 241.618C723.626 241.681 723.564 241.733 723.494 241.77C723.425 241.808 723.349 241.83 723.271 241.837L698.068 244.559L690.916 322.018C690.921 322.092 690.91 322.166 690.883 322.235L718.415 339.356C718.548 339.44 718.643 339.577 718.68 339.737C718.717 339.897 718.692 340.067 718.611 340.21C718.554 340.31 718.472 340.391 718.374 340.444C718.276 340.496 718.166 340.517 718.058 340.504L717.825 340.468L689.915 323.479L689.74 323.452L689.478 323.411L688.306 322.501L688.015 322.456L688.211 300.755L685.142 258.906L664.111 229.644L638.019 232.514L638.428 233.147C638.489 233.271 638.51 233.413 638.489 233.553C638.467 233.692 638.404 233.821 638.309 233.921L644.514 253.572C644.641 253.66 644.729 253.799 644.76 253.957C644.791 254.116 644.763 254.282 644.68 254.421C644.627 254.524 644.546 254.608 644.447 254.661C644.348 254.713 644.236 254.733 644.128 254.716L643.807 254.666L632.279 271.352L632.212 271.785L640.266 275.248L641.931 289.16C641.945 289.244 641.932 289.331 641.892 289.407L647.001 338.319L701.422 394.257L717.141 394.63C717.218 394.633 717.295 394.653 717.365 394.687C717.435 394.722 717.498 394.772 717.549 394.833C717.601 394.894 717.64 394.965 717.665 395.043C717.69 395.121 717.7 395.203 717.695 395.286C717.68 395.445 717.611 395.595 717.501 395.706C717.39 395.817 717.246 395.883 717.095 395.89L701.74 395.478L682.845 438.966L710.789 489.668L704.025 501.578L720.913 503.842L706.467 513.361L714.555 546.672L677.772 546.367L670.357 542.052L659.093 539.486L675.717 529.576L686.79 499.831L689.487 490.301L685.73 462.728L677.854 442.502L658.631 421.408L666.444 400.979L655.983 378.959C655.961 378.882 655.955 378.8 655.968 378.719C655.98 378.639 656.01 378.562 656.055 378.495L611.087 365.741L583.904 389.351L612.855 427.568L613.103 427.892L594.635 464.761L625.415 473.609L612.89 450.858C612.847 450.796 612.816 450.724 612.798 450.648C612.781 450.572 612.779 450.493 612.791 450.415C612.803 450.338 612.829 450.263 612.868 450.196C612.908 450.128 612.959 450.07 613.019 450.023C613.146 449.926 613.302 449.886 613.455 449.909C613.607 449.933 613.744 450.019 613.835 450.149L627.291 474.596L617.636 486.884L614.872 501.662L615.009 501.937L620.878 530.311L580.721 529.643L572.114 521.088L592.639 490.968L593.436 466.54L593.483 466.23L593.38 465.549L593.159 464.089L577.722 418.712L548.321 405.578C548.176 405.514 548.063 405.391 548.006 405.237C547.949 405.082 547.952 404.909 548.016 404.755C548.079 404.601 548.197 404.479 548.344 404.416C548.491 404.352 548.654 404.353 548.798 404.417L577.719 417.381L581.969 389.907C581.965 389.844 581.975 389.78 581.998 389.721L555.242 388.212C555.192 388.277 555.128 388.329 555.055 388.362C554.982 388.395 554.903 388.408 554.825 388.401L554.592 388.365C554.523 388.368 554.453 388.358 554.388 388.333V388.333C554.264 388.282 554.161 388.188 554.096 388.065C554.031 387.943 554.007 387.8 554.028 387.66C554.05 387.519 554.116 387.39 554.215 387.293C554.315 387.197 554.441 387.138 554.575 387.126L526.205 339.178L525.615 337.978L505.927 321.627L514.371 351.096L514.285 351.653L514.515 352.481L516.25 372.106L530.915 369.844L545.11 383.73C545.221 383.838 545.288 383.987 545.296 384.148C545.305 384.309 545.254 384.468 545.155 384.592C545.093 384.669 545.014 384.728 544.925 384.764C544.836 384.8 544.74 384.812 544.646 384.799C544.527 384.809 544.407 384.79 544.297 384.744L530.491 371.236L515.215 373.593L513.34 352.553L480.673 357.256L464.531 347.283C464.465 347.362 464.384 347.425 464.293 347.468L419.089 364.583L414.74 373.414C414.685 373.525 414.599 373.616 414.494 373.674C414.389 373.732 414.27 373.753 414.154 373.735L413.95 373.704C413.878 373.671 413.814 373.623 413.762 373.563C413.709 373.502 413.669 373.43 413.645 373.352C413.621 373.274 413.612 373.19 413.62 373.108C413.628 373.025 413.652 372.944 413.691 372.872L418.039 364.04L418.078 363.793L418.282 363.824L462.002 346.86L404.411 333.579L404.207 333.547L386.194 329.113L381.829 337.087L369.655 357.949L369.967 358.821L369.56 358.758L371.569 399.746L381.921 424.98L382.096 425.387C382.119 425.535 382.095 425.687 382.029 425.821L382.016 433.041L368.025 444.246L367.771 466.129L330.108 462.837L329.787 462.787L325.859 454.64L326.057 454.322L334.198 440.248L336.706 424.036L333.905 375.64L316.897 328.658C316.807 328.578 316.74 328.474 316.7 328.357C316.661 328.239 316.651 328.113 316.672 327.989L316.336 327.082L254.795 255.089L254.5 255.456L254.547 255.146L250.851 258.027L249.808 267.085L250.041 269.624L251.911 281.634L247.853 297.068L230.799 307.26L230.653 307.237L193.177 305.622L193.021 305.281L186.955 288.978L188.012 279.637L160.771 235.38L134.439 230.166L134.293 229.954C131.536 225.379 129.782 220.196 129.155 214.776C128.889 208.399 130 190.039 130.119 186.762L125.084 185.381C125.084 185.381 125.084 185.381 124.88 185.35L124.705 185.323L108.993 181.055L46.5806 177.736L32.4915 170.107L16.9708 103.682L20.6924 110.277ZM41.5893 158.336L27.0657 126.912L44.2237 167.138L71.6005 159.43L41.5893 158.336ZM99.7897 154.953L75.7351 159.5L46.0838 167.838L59.4139 172.276L76.0495 168.07L118.413 147.538L99.7897 154.953ZM78.2096 168.373L103.953 172.767L110.312 171.375L129.095 143.646L78.2096 168.373ZM112.261 170.726L131.368 162.879L145.403 158.714L131.296 142.91L112.261 170.726ZM146.655 158.528L153.578 160.042L143.698 144.1L132.494 142.683L146.655 158.528ZM139.984 138.995L133.613 141.621L143.437 142.697L143.08 134.595L140.177 138.708L139.984 138.995ZM188.887 138.07L183.842 132.126L165.482 146.709L188.887 138.07ZM170.726 146.158L183.996 142.889L206.465 143.197L197.372 139.129L189.981 138.905L170.726 146.158ZM335.923 438.931L349.215 420.871L349.011 420.839L349.606 420.266L341.226 390.775L338.264 424.182L335.923 438.931ZM350.418 418.681L368.032 359.377L341.583 387.694L350.418 418.681ZM350.735 421.645L349.244 441.499L379.579 425.853L350.875 421.128L350.735 421.645ZM389.476 -2.28545L389.185 -2.33051L361.717 17.1482L381.202 20.1625L389.476 -2.28545ZM382.893 18.8718L399.066 5.12221L390.704 -2.31729L382.893 18.8718ZM267.889 92.9515L266.39 115.941L295.325 108.569L267.889 92.9515ZM294.239 106.532L284.358 95.0241L269.97 92.7983L294.239 106.532ZM284.957 93.8496L297.154 108.123L305.204 105.82L303.972 90.2652L303.937 89.5311L303.984 89.2217L304.047 88.8195L311.933 55.1919L263.452 47.2169L254.665 79.1527L267.729 91.0895L284.957 93.8496ZM377.928 176.85L383.358 178.767L388.622 153.414L391.199 126.347L375.837 161.067L377.248 176.428L378.48 176.365L377.928 176.85ZM381.142 285.818L400.598 286.895L364.098 260.467L355.822 268.469L381.142 285.818ZM357.395 271.025L366.224 283.352C366.314 283.368 366.399 283.405 366.473 283.46C366.547 283.516 366.608 283.588 366.652 283.671L366.988 284.389L367.105 284.597L378.584 285.581L357.395 271.025ZM363.17 259.722L333.044 257.437L354.763 267.798L363.17 259.722ZM365.482 258.654L444.085 235.966L412.313 208.083L401.122 207.746L358.027 239.95L357.881 239.927L328.192 237.52L331.1 255.742L330.542 255.878L365.482 258.654ZM313.982 87.4419L305.901 89.3599L322.093 102.097L343.222 106.823L315.608 87.5351L313.72 87.5915L313.982 87.4419ZM314.867 85.9632L312.65 56.9185L305.312 88.35L314.867 85.9632ZM305.22 90.4899L306.417 105.691L346.452 110.237L345.696 108.758L321.688 103.365L305.22 90.4899ZM346.358 107.562L348.539 110.814L348.424 111.556L336.235 154.687L365.356 123.172L381.391 110.32L389.041 84.3859L317.538 87.2001L346.358 107.562ZM368.272 152.135L368.229 152.414L375.048 159.804L391.375 122.889L381.86 111.913L366.639 124.131L368.133 150.72C368.237 150.788 368.317 150.89 368.363 151.011C368.408 151.132 368.416 151.265 368.387 151.393L368.272 152.135ZM365.569 125.265L336.337 156.92L336.628 156.965L362.87 170.085L367.136 151.959L365.569 125.265ZM382.697 110.934L392.3 121.923L399.243 116.947L390.035 86.0602L382.697 110.934ZM401.775 206.611L411.981 206.955L413.084 180.546C408.051 191.489 402.782 203.377 401.818 206.523L401.775 206.611ZM413.813 176.794L440.698 145.662L395.05 150.607L413.813 176.794ZM404.618 165.868L404.564 172.195L404.054 183.394L413.019 177.495L404.618 165.868ZM440.768 144.247L422.884 122.98L400.24 118.02L394.601 149.27L440.768 144.247ZM403.402 164.286L393.74 150.785L389.966 153.59L403.324 170.768L403.378 164.44L403.402 164.286ZM393.432 149.691L398.976 118.869L392.633 123.432L389.872 152.467L393.432 149.691ZM400.301 116.857L421.59 121.513L391.201 86.6207L400.301 116.857ZM423.581 121.947L441.591 143.171L442.096 113.882L392.723 86.2227L423.581 121.947ZM442.618 144.629L447.946 153.753L443.018 120.646L442.618 144.629ZM442.827 147.322L445.281 178.304L448.592 158.636L448.317 156.756L442.827 147.322ZM441.573 146.368L414.587 177.579C414.588 177.663 414.575 177.747 414.548 177.827L436.416 212.287L444.389 182.918L441.573 146.368ZM436.157 213.958L414.256 179.524L413.122 207.29L444.636 234.911L436.157 213.958ZM412.116 179.478L403.616 185.069L395.857 191.662C396.671 193.53 399.84 200.61 401.115 204.513C403.34 198.997 409.344 185.828 412.116 179.478ZM402.712 184.359L403.25 172.784L389.391 154.8L384.31 179.358L395.194 190.546L402.712 184.359ZM374.576 161.315L367.78 153.77L363.764 170.667L375.888 176.154L374.576 161.315ZM362.398 171.406L336.034 158.299L335.481 158.214L295.983 179.886L374.026 176.627L362.398 171.406ZM347.001 112.856L305.8 137.054L334.932 155.975L347.001 112.856ZM346.716 111.609L306.303 107.004L305.71 135.709L346.716 111.609ZM305.149 107.142L298.442 109.051L297.51 109.287L304.564 133.283L305.149 107.142ZM266.579 93.3192L230.951 111.567L265.085 116.087L266.579 93.3192ZM260.926 118.105L201.005 127.21L217.679 136.442L260.926 118.105ZM218.836 137.254L233.153 147.072L263.018 118.46L218.836 137.254ZM261.345 116.744L229.197 112.5L201.315 117.69L180.22 126.814L199.213 126.267L261.345 116.744ZM177.546 126.558L200.812 116.504L224.46 112.084L178.254 108.104L177.546 126.558ZM177.061 108.489L153.266 121.187L176.27 126.709L177.061 108.489ZM153.035 133.094L183.582 130.723L176.855 128.131L153.035 133.094ZM227.063 111.061L206.148 94.9316L205.885 94.8911L180.154 107.004L227.063 111.061ZM229.169 111.133L265.806 92.3441L208.04 94.8442L229.169 111.133ZM265.905 91.124L253.9 80.0481L210.274 93.5108L265.905 91.124ZM262.118 47.3589L223.521 54.535L253.765 78.2215L262.118 47.3589ZM263.804 45.909L312.623 53.6198C312.718 53.5196 312.845 53.46 312.977 53.4527C313.101 53.4436 313.224 53.4783 313.326 53.5514C313.428 53.6245 313.504 53.7319 313.541 53.8568V53.8568L315.943 85.5595L378.753 32.3288L361.952 27.1953C361.872 27.2148 361.789 27.2019 361.719 27.1593C361.647 27.0792 361.591 26.9843 361.554 26.8802V26.8802L378.328 21.9672L359.717 19.0881L304.778 25.0984L304.172 25.163C304.062 25.1901 303.948 25.1724 303.852 25.1134V25.1134L246.605 29.848L263.804 45.909ZM379.401 31.2252L380.871 21.7269L364.193 26.5916L379.401 31.2252ZM385.481 -0.939456L310.394 23.306L360.023 17.108L385.481 -0.939456ZM387.98 -3.02379L350.24 -7.94341L307.21 23.0669L387.98 -3.02379ZM379.44 33.4805L317.11 86.5002L389.127 83.6388L388.584 81.7491L388.91 82.148L379.44 33.4805ZM389.966 81.1075L392.935 64.9984L381.473 37.6915L389.966 81.1075ZM394.006 64.2454L419.9 80.3845L381.841 35.3092L394.006 64.2454ZM393.965 65.6647L390.689 83.3736L420.812 82.3946L393.965 65.6647ZM392.205 84.5586L440.761 111.711L422.542 83.5493L392.205 84.5586ZM442.383 112.026L445.976 99.4028L424.986 85.0996L442.383 112.026ZM446.322 98.1258L448.049 90.8215L426.378 84.5862L446.322 98.1258ZM446.601 101.527L443.172 113.478L449.179 153.69L452.136 127.632L446.601 101.527ZM445.641 183.112L437.465 213.02L455.537 210.715L449.086 162.578L445.641 183.112ZM437.512 214.262L445.65 234.529L455.083 212.102L437.512 214.262ZM445.142 237.618C445.142 237.618 445.142 237.618 444.967 237.591C444.845 237.515 444.748 237.4 444.69 237.263L366.474 259.567L456.208 281.369L445.496 237.451C445.39 237.5 445.273 237.515 445.161 237.495L445.142 237.618ZM366.943 261.161L402.724 287.034L455.608 282.543L366.943 261.161ZM402.436 288.51L388.649 295.121L418.332 312.797L402.436 288.51ZM400.252 288.172L382.241 287.192L387.517 294.344L400.252 288.172ZM380.557 287.09L367.666 285.983L379.432 312.101L386.592 295.119L380.557 287.09ZM379.453 315.05L379.209 314.506L369.722 321.465L384.855 326.974L379.433 315.174L379.453 315.05ZM378.697 313.381L366.024 285.222L355.472 270.537L356.693 319.513L367.892 320.96L368.416 321.041L378.697 313.381ZM367.846 322.22L356.682 320.746L368.394 353.763L367.846 322.22ZM355.786 321.717L345.276 349.363L368.045 356.401L355.786 321.717ZM354.212 269.044L330.774 257.846L355.413 317.572L354.212 269.044ZM329.469 257.803L317.162 264.294L316.976 277.254L353.786 316.719L329.469 257.803ZM329.818 255.544L326.802 236.482L357.525 238.954L400.485 206.855C400.485 206.855 400.523 206.608 400.547 206.453C398.871 201.488 396.934 196.63 394.746 191.902L383.448 180.112L376.775 177.749L307.152 235.501L329.818 255.544ZM374.926 177.748L294.098 181.084L306.567 234.46L374.926 177.748ZM334.673 157.265L305.808 138.354L305.755 140.816L305.051 138.427L294.196 179.483L334.673 157.265ZM304.43 136.271L296.74 110.023L255.038 160.595L304.358 136.545L304.43 136.271ZM295.371 109.812L266.233 117.342L254.115 159.819L295.371 109.812ZM264.634 118.615L234.135 147.858L252.526 161.22L264.634 118.615ZM233.978 149.259L240.511 194.938L252.155 162.462L233.978 149.259ZM233.308 153.59L230.481 197.695L233.506 200.697L232.038 206.14L235.256 204.611L239.593 197.203L233.308 153.59ZM235.036 206.034L232.03 207.343L234.306 234.464L235.036 206.034ZM235.222 245.124L232.979 264.83L241.438 262.97L246.474 267.234L249.38 257.895L236.172 208.332L235.222 245.124ZM241.179 264.451L231.706 266.502L234.15 245.116L231.053 208.839L209.692 269.812L221.097 274.745L244.453 279.53L246.152 268.547L241.179 264.451ZM220.318 275.923L209.758 271.122L214.128 295.304L220.37 293.513L220.318 275.923ZM221.486 293.623L222.71 294.192L226.068 287.14L221.521 277.978L221.486 293.623ZM208.305 270.295L200.529 246.916L200.965 286.9L212.706 295.052L208.305 270.295ZM208.883 268.293L228.47 212.431L221.666 223.639L216.773 225.194L216.771 228.869L212.952 233.125L209.19 228.14L201.646 229.285L200.599 242.999L208.883 268.293ZM209.609 226.779L212.943 231.255L215.577 228.494L215.616 224.382L220.917 222.699L230.245 207.32L232.134 201.277L229.858 199.024L217.502 212.192L208.464 211.237L206.737 222.406L195.594 219.827L206.946 227.412L209.609 226.779ZM208.33 209.791L217.13 210.74L228.949 198.154L200.135 183.148L198.829 196.219L208.33 209.791ZM200.292 181.747L229.368 196.984L232.449 148.927L201.958 164.232L200.215 181.671L200.292 181.747ZM217.545 155.048L231.51 148.053L217.86 143.566L217.545 155.048ZM229.405 146.049L217.371 137.661L199.021 127.505L180.092 128.029L217.134 142.281C217.207 142.219 217.292 142.176 217.384 142.157C217.475 142.138 217.569 142.143 217.658 142.172L229.405 146.049ZM182.148 132.086L144.867 134.998L161.889 148.149L182.148 132.086ZM174.185 127.464L151.866 122.142L143.554 133.845L174.185 127.464ZM147.312 114.563L141.131 135.244L151.242 120.969L177.242 107.123L177.3 106.752L191.773 49.2435L147.312 114.563ZM178.638 106.389L204.627 94.1578L190.254 81.0366L197.116 63.0904L193.164 48.3499L178.638 106.389ZM205.251 93.0188L197.649 65.042L191.651 80.6825L205.251 93.0188ZM194.097 46.942L197.86 61.1779L202.362 49.4244L194.097 46.942ZM206.384 42.5069L204 48.6641L220.393 53.5444L206.384 42.5069ZM221.197 54.9042L221.173 55.0589L203.702 49.8218L198.655 63.1701L206.775 93.3814L253.005 79.086L222.167 54.8009L221.197 54.9042ZM222.621 53.4137L262.261 46.0505L244.892 29.9315L222.621 53.4137ZM247.755 27.4281L246.447 28.5564L303.844 23.8134L316.702 0.458824L247.755 27.4281ZM318.404 -0.133223L305.967 22.431L349.621 -9.14793L363.218 -24.9434L318.404 -0.133223ZM365.55 -25.9449L351.203 -9.15664L388.861 -4.28147L365.647 -26.1834L365.55 -25.9449ZM367 -26.4492L390.924 -3.74049C390.997 -3.65594 391.043 -3.5493 391.056 -3.43501L399.739 4.24421L414.589 -29.2881L367 -26.4492ZM415.02 -27.2572L400.711 5.09158L400.944 5.12762L382.141 21.2265L380.504 31.8077L422.149 81.2709L415.02 -27.2572ZM445.854 74.1669L416.428 -24.7902L423.506 82.5262L448.162 89.5085L445.854 74.1669ZM447.166 75.1302L449.26 89.9318L504.728 106.908L447.166 75.1302ZM508.495 109.359L449.865 91.4192L457.255 107.072L456.899 133.469L508.495 109.359ZM455.658 133.974L456.077 107.365L448.911 92.1903L447.338 98.8849L447.295 99.1633L453.296 127.463L457.053 141.73L455.658 133.974ZM459.563 155.962L452.919 130.667L449.79 158.41L449.747 158.688L456.094 205.954L459.563 155.962ZM456.622 212.182L456.389 212.146L446.67 235.257L475.628 229.283L456.622 212.182ZM446.455 236.649L457.156 280.249L476.358 230.536L446.455 236.649ZM477.96 230.784L489.366 261.345L555.57 231.48L477.96 230.784ZM548.426 194.957L534.762 193.065L556.794 227.425L548.426 194.957ZM561.358 196.768L549.679 195.151L558.11 227.596L561.358 196.768ZM608.5 259.468L604.559 274.92L612.164 318.294L608.5 259.468ZM613.932 328.071L631.231 271.19L631.279 270.88L609.55 255.576L609.521 255.761L613.932 328.071ZM608.381 255.807L608.28 254.334L607.519 247.88L605.518 267.18L608.381 255.807ZM609.454 254.072L631.232 269.448L629.618 245.375L616.012 236.934L608.321 241.351L608.172 242.311L609.454 254.072ZM614.851 236.152L580.778 214.852L607.469 240.491L614.851 236.152ZM606.925 242.466L606.992 242.033L560.4 232.069L603.484 273.582L603.687 273.423L606.925 242.466ZM605.766 240.513L576.138 212.075L559.489 230.629L605.766 240.513ZM575.316 211.219L562.495 197.704L559.118 229.178L575.316 211.219ZM603.268 202.491L563.615 197.212L576.441 210.696L616.106 235.365C616.221 235.354 616.336 235.377 616.438 235.432C616.54 235.487 616.626 235.571 616.684 235.676L630.115 244.089C630.235 244.082 630.354 244.114 630.456 244.18C630.558 244.247 630.637 244.346 630.683 244.463L641.315 251.113L603.268 202.491ZM627.836 208.699L627.632 208.668L626.321 208.465L609.332 203.968L627.306 215.017L667.156 201.286L627.836 208.699ZM686.261 258.034L689.36 300.267L689.085 321.323L689.547 321.616L696.936 244.162L676.009 202.086L686.261 258.034ZM664.67 227.956L684.64 255.787L674.556 201.449L664.034 228.016L664.67 227.956ZM662.729 228.163L673.782 200.284L628.419 215.917C628.453 216.075 628.427 216.241 628.347 216.381C628.297 216.464 628.229 216.532 628.149 216.58C628.068 216.628 627.978 216.655 627.887 216.659L637.215 230.964L662.729 228.163ZM636.757 232.382L625.71 215.498L605.127 202.81L642.63 250.904L636.757 232.382ZM642.951 253.647L630.74 246.024L632.309 269.234L642.951 253.647ZM639.529 275.768L632.146 272.598L615.146 328.512L627.027 315.905L641.279 290.485L639.529 275.768ZM615.005 330.391L644.733 337.556L627.462 317.144L615.005 330.391ZM641.516 292.612L628.246 316.315L645.639 336.904L641.516 292.612ZM689.057 522.959L688.985 523.423L696.055 518.783L689.057 522.959ZM697.249 516.655L691.335 505.729L689.267 521.408L697.249 516.655ZM691.602 503.616L698.282 515.959L704.863 511.972L702.562 502.556L688.922 500.699L691.602 503.616ZM717.357 504.655L703.863 502.82L705.958 511.445L717.357 504.655ZM705.372 514.078L699.329 518.054L712.099 541.73L705.372 514.078ZM698.336 518.692L688.823 524.855L688.627 526.124L711.973 543.896L698.336 518.692ZM711.825 545.426L688.184 527.449L678.904 545.021L711.825 545.426ZM687.51 525.824L683.358 528.572L687.477 526.041L687.51 525.824ZM662.319 538.876L670.272 540.676L673.637 535.115L674.25 533.467L674.283 533.25L674.935 531.545L662.319 538.876ZM671.355 541.192L677.667 544.925L686.53 528.112L675.252 534.699L671.355 541.192ZM676.037 531.938L687.725 524.242L687.812 523.685L676.67 530.357L676.037 531.938ZM677.233 528.448L687.915 522.054L690.297 503.953L687.481 500.952L677.233 528.448ZM687.997 499.352L701.205 501.11L690.294 491.249L687.997 499.352ZM686.523 461.647L686.748 462.126L690.544 489.831L702.835 500.982L709.308 489.597L683.279 442.328L686.62 461.219C686.661 461.363 686.657 461.517 686.611 461.661L686.523 461.647ZM678.852 441.833L684.63 456.729L681.535 439.144L681.413 438.966L700.381 395.395L668.954 394.588L678.587 428.708C678.61 428.835 678.59 428.967 678.529 429.08L678.852 441.833ZM668.288 396.576L667.647 400.722L674.37 417.602L668.288 396.576ZM659.897 420.938L677.753 440.459L677.578 429.059L667.058 402.405L659.897 420.938ZM666.711 398.866L667.448 394.102L658.33 380.748L666.711 398.866ZM657.407 377.659L668.461 393.34L699.592 394.132L647.505 340.646L657.407 377.659ZM656.032 377.098L645.999 339.59L612.35 364.321C612.301 364.452 612.21 364.562 612.094 364.63L656.032 377.098ZM611.751 363.373L644.915 338.883L614.328 331.49L611.751 363.373ZM613.196 330.903C613.067 330.792 612.985 330.632 612.967 330.456L612.89 328.829L605.526 286.791L611.052 358.64L613.196 330.903ZM610.253 363.807L603.596 275.943L555.332 335.004L610.253 363.807ZM601.859 276.181L527.646 336.613L553.924 334.659C554.029 334.503 554.184 334.392 554.36 334.347L601.859 276.181ZM619.386 529.161L613.924 502.973L582.573 528.662L619.386 529.161ZM573.618 521.004L580.596 527.944L591.278 494.749L573.618 521.004ZM593.659 491.316L582.09 527.542L613.65 501.663L594.376 468.174L593.659 491.316ZM614.039 500.108L616.62 486.315L625.583 475.029L594.463 466.065L614.039 500.108ZM593.909 463.477L611.584 427.879L583.855 391.403L593.909 463.477ZM578.405 417.962L591.917 457.656L582.719 391.227L578.405 417.962ZM582.66 388.335L608.946 365.505L556.85 386.877L582.66 388.335ZM555.504 386.13L608.56 364.337L554.873 336.232L555.504 386.13ZM554.313 384.773L553.708 336.052L526.8 338.035L554.313 384.773ZM602.461 274.215L559.465 232.716L559.852 234.265L558.561 232.197L526.926 335.678L602.461 274.215ZM525.679 335.834L557.387 232.078L489.845 262.496L525.679 335.834ZM524.023 335.166L491.22 268.063L505.283 319.817L505.574 319.862L524.023 335.166ZM480.723 355.775L508.787 351.722L466.597 347.032L480.723 355.775ZM512.847 350.924L504.486 321.689L465.852 345.682L512.847 350.924ZM463.925 345.415L504.047 320.481C504.023 320.355 504.043 320.223 504.104 320.11L488.447 262.47L477.041 231.909L457.588 282.279L457.788 283.102L457.119 282.999L456.257 283.943L404.299 288.228L404.649 288.472L403.775 288.337L420.607 314.479L420.398 323.539L463.925 345.415ZM459.08 344.349L419.964 324.612L406.237 331.992L459.08 344.349ZM404.373 331.704L419.297 323.527L419.488 315.541L388.025 327.686L404.373 331.704ZM418.719 314.535L387.53 295.803L380.056 313.465L386.267 327.097L418.719 314.535ZM385.119 328.155L370.987 323.118L381.814 334.487L385.119 328.155ZM380.991 335.563L368.934 322.895L369.649 355.097L380.991 335.563ZM368.444 361.152L351.528 418.061L370.433 399.57L368.444 361.152ZM370.606 400.959L351.295 419.957L380.377 424.741L370.606 400.959ZM380.636 432.511L380.679 427.417L370.667 440.473L380.636 432.511ZM379.484 427.042L350.328 442.015L366.854 443.336L379.484 427.042ZM366.662 444.574L349.607 443.202L366.482 464.44L366.662 444.574ZM348.127 443.322L336.863 451.939L336.853 456.055L364.686 464.099L348.127 443.322ZM330.387 461.613L360.784 464.256L336.128 457.274L327.433 455.643L330.387 461.613ZM334.581 442.208C334.54 442.269 334.486 442.318 334.424 442.352C334.361 442.387 334.292 442.405 334.223 442.406L327.323 454.233L335.697 455.813L335.707 451.316L347.582 442.414L347.97 442.22L349.471 422.494L334.581 442.208ZM341.307 385.814L367.723 357.524L344.808 350.462L341.307 385.814ZM337.451 416.137L339.986 387.605L335.254 378.288L337.451 416.137ZM335.064 375.281L340.443 385.427L343.938 350.106L343.793 350.084L343.826 349.867L318.9 330.171L335.064 375.281ZM344.188 348.687L354.774 320.736L318.667 328.203L344.188 348.687ZM317.766 326.701L317.981 327.241L354.961 319.53L317.154 278.992L317.766 326.701ZM256.113 252.157L256.126 253.616L256.021 254.297L316.506 325.017L315.879 277.401L316.053 263.172L329.058 256.218L306.056 236.028L305.717 236.293L292.738 180.81L292.622 180.792C292.546 180.776 292.474 180.745 292.41 180.699C292.346 180.653 292.292 180.595 292.25 180.527C292.208 180.458 292.179 180.382 292.165 180.301C292.151 180.22 292.153 180.137 292.169 180.057C292.186 179.954 292.229 179.857 292.294 179.778C292.359 179.698 292.443 179.639 292.537 179.607L292.58 179.328L292.959 179.387L303.953 137.813L253.46 162.315L256.113 252.157ZM252.428 165.324L240.938 197.38L254.908 251.083L252.428 165.324ZM254.462 253.961L240.058 198.828L236.412 205.043C236.524 205.125 236.601 205.251 236.627 205.393L250.324 256.805L254.462 253.961ZM250.698 281.573L248.853 269.788L248.604 267.152L249 263.633L247.457 268.59L245.653 280.254L249.504 286.014L250.698 281.573ZM245.863 296.824L233.345 292.923L231.387 305.577L245.863 296.824ZM233.148 291.689L246.915 296.004L249.095 287.693L244.626 281.109L222.08 276.481L227.343 286.799L233.148 291.689ZM229.976 306.214L232.097 292.508L226.949 288.195L223.605 295.154L226.749 306.063L229.976 306.214ZM225.681 306.025L222.645 295.576L220.999 294.846L213.909 296.917L196.223 304.826L225.681 306.025ZM188.114 288.999L193.874 304.399L212.422 295.927L200.185 287.698L189.062 280.56L188.114 288.999ZM130.315 214.797C130.915 219.909 132.56 224.801 135.136 229.134L159.875 234.038L131.147 188.41C130.881 193.596 130.196 209.013 130.315 214.797ZM131.326 185.903L131.283 186.182L161.497 234.352L161.468 234.538L188.874 279.074L198.943 285.51L158.886 198.404C158.843 198.341 158.812 198.27 158.795 198.194C158.778 198.118 158.775 198.038 158.787 197.961C158.799 197.883 158.826 197.808 158.865 197.741C158.904 197.674 158.955 197.615 159.016 197.568C159.142 197.472 159.298 197.431 159.451 197.455C159.603 197.478 159.74 197.564 159.831 197.695L199.848 284.478L199.459 243.234C199.458 243.14 199.472 243.046 199.502 242.956L200.525 229.017L200.635 228.305L205.248 227.593L189.382 216.997L205.904 220.852L207.483 210.642L197.884 196.929L197.641 196.574L199.042 182.694L160.372 180.513L159.614 180.015C159.609 179.952 159.619 179.889 159.642 179.83V179.83L186.348 160.075L202.258 163.645L216.509 156.345L216.847 144.138L184.759 131.792L190.149 138.392L197.628 138.63L212.443 145.231L184.151 144.782L161.801 150.258L144.245 136.708L144.556 143.947L154.836 160.585C154.905 160.695 154.932 160.83 154.911 160.961C154.891 161.093 154.825 161.213 154.726 161.297C154.739 161.349 154.742 161.403 154.734 161.457C154.725 161.51 154.706 161.561 154.678 161.606C154.655 161.754 154.578 161.887 154.463 161.976C154.349 162.066 154.206 162.104 154.067 162.082V162.082L146.246 160.397L132.037 164.535L125.87 185.123L131.326 185.903ZM162.354 179.267L199.127 181.376L200.857 164.22L162.354 179.267ZM199.496 163.376L186.523 160.482L163.408 177.466L199.496 163.376ZM130.75 164.367L110.993 172.557L105.716 173.705L124.649 184.142L130.75 164.367ZM47.0298 176.76L109.151 180.034L119.852 182.956L103.713 174.124L76.2319 169.397L59.315 173.686L44.8534 168.852L47.0298 176.76ZM33.2472 169.464L45.5484 176.119L43.3233 168.14L20.3411 113.897L33.2472 169.464Z" fill="url(#D)" stroke="url(#D)"/><defs><filter id="A" x="-130.507" y="-356" width="1175.29" height="1175.29" filterUnits="userSpaceOnUse" color-interpolation-filters="sRGB"><feFlood flood-opacity="0"/><feBlend in="SourceGraphic"/><feGaussianBlur stdDeviation="125"/></filter><radialGradient id="B" cx="0" cy="0" r="1" gradientUnits="userSpaceOnUse" gradientTransform="translate(993.845 451.489) rotate(-155.477) scale(735.382 526.19)"><stop stop-color="#c6b38a"/><stop offset=".464" stop-color="#f3c691"/><stop offset="1" stop-color="#b4703e"/></radialGradient><radialGradient id="C" cx="0" cy="0" r="1" gradientUnits="userSpaceOnUse" gradientTransform="translate(-219.593 312.335) rotate(-8.86668) scale(767.01 420.138)"><stop stop-color="#c6b38a"/><stop offset=".464" stop-color="#f3c691"/><stop offset="1" stop-color="#b4703e"/></radialGradient><radialGradient id="D" cx="0" cy="0" r="1" gradientUnits="userSpaceOnUse" gradientTransform="translate(-240.881 310.673) rotate(-8.92167) scale(787.445 432.5)"><stop stop-color="#c6b38a"/><stop offset=".464" stop-color="#f3c691"/><stop offset="1" stop-color="#b4703e"/></radialGradient></defs></svg>